G04 #@! TF.GenerationSoftware,KiCad,Pcbnew,(5.1.0)-1*
G04 #@! TF.CreationDate,2019-12-18T17:57:52-04:00*
G04 #@! TF.ProjectId,Main,4d61696e-2e6b-4696-9361-645f70636258,rev?*
G04 #@! TF.SameCoordinates,Original*
G04 #@! TF.FileFunction,Other,Fab,Top*
%FSLAX46Y46*%
G04 Gerber Fmt 4.6, Leading zero omitted, Abs format (unit mm)*
G04 Created by KiCad (PCBNEW (5.1.0)-1) date 2019-12-18 17:57:52*
%MOMM*%
%LPD*%
G04 APERTURE LIST*
%ADD10C,0.100000*%
%ADD11C,0.150000*%
%ADD12C,0.080000*%
%ADD13C,0.120000*%
%ADD14C,0.060000*%
%ADD15C,0.075000*%
%ADD16C,0.110000*%
G04 APERTURE END LIST*
D10*
X177386500Y-101762000D02*
X179386500Y-101762000D01*
X177386500Y-102962000D02*
X177386500Y-101762000D01*
X179386500Y-102962000D02*
X177386500Y-102962000D01*
X179386500Y-101762000D02*
X179386500Y-102962000D01*
X209461000Y-56021500D02*
X209461000Y-59221500D01*
X207861000Y-56021500D02*
X209461000Y-56021500D01*
X207861000Y-59221500D02*
X207861000Y-56021500D01*
X209461000Y-59221500D02*
X207861000Y-59221500D01*
X209461000Y-61646000D02*
X209461000Y-64846000D01*
X207861000Y-61646000D02*
X209461000Y-61646000D01*
X207861000Y-64846000D02*
X207861000Y-61646000D01*
X209461000Y-64846000D02*
X207861000Y-64846000D01*
X106515000Y-88431500D02*
X106515000Y-85231500D01*
X108115000Y-88431500D02*
X106515000Y-88431500D01*
X108115000Y-85231500D02*
X108115000Y-88431500D01*
X106515000Y-85231500D02*
X108115000Y-85231500D01*
X205450000Y-56150000D02*
X205450000Y-58150000D01*
X204250000Y-56150000D02*
X205450000Y-56150000D01*
X204250000Y-58150000D02*
X204250000Y-56150000D01*
X205450000Y-58150000D02*
X204250000Y-58150000D01*
X180875000Y-48350000D02*
X182475000Y-48350000D01*
X180875000Y-49150000D02*
X180875000Y-48350000D01*
X182475000Y-49150000D02*
X180875000Y-49150000D01*
X182475000Y-48350000D02*
X182475000Y-49150000D01*
X181753000Y-62301500D02*
X182253000Y-61801500D01*
X181753000Y-71801500D02*
X181753000Y-62301500D01*
X183753000Y-71801500D02*
X181753000Y-71801500D01*
X183753000Y-61801500D02*
X183753000Y-71801500D01*
X182253000Y-61801500D02*
X183753000Y-61801500D01*
X171712000Y-50593500D02*
X171212000Y-50093500D01*
X179212000Y-50593500D02*
X171712000Y-50593500D01*
X179212000Y-48593500D02*
X179212000Y-50593500D01*
X171212000Y-48593500D02*
X179212000Y-48593500D01*
X171212000Y-50093500D02*
X171212000Y-48593500D01*
X211426300Y-70616700D02*
X210926300Y-71116700D01*
X211426300Y-69116700D02*
X211426300Y-70616700D01*
X209426300Y-69116700D02*
X211426300Y-69116700D01*
X209426300Y-71116700D02*
X209426300Y-69116700D01*
X210926300Y-71116700D02*
X209426300Y-71116700D01*
X205411500Y-66981500D02*
X206061500Y-66331500D01*
X207211500Y-66331500D02*
X206061500Y-66331500D01*
X205411500Y-66981500D02*
X205411500Y-69431500D01*
X207211500Y-69431500D02*
X205411500Y-69431500D01*
X207211500Y-66331500D02*
X207211500Y-69431500D01*
X181038500Y-91059000D02*
X181038500Y-96139000D01*
X178498500Y-91059000D02*
X181038500Y-91059000D01*
X178498500Y-95504000D02*
X178498500Y-91059000D01*
X179133500Y-96139000D02*
X178498500Y-95504000D01*
X181038500Y-96139000D02*
X179133500Y-96139000D01*
X167525700Y-94754700D02*
X167525700Y-89674700D01*
X170065700Y-94754700D02*
X167525700Y-94754700D01*
X170065700Y-90309700D02*
X170065700Y-94754700D01*
X169430700Y-89674700D02*
X170065700Y-90309700D01*
X167525700Y-89674700D02*
X169430700Y-89674700D01*
X201960100Y-60861700D02*
X202460100Y-61361700D01*
X192460100Y-60861700D02*
X201960100Y-60861700D01*
X192460100Y-62861700D02*
X192460100Y-60861700D01*
X202460100Y-62861700D02*
X192460100Y-62861700D01*
X202460100Y-61361700D02*
X202460100Y-62861700D01*
X187163200Y-78443200D02*
X187663200Y-77943200D01*
X187163200Y-79943200D02*
X187163200Y-78443200D01*
X189163200Y-79943200D02*
X187163200Y-79943200D01*
X189163200Y-77943200D02*
X189163200Y-79943200D01*
X187663200Y-77943200D02*
X189163200Y-77943200D01*
X176617500Y-69494500D02*
X179817500Y-69494500D01*
X176617500Y-71094500D02*
X176617500Y-69494500D01*
X179817500Y-71094500D02*
X176617500Y-71094500D01*
X179817500Y-69494500D02*
X179817500Y-71094500D01*
X184812700Y-109153200D02*
X172812700Y-109153200D01*
X184812700Y-107153200D02*
X184812700Y-109153200D01*
X173312700Y-107153200D02*
X184812700Y-107153200D01*
X172812700Y-107653200D02*
X173312700Y-107153200D01*
X172812700Y-109153200D02*
X172812700Y-107653200D01*
X187109000Y-51676500D02*
X187109000Y-54876500D01*
X185509000Y-51676500D02*
X187109000Y-51676500D01*
X185509000Y-54876500D02*
X185509000Y-51676500D01*
X187109000Y-54876500D02*
X185509000Y-54876500D01*
X126098100Y-63347500D02*
X122898100Y-63347500D01*
X126098100Y-61747500D02*
X126098100Y-63347500D01*
X122898100Y-61747500D02*
X126098100Y-61747500D01*
X122898100Y-63347500D02*
X122898100Y-61747500D01*
X158348200Y-110863200D02*
X163510700Y-105700700D01*
X163510700Y-90203200D02*
X86450700Y-90203200D01*
X163510700Y-105700700D02*
X163510700Y-90203200D01*
X158348200Y-110863200D02*
X86450700Y-110863200D01*
X86450700Y-110863200D02*
X86450700Y-90203200D01*
X210263000Y-67919500D02*
X210263000Y-66319500D01*
X210263000Y-66319500D02*
X213463000Y-66319500D01*
X213463000Y-66319500D02*
X213463000Y-67919500D01*
X213463000Y-67919500D02*
X210263000Y-67919500D01*
X172440700Y-100493700D02*
X174040700Y-100493700D01*
X174040700Y-100493700D02*
X174040700Y-103693700D01*
X174040700Y-103693700D02*
X172440700Y-103693700D01*
X172440700Y-103693700D02*
X172440700Y-100493700D01*
X124664600Y-77749500D02*
X124664600Y-79349500D01*
X124664600Y-79349500D02*
X121464600Y-79349500D01*
X121464600Y-79349500D02*
X121464600Y-77749500D01*
X121464600Y-77749500D02*
X124664600Y-77749500D01*
X183616700Y-95465200D02*
X183616700Y-92265200D01*
X185216700Y-95465200D02*
X183616700Y-95465200D01*
X185216700Y-92265200D02*
X185216700Y-95465200D01*
X183616700Y-92265200D02*
X185216700Y-92265200D01*
X188950700Y-95465200D02*
X188950700Y-92265200D01*
X190550700Y-95465200D02*
X188950700Y-95465200D01*
X190550700Y-92265200D02*
X190550700Y-95465200D01*
X188950700Y-92265200D02*
X190550700Y-92265200D01*
X194208500Y-95503800D02*
X194208500Y-92303800D01*
X195808500Y-95503800D02*
X194208500Y-95503800D01*
X195808500Y-92303800D02*
X195808500Y-95503800D01*
X194208500Y-92303800D02*
X195808500Y-92303800D01*
X199268700Y-92265200D02*
X200868700Y-92265200D01*
X200868700Y-92265200D02*
X200868700Y-95465200D01*
X200868700Y-95465200D02*
X199268700Y-95465200D01*
X199268700Y-95465200D02*
X199268700Y-92265200D01*
X204444700Y-95459020D02*
X204444700Y-92259020D01*
X206044700Y-95459020D02*
X204444700Y-95459020D01*
X206044700Y-92259020D02*
X206044700Y-95459020D01*
X204444700Y-92259020D02*
X206044700Y-92259020D01*
X194711700Y-79594200D02*
X196211700Y-79594200D01*
X196211700Y-79594200D02*
X196211700Y-81594200D01*
X196211700Y-81594200D02*
X194211700Y-81594200D01*
X194211700Y-81594200D02*
X194211700Y-80094200D01*
X194211700Y-80094200D02*
X194711700Y-79594200D01*
X121543700Y-58753500D02*
X122043700Y-59253500D01*
X120043700Y-58753500D02*
X121543700Y-58753500D01*
X120043700Y-60753500D02*
X120043700Y-58753500D01*
X122043700Y-60753500D02*
X120043700Y-60753500D01*
X122043700Y-59253500D02*
X122043700Y-60753500D01*
X128054100Y-66049500D02*
X128054100Y-67954500D01*
X128054100Y-67954500D02*
X127419100Y-68589500D01*
X127419100Y-68589500D02*
X120434100Y-68589500D01*
X120434100Y-68589500D02*
X120434100Y-66049500D01*
X120434100Y-66049500D02*
X128054100Y-66049500D01*
X128097280Y-83939500D02*
X120477280Y-83939500D01*
X128097280Y-81399500D02*
X128097280Y-83939500D01*
X121112280Y-81399500D02*
X128097280Y-81399500D01*
X120477280Y-82034500D02*
X121112280Y-81399500D01*
X120477280Y-83939500D02*
X120477280Y-82034500D01*
X136190100Y-70819500D02*
X137690100Y-70819500D01*
X137690100Y-70819500D02*
X137690100Y-82819500D01*
X137690100Y-82819500D02*
X135690100Y-82819500D01*
X135690100Y-82819500D02*
X135690100Y-71319500D01*
X135690100Y-71319500D02*
X136190100Y-70819500D01*
X208461100Y-91503880D02*
X208961100Y-91003880D01*
X208461100Y-93003880D02*
X208461100Y-91503880D01*
X210461100Y-93003880D02*
X208461100Y-93003880D01*
X210461100Y-91003880D02*
X210461100Y-93003880D01*
X208961100Y-91003880D02*
X210461100Y-91003880D01*
X118843100Y-59658500D02*
X117843100Y-58658500D01*
X118843100Y-64658500D02*
X113643100Y-64658500D01*
X113643100Y-64658500D02*
X113643100Y-58658500D01*
X113643100Y-58658500D02*
X117843100Y-58658500D01*
X118843100Y-59658500D02*
X118843100Y-64658500D01*
X113643100Y-72040500D02*
X113643100Y-67040500D01*
X118843100Y-73040500D02*
X114643100Y-73040500D01*
X118843100Y-67040500D02*
X118843100Y-73040500D01*
X113643100Y-67040500D02*
X118843100Y-67040500D01*
X113643100Y-72040500D02*
X114643100Y-73040500D01*
X161760000Y-54532000D02*
X161760000Y-51332000D01*
X163360000Y-54532000D02*
X161760000Y-54532000D01*
X163360000Y-51332000D02*
X163360000Y-54532000D01*
X161760000Y-51332000D02*
X163360000Y-51332000D01*
X124828100Y-88112500D02*
X121628100Y-88112500D01*
X124828100Y-86512500D02*
X124828100Y-88112500D01*
X121628100Y-86512500D02*
X124828100Y-86512500D01*
X121628100Y-88112500D02*
X121628100Y-86512500D01*
X121390100Y-76119500D02*
X121390100Y-74519500D01*
X121390100Y-74519500D02*
X124590100Y-74519500D01*
X124590100Y-74519500D02*
X124590100Y-76119500D01*
X124590100Y-76119500D02*
X121390100Y-76119500D01*
X161760000Y-57645500D02*
X163360000Y-57645500D01*
X163360000Y-57645500D02*
X163360000Y-60845500D01*
X163360000Y-60845500D02*
X161760000Y-60845500D01*
X161760000Y-60845500D02*
X161760000Y-57645500D01*
X130683100Y-75552500D02*
X132283100Y-75552500D01*
X132283100Y-75552500D02*
X132283100Y-78752500D01*
X132283100Y-78752500D02*
X130683100Y-78752500D01*
X130683100Y-78752500D02*
X130683100Y-75552500D01*
X180810000Y-54459000D02*
X180810000Y-51259000D01*
X182410000Y-54459000D02*
X180810000Y-54459000D01*
X182410000Y-51259000D02*
X182410000Y-54459000D01*
X180810000Y-51259000D02*
X182410000Y-51259000D01*
X180810000Y-57101000D02*
X182410000Y-57101000D01*
X182410000Y-57101000D02*
X182410000Y-60301000D01*
X182410000Y-60301000D02*
X180810000Y-60301000D01*
X180810000Y-60301000D02*
X180810000Y-57101000D01*
X209334000Y-50370000D02*
X209334000Y-53570000D01*
X207734000Y-50370000D02*
X209334000Y-50370000D01*
X207734000Y-53570000D02*
X207734000Y-50370000D01*
X209334000Y-53570000D02*
X207734000Y-53570000D01*
X192697000Y-57797500D02*
X191097000Y-57797500D01*
X191097000Y-57797500D02*
X191097000Y-54597500D01*
X191097000Y-54597500D02*
X192697000Y-54597500D01*
X192697000Y-54597500D02*
X192697000Y-57797500D01*
X192697000Y-48719000D02*
X192697000Y-51919000D01*
X191097000Y-48719000D02*
X192697000Y-48719000D01*
X191097000Y-51919000D02*
X191097000Y-48719000D01*
X192697000Y-51919000D02*
X191097000Y-51919000D01*
X205524000Y-50316000D02*
X205524000Y-53516000D01*
X203924000Y-50316000D02*
X205524000Y-50316000D01*
X203924000Y-53516000D02*
X203924000Y-50316000D01*
X205524000Y-53516000D02*
X203924000Y-53516000D01*
X186283700Y-95465200D02*
X186283700Y-92265200D01*
X187883700Y-95465200D02*
X186283700Y-95465200D01*
X187883700Y-92265200D02*
X187883700Y-95465200D01*
X186283700Y-92265200D02*
X187883700Y-92265200D01*
X203924000Y-64492000D02*
X203924000Y-61292000D01*
X205524000Y-64492000D02*
X203924000Y-64492000D01*
X205524000Y-61292000D02*
X205524000Y-64492000D01*
X203924000Y-61292000D02*
X205524000Y-61292000D01*
X191744700Y-95465200D02*
X191744700Y-92265200D01*
X193344700Y-95465200D02*
X191744700Y-95465200D01*
X193344700Y-92265200D02*
X193344700Y-95465200D01*
X191744700Y-92265200D02*
X193344700Y-92265200D01*
X196697700Y-92265200D02*
X198297700Y-92265200D01*
X198297700Y-92265200D02*
X198297700Y-95465200D01*
X198297700Y-95465200D02*
X196697700Y-95465200D01*
X196697700Y-95465200D02*
X196697700Y-92265200D01*
X187922000Y-57482000D02*
X189522000Y-57482000D01*
X189522000Y-57482000D02*
X189522000Y-60682000D01*
X189522000Y-60682000D02*
X187922000Y-60682000D01*
X187922000Y-60682000D02*
X187922000Y-57482000D01*
X201790400Y-92265200D02*
X203390400Y-92265200D01*
X203390400Y-92265200D02*
X203390400Y-95465200D01*
X203390400Y-95465200D02*
X201790400Y-95465200D01*
X201790400Y-95465200D02*
X201790400Y-92265200D01*
X109585000Y-95050000D02*
X109585000Y-94550000D01*
X109585000Y-94550000D02*
X110585000Y-94550000D01*
X110585000Y-94550000D02*
X110585000Y-95050000D01*
X110585000Y-95050000D02*
X109585000Y-95050000D01*
X177320700Y-103597200D02*
X179820700Y-103597200D01*
X179820700Y-103597200D02*
X179820700Y-105597200D01*
X179820700Y-105597200D02*
X176820700Y-105597200D01*
X176820700Y-105597200D02*
X176820700Y-104097200D01*
X176820700Y-104097200D02*
X177320700Y-103597200D01*
X173449700Y-53909700D02*
X174424700Y-52934700D01*
X173449700Y-57834700D02*
X173449700Y-53909700D01*
X177349700Y-57834700D02*
X173449700Y-57834700D01*
X177349700Y-52934700D02*
X177349700Y-57834700D01*
X174424700Y-52934700D02*
X177349700Y-52934700D01*
X199374400Y-57860100D02*
X196449400Y-57860100D01*
X196449400Y-57860100D02*
X196449400Y-52960100D01*
X196449400Y-52960100D02*
X200349400Y-52960100D01*
X200349400Y-52960100D02*
X200349400Y-56885100D01*
X200349400Y-56885100D02*
X199374400Y-57860100D01*
D11*
X177529357Y-101164380D02*
X176957928Y-101164380D01*
X177243642Y-101164380D02*
X177243642Y-100164380D01*
X177148404Y-100307238D01*
X177053166Y-100402476D01*
X176957928Y-100450095D01*
X178386500Y-100497714D02*
X178386500Y-101164380D01*
X178148404Y-100116761D02*
X177910309Y-100831047D01*
X178529357Y-100831047D01*
X178910309Y-101164380D02*
X178910309Y-100497714D01*
X178910309Y-100592952D02*
X178957928Y-100545333D01*
X179053166Y-100497714D01*
X179196023Y-100497714D01*
X179291261Y-100545333D01*
X179338880Y-100640571D01*
X179338880Y-101164380D01*
X179338880Y-100640571D02*
X179386500Y-100545333D01*
X179481738Y-100497714D01*
X179624595Y-100497714D01*
X179719833Y-100545333D01*
X179767452Y-100640571D01*
X179767452Y-101164380D01*
D12*
X178270571Y-101445190D02*
X178103904Y-101207095D01*
X177984857Y-101445190D02*
X177984857Y-100945190D01*
X178175333Y-100945190D01*
X178222952Y-100969000D01*
X178246761Y-100992809D01*
X178270571Y-101040428D01*
X178270571Y-101111857D01*
X178246761Y-101159476D01*
X178222952Y-101183285D01*
X178175333Y-101207095D01*
X177984857Y-101207095D01*
X178746761Y-101445190D02*
X178461047Y-101445190D01*
X178603904Y-101445190D02*
X178603904Y-100945190D01*
X178556285Y-101016619D01*
X178508666Y-101064238D01*
X178461047Y-101088047D01*
X179175333Y-100945190D02*
X179080095Y-100945190D01*
X179032476Y-100969000D01*
X179008666Y-100992809D01*
X178961047Y-101064238D01*
X178937238Y-101159476D01*
X178937238Y-101349952D01*
X178961047Y-101397571D01*
X178984857Y-101421380D01*
X179032476Y-101445190D01*
X179127714Y-101445190D01*
X179175333Y-101421380D01*
X179199142Y-101397571D01*
X179222952Y-101349952D01*
X179222952Y-101230904D01*
X179199142Y-101183285D01*
X179175333Y-101159476D01*
X179127714Y-101135666D01*
X179032476Y-101135666D01*
X178984857Y-101159476D01*
X178961047Y-101183285D01*
X178937238Y-101230904D01*
D11*
X210933380Y-58692928D02*
X210933380Y-59264357D01*
X210933380Y-58978642D02*
X209933380Y-58978642D01*
X210076238Y-59073880D01*
X210171476Y-59169119D01*
X210219095Y-59264357D01*
X210361952Y-58121500D02*
X210314333Y-58216738D01*
X210266714Y-58264357D01*
X210171476Y-58311976D01*
X210123857Y-58311976D01*
X210028619Y-58264357D01*
X209981000Y-58216738D01*
X209933380Y-58121500D01*
X209933380Y-57931023D01*
X209981000Y-57835785D01*
X210028619Y-57788166D01*
X210123857Y-57740547D01*
X210171476Y-57740547D01*
X210266714Y-57788166D01*
X210314333Y-57835785D01*
X210361952Y-57931023D01*
X210361952Y-58121500D01*
X210409571Y-58216738D01*
X210457190Y-58264357D01*
X210552428Y-58311976D01*
X210742904Y-58311976D01*
X210838142Y-58264357D01*
X210885761Y-58216738D01*
X210933380Y-58121500D01*
X210933380Y-57931023D01*
X210885761Y-57835785D01*
X210838142Y-57788166D01*
X210742904Y-57740547D01*
X210552428Y-57740547D01*
X210457190Y-57788166D01*
X210409571Y-57835785D01*
X210361952Y-57931023D01*
X209933380Y-57407214D02*
X209933380Y-56740547D01*
X210933380Y-57169119D01*
X210933380Y-56359595D02*
X209933380Y-56359595D01*
X210552428Y-56264357D02*
X210933380Y-55978642D01*
X210266714Y-55978642D02*
X210647666Y-56359595D01*
D13*
X209022904Y-58135785D02*
X208641952Y-58402452D01*
X209022904Y-58592928D02*
X208222904Y-58592928D01*
X208222904Y-58288166D01*
X208261000Y-58211976D01*
X208299095Y-58173880D01*
X208375285Y-58135785D01*
X208489571Y-58135785D01*
X208565761Y-58173880D01*
X208603857Y-58211976D01*
X208641952Y-58288166D01*
X208641952Y-58592928D01*
X208299095Y-57831023D02*
X208261000Y-57792928D01*
X208222904Y-57716738D01*
X208222904Y-57526261D01*
X208261000Y-57450071D01*
X208299095Y-57411976D01*
X208375285Y-57373880D01*
X208451476Y-57373880D01*
X208565761Y-57411976D01*
X209022904Y-57869119D01*
X209022904Y-57373880D01*
X208489571Y-56688166D02*
X209022904Y-56688166D01*
X208184809Y-56878642D02*
X208756238Y-57069119D01*
X208756238Y-56573880D01*
D11*
X210933380Y-64317428D02*
X210933380Y-64888857D01*
X210933380Y-64603142D02*
X209933380Y-64603142D01*
X210076238Y-64698380D01*
X210171476Y-64793619D01*
X210219095Y-64888857D01*
X210361952Y-63746000D02*
X210314333Y-63841238D01*
X210266714Y-63888857D01*
X210171476Y-63936476D01*
X210123857Y-63936476D01*
X210028619Y-63888857D01*
X209981000Y-63841238D01*
X209933380Y-63746000D01*
X209933380Y-63555523D01*
X209981000Y-63460285D01*
X210028619Y-63412666D01*
X210123857Y-63365047D01*
X210171476Y-63365047D01*
X210266714Y-63412666D01*
X210314333Y-63460285D01*
X210361952Y-63555523D01*
X210361952Y-63746000D01*
X210409571Y-63841238D01*
X210457190Y-63888857D01*
X210552428Y-63936476D01*
X210742904Y-63936476D01*
X210838142Y-63888857D01*
X210885761Y-63841238D01*
X210933380Y-63746000D01*
X210933380Y-63555523D01*
X210885761Y-63460285D01*
X210838142Y-63412666D01*
X210742904Y-63365047D01*
X210552428Y-63365047D01*
X210457190Y-63412666D01*
X210409571Y-63460285D01*
X210361952Y-63555523D01*
X209933380Y-63031714D02*
X209933380Y-62365047D01*
X210933380Y-62793619D01*
X210933380Y-61984095D02*
X209933380Y-61984095D01*
X210552428Y-61888857D02*
X210933380Y-61603142D01*
X210266714Y-61603142D02*
X210647666Y-61984095D01*
D13*
X209022904Y-63760285D02*
X208641952Y-64026952D01*
X209022904Y-64217428D02*
X208222904Y-64217428D01*
X208222904Y-63912666D01*
X208261000Y-63836476D01*
X208299095Y-63798380D01*
X208375285Y-63760285D01*
X208489571Y-63760285D01*
X208565761Y-63798380D01*
X208603857Y-63836476D01*
X208641952Y-63912666D01*
X208641952Y-64217428D01*
X209022904Y-62998380D02*
X209022904Y-63455523D01*
X209022904Y-63226952D02*
X208222904Y-63226952D01*
X208337190Y-63303142D01*
X208413380Y-63379333D01*
X208451476Y-63455523D01*
X208222904Y-62503142D02*
X208222904Y-62426952D01*
X208261000Y-62350761D01*
X208299095Y-62312666D01*
X208375285Y-62274571D01*
X208527666Y-62236476D01*
X208718142Y-62236476D01*
X208870523Y-62274571D01*
X208946714Y-62312666D01*
X208984809Y-62350761D01*
X209022904Y-62426952D01*
X209022904Y-62503142D01*
X208984809Y-62579333D01*
X208946714Y-62617428D01*
X208870523Y-62655523D01*
X208718142Y-62693619D01*
X208527666Y-62693619D01*
X208375285Y-62655523D01*
X208299095Y-62617428D01*
X208261000Y-62579333D01*
X208222904Y-62503142D01*
D11*
X105375952Y-88283880D02*
X105328333Y-88379119D01*
X105280714Y-88426738D01*
X105185476Y-88474357D01*
X105137857Y-88474357D01*
X105042619Y-88426738D01*
X104995000Y-88379119D01*
X104947380Y-88283880D01*
X104947380Y-88093404D01*
X104995000Y-87998166D01*
X105042619Y-87950547D01*
X105137857Y-87902928D01*
X105185476Y-87902928D01*
X105280714Y-87950547D01*
X105328333Y-87998166D01*
X105375952Y-88093404D01*
X105375952Y-88283880D01*
X105423571Y-88379119D01*
X105471190Y-88426738D01*
X105566428Y-88474357D01*
X105756904Y-88474357D01*
X105852142Y-88426738D01*
X105899761Y-88379119D01*
X105947380Y-88283880D01*
X105947380Y-88093404D01*
X105899761Y-87998166D01*
X105852142Y-87950547D01*
X105756904Y-87902928D01*
X105566428Y-87902928D01*
X105471190Y-87950547D01*
X105423571Y-87998166D01*
X105375952Y-88093404D01*
X105375952Y-87331500D02*
X105328333Y-87426738D01*
X105280714Y-87474357D01*
X105185476Y-87521976D01*
X105137857Y-87521976D01*
X105042619Y-87474357D01*
X104995000Y-87426738D01*
X104947380Y-87331500D01*
X104947380Y-87141023D01*
X104995000Y-87045785D01*
X105042619Y-86998166D01*
X105137857Y-86950547D01*
X105185476Y-86950547D01*
X105280714Y-86998166D01*
X105328333Y-87045785D01*
X105375952Y-87141023D01*
X105375952Y-87331500D01*
X105423571Y-87426738D01*
X105471190Y-87474357D01*
X105566428Y-87521976D01*
X105756904Y-87521976D01*
X105852142Y-87474357D01*
X105899761Y-87426738D01*
X105947380Y-87331500D01*
X105947380Y-87141023D01*
X105899761Y-87045785D01*
X105852142Y-86998166D01*
X105756904Y-86950547D01*
X105566428Y-86950547D01*
X105471190Y-86998166D01*
X105423571Y-87045785D01*
X105375952Y-87141023D01*
X104947380Y-86617214D02*
X104947380Y-85950547D01*
X105947380Y-86379119D01*
X105947380Y-85569595D02*
X104947380Y-85569595D01*
X105566428Y-85474357D02*
X105947380Y-85188642D01*
X105280714Y-85188642D02*
X105661666Y-85569595D01*
D13*
X107676904Y-86964833D02*
X107295952Y-87231500D01*
X107676904Y-87421976D02*
X106876904Y-87421976D01*
X106876904Y-87117214D01*
X106915000Y-87041023D01*
X106953095Y-87002928D01*
X107029285Y-86964833D01*
X107143571Y-86964833D01*
X107219761Y-87002928D01*
X107257857Y-87041023D01*
X107295952Y-87117214D01*
X107295952Y-87421976D01*
X107676904Y-86202928D02*
X107676904Y-86660071D01*
X107676904Y-86431500D02*
X106876904Y-86431500D01*
X106991190Y-86507690D01*
X107067380Y-86583880D01*
X107105476Y-86660071D01*
D11*
X188256761Y-58023809D02*
X188304380Y-57880952D01*
X188304380Y-57642857D01*
X188256761Y-57547619D01*
X188209142Y-57500000D01*
X188113904Y-57452380D01*
X188018666Y-57452380D01*
X187923428Y-57500000D01*
X187875809Y-57547619D01*
X187828190Y-57642857D01*
X187780571Y-57833333D01*
X187732952Y-57928571D01*
X187685333Y-57976190D01*
X187590095Y-58023809D01*
X187494857Y-58023809D01*
X187399619Y-57976190D01*
X187352000Y-57928571D01*
X187304380Y-57833333D01*
X187304380Y-57595238D01*
X187352000Y-57452380D01*
X188304380Y-57023809D02*
X187304380Y-57023809D01*
X188304380Y-56452380D01*
X187304380Y-56452380D01*
X187304380Y-56071428D02*
X187304380Y-55404761D01*
X188304380Y-55833333D01*
X187637714Y-54595238D02*
X188304380Y-54595238D01*
X187256761Y-54833333D02*
X187971047Y-55071428D01*
X187971047Y-54452380D01*
X188304380Y-53595238D02*
X188304380Y-54071428D01*
X187304380Y-54071428D01*
X187304380Y-53404761D02*
X188304380Y-53071428D01*
X187304380Y-52738095D01*
X188209142Y-51833333D02*
X188256761Y-51880952D01*
X188304380Y-52023809D01*
X188304380Y-52119047D01*
X188256761Y-52261904D01*
X188161523Y-52357142D01*
X188066285Y-52404761D01*
X187875809Y-52452380D01*
X187732952Y-52452380D01*
X187542476Y-52404761D01*
X187447238Y-52357142D01*
X187352000Y-52261904D01*
X187304380Y-52119047D01*
X187304380Y-52023809D01*
X187352000Y-51880952D01*
X187399619Y-51833333D01*
X187399619Y-51452380D02*
X187352000Y-51404761D01*
X187304380Y-51309523D01*
X187304380Y-51071428D01*
X187352000Y-50976190D01*
X187399619Y-50928571D01*
X187494857Y-50880952D01*
X187590095Y-50880952D01*
X187732952Y-50928571D01*
X188304380Y-51500000D01*
X188304380Y-50880952D01*
X187352000Y-49928571D02*
X187304380Y-50023809D01*
X187304380Y-50166666D01*
X187352000Y-50309523D01*
X187447238Y-50404761D01*
X187542476Y-50452380D01*
X187732952Y-50500000D01*
X187875809Y-50500000D01*
X188066285Y-50452380D01*
X188161523Y-50404761D01*
X188256761Y-50309523D01*
X188304380Y-50166666D01*
X188304380Y-50071428D01*
X188256761Y-49928571D01*
X188209142Y-49880952D01*
X187875809Y-49880952D01*
X187875809Y-50071428D01*
X187304380Y-49261904D02*
X187304380Y-49166666D01*
X187352000Y-49071428D01*
X187399619Y-49023809D01*
X187494857Y-48976190D01*
X187685333Y-48928571D01*
X187923428Y-48928571D01*
X188113904Y-48976190D01*
X188209142Y-49023809D01*
X188256761Y-49071428D01*
X188304380Y-49166666D01*
X188304380Y-49261904D01*
X188256761Y-49357142D01*
X188209142Y-49404761D01*
X188113904Y-49452380D01*
X187923428Y-49500000D01*
X187685333Y-49500000D01*
X187494857Y-49452380D01*
X187399619Y-49404761D01*
X187352000Y-49357142D01*
X187304380Y-49261904D01*
X187732952Y-48357142D02*
X187685333Y-48452380D01*
X187637714Y-48500000D01*
X187542476Y-48547619D01*
X187494857Y-48547619D01*
X187399619Y-48500000D01*
X187352000Y-48452380D01*
X187304380Y-48357142D01*
X187304380Y-48166666D01*
X187352000Y-48071428D01*
X187399619Y-48023809D01*
X187494857Y-47976190D01*
X187542476Y-47976190D01*
X187637714Y-48023809D01*
X187685333Y-48071428D01*
X187732952Y-48166666D01*
X187732952Y-48357142D01*
X187780571Y-48452380D01*
X187828190Y-48500000D01*
X187923428Y-48547619D01*
X188113904Y-48547619D01*
X188209142Y-48500000D01*
X188256761Y-48452380D01*
X188304380Y-48357142D01*
X188304380Y-48166666D01*
X188256761Y-48071428D01*
X188209142Y-48023809D01*
X188113904Y-47976190D01*
X187923428Y-47976190D01*
X187828190Y-48023809D01*
X187780571Y-48071428D01*
X187732952Y-48166666D01*
X206952380Y-58626190D02*
X206952380Y-59197619D01*
X206952380Y-58911904D02*
X205952380Y-58911904D01*
X206095238Y-59007142D01*
X206190476Y-59102380D01*
X206238095Y-59197619D01*
X206857142Y-58197619D02*
X206904761Y-58150000D01*
X206952380Y-58197619D01*
X206904761Y-58245238D01*
X206857142Y-58197619D01*
X206952380Y-58197619D01*
X206285714Y-57292857D02*
X206952380Y-57292857D01*
X205904761Y-57530952D02*
X206619047Y-57769047D01*
X206619047Y-57150000D01*
X205952380Y-56864285D02*
X205952380Y-56245238D01*
X206333333Y-56578571D01*
X206333333Y-56435714D01*
X206380952Y-56340476D01*
X206428571Y-56292857D01*
X206523809Y-56245238D01*
X206761904Y-56245238D01*
X206857142Y-56292857D01*
X206904761Y-56340476D01*
X206952380Y-56435714D01*
X206952380Y-56721428D01*
X206904761Y-56816666D01*
X206857142Y-56864285D01*
X206952380Y-55816666D02*
X205952380Y-55816666D01*
X206666666Y-55483333D01*
X205952380Y-55150000D01*
X206952380Y-55150000D01*
D12*
X205076190Y-57471428D02*
X204838095Y-57638095D01*
X205076190Y-57757142D02*
X204576190Y-57757142D01*
X204576190Y-57566666D01*
X204600000Y-57519047D01*
X204623809Y-57495238D01*
X204671428Y-57471428D01*
X204742857Y-57471428D01*
X204790476Y-57495238D01*
X204814285Y-57519047D01*
X204838095Y-57566666D01*
X204838095Y-57757142D01*
X205076190Y-56995238D02*
X205076190Y-57280952D01*
X205076190Y-57138095D02*
X204576190Y-57138095D01*
X204647619Y-57185714D01*
X204695238Y-57233333D01*
X204719047Y-57280952D01*
X204742857Y-56566666D02*
X205076190Y-56566666D01*
X204552380Y-56685714D02*
X204909523Y-56804761D01*
X204909523Y-56495238D01*
D11*
X180032142Y-46797619D02*
X180079761Y-46750000D01*
X180175000Y-46702380D01*
X180413095Y-46702380D01*
X180508333Y-46750000D01*
X180555952Y-46797619D01*
X180603571Y-46892857D01*
X180603571Y-46988095D01*
X180555952Y-47130952D01*
X179984523Y-47702380D01*
X180603571Y-47702380D01*
X181175000Y-47130952D02*
X181079761Y-47083333D01*
X181032142Y-47035714D01*
X180984523Y-46940476D01*
X180984523Y-46892857D01*
X181032142Y-46797619D01*
X181079761Y-46750000D01*
X181175000Y-46702380D01*
X181365476Y-46702380D01*
X181460714Y-46750000D01*
X181508333Y-46797619D01*
X181555952Y-46892857D01*
X181555952Y-46940476D01*
X181508333Y-47035714D01*
X181460714Y-47083333D01*
X181365476Y-47130952D01*
X181175000Y-47130952D01*
X181079761Y-47178571D01*
X181032142Y-47226190D01*
X180984523Y-47321428D01*
X180984523Y-47511904D01*
X181032142Y-47607142D01*
X181079761Y-47654761D01*
X181175000Y-47702380D01*
X181365476Y-47702380D01*
X181460714Y-47654761D01*
X181508333Y-47607142D01*
X181555952Y-47511904D01*
X181555952Y-47321428D01*
X181508333Y-47226190D01*
X181460714Y-47178571D01*
X181365476Y-47130952D01*
X182413095Y-47035714D02*
X182413095Y-47702380D01*
X182175000Y-46654761D02*
X181936904Y-47369047D01*
X182555952Y-47369047D01*
X182936904Y-47702380D02*
X182936904Y-46702380D01*
X183032142Y-47321428D02*
X183317857Y-47702380D01*
X183317857Y-47035714D02*
X182936904Y-47416666D01*
D14*
X181417857Y-48930952D02*
X181284523Y-48740476D01*
X181189285Y-48930952D02*
X181189285Y-48530952D01*
X181341666Y-48530952D01*
X181379761Y-48550000D01*
X181398809Y-48569047D01*
X181417857Y-48607142D01*
X181417857Y-48664285D01*
X181398809Y-48702380D01*
X181379761Y-48721428D01*
X181341666Y-48740476D01*
X181189285Y-48740476D01*
X181798809Y-48930952D02*
X181570238Y-48930952D01*
X181684523Y-48930952D02*
X181684523Y-48530952D01*
X181646428Y-48588095D01*
X181608333Y-48626190D01*
X181570238Y-48645238D01*
X181932142Y-48530952D02*
X182198809Y-48530952D01*
X182027380Y-48930952D01*
D11*
X203867900Y-89381720D02*
X202867900Y-89381720D01*
X202867900Y-89143624D01*
X202915520Y-89000767D01*
X203010758Y-88905529D01*
X203105996Y-88857910D01*
X203296472Y-88810291D01*
X203439329Y-88810291D01*
X203629805Y-88857910D01*
X203725043Y-88905529D01*
X203820281Y-89000767D01*
X203867900Y-89143624D01*
X203867900Y-89381720D01*
X203344091Y-88048386D02*
X203391710Y-87905529D01*
X203439329Y-87857910D01*
X203534567Y-87810291D01*
X203677424Y-87810291D01*
X203772662Y-87857910D01*
X203820281Y-87905529D01*
X203867900Y-88000767D01*
X203867900Y-88381720D01*
X202867900Y-88381720D01*
X202867900Y-88048386D01*
X202915520Y-87953148D01*
X202963139Y-87905529D01*
X203058377Y-87857910D01*
X203153615Y-87857910D01*
X203248853Y-87905529D01*
X203296472Y-87953148D01*
X203344091Y-88048386D01*
X203344091Y-88381720D01*
X202963139Y-87429339D02*
X202915520Y-87381720D01*
X202867900Y-87286481D01*
X202867900Y-87048386D01*
X202915520Y-86953148D01*
X202963139Y-86905529D01*
X203058377Y-86857910D01*
X203153615Y-86857910D01*
X203296472Y-86905529D01*
X203867900Y-87476958D01*
X203867900Y-86857910D01*
X203201234Y-86000767D02*
X203867900Y-86000767D01*
X202820281Y-86238862D02*
X203534567Y-86476958D01*
X203534567Y-85857910D01*
X202867900Y-85572196D02*
X202867900Y-84953148D01*
X203248853Y-85286481D01*
X203248853Y-85143624D01*
X203296472Y-85048386D01*
X203344091Y-85000767D01*
X203439329Y-84953148D01*
X203677424Y-84953148D01*
X203772662Y-85000767D01*
X203820281Y-85048386D01*
X203867900Y-85143624D01*
X203867900Y-85429339D01*
X203820281Y-85524577D01*
X203772662Y-85572196D01*
X203867900Y-84000767D02*
X203867900Y-84572196D01*
X203867900Y-84286481D02*
X202867900Y-84286481D01*
X203010758Y-84381720D01*
X203105996Y-84476958D01*
X203153615Y-84572196D01*
X202963139Y-83619815D02*
X202915520Y-83572196D01*
X202867900Y-83476958D01*
X202867900Y-83238862D01*
X202915520Y-83143624D01*
X202963139Y-83096005D01*
X203058377Y-83048386D01*
X203153615Y-83048386D01*
X203296472Y-83096005D01*
X203867900Y-83667434D01*
X203867900Y-83048386D01*
X202867900Y-82429339D02*
X202867900Y-82334100D01*
X202915520Y-82238862D01*
X202963139Y-82191243D01*
X203058377Y-82143624D01*
X203248853Y-82096005D01*
X203486948Y-82096005D01*
X203677424Y-82143624D01*
X203772662Y-82191243D01*
X203820281Y-82238862D01*
X203867900Y-82334100D01*
X203867900Y-82429339D01*
X203820281Y-82524577D01*
X203772662Y-82572196D01*
X203677424Y-82619815D01*
X203486948Y-82667434D01*
X203248853Y-82667434D01*
X203058377Y-82619815D01*
X202963139Y-82572196D01*
X202915520Y-82524577D01*
X202867900Y-82429339D01*
X202867900Y-81476958D02*
X202867900Y-81381720D01*
X202915520Y-81286481D01*
X202963139Y-81238862D01*
X203058377Y-81191243D01*
X203248853Y-81143624D01*
X203486948Y-81143624D01*
X203677424Y-81191243D01*
X203772662Y-81238862D01*
X203820281Y-81286481D01*
X203867900Y-81381720D01*
X203867900Y-81476958D01*
X203820281Y-81572196D01*
X203772662Y-81619815D01*
X203677424Y-81667434D01*
X203486948Y-81715053D01*
X203248853Y-81715053D01*
X203058377Y-81667434D01*
X202963139Y-81619815D01*
X202915520Y-81572196D01*
X202867900Y-81476958D01*
X203867900Y-80238862D02*
X203867900Y-80715053D01*
X202867900Y-80715053D01*
X184894860Y-88782280D02*
X183894860Y-88782280D01*
X183894860Y-88544184D01*
X183942480Y-88401327D01*
X184037718Y-88306089D01*
X184132956Y-88258470D01*
X184323432Y-88210851D01*
X184466289Y-88210851D01*
X184656765Y-88258470D01*
X184752003Y-88306089D01*
X184847241Y-88401327D01*
X184894860Y-88544184D01*
X184894860Y-88782280D01*
X184371051Y-87448946D02*
X184418670Y-87306089D01*
X184466289Y-87258470D01*
X184561527Y-87210851D01*
X184704384Y-87210851D01*
X184799622Y-87258470D01*
X184847241Y-87306089D01*
X184894860Y-87401327D01*
X184894860Y-87782280D01*
X183894860Y-87782280D01*
X183894860Y-87448946D01*
X183942480Y-87353708D01*
X183990099Y-87306089D01*
X184085337Y-87258470D01*
X184180575Y-87258470D01*
X184275813Y-87306089D01*
X184323432Y-87353708D01*
X184371051Y-87448946D01*
X184371051Y-87782280D01*
X183990099Y-86829899D02*
X183942480Y-86782280D01*
X183894860Y-86687041D01*
X183894860Y-86448946D01*
X183942480Y-86353708D01*
X183990099Y-86306089D01*
X184085337Y-86258470D01*
X184180575Y-86258470D01*
X184323432Y-86306089D01*
X184894860Y-86877518D01*
X184894860Y-86258470D01*
X184228194Y-85401327D02*
X184894860Y-85401327D01*
X183847241Y-85639422D02*
X184561527Y-85877518D01*
X184561527Y-85258470D01*
X183894860Y-84972756D02*
X183894860Y-84353708D01*
X184275813Y-84687041D01*
X184275813Y-84544184D01*
X184323432Y-84448946D01*
X184371051Y-84401327D01*
X184466289Y-84353708D01*
X184704384Y-84353708D01*
X184799622Y-84401327D01*
X184847241Y-84448946D01*
X184894860Y-84544184D01*
X184894860Y-84829899D01*
X184847241Y-84925137D01*
X184799622Y-84972756D01*
X184894860Y-83401327D02*
X184894860Y-83972756D01*
X184894860Y-83687041D02*
X183894860Y-83687041D01*
X184037718Y-83782280D01*
X184132956Y-83877518D01*
X184180575Y-83972756D01*
X183990099Y-83020375D02*
X183942480Y-82972756D01*
X183894860Y-82877518D01*
X183894860Y-82639422D01*
X183942480Y-82544184D01*
X183990099Y-82496565D01*
X184085337Y-82448946D01*
X184180575Y-82448946D01*
X184323432Y-82496565D01*
X184894860Y-83067994D01*
X184894860Y-82448946D01*
X183894860Y-81829899D02*
X183894860Y-81734660D01*
X183942480Y-81639422D01*
X183990099Y-81591803D01*
X184085337Y-81544184D01*
X184275813Y-81496565D01*
X184513908Y-81496565D01*
X184704384Y-81544184D01*
X184799622Y-81591803D01*
X184847241Y-81639422D01*
X184894860Y-81734660D01*
X184894860Y-81829899D01*
X184847241Y-81925137D01*
X184799622Y-81972756D01*
X184704384Y-82020375D01*
X184513908Y-82067994D01*
X184275813Y-82067994D01*
X184085337Y-82020375D01*
X183990099Y-81972756D01*
X183942480Y-81925137D01*
X183894860Y-81829899D01*
X183894860Y-80877518D02*
X183894860Y-80782280D01*
X183942480Y-80687041D01*
X183990099Y-80639422D01*
X184085337Y-80591803D01*
X184275813Y-80544184D01*
X184513908Y-80544184D01*
X184704384Y-80591803D01*
X184799622Y-80639422D01*
X184847241Y-80687041D01*
X184894860Y-80782280D01*
X184894860Y-80877518D01*
X184847241Y-80972756D01*
X184799622Y-81020375D01*
X184704384Y-81067994D01*
X184513908Y-81115613D01*
X184275813Y-81115613D01*
X184085337Y-81067994D01*
X183990099Y-81020375D01*
X183942480Y-80972756D01*
X183894860Y-80877518D01*
X184894860Y-79639422D02*
X184894860Y-80115613D01*
X183894860Y-80115613D01*
X176919666Y-73218642D02*
X176872047Y-73266261D01*
X176729190Y-73313880D01*
X176633952Y-73313880D01*
X176491095Y-73266261D01*
X176395857Y-73171023D01*
X176348238Y-73075785D01*
X176300619Y-72885309D01*
X176300619Y-72742452D01*
X176348238Y-72551976D01*
X176395857Y-72456738D01*
X176491095Y-72361500D01*
X176633952Y-72313880D01*
X176729190Y-72313880D01*
X176872047Y-72361500D01*
X176919666Y-72409119D01*
X177491095Y-73313880D02*
X177395857Y-73266261D01*
X177348238Y-73218642D01*
X177300619Y-73123404D01*
X177300619Y-72837690D01*
X177348238Y-72742452D01*
X177395857Y-72694833D01*
X177491095Y-72647214D01*
X177633952Y-72647214D01*
X177729190Y-72694833D01*
X177776809Y-72742452D01*
X177824428Y-72837690D01*
X177824428Y-73123404D01*
X177776809Y-73218642D01*
X177729190Y-73266261D01*
X177633952Y-73313880D01*
X177491095Y-73313880D01*
X178253000Y-72647214D02*
X178253000Y-73313880D01*
X178253000Y-72742452D02*
X178300619Y-72694833D01*
X178395857Y-72647214D01*
X178538714Y-72647214D01*
X178633952Y-72694833D01*
X178681571Y-72790071D01*
X178681571Y-73313880D01*
X179157761Y-72647214D02*
X179157761Y-73313880D01*
X179157761Y-72742452D02*
X179205380Y-72694833D01*
X179300619Y-72647214D01*
X179443476Y-72647214D01*
X179538714Y-72694833D01*
X179586333Y-72790071D01*
X179586333Y-73313880D01*
X179824428Y-73409119D02*
X180586333Y-73409119D01*
X181014904Y-72313880D02*
X181110142Y-72313880D01*
X181205380Y-72361500D01*
X181253000Y-72409119D01*
X181300619Y-72504357D01*
X181348238Y-72694833D01*
X181348238Y-72932928D01*
X181300619Y-73123404D01*
X181253000Y-73218642D01*
X181205380Y-73266261D01*
X181110142Y-73313880D01*
X181014904Y-73313880D01*
X180919666Y-73266261D01*
X180872047Y-73218642D01*
X180824428Y-73123404D01*
X180776809Y-72932928D01*
X180776809Y-72694833D01*
X180824428Y-72504357D01*
X180872047Y-72409119D01*
X180919666Y-72361500D01*
X181014904Y-72313880D01*
X182300619Y-73313880D02*
X181729190Y-73313880D01*
X182014904Y-73313880D02*
X182014904Y-72313880D01*
X181919666Y-72456738D01*
X181824428Y-72551976D01*
X181729190Y-72599595D01*
X182633952Y-73313880D02*
X183157761Y-72647214D01*
X182633952Y-72647214D02*
X183157761Y-73313880D01*
X183729190Y-72313880D02*
X183824428Y-72313880D01*
X183919666Y-72361500D01*
X183967285Y-72409119D01*
X184014904Y-72504357D01*
X184062523Y-72694833D01*
X184062523Y-72932928D01*
X184014904Y-73123404D01*
X183967285Y-73218642D01*
X183919666Y-73266261D01*
X183824428Y-73313880D01*
X183729190Y-73313880D01*
X183633952Y-73266261D01*
X183586333Y-73218642D01*
X183538714Y-73123404D01*
X183491095Y-72932928D01*
X183491095Y-72694833D01*
X183538714Y-72504357D01*
X183586333Y-72409119D01*
X183633952Y-72361500D01*
X183729190Y-72313880D01*
X184967285Y-72313880D02*
X184491095Y-72313880D01*
X184443476Y-72790071D01*
X184491095Y-72742452D01*
X184586333Y-72694833D01*
X184824428Y-72694833D01*
X184919666Y-72742452D01*
X184967285Y-72790071D01*
X185014904Y-72885309D01*
X185014904Y-73123404D01*
X184967285Y-73218642D01*
X184919666Y-73266261D01*
X184824428Y-73313880D01*
X184586333Y-73313880D01*
X184491095Y-73266261D01*
X184443476Y-73218642D01*
X185205380Y-73409119D02*
X185967285Y-73409119D01*
X186205380Y-73313880D02*
X186205380Y-72313880D01*
X186538714Y-73028166D01*
X186872047Y-72313880D01*
X186872047Y-73313880D01*
X187776809Y-73313880D02*
X187776809Y-72790071D01*
X187729190Y-72694833D01*
X187633952Y-72647214D01*
X187443476Y-72647214D01*
X187348238Y-72694833D01*
X187776809Y-73266261D02*
X187681571Y-73313880D01*
X187443476Y-73313880D01*
X187348238Y-73266261D01*
X187300619Y-73171023D01*
X187300619Y-73075785D01*
X187348238Y-72980547D01*
X187443476Y-72932928D01*
X187681571Y-72932928D01*
X187776809Y-72885309D01*
X188395857Y-73313880D02*
X188300619Y-73266261D01*
X188253000Y-73171023D01*
X188253000Y-72313880D01*
X189157761Y-73266261D02*
X189062523Y-73313880D01*
X188872047Y-73313880D01*
X188776809Y-73266261D01*
X188729190Y-73171023D01*
X188729190Y-72790071D01*
X188776809Y-72694833D01*
X188872047Y-72647214D01*
X189062523Y-72647214D01*
X189157761Y-72694833D01*
X189205380Y-72790071D01*
X189205380Y-72885309D01*
X188729190Y-72980547D01*
X182205380Y-67134833D02*
X182919666Y-67134833D01*
X183062523Y-67182452D01*
X183157761Y-67277690D01*
X183205380Y-67420547D01*
X183205380Y-67515785D01*
X183205380Y-66611023D02*
X183205380Y-66420547D01*
X183157761Y-66325309D01*
X183110142Y-66277690D01*
X182967285Y-66182452D01*
X182776809Y-66134833D01*
X182395857Y-66134833D01*
X182300619Y-66182452D01*
X182253000Y-66230071D01*
X182205380Y-66325309D01*
X182205380Y-66515785D01*
X182253000Y-66611023D01*
X182300619Y-66658642D01*
X182395857Y-66706261D01*
X182633952Y-66706261D01*
X182729190Y-66658642D01*
X182776809Y-66611023D01*
X182824428Y-66515785D01*
X182824428Y-66325309D01*
X182776809Y-66230071D01*
X182729190Y-66182452D01*
X182633952Y-66134833D01*
X180629142Y-55426833D02*
X180676761Y-55474452D01*
X180724380Y-55617309D01*
X180724380Y-55712547D01*
X180676761Y-55855404D01*
X180581523Y-55950642D01*
X180486285Y-55998261D01*
X180295809Y-56045880D01*
X180152952Y-56045880D01*
X179962476Y-55998261D01*
X179867238Y-55950642D01*
X179772000Y-55855404D01*
X179724380Y-55712547D01*
X179724380Y-55617309D01*
X179772000Y-55474452D01*
X179819619Y-55426833D01*
X180724380Y-54855404D02*
X180676761Y-54950642D01*
X180629142Y-54998261D01*
X180533904Y-55045880D01*
X180248190Y-55045880D01*
X180152952Y-54998261D01*
X180105333Y-54950642D01*
X180057714Y-54855404D01*
X180057714Y-54712547D01*
X180105333Y-54617309D01*
X180152952Y-54569690D01*
X180248190Y-54522071D01*
X180533904Y-54522071D01*
X180629142Y-54569690D01*
X180676761Y-54617309D01*
X180724380Y-54712547D01*
X180724380Y-54855404D01*
X180057714Y-54093500D02*
X180724380Y-54093500D01*
X180152952Y-54093500D02*
X180105333Y-54045880D01*
X180057714Y-53950642D01*
X180057714Y-53807785D01*
X180105333Y-53712547D01*
X180200571Y-53664928D01*
X180724380Y-53664928D01*
X180057714Y-53188738D02*
X180724380Y-53188738D01*
X180152952Y-53188738D02*
X180105333Y-53141119D01*
X180057714Y-53045880D01*
X180057714Y-52903023D01*
X180105333Y-52807785D01*
X180200571Y-52760166D01*
X180724380Y-52760166D01*
X180819619Y-52522071D02*
X180819619Y-51760166D01*
X179724380Y-51331595D02*
X179724380Y-51236357D01*
X179772000Y-51141119D01*
X179819619Y-51093500D01*
X179914857Y-51045880D01*
X180105333Y-50998261D01*
X180343428Y-50998261D01*
X180533904Y-51045880D01*
X180629142Y-51093500D01*
X180676761Y-51141119D01*
X180724380Y-51236357D01*
X180724380Y-51331595D01*
X180676761Y-51426833D01*
X180629142Y-51474452D01*
X180533904Y-51522071D01*
X180343428Y-51569690D01*
X180105333Y-51569690D01*
X179914857Y-51522071D01*
X179819619Y-51474452D01*
X179772000Y-51426833D01*
X179724380Y-51331595D01*
X180724380Y-50045880D02*
X180724380Y-50617309D01*
X180724380Y-50331595D02*
X179724380Y-50331595D01*
X179867238Y-50426833D01*
X179962476Y-50522071D01*
X180010095Y-50617309D01*
X180724380Y-49712547D02*
X180057714Y-49188738D01*
X180057714Y-49712547D02*
X180724380Y-49188738D01*
X179724380Y-48617309D02*
X179724380Y-48522071D01*
X179772000Y-48426833D01*
X179819619Y-48379214D01*
X179914857Y-48331595D01*
X180105333Y-48283976D01*
X180343428Y-48283976D01*
X180533904Y-48331595D01*
X180629142Y-48379214D01*
X180676761Y-48426833D01*
X180724380Y-48522071D01*
X180724380Y-48617309D01*
X180676761Y-48712547D01*
X180629142Y-48760166D01*
X180533904Y-48807785D01*
X180343428Y-48855404D01*
X180105333Y-48855404D01*
X179914857Y-48807785D01*
X179819619Y-48760166D01*
X179772000Y-48712547D01*
X179724380Y-48617309D01*
X180057714Y-47426833D02*
X180724380Y-47426833D01*
X179676761Y-47664928D02*
X180391047Y-47903023D01*
X180391047Y-47283976D01*
X180819619Y-47141119D02*
X180819619Y-46379214D01*
X180724380Y-46141119D02*
X179724380Y-46141119D01*
X180438666Y-45807785D01*
X179724380Y-45474452D01*
X180724380Y-45474452D01*
X180724380Y-44569690D02*
X180200571Y-44569690D01*
X180105333Y-44617309D01*
X180057714Y-44712547D01*
X180057714Y-44903023D01*
X180105333Y-44998261D01*
X180676761Y-44569690D02*
X180724380Y-44664928D01*
X180724380Y-44903023D01*
X180676761Y-44998261D01*
X180581523Y-45045880D01*
X180486285Y-45045880D01*
X180391047Y-44998261D01*
X180343428Y-44903023D01*
X180343428Y-44664928D01*
X180295809Y-44569690D01*
X180724380Y-43950642D02*
X180676761Y-44045880D01*
X180581523Y-44093500D01*
X179724380Y-44093500D01*
X180676761Y-43188738D02*
X180724380Y-43283976D01*
X180724380Y-43474452D01*
X180676761Y-43569690D01*
X180581523Y-43617309D01*
X180200571Y-43617309D01*
X180105333Y-43569690D01*
X180057714Y-43474452D01*
X180057714Y-43283976D01*
X180105333Y-43188738D01*
X180200571Y-43141119D01*
X180295809Y-43141119D01*
X180391047Y-43617309D01*
X174878666Y-49045880D02*
X174878666Y-49760166D01*
X174831047Y-49903023D01*
X174735809Y-49998261D01*
X174592952Y-50045880D01*
X174497714Y-50045880D01*
X175259619Y-49045880D02*
X175878666Y-49045880D01*
X175545333Y-49426833D01*
X175688190Y-49426833D01*
X175783428Y-49474452D01*
X175831047Y-49522071D01*
X175878666Y-49617309D01*
X175878666Y-49855404D01*
X175831047Y-49950642D01*
X175783428Y-49998261D01*
X175688190Y-50045880D01*
X175402476Y-50045880D01*
X175307238Y-49998261D01*
X175259619Y-49950642D01*
X204592966Y-68413842D02*
X204545347Y-68461461D01*
X204402490Y-68509080D01*
X204307252Y-68509080D01*
X204164395Y-68461461D01*
X204069157Y-68366223D01*
X204021538Y-68270985D01*
X203973919Y-68080509D01*
X203973919Y-67937652D01*
X204021538Y-67747176D01*
X204069157Y-67651938D01*
X204164395Y-67556700D01*
X204307252Y-67509080D01*
X204402490Y-67509080D01*
X204545347Y-67556700D01*
X204592966Y-67604319D01*
X205164395Y-68509080D02*
X205069157Y-68461461D01*
X205021538Y-68413842D01*
X204973919Y-68318604D01*
X204973919Y-68032890D01*
X205021538Y-67937652D01*
X205069157Y-67890033D01*
X205164395Y-67842414D01*
X205307252Y-67842414D01*
X205402490Y-67890033D01*
X205450109Y-67937652D01*
X205497728Y-68032890D01*
X205497728Y-68318604D01*
X205450109Y-68413842D01*
X205402490Y-68461461D01*
X205307252Y-68509080D01*
X205164395Y-68509080D01*
X205926300Y-67842414D02*
X205926300Y-68509080D01*
X205926300Y-67937652D02*
X205973919Y-67890033D01*
X206069157Y-67842414D01*
X206212014Y-67842414D01*
X206307252Y-67890033D01*
X206354871Y-67985271D01*
X206354871Y-68509080D01*
X206831061Y-67842414D02*
X206831061Y-68509080D01*
X206831061Y-67937652D02*
X206878680Y-67890033D01*
X206973919Y-67842414D01*
X207116776Y-67842414D01*
X207212014Y-67890033D01*
X207259633Y-67985271D01*
X207259633Y-68509080D01*
X207497728Y-68604319D02*
X208259633Y-68604319D01*
X208688204Y-67509080D02*
X208783442Y-67509080D01*
X208878680Y-67556700D01*
X208926300Y-67604319D01*
X208973919Y-67699557D01*
X209021538Y-67890033D01*
X209021538Y-68128128D01*
X208973919Y-68318604D01*
X208926300Y-68413842D01*
X208878680Y-68461461D01*
X208783442Y-68509080D01*
X208688204Y-68509080D01*
X208592966Y-68461461D01*
X208545347Y-68413842D01*
X208497728Y-68318604D01*
X208450109Y-68128128D01*
X208450109Y-67890033D01*
X208497728Y-67699557D01*
X208545347Y-67604319D01*
X208592966Y-67556700D01*
X208688204Y-67509080D01*
X209973919Y-68509080D02*
X209402490Y-68509080D01*
X209688204Y-68509080D02*
X209688204Y-67509080D01*
X209592966Y-67651938D01*
X209497728Y-67747176D01*
X209402490Y-67794795D01*
X210307252Y-68509080D02*
X210831061Y-67842414D01*
X210307252Y-67842414D02*
X210831061Y-68509080D01*
X211402490Y-67509080D02*
X211497728Y-67509080D01*
X211592966Y-67556700D01*
X211640585Y-67604319D01*
X211688204Y-67699557D01*
X211735823Y-67890033D01*
X211735823Y-68128128D01*
X211688204Y-68318604D01*
X211640585Y-68413842D01*
X211592966Y-68461461D01*
X211497728Y-68509080D01*
X211402490Y-68509080D01*
X211307252Y-68461461D01*
X211259633Y-68413842D01*
X211212014Y-68318604D01*
X211164395Y-68128128D01*
X211164395Y-67890033D01*
X211212014Y-67699557D01*
X211259633Y-67604319D01*
X211307252Y-67556700D01*
X211402490Y-67509080D01*
X212688204Y-68509080D02*
X212116776Y-68509080D01*
X212402490Y-68509080D02*
X212402490Y-67509080D01*
X212307252Y-67651938D01*
X212212014Y-67747176D01*
X212116776Y-67794795D01*
X212878680Y-68604319D02*
X213640585Y-68604319D01*
X213878680Y-68509080D02*
X213878680Y-67509080D01*
X214212014Y-68223366D01*
X214545347Y-67509080D01*
X214545347Y-68509080D01*
X215450109Y-68509080D02*
X215450109Y-67985271D01*
X215402490Y-67890033D01*
X215307252Y-67842414D01*
X215116776Y-67842414D01*
X215021538Y-67890033D01*
X215450109Y-68461461D02*
X215354871Y-68509080D01*
X215116776Y-68509080D01*
X215021538Y-68461461D01*
X214973919Y-68366223D01*
X214973919Y-68270985D01*
X215021538Y-68175747D01*
X215116776Y-68128128D01*
X215354871Y-68128128D01*
X215450109Y-68080509D01*
X216069157Y-68509080D02*
X215973919Y-68461461D01*
X215926300Y-68366223D01*
X215926300Y-67509080D01*
X216831061Y-68461461D02*
X216735823Y-68509080D01*
X216545347Y-68509080D01*
X216450109Y-68461461D01*
X216402490Y-68366223D01*
X216402490Y-67985271D01*
X216450109Y-67890033D01*
X216545347Y-67842414D01*
X216735823Y-67842414D01*
X216831061Y-67890033D01*
X216878680Y-67985271D01*
X216878680Y-68080509D01*
X216402490Y-68175747D01*
X209449919Y-69948466D02*
X208735633Y-69948466D01*
X208592776Y-69900847D01*
X208497538Y-69805609D01*
X208449919Y-69662752D01*
X208449919Y-69567514D01*
X208449919Y-70948466D02*
X208449919Y-70377038D01*
X208449919Y-70662752D02*
X209449919Y-70662752D01*
X209307061Y-70567514D01*
X209211823Y-70472276D01*
X209164204Y-70377038D01*
X198951342Y-72499480D02*
X198475152Y-72499480D01*
X198475152Y-71499480D01*
X199284676Y-72499480D02*
X199284676Y-71499480D01*
X199618009Y-72213766D01*
X199951342Y-71499480D01*
X199951342Y-72499480D01*
X200856104Y-71832814D02*
X200856104Y-72499480D01*
X200618009Y-71451861D02*
X200379914Y-72166147D01*
X200998961Y-72166147D01*
X201903723Y-72499480D02*
X201332295Y-72499480D01*
X201618009Y-72499480D02*
X201618009Y-71499480D01*
X201522771Y-71642338D01*
X201427533Y-71737576D01*
X201332295Y-71785195D01*
X202284676Y-71594719D02*
X202332295Y-71547100D01*
X202427533Y-71499480D01*
X202665628Y-71499480D01*
X202760866Y-71547100D01*
X202808485Y-71594719D01*
X202856104Y-71689957D01*
X202856104Y-71785195D01*
X202808485Y-71928052D01*
X202237057Y-72499480D01*
X202856104Y-72499480D01*
X203475152Y-71499480D02*
X203570390Y-71499480D01*
X203665628Y-71547100D01*
X203713247Y-71594719D01*
X203760866Y-71689957D01*
X203808485Y-71880433D01*
X203808485Y-72118528D01*
X203760866Y-72309004D01*
X203713247Y-72404242D01*
X203665628Y-72451861D01*
X203570390Y-72499480D01*
X203475152Y-72499480D01*
X203379914Y-72451861D01*
X203332295Y-72404242D01*
X203284676Y-72309004D01*
X203237057Y-72118528D01*
X203237057Y-71880433D01*
X203284676Y-71689957D01*
X203332295Y-71594719D01*
X203379914Y-71547100D01*
X203475152Y-71499480D01*
X204237057Y-72118528D02*
X204998961Y-72118528D01*
X206046580Y-72404242D02*
X205998961Y-72451861D01*
X205856104Y-72499480D01*
X205760866Y-72499480D01*
X205618009Y-72451861D01*
X205522771Y-72356623D01*
X205475152Y-72261385D01*
X205427533Y-72070909D01*
X205427533Y-71928052D01*
X205475152Y-71737576D01*
X205522771Y-71642338D01*
X205618009Y-71547100D01*
X205760866Y-71499480D01*
X205856104Y-71499480D01*
X205998961Y-71547100D01*
X206046580Y-71594719D01*
X206903723Y-71832814D02*
X206903723Y-72499480D01*
X206475152Y-71832814D02*
X206475152Y-72356623D01*
X206522771Y-72451861D01*
X206618009Y-72499480D01*
X206760866Y-72499480D01*
X206856104Y-72451861D01*
X206903723Y-72404242D01*
X207332295Y-72451861D02*
X207427533Y-72499480D01*
X207618009Y-72499480D01*
X207713247Y-72451861D01*
X207760866Y-72356623D01*
X207760866Y-72309004D01*
X207713247Y-72213766D01*
X207618009Y-72166147D01*
X207475152Y-72166147D01*
X207379914Y-72118528D01*
X207332295Y-72023290D01*
X207332295Y-71975671D01*
X207379914Y-71880433D01*
X207475152Y-71832814D01*
X207618009Y-71832814D01*
X207713247Y-71880433D01*
X208046580Y-71832814D02*
X208427533Y-71832814D01*
X208189438Y-71499480D02*
X208189438Y-72356623D01*
X208237057Y-72451861D01*
X208332295Y-72499480D01*
X208427533Y-72499480D01*
X208903723Y-72499480D02*
X208808485Y-72451861D01*
X208760866Y-72404242D01*
X208713247Y-72309004D01*
X208713247Y-72023290D01*
X208760866Y-71928052D01*
X208808485Y-71880433D01*
X208903723Y-71832814D01*
X209046580Y-71832814D01*
X209141819Y-71880433D01*
X209189438Y-71928052D01*
X209237057Y-72023290D01*
X209237057Y-72309004D01*
X209189438Y-72404242D01*
X209141819Y-72451861D01*
X209046580Y-72499480D01*
X208903723Y-72499480D01*
X209665628Y-72499480D02*
X209665628Y-71832814D01*
X209665628Y-71928052D02*
X209713247Y-71880433D01*
X209808485Y-71832814D01*
X209951342Y-71832814D01*
X210046580Y-71880433D01*
X210094200Y-71975671D01*
X210094200Y-72499480D01*
X210094200Y-71975671D02*
X210141819Y-71880433D01*
X210237057Y-71832814D01*
X210379914Y-71832814D01*
X210475152Y-71880433D01*
X210522771Y-71975671D01*
X210522771Y-72499480D01*
X210951342Y-72451861D02*
X211094200Y-72499480D01*
X211332295Y-72499480D01*
X211427533Y-72451861D01*
X211475152Y-72404242D01*
X211522771Y-72309004D01*
X211522771Y-72213766D01*
X211475152Y-72118528D01*
X211427533Y-72070909D01*
X211332295Y-72023290D01*
X211141819Y-71975671D01*
X211046580Y-71928052D01*
X210998961Y-71880433D01*
X210951342Y-71785195D01*
X210951342Y-71689957D01*
X210998961Y-71594719D01*
X211046580Y-71547100D01*
X211141819Y-71499480D01*
X211379914Y-71499480D01*
X211522771Y-71547100D01*
X211856104Y-71832814D02*
X212094200Y-72499480D01*
X212332295Y-71832814D02*
X212094200Y-72499480D01*
X211998961Y-72737576D01*
X211951342Y-72785195D01*
X211856104Y-72832814D01*
X212713247Y-72499480D02*
X212713247Y-71832814D01*
X212713247Y-71928052D02*
X212760866Y-71880433D01*
X212856104Y-71832814D01*
X212998961Y-71832814D01*
X213094200Y-71880433D01*
X213141819Y-71975671D01*
X213141819Y-72499480D01*
X213141819Y-71975671D02*
X213189438Y-71880433D01*
X213284676Y-71832814D01*
X213427533Y-71832814D01*
X213522771Y-71880433D01*
X213570390Y-71975671D01*
X213570390Y-72499480D01*
X214046580Y-72499480D02*
X214046580Y-71499480D01*
X214046580Y-71880433D02*
X214141819Y-71832814D01*
X214332295Y-71832814D01*
X214427533Y-71880433D01*
X214475152Y-71928052D01*
X214522771Y-72023290D01*
X214522771Y-72309004D01*
X214475152Y-72404242D01*
X214427533Y-72451861D01*
X214332295Y-72499480D01*
X214141819Y-72499480D01*
X214046580Y-72451861D01*
X215094200Y-72499480D02*
X214998961Y-72451861D01*
X214951342Y-72404242D01*
X214903723Y-72309004D01*
X214903723Y-72023290D01*
X214951342Y-71928052D01*
X214998961Y-71880433D01*
X215094200Y-71832814D01*
X215237057Y-71832814D01*
X215332295Y-71880433D01*
X215379914Y-71928052D01*
X215427533Y-72023290D01*
X215427533Y-72309004D01*
X215379914Y-72404242D01*
X215332295Y-72451861D01*
X215237057Y-72499480D01*
X215094200Y-72499480D01*
X215998961Y-72499480D02*
X215903723Y-72451861D01*
X215856104Y-72356623D01*
X215856104Y-71499480D01*
X216332295Y-72451861D02*
X216427533Y-72499480D01*
X216618009Y-72499480D01*
X216713247Y-72451861D01*
X216760866Y-72356623D01*
X216760866Y-72309004D01*
X216713247Y-72213766D01*
X216618009Y-72166147D01*
X216475152Y-72166147D01*
X216379914Y-72118528D01*
X216332295Y-72023290D01*
X216332295Y-71975671D01*
X216379914Y-71880433D01*
X216475152Y-71832814D01*
X216618009Y-71832814D01*
X216713247Y-71880433D01*
D15*
X206585309Y-67500547D02*
X206180547Y-67500547D01*
X206132928Y-67524357D01*
X206109119Y-67548166D01*
X206085309Y-67595785D01*
X206085309Y-67691023D01*
X206109119Y-67738642D01*
X206132928Y-67762452D01*
X206180547Y-67786261D01*
X206585309Y-67786261D01*
X206085309Y-68286261D02*
X206085309Y-68000547D01*
X206085309Y-68143404D02*
X206585309Y-68143404D01*
X206513880Y-68095785D01*
X206466261Y-68048166D01*
X206442452Y-68000547D01*
D11*
X174506595Y-89011380D02*
X174506595Y-89725666D01*
X174458976Y-89868523D01*
X174363738Y-89963761D01*
X174220880Y-90011380D01*
X174125642Y-90011380D01*
X175411357Y-89344714D02*
X175411357Y-90011380D01*
X174982785Y-89344714D02*
X174982785Y-89868523D01*
X175030404Y-89963761D01*
X175125642Y-90011380D01*
X175268500Y-90011380D01*
X175363738Y-89963761D01*
X175411357Y-89916142D01*
X175887547Y-90011380D02*
X175887547Y-89344714D01*
X175887547Y-89439952D02*
X175935166Y-89392333D01*
X176030404Y-89344714D01*
X176173261Y-89344714D01*
X176268500Y-89392333D01*
X176316119Y-89487571D01*
X176316119Y-90011380D01*
X176316119Y-89487571D02*
X176363738Y-89392333D01*
X176458976Y-89344714D01*
X176601833Y-89344714D01*
X176697071Y-89392333D01*
X176744690Y-89487571D01*
X176744690Y-90011380D01*
X177220880Y-89344714D02*
X177220880Y-90344714D01*
X177220880Y-89392333D02*
X177316119Y-89344714D01*
X177506595Y-89344714D01*
X177601833Y-89392333D01*
X177649452Y-89439952D01*
X177697071Y-89535190D01*
X177697071Y-89820904D01*
X177649452Y-89916142D01*
X177601833Y-89963761D01*
X177506595Y-90011380D01*
X177316119Y-90011380D01*
X177220880Y-89963761D01*
X178506595Y-89963761D02*
X178411357Y-90011380D01*
X178220880Y-90011380D01*
X178125642Y-89963761D01*
X178078023Y-89868523D01*
X178078023Y-89487571D01*
X178125642Y-89392333D01*
X178220880Y-89344714D01*
X178411357Y-89344714D01*
X178506595Y-89392333D01*
X178554214Y-89487571D01*
X178554214Y-89582809D01*
X178078023Y-89678047D01*
X178982785Y-90011380D02*
X178982785Y-89344714D01*
X178982785Y-89535190D02*
X179030404Y-89439952D01*
X179078023Y-89392333D01*
X179173261Y-89344714D01*
X179268500Y-89344714D01*
X179363738Y-90106619D02*
X180125642Y-90106619D01*
X180316119Y-89106619D02*
X180363738Y-89059000D01*
X180458976Y-89011380D01*
X180697071Y-89011380D01*
X180792309Y-89059000D01*
X180839928Y-89106619D01*
X180887547Y-89201857D01*
X180887547Y-89297095D01*
X180839928Y-89439952D01*
X180268500Y-90011380D01*
X180887547Y-90011380D01*
X181078023Y-90106619D02*
X181839928Y-90106619D01*
X182268500Y-89011380D02*
X182458976Y-89011380D01*
X182554214Y-89059000D01*
X182649452Y-89154238D01*
X182697071Y-89344714D01*
X182697071Y-89678047D01*
X182649452Y-89868523D01*
X182554214Y-89963761D01*
X182458976Y-90011380D01*
X182268500Y-90011380D01*
X182173261Y-89963761D01*
X182078023Y-89868523D01*
X182030404Y-89678047D01*
X182030404Y-89344714D01*
X182078023Y-89154238D01*
X182173261Y-89059000D01*
X182268500Y-89011380D01*
X183125642Y-89344714D02*
X183125642Y-90344714D01*
X183125642Y-89392333D02*
X183220880Y-89344714D01*
X183411357Y-89344714D01*
X183506595Y-89392333D01*
X183554214Y-89439952D01*
X183601833Y-89535190D01*
X183601833Y-89820904D01*
X183554214Y-89916142D01*
X183506595Y-89963761D01*
X183411357Y-90011380D01*
X183220880Y-90011380D01*
X183125642Y-89963761D01*
X184411357Y-89963761D02*
X184316119Y-90011380D01*
X184125642Y-90011380D01*
X184030404Y-89963761D01*
X183982785Y-89868523D01*
X183982785Y-89487571D01*
X184030404Y-89392333D01*
X184125642Y-89344714D01*
X184316119Y-89344714D01*
X184411357Y-89392333D01*
X184458976Y-89487571D01*
X184458976Y-89582809D01*
X183982785Y-89678047D01*
X184887547Y-89344714D02*
X184887547Y-90011380D01*
X184887547Y-89439952D02*
X184935166Y-89392333D01*
X185030404Y-89344714D01*
X185173261Y-89344714D01*
X185268500Y-89392333D01*
X185316119Y-89487571D01*
X185316119Y-90011380D01*
X179220880Y-94432333D02*
X179935166Y-94432333D01*
X180078023Y-94479952D01*
X180173261Y-94575190D01*
X180220880Y-94718047D01*
X180220880Y-94813285D01*
X180220880Y-93956142D02*
X179220880Y-93956142D01*
X179220880Y-93575190D01*
X179268500Y-93479952D01*
X179316119Y-93432333D01*
X179411357Y-93384714D01*
X179554214Y-93384714D01*
X179649452Y-93432333D01*
X179697071Y-93479952D01*
X179744690Y-93575190D01*
X179744690Y-93956142D01*
X179316119Y-93003761D02*
X179268500Y-92956142D01*
X179220880Y-92860904D01*
X179220880Y-92622809D01*
X179268500Y-92527571D01*
X179316119Y-92479952D01*
X179411357Y-92432333D01*
X179506595Y-92432333D01*
X179649452Y-92479952D01*
X180220880Y-93051380D01*
X180220880Y-92432333D01*
X163533795Y-95707080D02*
X163533795Y-96421366D01*
X163486176Y-96564223D01*
X163390938Y-96659461D01*
X163248080Y-96707080D01*
X163152842Y-96707080D01*
X164438557Y-96040414D02*
X164438557Y-96707080D01*
X164009985Y-96040414D02*
X164009985Y-96564223D01*
X164057604Y-96659461D01*
X164152842Y-96707080D01*
X164295700Y-96707080D01*
X164390938Y-96659461D01*
X164438557Y-96611842D01*
X164914747Y-96707080D02*
X164914747Y-96040414D01*
X164914747Y-96135652D02*
X164962366Y-96088033D01*
X165057604Y-96040414D01*
X165200461Y-96040414D01*
X165295700Y-96088033D01*
X165343319Y-96183271D01*
X165343319Y-96707080D01*
X165343319Y-96183271D02*
X165390938Y-96088033D01*
X165486176Y-96040414D01*
X165629033Y-96040414D01*
X165724271Y-96088033D01*
X165771890Y-96183271D01*
X165771890Y-96707080D01*
X166248080Y-96040414D02*
X166248080Y-97040414D01*
X166248080Y-96088033D02*
X166343319Y-96040414D01*
X166533795Y-96040414D01*
X166629033Y-96088033D01*
X166676652Y-96135652D01*
X166724271Y-96230890D01*
X166724271Y-96516604D01*
X166676652Y-96611842D01*
X166629033Y-96659461D01*
X166533795Y-96707080D01*
X166343319Y-96707080D01*
X166248080Y-96659461D01*
X167533795Y-96659461D02*
X167438557Y-96707080D01*
X167248080Y-96707080D01*
X167152842Y-96659461D01*
X167105223Y-96564223D01*
X167105223Y-96183271D01*
X167152842Y-96088033D01*
X167248080Y-96040414D01*
X167438557Y-96040414D01*
X167533795Y-96088033D01*
X167581414Y-96183271D01*
X167581414Y-96278509D01*
X167105223Y-96373747D01*
X168009985Y-96707080D02*
X168009985Y-96040414D01*
X168009985Y-96230890D02*
X168057604Y-96135652D01*
X168105223Y-96088033D01*
X168200461Y-96040414D01*
X168295700Y-96040414D01*
X168390938Y-96802319D02*
X169152842Y-96802319D01*
X169343319Y-95802319D02*
X169390938Y-95754700D01*
X169486176Y-95707080D01*
X169724271Y-95707080D01*
X169819509Y-95754700D01*
X169867128Y-95802319D01*
X169914747Y-95897557D01*
X169914747Y-95992795D01*
X169867128Y-96135652D01*
X169295700Y-96707080D01*
X169914747Y-96707080D01*
X170105223Y-96802319D02*
X170867128Y-96802319D01*
X171295700Y-95707080D02*
X171486176Y-95707080D01*
X171581414Y-95754700D01*
X171676652Y-95849938D01*
X171724271Y-96040414D01*
X171724271Y-96373747D01*
X171676652Y-96564223D01*
X171581414Y-96659461D01*
X171486176Y-96707080D01*
X171295700Y-96707080D01*
X171200461Y-96659461D01*
X171105223Y-96564223D01*
X171057604Y-96373747D01*
X171057604Y-96040414D01*
X171105223Y-95849938D01*
X171200461Y-95754700D01*
X171295700Y-95707080D01*
X172152842Y-96040414D02*
X172152842Y-97040414D01*
X172152842Y-96088033D02*
X172248080Y-96040414D01*
X172438557Y-96040414D01*
X172533795Y-96088033D01*
X172581414Y-96135652D01*
X172629033Y-96230890D01*
X172629033Y-96516604D01*
X172581414Y-96611842D01*
X172533795Y-96659461D01*
X172438557Y-96707080D01*
X172248080Y-96707080D01*
X172152842Y-96659461D01*
X173438557Y-96659461D02*
X173343319Y-96707080D01*
X173152842Y-96707080D01*
X173057604Y-96659461D01*
X173009985Y-96564223D01*
X173009985Y-96183271D01*
X173057604Y-96088033D01*
X173152842Y-96040414D01*
X173343319Y-96040414D01*
X173438557Y-96088033D01*
X173486176Y-96183271D01*
X173486176Y-96278509D01*
X173009985Y-96373747D01*
X173914747Y-96040414D02*
X173914747Y-96707080D01*
X173914747Y-96135652D02*
X173962366Y-96088033D01*
X174057604Y-96040414D01*
X174200461Y-96040414D01*
X174295700Y-96088033D01*
X174343319Y-96183271D01*
X174343319Y-96707080D01*
X168248080Y-93048033D02*
X168962366Y-93048033D01*
X169105223Y-93095652D01*
X169200461Y-93190890D01*
X169248080Y-93333747D01*
X169248080Y-93428985D01*
X169248080Y-92571842D02*
X168248080Y-92571842D01*
X168248080Y-92190890D01*
X168295700Y-92095652D01*
X168343319Y-92048033D01*
X168438557Y-92000414D01*
X168581414Y-92000414D01*
X168676652Y-92048033D01*
X168724271Y-92095652D01*
X168771890Y-92190890D01*
X168771890Y-92571842D01*
X169248080Y-91048033D02*
X169248080Y-91619461D01*
X169248080Y-91333747D02*
X168248080Y-91333747D01*
X168390938Y-91428985D01*
X168486176Y-91524223D01*
X168533795Y-91619461D01*
X191757242Y-67695033D02*
X191804861Y-67742652D01*
X191852480Y-67885509D01*
X191852480Y-67980747D01*
X191804861Y-68123604D01*
X191709623Y-68218842D01*
X191614385Y-68266461D01*
X191423909Y-68314080D01*
X191281052Y-68314080D01*
X191090576Y-68266461D01*
X190995338Y-68218842D01*
X190900100Y-68123604D01*
X190852480Y-67980747D01*
X190852480Y-67885509D01*
X190900100Y-67742652D01*
X190947719Y-67695033D01*
X191852480Y-67123604D02*
X191804861Y-67218842D01*
X191757242Y-67266461D01*
X191662004Y-67314080D01*
X191376290Y-67314080D01*
X191281052Y-67266461D01*
X191233433Y-67218842D01*
X191185814Y-67123604D01*
X191185814Y-66980747D01*
X191233433Y-66885509D01*
X191281052Y-66837890D01*
X191376290Y-66790271D01*
X191662004Y-66790271D01*
X191757242Y-66837890D01*
X191804861Y-66885509D01*
X191852480Y-66980747D01*
X191852480Y-67123604D01*
X191185814Y-66361700D02*
X191852480Y-66361700D01*
X191281052Y-66361700D02*
X191233433Y-66314080D01*
X191185814Y-66218842D01*
X191185814Y-66075985D01*
X191233433Y-65980747D01*
X191328671Y-65933128D01*
X191852480Y-65933128D01*
X191185814Y-65456938D02*
X191852480Y-65456938D01*
X191281052Y-65456938D02*
X191233433Y-65409319D01*
X191185814Y-65314080D01*
X191185814Y-65171223D01*
X191233433Y-65075985D01*
X191328671Y-65028366D01*
X191852480Y-65028366D01*
X191947719Y-64790271D02*
X191947719Y-64028366D01*
X190852480Y-63599795D02*
X190852480Y-63504557D01*
X190900100Y-63409319D01*
X190947719Y-63361700D01*
X191042957Y-63314080D01*
X191233433Y-63266461D01*
X191471528Y-63266461D01*
X191662004Y-63314080D01*
X191757242Y-63361700D01*
X191804861Y-63409319D01*
X191852480Y-63504557D01*
X191852480Y-63599795D01*
X191804861Y-63695033D01*
X191757242Y-63742652D01*
X191662004Y-63790271D01*
X191471528Y-63837890D01*
X191233433Y-63837890D01*
X191042957Y-63790271D01*
X190947719Y-63742652D01*
X190900100Y-63695033D01*
X190852480Y-63599795D01*
X191852480Y-62314080D02*
X191852480Y-62885509D01*
X191852480Y-62599795D02*
X190852480Y-62599795D01*
X190995338Y-62695033D01*
X191090576Y-62790271D01*
X191138195Y-62885509D01*
X191852480Y-61980747D02*
X191185814Y-61456938D01*
X191185814Y-61980747D02*
X191852480Y-61456938D01*
X190852480Y-60885509D02*
X190852480Y-60790271D01*
X190900100Y-60695033D01*
X190947719Y-60647414D01*
X191042957Y-60599795D01*
X191233433Y-60552176D01*
X191471528Y-60552176D01*
X191662004Y-60599795D01*
X191757242Y-60647414D01*
X191804861Y-60695033D01*
X191852480Y-60790271D01*
X191852480Y-60885509D01*
X191804861Y-60980747D01*
X191757242Y-61028366D01*
X191662004Y-61075985D01*
X191471528Y-61123604D01*
X191233433Y-61123604D01*
X191042957Y-61075985D01*
X190947719Y-61028366D01*
X190900100Y-60980747D01*
X190852480Y-60885509D01*
X190852480Y-59647414D02*
X190852480Y-60123604D01*
X191328671Y-60171223D01*
X191281052Y-60123604D01*
X191233433Y-60028366D01*
X191233433Y-59790271D01*
X191281052Y-59695033D01*
X191328671Y-59647414D01*
X191423909Y-59599795D01*
X191662004Y-59599795D01*
X191757242Y-59647414D01*
X191804861Y-59695033D01*
X191852480Y-59790271D01*
X191852480Y-60028366D01*
X191804861Y-60123604D01*
X191757242Y-60171223D01*
X191947719Y-59409319D02*
X191947719Y-58647414D01*
X191852480Y-58409319D02*
X190852480Y-58409319D01*
X191566766Y-58075985D01*
X190852480Y-57742652D01*
X191852480Y-57742652D01*
X191852480Y-56837890D02*
X191328671Y-56837890D01*
X191233433Y-56885509D01*
X191185814Y-56980747D01*
X191185814Y-57171223D01*
X191233433Y-57266461D01*
X191804861Y-56837890D02*
X191852480Y-56933128D01*
X191852480Y-57171223D01*
X191804861Y-57266461D01*
X191709623Y-57314080D01*
X191614385Y-57314080D01*
X191519147Y-57266461D01*
X191471528Y-57171223D01*
X191471528Y-56933128D01*
X191423909Y-56837890D01*
X191852480Y-56218842D02*
X191804861Y-56314080D01*
X191709623Y-56361700D01*
X190852480Y-56361700D01*
X191804861Y-55456938D02*
X191852480Y-55552176D01*
X191852480Y-55742652D01*
X191804861Y-55837890D01*
X191709623Y-55885509D01*
X191328671Y-55885509D01*
X191233433Y-55837890D01*
X191185814Y-55742652D01*
X191185814Y-55552176D01*
X191233433Y-55456938D01*
X191328671Y-55409319D01*
X191423909Y-55409319D01*
X191519147Y-55885509D01*
X197126766Y-61314080D02*
X197126766Y-62028366D01*
X197079147Y-62171223D01*
X196983909Y-62266461D01*
X196841052Y-62314080D01*
X196745814Y-62314080D01*
X198079147Y-61314080D02*
X197602957Y-61314080D01*
X197555338Y-61790271D01*
X197602957Y-61742652D01*
X197698195Y-61695033D01*
X197936290Y-61695033D01*
X198031528Y-61742652D01*
X198079147Y-61790271D01*
X198126766Y-61885509D01*
X198126766Y-62123604D01*
X198079147Y-62218842D01*
X198031528Y-62266461D01*
X197936290Y-62314080D01*
X197698195Y-62314080D01*
X197602957Y-62266461D01*
X197555338Y-62218842D01*
X182329866Y-81360342D02*
X182282247Y-81407961D01*
X182139390Y-81455580D01*
X182044152Y-81455580D01*
X181901295Y-81407961D01*
X181806057Y-81312723D01*
X181758438Y-81217485D01*
X181710819Y-81027009D01*
X181710819Y-80884152D01*
X181758438Y-80693676D01*
X181806057Y-80598438D01*
X181901295Y-80503200D01*
X182044152Y-80455580D01*
X182139390Y-80455580D01*
X182282247Y-80503200D01*
X182329866Y-80550819D01*
X182901295Y-81455580D02*
X182806057Y-81407961D01*
X182758438Y-81360342D01*
X182710819Y-81265104D01*
X182710819Y-80979390D01*
X182758438Y-80884152D01*
X182806057Y-80836533D01*
X182901295Y-80788914D01*
X183044152Y-80788914D01*
X183139390Y-80836533D01*
X183187009Y-80884152D01*
X183234628Y-80979390D01*
X183234628Y-81265104D01*
X183187009Y-81360342D01*
X183139390Y-81407961D01*
X183044152Y-81455580D01*
X182901295Y-81455580D01*
X183663200Y-80788914D02*
X183663200Y-81455580D01*
X183663200Y-80884152D02*
X183710819Y-80836533D01*
X183806057Y-80788914D01*
X183948914Y-80788914D01*
X184044152Y-80836533D01*
X184091771Y-80931771D01*
X184091771Y-81455580D01*
X184567961Y-80788914D02*
X184567961Y-81455580D01*
X184567961Y-80884152D02*
X184615580Y-80836533D01*
X184710819Y-80788914D01*
X184853676Y-80788914D01*
X184948914Y-80836533D01*
X184996533Y-80931771D01*
X184996533Y-81455580D01*
X185234628Y-81550819D02*
X185996533Y-81550819D01*
X186425104Y-80455580D02*
X186520342Y-80455580D01*
X186615580Y-80503200D01*
X186663200Y-80550819D01*
X186710819Y-80646057D01*
X186758438Y-80836533D01*
X186758438Y-81074628D01*
X186710819Y-81265104D01*
X186663200Y-81360342D01*
X186615580Y-81407961D01*
X186520342Y-81455580D01*
X186425104Y-81455580D01*
X186329866Y-81407961D01*
X186282247Y-81360342D01*
X186234628Y-81265104D01*
X186187009Y-81074628D01*
X186187009Y-80836533D01*
X186234628Y-80646057D01*
X186282247Y-80550819D01*
X186329866Y-80503200D01*
X186425104Y-80455580D01*
X187710819Y-81455580D02*
X187139390Y-81455580D01*
X187425104Y-81455580D02*
X187425104Y-80455580D01*
X187329866Y-80598438D01*
X187234628Y-80693676D01*
X187139390Y-80741295D01*
X188044152Y-81455580D02*
X188567961Y-80788914D01*
X188044152Y-80788914D02*
X188567961Y-81455580D01*
X189139390Y-80455580D02*
X189234628Y-80455580D01*
X189329866Y-80503200D01*
X189377485Y-80550819D01*
X189425104Y-80646057D01*
X189472723Y-80836533D01*
X189472723Y-81074628D01*
X189425104Y-81265104D01*
X189377485Y-81360342D01*
X189329866Y-81407961D01*
X189234628Y-81455580D01*
X189139390Y-81455580D01*
X189044152Y-81407961D01*
X188996533Y-81360342D01*
X188948914Y-81265104D01*
X188901295Y-81074628D01*
X188901295Y-80836533D01*
X188948914Y-80646057D01*
X188996533Y-80550819D01*
X189044152Y-80503200D01*
X189139390Y-80455580D01*
X190425104Y-81455580D02*
X189853676Y-81455580D01*
X190139390Y-81455580D02*
X190139390Y-80455580D01*
X190044152Y-80598438D01*
X189948914Y-80693676D01*
X189853676Y-80741295D01*
X190615580Y-81550819D02*
X191377485Y-81550819D01*
X191615580Y-81455580D02*
X191615580Y-80455580D01*
X191948914Y-81169866D01*
X192282247Y-80455580D01*
X192282247Y-81455580D01*
X193187009Y-81455580D02*
X193187009Y-80931771D01*
X193139390Y-80836533D01*
X193044152Y-80788914D01*
X192853676Y-80788914D01*
X192758438Y-80836533D01*
X193187009Y-81407961D02*
X193091771Y-81455580D01*
X192853676Y-81455580D01*
X192758438Y-81407961D01*
X192710819Y-81312723D01*
X192710819Y-81217485D01*
X192758438Y-81122247D01*
X192853676Y-81074628D01*
X193091771Y-81074628D01*
X193187009Y-81027009D01*
X193806057Y-81455580D02*
X193710819Y-81407961D01*
X193663200Y-81312723D01*
X193663200Y-80455580D01*
X194567961Y-81407961D02*
X194472723Y-81455580D01*
X194282247Y-81455580D01*
X194187009Y-81407961D01*
X194139390Y-81312723D01*
X194139390Y-80931771D01*
X194187009Y-80836533D01*
X194282247Y-80788914D01*
X194472723Y-80788914D01*
X194567961Y-80836533D01*
X194615580Y-80931771D01*
X194615580Y-81027009D01*
X194139390Y-81122247D01*
X187615580Y-79276533D02*
X188329866Y-79276533D01*
X188472723Y-79324152D01*
X188567961Y-79419390D01*
X188615580Y-79562247D01*
X188615580Y-79657485D01*
X187948914Y-78371771D02*
X188615580Y-78371771D01*
X187567961Y-78609866D02*
X188282247Y-78847961D01*
X188282247Y-78228914D01*
X177003214Y-67926880D02*
X177098452Y-67926880D01*
X177193690Y-67974500D01*
X177241309Y-68022119D01*
X177288928Y-68117357D01*
X177336547Y-68307833D01*
X177336547Y-68545928D01*
X177288928Y-68736404D01*
X177241309Y-68831642D01*
X177193690Y-68879261D01*
X177098452Y-68926880D01*
X177003214Y-68926880D01*
X176907976Y-68879261D01*
X176860357Y-68831642D01*
X176812738Y-68736404D01*
X176765119Y-68545928D01*
X176765119Y-68307833D01*
X176812738Y-68117357D01*
X176860357Y-68022119D01*
X176907976Y-67974500D01*
X177003214Y-67926880D01*
X177765119Y-68831642D02*
X177812738Y-68879261D01*
X177765119Y-68926880D01*
X177717500Y-68879261D01*
X177765119Y-68831642D01*
X177765119Y-68926880D01*
X178765119Y-68926880D02*
X178193690Y-68926880D01*
X178479404Y-68926880D02*
X178479404Y-67926880D01*
X178384166Y-68069738D01*
X178288928Y-68164976D01*
X178193690Y-68212595D01*
X179622261Y-68260214D02*
X179622261Y-68926880D01*
X179193690Y-68260214D02*
X179193690Y-68784023D01*
X179241309Y-68879261D01*
X179336547Y-68926880D01*
X179479404Y-68926880D01*
X179574642Y-68879261D01*
X179622261Y-68831642D01*
D13*
X177703214Y-70580214D02*
X177665119Y-70618309D01*
X177550833Y-70656404D01*
X177474642Y-70656404D01*
X177360357Y-70618309D01*
X177284166Y-70542119D01*
X177246071Y-70465928D01*
X177207976Y-70313547D01*
X177207976Y-70199261D01*
X177246071Y-70046880D01*
X177284166Y-69970690D01*
X177360357Y-69894500D01*
X177474642Y-69856404D01*
X177550833Y-69856404D01*
X177665119Y-69894500D01*
X177703214Y-69932595D01*
X178465119Y-70656404D02*
X178007976Y-70656404D01*
X178236547Y-70656404D02*
X178236547Y-69856404D01*
X178160357Y-69970690D01*
X178084166Y-70046880D01*
X178007976Y-70084976D01*
X178960357Y-69856404D02*
X179036547Y-69856404D01*
X179112738Y-69894500D01*
X179150833Y-69932595D01*
X179188928Y-70008785D01*
X179227023Y-70161166D01*
X179227023Y-70351642D01*
X179188928Y-70504023D01*
X179150833Y-70580214D01*
X179112738Y-70618309D01*
X179036547Y-70656404D01*
X178960357Y-70656404D01*
X178884166Y-70618309D01*
X178846071Y-70580214D01*
X178807976Y-70504023D01*
X178769880Y-70351642D01*
X178769880Y-70161166D01*
X178807976Y-70008785D01*
X178846071Y-69932595D01*
X178884166Y-69894500D01*
X178960357Y-69856404D01*
D11*
X186669842Y-113986533D02*
X186717461Y-114034152D01*
X186765080Y-114177009D01*
X186765080Y-114272247D01*
X186717461Y-114415104D01*
X186622223Y-114510342D01*
X186526985Y-114557961D01*
X186336509Y-114605580D01*
X186193652Y-114605580D01*
X186003176Y-114557961D01*
X185907938Y-114510342D01*
X185812700Y-114415104D01*
X185765080Y-114272247D01*
X185765080Y-114177009D01*
X185812700Y-114034152D01*
X185860319Y-113986533D01*
X186765080Y-113415104D02*
X186717461Y-113510342D01*
X186669842Y-113557961D01*
X186574604Y-113605580D01*
X186288890Y-113605580D01*
X186193652Y-113557961D01*
X186146033Y-113510342D01*
X186098414Y-113415104D01*
X186098414Y-113272247D01*
X186146033Y-113177009D01*
X186193652Y-113129390D01*
X186288890Y-113081771D01*
X186574604Y-113081771D01*
X186669842Y-113129390D01*
X186717461Y-113177009D01*
X186765080Y-113272247D01*
X186765080Y-113415104D01*
X186098414Y-112653200D02*
X186765080Y-112653200D01*
X186193652Y-112653200D02*
X186146033Y-112605580D01*
X186098414Y-112510342D01*
X186098414Y-112367485D01*
X186146033Y-112272247D01*
X186241271Y-112224628D01*
X186765080Y-112224628D01*
X186098414Y-111748438D02*
X186765080Y-111748438D01*
X186193652Y-111748438D02*
X186146033Y-111700819D01*
X186098414Y-111605580D01*
X186098414Y-111462723D01*
X186146033Y-111367485D01*
X186241271Y-111319866D01*
X186765080Y-111319866D01*
X186860319Y-111081771D02*
X186860319Y-110319866D01*
X185765080Y-109891295D02*
X185765080Y-109796057D01*
X185812700Y-109700819D01*
X185860319Y-109653200D01*
X185955557Y-109605580D01*
X186146033Y-109557961D01*
X186384128Y-109557961D01*
X186574604Y-109605580D01*
X186669842Y-109653200D01*
X186717461Y-109700819D01*
X186765080Y-109796057D01*
X186765080Y-109891295D01*
X186717461Y-109986533D01*
X186669842Y-110034152D01*
X186574604Y-110081771D01*
X186384128Y-110129390D01*
X186146033Y-110129390D01*
X185955557Y-110081771D01*
X185860319Y-110034152D01*
X185812700Y-109986533D01*
X185765080Y-109891295D01*
X186765080Y-108605580D02*
X186765080Y-109177009D01*
X186765080Y-108891295D02*
X185765080Y-108891295D01*
X185907938Y-108986533D01*
X186003176Y-109081771D01*
X186050795Y-109177009D01*
X186765080Y-108272247D02*
X186098414Y-107748438D01*
X186098414Y-108272247D02*
X186765080Y-107748438D01*
X185765080Y-107177009D02*
X185765080Y-107081771D01*
X185812700Y-106986533D01*
X185860319Y-106938914D01*
X185955557Y-106891295D01*
X186146033Y-106843676D01*
X186384128Y-106843676D01*
X186574604Y-106891295D01*
X186669842Y-106938914D01*
X186717461Y-106986533D01*
X186765080Y-107081771D01*
X186765080Y-107177009D01*
X186717461Y-107272247D01*
X186669842Y-107319866D01*
X186574604Y-107367485D01*
X186384128Y-107415104D01*
X186146033Y-107415104D01*
X185955557Y-107367485D01*
X185860319Y-107319866D01*
X185812700Y-107272247D01*
X185765080Y-107177009D01*
X185765080Y-105986533D02*
X185765080Y-106177009D01*
X185812700Y-106272247D01*
X185860319Y-106319866D01*
X186003176Y-106415104D01*
X186193652Y-106462723D01*
X186574604Y-106462723D01*
X186669842Y-106415104D01*
X186717461Y-106367485D01*
X186765080Y-106272247D01*
X186765080Y-106081771D01*
X186717461Y-105986533D01*
X186669842Y-105938914D01*
X186574604Y-105891295D01*
X186336509Y-105891295D01*
X186241271Y-105938914D01*
X186193652Y-105986533D01*
X186146033Y-106081771D01*
X186146033Y-106272247D01*
X186193652Y-106367485D01*
X186241271Y-106415104D01*
X186336509Y-106462723D01*
X186860319Y-105700819D02*
X186860319Y-104938914D01*
X186765080Y-104700819D02*
X185765080Y-104700819D01*
X186479366Y-104367485D01*
X185765080Y-104034152D01*
X186765080Y-104034152D01*
X186765080Y-103129390D02*
X186241271Y-103129390D01*
X186146033Y-103177009D01*
X186098414Y-103272247D01*
X186098414Y-103462723D01*
X186146033Y-103557961D01*
X186717461Y-103129390D02*
X186765080Y-103224628D01*
X186765080Y-103462723D01*
X186717461Y-103557961D01*
X186622223Y-103605580D01*
X186526985Y-103605580D01*
X186431747Y-103557961D01*
X186384128Y-103462723D01*
X186384128Y-103224628D01*
X186336509Y-103129390D01*
X186765080Y-102510342D02*
X186717461Y-102605580D01*
X186622223Y-102653200D01*
X185765080Y-102653200D01*
X186717461Y-101748438D02*
X186765080Y-101843676D01*
X186765080Y-102034152D01*
X186717461Y-102129390D01*
X186622223Y-102177009D01*
X186241271Y-102177009D01*
X186146033Y-102129390D01*
X186098414Y-102034152D01*
X186098414Y-101843676D01*
X186146033Y-101748438D01*
X186241271Y-101700819D01*
X186336509Y-101700819D01*
X186431747Y-102177009D01*
X178479366Y-107605580D02*
X178479366Y-108319866D01*
X178431747Y-108462723D01*
X178336509Y-108557961D01*
X178193652Y-108605580D01*
X178098414Y-108605580D01*
X178907938Y-107700819D02*
X178955557Y-107653200D01*
X179050795Y-107605580D01*
X179288890Y-107605580D01*
X179384128Y-107653200D01*
X179431747Y-107700819D01*
X179479366Y-107796057D01*
X179479366Y-107891295D01*
X179431747Y-108034152D01*
X178860319Y-108605580D01*
X179479366Y-108605580D01*
X188581380Y-53443166D02*
X188581380Y-54014595D01*
X188581380Y-53728880D02*
X187581380Y-53728880D01*
X187724238Y-53824119D01*
X187819476Y-53919357D01*
X187867095Y-54014595D01*
X187914714Y-52586023D02*
X188581380Y-52586023D01*
X187914714Y-53014595D02*
X188438523Y-53014595D01*
X188533761Y-52966976D01*
X188581380Y-52871738D01*
X188581380Y-52728880D01*
X188533761Y-52633642D01*
X188486142Y-52586023D01*
D13*
X186594714Y-53409833D02*
X186632809Y-53447928D01*
X186670904Y-53562214D01*
X186670904Y-53638404D01*
X186632809Y-53752690D01*
X186556619Y-53828880D01*
X186480428Y-53866976D01*
X186328047Y-53905071D01*
X186213761Y-53905071D01*
X186061380Y-53866976D01*
X185985190Y-53828880D01*
X185909000Y-53752690D01*
X185870904Y-53638404D01*
X185870904Y-53562214D01*
X185909000Y-53447928D01*
X185947095Y-53409833D01*
X186670904Y-53028880D02*
X186670904Y-52876500D01*
X186632809Y-52800309D01*
X186594714Y-52762214D01*
X186480428Y-52686023D01*
X186328047Y-52647928D01*
X186023285Y-52647928D01*
X185947095Y-52686023D01*
X185909000Y-52724119D01*
X185870904Y-52800309D01*
X185870904Y-52952690D01*
X185909000Y-53028880D01*
X185947095Y-53066976D01*
X186023285Y-53105071D01*
X186213761Y-53105071D01*
X186289952Y-53066976D01*
X186328047Y-53028880D01*
X186366142Y-52952690D01*
X186366142Y-52800309D01*
X186328047Y-52724119D01*
X186289952Y-52686023D01*
X186213761Y-52647928D01*
D11*
X124164766Y-63819880D02*
X123688576Y-63819880D01*
X123640957Y-64296071D01*
X123688576Y-64248452D01*
X123783814Y-64200833D01*
X124021909Y-64200833D01*
X124117147Y-64248452D01*
X124164766Y-64296071D01*
X124212385Y-64391309D01*
X124212385Y-64629404D01*
X124164766Y-64724642D01*
X124117147Y-64772261D01*
X124021909Y-64819880D01*
X123783814Y-64819880D01*
X123688576Y-64772261D01*
X123640957Y-64724642D01*
X124640957Y-64819880D02*
X124640957Y-63819880D01*
X124974290Y-64534166D01*
X125307623Y-63819880D01*
X125307623Y-64819880D01*
D13*
X124364766Y-62909404D02*
X124098100Y-62528452D01*
X123907623Y-62909404D02*
X123907623Y-62109404D01*
X124212385Y-62109404D01*
X124288576Y-62147500D01*
X124326671Y-62185595D01*
X124364766Y-62261785D01*
X124364766Y-62376071D01*
X124326671Y-62452261D01*
X124288576Y-62490357D01*
X124212385Y-62528452D01*
X123907623Y-62528452D01*
X125050480Y-62376071D02*
X125050480Y-62909404D01*
X124860004Y-62071309D02*
X124669528Y-62642738D01*
X125164766Y-62642738D01*
D11*
X123861652Y-89590342D02*
X123814033Y-89637961D01*
X123671176Y-89685580D01*
X123575938Y-89685580D01*
X123433080Y-89637961D01*
X123337842Y-89542723D01*
X123290223Y-89447485D01*
X123242604Y-89257009D01*
X123242604Y-89114152D01*
X123290223Y-88923676D01*
X123337842Y-88828438D01*
X123433080Y-88733200D01*
X123575938Y-88685580D01*
X123671176Y-88685580D01*
X123814033Y-88733200D01*
X123861652Y-88780819D01*
X124671176Y-89637961D02*
X124575938Y-89685580D01*
X124385461Y-89685580D01*
X124290223Y-89637961D01*
X124242604Y-89542723D01*
X124242604Y-89161771D01*
X124290223Y-89066533D01*
X124385461Y-89018914D01*
X124575938Y-89018914D01*
X124671176Y-89066533D01*
X124718795Y-89161771D01*
X124718795Y-89257009D01*
X124242604Y-89352247D01*
X125290223Y-89685580D02*
X125194985Y-89637961D01*
X125147366Y-89542723D01*
X125147366Y-88685580D01*
X125814033Y-89685580D02*
X125718795Y-89637961D01*
X125671176Y-89542723D01*
X125671176Y-88685580D01*
X126718795Y-89685580D02*
X126147366Y-89685580D01*
X126433080Y-89685580D02*
X126433080Y-88685580D01*
X126337842Y-88828438D01*
X126242604Y-88923676D01*
X126147366Y-88971295D01*
X124194985Y-100461771D02*
X124337842Y-100509390D01*
X124385461Y-100557009D01*
X124433080Y-100652247D01*
X124433080Y-100795104D01*
X124385461Y-100890342D01*
X124337842Y-100937961D01*
X124242604Y-100985580D01*
X123861652Y-100985580D01*
X123861652Y-99985580D01*
X124194985Y-99985580D01*
X124290223Y-100033200D01*
X124337842Y-100080819D01*
X124385461Y-100176057D01*
X124385461Y-100271295D01*
X124337842Y-100366533D01*
X124290223Y-100414152D01*
X124194985Y-100461771D01*
X123861652Y-100461771D01*
X124718795Y-99985580D02*
X125290223Y-99985580D01*
X125004509Y-100985580D02*
X125004509Y-99985580D01*
X126147366Y-100985580D02*
X125575938Y-100985580D01*
X125861652Y-100985580D02*
X125861652Y-99985580D01*
X125766414Y-100128438D01*
X125671176Y-100223676D01*
X125575938Y-100271295D01*
X209686861Y-68883280D02*
X209782100Y-68883280D01*
X209877338Y-68930900D01*
X209924957Y-68978519D01*
X209972576Y-69073757D01*
X210020195Y-69264233D01*
X210020195Y-69502328D01*
X209972576Y-69692804D01*
X209924957Y-69788042D01*
X209877338Y-69835661D01*
X209782100Y-69883280D01*
X209686861Y-69883280D01*
X209591623Y-69835661D01*
X209544004Y-69788042D01*
X209496385Y-69692804D01*
X209448766Y-69502328D01*
X209448766Y-69264233D01*
X209496385Y-69073757D01*
X209544004Y-68978519D01*
X209591623Y-68930900D01*
X209686861Y-68883280D01*
X210448766Y-69788042D02*
X210496385Y-69835661D01*
X210448766Y-69883280D01*
X210401147Y-69835661D01*
X210448766Y-69788042D01*
X210448766Y-69883280D01*
X211115433Y-68883280D02*
X211210671Y-68883280D01*
X211305909Y-68930900D01*
X211353528Y-68978519D01*
X211401147Y-69073757D01*
X211448766Y-69264233D01*
X211448766Y-69502328D01*
X211401147Y-69692804D01*
X211353528Y-69788042D01*
X211305909Y-69835661D01*
X211210671Y-69883280D01*
X211115433Y-69883280D01*
X211020195Y-69835661D01*
X210972576Y-69788042D01*
X210924957Y-69692804D01*
X210877338Y-69502328D01*
X210877338Y-69264233D01*
X210924957Y-69073757D01*
X210972576Y-68978519D01*
X211020195Y-68930900D01*
X211115433Y-68883280D01*
X211829719Y-68978519D02*
X211877338Y-68930900D01*
X211972576Y-68883280D01*
X212210671Y-68883280D01*
X212305909Y-68930900D01*
X212353528Y-68978519D01*
X212401147Y-69073757D01*
X212401147Y-69168995D01*
X212353528Y-69311852D01*
X211782100Y-69883280D01*
X212401147Y-69883280D01*
X212782100Y-68978519D02*
X212829719Y-68930900D01*
X212924957Y-68883280D01*
X213163052Y-68883280D01*
X213258290Y-68930900D01*
X213305909Y-68978519D01*
X213353528Y-69073757D01*
X213353528Y-69168995D01*
X213305909Y-69311852D01*
X212734480Y-69883280D01*
X213353528Y-69883280D01*
X214210671Y-69216614D02*
X214210671Y-69883280D01*
X213782100Y-69216614D02*
X213782100Y-69740423D01*
X213829719Y-69835661D01*
X213924957Y-69883280D01*
X214067814Y-69883280D01*
X214163052Y-69835661D01*
X214210671Y-69788042D01*
X215020195Y-69359471D02*
X214686861Y-69359471D01*
X214686861Y-69883280D02*
X214686861Y-68883280D01*
X215163052Y-68883280D01*
D13*
X211729666Y-67405214D02*
X211691571Y-67443309D01*
X211577285Y-67481404D01*
X211501095Y-67481404D01*
X211386809Y-67443309D01*
X211310619Y-67367119D01*
X211272523Y-67290928D01*
X211234428Y-67138547D01*
X211234428Y-67024261D01*
X211272523Y-66871880D01*
X211310619Y-66795690D01*
X211386809Y-66719500D01*
X211501095Y-66681404D01*
X211577285Y-66681404D01*
X211691571Y-66719500D01*
X211729666Y-66757595D01*
X212491571Y-67481404D02*
X212034428Y-67481404D01*
X212263000Y-67481404D02*
X212263000Y-66681404D01*
X212186809Y-66795690D01*
X212110619Y-66871880D01*
X212034428Y-66909976D01*
D11*
X170873080Y-103307985D02*
X170873080Y-103212747D01*
X170920700Y-103117509D01*
X170968319Y-103069890D01*
X171063557Y-103022271D01*
X171254033Y-102974652D01*
X171492128Y-102974652D01*
X171682604Y-103022271D01*
X171777842Y-103069890D01*
X171825461Y-103117509D01*
X171873080Y-103212747D01*
X171873080Y-103307985D01*
X171825461Y-103403223D01*
X171777842Y-103450842D01*
X171682604Y-103498461D01*
X171492128Y-103546080D01*
X171254033Y-103546080D01*
X171063557Y-103498461D01*
X170968319Y-103450842D01*
X170920700Y-103403223D01*
X170873080Y-103307985D01*
X171777842Y-102546080D02*
X171825461Y-102498461D01*
X171873080Y-102546080D01*
X171825461Y-102593700D01*
X171777842Y-102546080D01*
X171873080Y-102546080D01*
X171873080Y-101546080D02*
X171873080Y-102117509D01*
X171873080Y-101831795D02*
X170873080Y-101831795D01*
X171015938Y-101927033D01*
X171111176Y-102022271D01*
X171158795Y-102117509D01*
X171206414Y-100688938D02*
X171873080Y-100688938D01*
X171206414Y-101117509D02*
X171730223Y-101117509D01*
X171825461Y-101069890D01*
X171873080Y-100974652D01*
X171873080Y-100831795D01*
X171825461Y-100736557D01*
X171777842Y-100688938D01*
D13*
X173526414Y-102227033D02*
X173564509Y-102265128D01*
X173602604Y-102379414D01*
X173602604Y-102455604D01*
X173564509Y-102569890D01*
X173488319Y-102646080D01*
X173412128Y-102684176D01*
X173259747Y-102722271D01*
X173145461Y-102722271D01*
X172993080Y-102684176D01*
X172916890Y-102646080D01*
X172840700Y-102569890D01*
X172802604Y-102455604D01*
X172802604Y-102379414D01*
X172840700Y-102265128D01*
X172878795Y-102227033D01*
X172878795Y-101922271D02*
X172840700Y-101884176D01*
X172802604Y-101807985D01*
X172802604Y-101617509D01*
X172840700Y-101541319D01*
X172878795Y-101503223D01*
X172954985Y-101465128D01*
X173031176Y-101465128D01*
X173145461Y-101503223D01*
X173602604Y-101960366D01*
X173602604Y-101465128D01*
D11*
X121850314Y-76181880D02*
X121945552Y-76181880D01*
X122040790Y-76229500D01*
X122088409Y-76277119D01*
X122136028Y-76372357D01*
X122183647Y-76562833D01*
X122183647Y-76800928D01*
X122136028Y-76991404D01*
X122088409Y-77086642D01*
X122040790Y-77134261D01*
X121945552Y-77181880D01*
X121850314Y-77181880D01*
X121755076Y-77134261D01*
X121707457Y-77086642D01*
X121659838Y-76991404D01*
X121612219Y-76800928D01*
X121612219Y-76562833D01*
X121659838Y-76372357D01*
X121707457Y-76277119D01*
X121755076Y-76229500D01*
X121850314Y-76181880D01*
X122612219Y-77086642D02*
X122659838Y-77134261D01*
X122612219Y-77181880D01*
X122564600Y-77134261D01*
X122612219Y-77086642D01*
X122612219Y-77181880D01*
X123612219Y-77181880D02*
X123040790Y-77181880D01*
X123326504Y-77181880D02*
X123326504Y-76181880D01*
X123231266Y-76324738D01*
X123136028Y-76419976D01*
X123040790Y-76467595D01*
X124469361Y-76515214D02*
X124469361Y-77181880D01*
X124040790Y-76515214D02*
X124040790Y-77039023D01*
X124088409Y-77134261D01*
X124183647Y-77181880D01*
X124326504Y-77181880D01*
X124421742Y-77134261D01*
X124469361Y-77086642D01*
D13*
X122931266Y-78835214D02*
X122893171Y-78873309D01*
X122778885Y-78911404D01*
X122702695Y-78911404D01*
X122588409Y-78873309D01*
X122512219Y-78797119D01*
X122474123Y-78720928D01*
X122436028Y-78568547D01*
X122436028Y-78454261D01*
X122474123Y-78301880D01*
X122512219Y-78225690D01*
X122588409Y-78149500D01*
X122702695Y-78111404D01*
X122778885Y-78111404D01*
X122893171Y-78149500D01*
X122931266Y-78187595D01*
X123197933Y-78111404D02*
X123693171Y-78111404D01*
X123426504Y-78416166D01*
X123540790Y-78416166D01*
X123616980Y-78454261D01*
X123655076Y-78492357D01*
X123693171Y-78568547D01*
X123693171Y-78759023D01*
X123655076Y-78835214D01*
X123616980Y-78873309D01*
X123540790Y-78911404D01*
X123312219Y-78911404D01*
X123236028Y-78873309D01*
X123197933Y-78835214D01*
D11*
X182049080Y-95079485D02*
X182049080Y-94984247D01*
X182096700Y-94889009D01*
X182144319Y-94841390D01*
X182239557Y-94793771D01*
X182430033Y-94746152D01*
X182668128Y-94746152D01*
X182858604Y-94793771D01*
X182953842Y-94841390D01*
X183001461Y-94889009D01*
X183049080Y-94984247D01*
X183049080Y-95079485D01*
X183001461Y-95174723D01*
X182953842Y-95222342D01*
X182858604Y-95269961D01*
X182668128Y-95317580D01*
X182430033Y-95317580D01*
X182239557Y-95269961D01*
X182144319Y-95222342D01*
X182096700Y-95174723D01*
X182049080Y-95079485D01*
X182953842Y-94317580D02*
X183001461Y-94269961D01*
X183049080Y-94317580D01*
X183001461Y-94365200D01*
X182953842Y-94317580D01*
X183049080Y-94317580D01*
X183049080Y-93317580D02*
X183049080Y-93889009D01*
X183049080Y-93603295D02*
X182049080Y-93603295D01*
X182191938Y-93698533D01*
X182287176Y-93793771D01*
X182334795Y-93889009D01*
X182382414Y-92460438D02*
X183049080Y-92460438D01*
X182382414Y-92889009D02*
X182906223Y-92889009D01*
X183001461Y-92841390D01*
X183049080Y-92746152D01*
X183049080Y-92603295D01*
X183001461Y-92508057D01*
X182953842Y-92460438D01*
D13*
X184702414Y-93998533D02*
X184740509Y-94036628D01*
X184778604Y-94150914D01*
X184778604Y-94227104D01*
X184740509Y-94341390D01*
X184664319Y-94417580D01*
X184588128Y-94455676D01*
X184435747Y-94493771D01*
X184321461Y-94493771D01*
X184169080Y-94455676D01*
X184092890Y-94417580D01*
X184016700Y-94341390D01*
X183978604Y-94227104D01*
X183978604Y-94150914D01*
X184016700Y-94036628D01*
X184054795Y-93998533D01*
X184245271Y-93312819D02*
X184778604Y-93312819D01*
X183940509Y-93503295D02*
X184511938Y-93693771D01*
X184511938Y-93198533D01*
D11*
X187383080Y-95555676D02*
X187383080Y-95460438D01*
X187430700Y-95365200D01*
X187478319Y-95317580D01*
X187573557Y-95269961D01*
X187764033Y-95222342D01*
X188002128Y-95222342D01*
X188192604Y-95269961D01*
X188287842Y-95317580D01*
X188335461Y-95365200D01*
X188383080Y-95460438D01*
X188383080Y-95555676D01*
X188335461Y-95650914D01*
X188287842Y-95698533D01*
X188192604Y-95746152D01*
X188002128Y-95793771D01*
X187764033Y-95793771D01*
X187573557Y-95746152D01*
X187478319Y-95698533D01*
X187430700Y-95650914D01*
X187383080Y-95555676D01*
X188287842Y-94793771D02*
X188335461Y-94746152D01*
X188383080Y-94793771D01*
X188335461Y-94841390D01*
X188287842Y-94793771D01*
X188383080Y-94793771D01*
X187478319Y-94365200D02*
X187430700Y-94317580D01*
X187383080Y-94222342D01*
X187383080Y-93984247D01*
X187430700Y-93889009D01*
X187478319Y-93841390D01*
X187573557Y-93793771D01*
X187668795Y-93793771D01*
X187811652Y-93841390D01*
X188383080Y-94412819D01*
X188383080Y-93793771D01*
X187478319Y-93412819D02*
X187430700Y-93365200D01*
X187383080Y-93269961D01*
X187383080Y-93031866D01*
X187430700Y-92936628D01*
X187478319Y-92889009D01*
X187573557Y-92841390D01*
X187668795Y-92841390D01*
X187811652Y-92889009D01*
X188383080Y-93460438D01*
X188383080Y-92841390D01*
X187716414Y-91984247D02*
X188383080Y-91984247D01*
X187716414Y-92412819D02*
X188240223Y-92412819D01*
X188335461Y-92365200D01*
X188383080Y-92269961D01*
X188383080Y-92127104D01*
X188335461Y-92031866D01*
X188287842Y-91984247D01*
D13*
X190036414Y-93998533D02*
X190074509Y-94036628D01*
X190112604Y-94150914D01*
X190112604Y-94227104D01*
X190074509Y-94341390D01*
X189998319Y-94417580D01*
X189922128Y-94455676D01*
X189769747Y-94493771D01*
X189655461Y-94493771D01*
X189503080Y-94455676D01*
X189426890Y-94417580D01*
X189350700Y-94341390D01*
X189312604Y-94227104D01*
X189312604Y-94150914D01*
X189350700Y-94036628D01*
X189388795Y-93998533D01*
X189312604Y-93274723D02*
X189312604Y-93655676D01*
X189693557Y-93693771D01*
X189655461Y-93655676D01*
X189617366Y-93579485D01*
X189617366Y-93389009D01*
X189655461Y-93312819D01*
X189693557Y-93274723D01*
X189769747Y-93236628D01*
X189960223Y-93236628D01*
X190036414Y-93274723D01*
X190074509Y-93312819D01*
X190112604Y-93389009D01*
X190112604Y-93579485D01*
X190074509Y-93655676D01*
X190036414Y-93693771D01*
D11*
X193640880Y-94546657D02*
X193640880Y-95118085D01*
X193640880Y-94832371D02*
X192640880Y-94832371D01*
X192783738Y-94927609D01*
X192878976Y-95022847D01*
X192926595Y-95118085D01*
X192640880Y-93927609D02*
X192640880Y-93832371D01*
X192688500Y-93737133D01*
X192736119Y-93689514D01*
X192831357Y-93641895D01*
X193021833Y-93594276D01*
X193259928Y-93594276D01*
X193450404Y-93641895D01*
X193545642Y-93689514D01*
X193593261Y-93737133D01*
X193640880Y-93832371D01*
X193640880Y-93927609D01*
X193593261Y-94022847D01*
X193545642Y-94070466D01*
X193450404Y-94118085D01*
X193259928Y-94165704D01*
X193021833Y-94165704D01*
X192831357Y-94118085D01*
X192736119Y-94070466D01*
X192688500Y-94022847D01*
X192640880Y-93927609D01*
X192974214Y-92737133D02*
X193640880Y-92737133D01*
X192974214Y-93165704D02*
X193498023Y-93165704D01*
X193593261Y-93118085D01*
X193640880Y-93022847D01*
X193640880Y-92879990D01*
X193593261Y-92784752D01*
X193545642Y-92737133D01*
D13*
X195294214Y-94037133D02*
X195332309Y-94075228D01*
X195370404Y-94189514D01*
X195370404Y-94265704D01*
X195332309Y-94379990D01*
X195256119Y-94456180D01*
X195179928Y-94494276D01*
X195027547Y-94532371D01*
X194913261Y-94532371D01*
X194760880Y-94494276D01*
X194684690Y-94456180D01*
X194608500Y-94379990D01*
X194570404Y-94265704D01*
X194570404Y-94189514D01*
X194608500Y-94075228D01*
X194646595Y-94037133D01*
X194570404Y-93351419D02*
X194570404Y-93503800D01*
X194608500Y-93579990D01*
X194646595Y-93618085D01*
X194760880Y-93694276D01*
X194913261Y-93732371D01*
X195218023Y-93732371D01*
X195294214Y-93694276D01*
X195332309Y-93656180D01*
X195370404Y-93579990D01*
X195370404Y-93427609D01*
X195332309Y-93351419D01*
X195294214Y-93313323D01*
X195218023Y-93275228D01*
X195027547Y-93275228D01*
X194951357Y-93313323D01*
X194913261Y-93351419D01*
X194875166Y-93427609D01*
X194875166Y-93579990D01*
X194913261Y-93656180D01*
X194951357Y-93694276D01*
X195027547Y-93732371D01*
D11*
X197701080Y-95555676D02*
X197701080Y-95460438D01*
X197748700Y-95365200D01*
X197796319Y-95317580D01*
X197891557Y-95269961D01*
X198082033Y-95222342D01*
X198320128Y-95222342D01*
X198510604Y-95269961D01*
X198605842Y-95317580D01*
X198653461Y-95365200D01*
X198701080Y-95460438D01*
X198701080Y-95555676D01*
X198653461Y-95650914D01*
X198605842Y-95698533D01*
X198510604Y-95746152D01*
X198320128Y-95793771D01*
X198082033Y-95793771D01*
X197891557Y-95746152D01*
X197796319Y-95698533D01*
X197748700Y-95650914D01*
X197701080Y-95555676D01*
X198605842Y-94793771D02*
X198653461Y-94746152D01*
X198701080Y-94793771D01*
X198653461Y-94841390D01*
X198605842Y-94793771D01*
X198701080Y-94793771D01*
X197796319Y-94365200D02*
X197748700Y-94317580D01*
X197701080Y-94222342D01*
X197701080Y-93984247D01*
X197748700Y-93889009D01*
X197796319Y-93841390D01*
X197891557Y-93793771D01*
X197986795Y-93793771D01*
X198129652Y-93841390D01*
X198701080Y-94412819D01*
X198701080Y-93793771D01*
X197796319Y-93412819D02*
X197748700Y-93365200D01*
X197701080Y-93269961D01*
X197701080Y-93031866D01*
X197748700Y-92936628D01*
X197796319Y-92889009D01*
X197891557Y-92841390D01*
X197986795Y-92841390D01*
X198129652Y-92889009D01*
X198701080Y-93460438D01*
X198701080Y-92841390D01*
X198034414Y-91984247D02*
X198701080Y-91984247D01*
X198034414Y-92412819D02*
X198558223Y-92412819D01*
X198653461Y-92365200D01*
X198701080Y-92269961D01*
X198701080Y-92127104D01*
X198653461Y-92031866D01*
X198605842Y-91984247D01*
D13*
X200354414Y-93998533D02*
X200392509Y-94036628D01*
X200430604Y-94150914D01*
X200430604Y-94227104D01*
X200392509Y-94341390D01*
X200316319Y-94417580D01*
X200240128Y-94455676D01*
X200087747Y-94493771D01*
X199973461Y-94493771D01*
X199821080Y-94455676D01*
X199744890Y-94417580D01*
X199668700Y-94341390D01*
X199630604Y-94227104D01*
X199630604Y-94150914D01*
X199668700Y-94036628D01*
X199706795Y-93998533D01*
X199630604Y-93731866D02*
X199630604Y-93198533D01*
X200430604Y-93541390D01*
D11*
X202877080Y-95073305D02*
X202877080Y-94978067D01*
X202924700Y-94882829D01*
X202972319Y-94835210D01*
X203067557Y-94787591D01*
X203258033Y-94739972D01*
X203496128Y-94739972D01*
X203686604Y-94787591D01*
X203781842Y-94835210D01*
X203829461Y-94882829D01*
X203877080Y-94978067D01*
X203877080Y-95073305D01*
X203829461Y-95168543D01*
X203781842Y-95216162D01*
X203686604Y-95263781D01*
X203496128Y-95311400D01*
X203258033Y-95311400D01*
X203067557Y-95263781D01*
X202972319Y-95216162D01*
X202924700Y-95168543D01*
X202877080Y-95073305D01*
X203781842Y-94311400D02*
X203829461Y-94263781D01*
X203877080Y-94311400D01*
X203829461Y-94359020D01*
X203781842Y-94311400D01*
X203877080Y-94311400D01*
X203877080Y-93311400D02*
X203877080Y-93882829D01*
X203877080Y-93597115D02*
X202877080Y-93597115D01*
X203019938Y-93692353D01*
X203115176Y-93787591D01*
X203162795Y-93882829D01*
X203210414Y-92454258D02*
X203877080Y-92454258D01*
X203210414Y-92882829D02*
X203734223Y-92882829D01*
X203829461Y-92835210D01*
X203877080Y-92739972D01*
X203877080Y-92597115D01*
X203829461Y-92501877D01*
X203781842Y-92454258D01*
D13*
X205530414Y-93992353D02*
X205568509Y-94030448D01*
X205606604Y-94144734D01*
X205606604Y-94220924D01*
X205568509Y-94335210D01*
X205492319Y-94411400D01*
X205416128Y-94449496D01*
X205263747Y-94487591D01*
X205149461Y-94487591D01*
X204997080Y-94449496D01*
X204920890Y-94411400D01*
X204844700Y-94335210D01*
X204806604Y-94220924D01*
X204806604Y-94144734D01*
X204844700Y-94030448D01*
X204882795Y-93992353D01*
X205149461Y-93535210D02*
X205111366Y-93611400D01*
X205073271Y-93649496D01*
X204997080Y-93687591D01*
X204958985Y-93687591D01*
X204882795Y-93649496D01*
X204844700Y-93611400D01*
X204806604Y-93535210D01*
X204806604Y-93382829D01*
X204844700Y-93306639D01*
X204882795Y-93268543D01*
X204958985Y-93230448D01*
X204997080Y-93230448D01*
X205073271Y-93268543D01*
X205111366Y-93306639D01*
X205149461Y-93382829D01*
X205149461Y-93535210D01*
X205187557Y-93611400D01*
X205225652Y-93649496D01*
X205301842Y-93687591D01*
X205454223Y-93687591D01*
X205530414Y-93649496D01*
X205568509Y-93611400D01*
X205606604Y-93535210D01*
X205606604Y-93382829D01*
X205568509Y-93306639D01*
X205530414Y-93268543D01*
X205454223Y-93230448D01*
X205301842Y-93230448D01*
X205225652Y-93268543D01*
X205187557Y-93306639D01*
X205149461Y-93382829D01*
D11*
X191878366Y-82106580D02*
X192449795Y-82106580D01*
X192164080Y-83106580D02*
X192164080Y-82106580D01*
X193164080Y-83058961D02*
X193068842Y-83106580D01*
X192878366Y-83106580D01*
X192783128Y-83058961D01*
X192735509Y-82963723D01*
X192735509Y-82582771D01*
X192783128Y-82487533D01*
X192878366Y-82439914D01*
X193068842Y-82439914D01*
X193164080Y-82487533D01*
X193211700Y-82582771D01*
X193211700Y-82678009D01*
X192735509Y-82773247D01*
X193592652Y-83058961D02*
X193687890Y-83106580D01*
X193878366Y-83106580D01*
X193973604Y-83058961D01*
X194021223Y-82963723D01*
X194021223Y-82916104D01*
X193973604Y-82820866D01*
X193878366Y-82773247D01*
X193735509Y-82773247D01*
X193640271Y-82725628D01*
X193592652Y-82630390D01*
X193592652Y-82582771D01*
X193640271Y-82487533D01*
X193735509Y-82439914D01*
X193878366Y-82439914D01*
X193973604Y-82487533D01*
X194306938Y-82439914D02*
X194687890Y-82439914D01*
X194449795Y-82106580D02*
X194449795Y-82963723D01*
X194497414Y-83058961D01*
X194592652Y-83106580D01*
X194687890Y-83106580D01*
X195021223Y-83106580D02*
X195021223Y-82106580D01*
X195402176Y-82106580D01*
X195497414Y-82154200D01*
X195545033Y-82201819D01*
X195592652Y-82297057D01*
X195592652Y-82439914D01*
X195545033Y-82535152D01*
X195497414Y-82582771D01*
X195402176Y-82630390D01*
X195021223Y-82630390D01*
X196164080Y-83106580D02*
X196068842Y-83058961D01*
X196021223Y-83011342D01*
X195973604Y-82916104D01*
X195973604Y-82630390D01*
X196021223Y-82535152D01*
X196068842Y-82487533D01*
X196164080Y-82439914D01*
X196306938Y-82439914D01*
X196402176Y-82487533D01*
X196449795Y-82535152D01*
X196497414Y-82630390D01*
X196497414Y-82916104D01*
X196449795Y-83011342D01*
X196402176Y-83058961D01*
X196306938Y-83106580D01*
X196164080Y-83106580D01*
X196925985Y-83106580D02*
X196925985Y-82439914D01*
X196925985Y-82106580D02*
X196878366Y-82154200D01*
X196925985Y-82201819D01*
X196973604Y-82154200D01*
X196925985Y-82106580D01*
X196925985Y-82201819D01*
X197402176Y-82439914D02*
X197402176Y-83106580D01*
X197402176Y-82535152D02*
X197449795Y-82487533D01*
X197545033Y-82439914D01*
X197687890Y-82439914D01*
X197783128Y-82487533D01*
X197830747Y-82582771D01*
X197830747Y-83106580D01*
X198164080Y-82439914D02*
X198545033Y-82439914D01*
X198306938Y-82106580D02*
X198306938Y-82963723D01*
X198354557Y-83058961D01*
X198449795Y-83106580D01*
X198545033Y-83106580D01*
X195568842Y-81760866D02*
X195616461Y-81808485D01*
X195664080Y-81951342D01*
X195664080Y-82046580D01*
X195616461Y-82189438D01*
X195521223Y-82284676D01*
X195425985Y-82332295D01*
X195235509Y-82379914D01*
X195092652Y-82379914D01*
X194902176Y-82332295D01*
X194806938Y-82284676D01*
X194711700Y-82189438D01*
X194664080Y-82046580D01*
X194664080Y-81951342D01*
X194711700Y-81808485D01*
X194759319Y-81760866D01*
X195664080Y-81332295D02*
X194664080Y-81332295D01*
X194664080Y-81094200D01*
X194711700Y-80951342D01*
X194806938Y-80856104D01*
X194902176Y-80808485D01*
X195092652Y-80760866D01*
X195235509Y-80760866D01*
X195425985Y-80808485D01*
X195521223Y-80856104D01*
X195616461Y-80951342D01*
X195664080Y-81094200D01*
X195664080Y-81332295D01*
X195664080Y-79760866D02*
X195187890Y-80094200D01*
X195664080Y-80332295D02*
X194664080Y-80332295D01*
X194664080Y-79951342D01*
X194711700Y-79856104D01*
X194759319Y-79808485D01*
X194854557Y-79760866D01*
X194997414Y-79760866D01*
X195092652Y-79808485D01*
X195140271Y-79856104D01*
X195187890Y-79951342D01*
X195187890Y-80332295D01*
X195664080Y-78808485D02*
X195664080Y-79379914D01*
X195664080Y-79094200D02*
X194664080Y-79094200D01*
X194806938Y-79189438D01*
X194902176Y-79284676D01*
X194949795Y-79379914D01*
X118436080Y-63086833D02*
X118436080Y-62515404D01*
X119436080Y-62801119D02*
X118436080Y-62801119D01*
X119388461Y-61801119D02*
X119436080Y-61896357D01*
X119436080Y-62086833D01*
X119388461Y-62182071D01*
X119293223Y-62229690D01*
X118912271Y-62229690D01*
X118817033Y-62182071D01*
X118769414Y-62086833D01*
X118769414Y-61896357D01*
X118817033Y-61801119D01*
X118912271Y-61753500D01*
X119007509Y-61753500D01*
X119102747Y-62229690D01*
X119388461Y-61372547D02*
X119436080Y-61277309D01*
X119436080Y-61086833D01*
X119388461Y-60991595D01*
X119293223Y-60943976D01*
X119245604Y-60943976D01*
X119150366Y-60991595D01*
X119102747Y-61086833D01*
X119102747Y-61229690D01*
X119055128Y-61324928D01*
X118959890Y-61372547D01*
X118912271Y-61372547D01*
X118817033Y-61324928D01*
X118769414Y-61229690D01*
X118769414Y-61086833D01*
X118817033Y-60991595D01*
X118769414Y-60658261D02*
X118769414Y-60277309D01*
X118436080Y-60515404D02*
X119293223Y-60515404D01*
X119388461Y-60467785D01*
X119436080Y-60372547D01*
X119436080Y-60277309D01*
X119436080Y-59943976D02*
X118436080Y-59943976D01*
X118436080Y-59563023D01*
X118483700Y-59467785D01*
X118531319Y-59420166D01*
X118626557Y-59372547D01*
X118769414Y-59372547D01*
X118864652Y-59420166D01*
X118912271Y-59467785D01*
X118959890Y-59563023D01*
X118959890Y-59943976D01*
X119436080Y-58801119D02*
X119388461Y-58896357D01*
X119340842Y-58943976D01*
X119245604Y-58991595D01*
X118959890Y-58991595D01*
X118864652Y-58943976D01*
X118817033Y-58896357D01*
X118769414Y-58801119D01*
X118769414Y-58658261D01*
X118817033Y-58563023D01*
X118864652Y-58515404D01*
X118959890Y-58467785D01*
X119245604Y-58467785D01*
X119340842Y-58515404D01*
X119388461Y-58563023D01*
X119436080Y-58658261D01*
X119436080Y-58801119D01*
X119436080Y-58039214D02*
X118769414Y-58039214D01*
X118436080Y-58039214D02*
X118483700Y-58086833D01*
X118531319Y-58039214D01*
X118483700Y-57991595D01*
X118436080Y-58039214D01*
X118531319Y-58039214D01*
X118769414Y-57563023D02*
X119436080Y-57563023D01*
X118864652Y-57563023D02*
X118817033Y-57515404D01*
X118769414Y-57420166D01*
X118769414Y-57277309D01*
X118817033Y-57182071D01*
X118912271Y-57134452D01*
X119436080Y-57134452D01*
X118769414Y-56801119D02*
X118769414Y-56420166D01*
X118436080Y-56658261D02*
X119293223Y-56658261D01*
X119388461Y-56610642D01*
X119436080Y-56515404D01*
X119436080Y-56420166D01*
X119805604Y-59253500D02*
X119710366Y-59205880D01*
X119567509Y-59205880D01*
X119424652Y-59253500D01*
X119329414Y-59348738D01*
X119281795Y-59443976D01*
X119234176Y-59634452D01*
X119234176Y-59777309D01*
X119281795Y-59967785D01*
X119329414Y-60063023D01*
X119424652Y-60158261D01*
X119567509Y-60205880D01*
X119662747Y-60205880D01*
X119805604Y-60158261D01*
X119853223Y-60110642D01*
X119853223Y-59777309D01*
X119662747Y-59777309D01*
X120281795Y-60205880D02*
X120281795Y-59205880D01*
X120853223Y-60205880D01*
X120853223Y-59205880D01*
X121329414Y-60205880D02*
X121329414Y-59205880D01*
X121567509Y-59205880D01*
X121710366Y-59253500D01*
X121805604Y-59348738D01*
X121853223Y-59443976D01*
X121900842Y-59634452D01*
X121900842Y-59777309D01*
X121853223Y-59967785D01*
X121805604Y-60063023D01*
X121710366Y-60158261D01*
X121567509Y-60205880D01*
X121329414Y-60205880D01*
X122853223Y-60205880D02*
X122281795Y-60205880D01*
X122567509Y-60205880D02*
X122567509Y-59205880D01*
X122472271Y-59348738D01*
X122377033Y-59443976D01*
X122281795Y-59491595D01*
X119291242Y-71057595D02*
X119338861Y-71105214D01*
X119386480Y-71248071D01*
X119386480Y-71343309D01*
X119338861Y-71486166D01*
X119243623Y-71581404D01*
X119148385Y-71629023D01*
X118957909Y-71676642D01*
X118815052Y-71676642D01*
X118624576Y-71629023D01*
X118529338Y-71581404D01*
X118434100Y-71486166D01*
X118386480Y-71343309D01*
X118386480Y-71248071D01*
X118434100Y-71105214D01*
X118481719Y-71057595D01*
X119386480Y-70486166D02*
X119338861Y-70581404D01*
X119291242Y-70629023D01*
X119196004Y-70676642D01*
X118910290Y-70676642D01*
X118815052Y-70629023D01*
X118767433Y-70581404D01*
X118719814Y-70486166D01*
X118719814Y-70343309D01*
X118767433Y-70248071D01*
X118815052Y-70200452D01*
X118910290Y-70152833D01*
X119196004Y-70152833D01*
X119291242Y-70200452D01*
X119338861Y-70248071D01*
X119386480Y-70343309D01*
X119386480Y-70486166D01*
X118719814Y-69724261D02*
X119386480Y-69724261D01*
X118815052Y-69724261D02*
X118767433Y-69676642D01*
X118719814Y-69581404D01*
X118719814Y-69438547D01*
X118767433Y-69343309D01*
X118862671Y-69295690D01*
X119386480Y-69295690D01*
X118719814Y-68819500D02*
X119386480Y-68819500D01*
X118815052Y-68819500D02*
X118767433Y-68771880D01*
X118719814Y-68676642D01*
X118719814Y-68533785D01*
X118767433Y-68438547D01*
X118862671Y-68390928D01*
X119386480Y-68390928D01*
X119481719Y-68152833D02*
X119481719Y-67390928D01*
X118386480Y-66962357D02*
X118386480Y-66867119D01*
X118434100Y-66771880D01*
X118481719Y-66724261D01*
X118576957Y-66676642D01*
X118767433Y-66629023D01*
X119005528Y-66629023D01*
X119196004Y-66676642D01*
X119291242Y-66724261D01*
X119338861Y-66771880D01*
X119386480Y-66867119D01*
X119386480Y-66962357D01*
X119338861Y-67057595D01*
X119291242Y-67105214D01*
X119196004Y-67152833D01*
X119005528Y-67200452D01*
X118767433Y-67200452D01*
X118576957Y-67152833D01*
X118481719Y-67105214D01*
X118434100Y-67057595D01*
X118386480Y-66962357D01*
X119386480Y-65676642D02*
X119386480Y-66248071D01*
X119386480Y-65962357D02*
X118386480Y-65962357D01*
X118529338Y-66057595D01*
X118624576Y-66152833D01*
X118672195Y-66248071D01*
X119386480Y-65343309D02*
X118719814Y-64819500D01*
X118719814Y-65343309D02*
X119386480Y-64819500D01*
X118386480Y-64248071D02*
X118386480Y-64152833D01*
X118434100Y-64057595D01*
X118481719Y-64009976D01*
X118576957Y-63962357D01*
X118767433Y-63914738D01*
X119005528Y-63914738D01*
X119196004Y-63962357D01*
X119291242Y-64009976D01*
X119338861Y-64057595D01*
X119386480Y-64152833D01*
X119386480Y-64248071D01*
X119338861Y-64343309D01*
X119291242Y-64390928D01*
X119196004Y-64438547D01*
X119005528Y-64486166D01*
X118767433Y-64486166D01*
X118576957Y-64438547D01*
X118481719Y-64390928D01*
X118434100Y-64343309D01*
X118386480Y-64248071D01*
X118386480Y-63581404D02*
X118386480Y-62962357D01*
X118767433Y-63295690D01*
X118767433Y-63152833D01*
X118815052Y-63057595D01*
X118862671Y-63009976D01*
X118957909Y-62962357D01*
X119196004Y-62962357D01*
X119291242Y-63009976D01*
X119338861Y-63057595D01*
X119386480Y-63152833D01*
X119386480Y-63438547D01*
X119338861Y-63533785D01*
X119291242Y-63581404D01*
X123910766Y-66771880D02*
X123910766Y-67486166D01*
X123863147Y-67629023D01*
X123767909Y-67724261D01*
X123625052Y-67771880D01*
X123529814Y-67771880D01*
X124815528Y-66771880D02*
X124625052Y-66771880D01*
X124529814Y-66819500D01*
X124482195Y-66867119D01*
X124386957Y-67009976D01*
X124339338Y-67200452D01*
X124339338Y-67581404D01*
X124386957Y-67676642D01*
X124434576Y-67724261D01*
X124529814Y-67771880D01*
X124720290Y-67771880D01*
X124815528Y-67724261D01*
X124863147Y-67676642D01*
X124910766Y-67581404D01*
X124910766Y-67343309D01*
X124863147Y-67248071D01*
X124815528Y-67200452D01*
X124720290Y-67152833D01*
X124529814Y-67152833D01*
X124434576Y-67200452D01*
X124386957Y-67248071D01*
X124339338Y-67343309D01*
X129954422Y-86407595D02*
X130002041Y-86455214D01*
X130049660Y-86598071D01*
X130049660Y-86693309D01*
X130002041Y-86836166D01*
X129906803Y-86931404D01*
X129811565Y-86979023D01*
X129621089Y-87026642D01*
X129478232Y-87026642D01*
X129287756Y-86979023D01*
X129192518Y-86931404D01*
X129097280Y-86836166D01*
X129049660Y-86693309D01*
X129049660Y-86598071D01*
X129097280Y-86455214D01*
X129144899Y-86407595D01*
X130049660Y-85836166D02*
X130002041Y-85931404D01*
X129954422Y-85979023D01*
X129859184Y-86026642D01*
X129573470Y-86026642D01*
X129478232Y-85979023D01*
X129430613Y-85931404D01*
X129382994Y-85836166D01*
X129382994Y-85693309D01*
X129430613Y-85598071D01*
X129478232Y-85550452D01*
X129573470Y-85502833D01*
X129859184Y-85502833D01*
X129954422Y-85550452D01*
X130002041Y-85598071D01*
X130049660Y-85693309D01*
X130049660Y-85836166D01*
X129382994Y-85074261D02*
X130049660Y-85074261D01*
X129478232Y-85074261D02*
X129430613Y-85026642D01*
X129382994Y-84931404D01*
X129382994Y-84788547D01*
X129430613Y-84693309D01*
X129525851Y-84645690D01*
X130049660Y-84645690D01*
X129382994Y-84169500D02*
X130049660Y-84169500D01*
X129478232Y-84169500D02*
X129430613Y-84121880D01*
X129382994Y-84026642D01*
X129382994Y-83883785D01*
X129430613Y-83788547D01*
X129525851Y-83740928D01*
X130049660Y-83740928D01*
X130144899Y-83502833D02*
X130144899Y-82740928D01*
X129049660Y-82312357D02*
X129049660Y-82217119D01*
X129097280Y-82121880D01*
X129144899Y-82074261D01*
X129240137Y-82026642D01*
X129430613Y-81979023D01*
X129668708Y-81979023D01*
X129859184Y-82026642D01*
X129954422Y-82074261D01*
X130002041Y-82121880D01*
X130049660Y-82217119D01*
X130049660Y-82312357D01*
X130002041Y-82407595D01*
X129954422Y-82455214D01*
X129859184Y-82502833D01*
X129668708Y-82550452D01*
X129430613Y-82550452D01*
X129240137Y-82502833D01*
X129144899Y-82455214D01*
X129097280Y-82407595D01*
X129049660Y-82312357D01*
X130049660Y-81026642D02*
X130049660Y-81598071D01*
X130049660Y-81312357D02*
X129049660Y-81312357D01*
X129192518Y-81407595D01*
X129287756Y-81502833D01*
X129335375Y-81598071D01*
X130049660Y-80693309D02*
X129382994Y-80169500D01*
X129382994Y-80693309D02*
X130049660Y-80169500D01*
X129049660Y-79598071D02*
X129049660Y-79502833D01*
X129097280Y-79407595D01*
X129144899Y-79359976D01*
X129240137Y-79312357D01*
X129430613Y-79264738D01*
X129668708Y-79264738D01*
X129859184Y-79312357D01*
X129954422Y-79359976D01*
X130002041Y-79407595D01*
X130049660Y-79502833D01*
X130049660Y-79598071D01*
X130002041Y-79693309D01*
X129954422Y-79740928D01*
X129859184Y-79788547D01*
X129668708Y-79836166D01*
X129430613Y-79836166D01*
X129240137Y-79788547D01*
X129144899Y-79740928D01*
X129097280Y-79693309D01*
X129049660Y-79598071D01*
X129049660Y-78931404D02*
X129049660Y-78312357D01*
X129430613Y-78645690D01*
X129430613Y-78502833D01*
X129478232Y-78407595D01*
X129525851Y-78359976D01*
X129621089Y-78312357D01*
X129859184Y-78312357D01*
X129954422Y-78359976D01*
X130002041Y-78407595D01*
X130049660Y-78502833D01*
X130049660Y-78788547D01*
X130002041Y-78883785D01*
X129954422Y-78931404D01*
X123953946Y-82121880D02*
X123953946Y-82836166D01*
X123906327Y-82979023D01*
X123811089Y-83074261D01*
X123668232Y-83121880D01*
X123572994Y-83121880D01*
X124334899Y-82121880D02*
X125001565Y-82121880D01*
X124572994Y-83121880D01*
X132952004Y-84236642D02*
X132904385Y-84284261D01*
X132761528Y-84331880D01*
X132666290Y-84331880D01*
X132523433Y-84284261D01*
X132428195Y-84189023D01*
X132380576Y-84093785D01*
X132332957Y-83903309D01*
X132332957Y-83760452D01*
X132380576Y-83569976D01*
X132428195Y-83474738D01*
X132523433Y-83379500D01*
X132666290Y-83331880D01*
X132761528Y-83331880D01*
X132904385Y-83379500D01*
X132952004Y-83427119D01*
X133523433Y-84331880D02*
X133428195Y-84284261D01*
X133380576Y-84236642D01*
X133332957Y-84141404D01*
X133332957Y-83855690D01*
X133380576Y-83760452D01*
X133428195Y-83712833D01*
X133523433Y-83665214D01*
X133666290Y-83665214D01*
X133761528Y-83712833D01*
X133809147Y-83760452D01*
X133856766Y-83855690D01*
X133856766Y-84141404D01*
X133809147Y-84236642D01*
X133761528Y-84284261D01*
X133666290Y-84331880D01*
X133523433Y-84331880D01*
X134285338Y-83665214D02*
X134285338Y-84331880D01*
X134285338Y-83760452D02*
X134332957Y-83712833D01*
X134428195Y-83665214D01*
X134571052Y-83665214D01*
X134666290Y-83712833D01*
X134713909Y-83808071D01*
X134713909Y-84331880D01*
X135190100Y-83665214D02*
X135190100Y-84331880D01*
X135190100Y-83760452D02*
X135237719Y-83712833D01*
X135332957Y-83665214D01*
X135475814Y-83665214D01*
X135571052Y-83712833D01*
X135618671Y-83808071D01*
X135618671Y-84331880D01*
X135856766Y-84427119D02*
X136618671Y-84427119D01*
X137047242Y-83331880D02*
X137142480Y-83331880D01*
X137237719Y-83379500D01*
X137285338Y-83427119D01*
X137332957Y-83522357D01*
X137380576Y-83712833D01*
X137380576Y-83950928D01*
X137332957Y-84141404D01*
X137285338Y-84236642D01*
X137237719Y-84284261D01*
X137142480Y-84331880D01*
X137047242Y-84331880D01*
X136952004Y-84284261D01*
X136904385Y-84236642D01*
X136856766Y-84141404D01*
X136809147Y-83950928D01*
X136809147Y-83712833D01*
X136856766Y-83522357D01*
X136904385Y-83427119D01*
X136952004Y-83379500D01*
X137047242Y-83331880D01*
X138332957Y-84331880D02*
X137761528Y-84331880D01*
X138047242Y-84331880D02*
X138047242Y-83331880D01*
X137952004Y-83474738D01*
X137856766Y-83569976D01*
X137761528Y-83617595D01*
X138666290Y-84331880D02*
X139190100Y-83665214D01*
X138666290Y-83665214D02*
X139190100Y-84331880D01*
X139761528Y-83331880D02*
X139856766Y-83331880D01*
X139952004Y-83379500D01*
X139999623Y-83427119D01*
X140047242Y-83522357D01*
X140094861Y-83712833D01*
X140094861Y-83950928D01*
X140047242Y-84141404D01*
X139999623Y-84236642D01*
X139952004Y-84284261D01*
X139856766Y-84331880D01*
X139761528Y-84331880D01*
X139666290Y-84284261D01*
X139618671Y-84236642D01*
X139571052Y-84141404D01*
X139523433Y-83950928D01*
X139523433Y-83712833D01*
X139571052Y-83522357D01*
X139618671Y-83427119D01*
X139666290Y-83379500D01*
X139761528Y-83331880D01*
X140952004Y-83331880D02*
X140761528Y-83331880D01*
X140666290Y-83379500D01*
X140618671Y-83427119D01*
X140523433Y-83569976D01*
X140475814Y-83760452D01*
X140475814Y-84141404D01*
X140523433Y-84236642D01*
X140571052Y-84284261D01*
X140666290Y-84331880D01*
X140856766Y-84331880D01*
X140952004Y-84284261D01*
X140999623Y-84236642D01*
X141047242Y-84141404D01*
X141047242Y-83903309D01*
X140999623Y-83808071D01*
X140952004Y-83760452D01*
X140856766Y-83712833D01*
X140666290Y-83712833D01*
X140571052Y-83760452D01*
X140523433Y-83808071D01*
X140475814Y-83903309D01*
X136142480Y-77152833D02*
X136856766Y-77152833D01*
X136999623Y-77200452D01*
X137094861Y-77295690D01*
X137142480Y-77438547D01*
X137142480Y-77533785D01*
X136571052Y-76533785D02*
X136523433Y-76629023D01*
X136475814Y-76676642D01*
X136380576Y-76724261D01*
X136332957Y-76724261D01*
X136237719Y-76676642D01*
X136190100Y-76629023D01*
X136142480Y-76533785D01*
X136142480Y-76343309D01*
X136190100Y-76248071D01*
X136237719Y-76200452D01*
X136332957Y-76152833D01*
X136380576Y-76152833D01*
X136475814Y-76200452D01*
X136523433Y-76248071D01*
X136571052Y-76343309D01*
X136571052Y-76533785D01*
X136618671Y-76629023D01*
X136666290Y-76676642D01*
X136761528Y-76724261D01*
X136952004Y-76724261D01*
X137047242Y-76676642D01*
X137094861Y-76629023D01*
X137142480Y-76533785D01*
X137142480Y-76343309D01*
X137094861Y-76248071D01*
X137047242Y-76200452D01*
X136952004Y-76152833D01*
X136761528Y-76152833D01*
X136666290Y-76200452D01*
X136618671Y-76248071D01*
X136571052Y-76343309D01*
X206127766Y-93516260D02*
X206699195Y-93516260D01*
X206413480Y-94516260D02*
X206413480Y-93516260D01*
X207413480Y-94468641D02*
X207318242Y-94516260D01*
X207127766Y-94516260D01*
X207032528Y-94468641D01*
X206984909Y-94373403D01*
X206984909Y-93992451D01*
X207032528Y-93897213D01*
X207127766Y-93849594D01*
X207318242Y-93849594D01*
X207413480Y-93897213D01*
X207461100Y-93992451D01*
X207461100Y-94087689D01*
X206984909Y-94182927D01*
X207842052Y-94468641D02*
X207937290Y-94516260D01*
X208127766Y-94516260D01*
X208223004Y-94468641D01*
X208270623Y-94373403D01*
X208270623Y-94325784D01*
X208223004Y-94230546D01*
X208127766Y-94182927D01*
X207984909Y-94182927D01*
X207889671Y-94135308D01*
X207842052Y-94040070D01*
X207842052Y-93992451D01*
X207889671Y-93897213D01*
X207984909Y-93849594D01*
X208127766Y-93849594D01*
X208223004Y-93897213D01*
X208556338Y-93849594D02*
X208937290Y-93849594D01*
X208699195Y-93516260D02*
X208699195Y-94373403D01*
X208746814Y-94468641D01*
X208842052Y-94516260D01*
X208937290Y-94516260D01*
X209270623Y-94516260D02*
X209270623Y-93516260D01*
X209651576Y-93516260D01*
X209746814Y-93563880D01*
X209794433Y-93611499D01*
X209842052Y-93706737D01*
X209842052Y-93849594D01*
X209794433Y-93944832D01*
X209746814Y-93992451D01*
X209651576Y-94040070D01*
X209270623Y-94040070D01*
X210413480Y-94516260D02*
X210318242Y-94468641D01*
X210270623Y-94421022D01*
X210223004Y-94325784D01*
X210223004Y-94040070D01*
X210270623Y-93944832D01*
X210318242Y-93897213D01*
X210413480Y-93849594D01*
X210556338Y-93849594D01*
X210651576Y-93897213D01*
X210699195Y-93944832D01*
X210746814Y-94040070D01*
X210746814Y-94325784D01*
X210699195Y-94421022D01*
X210651576Y-94468641D01*
X210556338Y-94516260D01*
X210413480Y-94516260D01*
X211175385Y-94516260D02*
X211175385Y-93849594D01*
X211175385Y-93516260D02*
X211127766Y-93563880D01*
X211175385Y-93611499D01*
X211223004Y-93563880D01*
X211175385Y-93516260D01*
X211175385Y-93611499D01*
X211651576Y-93849594D02*
X211651576Y-94516260D01*
X211651576Y-93944832D02*
X211699195Y-93897213D01*
X211794433Y-93849594D01*
X211937290Y-93849594D01*
X212032528Y-93897213D01*
X212080147Y-93992451D01*
X212080147Y-94516260D01*
X212413480Y-93849594D02*
X212794433Y-93849594D01*
X212556338Y-93516260D02*
X212556338Y-94373403D01*
X212603957Y-94468641D01*
X212699195Y-94516260D01*
X212794433Y-94516260D01*
X209913480Y-93813403D02*
X208913480Y-93813403D01*
X209627766Y-93480070D01*
X208913480Y-93146737D01*
X209913480Y-93146737D01*
X209913480Y-92670546D02*
X208913480Y-92670546D01*
X208913480Y-92289594D01*
X208961100Y-92194356D01*
X209008719Y-92146737D01*
X209103957Y-92099118D01*
X209246814Y-92099118D01*
X209342052Y-92146737D01*
X209389671Y-92194356D01*
X209437290Y-92289594D01*
X209437290Y-92670546D01*
X209389671Y-91337213D02*
X209437290Y-91194356D01*
X209484909Y-91146737D01*
X209580147Y-91099118D01*
X209723004Y-91099118D01*
X209818242Y-91146737D01*
X209865861Y-91194356D01*
X209913480Y-91289594D01*
X209913480Y-91670546D01*
X208913480Y-91670546D01*
X208913480Y-91337213D01*
X208961100Y-91241975D01*
X209008719Y-91194356D01*
X209103957Y-91146737D01*
X209199195Y-91146737D01*
X209294433Y-91194356D01*
X209342052Y-91241975D01*
X209389671Y-91337213D01*
X209389671Y-91670546D01*
X209913480Y-90146737D02*
X209913480Y-90718165D01*
X209913480Y-90432451D02*
X208913480Y-90432451D01*
X209056338Y-90527689D01*
X209151576Y-90622927D01*
X209199195Y-90718165D01*
X120600242Y-66134690D02*
X120647861Y-66182309D01*
X120695480Y-66325166D01*
X120695480Y-66420404D01*
X120647861Y-66563261D01*
X120552623Y-66658500D01*
X120457385Y-66706119D01*
X120266909Y-66753738D01*
X120124052Y-66753738D01*
X119933576Y-66706119D01*
X119838338Y-66658500D01*
X119743100Y-66563261D01*
X119695480Y-66420404D01*
X119695480Y-66325166D01*
X119743100Y-66182309D01*
X119790719Y-66134690D01*
X120647861Y-65753738D02*
X120695480Y-65610880D01*
X120695480Y-65372785D01*
X120647861Y-65277547D01*
X120600242Y-65229928D01*
X120505004Y-65182309D01*
X120409766Y-65182309D01*
X120314528Y-65229928D01*
X120266909Y-65277547D01*
X120219290Y-65372785D01*
X120171671Y-65563261D01*
X120124052Y-65658500D01*
X120076433Y-65706119D01*
X119981195Y-65753738D01*
X119885957Y-65753738D01*
X119790719Y-65706119D01*
X119743100Y-65658500D01*
X119695480Y-65563261D01*
X119695480Y-65325166D01*
X119743100Y-65182309D01*
X120695480Y-64753738D02*
X119695480Y-64753738D01*
X119695480Y-64515642D01*
X119743100Y-64372785D01*
X119838338Y-64277547D01*
X119933576Y-64229928D01*
X120124052Y-64182309D01*
X120266909Y-64182309D01*
X120457385Y-64229928D01*
X120552623Y-64277547D01*
X120647861Y-64372785D01*
X120695480Y-64515642D01*
X120695480Y-64753738D01*
X120695480Y-63229928D02*
X120695480Y-63801357D01*
X120695480Y-63515642D02*
X119695480Y-63515642D01*
X119838338Y-63610880D01*
X119933576Y-63706119D01*
X119981195Y-63801357D01*
X119695480Y-62896595D02*
X119695480Y-62229928D01*
X120695480Y-62658500D01*
X119695480Y-61944214D02*
X119695480Y-61325166D01*
X120076433Y-61658500D01*
X120076433Y-61515642D01*
X120124052Y-61420404D01*
X120171671Y-61372785D01*
X120266909Y-61325166D01*
X120505004Y-61325166D01*
X120600242Y-61372785D01*
X120647861Y-61420404D01*
X120695480Y-61515642D01*
X120695480Y-61801357D01*
X120647861Y-61896595D01*
X120600242Y-61944214D01*
X119695480Y-60706119D02*
X119695480Y-60610880D01*
X119743100Y-60515642D01*
X119790719Y-60468023D01*
X119885957Y-60420404D01*
X120076433Y-60372785D01*
X120314528Y-60372785D01*
X120505004Y-60420404D01*
X120600242Y-60468023D01*
X120647861Y-60515642D01*
X120695480Y-60610880D01*
X120695480Y-60706119D01*
X120647861Y-60801357D01*
X120600242Y-60848976D01*
X120505004Y-60896595D01*
X120314528Y-60944214D01*
X120076433Y-60944214D01*
X119885957Y-60896595D01*
X119790719Y-60848976D01*
X119743100Y-60801357D01*
X119695480Y-60706119D01*
X119695480Y-60039452D02*
X119695480Y-59372785D01*
X120695480Y-59801357D01*
X120790719Y-58325166D02*
X120743100Y-58420404D01*
X120647861Y-58515642D01*
X120505004Y-58658500D01*
X120457385Y-58753738D01*
X120457385Y-58848976D01*
X120695480Y-58801357D02*
X120647861Y-58896595D01*
X120552623Y-58991833D01*
X120362147Y-59039452D01*
X120028814Y-59039452D01*
X119838338Y-58991833D01*
X119743100Y-58896595D01*
X119695480Y-58801357D01*
X119695480Y-58610880D01*
X119743100Y-58515642D01*
X119838338Y-58420404D01*
X120028814Y-58372785D01*
X120362147Y-58372785D01*
X120552623Y-58420404D01*
X120647861Y-58515642D01*
X120695480Y-58610880D01*
X120695480Y-58801357D01*
X119695480Y-57468023D02*
X119695480Y-57944214D01*
X120171671Y-57991833D01*
X120124052Y-57944214D01*
X120076433Y-57848976D01*
X120076433Y-57610880D01*
X120124052Y-57515642D01*
X120171671Y-57468023D01*
X120266909Y-57420404D01*
X120505004Y-57420404D01*
X120600242Y-57468023D01*
X120647861Y-57515642D01*
X120695480Y-57610880D01*
X120695480Y-57848976D01*
X120647861Y-57944214D01*
X120600242Y-57991833D01*
X120409766Y-57039452D02*
X120409766Y-56563261D01*
X120695480Y-57134690D02*
X119695480Y-56801357D01*
X120695480Y-56468023D01*
X117790719Y-61753738D02*
X117743100Y-61848976D01*
X117647861Y-61944214D01*
X117505004Y-62087071D01*
X117457385Y-62182309D01*
X117457385Y-62277547D01*
X117695480Y-62229928D02*
X117647861Y-62325166D01*
X117552623Y-62420404D01*
X117362147Y-62468023D01*
X117028814Y-62468023D01*
X116838338Y-62420404D01*
X116743100Y-62325166D01*
X116695480Y-62229928D01*
X116695480Y-62039452D01*
X116743100Y-61944214D01*
X116838338Y-61848976D01*
X117028814Y-61801357D01*
X117362147Y-61801357D01*
X117552623Y-61848976D01*
X117647861Y-61944214D01*
X117695480Y-62039452D01*
X117695480Y-62229928D01*
X117695480Y-60848976D02*
X117695480Y-61420404D01*
X117695480Y-61134690D02*
X116695480Y-61134690D01*
X116838338Y-61229928D01*
X116933576Y-61325166D01*
X116981195Y-61420404D01*
X112600242Y-74516690D02*
X112647861Y-74564309D01*
X112695480Y-74707166D01*
X112695480Y-74802404D01*
X112647861Y-74945261D01*
X112552623Y-75040500D01*
X112457385Y-75088119D01*
X112266909Y-75135738D01*
X112124052Y-75135738D01*
X111933576Y-75088119D01*
X111838338Y-75040500D01*
X111743100Y-74945261D01*
X111695480Y-74802404D01*
X111695480Y-74707166D01*
X111743100Y-74564309D01*
X111790719Y-74516690D01*
X112647861Y-74135738D02*
X112695480Y-73992880D01*
X112695480Y-73754785D01*
X112647861Y-73659547D01*
X112600242Y-73611928D01*
X112505004Y-73564309D01*
X112409766Y-73564309D01*
X112314528Y-73611928D01*
X112266909Y-73659547D01*
X112219290Y-73754785D01*
X112171671Y-73945261D01*
X112124052Y-74040500D01*
X112076433Y-74088119D01*
X111981195Y-74135738D01*
X111885957Y-74135738D01*
X111790719Y-74088119D01*
X111743100Y-74040500D01*
X111695480Y-73945261D01*
X111695480Y-73707166D01*
X111743100Y-73564309D01*
X112695480Y-73135738D02*
X111695480Y-73135738D01*
X111695480Y-72897642D01*
X111743100Y-72754785D01*
X111838338Y-72659547D01*
X111933576Y-72611928D01*
X112124052Y-72564309D01*
X112266909Y-72564309D01*
X112457385Y-72611928D01*
X112552623Y-72659547D01*
X112647861Y-72754785D01*
X112695480Y-72897642D01*
X112695480Y-73135738D01*
X112695480Y-71611928D02*
X112695480Y-72183357D01*
X112695480Y-71897642D02*
X111695480Y-71897642D01*
X111838338Y-71992880D01*
X111933576Y-72088119D01*
X111981195Y-72183357D01*
X111695480Y-71278595D02*
X111695480Y-70611928D01*
X112695480Y-71040500D01*
X111695480Y-70326214D02*
X111695480Y-69707166D01*
X112076433Y-70040500D01*
X112076433Y-69897642D01*
X112124052Y-69802404D01*
X112171671Y-69754785D01*
X112266909Y-69707166D01*
X112505004Y-69707166D01*
X112600242Y-69754785D01*
X112647861Y-69802404D01*
X112695480Y-69897642D01*
X112695480Y-70183357D01*
X112647861Y-70278595D01*
X112600242Y-70326214D01*
X111695480Y-69088119D02*
X111695480Y-68992880D01*
X111743100Y-68897642D01*
X111790719Y-68850023D01*
X111885957Y-68802404D01*
X112076433Y-68754785D01*
X112314528Y-68754785D01*
X112505004Y-68802404D01*
X112600242Y-68850023D01*
X112647861Y-68897642D01*
X112695480Y-68992880D01*
X112695480Y-69088119D01*
X112647861Y-69183357D01*
X112600242Y-69230976D01*
X112505004Y-69278595D01*
X112314528Y-69326214D01*
X112076433Y-69326214D01*
X111885957Y-69278595D01*
X111790719Y-69230976D01*
X111743100Y-69183357D01*
X111695480Y-69088119D01*
X111695480Y-68421452D02*
X111695480Y-67754785D01*
X112695480Y-68183357D01*
X112790719Y-66707166D02*
X112743100Y-66802404D01*
X112647861Y-66897642D01*
X112505004Y-67040500D01*
X112457385Y-67135738D01*
X112457385Y-67230976D01*
X112695480Y-67183357D02*
X112647861Y-67278595D01*
X112552623Y-67373833D01*
X112362147Y-67421452D01*
X112028814Y-67421452D01*
X111838338Y-67373833D01*
X111743100Y-67278595D01*
X111695480Y-67183357D01*
X111695480Y-66992880D01*
X111743100Y-66897642D01*
X111838338Y-66802404D01*
X112028814Y-66754785D01*
X112362147Y-66754785D01*
X112552623Y-66802404D01*
X112647861Y-66897642D01*
X112695480Y-66992880D01*
X112695480Y-67183357D01*
X111695480Y-65850023D02*
X111695480Y-66326214D01*
X112171671Y-66373833D01*
X112124052Y-66326214D01*
X112076433Y-66230976D01*
X112076433Y-65992880D01*
X112124052Y-65897642D01*
X112171671Y-65850023D01*
X112266909Y-65802404D01*
X112505004Y-65802404D01*
X112600242Y-65850023D01*
X112647861Y-65897642D01*
X112695480Y-65992880D01*
X112695480Y-66230976D01*
X112647861Y-66326214D01*
X112600242Y-66373833D01*
X112409766Y-65421452D02*
X112409766Y-64945261D01*
X112695480Y-65516690D02*
X111695480Y-65183357D01*
X112695480Y-64850023D01*
X115790719Y-70135738D02*
X115743100Y-70230976D01*
X115647861Y-70326214D01*
X115505004Y-70469071D01*
X115457385Y-70564309D01*
X115457385Y-70659547D01*
X115695480Y-70611928D02*
X115647861Y-70707166D01*
X115552623Y-70802404D01*
X115362147Y-70850023D01*
X115028814Y-70850023D01*
X114838338Y-70802404D01*
X114743100Y-70707166D01*
X114695480Y-70611928D01*
X114695480Y-70421452D01*
X114743100Y-70326214D01*
X114838338Y-70230976D01*
X115028814Y-70183357D01*
X115362147Y-70183357D01*
X115552623Y-70230976D01*
X115647861Y-70326214D01*
X115695480Y-70421452D01*
X115695480Y-70611928D01*
X114790719Y-69802404D02*
X114743100Y-69754785D01*
X114695480Y-69659547D01*
X114695480Y-69421452D01*
X114743100Y-69326214D01*
X114790719Y-69278595D01*
X114885957Y-69230976D01*
X114981195Y-69230976D01*
X115124052Y-69278595D01*
X115695480Y-69850023D01*
X115695480Y-69230976D01*
X160620952Y-54384380D02*
X160573333Y-54479619D01*
X160525714Y-54527238D01*
X160430476Y-54574857D01*
X160382857Y-54574857D01*
X160287619Y-54527238D01*
X160240000Y-54479619D01*
X160192380Y-54384380D01*
X160192380Y-54193904D01*
X160240000Y-54098666D01*
X160287619Y-54051047D01*
X160382857Y-54003428D01*
X160430476Y-54003428D01*
X160525714Y-54051047D01*
X160573333Y-54098666D01*
X160620952Y-54193904D01*
X160620952Y-54384380D01*
X160668571Y-54479619D01*
X160716190Y-54527238D01*
X160811428Y-54574857D01*
X161001904Y-54574857D01*
X161097142Y-54527238D01*
X161144761Y-54479619D01*
X161192380Y-54384380D01*
X161192380Y-54193904D01*
X161144761Y-54098666D01*
X161097142Y-54051047D01*
X161001904Y-54003428D01*
X160811428Y-54003428D01*
X160716190Y-54051047D01*
X160668571Y-54098666D01*
X160620952Y-54193904D01*
X160620952Y-53432000D02*
X160573333Y-53527238D01*
X160525714Y-53574857D01*
X160430476Y-53622476D01*
X160382857Y-53622476D01*
X160287619Y-53574857D01*
X160240000Y-53527238D01*
X160192380Y-53432000D01*
X160192380Y-53241523D01*
X160240000Y-53146285D01*
X160287619Y-53098666D01*
X160382857Y-53051047D01*
X160430476Y-53051047D01*
X160525714Y-53098666D01*
X160573333Y-53146285D01*
X160620952Y-53241523D01*
X160620952Y-53432000D01*
X160668571Y-53527238D01*
X160716190Y-53574857D01*
X160811428Y-53622476D01*
X161001904Y-53622476D01*
X161097142Y-53574857D01*
X161144761Y-53527238D01*
X161192380Y-53432000D01*
X161192380Y-53241523D01*
X161144761Y-53146285D01*
X161097142Y-53098666D01*
X161001904Y-53051047D01*
X160811428Y-53051047D01*
X160716190Y-53098666D01*
X160668571Y-53146285D01*
X160620952Y-53241523D01*
X160192380Y-52717714D02*
X160192380Y-52051047D01*
X161192380Y-52479619D01*
X161192380Y-51670095D02*
X160192380Y-51670095D01*
X160811428Y-51574857D02*
X161192380Y-51289142D01*
X160525714Y-51289142D02*
X160906666Y-51670095D01*
D13*
X162921904Y-53065333D02*
X162540952Y-53332000D01*
X162921904Y-53522476D02*
X162121904Y-53522476D01*
X162121904Y-53217714D01*
X162160000Y-53141523D01*
X162198095Y-53103428D01*
X162274285Y-53065333D01*
X162388571Y-53065333D01*
X162464761Y-53103428D01*
X162502857Y-53141523D01*
X162540952Y-53217714D01*
X162540952Y-53522476D01*
X162198095Y-52760571D02*
X162160000Y-52722476D01*
X162121904Y-52646285D01*
X162121904Y-52455809D01*
X162160000Y-52379619D01*
X162198095Y-52341523D01*
X162274285Y-52303428D01*
X162350476Y-52303428D01*
X162464761Y-52341523D01*
X162921904Y-52798666D01*
X162921904Y-52303428D01*
D11*
X121823338Y-88680119D02*
X121870957Y-88632500D01*
X121966195Y-88584880D01*
X122204290Y-88584880D01*
X122299528Y-88632500D01*
X122347147Y-88680119D01*
X122394766Y-88775357D01*
X122394766Y-88870595D01*
X122347147Y-89013452D01*
X121775719Y-89584880D01*
X122394766Y-89584880D01*
X122823338Y-89489642D02*
X122870957Y-89537261D01*
X122823338Y-89584880D01*
X122775719Y-89537261D01*
X122823338Y-89489642D01*
X122823338Y-89584880D01*
X123251909Y-88680119D02*
X123299528Y-88632500D01*
X123394766Y-88584880D01*
X123632861Y-88584880D01*
X123728100Y-88632500D01*
X123775719Y-88680119D01*
X123823338Y-88775357D01*
X123823338Y-88870595D01*
X123775719Y-89013452D01*
X123204290Y-89584880D01*
X123823338Y-89584880D01*
X124251909Y-89584880D02*
X124251909Y-88584880D01*
X124347147Y-89203928D02*
X124632861Y-89584880D01*
X124632861Y-88918214D02*
X124251909Y-89299166D01*
D13*
X123094766Y-87674404D02*
X122828100Y-87293452D01*
X122637623Y-87674404D02*
X122637623Y-86874404D01*
X122942385Y-86874404D01*
X123018576Y-86912500D01*
X123056671Y-86950595D01*
X123094766Y-87026785D01*
X123094766Y-87141071D01*
X123056671Y-87217261D01*
X123018576Y-87255357D01*
X122942385Y-87293452D01*
X122637623Y-87293452D01*
X123361433Y-86874404D02*
X123856671Y-86874404D01*
X123590004Y-87179166D01*
X123704290Y-87179166D01*
X123780480Y-87217261D01*
X123818576Y-87255357D01*
X123856671Y-87331547D01*
X123856671Y-87522023D01*
X123818576Y-87598214D01*
X123780480Y-87636309D01*
X123704290Y-87674404D01*
X123475719Y-87674404D01*
X123399528Y-87636309D01*
X123361433Y-87598214D01*
D11*
X122656766Y-76591880D02*
X122180576Y-76591880D01*
X122132957Y-77068071D01*
X122180576Y-77020452D01*
X122275814Y-76972833D01*
X122513909Y-76972833D01*
X122609147Y-77020452D01*
X122656766Y-77068071D01*
X122704385Y-77163309D01*
X122704385Y-77401404D01*
X122656766Y-77496642D01*
X122609147Y-77544261D01*
X122513909Y-77591880D01*
X122275814Y-77591880D01*
X122180576Y-77544261D01*
X122132957Y-77496642D01*
X123132957Y-77591880D02*
X123132957Y-76591880D01*
X123466290Y-77306166D01*
X123799623Y-76591880D01*
X123799623Y-77591880D01*
D13*
X122856766Y-75681404D02*
X122590100Y-75300452D01*
X122399623Y-75681404D02*
X122399623Y-74881404D01*
X122704385Y-74881404D01*
X122780576Y-74919500D01*
X122818671Y-74957595D01*
X122856766Y-75033785D01*
X122856766Y-75148071D01*
X122818671Y-75224261D01*
X122780576Y-75262357D01*
X122704385Y-75300452D01*
X122399623Y-75300452D01*
X123580576Y-74881404D02*
X123199623Y-74881404D01*
X123161528Y-75262357D01*
X123199623Y-75224261D01*
X123275814Y-75186166D01*
X123466290Y-75186166D01*
X123542480Y-75224261D01*
X123580576Y-75262357D01*
X123618671Y-75338547D01*
X123618671Y-75529023D01*
X123580576Y-75605214D01*
X123542480Y-75643309D01*
X123466290Y-75681404D01*
X123275814Y-75681404D01*
X123199623Y-75643309D01*
X123161528Y-75605214D01*
D11*
X160525714Y-60650261D02*
X161192380Y-60650261D01*
X160144761Y-60888357D02*
X160859047Y-61126452D01*
X160859047Y-60507404D01*
X161097142Y-60126452D02*
X161144761Y-60078833D01*
X161192380Y-60126452D01*
X161144761Y-60174071D01*
X161097142Y-60126452D01*
X161192380Y-60126452D01*
X160620952Y-59507404D02*
X160573333Y-59602642D01*
X160525714Y-59650261D01*
X160430476Y-59697880D01*
X160382857Y-59697880D01*
X160287619Y-59650261D01*
X160240000Y-59602642D01*
X160192380Y-59507404D01*
X160192380Y-59316928D01*
X160240000Y-59221690D01*
X160287619Y-59174071D01*
X160382857Y-59126452D01*
X160430476Y-59126452D01*
X160525714Y-59174071D01*
X160573333Y-59221690D01*
X160620952Y-59316928D01*
X160620952Y-59507404D01*
X160668571Y-59602642D01*
X160716190Y-59650261D01*
X160811428Y-59697880D01*
X161001904Y-59697880D01*
X161097142Y-59650261D01*
X161144761Y-59602642D01*
X161192380Y-59507404D01*
X161192380Y-59316928D01*
X161144761Y-59221690D01*
X161097142Y-59174071D01*
X161001904Y-59126452D01*
X160811428Y-59126452D01*
X160716190Y-59174071D01*
X160668571Y-59221690D01*
X160620952Y-59316928D01*
X160192380Y-58793119D02*
X160192380Y-58126452D01*
X161192380Y-58555023D01*
X161192380Y-57745500D02*
X160192380Y-57745500D01*
X160811428Y-57650261D02*
X161192380Y-57364547D01*
X160525714Y-57364547D02*
X160906666Y-57745500D01*
D13*
X162921904Y-59378833D02*
X162540952Y-59645500D01*
X162921904Y-59835976D02*
X162121904Y-59835976D01*
X162121904Y-59531214D01*
X162160000Y-59455023D01*
X162198095Y-59416928D01*
X162274285Y-59378833D01*
X162388571Y-59378833D01*
X162464761Y-59416928D01*
X162502857Y-59455023D01*
X162540952Y-59531214D01*
X162540952Y-59835976D01*
X162121904Y-58693119D02*
X162121904Y-58845500D01*
X162160000Y-58921690D01*
X162198095Y-58959785D01*
X162312380Y-59035976D01*
X162464761Y-59074071D01*
X162769523Y-59074071D01*
X162845714Y-59035976D01*
X162883809Y-58997880D01*
X162921904Y-58921690D01*
X162921904Y-58769309D01*
X162883809Y-58693119D01*
X162845714Y-58655023D01*
X162769523Y-58616928D01*
X162579047Y-58616928D01*
X162502857Y-58655023D01*
X162464761Y-58693119D01*
X162426666Y-58769309D01*
X162426666Y-58921690D01*
X162464761Y-58997880D01*
X162502857Y-59035976D01*
X162579047Y-59074071D01*
D11*
X129115480Y-78438214D02*
X129115480Y-77819166D01*
X129496433Y-78152500D01*
X129496433Y-78009642D01*
X129544052Y-77914404D01*
X129591671Y-77866785D01*
X129686909Y-77819166D01*
X129925004Y-77819166D01*
X130020242Y-77866785D01*
X130067861Y-77914404D01*
X130115480Y-78009642D01*
X130115480Y-78295357D01*
X130067861Y-78390595D01*
X130020242Y-78438214D01*
X129115480Y-77485833D02*
X129115480Y-76866785D01*
X129496433Y-77200119D01*
X129496433Y-77057261D01*
X129544052Y-76962023D01*
X129591671Y-76914404D01*
X129686909Y-76866785D01*
X129925004Y-76866785D01*
X130020242Y-76914404D01*
X130067861Y-76962023D01*
X130115480Y-77057261D01*
X130115480Y-77342976D01*
X130067861Y-77438214D01*
X130020242Y-77485833D01*
X129115480Y-76247738D02*
X129115480Y-76152500D01*
X129163100Y-76057261D01*
X129210719Y-76009642D01*
X129305957Y-75962023D01*
X129496433Y-75914404D01*
X129734528Y-75914404D01*
X129925004Y-75962023D01*
X130020242Y-76009642D01*
X130067861Y-76057261D01*
X130115480Y-76152500D01*
X130115480Y-76247738D01*
X130067861Y-76342976D01*
X130020242Y-76390595D01*
X129925004Y-76438214D01*
X129734528Y-76485833D01*
X129496433Y-76485833D01*
X129305957Y-76438214D01*
X129210719Y-76390595D01*
X129163100Y-76342976D01*
X129115480Y-76247738D01*
D13*
X131845004Y-77285833D02*
X131464052Y-77552500D01*
X131845004Y-77742976D02*
X131045004Y-77742976D01*
X131045004Y-77438214D01*
X131083100Y-77362023D01*
X131121195Y-77323928D01*
X131197385Y-77285833D01*
X131311671Y-77285833D01*
X131387861Y-77323928D01*
X131425957Y-77362023D01*
X131464052Y-77438214D01*
X131464052Y-77742976D01*
X131045004Y-77019166D02*
X131045004Y-76485833D01*
X131845004Y-76828690D01*
D11*
X179670952Y-54311380D02*
X179623333Y-54406619D01*
X179575714Y-54454238D01*
X179480476Y-54501857D01*
X179432857Y-54501857D01*
X179337619Y-54454238D01*
X179290000Y-54406619D01*
X179242380Y-54311380D01*
X179242380Y-54120904D01*
X179290000Y-54025666D01*
X179337619Y-53978047D01*
X179432857Y-53930428D01*
X179480476Y-53930428D01*
X179575714Y-53978047D01*
X179623333Y-54025666D01*
X179670952Y-54120904D01*
X179670952Y-54311380D01*
X179718571Y-54406619D01*
X179766190Y-54454238D01*
X179861428Y-54501857D01*
X180051904Y-54501857D01*
X180147142Y-54454238D01*
X180194761Y-54406619D01*
X180242380Y-54311380D01*
X180242380Y-54120904D01*
X180194761Y-54025666D01*
X180147142Y-53978047D01*
X180051904Y-53930428D01*
X179861428Y-53930428D01*
X179766190Y-53978047D01*
X179718571Y-54025666D01*
X179670952Y-54120904D01*
X179670952Y-53359000D02*
X179623333Y-53454238D01*
X179575714Y-53501857D01*
X179480476Y-53549476D01*
X179432857Y-53549476D01*
X179337619Y-53501857D01*
X179290000Y-53454238D01*
X179242380Y-53359000D01*
X179242380Y-53168523D01*
X179290000Y-53073285D01*
X179337619Y-53025666D01*
X179432857Y-52978047D01*
X179480476Y-52978047D01*
X179575714Y-53025666D01*
X179623333Y-53073285D01*
X179670952Y-53168523D01*
X179670952Y-53359000D01*
X179718571Y-53454238D01*
X179766190Y-53501857D01*
X179861428Y-53549476D01*
X180051904Y-53549476D01*
X180147142Y-53501857D01*
X180194761Y-53454238D01*
X180242380Y-53359000D01*
X180242380Y-53168523D01*
X180194761Y-53073285D01*
X180147142Y-53025666D01*
X180051904Y-52978047D01*
X179861428Y-52978047D01*
X179766190Y-53025666D01*
X179718571Y-53073285D01*
X179670952Y-53168523D01*
X179242380Y-52644714D02*
X179242380Y-51978047D01*
X180242380Y-52406619D01*
X180242380Y-51597095D02*
X179242380Y-51597095D01*
X179861428Y-51501857D02*
X180242380Y-51216142D01*
X179575714Y-51216142D02*
X179956666Y-51597095D01*
D13*
X181971904Y-52992333D02*
X181590952Y-53259000D01*
X181971904Y-53449476D02*
X181171904Y-53449476D01*
X181171904Y-53144714D01*
X181210000Y-53068523D01*
X181248095Y-53030428D01*
X181324285Y-52992333D01*
X181438571Y-52992333D01*
X181514761Y-53030428D01*
X181552857Y-53068523D01*
X181590952Y-53144714D01*
X181590952Y-53449476D01*
X181514761Y-52535190D02*
X181476666Y-52611380D01*
X181438571Y-52649476D01*
X181362380Y-52687571D01*
X181324285Y-52687571D01*
X181248095Y-52649476D01*
X181210000Y-52611380D01*
X181171904Y-52535190D01*
X181171904Y-52382809D01*
X181210000Y-52306619D01*
X181248095Y-52268523D01*
X181324285Y-52230428D01*
X181362380Y-52230428D01*
X181438571Y-52268523D01*
X181476666Y-52306619D01*
X181514761Y-52382809D01*
X181514761Y-52535190D01*
X181552857Y-52611380D01*
X181590952Y-52649476D01*
X181667142Y-52687571D01*
X181819523Y-52687571D01*
X181895714Y-52649476D01*
X181933809Y-52611380D01*
X181971904Y-52535190D01*
X181971904Y-52382809D01*
X181933809Y-52306619D01*
X181895714Y-52268523D01*
X181819523Y-52230428D01*
X181667142Y-52230428D01*
X181590952Y-52268523D01*
X181552857Y-52306619D01*
X181514761Y-52382809D01*
D11*
X179337619Y-59867666D02*
X179290000Y-59820047D01*
X179242380Y-59724809D01*
X179242380Y-59486714D01*
X179290000Y-59391476D01*
X179337619Y-59343857D01*
X179432857Y-59296238D01*
X179528095Y-59296238D01*
X179670952Y-59343857D01*
X180242380Y-59915285D01*
X180242380Y-59296238D01*
X179670952Y-58724809D02*
X179623333Y-58820047D01*
X179575714Y-58867666D01*
X179480476Y-58915285D01*
X179432857Y-58915285D01*
X179337619Y-58867666D01*
X179290000Y-58820047D01*
X179242380Y-58724809D01*
X179242380Y-58534333D01*
X179290000Y-58439095D01*
X179337619Y-58391476D01*
X179432857Y-58343857D01*
X179480476Y-58343857D01*
X179575714Y-58391476D01*
X179623333Y-58439095D01*
X179670952Y-58534333D01*
X179670952Y-58724809D01*
X179718571Y-58820047D01*
X179766190Y-58867666D01*
X179861428Y-58915285D01*
X180051904Y-58915285D01*
X180147142Y-58867666D01*
X180194761Y-58820047D01*
X180242380Y-58724809D01*
X180242380Y-58534333D01*
X180194761Y-58439095D01*
X180147142Y-58391476D01*
X180051904Y-58343857D01*
X179861428Y-58343857D01*
X179766190Y-58391476D01*
X179718571Y-58439095D01*
X179670952Y-58534333D01*
X180242380Y-57915285D02*
X179242380Y-57915285D01*
X179861428Y-57820047D02*
X180242380Y-57534333D01*
X179575714Y-57534333D02*
X179956666Y-57915285D01*
D13*
X181971904Y-58834333D02*
X181590952Y-59101000D01*
X181971904Y-59291476D02*
X181171904Y-59291476D01*
X181171904Y-58986714D01*
X181210000Y-58910523D01*
X181248095Y-58872428D01*
X181324285Y-58834333D01*
X181438571Y-58834333D01*
X181514761Y-58872428D01*
X181552857Y-58910523D01*
X181590952Y-58986714D01*
X181590952Y-59291476D01*
X181971904Y-58453380D02*
X181971904Y-58301000D01*
X181933809Y-58224809D01*
X181895714Y-58186714D01*
X181781428Y-58110523D01*
X181629047Y-58072428D01*
X181324285Y-58072428D01*
X181248095Y-58110523D01*
X181210000Y-58148619D01*
X181171904Y-58224809D01*
X181171904Y-58377190D01*
X181210000Y-58453380D01*
X181248095Y-58491476D01*
X181324285Y-58529571D01*
X181514761Y-58529571D01*
X181590952Y-58491476D01*
X181629047Y-58453380D01*
X181667142Y-58377190D01*
X181667142Y-58224809D01*
X181629047Y-58148619D01*
X181590952Y-58110523D01*
X181514761Y-58072428D01*
D11*
X210806380Y-53041428D02*
X210806380Y-53612857D01*
X210806380Y-53327142D02*
X209806380Y-53327142D01*
X209949238Y-53422380D01*
X210044476Y-53517619D01*
X210092095Y-53612857D01*
X210234952Y-52470000D02*
X210187333Y-52565238D01*
X210139714Y-52612857D01*
X210044476Y-52660476D01*
X209996857Y-52660476D01*
X209901619Y-52612857D01*
X209854000Y-52565238D01*
X209806380Y-52470000D01*
X209806380Y-52279523D01*
X209854000Y-52184285D01*
X209901619Y-52136666D01*
X209996857Y-52089047D01*
X210044476Y-52089047D01*
X210139714Y-52136666D01*
X210187333Y-52184285D01*
X210234952Y-52279523D01*
X210234952Y-52470000D01*
X210282571Y-52565238D01*
X210330190Y-52612857D01*
X210425428Y-52660476D01*
X210615904Y-52660476D01*
X210711142Y-52612857D01*
X210758761Y-52565238D01*
X210806380Y-52470000D01*
X210806380Y-52279523D01*
X210758761Y-52184285D01*
X210711142Y-52136666D01*
X210615904Y-52089047D01*
X210425428Y-52089047D01*
X210330190Y-52136666D01*
X210282571Y-52184285D01*
X210234952Y-52279523D01*
X209806380Y-51755714D02*
X209806380Y-51089047D01*
X210806380Y-51517619D01*
X210806380Y-50708095D02*
X209806380Y-50708095D01*
X210425428Y-50612857D02*
X210806380Y-50327142D01*
X210139714Y-50327142D02*
X210520666Y-50708095D01*
D13*
X208895904Y-52484285D02*
X208514952Y-52750952D01*
X208895904Y-52941428D02*
X208095904Y-52941428D01*
X208095904Y-52636666D01*
X208134000Y-52560476D01*
X208172095Y-52522380D01*
X208248285Y-52484285D01*
X208362571Y-52484285D01*
X208438761Y-52522380D01*
X208476857Y-52560476D01*
X208514952Y-52636666D01*
X208514952Y-52941428D01*
X208895904Y-51722380D02*
X208895904Y-52179523D01*
X208895904Y-51950952D02*
X208095904Y-51950952D01*
X208210190Y-52027142D01*
X208286380Y-52103333D01*
X208324476Y-52179523D01*
X208895904Y-50960476D02*
X208895904Y-51417619D01*
X208895904Y-51189047D02*
X208095904Y-51189047D01*
X208210190Y-51265238D01*
X208286380Y-51341428D01*
X208324476Y-51417619D01*
D11*
X194169380Y-57673690D02*
X194169380Y-58245119D01*
X194169380Y-57959404D02*
X193169380Y-57959404D01*
X193312238Y-58054642D01*
X193407476Y-58149880D01*
X193455095Y-58245119D01*
X194074142Y-57245119D02*
X194121761Y-57197500D01*
X194169380Y-57245119D01*
X194121761Y-57292738D01*
X194074142Y-57245119D01*
X194169380Y-57245119D01*
X193169380Y-56340357D02*
X193169380Y-56530833D01*
X193217000Y-56626071D01*
X193264619Y-56673690D01*
X193407476Y-56768928D01*
X193597952Y-56816547D01*
X193978904Y-56816547D01*
X194074142Y-56768928D01*
X194121761Y-56721309D01*
X194169380Y-56626071D01*
X194169380Y-56435595D01*
X194121761Y-56340357D01*
X194074142Y-56292738D01*
X193978904Y-56245119D01*
X193740809Y-56245119D01*
X193645571Y-56292738D01*
X193597952Y-56340357D01*
X193550333Y-56435595D01*
X193550333Y-56626071D01*
X193597952Y-56721309D01*
X193645571Y-56768928D01*
X193740809Y-56816547D01*
X193264619Y-55864166D02*
X193217000Y-55816547D01*
X193169380Y-55721309D01*
X193169380Y-55483214D01*
X193217000Y-55387976D01*
X193264619Y-55340357D01*
X193359857Y-55292738D01*
X193455095Y-55292738D01*
X193597952Y-55340357D01*
X194169380Y-55911785D01*
X194169380Y-55292738D01*
X194169380Y-54864166D02*
X193169380Y-54864166D01*
X193883666Y-54530833D01*
X193169380Y-54197500D01*
X194169380Y-54197500D01*
D13*
X192258904Y-56711785D02*
X191877952Y-56978452D01*
X192258904Y-57168928D02*
X191458904Y-57168928D01*
X191458904Y-56864166D01*
X191497000Y-56787976D01*
X191535095Y-56749880D01*
X191611285Y-56711785D01*
X191725571Y-56711785D01*
X191801761Y-56749880D01*
X191839857Y-56787976D01*
X191877952Y-56864166D01*
X191877952Y-57168928D01*
X192258904Y-55949880D02*
X192258904Y-56407023D01*
X192258904Y-56178452D02*
X191458904Y-56178452D01*
X191573190Y-56254642D01*
X191649380Y-56330833D01*
X191687476Y-56407023D01*
X191535095Y-55645119D02*
X191497000Y-55607023D01*
X191458904Y-55530833D01*
X191458904Y-55340357D01*
X191497000Y-55264166D01*
X191535095Y-55226071D01*
X191611285Y-55187976D01*
X191687476Y-55187976D01*
X191801761Y-55226071D01*
X192258904Y-55683214D01*
X192258904Y-55187976D01*
D11*
X193169380Y-52009476D02*
X193169380Y-51390428D01*
X193550333Y-51723761D01*
X193550333Y-51580904D01*
X193597952Y-51485666D01*
X193645571Y-51438047D01*
X193740809Y-51390428D01*
X193978904Y-51390428D01*
X194074142Y-51438047D01*
X194121761Y-51485666D01*
X194169380Y-51580904D01*
X194169380Y-51866619D01*
X194121761Y-51961857D01*
X194074142Y-52009476D01*
X193169380Y-51057095D02*
X193169380Y-50390428D01*
X194169380Y-50819000D01*
X193502714Y-49580904D02*
X194169380Y-49580904D01*
X193121761Y-49819000D02*
X193836047Y-50057095D01*
X193836047Y-49438047D01*
X194169380Y-49057095D02*
X193169380Y-49057095D01*
X193788428Y-48961857D02*
X194169380Y-48676142D01*
X193502714Y-48676142D02*
X193883666Y-49057095D01*
D13*
X192258904Y-50833285D02*
X191877952Y-51099952D01*
X192258904Y-51290428D02*
X191458904Y-51290428D01*
X191458904Y-50985666D01*
X191497000Y-50909476D01*
X191535095Y-50871380D01*
X191611285Y-50833285D01*
X191725571Y-50833285D01*
X191801761Y-50871380D01*
X191839857Y-50909476D01*
X191877952Y-50985666D01*
X191877952Y-51290428D01*
X192258904Y-50071380D02*
X192258904Y-50528523D01*
X192258904Y-50299952D02*
X191458904Y-50299952D01*
X191573190Y-50376142D01*
X191649380Y-50452333D01*
X191687476Y-50528523D01*
X191458904Y-49804714D02*
X191458904Y-49309476D01*
X191763666Y-49576142D01*
X191763666Y-49461857D01*
X191801761Y-49385666D01*
X191839857Y-49347571D01*
X191916047Y-49309476D01*
X192106523Y-49309476D01*
X192182714Y-49347571D01*
X192220809Y-49385666D01*
X192258904Y-49461857D01*
X192258904Y-49690428D01*
X192220809Y-49766619D01*
X192182714Y-49804714D01*
D11*
X205996380Y-53035047D02*
X205996380Y-53511238D01*
X206472571Y-53558857D01*
X206424952Y-53511238D01*
X206377333Y-53416000D01*
X206377333Y-53177904D01*
X206424952Y-53082666D01*
X206472571Y-53035047D01*
X206567809Y-52987428D01*
X206805904Y-52987428D01*
X206901142Y-53035047D01*
X206948761Y-53082666D01*
X206996380Y-53177904D01*
X206996380Y-53416000D01*
X206948761Y-53511238D01*
X206901142Y-53558857D01*
X205996380Y-52130285D02*
X205996380Y-52320761D01*
X206044000Y-52416000D01*
X206091619Y-52463619D01*
X206234476Y-52558857D01*
X206424952Y-52606476D01*
X206805904Y-52606476D01*
X206901142Y-52558857D01*
X206948761Y-52511238D01*
X206996380Y-52416000D01*
X206996380Y-52225523D01*
X206948761Y-52130285D01*
X206901142Y-52082666D01*
X206805904Y-52035047D01*
X206567809Y-52035047D01*
X206472571Y-52082666D01*
X206424952Y-52130285D01*
X206377333Y-52225523D01*
X206377333Y-52416000D01*
X206424952Y-52511238D01*
X206472571Y-52558857D01*
X206567809Y-52606476D01*
X206091619Y-51654095D02*
X206044000Y-51606476D01*
X205996380Y-51511238D01*
X205996380Y-51273142D01*
X206044000Y-51177904D01*
X206091619Y-51130285D01*
X206186857Y-51082666D01*
X206282095Y-51082666D01*
X206424952Y-51130285D01*
X206996380Y-51701714D01*
X206996380Y-51082666D01*
X206996380Y-50654095D02*
X205996380Y-50654095D01*
X206615428Y-50558857D02*
X206996380Y-50273142D01*
X206329714Y-50273142D02*
X206710666Y-50654095D01*
D13*
X205085904Y-52430285D02*
X204704952Y-52696952D01*
X205085904Y-52887428D02*
X204285904Y-52887428D01*
X204285904Y-52582666D01*
X204324000Y-52506476D01*
X204362095Y-52468380D01*
X204438285Y-52430285D01*
X204552571Y-52430285D01*
X204628761Y-52468380D01*
X204666857Y-52506476D01*
X204704952Y-52582666D01*
X204704952Y-52887428D01*
X205085904Y-51668380D02*
X205085904Y-52125523D01*
X205085904Y-51896952D02*
X204285904Y-51896952D01*
X204400190Y-51973142D01*
X204476380Y-52049333D01*
X204514476Y-52125523D01*
X204285904Y-50944571D02*
X204285904Y-51325523D01*
X204666857Y-51363619D01*
X204628761Y-51325523D01*
X204590666Y-51249333D01*
X204590666Y-51058857D01*
X204628761Y-50982666D01*
X204666857Y-50944571D01*
X204743047Y-50906476D01*
X204933523Y-50906476D01*
X205009714Y-50944571D01*
X205047809Y-50982666D01*
X205085904Y-51058857D01*
X205085904Y-51249333D01*
X205047809Y-51325523D01*
X205009714Y-51363619D01*
D11*
X185716080Y-94936628D02*
X185716080Y-95508057D01*
X185716080Y-95222342D02*
X184716080Y-95222342D01*
X184858938Y-95317580D01*
X184954176Y-95412819D01*
X185001795Y-95508057D01*
X184716080Y-94317580D02*
X184716080Y-94222342D01*
X184763700Y-94127104D01*
X184811319Y-94079485D01*
X184906557Y-94031866D01*
X185097033Y-93984247D01*
X185335128Y-93984247D01*
X185525604Y-94031866D01*
X185620842Y-94079485D01*
X185668461Y-94127104D01*
X185716080Y-94222342D01*
X185716080Y-94317580D01*
X185668461Y-94412819D01*
X185620842Y-94460438D01*
X185525604Y-94508057D01*
X185335128Y-94555676D01*
X185097033Y-94555676D01*
X184906557Y-94508057D01*
X184811319Y-94460438D01*
X184763700Y-94412819D01*
X184716080Y-94317580D01*
X184716080Y-93365200D02*
X184716080Y-93269961D01*
X184763700Y-93174723D01*
X184811319Y-93127104D01*
X184906557Y-93079485D01*
X185097033Y-93031866D01*
X185335128Y-93031866D01*
X185525604Y-93079485D01*
X185620842Y-93127104D01*
X185668461Y-93174723D01*
X185716080Y-93269961D01*
X185716080Y-93365200D01*
X185668461Y-93460438D01*
X185620842Y-93508057D01*
X185525604Y-93555676D01*
X185335128Y-93603295D01*
X185097033Y-93603295D01*
X184906557Y-93555676D01*
X184811319Y-93508057D01*
X184763700Y-93460438D01*
X184716080Y-93365200D01*
X185716080Y-92603295D02*
X184716080Y-92603295D01*
X185335128Y-92508057D02*
X185716080Y-92222342D01*
X185049414Y-92222342D02*
X185430366Y-92603295D01*
D13*
X187445604Y-94379485D02*
X187064652Y-94646152D01*
X187445604Y-94836628D02*
X186645604Y-94836628D01*
X186645604Y-94531866D01*
X186683700Y-94455676D01*
X186721795Y-94417580D01*
X186797985Y-94379485D01*
X186912271Y-94379485D01*
X186988461Y-94417580D01*
X187026557Y-94455676D01*
X187064652Y-94531866D01*
X187064652Y-94836628D01*
X187445604Y-93617580D02*
X187445604Y-94074723D01*
X187445604Y-93846152D02*
X186645604Y-93846152D01*
X186759890Y-93922342D01*
X186836080Y-93998533D01*
X186874176Y-94074723D01*
X186988461Y-93160438D02*
X186950366Y-93236628D01*
X186912271Y-93274723D01*
X186836080Y-93312819D01*
X186797985Y-93312819D01*
X186721795Y-93274723D01*
X186683700Y-93236628D01*
X186645604Y-93160438D01*
X186645604Y-93008057D01*
X186683700Y-92931866D01*
X186721795Y-92893771D01*
X186797985Y-92855676D01*
X186836080Y-92855676D01*
X186912271Y-92893771D01*
X186950366Y-92931866D01*
X186988461Y-93008057D01*
X186988461Y-93160438D01*
X187026557Y-93236628D01*
X187064652Y-93274723D01*
X187140842Y-93312819D01*
X187293223Y-93312819D01*
X187369414Y-93274723D01*
X187407509Y-93236628D01*
X187445604Y-93160438D01*
X187445604Y-93008057D01*
X187407509Y-92931866D01*
X187369414Y-92893771D01*
X187293223Y-92855676D01*
X187140842Y-92855676D01*
X187064652Y-92893771D01*
X187026557Y-92931866D01*
X186988461Y-93008057D01*
D11*
X202356380Y-64582476D02*
X202356380Y-63963428D01*
X202737333Y-64296761D01*
X202737333Y-64153904D01*
X202784952Y-64058666D01*
X202832571Y-64011047D01*
X202927809Y-63963428D01*
X203165904Y-63963428D01*
X203261142Y-64011047D01*
X203308761Y-64058666D01*
X203356380Y-64153904D01*
X203356380Y-64439619D01*
X203308761Y-64534857D01*
X203261142Y-64582476D01*
X202356380Y-63630095D02*
X202356380Y-63011047D01*
X202737333Y-63344380D01*
X202737333Y-63201523D01*
X202784952Y-63106285D01*
X202832571Y-63058666D01*
X202927809Y-63011047D01*
X203165904Y-63011047D01*
X203261142Y-63058666D01*
X203308761Y-63106285D01*
X203356380Y-63201523D01*
X203356380Y-63487238D01*
X203308761Y-63582476D01*
X203261142Y-63630095D01*
X202451619Y-62630095D02*
X202404000Y-62582476D01*
X202356380Y-62487238D01*
X202356380Y-62249142D01*
X202404000Y-62153904D01*
X202451619Y-62106285D01*
X202546857Y-62058666D01*
X202642095Y-62058666D01*
X202784952Y-62106285D01*
X203356380Y-62677714D01*
X203356380Y-62058666D01*
X203356380Y-61630095D02*
X202356380Y-61630095D01*
X202975428Y-61534857D02*
X203356380Y-61249142D01*
X202689714Y-61249142D02*
X203070666Y-61630095D01*
D13*
X205085904Y-63406285D02*
X204704952Y-63672952D01*
X205085904Y-63863428D02*
X204285904Y-63863428D01*
X204285904Y-63558666D01*
X204324000Y-63482476D01*
X204362095Y-63444380D01*
X204438285Y-63406285D01*
X204552571Y-63406285D01*
X204628761Y-63444380D01*
X204666857Y-63482476D01*
X204704952Y-63558666D01*
X204704952Y-63863428D01*
X205085904Y-62644380D02*
X205085904Y-63101523D01*
X205085904Y-62872952D02*
X204285904Y-62872952D01*
X204400190Y-62949142D01*
X204476380Y-63025333D01*
X204514476Y-63101523D01*
X205085904Y-62263428D02*
X205085904Y-62111047D01*
X205047809Y-62034857D01*
X205009714Y-61996761D01*
X204895428Y-61920571D01*
X204743047Y-61882476D01*
X204438285Y-61882476D01*
X204362095Y-61920571D01*
X204324000Y-61958666D01*
X204285904Y-62034857D01*
X204285904Y-62187238D01*
X204324000Y-62263428D01*
X204362095Y-62301523D01*
X204438285Y-62339619D01*
X204628761Y-62339619D01*
X204704952Y-62301523D01*
X204743047Y-62263428D01*
X204781142Y-62187238D01*
X204781142Y-62034857D01*
X204743047Y-61958666D01*
X204704952Y-61920571D01*
X204628761Y-61882476D01*
D11*
X190272319Y-95746152D02*
X190224700Y-95698533D01*
X190177080Y-95603295D01*
X190177080Y-95365200D01*
X190224700Y-95269961D01*
X190272319Y-95222342D01*
X190367557Y-95174723D01*
X190462795Y-95174723D01*
X190605652Y-95222342D01*
X191177080Y-95793771D01*
X191177080Y-95174723D01*
X191177080Y-94698533D02*
X191177080Y-94508057D01*
X191129461Y-94412819D01*
X191081842Y-94365200D01*
X190938985Y-94269961D01*
X190748509Y-94222342D01*
X190367557Y-94222342D01*
X190272319Y-94269961D01*
X190224700Y-94317580D01*
X190177080Y-94412819D01*
X190177080Y-94603295D01*
X190224700Y-94698533D01*
X190272319Y-94746152D01*
X190367557Y-94793771D01*
X190605652Y-94793771D01*
X190700890Y-94746152D01*
X190748509Y-94698533D01*
X190796128Y-94603295D01*
X190796128Y-94412819D01*
X190748509Y-94317580D01*
X190700890Y-94269961D01*
X190605652Y-94222342D01*
X191081842Y-93793771D02*
X191129461Y-93746152D01*
X191177080Y-93793771D01*
X191129461Y-93841390D01*
X191081842Y-93793771D01*
X191177080Y-93793771D01*
X190510414Y-92889009D02*
X191177080Y-92889009D01*
X190129461Y-93127104D02*
X190843747Y-93365200D01*
X190843747Y-92746152D01*
X191177080Y-92365200D02*
X190177080Y-92365200D01*
X190796128Y-92269961D02*
X191177080Y-91984247D01*
X190510414Y-91984247D02*
X190891366Y-92365200D01*
D13*
X192906604Y-94379485D02*
X192525652Y-94646152D01*
X192906604Y-94836628D02*
X192106604Y-94836628D01*
X192106604Y-94531866D01*
X192144700Y-94455676D01*
X192182795Y-94417580D01*
X192258985Y-94379485D01*
X192373271Y-94379485D01*
X192449461Y-94417580D01*
X192487557Y-94455676D01*
X192525652Y-94531866D01*
X192525652Y-94836628D01*
X192182795Y-94074723D02*
X192144700Y-94036628D01*
X192106604Y-93960438D01*
X192106604Y-93769961D01*
X192144700Y-93693771D01*
X192182795Y-93655676D01*
X192258985Y-93617580D01*
X192335176Y-93617580D01*
X192449461Y-93655676D01*
X192906604Y-94112819D01*
X192906604Y-93617580D01*
X192106604Y-93122342D02*
X192106604Y-93046152D01*
X192144700Y-92969961D01*
X192182795Y-92931866D01*
X192258985Y-92893771D01*
X192411366Y-92855676D01*
X192601842Y-92855676D01*
X192754223Y-92893771D01*
X192830414Y-92931866D01*
X192868509Y-92969961D01*
X192906604Y-93046152D01*
X192906604Y-93122342D01*
X192868509Y-93198533D01*
X192830414Y-93236628D01*
X192754223Y-93274723D01*
X192601842Y-93312819D01*
X192411366Y-93312819D01*
X192258985Y-93274723D01*
X192182795Y-93236628D01*
X192144700Y-93198533D01*
X192106604Y-93122342D01*
D11*
X195130080Y-95222342D02*
X195130080Y-95698533D01*
X195606271Y-95746152D01*
X195558652Y-95698533D01*
X195511033Y-95603295D01*
X195511033Y-95365200D01*
X195558652Y-95269961D01*
X195606271Y-95222342D01*
X195701509Y-95174723D01*
X195939604Y-95174723D01*
X196034842Y-95222342D01*
X196082461Y-95269961D01*
X196130080Y-95365200D01*
X196130080Y-95603295D01*
X196082461Y-95698533D01*
X196034842Y-95746152D01*
X196130080Y-94698533D02*
X196130080Y-94508057D01*
X196082461Y-94412819D01*
X196034842Y-94365200D01*
X195891985Y-94269961D01*
X195701509Y-94222342D01*
X195320557Y-94222342D01*
X195225319Y-94269961D01*
X195177700Y-94317580D01*
X195130080Y-94412819D01*
X195130080Y-94603295D01*
X195177700Y-94698533D01*
X195225319Y-94746152D01*
X195320557Y-94793771D01*
X195558652Y-94793771D01*
X195653890Y-94746152D01*
X195701509Y-94698533D01*
X195749128Y-94603295D01*
X195749128Y-94412819D01*
X195701509Y-94317580D01*
X195653890Y-94269961D01*
X195558652Y-94222342D01*
X196034842Y-93793771D02*
X196082461Y-93746152D01*
X196130080Y-93793771D01*
X196082461Y-93841390D01*
X196034842Y-93793771D01*
X196130080Y-93793771D01*
X195130080Y-93127104D02*
X195130080Y-93031866D01*
X195177700Y-92936628D01*
X195225319Y-92889009D01*
X195320557Y-92841390D01*
X195511033Y-92793771D01*
X195749128Y-92793771D01*
X195939604Y-92841390D01*
X196034842Y-92889009D01*
X196082461Y-92936628D01*
X196130080Y-93031866D01*
X196130080Y-93127104D01*
X196082461Y-93222342D01*
X196034842Y-93269961D01*
X195939604Y-93317580D01*
X195749128Y-93365200D01*
X195511033Y-93365200D01*
X195320557Y-93317580D01*
X195225319Y-93269961D01*
X195177700Y-93222342D01*
X195130080Y-93127104D01*
X196130080Y-92365200D02*
X195130080Y-92365200D01*
X195749128Y-92269961D02*
X196130080Y-91984247D01*
X195463414Y-91984247D02*
X195844366Y-92365200D01*
D13*
X197859604Y-94379485D02*
X197478652Y-94646152D01*
X197859604Y-94836628D02*
X197059604Y-94836628D01*
X197059604Y-94531866D01*
X197097700Y-94455676D01*
X197135795Y-94417580D01*
X197211985Y-94379485D01*
X197326271Y-94379485D01*
X197402461Y-94417580D01*
X197440557Y-94455676D01*
X197478652Y-94531866D01*
X197478652Y-94836628D01*
X197135795Y-94074723D02*
X197097700Y-94036628D01*
X197059604Y-93960438D01*
X197059604Y-93769961D01*
X197097700Y-93693771D01*
X197135795Y-93655676D01*
X197211985Y-93617580D01*
X197288176Y-93617580D01*
X197402461Y-93655676D01*
X197859604Y-94112819D01*
X197859604Y-93617580D01*
X197859604Y-92855676D02*
X197859604Y-93312819D01*
X197859604Y-93084247D02*
X197059604Y-93084247D01*
X197173890Y-93160438D01*
X197250080Y-93236628D01*
X197288176Y-93312819D01*
D11*
X186354380Y-60772476D02*
X186354380Y-60153428D01*
X186735333Y-60486761D01*
X186735333Y-60343904D01*
X186782952Y-60248666D01*
X186830571Y-60201047D01*
X186925809Y-60153428D01*
X187163904Y-60153428D01*
X187259142Y-60201047D01*
X187306761Y-60248666D01*
X187354380Y-60343904D01*
X187354380Y-60629619D01*
X187306761Y-60724857D01*
X187259142Y-60772476D01*
X186354380Y-59820095D02*
X186354380Y-59201047D01*
X186735333Y-59534380D01*
X186735333Y-59391523D01*
X186782952Y-59296285D01*
X186830571Y-59248666D01*
X186925809Y-59201047D01*
X187163904Y-59201047D01*
X187259142Y-59248666D01*
X187306761Y-59296285D01*
X187354380Y-59391523D01*
X187354380Y-59677238D01*
X187306761Y-59772476D01*
X187259142Y-59820095D01*
X186449619Y-58820095D02*
X186402000Y-58772476D01*
X186354380Y-58677238D01*
X186354380Y-58439142D01*
X186402000Y-58343904D01*
X186449619Y-58296285D01*
X186544857Y-58248666D01*
X186640095Y-58248666D01*
X186782952Y-58296285D01*
X187354380Y-58867714D01*
X187354380Y-58248666D01*
X187354380Y-57820095D02*
X186354380Y-57820095D01*
X186973428Y-57724857D02*
X187354380Y-57439142D01*
X186687714Y-57439142D02*
X187068666Y-57820095D01*
D13*
X189083904Y-59596285D02*
X188702952Y-59862952D01*
X189083904Y-60053428D02*
X188283904Y-60053428D01*
X188283904Y-59748666D01*
X188322000Y-59672476D01*
X188360095Y-59634380D01*
X188436285Y-59596285D01*
X188550571Y-59596285D01*
X188626761Y-59634380D01*
X188664857Y-59672476D01*
X188702952Y-59748666D01*
X188702952Y-60053428D01*
X188360095Y-59291523D02*
X188322000Y-59253428D01*
X188283904Y-59177238D01*
X188283904Y-58986761D01*
X188322000Y-58910571D01*
X188360095Y-58872476D01*
X188436285Y-58834380D01*
X188512476Y-58834380D01*
X188626761Y-58872476D01*
X189083904Y-59329619D01*
X189083904Y-58834380D01*
X188360095Y-58529619D02*
X188322000Y-58491523D01*
X188283904Y-58415333D01*
X188283904Y-58224857D01*
X188322000Y-58148666D01*
X188360095Y-58110571D01*
X188436285Y-58072476D01*
X188512476Y-58072476D01*
X188626761Y-58110571D01*
X189083904Y-58567714D01*
X189083904Y-58072476D01*
D11*
X201222780Y-94936628D02*
X201222780Y-95508057D01*
X201222780Y-95222342D02*
X200222780Y-95222342D01*
X200365638Y-95317580D01*
X200460876Y-95412819D01*
X200508495Y-95508057D01*
X200222780Y-94317580D02*
X200222780Y-94222342D01*
X200270400Y-94127104D01*
X200318019Y-94079485D01*
X200413257Y-94031866D01*
X200603733Y-93984247D01*
X200841828Y-93984247D01*
X201032304Y-94031866D01*
X201127542Y-94079485D01*
X201175161Y-94127104D01*
X201222780Y-94222342D01*
X201222780Y-94317580D01*
X201175161Y-94412819D01*
X201127542Y-94460438D01*
X201032304Y-94508057D01*
X200841828Y-94555676D01*
X200603733Y-94555676D01*
X200413257Y-94508057D01*
X200318019Y-94460438D01*
X200270400Y-94412819D01*
X200222780Y-94317580D01*
X200222780Y-93365200D02*
X200222780Y-93269961D01*
X200270400Y-93174723D01*
X200318019Y-93127104D01*
X200413257Y-93079485D01*
X200603733Y-93031866D01*
X200841828Y-93031866D01*
X201032304Y-93079485D01*
X201127542Y-93127104D01*
X201175161Y-93174723D01*
X201222780Y-93269961D01*
X201222780Y-93365200D01*
X201175161Y-93460438D01*
X201127542Y-93508057D01*
X201032304Y-93555676D01*
X200841828Y-93603295D01*
X200603733Y-93603295D01*
X200413257Y-93555676D01*
X200318019Y-93508057D01*
X200270400Y-93460438D01*
X200222780Y-93365200D01*
X201222780Y-92603295D02*
X200222780Y-92603295D01*
X200841828Y-92508057D02*
X201222780Y-92222342D01*
X200556114Y-92222342D02*
X200937066Y-92603295D01*
D13*
X202952304Y-94379485D02*
X202571352Y-94646152D01*
X202952304Y-94836628D02*
X202152304Y-94836628D01*
X202152304Y-94531866D01*
X202190400Y-94455676D01*
X202228495Y-94417580D01*
X202304685Y-94379485D01*
X202418971Y-94379485D01*
X202495161Y-94417580D01*
X202533257Y-94455676D01*
X202571352Y-94531866D01*
X202571352Y-94836628D01*
X202228495Y-94074723D02*
X202190400Y-94036628D01*
X202152304Y-93960438D01*
X202152304Y-93769961D01*
X202190400Y-93693771D01*
X202228495Y-93655676D01*
X202304685Y-93617580D01*
X202380876Y-93617580D01*
X202495161Y-93655676D01*
X202952304Y-94112819D01*
X202952304Y-93617580D01*
X202152304Y-93350914D02*
X202152304Y-92855676D01*
X202457066Y-93122342D01*
X202457066Y-93008057D01*
X202495161Y-92931866D01*
X202533257Y-92893771D01*
X202609447Y-92855676D01*
X202799923Y-92855676D01*
X202876114Y-92893771D01*
X202914209Y-92931866D01*
X202952304Y-93008057D01*
X202952304Y-93236628D01*
X202914209Y-93312819D01*
X202876114Y-93350914D01*
D11*
X107442142Y-95422380D02*
X108013571Y-95422380D01*
X107727857Y-96422380D02*
X107727857Y-95422380D01*
X108346904Y-96422380D02*
X108346904Y-95422380D01*
X108585000Y-95422380D01*
X108727857Y-95470000D01*
X108823095Y-95565238D01*
X108870714Y-95660476D01*
X108918333Y-95850952D01*
X108918333Y-95993809D01*
X108870714Y-96184285D01*
X108823095Y-96279523D01*
X108727857Y-96374761D01*
X108585000Y-96422380D01*
X108346904Y-96422380D01*
X109346904Y-96422380D02*
X109346904Y-95422380D01*
X109918333Y-96422380D02*
X109489761Y-95850952D01*
X109918333Y-95422380D02*
X109346904Y-95993809D01*
X110870714Y-96422380D02*
X110299285Y-96422380D01*
X110585000Y-96422380D02*
X110585000Y-95422380D01*
X110489761Y-95565238D01*
X110394523Y-95660476D01*
X110299285Y-95708095D01*
X111489761Y-95422380D02*
X111585000Y-95422380D01*
X111680238Y-95470000D01*
X111727857Y-95517619D01*
X111775476Y-95612857D01*
X111823095Y-95803333D01*
X111823095Y-96041428D01*
X111775476Y-96231904D01*
X111727857Y-96327142D01*
X111680238Y-96374761D01*
X111585000Y-96422380D01*
X111489761Y-96422380D01*
X111394523Y-96374761D01*
X111346904Y-96327142D01*
X111299285Y-96231904D01*
X111251666Y-96041428D01*
X111251666Y-95803333D01*
X111299285Y-95612857D01*
X111346904Y-95517619D01*
X111394523Y-95470000D01*
X111489761Y-95422380D01*
X112251666Y-96422380D02*
X112251666Y-95422380D01*
X112346904Y-96041428D02*
X112632619Y-96422380D01*
X112632619Y-95755714D02*
X112251666Y-96136666D01*
X175844509Y-106999580D02*
X175368319Y-106999580D01*
X175368319Y-105999580D01*
X176034985Y-105999580D02*
X176606414Y-105999580D01*
X176320700Y-106999580D02*
X176320700Y-105999580D01*
X177511176Y-106904342D02*
X177463557Y-106951961D01*
X177320700Y-106999580D01*
X177225461Y-106999580D01*
X177082604Y-106951961D01*
X176987366Y-106856723D01*
X176939747Y-106761485D01*
X176892128Y-106571009D01*
X176892128Y-106428152D01*
X176939747Y-106237676D01*
X176987366Y-106142438D01*
X177082604Y-106047200D01*
X177225461Y-105999580D01*
X177320700Y-105999580D01*
X177463557Y-106047200D01*
X177511176Y-106094819D01*
X177892128Y-106094819D02*
X177939747Y-106047200D01*
X178034985Y-105999580D01*
X178273080Y-105999580D01*
X178368319Y-106047200D01*
X178415938Y-106094819D01*
X178463557Y-106190057D01*
X178463557Y-106285295D01*
X178415938Y-106428152D01*
X177844509Y-106999580D01*
X178463557Y-106999580D01*
X178939747Y-106999580D02*
X179130223Y-106999580D01*
X179225461Y-106951961D01*
X179273080Y-106904342D01*
X179368319Y-106761485D01*
X179415938Y-106571009D01*
X179415938Y-106190057D01*
X179368319Y-106094819D01*
X179320700Y-106047200D01*
X179225461Y-105999580D01*
X179034985Y-105999580D01*
X178939747Y-106047200D01*
X178892128Y-106094819D01*
X178844509Y-106190057D01*
X178844509Y-106428152D01*
X178892128Y-106523390D01*
X178939747Y-106571009D01*
X179034985Y-106618628D01*
X179225461Y-106618628D01*
X179320700Y-106571009D01*
X179368319Y-106523390D01*
X179415938Y-106428152D01*
X180273080Y-106332914D02*
X180273080Y-106999580D01*
X180034985Y-105951961D02*
X179796890Y-106666247D01*
X180415938Y-106666247D01*
X180749271Y-106094819D02*
X180796890Y-106047200D01*
X180892128Y-105999580D01*
X181130223Y-105999580D01*
X181225461Y-106047200D01*
X181273080Y-106094819D01*
X181320700Y-106190057D01*
X181320700Y-106285295D01*
X181273080Y-106428152D01*
X180701652Y-106999580D01*
X181320700Y-106999580D01*
D16*
X177749271Y-104186485D02*
X177749271Y-104793628D01*
X177784985Y-104865057D01*
X177820700Y-104900771D01*
X177892128Y-104936485D01*
X178034985Y-104936485D01*
X178106414Y-104900771D01*
X178142128Y-104865057D01*
X178177842Y-104793628D01*
X178177842Y-104186485D01*
X178499271Y-104257914D02*
X178534985Y-104222200D01*
X178606414Y-104186485D01*
X178784985Y-104186485D01*
X178856414Y-104222200D01*
X178892128Y-104257914D01*
X178927842Y-104329342D01*
X178927842Y-104400771D01*
X178892128Y-104507914D01*
X178463557Y-104936485D01*
X178927842Y-104936485D01*
D11*
X173709223Y-59237080D02*
X173233033Y-59237080D01*
X173233033Y-58237080D01*
X174042557Y-59237080D02*
X174042557Y-58237080D01*
X174375890Y-58951366D01*
X174709223Y-58237080D01*
X174709223Y-59237080D01*
X175090176Y-58237080D02*
X175709223Y-58237080D01*
X175375890Y-58618033D01*
X175518747Y-58618033D01*
X175613985Y-58665652D01*
X175661604Y-58713271D01*
X175709223Y-58808509D01*
X175709223Y-59046604D01*
X175661604Y-59141842D01*
X175613985Y-59189461D01*
X175518747Y-59237080D01*
X175233033Y-59237080D01*
X175137795Y-59189461D01*
X175090176Y-59141842D01*
X176185414Y-59237080D02*
X176375890Y-59237080D01*
X176471128Y-59189461D01*
X176518747Y-59141842D01*
X176613985Y-58998985D01*
X176661604Y-58808509D01*
X176661604Y-58427557D01*
X176613985Y-58332319D01*
X176566366Y-58284700D01*
X176471128Y-58237080D01*
X176280652Y-58237080D01*
X176185414Y-58284700D01*
X176137795Y-58332319D01*
X176090176Y-58427557D01*
X176090176Y-58665652D01*
X176137795Y-58760890D01*
X176185414Y-58808509D01*
X176280652Y-58856128D01*
X176471128Y-58856128D01*
X176566366Y-58808509D01*
X176613985Y-58760890D01*
X176661604Y-58665652D01*
X176994938Y-58237080D02*
X177613985Y-58237080D01*
X177280652Y-58618033D01*
X177423509Y-58618033D01*
X177518747Y-58665652D01*
X177566366Y-58713271D01*
X177613985Y-58808509D01*
X177613985Y-59046604D01*
X177566366Y-59141842D01*
X177518747Y-59189461D01*
X177423509Y-59237080D01*
X177137795Y-59237080D01*
X177042557Y-59189461D01*
X176994938Y-59141842D01*
X174653033Y-54848033D02*
X174653033Y-55641366D01*
X174699700Y-55734700D01*
X174746366Y-55781366D01*
X174839700Y-55828033D01*
X175026366Y-55828033D01*
X175119700Y-55781366D01*
X175166366Y-55734700D01*
X175213033Y-55641366D01*
X175213033Y-54848033D01*
X175586366Y-54848033D02*
X176193033Y-54848033D01*
X175866366Y-55221366D01*
X176006366Y-55221366D01*
X176099700Y-55268033D01*
X176146366Y-55314700D01*
X176193033Y-55408033D01*
X176193033Y-55641366D01*
X176146366Y-55734700D01*
X176099700Y-55781366D01*
X176006366Y-55828033D01*
X175726366Y-55828033D01*
X175633033Y-55781366D01*
X175586366Y-55734700D01*
X186565793Y-87194900D02*
X187137221Y-87194900D01*
X186851507Y-88194900D02*
X186851507Y-87194900D01*
X187470555Y-88194900D02*
X187470555Y-87194900D01*
X187851507Y-87194900D01*
X187946745Y-87242520D01*
X187994364Y-87290139D01*
X188041983Y-87385377D01*
X188041983Y-87528234D01*
X187994364Y-87623472D01*
X187946745Y-87671091D01*
X187851507Y-87718710D01*
X187470555Y-87718710D01*
X188422936Y-88147281D02*
X188565793Y-88194900D01*
X188803888Y-88194900D01*
X188899126Y-88147281D01*
X188946745Y-88099662D01*
X188994364Y-88004424D01*
X188994364Y-87909186D01*
X188946745Y-87813948D01*
X188899126Y-87766329D01*
X188803888Y-87718710D01*
X188613412Y-87671091D01*
X188518174Y-87623472D01*
X188470555Y-87575853D01*
X188422936Y-87480615D01*
X188422936Y-87385377D01*
X188470555Y-87290139D01*
X188518174Y-87242520D01*
X188613412Y-87194900D01*
X188851507Y-87194900D01*
X188994364Y-87242520D01*
X189375317Y-87290139D02*
X189422936Y-87242520D01*
X189518174Y-87194900D01*
X189756269Y-87194900D01*
X189851507Y-87242520D01*
X189899126Y-87290139D01*
X189946745Y-87385377D01*
X189946745Y-87480615D01*
X189899126Y-87623472D01*
X189327698Y-88194900D01*
X189946745Y-88194900D01*
X190851507Y-87194900D02*
X190375317Y-87194900D01*
X190327698Y-87671091D01*
X190375317Y-87623472D01*
X190470555Y-87575853D01*
X190708650Y-87575853D01*
X190803888Y-87623472D01*
X190851507Y-87671091D01*
X190899126Y-87766329D01*
X190899126Y-88004424D01*
X190851507Y-88099662D01*
X190803888Y-88147281D01*
X190708650Y-88194900D01*
X190470555Y-88194900D01*
X190375317Y-88147281D01*
X190327698Y-88099662D01*
X191803888Y-87194900D02*
X191327698Y-87194900D01*
X191280079Y-87671091D01*
X191327698Y-87623472D01*
X191422936Y-87575853D01*
X191661031Y-87575853D01*
X191756269Y-87623472D01*
X191803888Y-87671091D01*
X191851507Y-87766329D01*
X191851507Y-88004424D01*
X191803888Y-88099662D01*
X191756269Y-88147281D01*
X191661031Y-88194900D01*
X191422936Y-88194900D01*
X191327698Y-88147281D01*
X191280079Y-88099662D01*
X192184840Y-87194900D02*
X192851507Y-87194900D01*
X192422936Y-88194900D01*
X196708923Y-52462480D02*
X196232733Y-52462480D01*
X196232733Y-51462480D01*
X197042257Y-52462480D02*
X197042257Y-51462480D01*
X197375590Y-52176766D01*
X197708923Y-51462480D01*
X197708923Y-52462480D01*
X198089876Y-51462480D02*
X198708923Y-51462480D01*
X198375590Y-51843433D01*
X198518447Y-51843433D01*
X198613685Y-51891052D01*
X198661304Y-51938671D01*
X198708923Y-52033909D01*
X198708923Y-52272004D01*
X198661304Y-52367242D01*
X198613685Y-52414861D01*
X198518447Y-52462480D01*
X198232733Y-52462480D01*
X198137495Y-52414861D01*
X198089876Y-52367242D01*
X199185114Y-52462480D02*
X199375590Y-52462480D01*
X199470828Y-52414861D01*
X199518447Y-52367242D01*
X199613685Y-52224385D01*
X199661304Y-52033909D01*
X199661304Y-51652957D01*
X199613685Y-51557719D01*
X199566066Y-51510100D01*
X199470828Y-51462480D01*
X199280352Y-51462480D01*
X199185114Y-51510100D01*
X199137495Y-51557719D01*
X199089876Y-51652957D01*
X199089876Y-51891052D01*
X199137495Y-51986290D01*
X199185114Y-52033909D01*
X199280352Y-52081528D01*
X199470828Y-52081528D01*
X199566066Y-52033909D01*
X199613685Y-51986290D01*
X199661304Y-51891052D01*
X199994638Y-51462480D02*
X200613685Y-51462480D01*
X200280352Y-51843433D01*
X200423209Y-51843433D01*
X200518447Y-51891052D01*
X200566066Y-51938671D01*
X200613685Y-52033909D01*
X200613685Y-52272004D01*
X200566066Y-52367242D01*
X200518447Y-52414861D01*
X200423209Y-52462480D01*
X200137495Y-52462480D01*
X200042257Y-52414861D01*
X199994638Y-52367242D01*
X197652733Y-54873433D02*
X197652733Y-55666766D01*
X197699400Y-55760100D01*
X197746066Y-55806766D01*
X197839400Y-55853433D01*
X198026066Y-55853433D01*
X198119400Y-55806766D01*
X198166066Y-55760100D01*
X198212733Y-55666766D01*
X198212733Y-54873433D01*
X199146066Y-54873433D02*
X198679400Y-54873433D01*
X198632733Y-55340100D01*
X198679400Y-55293433D01*
X198772733Y-55246766D01*
X199006066Y-55246766D01*
X199099400Y-55293433D01*
X199146066Y-55340100D01*
X199192733Y-55433433D01*
X199192733Y-55666766D01*
X199146066Y-55760100D01*
X199099400Y-55806766D01*
X199006066Y-55853433D01*
X198772733Y-55853433D01*
X198679400Y-55806766D01*
X198632733Y-55760100D01*
X195072773Y-90056360D02*
X195644201Y-90056360D01*
X195358487Y-91056360D02*
X195358487Y-90056360D01*
X195977535Y-91056360D02*
X195977535Y-90056360D01*
X196358487Y-90056360D01*
X196453725Y-90103980D01*
X196501344Y-90151599D01*
X196548963Y-90246837D01*
X196548963Y-90389694D01*
X196501344Y-90484932D01*
X196453725Y-90532551D01*
X196358487Y-90580170D01*
X195977535Y-90580170D01*
X196929916Y-91008741D02*
X197072773Y-91056360D01*
X197310868Y-91056360D01*
X197406106Y-91008741D01*
X197453725Y-90961122D01*
X197501344Y-90865884D01*
X197501344Y-90770646D01*
X197453725Y-90675408D01*
X197406106Y-90627789D01*
X197310868Y-90580170D01*
X197120392Y-90532551D01*
X197025154Y-90484932D01*
X196977535Y-90437313D01*
X196929916Y-90342075D01*
X196929916Y-90246837D01*
X196977535Y-90151599D01*
X197025154Y-90103980D01*
X197120392Y-90056360D01*
X197358487Y-90056360D01*
X197501344Y-90103980D01*
X197882297Y-90151599D02*
X197929916Y-90103980D01*
X198025154Y-90056360D01*
X198263249Y-90056360D01*
X198358487Y-90103980D01*
X198406106Y-90151599D01*
X198453725Y-90246837D01*
X198453725Y-90342075D01*
X198406106Y-90484932D01*
X197834678Y-91056360D01*
X198453725Y-91056360D01*
X199358487Y-90056360D02*
X198882297Y-90056360D01*
X198834678Y-90532551D01*
X198882297Y-90484932D01*
X198977535Y-90437313D01*
X199215630Y-90437313D01*
X199310868Y-90484932D01*
X199358487Y-90532551D01*
X199406106Y-90627789D01*
X199406106Y-90865884D01*
X199358487Y-90961122D01*
X199310868Y-91008741D01*
X199215630Y-91056360D01*
X198977535Y-91056360D01*
X198882297Y-91008741D01*
X198834678Y-90961122D01*
X200310868Y-90056360D02*
X199834678Y-90056360D01*
X199787059Y-90532551D01*
X199834678Y-90484932D01*
X199929916Y-90437313D01*
X200168011Y-90437313D01*
X200263249Y-90484932D01*
X200310868Y-90532551D01*
X200358487Y-90627789D01*
X200358487Y-90865884D01*
X200310868Y-90961122D01*
X200263249Y-91008741D01*
X200168011Y-91056360D01*
X199929916Y-91056360D01*
X199834678Y-91008741D01*
X199787059Y-90961122D01*
X200691820Y-90056360D02*
X201358487Y-90056360D01*
X200929916Y-91056360D01*
M02*
