M48
; DRILL file {KiCad (5.1.0)-1} date 12/16/2019 3:31:54 AM
; FORMAT={-:-/ absolute / inch / decimal}
; #@! TF.CreationDate,2019-12-16T03:31:54-04:00
; #@! TF.GenerationSoftware,Kicad,Pcbnew,(5.1.0)-1
; #@! TF.FileFunction,Plated,1,2,PTH
FMAT,2
INCH
T1C0.0157
T2C0.0315
T3C0.0394
%
G90
G05
T1
X2.7265Y-5.0975
X4.46Y-4.06
X4.62Y-3.98
X4.69Y-3.8025
X4.725Y-3.9175
X4.79Y-4.03
X4.7981Y-3.7144
X4.8805Y-5.778
X4.9414Y-4.1861
X4.945Y-4.3175
X4.9519Y-5.6966
X4.995Y-3.9625
X5.01Y-4.43
X5.0363Y-4.1225
X5.07Y-3.8125
X5.14Y-3.8625
X5.14Y-3.99
X5.3455Y-5.238
X5.356Y-5.3535
X5.402Y-3.622
X5.4415Y-5.1783
X5.4415Y-5.221
X5.5355Y-5.158
X5.5705Y-5.3643
X5.631Y-3.8165
X5.6364Y-3.8811
X5.723Y-5.1005
X5.7655Y-5.3555
X5.78Y-3.7525
X5.7841Y-5.2259
X5.813Y-5.1155
X5.8805Y-5.248
X5.9111Y-5.1061
X5.955Y-3.9425
X5.9659Y-3.8916
X5.966Y-5.3565
X5.9675Y-3.6975
X5.9676Y-3.8199
X6.0035Y-4.3325
X6.3935Y-4.2325
T2
X4.833Y-5.918
X4.9118Y-5.918
X4.9905Y-5.918
X5.0692Y-5.918
X5.148Y-5.918
X5.2267Y-5.918
X5.398Y-4.768
X5.185Y-4.1325
X5.185Y-4.2112
X5.185Y-4.29
X5.185Y-4.3687
X5.185Y-4.4475
X2.7555Y-4.0125
X4.77Y-3.6125
X4.8487Y-3.6125
X4.9275Y-3.6125
X5.0062Y-3.6125
X5.6755Y-4.833
X5.6065Y-4.0955
X5.6853Y-4.0955
X5.764Y-4.0955
X5.8428Y-4.0955
X5.9215Y-4.0955
X6.2745Y-4.4205
X6.2365Y-5.2822
X3.3715Y-4.4875
X3.3715Y-4.5663
X3.3715Y-4.645
X3.3715Y-4.7238
X3.3715Y-4.8025
X3.3715Y-4.8812
T3
X5.0675Y-5.295
X5.0675Y-5.395
X2.7832Y-4.9147
X2.8832Y-4.9147
X2.9832Y-4.9147
X2.7815Y-4.3104
X2.8815Y-4.3104
X2.9815Y-4.3104
X4.6355Y-5.2405
X4.6355Y-5.3405
T0
M30
