G04 #@! TF.GenerationSoftware,KiCad,Pcbnew,(5.1.0)-1*
G04 #@! TF.CreationDate,2020-01-06T22:35:46-04:00*
G04 #@! TF.ProjectId,Main,4d61696e-2e6b-4696-9361-645f70636258,rev?*
G04 #@! TF.SameCoordinates,Original*
G04 #@! TF.FileFunction,Legend,Top*
G04 #@! TF.FilePolarity,Positive*
%FSLAX46Y46*%
G04 Gerber Fmt 4.6, Leading zero omitted, Abs format (unit mm)*
G04 Created by KiCad (PCBNEW (5.1.0)-1) date 2020-01-06 22:35:46*
%MOMM*%
%LPD*%
G04 APERTURE LIST*
%ADD10C,0.150000*%
%ADD11C,0.125000*%
%ADD12C,0.120000*%
G04 APERTURE END LIST*
D10*
X166743333Y-86955761D02*
X166886190Y-87003380D01*
X167124285Y-87003380D01*
X167219523Y-86955761D01*
X167267142Y-86908142D01*
X167314761Y-86812904D01*
X167314761Y-86717666D01*
X167267142Y-86622428D01*
X167219523Y-86574809D01*
X167124285Y-86527190D01*
X166933809Y-86479571D01*
X166838571Y-86431952D01*
X166790952Y-86384333D01*
X166743333Y-86289095D01*
X166743333Y-86193857D01*
X166790952Y-86098619D01*
X166838571Y-86051000D01*
X166933809Y-86003380D01*
X167171904Y-86003380D01*
X167314761Y-86051000D01*
X167743333Y-87003380D02*
X167743333Y-86003380D01*
X168171904Y-87003380D02*
X168171904Y-86479571D01*
X168124285Y-86384333D01*
X168029047Y-86336714D01*
X167886190Y-86336714D01*
X167790952Y-86384333D01*
X167743333Y-86431952D01*
X168790952Y-87003380D02*
X168695714Y-86955761D01*
X168648095Y-86908142D01*
X168600476Y-86812904D01*
X168600476Y-86527190D01*
X168648095Y-86431952D01*
X168695714Y-86384333D01*
X168790952Y-86336714D01*
X168933809Y-86336714D01*
X169029047Y-86384333D01*
X169076666Y-86431952D01*
X169124285Y-86527190D01*
X169124285Y-86812904D01*
X169076666Y-86908142D01*
X169029047Y-86955761D01*
X168933809Y-87003380D01*
X168790952Y-87003380D01*
X169552857Y-87003380D02*
X169552857Y-86336714D01*
X169552857Y-86527190D02*
X169600476Y-86431952D01*
X169648095Y-86384333D01*
X169743333Y-86336714D01*
X169838571Y-86336714D01*
X170029047Y-86336714D02*
X170410000Y-86336714D01*
X170171904Y-86003380D02*
X170171904Y-86860523D01*
X170219523Y-86955761D01*
X170314761Y-87003380D01*
X170410000Y-87003380D01*
X166743333Y-87653380D02*
X166743333Y-88367666D01*
X166695714Y-88510523D01*
X166600476Y-88605761D01*
X166457619Y-88653380D01*
X166362380Y-88653380D01*
X167648095Y-87986714D02*
X167648095Y-88653380D01*
X167219523Y-87986714D02*
X167219523Y-88510523D01*
X167267142Y-88605761D01*
X167362380Y-88653380D01*
X167505238Y-88653380D01*
X167600476Y-88605761D01*
X167648095Y-88558142D01*
X168124285Y-88653380D02*
X168124285Y-87986714D01*
X168124285Y-88081952D02*
X168171904Y-88034333D01*
X168267142Y-87986714D01*
X168410000Y-87986714D01*
X168505238Y-88034333D01*
X168552857Y-88129571D01*
X168552857Y-88653380D01*
X168552857Y-88129571D02*
X168600476Y-88034333D01*
X168695714Y-87986714D01*
X168838571Y-87986714D01*
X168933809Y-88034333D01*
X168981428Y-88129571D01*
X168981428Y-88653380D01*
X169457619Y-87986714D02*
X169457619Y-88986714D01*
X169457619Y-88034333D02*
X169552857Y-87986714D01*
X169743333Y-87986714D01*
X169838571Y-88034333D01*
X169886190Y-88081952D01*
X169933809Y-88177190D01*
X169933809Y-88462904D01*
X169886190Y-88558142D01*
X169838571Y-88605761D01*
X169743333Y-88653380D01*
X169552857Y-88653380D01*
X169457619Y-88605761D01*
X170743333Y-88605761D02*
X170648095Y-88653380D01*
X170457619Y-88653380D01*
X170362380Y-88605761D01*
X170314761Y-88510523D01*
X170314761Y-88129571D01*
X170362380Y-88034333D01*
X170457619Y-87986714D01*
X170648095Y-87986714D01*
X170743333Y-88034333D01*
X170790952Y-88129571D01*
X170790952Y-88224809D01*
X170314761Y-88320047D01*
X171219523Y-88653380D02*
X171219523Y-87986714D01*
X171219523Y-88177190D02*
X171267142Y-88081952D01*
X171314761Y-88034333D01*
X171410000Y-87986714D01*
X171505238Y-87986714D01*
X201179157Y-64113114D02*
X201131538Y-64065495D01*
X201083919Y-63922638D01*
X201083919Y-63827400D01*
X201131538Y-63684542D01*
X201226776Y-63589304D01*
X201322014Y-63541685D01*
X201512490Y-63494066D01*
X201655347Y-63494066D01*
X201845823Y-63541685D01*
X201941061Y-63589304D01*
X202036300Y-63684542D01*
X202083919Y-63827400D01*
X202083919Y-63922638D01*
X202036300Y-64065495D01*
X201988680Y-64113114D01*
X201083919Y-64541685D02*
X202083919Y-64541685D01*
X201083919Y-64970257D02*
X201607728Y-64970257D01*
X201702966Y-64922638D01*
X201750585Y-64827400D01*
X201750585Y-64684542D01*
X201702966Y-64589304D01*
X201655347Y-64541685D01*
X201083919Y-65875019D02*
X201607728Y-65875019D01*
X201702966Y-65827400D01*
X201750585Y-65732161D01*
X201750585Y-65541685D01*
X201702966Y-65446447D01*
X201131538Y-65875019D02*
X201083919Y-65779780D01*
X201083919Y-65541685D01*
X201131538Y-65446447D01*
X201226776Y-65398828D01*
X201322014Y-65398828D01*
X201417252Y-65446447D01*
X201464871Y-65541685D01*
X201464871Y-65779780D01*
X201512490Y-65875019D01*
X201083919Y-66351209D02*
X201750585Y-66351209D01*
X201560109Y-66351209D02*
X201655347Y-66398828D01*
X201702966Y-66446447D01*
X201750585Y-66541685D01*
X201750585Y-66636923D01*
X201750585Y-67398828D02*
X200941061Y-67398828D01*
X200845823Y-67351209D01*
X200798204Y-67303590D01*
X200750585Y-67208352D01*
X200750585Y-67065495D01*
X200798204Y-66970257D01*
X201131538Y-67398828D02*
X201083919Y-67303590D01*
X201083919Y-67113114D01*
X201131538Y-67017876D01*
X201179157Y-66970257D01*
X201274395Y-66922638D01*
X201560109Y-66922638D01*
X201655347Y-66970257D01*
X201702966Y-67017876D01*
X201750585Y-67113114D01*
X201750585Y-67303590D01*
X201702966Y-67398828D01*
X201131538Y-68255971D02*
X201083919Y-68160733D01*
X201083919Y-67970257D01*
X201131538Y-67875019D01*
X201226776Y-67827400D01*
X201607728Y-67827400D01*
X201702966Y-67875019D01*
X201750585Y-67970257D01*
X201750585Y-68160733D01*
X201702966Y-68255971D01*
X201607728Y-68303590D01*
X201512490Y-68303590D01*
X201417252Y-67827400D01*
X202083919Y-68922638D02*
X202083919Y-69113114D01*
X202036300Y-69208352D01*
X201941061Y-69303590D01*
X201750585Y-69351209D01*
X201417252Y-69351209D01*
X201226776Y-69303590D01*
X201131538Y-69208352D01*
X201083919Y-69113114D01*
X201083919Y-68922638D01*
X201131538Y-68827400D01*
X201226776Y-68732161D01*
X201417252Y-68684542D01*
X201750585Y-68684542D01*
X201941061Y-68732161D01*
X202036300Y-68827400D01*
X202083919Y-68922638D01*
X201083919Y-69779780D02*
X202083919Y-69779780D01*
X201464871Y-69875019D02*
X201083919Y-70160733D01*
X201750585Y-70160733D02*
X201369633Y-69779780D01*
X186031476Y-75776080D02*
X186031476Y-74776080D01*
X186412428Y-74776080D01*
X186507666Y-74823700D01*
X186555285Y-74871319D01*
X186602904Y-74966557D01*
X186602904Y-75109414D01*
X186555285Y-75204652D01*
X186507666Y-75252271D01*
X186412428Y-75299890D01*
X186031476Y-75299890D01*
X186983857Y-75490366D02*
X187460047Y-75490366D01*
X186888619Y-75776080D02*
X187221952Y-74776080D01*
X187555285Y-75776080D01*
X188460047Y-75680842D02*
X188412428Y-75728461D01*
X188269571Y-75776080D01*
X188174333Y-75776080D01*
X188031476Y-75728461D01*
X187936238Y-75633223D01*
X187888619Y-75537985D01*
X187841000Y-75347509D01*
X187841000Y-75204652D01*
X187888619Y-75014176D01*
X187936238Y-74918938D01*
X188031476Y-74823700D01*
X188174333Y-74776080D01*
X188269571Y-74776080D01*
X188412428Y-74823700D01*
X188460047Y-74871319D01*
X188888619Y-75776080D02*
X188888619Y-74776080D01*
X189460047Y-75776080D02*
X189031476Y-75204652D01*
X189460047Y-74776080D02*
X188888619Y-75347509D01*
X189888619Y-75395128D02*
X190650523Y-75395128D01*
X190269571Y-75776080D02*
X190269571Y-75014176D01*
X139498319Y-82029276D02*
X139498319Y-81838800D01*
X139450700Y-81743561D01*
X139403080Y-81695942D01*
X139260223Y-81600704D01*
X139069747Y-81553085D01*
X138688795Y-81553085D01*
X138593557Y-81600704D01*
X138545938Y-81648323D01*
X138498319Y-81743561D01*
X138498319Y-81934038D01*
X138545938Y-82029276D01*
X138593557Y-82076895D01*
X138688795Y-82124514D01*
X138926890Y-82124514D01*
X139022128Y-82076895D01*
X139069747Y-82029276D01*
X139117366Y-81934038D01*
X139117366Y-81743561D01*
X139069747Y-81648323D01*
X139022128Y-81600704D01*
X138926890Y-81553085D01*
X138536419Y-71951814D02*
X138536419Y-71380385D01*
X138536419Y-71666100D02*
X139536419Y-71666100D01*
X139393561Y-71570861D01*
X139298323Y-71475623D01*
X139250704Y-71380385D01*
X184284880Y-115434714D02*
X183284880Y-115434714D01*
X183284880Y-115053761D01*
X183332500Y-114958523D01*
X183380119Y-114910904D01*
X183475357Y-114863285D01*
X183618214Y-114863285D01*
X183713452Y-114910904D01*
X183761071Y-114958523D01*
X183808690Y-115053761D01*
X183808690Y-115434714D01*
X183999166Y-114482333D02*
X183999166Y-114006142D01*
X184284880Y-114577571D02*
X183284880Y-114244238D01*
X184284880Y-113910904D01*
X184189642Y-113006142D02*
X184237261Y-113053761D01*
X184284880Y-113196619D01*
X184284880Y-113291857D01*
X184237261Y-113434714D01*
X184142023Y-113529952D01*
X184046785Y-113577571D01*
X183856309Y-113625190D01*
X183713452Y-113625190D01*
X183522976Y-113577571D01*
X183427738Y-113529952D01*
X183332500Y-113434714D01*
X183284880Y-113291857D01*
X183284880Y-113196619D01*
X183332500Y-113053761D01*
X183380119Y-113006142D01*
X184284880Y-112577571D02*
X183284880Y-112577571D01*
X184284880Y-112006142D02*
X183713452Y-112434714D01*
X183284880Y-112006142D02*
X183856309Y-112577571D01*
X183903928Y-111577571D02*
X183903928Y-110815666D01*
X184284880Y-111196619D02*
X183522976Y-111196619D01*
X184284880Y-109815666D02*
X184284880Y-110387095D01*
X184284880Y-110101380D02*
X183284880Y-110101380D01*
X183427738Y-110196619D01*
X183522976Y-110291857D01*
X183570595Y-110387095D01*
X182005266Y-114869600D02*
X182005266Y-114393409D01*
X182290980Y-114964838D02*
X181290980Y-114631504D01*
X182290980Y-114298171D01*
X182290980Y-113488647D02*
X182290980Y-113964838D01*
X181290980Y-113964838D01*
X182386219Y-113393409D02*
X182386219Y-112631504D01*
X182195742Y-111821980D02*
X182243361Y-111869600D01*
X182290980Y-112012457D01*
X182290980Y-112107695D01*
X182243361Y-112250552D01*
X182148123Y-112345790D01*
X182052885Y-112393409D01*
X181862409Y-112441028D01*
X181719552Y-112441028D01*
X181529076Y-112393409D01*
X181433838Y-112345790D01*
X181338600Y-112250552D01*
X181290980Y-112107695D01*
X181290980Y-112012457D01*
X181338600Y-111869600D01*
X181386219Y-111821980D01*
X182195742Y-110821980D02*
X182243361Y-110869600D01*
X182290980Y-111012457D01*
X182290980Y-111107695D01*
X182243361Y-111250552D01*
X182148123Y-111345790D01*
X182052885Y-111393409D01*
X181862409Y-111441028D01*
X181719552Y-111441028D01*
X181529076Y-111393409D01*
X181433838Y-111345790D01*
X181338600Y-111250552D01*
X181290980Y-111107695D01*
X181290980Y-111012457D01*
X181338600Y-110869600D01*
X181386219Y-110821980D01*
X182290980Y-109869600D02*
X182290980Y-110441028D01*
X182290980Y-110155314D02*
X181290980Y-110155314D01*
X181433838Y-110250552D01*
X181529076Y-110345790D01*
X181576695Y-110441028D01*
X180122461Y-113209176D02*
X180170080Y-113066319D01*
X180170080Y-112828223D01*
X180122461Y-112732985D01*
X180074842Y-112685366D01*
X179979604Y-112637747D01*
X179884366Y-112637747D01*
X179789128Y-112685366D01*
X179741509Y-112732985D01*
X179693890Y-112828223D01*
X179646271Y-113018700D01*
X179598652Y-113113938D01*
X179551033Y-113161557D01*
X179455795Y-113209176D01*
X179360557Y-113209176D01*
X179265319Y-113161557D01*
X179217700Y-113113938D01*
X179170080Y-113018700D01*
X179170080Y-112780604D01*
X179217700Y-112637747D01*
X180170080Y-112209176D02*
X179170080Y-112209176D01*
X179170080Y-111971080D01*
X179217700Y-111828223D01*
X179312938Y-111732985D01*
X179408176Y-111685366D01*
X179598652Y-111637747D01*
X179741509Y-111637747D01*
X179931985Y-111685366D01*
X180027223Y-111732985D01*
X180122461Y-111828223D01*
X180170080Y-111971080D01*
X180170080Y-112209176D01*
X179884366Y-111256795D02*
X179884366Y-110780604D01*
X180170080Y-111352033D02*
X179170080Y-111018700D01*
X180170080Y-110685366D01*
X180170080Y-109828223D02*
X180170080Y-110399652D01*
X180170080Y-110113938D02*
X179170080Y-110113938D01*
X179312938Y-110209176D01*
X179408176Y-110304414D01*
X179455795Y-110399652D01*
X178128561Y-113248866D02*
X178176180Y-113106009D01*
X178176180Y-112867914D01*
X178128561Y-112772676D01*
X178080942Y-112725057D01*
X177985704Y-112677438D01*
X177890466Y-112677438D01*
X177795228Y-112725057D01*
X177747609Y-112772676D01*
X177699990Y-112867914D01*
X177652371Y-113058390D01*
X177604752Y-113153628D01*
X177557133Y-113201247D01*
X177461895Y-113248866D01*
X177366657Y-113248866D01*
X177271419Y-113201247D01*
X177223800Y-113153628D01*
X177176180Y-113058390D01*
X177176180Y-112820295D01*
X177223800Y-112677438D01*
X178080942Y-111677438D02*
X178128561Y-111725057D01*
X178176180Y-111867914D01*
X178176180Y-111963152D01*
X178128561Y-112106009D01*
X178033323Y-112201247D01*
X177938085Y-112248866D01*
X177747609Y-112296485D01*
X177604752Y-112296485D01*
X177414276Y-112248866D01*
X177319038Y-112201247D01*
X177223800Y-112106009D01*
X177176180Y-111963152D01*
X177176180Y-111867914D01*
X177223800Y-111725057D01*
X177271419Y-111677438D01*
X178176180Y-110772676D02*
X178176180Y-111248866D01*
X177176180Y-111248866D01*
X178176180Y-109915533D02*
X178176180Y-110486961D01*
X178176180Y-110201247D02*
X177176180Y-110201247D01*
X177319038Y-110296485D01*
X177414276Y-110391723D01*
X177461895Y-110486961D01*
X175760071Y-113885433D02*
X175807690Y-113742576D01*
X175855309Y-113694957D01*
X175950547Y-113647338D01*
X176093404Y-113647338D01*
X176188642Y-113694957D01*
X176236261Y-113742576D01*
X176283880Y-113837814D01*
X176283880Y-114218766D01*
X175283880Y-114218766D01*
X175283880Y-113885433D01*
X175331500Y-113790195D01*
X175379119Y-113742576D01*
X175474357Y-113694957D01*
X175569595Y-113694957D01*
X175664833Y-113742576D01*
X175712452Y-113790195D01*
X175760071Y-113885433D01*
X175760071Y-114218766D01*
X175998166Y-113266385D02*
X175998166Y-112790195D01*
X176283880Y-113361623D02*
X175283880Y-113028290D01*
X176283880Y-112694957D01*
X175283880Y-112504480D02*
X175283880Y-111933052D01*
X176283880Y-112218766D02*
X175283880Y-112218766D01*
X175902928Y-111599719D02*
X175902928Y-110837814D01*
X176283880Y-109837814D02*
X176283880Y-110409242D01*
X176283880Y-110123528D02*
X175283880Y-110123528D01*
X175426738Y-110218766D01*
X175521976Y-110314004D01*
X175569595Y-110409242D01*
X173601071Y-113860033D02*
X173648690Y-113717176D01*
X173696309Y-113669557D01*
X173791547Y-113621938D01*
X173934404Y-113621938D01*
X174029642Y-113669557D01*
X174077261Y-113717176D01*
X174124880Y-113812414D01*
X174124880Y-114193366D01*
X173124880Y-114193366D01*
X173124880Y-113860033D01*
X173172500Y-113764795D01*
X173220119Y-113717176D01*
X173315357Y-113669557D01*
X173410595Y-113669557D01*
X173505833Y-113717176D01*
X173553452Y-113764795D01*
X173601071Y-113860033D01*
X173601071Y-114193366D01*
X173839166Y-113240985D02*
X173839166Y-112764795D01*
X174124880Y-113336223D02*
X173124880Y-113002890D01*
X174124880Y-112669557D01*
X173124880Y-112479080D02*
X173124880Y-111907652D01*
X174124880Y-112193366D02*
X173124880Y-112193366D01*
X173743928Y-111574319D02*
X173743928Y-110812414D01*
X174124880Y-111193366D02*
X173362976Y-111193366D01*
X174124880Y-109812414D02*
X174124880Y-110383842D01*
X174124880Y-110098128D02*
X173124880Y-110098128D01*
X173267738Y-110193366D01*
X173362976Y-110288604D01*
X173410595Y-110383842D01*
D11*
X184487714Y-71092190D02*
X184487714Y-70592190D01*
X184606761Y-70592190D01*
X184678190Y-70616000D01*
X184725809Y-70663619D01*
X184749619Y-70711238D01*
X184773428Y-70806476D01*
X184773428Y-70877904D01*
X184749619Y-70973142D01*
X184725809Y-71020761D01*
X184678190Y-71068380D01*
X184606761Y-71092190D01*
X184487714Y-71092190D01*
X184987714Y-71092190D02*
X184987714Y-70758857D01*
X184987714Y-70592190D02*
X184963904Y-70616000D01*
X184987714Y-70639809D01*
X185011523Y-70616000D01*
X184987714Y-70592190D01*
X184987714Y-70639809D01*
X185202000Y-71068380D02*
X185249619Y-71092190D01*
X185344857Y-71092190D01*
X185392476Y-71068380D01*
X185416285Y-71020761D01*
X185416285Y-70996952D01*
X185392476Y-70949333D01*
X185344857Y-70925523D01*
X185273428Y-70925523D01*
X185225809Y-70901714D01*
X185202000Y-70854095D01*
X185202000Y-70830285D01*
X185225809Y-70782666D01*
X185273428Y-70758857D01*
X185344857Y-70758857D01*
X185392476Y-70782666D01*
X185844857Y-71068380D02*
X185797238Y-71092190D01*
X185702000Y-71092190D01*
X185654380Y-71068380D01*
X185630571Y-71044571D01*
X185606761Y-70996952D01*
X185606761Y-70854095D01*
X185630571Y-70806476D01*
X185654380Y-70782666D01*
X185702000Y-70758857D01*
X185797238Y-70758857D01*
X185844857Y-70782666D01*
X186059142Y-71092190D02*
X186059142Y-70592190D01*
X186273428Y-71092190D02*
X186273428Y-70830285D01*
X186249619Y-70782666D01*
X186202000Y-70758857D01*
X186130571Y-70758857D01*
X186082952Y-70782666D01*
X186059142Y-70806476D01*
X186725809Y-71092190D02*
X186725809Y-70830285D01*
X186702000Y-70782666D01*
X186654380Y-70758857D01*
X186559142Y-70758857D01*
X186511523Y-70782666D01*
X186725809Y-71068380D02*
X186678190Y-71092190D01*
X186559142Y-71092190D01*
X186511523Y-71068380D01*
X186487714Y-71020761D01*
X186487714Y-70973142D01*
X186511523Y-70925523D01*
X186559142Y-70901714D01*
X186678190Y-70901714D01*
X186725809Y-70877904D01*
X186963904Y-71092190D02*
X186963904Y-70758857D01*
X186963904Y-70854095D02*
X186987714Y-70806476D01*
X187011523Y-70782666D01*
X187059142Y-70758857D01*
X187106761Y-70758857D01*
X187487714Y-70758857D02*
X187487714Y-71163619D01*
X187463904Y-71211238D01*
X187440095Y-71235047D01*
X187392476Y-71258857D01*
X187321047Y-71258857D01*
X187273428Y-71235047D01*
X187487714Y-71068380D02*
X187440095Y-71092190D01*
X187344857Y-71092190D01*
X187297238Y-71068380D01*
X187273428Y-71044571D01*
X187249619Y-70996952D01*
X187249619Y-70854095D01*
X187273428Y-70806476D01*
X187297238Y-70782666D01*
X187344857Y-70758857D01*
X187440095Y-70758857D01*
X187487714Y-70782666D01*
X187916285Y-71068380D02*
X187868666Y-71092190D01*
X187773428Y-71092190D01*
X187725809Y-71068380D01*
X187702000Y-71020761D01*
X187702000Y-70830285D01*
X187725809Y-70782666D01*
X187773428Y-70758857D01*
X187868666Y-70758857D01*
X187916285Y-70782666D01*
X187940095Y-70830285D01*
X187940095Y-70877904D01*
X187702000Y-70925523D01*
X188154380Y-70830285D02*
X188321047Y-70830285D01*
X188392476Y-71092190D02*
X188154380Y-71092190D01*
X188154380Y-70592190D01*
X188392476Y-70592190D01*
X188606761Y-70758857D02*
X188606761Y-71092190D01*
X188606761Y-70806476D02*
X188630571Y-70782666D01*
X188678190Y-70758857D01*
X188749619Y-70758857D01*
X188797238Y-70782666D01*
X188821047Y-70830285D01*
X188821047Y-71092190D01*
X189273428Y-71092190D02*
X189273428Y-70830285D01*
X189249619Y-70782666D01*
X189202000Y-70758857D01*
X189106761Y-70758857D01*
X189059142Y-70782666D01*
X189273428Y-71068380D02*
X189225809Y-71092190D01*
X189106761Y-71092190D01*
X189059142Y-71068380D01*
X189035333Y-71020761D01*
X189035333Y-70973142D01*
X189059142Y-70925523D01*
X189106761Y-70901714D01*
X189225809Y-70901714D01*
X189273428Y-70877904D01*
X189511523Y-71092190D02*
X189511523Y-70592190D01*
X189511523Y-70782666D02*
X189559142Y-70758857D01*
X189654380Y-70758857D01*
X189702000Y-70782666D01*
X189725809Y-70806476D01*
X189749619Y-70854095D01*
X189749619Y-70996952D01*
X189725809Y-71044571D01*
X189702000Y-71068380D01*
X189654380Y-71092190D01*
X189559142Y-71092190D01*
X189511523Y-71068380D01*
X190035333Y-71092190D02*
X189987714Y-71068380D01*
X189963904Y-71020761D01*
X189963904Y-70592190D01*
X190416285Y-71068380D02*
X190368666Y-71092190D01*
X190273428Y-71092190D01*
X190225809Y-71068380D01*
X190202000Y-71020761D01*
X190202000Y-70830285D01*
X190225809Y-70782666D01*
X190273428Y-70758857D01*
X190368666Y-70758857D01*
X190416285Y-70782666D01*
X190440095Y-70830285D01*
X190440095Y-70877904D01*
X190202000Y-70925523D01*
X184777238Y-69012571D02*
X184753428Y-69036380D01*
X184682000Y-69060190D01*
X184634380Y-69060190D01*
X184562952Y-69036380D01*
X184515333Y-68988761D01*
X184491523Y-68941142D01*
X184467714Y-68845904D01*
X184467714Y-68774476D01*
X184491523Y-68679238D01*
X184515333Y-68631619D01*
X184562952Y-68584000D01*
X184634380Y-68560190D01*
X184682000Y-68560190D01*
X184753428Y-68584000D01*
X184777238Y-68607809D01*
X184991523Y-69060190D02*
X184991523Y-68560190D01*
X185205809Y-69060190D02*
X185205809Y-68798285D01*
X185182000Y-68750666D01*
X185134380Y-68726857D01*
X185062952Y-68726857D01*
X185015333Y-68750666D01*
X184991523Y-68774476D01*
X185658190Y-69060190D02*
X185658190Y-68798285D01*
X185634380Y-68750666D01*
X185586761Y-68726857D01*
X185491523Y-68726857D01*
X185443904Y-68750666D01*
X185658190Y-69036380D02*
X185610571Y-69060190D01*
X185491523Y-69060190D01*
X185443904Y-69036380D01*
X185420095Y-68988761D01*
X185420095Y-68941142D01*
X185443904Y-68893523D01*
X185491523Y-68869714D01*
X185610571Y-68869714D01*
X185658190Y-68845904D01*
X185896285Y-69060190D02*
X185896285Y-68726857D01*
X185896285Y-68822095D02*
X185920095Y-68774476D01*
X185943904Y-68750666D01*
X185991523Y-68726857D01*
X186039142Y-68726857D01*
X186420095Y-68726857D02*
X186420095Y-69131619D01*
X186396285Y-69179238D01*
X186372476Y-69203047D01*
X186324857Y-69226857D01*
X186253428Y-69226857D01*
X186205809Y-69203047D01*
X186420095Y-69036380D02*
X186372476Y-69060190D01*
X186277238Y-69060190D01*
X186229619Y-69036380D01*
X186205809Y-69012571D01*
X186182000Y-68964952D01*
X186182000Y-68822095D01*
X186205809Y-68774476D01*
X186229619Y-68750666D01*
X186277238Y-68726857D01*
X186372476Y-68726857D01*
X186420095Y-68750666D01*
X186848666Y-69036380D02*
X186801047Y-69060190D01*
X186705809Y-69060190D01*
X186658190Y-69036380D01*
X186634380Y-68988761D01*
X186634380Y-68798285D01*
X186658190Y-68750666D01*
X186705809Y-68726857D01*
X186801047Y-68726857D01*
X186848666Y-68750666D01*
X186872476Y-68798285D01*
X186872476Y-68845904D01*
X186634380Y-68893523D01*
X187182000Y-68560190D02*
X187277238Y-68560190D01*
X187324857Y-68584000D01*
X187372476Y-68631619D01*
X187396285Y-68726857D01*
X187396285Y-68893523D01*
X187372476Y-68988761D01*
X187324857Y-69036380D01*
X187277238Y-69060190D01*
X187182000Y-69060190D01*
X187134380Y-69036380D01*
X187086761Y-68988761D01*
X187062952Y-68893523D01*
X187062952Y-68726857D01*
X187086761Y-68631619D01*
X187134380Y-68584000D01*
X187182000Y-68560190D01*
X187610571Y-69060190D02*
X187610571Y-68560190D01*
X187896285Y-69060190D02*
X187682000Y-68774476D01*
X187896285Y-68560190D02*
X187610571Y-68845904D01*
X184801142Y-66980571D02*
X184777333Y-67004380D01*
X184705904Y-67028190D01*
X184658285Y-67028190D01*
X184586857Y-67004380D01*
X184539238Y-66956761D01*
X184515428Y-66909142D01*
X184491619Y-66813904D01*
X184491619Y-66742476D01*
X184515428Y-66647238D01*
X184539238Y-66599619D01*
X184586857Y-66552000D01*
X184658285Y-66528190D01*
X184705904Y-66528190D01*
X184777333Y-66552000D01*
X184801142Y-66575809D01*
X185015428Y-67028190D02*
X185015428Y-66528190D01*
X185229714Y-67028190D02*
X185229714Y-66766285D01*
X185205904Y-66718666D01*
X185158285Y-66694857D01*
X185086857Y-66694857D01*
X185039238Y-66718666D01*
X185015428Y-66742476D01*
X185682095Y-67028190D02*
X185682095Y-66766285D01*
X185658285Y-66718666D01*
X185610666Y-66694857D01*
X185515428Y-66694857D01*
X185467809Y-66718666D01*
X185682095Y-67004380D02*
X185634476Y-67028190D01*
X185515428Y-67028190D01*
X185467809Y-67004380D01*
X185444000Y-66956761D01*
X185444000Y-66909142D01*
X185467809Y-66861523D01*
X185515428Y-66837714D01*
X185634476Y-66837714D01*
X185682095Y-66813904D01*
X185920190Y-67028190D02*
X185920190Y-66694857D01*
X185920190Y-66790095D02*
X185944000Y-66742476D01*
X185967809Y-66718666D01*
X186015428Y-66694857D01*
X186063047Y-66694857D01*
X186444000Y-66694857D02*
X186444000Y-67099619D01*
X186420190Y-67147238D01*
X186396380Y-67171047D01*
X186348761Y-67194857D01*
X186277333Y-67194857D01*
X186229714Y-67171047D01*
X186444000Y-67004380D02*
X186396380Y-67028190D01*
X186301142Y-67028190D01*
X186253523Y-67004380D01*
X186229714Y-66980571D01*
X186205904Y-66932952D01*
X186205904Y-66790095D01*
X186229714Y-66742476D01*
X186253523Y-66718666D01*
X186301142Y-66694857D01*
X186396380Y-66694857D01*
X186444000Y-66718666D01*
X186872571Y-67004380D02*
X186824952Y-67028190D01*
X186729714Y-67028190D01*
X186682095Y-67004380D01*
X186658285Y-66956761D01*
X186658285Y-66766285D01*
X186682095Y-66718666D01*
X186729714Y-66694857D01*
X186824952Y-66694857D01*
X186872571Y-66718666D01*
X186896380Y-66766285D01*
X186896380Y-66813904D01*
X186658285Y-66861523D01*
X187110666Y-66766285D02*
X187277333Y-66766285D01*
X187348761Y-67028190D02*
X187110666Y-67028190D01*
X187110666Y-66528190D01*
X187348761Y-66528190D01*
X187563047Y-66694857D02*
X187563047Y-67028190D01*
X187563047Y-66742476D02*
X187586857Y-66718666D01*
X187634476Y-66694857D01*
X187705904Y-66694857D01*
X187753523Y-66718666D01*
X187777333Y-66766285D01*
X187777333Y-67028190D01*
X188229714Y-67028190D02*
X188229714Y-66766285D01*
X188205904Y-66718666D01*
X188158285Y-66694857D01*
X188063047Y-66694857D01*
X188015428Y-66718666D01*
X188229714Y-67004380D02*
X188182095Y-67028190D01*
X188063047Y-67028190D01*
X188015428Y-67004380D01*
X187991619Y-66956761D01*
X187991619Y-66909142D01*
X188015428Y-66861523D01*
X188063047Y-66837714D01*
X188182095Y-66837714D01*
X188229714Y-66813904D01*
X188467809Y-67028190D02*
X188467809Y-66528190D01*
X188467809Y-66718666D02*
X188515428Y-66694857D01*
X188610666Y-66694857D01*
X188658285Y-66718666D01*
X188682095Y-66742476D01*
X188705904Y-66790095D01*
X188705904Y-66932952D01*
X188682095Y-66980571D01*
X188658285Y-67004380D01*
X188610666Y-67028190D01*
X188515428Y-67028190D01*
X188467809Y-67004380D01*
X188991619Y-67028190D02*
X188944000Y-67004380D01*
X188920190Y-66956761D01*
X188920190Y-66528190D01*
X189372571Y-67004380D02*
X189324952Y-67028190D01*
X189229714Y-67028190D01*
X189182095Y-67004380D01*
X189158285Y-66956761D01*
X189158285Y-66766285D01*
X189182095Y-66718666D01*
X189229714Y-66694857D01*
X189324952Y-66694857D01*
X189372571Y-66718666D01*
X189396380Y-66766285D01*
X189396380Y-66813904D01*
X189158285Y-66861523D01*
X184499428Y-64496190D02*
X184785142Y-64496190D01*
X184642285Y-64996190D02*
X184642285Y-64496190D01*
X185142285Y-64972380D02*
X185094666Y-64996190D01*
X184999428Y-64996190D01*
X184951809Y-64972380D01*
X184928000Y-64924761D01*
X184928000Y-64734285D01*
X184951809Y-64686666D01*
X184999428Y-64662857D01*
X185094666Y-64662857D01*
X185142285Y-64686666D01*
X185166095Y-64734285D01*
X185166095Y-64781904D01*
X184928000Y-64829523D01*
X185380380Y-64996190D02*
X185380380Y-64662857D01*
X185380380Y-64710476D02*
X185404190Y-64686666D01*
X185451809Y-64662857D01*
X185523238Y-64662857D01*
X185570857Y-64686666D01*
X185594666Y-64734285D01*
X185594666Y-64996190D01*
X185594666Y-64734285D02*
X185618476Y-64686666D01*
X185666095Y-64662857D01*
X185737523Y-64662857D01*
X185785142Y-64686666D01*
X185808952Y-64734285D01*
X185808952Y-64996190D01*
X186047047Y-64662857D02*
X186047047Y-65162857D01*
X186047047Y-64686666D02*
X186094666Y-64662857D01*
X186189904Y-64662857D01*
X186237523Y-64686666D01*
X186261333Y-64710476D01*
X186285142Y-64758095D01*
X186285142Y-64900952D01*
X186261333Y-64948571D01*
X186237523Y-64972380D01*
X186189904Y-64996190D01*
X186094666Y-64996190D01*
X186047047Y-64972380D01*
X186594666Y-64496190D02*
X186689904Y-64496190D01*
X186737523Y-64520000D01*
X186785142Y-64567619D01*
X186808952Y-64662857D01*
X186808952Y-64829523D01*
X186785142Y-64924761D01*
X186737523Y-64972380D01*
X186689904Y-64996190D01*
X186594666Y-64996190D01*
X186547047Y-64972380D01*
X186499428Y-64924761D01*
X186475619Y-64829523D01*
X186475619Y-64662857D01*
X186499428Y-64567619D01*
X186547047Y-64520000D01*
X186594666Y-64496190D01*
X187023238Y-64996190D02*
X187023238Y-64496190D01*
X187308952Y-64996190D02*
X187094666Y-64710476D01*
X187308952Y-64496190D02*
X187023238Y-64781904D01*
X184463809Y-63472190D02*
X184463809Y-62972190D01*
X184582857Y-62972190D01*
X184654285Y-62996000D01*
X184701904Y-63043619D01*
X184725714Y-63091238D01*
X184749523Y-63186476D01*
X184749523Y-63257904D01*
X184725714Y-63353142D01*
X184701904Y-63400761D01*
X184654285Y-63448380D01*
X184582857Y-63472190D01*
X184463809Y-63472190D01*
X184963809Y-63472190D02*
X184963809Y-63138857D01*
X184963809Y-62972190D02*
X184940000Y-62996000D01*
X184963809Y-63019809D01*
X184987619Y-62996000D01*
X184963809Y-62972190D01*
X184963809Y-63019809D01*
X185178095Y-63448380D02*
X185225714Y-63472190D01*
X185320952Y-63472190D01*
X185368571Y-63448380D01*
X185392380Y-63400761D01*
X185392380Y-63376952D01*
X185368571Y-63329333D01*
X185320952Y-63305523D01*
X185249523Y-63305523D01*
X185201904Y-63281714D01*
X185178095Y-63234095D01*
X185178095Y-63210285D01*
X185201904Y-63162666D01*
X185249523Y-63138857D01*
X185320952Y-63138857D01*
X185368571Y-63162666D01*
X185820952Y-63448380D02*
X185773333Y-63472190D01*
X185678095Y-63472190D01*
X185630476Y-63448380D01*
X185606666Y-63424571D01*
X185582857Y-63376952D01*
X185582857Y-63234095D01*
X185606666Y-63186476D01*
X185630476Y-63162666D01*
X185678095Y-63138857D01*
X185773333Y-63138857D01*
X185820952Y-63162666D01*
X186035238Y-63472190D02*
X186035238Y-62972190D01*
X186249523Y-63472190D02*
X186249523Y-63210285D01*
X186225714Y-63162666D01*
X186178095Y-63138857D01*
X186106666Y-63138857D01*
X186059047Y-63162666D01*
X186035238Y-63186476D01*
X186701904Y-63472190D02*
X186701904Y-63210285D01*
X186678095Y-63162666D01*
X186630476Y-63138857D01*
X186535238Y-63138857D01*
X186487619Y-63162666D01*
X186701904Y-63448380D02*
X186654285Y-63472190D01*
X186535238Y-63472190D01*
X186487619Y-63448380D01*
X186463809Y-63400761D01*
X186463809Y-63353142D01*
X186487619Y-63305523D01*
X186535238Y-63281714D01*
X186654285Y-63281714D01*
X186701904Y-63257904D01*
X186940000Y-63472190D02*
X186940000Y-63138857D01*
X186940000Y-63234095D02*
X186963809Y-63186476D01*
X186987619Y-63162666D01*
X187035238Y-63138857D01*
X187082857Y-63138857D01*
X187463809Y-63138857D02*
X187463809Y-63543619D01*
X187440000Y-63591238D01*
X187416190Y-63615047D01*
X187368571Y-63638857D01*
X187297142Y-63638857D01*
X187249523Y-63615047D01*
X187463809Y-63448380D02*
X187416190Y-63472190D01*
X187320952Y-63472190D01*
X187273333Y-63448380D01*
X187249523Y-63424571D01*
X187225714Y-63376952D01*
X187225714Y-63234095D01*
X187249523Y-63186476D01*
X187273333Y-63162666D01*
X187320952Y-63138857D01*
X187416190Y-63138857D01*
X187463809Y-63162666D01*
X187892380Y-63448380D02*
X187844761Y-63472190D01*
X187749523Y-63472190D01*
X187701904Y-63448380D01*
X187678095Y-63400761D01*
X187678095Y-63210285D01*
X187701904Y-63162666D01*
X187749523Y-63138857D01*
X187844761Y-63138857D01*
X187892380Y-63162666D01*
X187916190Y-63210285D01*
X187916190Y-63257904D01*
X187678095Y-63305523D01*
X188225714Y-62972190D02*
X188320952Y-62972190D01*
X188368571Y-62996000D01*
X188416190Y-63043619D01*
X188440000Y-63138857D01*
X188440000Y-63305523D01*
X188416190Y-63400761D01*
X188368571Y-63448380D01*
X188320952Y-63472190D01*
X188225714Y-63472190D01*
X188178095Y-63448380D01*
X188130476Y-63400761D01*
X188106666Y-63305523D01*
X188106666Y-63138857D01*
X188130476Y-63043619D01*
X188178095Y-62996000D01*
X188225714Y-62972190D01*
X188654285Y-63472190D02*
X188654285Y-62972190D01*
X188940000Y-63472190D02*
X188725714Y-63186476D01*
X188940000Y-62972190D02*
X188654285Y-63257904D01*
D10*
X193046395Y-63748095D02*
X193846395Y-63748095D01*
X193846395Y-63938571D01*
X193808300Y-64052857D01*
X193732109Y-64129047D01*
X193655919Y-64167142D01*
X193503538Y-64205238D01*
X193389252Y-64205238D01*
X193236871Y-64167142D01*
X193160680Y-64129047D01*
X193084490Y-64052857D01*
X193046395Y-63938571D01*
X193046395Y-63748095D01*
X193046395Y-64548095D02*
X193579728Y-64548095D01*
X193846395Y-64548095D02*
X193808300Y-64510000D01*
X193770204Y-64548095D01*
X193808300Y-64586190D01*
X193846395Y-64548095D01*
X193770204Y-64548095D01*
X193084490Y-64890952D02*
X193046395Y-64967142D01*
X193046395Y-65119523D01*
X193084490Y-65195714D01*
X193160680Y-65233809D01*
X193198776Y-65233809D01*
X193274966Y-65195714D01*
X193313061Y-65119523D01*
X193313061Y-65005238D01*
X193351157Y-64929047D01*
X193427347Y-64890952D01*
X193465442Y-64890952D01*
X193541633Y-64929047D01*
X193579728Y-65005238D01*
X193579728Y-65119523D01*
X193541633Y-65195714D01*
X193084490Y-65919523D02*
X193046395Y-65843333D01*
X193046395Y-65690952D01*
X193084490Y-65614761D01*
X193122585Y-65576666D01*
X193198776Y-65538571D01*
X193427347Y-65538571D01*
X193503538Y-65576666D01*
X193541633Y-65614761D01*
X193579728Y-65690952D01*
X193579728Y-65843333D01*
X193541633Y-65919523D01*
X193046395Y-66262380D02*
X193846395Y-66262380D01*
X193046395Y-66605238D02*
X193465442Y-66605238D01*
X193541633Y-66567142D01*
X193579728Y-66490952D01*
X193579728Y-66376666D01*
X193541633Y-66300476D01*
X193503538Y-66262380D01*
X193046395Y-67329047D02*
X193465442Y-67329047D01*
X193541633Y-67290952D01*
X193579728Y-67214761D01*
X193579728Y-67062380D01*
X193541633Y-66986190D01*
X193084490Y-67329047D02*
X193046395Y-67252857D01*
X193046395Y-67062380D01*
X193084490Y-66986190D01*
X193160680Y-66948095D01*
X193236871Y-66948095D01*
X193313061Y-66986190D01*
X193351157Y-67062380D01*
X193351157Y-67252857D01*
X193389252Y-67329047D01*
X193046395Y-67710000D02*
X193579728Y-67710000D01*
X193427347Y-67710000D02*
X193503538Y-67748095D01*
X193541633Y-67786190D01*
X193579728Y-67862380D01*
X193579728Y-67938571D01*
X193579728Y-68548095D02*
X192932109Y-68548095D01*
X192855919Y-68510000D01*
X192817823Y-68471904D01*
X192779728Y-68395714D01*
X192779728Y-68281428D01*
X192817823Y-68205238D01*
X193084490Y-68548095D02*
X193046395Y-68471904D01*
X193046395Y-68319523D01*
X193084490Y-68243333D01*
X193122585Y-68205238D01*
X193198776Y-68167142D01*
X193427347Y-68167142D01*
X193503538Y-68205238D01*
X193541633Y-68243333D01*
X193579728Y-68319523D01*
X193579728Y-68471904D01*
X193541633Y-68548095D01*
X193084490Y-69233809D02*
X193046395Y-69157619D01*
X193046395Y-69005238D01*
X193084490Y-68929047D01*
X193160680Y-68890952D01*
X193465442Y-68890952D01*
X193541633Y-68929047D01*
X193579728Y-69005238D01*
X193579728Y-69157619D01*
X193541633Y-69233809D01*
X193465442Y-69271904D01*
X193389252Y-69271904D01*
X193313061Y-68890952D01*
X193846395Y-69767142D02*
X193846395Y-69919523D01*
X193808300Y-69995714D01*
X193732109Y-70071904D01*
X193579728Y-70110000D01*
X193313061Y-70110000D01*
X193160680Y-70071904D01*
X193084490Y-69995714D01*
X193046395Y-69919523D01*
X193046395Y-69767142D01*
X193084490Y-69690952D01*
X193160680Y-69614761D01*
X193313061Y-69576666D01*
X193579728Y-69576666D01*
X193732109Y-69614761D01*
X193808300Y-69690952D01*
X193846395Y-69767142D01*
X193046395Y-70452857D02*
X193846395Y-70452857D01*
X193046395Y-70910000D02*
X193503538Y-70567142D01*
X193846395Y-70910000D02*
X193389252Y-70452857D01*
X195153019Y-63679795D02*
X195153019Y-63870271D01*
X195200638Y-63965509D01*
X195248257Y-64013128D01*
X195391114Y-64108366D01*
X195581590Y-64155985D01*
X195962542Y-64155985D01*
X196057780Y-64108366D01*
X196105400Y-64060747D01*
X196153019Y-63965509D01*
X196153019Y-63775033D01*
X196105400Y-63679795D01*
X196057780Y-63632176D01*
X195962542Y-63584557D01*
X195724447Y-63584557D01*
X195629209Y-63632176D01*
X195581590Y-63679795D01*
X195533971Y-63775033D01*
X195533971Y-63965509D01*
X195581590Y-64060747D01*
X195629209Y-64108366D01*
X195724447Y-64155985D01*
X196153019Y-64489319D02*
X196153019Y-65108366D01*
X195772066Y-64775033D01*
X195772066Y-64917890D01*
X195724447Y-65013128D01*
X195676828Y-65060747D01*
X195581590Y-65108366D01*
X195343495Y-65108366D01*
X195248257Y-65060747D01*
X195200638Y-65013128D01*
X195153019Y-64917890D01*
X195153019Y-64632176D01*
X195200638Y-64536938D01*
X195248257Y-64489319D01*
X196153019Y-65441700D02*
X196153019Y-66060747D01*
X195772066Y-65727414D01*
X195772066Y-65870271D01*
X195724447Y-65965509D01*
X195676828Y-66013128D01*
X195581590Y-66060747D01*
X195343495Y-66060747D01*
X195248257Y-66013128D01*
X195200638Y-65965509D01*
X195153019Y-65870271D01*
X195153019Y-65584557D01*
X195200638Y-65489319D01*
X195248257Y-65441700D01*
X195153019Y-66489319D02*
X195819685Y-66489319D01*
X195724447Y-66489319D02*
X195772066Y-66536938D01*
X195819685Y-66632176D01*
X195819685Y-66775033D01*
X195772066Y-66870271D01*
X195676828Y-66917890D01*
X195153019Y-66917890D01*
X195676828Y-66917890D02*
X195772066Y-66965509D01*
X195819685Y-67060747D01*
X195819685Y-67203604D01*
X195772066Y-67298842D01*
X195676828Y-67346461D01*
X195153019Y-67346461D01*
X196153019Y-67679795D02*
X195153019Y-68013128D01*
X196153019Y-68346461D01*
X195153019Y-68679795D02*
X195819685Y-68679795D01*
X195629209Y-68679795D02*
X195724447Y-68727414D01*
X195772066Y-68775033D01*
X195819685Y-68870271D01*
X195819685Y-68965509D01*
X195200638Y-69679795D02*
X195153019Y-69584557D01*
X195153019Y-69394080D01*
X195200638Y-69298842D01*
X195295876Y-69251223D01*
X195676828Y-69251223D01*
X195772066Y-69298842D01*
X195819685Y-69394080D01*
X195819685Y-69584557D01*
X195772066Y-69679795D01*
X195676828Y-69727414D01*
X195581590Y-69727414D01*
X195486352Y-69251223D01*
X195819685Y-70013128D02*
X195819685Y-70394080D01*
X195153019Y-70155985D02*
X196010161Y-70155985D01*
X196105400Y-70203604D01*
X196153019Y-70298842D01*
X196153019Y-70394080D01*
X197134219Y-64146347D02*
X197134219Y-63574919D01*
X197134219Y-63860633D02*
X198134219Y-63860633D01*
X197991361Y-63765395D01*
X197896123Y-63670157D01*
X197848504Y-63574919D01*
X197229457Y-64574919D02*
X197181838Y-64622538D01*
X197134219Y-64574919D01*
X197181838Y-64527300D01*
X197229457Y-64574919D01*
X197134219Y-64574919D01*
X197800885Y-65479680D02*
X197134219Y-65479680D01*
X198181838Y-65241585D02*
X197467552Y-65003490D01*
X197467552Y-65622538D01*
X198134219Y-65860633D02*
X197134219Y-66193966D01*
X198134219Y-66527300D01*
X197134219Y-66860633D02*
X197800885Y-66860633D01*
X197610409Y-66860633D02*
X197705647Y-66908252D01*
X197753266Y-66955871D01*
X197800885Y-67051109D01*
X197800885Y-67146347D01*
X197181838Y-67860633D02*
X197134219Y-67765395D01*
X197134219Y-67574919D01*
X197181838Y-67479680D01*
X197277076Y-67432061D01*
X197658028Y-67432061D01*
X197753266Y-67479680D01*
X197800885Y-67574919D01*
X197800885Y-67765395D01*
X197753266Y-67860633D01*
X197658028Y-67908252D01*
X197562790Y-67908252D01*
X197467552Y-67432061D01*
X197800885Y-68193966D02*
X197800885Y-68574919D01*
X197134219Y-68336823D02*
X197991361Y-68336823D01*
X198086600Y-68384442D01*
X198134219Y-68479680D01*
X198134219Y-68574919D01*
X199740828Y-63893985D02*
X199693209Y-64036842D01*
X199645590Y-64084461D01*
X199550352Y-64132080D01*
X199407495Y-64132080D01*
X199312257Y-64084461D01*
X199264638Y-64036842D01*
X199217019Y-63941604D01*
X199217019Y-63560652D01*
X200217019Y-63560652D01*
X200217019Y-63893985D01*
X200169400Y-63989223D01*
X200121780Y-64036842D01*
X200026542Y-64084461D01*
X199931304Y-64084461D01*
X199836066Y-64036842D01*
X199788447Y-63989223D01*
X199740828Y-63893985D01*
X199740828Y-63560652D01*
X199502733Y-64513033D02*
X199502733Y-64989223D01*
X199217019Y-64417795D02*
X200217019Y-64751128D01*
X199217019Y-65084461D01*
X200217019Y-65274938D02*
X200217019Y-65846366D01*
X199217019Y-65560652D02*
X200217019Y-65560652D01*
X199217019Y-66608271D02*
X200217019Y-66608271D01*
X199264638Y-66608271D02*
X199217019Y-66513033D01*
X199217019Y-66322557D01*
X199264638Y-66227319D01*
X199312257Y-66179700D01*
X199407495Y-66132080D01*
X199693209Y-66132080D01*
X199788447Y-66179700D01*
X199836066Y-66227319D01*
X199883685Y-66322557D01*
X199883685Y-66513033D01*
X199836066Y-66608271D01*
X199217019Y-67084461D02*
X199883685Y-67084461D01*
X200217019Y-67084461D02*
X200169400Y-67036842D01*
X200121780Y-67084461D01*
X200169400Y-67132080D01*
X200217019Y-67084461D01*
X200121780Y-67084461D01*
X199883685Y-67465414D02*
X199217019Y-67703509D01*
X199883685Y-67941604D01*
X200217019Y-68227319D02*
X200217019Y-68846366D01*
X199836066Y-68513033D01*
X199836066Y-68655890D01*
X199788447Y-68751128D01*
X199740828Y-68798747D01*
X199645590Y-68846366D01*
X199407495Y-68846366D01*
X199312257Y-68798747D01*
X199264638Y-68751128D01*
X199217019Y-68655890D01*
X199217019Y-68370176D01*
X199264638Y-68274938D01*
X199312257Y-68227319D01*
X178982619Y-42513595D02*
X178982619Y-43085023D01*
X177982619Y-42799309D02*
X178982619Y-42799309D01*
X178030238Y-43799309D02*
X177982619Y-43704071D01*
X177982619Y-43513595D01*
X178030238Y-43418357D01*
X178125476Y-43370738D01*
X178506428Y-43370738D01*
X178601666Y-43418357D01*
X178649285Y-43513595D01*
X178649285Y-43704071D01*
X178601666Y-43799309D01*
X178506428Y-43846928D01*
X178411190Y-43846928D01*
X178315952Y-43370738D01*
X177982619Y-44275500D02*
X178649285Y-44275500D01*
X178554047Y-44275500D02*
X178601666Y-44323119D01*
X178649285Y-44418357D01*
X178649285Y-44561214D01*
X178601666Y-44656452D01*
X178506428Y-44704071D01*
X177982619Y-44704071D01*
X178506428Y-44704071D02*
X178601666Y-44751690D01*
X178649285Y-44846928D01*
X178649285Y-44989785D01*
X178601666Y-45085023D01*
X178506428Y-45132642D01*
X177982619Y-45132642D01*
X178649285Y-45608833D02*
X177649285Y-45608833D01*
X178601666Y-45608833D02*
X178649285Y-45704071D01*
X178649285Y-45894547D01*
X178601666Y-45989785D01*
X178554047Y-46037404D01*
X178458809Y-46085023D01*
X178173095Y-46085023D01*
X178077857Y-46037404D01*
X178030238Y-45989785D01*
X177982619Y-45894547D01*
X177982619Y-45704071D01*
X178030238Y-45608833D01*
X178982619Y-46704071D02*
X178982619Y-46894547D01*
X178935000Y-46989785D01*
X178839761Y-47085023D01*
X178649285Y-47132642D01*
X178315952Y-47132642D01*
X178125476Y-47085023D01*
X178030238Y-46989785D01*
X177982619Y-46894547D01*
X177982619Y-46704071D01*
X178030238Y-46608833D01*
X178125476Y-46513595D01*
X178315952Y-46465976D01*
X178649285Y-46465976D01*
X178839761Y-46513595D01*
X178935000Y-46608833D01*
X178982619Y-46704071D01*
X177982619Y-47561214D02*
X178982619Y-47561214D01*
X178363571Y-47656452D02*
X177982619Y-47942166D01*
X178649285Y-47942166D02*
X178268333Y-47561214D01*
X176204619Y-42426261D02*
X176204619Y-41950071D01*
X177204619Y-41950071D01*
X176204619Y-42902452D02*
X176252238Y-42807214D01*
X176299857Y-42759595D01*
X176395095Y-42711976D01*
X176680809Y-42711976D01*
X176776047Y-42759595D01*
X176823666Y-42807214D01*
X176871285Y-42902452D01*
X176871285Y-43045309D01*
X176823666Y-43140547D01*
X176776047Y-43188166D01*
X176680809Y-43235785D01*
X176395095Y-43235785D01*
X176299857Y-43188166D01*
X176252238Y-43140547D01*
X176204619Y-43045309D01*
X176204619Y-42902452D01*
X176871285Y-43569119D02*
X176204619Y-43759595D01*
X176680809Y-43950071D01*
X176204619Y-44140547D01*
X176871285Y-44331023D01*
X177204619Y-44569119D02*
X177204619Y-45140547D01*
X176204619Y-44854833D02*
X177204619Y-44854833D01*
X176252238Y-45854833D02*
X176204619Y-45759595D01*
X176204619Y-45569119D01*
X176252238Y-45473880D01*
X176347476Y-45426261D01*
X176728428Y-45426261D01*
X176823666Y-45473880D01*
X176871285Y-45569119D01*
X176871285Y-45759595D01*
X176823666Y-45854833D01*
X176728428Y-45902452D01*
X176633190Y-45902452D01*
X176537952Y-45426261D01*
X176204619Y-46331023D02*
X176871285Y-46331023D01*
X176776047Y-46331023D02*
X176823666Y-46378642D01*
X176871285Y-46473880D01*
X176871285Y-46616738D01*
X176823666Y-46711976D01*
X176728428Y-46759595D01*
X176204619Y-46759595D01*
X176728428Y-46759595D02*
X176823666Y-46807214D01*
X176871285Y-46902452D01*
X176871285Y-47045309D01*
X176823666Y-47140547D01*
X176728428Y-47188166D01*
X176204619Y-47188166D01*
X176871285Y-47664357D02*
X175871285Y-47664357D01*
X176823666Y-47664357D02*
X176871285Y-47759595D01*
X176871285Y-47950071D01*
X176823666Y-48045309D01*
X176776047Y-48092928D01*
X176680809Y-48140547D01*
X176395095Y-48140547D01*
X176299857Y-48092928D01*
X176252238Y-48045309D01*
X176204619Y-47950071D01*
X176204619Y-47759595D01*
X176252238Y-47664357D01*
X173918619Y-41410357D02*
X174918619Y-41410357D01*
X174442428Y-41410357D02*
X174442428Y-41981785D01*
X173918619Y-41981785D02*
X174918619Y-41981785D01*
X173918619Y-42457976D02*
X174585285Y-42457976D01*
X174918619Y-42457976D02*
X174871000Y-42410357D01*
X174823380Y-42457976D01*
X174871000Y-42505595D01*
X174918619Y-42457976D01*
X174823380Y-42457976D01*
X174585285Y-43362738D02*
X173775761Y-43362738D01*
X173680523Y-43315119D01*
X173632904Y-43267500D01*
X173585285Y-43172261D01*
X173585285Y-43029404D01*
X173632904Y-42934166D01*
X173966238Y-43362738D02*
X173918619Y-43267500D01*
X173918619Y-43077023D01*
X173966238Y-42981785D01*
X174013857Y-42934166D01*
X174109095Y-42886547D01*
X174394809Y-42886547D01*
X174490047Y-42934166D01*
X174537666Y-42981785D01*
X174585285Y-43077023D01*
X174585285Y-43267500D01*
X174537666Y-43362738D01*
X173918619Y-43838928D02*
X174918619Y-43838928D01*
X173918619Y-44267500D02*
X174442428Y-44267500D01*
X174537666Y-44219880D01*
X174585285Y-44124642D01*
X174585285Y-43981785D01*
X174537666Y-43886547D01*
X174490047Y-43838928D01*
X174918619Y-44600833D02*
X174918619Y-45172261D01*
X173918619Y-44886547D02*
X174918619Y-44886547D01*
X173966238Y-45886547D02*
X173918619Y-45791309D01*
X173918619Y-45600833D01*
X173966238Y-45505595D01*
X174061476Y-45457976D01*
X174442428Y-45457976D01*
X174537666Y-45505595D01*
X174585285Y-45600833D01*
X174585285Y-45791309D01*
X174537666Y-45886547D01*
X174442428Y-45934166D01*
X174347190Y-45934166D01*
X174251952Y-45457976D01*
X173918619Y-46362738D02*
X174585285Y-46362738D01*
X174490047Y-46362738D02*
X174537666Y-46410357D01*
X174585285Y-46505595D01*
X174585285Y-46648452D01*
X174537666Y-46743690D01*
X174442428Y-46791309D01*
X173918619Y-46791309D01*
X174442428Y-46791309D02*
X174537666Y-46838928D01*
X174585285Y-46934166D01*
X174585285Y-47077023D01*
X174537666Y-47172261D01*
X174442428Y-47219880D01*
X173918619Y-47219880D01*
X174585285Y-47696071D02*
X173585285Y-47696071D01*
X174537666Y-47696071D02*
X174585285Y-47791309D01*
X174585285Y-47981785D01*
X174537666Y-48077023D01*
X174490047Y-48124642D01*
X174394809Y-48172261D01*
X174109095Y-48172261D01*
X174013857Y-48124642D01*
X173966238Y-48077023D01*
X173918619Y-47981785D01*
X173918619Y-47791309D01*
X173966238Y-47696071D01*
X172283428Y-42527861D02*
X172235809Y-42670719D01*
X172188190Y-42718338D01*
X172092952Y-42765957D01*
X171950095Y-42765957D01*
X171854857Y-42718338D01*
X171807238Y-42670719D01*
X171759619Y-42575480D01*
X171759619Y-42194528D01*
X172759619Y-42194528D01*
X172759619Y-42527861D01*
X172712000Y-42623100D01*
X172664380Y-42670719D01*
X172569142Y-42718338D01*
X172473904Y-42718338D01*
X172378666Y-42670719D01*
X172331047Y-42623100D01*
X172283428Y-42527861D01*
X172283428Y-42194528D01*
X171759619Y-43623100D02*
X172283428Y-43623100D01*
X172378666Y-43575480D01*
X172426285Y-43480242D01*
X172426285Y-43289766D01*
X172378666Y-43194528D01*
X171807238Y-43623100D02*
X171759619Y-43527861D01*
X171759619Y-43289766D01*
X171807238Y-43194528D01*
X171902476Y-43146909D01*
X171997714Y-43146909D01*
X172092952Y-43194528D01*
X172140571Y-43289766D01*
X172140571Y-43527861D01*
X172188190Y-43623100D01*
X172426285Y-43956433D02*
X172426285Y-44337385D01*
X172759619Y-44099290D02*
X171902476Y-44099290D01*
X171807238Y-44146909D01*
X171759619Y-44242147D01*
X171759619Y-44337385D01*
X172759619Y-44527861D02*
X172759619Y-45099290D01*
X171759619Y-44813576D02*
X172759619Y-44813576D01*
X171807238Y-45813576D02*
X171759619Y-45718338D01*
X171759619Y-45527861D01*
X171807238Y-45432623D01*
X171902476Y-45385004D01*
X172283428Y-45385004D01*
X172378666Y-45432623D01*
X172426285Y-45527861D01*
X172426285Y-45718338D01*
X172378666Y-45813576D01*
X172283428Y-45861195D01*
X172188190Y-45861195D01*
X172092952Y-45385004D01*
X171759619Y-46289766D02*
X172426285Y-46289766D01*
X172331047Y-46289766D02*
X172378666Y-46337385D01*
X172426285Y-46432623D01*
X172426285Y-46575480D01*
X172378666Y-46670719D01*
X172283428Y-46718338D01*
X171759619Y-46718338D01*
X172283428Y-46718338D02*
X172378666Y-46765957D01*
X172426285Y-46861195D01*
X172426285Y-47004052D01*
X172378666Y-47099290D01*
X172283428Y-47146909D01*
X171759619Y-47146909D01*
X172426285Y-47623100D02*
X171426285Y-47623100D01*
X172378666Y-47623100D02*
X172426285Y-47718338D01*
X172426285Y-47908814D01*
X172378666Y-48004052D01*
X172331047Y-48051671D01*
X172235809Y-48099290D01*
X171950095Y-48099290D01*
X171854857Y-48051671D01*
X171807238Y-48004052D01*
X171759619Y-47908814D01*
X171759619Y-47718338D01*
X171807238Y-47623100D01*
D12*
X178645078Y-101652000D02*
X178127922Y-101652000D01*
X178645078Y-103072000D02*
X178127922Y-103072000D01*
X209571000Y-58223564D02*
X209571000Y-57019436D01*
X207751000Y-58223564D02*
X207751000Y-57019436D01*
X209571000Y-63848064D02*
X209571000Y-62643936D01*
X207751000Y-63848064D02*
X207751000Y-62643936D01*
X106405000Y-86229436D02*
X106405000Y-87433564D01*
X108225000Y-86229436D02*
X108225000Y-87433564D01*
X180204581Y-63713720D02*
G75*
G03X180204581Y-63713720I-23001J0D01*
G01*
X180494000Y-63414000D02*
X179986000Y-63414000D01*
X177700000Y-63414000D02*
X180494000Y-63414000D01*
X177700000Y-68494000D02*
X177700000Y-63414000D01*
X180494000Y-68494000D02*
X177700000Y-68494000D01*
X180494000Y-63414000D02*
X180494000Y-68494000D01*
X205560000Y-57411252D02*
X205560000Y-56888748D01*
X204140000Y-57411252D02*
X204140000Y-56888748D01*
X181846267Y-48240000D02*
X181503733Y-48240000D01*
X181846267Y-49260000D02*
X181503733Y-49260000D01*
X195072000Y-86106000D02*
X201422000Y-86106000D01*
X195072000Y-85852000D02*
X195072000Y-86106000D01*
X195072000Y-83058000D02*
X195072000Y-85852000D01*
X201422000Y-83058000D02*
X195072000Y-83058000D01*
X201422000Y-83058000D02*
X201422000Y-86106000D01*
X198374000Y-84074000D02*
X198374000Y-85090000D01*
X198374000Y-84582000D02*
X198374000Y-84074000D01*
X197866000Y-84582000D02*
X198374000Y-84582000D01*
X197866000Y-85090000D02*
X197866000Y-84582000D01*
X198374000Y-84582000D02*
X197866000Y-85090000D01*
X197866000Y-84074000D02*
X198374000Y-84582000D01*
X197866000Y-84582000D02*
X197866000Y-84074000D01*
X197358000Y-84582000D02*
X197866000Y-84582000D01*
X192786000Y-83058000D02*
X186436000Y-83058000D01*
X192786000Y-83312000D02*
X192786000Y-83058000D01*
X192786000Y-86106000D02*
X192786000Y-83312000D01*
X186436000Y-86106000D02*
X192786000Y-86106000D01*
X186436000Y-86106000D02*
X186436000Y-83058000D01*
X189484000Y-85090000D02*
X189484000Y-84074000D01*
X189484000Y-84582000D02*
X189484000Y-85090000D01*
X189992000Y-84582000D02*
X189484000Y-84582000D01*
X189992000Y-84074000D02*
X189992000Y-84582000D01*
X189484000Y-84582000D02*
X189992000Y-84074000D01*
X189992000Y-85090000D02*
X189484000Y-84582000D01*
X189992000Y-84582000D02*
X189992000Y-85090000D01*
X190500000Y-84582000D02*
X189992000Y-84582000D01*
X181693000Y-61741500D02*
X182753000Y-61741500D01*
X181693000Y-62801500D02*
X181693000Y-61741500D01*
X181693000Y-63801500D02*
X183813000Y-63801500D01*
X183813000Y-63801500D02*
X183813000Y-71861500D01*
X181693000Y-63801500D02*
X181693000Y-71861500D01*
X181693000Y-71861500D02*
X183813000Y-71861500D01*
X171152000Y-50653500D02*
X171152000Y-49593500D01*
X172212000Y-50653500D02*
X171152000Y-50653500D01*
X173212000Y-50653500D02*
X173212000Y-48533500D01*
X173212000Y-48533500D02*
X179272000Y-48533500D01*
X173212000Y-50653500D02*
X179272000Y-50653500D01*
X179272000Y-50653500D02*
X179272000Y-48533500D01*
X211486300Y-71176700D02*
X210426300Y-71176700D01*
X211486300Y-70116700D02*
X211486300Y-71176700D01*
X211486300Y-69116700D02*
X209366300Y-69116700D01*
X209366300Y-69116700D02*
X209366300Y-69056700D01*
X211486300Y-69116700D02*
X211486300Y-69056700D01*
X211486300Y-69056700D02*
X209366300Y-69056700D01*
X205411500Y-69491500D02*
X207211500Y-69491500D01*
X207211500Y-66271500D02*
X204761500Y-66271500D01*
X179768500Y-96199000D02*
X178438500Y-96199000D01*
X178438500Y-96199000D02*
X178438500Y-94869000D01*
X178438500Y-93599000D02*
X178438500Y-90999000D01*
X181098500Y-90999000D02*
X178438500Y-90999000D01*
X181098500Y-93599000D02*
X181098500Y-90999000D01*
X181098500Y-93599000D02*
X178438500Y-93599000D01*
X168795700Y-89614700D02*
X170125700Y-89614700D01*
X170125700Y-89614700D02*
X170125700Y-90944700D01*
X170125700Y-92214700D02*
X170125700Y-94814700D01*
X167465700Y-94814700D02*
X170125700Y-94814700D01*
X167465700Y-92214700D02*
X167465700Y-94814700D01*
X167465700Y-92214700D02*
X170125700Y-92214700D01*
X202520100Y-60801700D02*
X202520100Y-61861700D01*
X201460100Y-60801700D02*
X202520100Y-60801700D01*
X200460100Y-60801700D02*
X200460100Y-62921700D01*
X200460100Y-62921700D02*
X192400100Y-62921700D01*
X200460100Y-60801700D02*
X192400100Y-60801700D01*
X192400100Y-60801700D02*
X192400100Y-62921700D01*
X187103200Y-77883200D02*
X188163200Y-77883200D01*
X187103200Y-78943200D02*
X187103200Y-77883200D01*
X187103200Y-79943200D02*
X189223200Y-79943200D01*
X189223200Y-79943200D02*
X189223200Y-80003200D01*
X187103200Y-79943200D02*
X187103200Y-80003200D01*
X187103200Y-80003200D02*
X189223200Y-80003200D01*
X178819564Y-69384500D02*
X177615436Y-69384500D01*
X178819564Y-71204500D02*
X177615436Y-71204500D01*
X172752700Y-108153200D02*
X172752700Y-107093200D01*
X172752700Y-107093200D02*
X173812700Y-107093200D01*
X174812700Y-107093200D02*
X184872700Y-107093200D01*
X184872700Y-109213200D02*
X184872700Y-107093200D01*
X174812700Y-109213200D02*
X184872700Y-109213200D01*
X174812700Y-109213200D02*
X174812700Y-107093200D01*
X187219000Y-53878564D02*
X187219000Y-52674436D01*
X185399000Y-53878564D02*
X185399000Y-52674436D01*
X123896036Y-63457500D02*
X125100164Y-63457500D01*
X123896036Y-61637500D02*
X125100164Y-61637500D01*
X163620700Y-103973200D02*
X167980700Y-103973200D01*
X163620700Y-90093200D02*
X163620700Y-97093200D01*
X86340700Y-90093200D02*
X163620700Y-90093200D01*
X86340700Y-97093200D02*
X86340700Y-90093200D01*
X163620700Y-110973200D02*
X163620700Y-103973200D01*
X86340700Y-110973200D02*
X163620700Y-110973200D01*
X86340700Y-103973200D02*
X86340700Y-110953200D01*
X81230700Y-106533200D02*
X83730700Y-106533200D01*
X168730700Y-106533200D02*
X166230700Y-106533200D01*
X167480700Y-105283200D02*
X167480700Y-107783200D01*
X211260936Y-66209500D02*
X212465064Y-66209500D01*
X211260936Y-68029500D02*
X212465064Y-68029500D01*
X174150700Y-101491636D02*
X174150700Y-102695764D01*
X172330700Y-101491636D02*
X172330700Y-102695764D01*
X123666664Y-79459500D02*
X122462536Y-79459500D01*
X123666664Y-77639500D02*
X122462536Y-77639500D01*
X183506700Y-93263136D02*
X183506700Y-94467264D01*
X185326700Y-93263136D02*
X185326700Y-94467264D01*
X188840700Y-93263136D02*
X188840700Y-94467264D01*
X190660700Y-93263136D02*
X190660700Y-94467264D01*
X194098500Y-93301736D02*
X194098500Y-94505864D01*
X195918500Y-93301736D02*
X195918500Y-94505864D01*
X200978700Y-93263136D02*
X200978700Y-94467264D01*
X199158700Y-93263136D02*
X199158700Y-94467264D01*
X204334700Y-93256956D02*
X204334700Y-94461084D01*
X206154700Y-93256956D02*
X206154700Y-94461084D01*
X194151700Y-81654200D02*
X196271700Y-81654200D01*
X194151700Y-81594200D02*
X194151700Y-81654200D01*
X196271700Y-81594200D02*
X196271700Y-81654200D01*
X194151700Y-81594200D02*
X196271700Y-81594200D01*
X194151700Y-80594200D02*
X194151700Y-79534200D01*
X194151700Y-79534200D02*
X195211700Y-79534200D01*
X122103700Y-58693500D02*
X122103700Y-59753500D01*
X121043700Y-58693500D02*
X122103700Y-58693500D01*
X120043700Y-58693500D02*
X120043700Y-60813500D01*
X120043700Y-60813500D02*
X119983700Y-60813500D01*
X120043700Y-58693500D02*
X119983700Y-58693500D01*
X119983700Y-58693500D02*
X119983700Y-60813500D01*
X125514100Y-65989500D02*
X125514100Y-68649500D01*
X125514100Y-65989500D02*
X120374100Y-65989500D01*
X120374100Y-65989500D02*
X120374100Y-68649500D01*
X125514100Y-68649500D02*
X120374100Y-68649500D01*
X128114100Y-68649500D02*
X126784100Y-68649500D01*
X128114100Y-67319500D02*
X128114100Y-68649500D01*
X120417280Y-82669500D02*
X120417280Y-81339500D01*
X120417280Y-81339500D02*
X121747280Y-81339500D01*
X123017280Y-81339500D02*
X128157280Y-81339500D01*
X128157280Y-83999500D02*
X128157280Y-81339500D01*
X123017280Y-83999500D02*
X128157280Y-83999500D01*
X123017280Y-83999500D02*
X123017280Y-81339500D01*
X135630100Y-82879500D02*
X137750100Y-82879500D01*
X135630100Y-72819500D02*
X135630100Y-82879500D01*
X137750100Y-72819500D02*
X137750100Y-82879500D01*
X135630100Y-72819500D02*
X137750100Y-72819500D01*
X135630100Y-71819500D02*
X135630100Y-70759500D01*
X135630100Y-70759500D02*
X136690100Y-70759500D01*
X208401100Y-90943880D02*
X209461100Y-90943880D01*
X208401100Y-92003880D02*
X208401100Y-90943880D01*
X208401100Y-93003880D02*
X210521100Y-93003880D01*
X210521100Y-93003880D02*
X210521100Y-93063880D01*
X208401100Y-93003880D02*
X208401100Y-93063880D01*
X208401100Y-93063880D02*
X210521100Y-93063880D01*
X113443100Y-64258500D02*
X113443100Y-59058500D01*
X119043100Y-64658500D02*
X119043100Y-58058500D01*
X119043100Y-58058500D02*
X118643100Y-58058500D01*
X113443100Y-73640500D02*
X113843100Y-73640500D01*
X113443100Y-67040500D02*
X113443100Y-73640500D01*
X119043100Y-67440500D02*
X119043100Y-72640500D01*
X161650000Y-52329936D02*
X161650000Y-53534064D01*
X163470000Y-52329936D02*
X163470000Y-53534064D01*
X122626036Y-88222500D02*
X123830164Y-88222500D01*
X122626036Y-86402500D02*
X123830164Y-86402500D01*
X122388036Y-74409500D02*
X123592164Y-74409500D01*
X122388036Y-76229500D02*
X123592164Y-76229500D01*
X163470000Y-58643436D02*
X163470000Y-59847564D01*
X161650000Y-58643436D02*
X161650000Y-59847564D01*
X132393100Y-76550436D02*
X132393100Y-77754564D01*
X130573100Y-76550436D02*
X130573100Y-77754564D01*
X180700000Y-52256936D02*
X180700000Y-53461064D01*
X182520000Y-52256936D02*
X182520000Y-53461064D01*
X182520000Y-58098936D02*
X182520000Y-59303064D01*
X180700000Y-58098936D02*
X180700000Y-59303064D01*
X209444000Y-52572064D02*
X209444000Y-51367936D01*
X207624000Y-52572064D02*
X207624000Y-51367936D01*
X190987000Y-56799564D02*
X190987000Y-55595436D01*
X192807000Y-56799564D02*
X192807000Y-55595436D01*
X192807000Y-50921064D02*
X192807000Y-49716936D01*
X190987000Y-50921064D02*
X190987000Y-49716936D01*
X205634000Y-52518064D02*
X205634000Y-51313936D01*
X203814000Y-52518064D02*
X203814000Y-51313936D01*
X186173700Y-93263136D02*
X186173700Y-94467264D01*
X187993700Y-93263136D02*
X187993700Y-94467264D01*
X203814000Y-62289936D02*
X203814000Y-63494064D01*
X205634000Y-62289936D02*
X205634000Y-63494064D01*
X191634700Y-93263136D02*
X191634700Y-94467264D01*
X193454700Y-93263136D02*
X193454700Y-94467264D01*
X198407700Y-93263136D02*
X198407700Y-94467264D01*
X196587700Y-93263136D02*
X196587700Y-94467264D01*
X189632000Y-58479936D02*
X189632000Y-59684064D01*
X187812000Y-58479936D02*
X187812000Y-59684064D01*
X203500400Y-93263136D02*
X203500400Y-94467264D01*
X201680400Y-93263136D02*
X201680400Y-94467264D01*
X178320700Y-103487200D02*
X179820700Y-103487200D01*
X176820700Y-105707200D02*
X179820700Y-105707200D01*
X175399700Y-52824700D02*
X171949700Y-52824700D01*
X175399700Y-52824700D02*
X177349700Y-52824700D01*
X175399700Y-57944700D02*
X173449700Y-57944700D01*
X175399700Y-57944700D02*
X177349700Y-57944700D01*
X198399400Y-52850100D02*
X196449400Y-52850100D01*
X198399400Y-52850100D02*
X200349400Y-52850100D01*
X198399400Y-57970100D02*
X196449400Y-57970100D01*
X198399400Y-57970100D02*
X201849400Y-57970100D01*
D10*
X177919142Y-101290380D02*
X177585809Y-100814190D01*
X177347714Y-101290380D02*
X177347714Y-100290380D01*
X177728666Y-100290380D01*
X177823904Y-100338000D01*
X177871523Y-100385619D01*
X177919142Y-100480857D01*
X177919142Y-100623714D01*
X177871523Y-100718952D01*
X177823904Y-100766571D01*
X177728666Y-100814190D01*
X177347714Y-100814190D01*
X178871523Y-101290380D02*
X178300095Y-101290380D01*
X178585809Y-101290380D02*
X178585809Y-100290380D01*
X178490571Y-100433238D01*
X178395333Y-100528476D01*
X178300095Y-100576095D01*
X179728666Y-100290380D02*
X179538190Y-100290380D01*
X179442952Y-100338000D01*
X179395333Y-100385619D01*
X179300095Y-100528476D01*
X179252476Y-100718952D01*
X179252476Y-101099904D01*
X179300095Y-101195142D01*
X179347714Y-101242761D01*
X179442952Y-101290380D01*
X179633428Y-101290380D01*
X179728666Y-101242761D01*
X179776285Y-101195142D01*
X179823904Y-101099904D01*
X179823904Y-100861809D01*
X179776285Y-100766571D01*
X179728666Y-100718952D01*
X179633428Y-100671333D01*
X179442952Y-100671333D01*
X179347714Y-100718952D01*
X179300095Y-100766571D01*
X179252476Y-100861809D01*
X211145380Y-58391357D02*
X210669190Y-58724690D01*
X211145380Y-58962785D02*
X210145380Y-58962785D01*
X210145380Y-58581833D01*
X210193000Y-58486595D01*
X210240619Y-58438976D01*
X210335857Y-58391357D01*
X210478714Y-58391357D01*
X210573952Y-58438976D01*
X210621571Y-58486595D01*
X210669190Y-58581833D01*
X210669190Y-58962785D01*
X210240619Y-58010404D02*
X210193000Y-57962785D01*
X210145380Y-57867547D01*
X210145380Y-57629452D01*
X210193000Y-57534214D01*
X210240619Y-57486595D01*
X210335857Y-57438976D01*
X210431095Y-57438976D01*
X210573952Y-57486595D01*
X211145380Y-58058023D01*
X211145380Y-57438976D01*
X210478714Y-56581833D02*
X211145380Y-56581833D01*
X210097761Y-56819928D02*
X210812047Y-57058023D01*
X210812047Y-56438976D01*
X211145380Y-63761857D02*
X210669190Y-64095190D01*
X211145380Y-64333285D02*
X210145380Y-64333285D01*
X210145380Y-63952333D01*
X210193000Y-63857095D01*
X210240619Y-63809476D01*
X210335857Y-63761857D01*
X210478714Y-63761857D01*
X210573952Y-63809476D01*
X210621571Y-63857095D01*
X210669190Y-63952333D01*
X210669190Y-64333285D01*
X211145380Y-62809476D02*
X211145380Y-63380904D01*
X211145380Y-63095190D02*
X210145380Y-63095190D01*
X210288238Y-63190428D01*
X210383476Y-63285666D01*
X210431095Y-63380904D01*
X210145380Y-62190428D02*
X210145380Y-62095190D01*
X210193000Y-61999952D01*
X210240619Y-61952333D01*
X210335857Y-61904714D01*
X210526333Y-61857095D01*
X210764428Y-61857095D01*
X210954904Y-61904714D01*
X211050142Y-61952333D01*
X211097761Y-61999952D01*
X211145380Y-62095190D01*
X211145380Y-62190428D01*
X211097761Y-62285666D01*
X211050142Y-62333285D01*
X210954904Y-62380904D01*
X210764428Y-62428523D01*
X210526333Y-62428523D01*
X210335857Y-62380904D01*
X210240619Y-62333285D01*
X210193000Y-62285666D01*
X210145380Y-62190428D01*
X109587380Y-86998166D02*
X109111190Y-87331500D01*
X109587380Y-87569595D02*
X108587380Y-87569595D01*
X108587380Y-87188642D01*
X108635000Y-87093404D01*
X108682619Y-87045785D01*
X108777857Y-86998166D01*
X108920714Y-86998166D01*
X109015952Y-87045785D01*
X109063571Y-87093404D01*
X109111190Y-87188642D01*
X109111190Y-87569595D01*
X109587380Y-86045785D02*
X109587380Y-86617214D01*
X109587380Y-86331500D02*
X108587380Y-86331500D01*
X108730238Y-86426738D01*
X108825476Y-86521976D01*
X108873095Y-86617214D01*
X186304380Y-53761904D02*
X187113904Y-53761904D01*
X187209142Y-53714285D01*
X187256761Y-53666666D01*
X187304380Y-53571428D01*
X187304380Y-53380952D01*
X187256761Y-53285714D01*
X187209142Y-53238095D01*
X187113904Y-53190476D01*
X186304380Y-53190476D01*
X186304380Y-52809523D02*
X186304380Y-52142857D01*
X187304380Y-52571428D01*
X203652380Y-57792857D02*
X203176190Y-58126190D01*
X203652380Y-58364285D02*
X202652380Y-58364285D01*
X202652380Y-57983333D01*
X202700000Y-57888095D01*
X202747619Y-57840476D01*
X202842857Y-57792857D01*
X202985714Y-57792857D01*
X203080952Y-57840476D01*
X203128571Y-57888095D01*
X203176190Y-57983333D01*
X203176190Y-58364285D01*
X203652380Y-56840476D02*
X203652380Y-57411904D01*
X203652380Y-57126190D02*
X202652380Y-57126190D01*
X202795238Y-57221428D01*
X202890476Y-57316666D01*
X202938095Y-57411904D01*
X202985714Y-55983333D02*
X203652380Y-55983333D01*
X202604761Y-56221428D02*
X203319047Y-56459523D01*
X203319047Y-55840476D01*
X181107142Y-47652380D02*
X180773809Y-47176190D01*
X180535714Y-47652380D02*
X180535714Y-46652380D01*
X180916666Y-46652380D01*
X181011904Y-46700000D01*
X181059523Y-46747619D01*
X181107142Y-46842857D01*
X181107142Y-46985714D01*
X181059523Y-47080952D01*
X181011904Y-47128571D01*
X180916666Y-47176190D01*
X180535714Y-47176190D01*
X182059523Y-47652380D02*
X181488095Y-47652380D01*
X181773809Y-47652380D02*
X181773809Y-46652380D01*
X181678571Y-46795238D01*
X181583333Y-46890476D01*
X181488095Y-46938095D01*
X182392857Y-46652380D02*
X183059523Y-46652380D01*
X182630952Y-47652380D01*
X202867900Y-85619815D02*
X201867900Y-85619815D01*
X201867900Y-85381720D01*
X201915520Y-85238862D01*
X202010758Y-85143624D01*
X202105996Y-85096005D01*
X202296472Y-85048386D01*
X202439329Y-85048386D01*
X202629805Y-85096005D01*
X202725043Y-85143624D01*
X202820281Y-85238862D01*
X202867900Y-85381720D01*
X202867900Y-85619815D01*
X201963139Y-84667434D02*
X201915520Y-84619815D01*
X201867900Y-84524577D01*
X201867900Y-84286481D01*
X201915520Y-84191243D01*
X201963139Y-84143624D01*
X202058377Y-84096005D01*
X202153615Y-84096005D01*
X202296472Y-84143624D01*
X202867900Y-84715053D01*
X202867900Y-84096005D01*
X185894860Y-85020375D02*
X184894860Y-85020375D01*
X184894860Y-84782280D01*
X184942480Y-84639422D01*
X185037718Y-84544184D01*
X185132956Y-84496565D01*
X185323432Y-84448946D01*
X185466289Y-84448946D01*
X185656765Y-84496565D01*
X185752003Y-84544184D01*
X185847241Y-84639422D01*
X185894860Y-84782280D01*
X185894860Y-85020375D01*
X185894860Y-83496565D02*
X185894860Y-84067994D01*
X185894860Y-83782280D02*
X184894860Y-83782280D01*
X185037718Y-83877518D01*
X185132956Y-83972756D01*
X185180575Y-84067994D01*
X182165666Y-73429880D02*
X182165666Y-74144166D01*
X182118047Y-74287023D01*
X182022809Y-74382261D01*
X181879952Y-74429880D01*
X181784714Y-74429880D01*
X182689476Y-74429880D02*
X182879952Y-74429880D01*
X182975190Y-74382261D01*
X183022809Y-74334642D01*
X183118047Y-74191785D01*
X183165666Y-74001309D01*
X183165666Y-73620357D01*
X183118047Y-73525119D01*
X183070428Y-73477500D01*
X182975190Y-73429880D01*
X182784714Y-73429880D01*
X182689476Y-73477500D01*
X182641857Y-73525119D01*
X182594238Y-73620357D01*
X182594238Y-73858452D01*
X182641857Y-73953690D01*
X182689476Y-74001309D01*
X182784714Y-74048928D01*
X182975190Y-74048928D01*
X183070428Y-74001309D01*
X183118047Y-73953690D01*
X183165666Y-73858452D01*
X169604380Y-49926833D02*
X170318666Y-49926833D01*
X170461523Y-49974452D01*
X170556761Y-50069690D01*
X170604380Y-50212547D01*
X170604380Y-50307785D01*
X169604380Y-49545880D02*
X169604380Y-48926833D01*
X169985333Y-49260166D01*
X169985333Y-49117309D01*
X170032952Y-49022071D01*
X170080571Y-48974452D01*
X170175809Y-48926833D01*
X170413904Y-48926833D01*
X170509142Y-48974452D01*
X170556761Y-49022071D01*
X170604380Y-49117309D01*
X170604380Y-49403023D01*
X170556761Y-49498261D01*
X170509142Y-49545880D01*
X212518666Y-70064380D02*
X212518666Y-70778666D01*
X212471047Y-70921523D01*
X212375809Y-71016761D01*
X212232952Y-71064380D01*
X212137714Y-71064380D01*
X213518666Y-71064380D02*
X212947238Y-71064380D01*
X213232952Y-71064380D02*
X213232952Y-70064380D01*
X213137714Y-70207238D01*
X213042476Y-70302476D01*
X212947238Y-70350095D01*
X204533595Y-69937380D02*
X204533595Y-70746904D01*
X204581214Y-70842142D01*
X204628833Y-70889761D01*
X204724071Y-70937380D01*
X204914547Y-70937380D01*
X205009785Y-70889761D01*
X205057404Y-70842142D01*
X205105023Y-70746904D01*
X205105023Y-69937380D01*
X206105023Y-70937380D02*
X205533595Y-70937380D01*
X205819309Y-70937380D02*
X205819309Y-69937380D01*
X205724071Y-70080238D01*
X205628833Y-70175476D01*
X205533595Y-70223095D01*
X175950666Y-91400380D02*
X175950666Y-92114666D01*
X175903047Y-92257523D01*
X175807809Y-92352761D01*
X175664952Y-92400380D01*
X175569714Y-92400380D01*
X176426857Y-92400380D02*
X176426857Y-91400380D01*
X176807809Y-91400380D01*
X176903047Y-91448000D01*
X176950666Y-91495619D01*
X176998285Y-91590857D01*
X176998285Y-91733714D01*
X176950666Y-91828952D01*
X176903047Y-91876571D01*
X176807809Y-91924190D01*
X176426857Y-91924190D01*
X177379238Y-91495619D02*
X177426857Y-91448000D01*
X177522095Y-91400380D01*
X177760190Y-91400380D01*
X177855428Y-91448000D01*
X177903047Y-91495619D01*
X177950666Y-91590857D01*
X177950666Y-91686095D01*
X177903047Y-91828952D01*
X177331619Y-92400380D01*
X177950666Y-92400380D01*
X164774666Y-91654380D02*
X164774666Y-92368666D01*
X164727047Y-92511523D01*
X164631809Y-92606761D01*
X164488952Y-92654380D01*
X164393714Y-92654380D01*
X165250857Y-92654380D02*
X165250857Y-91654380D01*
X165631809Y-91654380D01*
X165727047Y-91702000D01*
X165774666Y-91749619D01*
X165822285Y-91844857D01*
X165822285Y-91987714D01*
X165774666Y-92082952D01*
X165727047Y-92130571D01*
X165631809Y-92178190D01*
X165250857Y-92178190D01*
X166774666Y-92654380D02*
X166203238Y-92654380D01*
X166488952Y-92654380D02*
X166488952Y-91654380D01*
X166393714Y-91797238D01*
X166298476Y-91892476D01*
X166203238Y-91940095D01*
X202972480Y-62195033D02*
X203686766Y-62195033D01*
X203829623Y-62242652D01*
X203924861Y-62337890D01*
X203972480Y-62480747D01*
X203972480Y-62575985D01*
X202972480Y-61242652D02*
X202972480Y-61718842D01*
X203448671Y-61766461D01*
X203401052Y-61718842D01*
X203353433Y-61623604D01*
X203353433Y-61385509D01*
X203401052Y-61290271D01*
X203448671Y-61242652D01*
X203543909Y-61195033D01*
X203782004Y-61195033D01*
X203877242Y-61242652D01*
X203924861Y-61290271D01*
X203972480Y-61385509D01*
X203972480Y-61623604D01*
X203924861Y-61718842D01*
X203877242Y-61766461D01*
X187829866Y-76335580D02*
X187829866Y-77049866D01*
X187782247Y-77192723D01*
X187687009Y-77287961D01*
X187544152Y-77335580D01*
X187448914Y-77335580D01*
X188734628Y-76668914D02*
X188734628Y-77335580D01*
X188496533Y-76287961D02*
X188258438Y-77002247D01*
X188877485Y-77002247D01*
X175236142Y-70810357D02*
X175283761Y-70857976D01*
X175331380Y-71000833D01*
X175331380Y-71096071D01*
X175283761Y-71238928D01*
X175188523Y-71334166D01*
X175093285Y-71381785D01*
X174902809Y-71429404D01*
X174759952Y-71429404D01*
X174569476Y-71381785D01*
X174474238Y-71334166D01*
X174379000Y-71238928D01*
X174331380Y-71096071D01*
X174331380Y-71000833D01*
X174379000Y-70857976D01*
X174426619Y-70810357D01*
X175331380Y-69857976D02*
X175331380Y-70429404D01*
X175331380Y-70143690D02*
X174331380Y-70143690D01*
X174474238Y-70238928D01*
X174569476Y-70334166D01*
X174617095Y-70429404D01*
X174331380Y-69238928D02*
X174331380Y-69143690D01*
X174379000Y-69048452D01*
X174426619Y-69000833D01*
X174521857Y-68953214D01*
X174712333Y-68905595D01*
X174950428Y-68905595D01*
X175140904Y-68953214D01*
X175236142Y-69000833D01*
X175283761Y-69048452D01*
X175331380Y-69143690D01*
X175331380Y-69238928D01*
X175283761Y-69334166D01*
X175236142Y-69381785D01*
X175140904Y-69429404D01*
X174950428Y-69477023D01*
X174712333Y-69477023D01*
X174521857Y-69429404D01*
X174426619Y-69381785D01*
X174379000Y-69334166D01*
X174331380Y-69238928D01*
X170765080Y-108486533D02*
X171479366Y-108486533D01*
X171622223Y-108534152D01*
X171717461Y-108629390D01*
X171765080Y-108772247D01*
X171765080Y-108867485D01*
X170860319Y-108057961D02*
X170812700Y-108010342D01*
X170765080Y-107915104D01*
X170765080Y-107677009D01*
X170812700Y-107581771D01*
X170860319Y-107534152D01*
X170955557Y-107486533D01*
X171050795Y-107486533D01*
X171193652Y-107534152D01*
X171765080Y-108105580D01*
X171765080Y-107486533D01*
X184846142Y-53443166D02*
X184893761Y-53490785D01*
X184941380Y-53633642D01*
X184941380Y-53728880D01*
X184893761Y-53871738D01*
X184798523Y-53966976D01*
X184703285Y-54014595D01*
X184512809Y-54062214D01*
X184369952Y-54062214D01*
X184179476Y-54014595D01*
X184084238Y-53966976D01*
X183989000Y-53871738D01*
X183941380Y-53728880D01*
X183941380Y-53633642D01*
X183989000Y-53490785D01*
X184036619Y-53443166D01*
X184941380Y-52966976D02*
X184941380Y-52776500D01*
X184893761Y-52681261D01*
X184846142Y-52633642D01*
X184703285Y-52538404D01*
X184512809Y-52490785D01*
X184131857Y-52490785D01*
X184036619Y-52538404D01*
X183989000Y-52586023D01*
X183941380Y-52681261D01*
X183941380Y-52871738D01*
X183989000Y-52966976D01*
X184036619Y-53014595D01*
X184131857Y-53062214D01*
X184369952Y-53062214D01*
X184465190Y-53014595D01*
X184512809Y-52966976D01*
X184560428Y-52871738D01*
X184560428Y-52681261D01*
X184512809Y-52586023D01*
X184465190Y-52538404D01*
X184369952Y-52490785D01*
X128506480Y-62714166D02*
X128030290Y-63047500D01*
X128506480Y-63285595D02*
X127506480Y-63285595D01*
X127506480Y-62904642D01*
X127554100Y-62809404D01*
X127601719Y-62761785D01*
X127696957Y-62714166D01*
X127839814Y-62714166D01*
X127935052Y-62761785D01*
X127982671Y-62809404D01*
X128030290Y-62904642D01*
X128030290Y-63285595D01*
X127839814Y-61857023D02*
X128506480Y-61857023D01*
X127458861Y-62095119D02*
X128173147Y-62333214D01*
X128173147Y-61714166D01*
X124194985Y-111961771D02*
X124337842Y-112009390D01*
X124385461Y-112057009D01*
X124433080Y-112152247D01*
X124433080Y-112295104D01*
X124385461Y-112390342D01*
X124337842Y-112437961D01*
X124242604Y-112485580D01*
X123861652Y-112485580D01*
X123861652Y-111485580D01*
X124194985Y-111485580D01*
X124290223Y-111533200D01*
X124337842Y-111580819D01*
X124385461Y-111676057D01*
X124385461Y-111771295D01*
X124337842Y-111866533D01*
X124290223Y-111914152D01*
X124194985Y-111961771D01*
X123861652Y-111961771D01*
X124718795Y-111485580D02*
X125290223Y-111485580D01*
X125004509Y-112485580D02*
X125004509Y-111485580D01*
X126147366Y-112485580D02*
X125575938Y-112485580D01*
X125861652Y-112485580D02*
X125861652Y-111485580D01*
X125766414Y-111628438D01*
X125671176Y-111723676D01*
X125575938Y-111771295D01*
X215179242Y-67692566D02*
X215226861Y-67740185D01*
X215274480Y-67883042D01*
X215274480Y-67978280D01*
X215226861Y-68121138D01*
X215131623Y-68216376D01*
X215036385Y-68263995D01*
X214845909Y-68311614D01*
X214703052Y-68311614D01*
X214512576Y-68263995D01*
X214417338Y-68216376D01*
X214322100Y-68121138D01*
X214274480Y-67978280D01*
X214274480Y-67883042D01*
X214322100Y-67740185D01*
X214369719Y-67692566D01*
X215274480Y-66740185D02*
X215274480Y-67311614D01*
X215274480Y-67025900D02*
X214274480Y-67025900D01*
X214417338Y-67121138D01*
X214512576Y-67216376D01*
X214560195Y-67311614D01*
X173074033Y-99366342D02*
X173026414Y-99413961D01*
X172883557Y-99461580D01*
X172788319Y-99461580D01*
X172645461Y-99413961D01*
X172550223Y-99318723D01*
X172502604Y-99223485D01*
X172454985Y-99033009D01*
X172454985Y-98890152D01*
X172502604Y-98699676D01*
X172550223Y-98604438D01*
X172645461Y-98509200D01*
X172788319Y-98461580D01*
X172883557Y-98461580D01*
X173026414Y-98509200D01*
X173074033Y-98556819D01*
X173454985Y-98556819D02*
X173502604Y-98509200D01*
X173597842Y-98461580D01*
X173835938Y-98461580D01*
X173931176Y-98509200D01*
X173978795Y-98556819D01*
X174026414Y-98652057D01*
X174026414Y-98747295D01*
X173978795Y-98890152D01*
X173407366Y-99461580D01*
X174026414Y-99461580D01*
X125845957Y-78509833D02*
X125798338Y-78462214D01*
X125750719Y-78319357D01*
X125750719Y-78224119D01*
X125798338Y-78081261D01*
X125893576Y-77986023D01*
X125988814Y-77938404D01*
X126179290Y-77890785D01*
X126322147Y-77890785D01*
X126512623Y-77938404D01*
X126607861Y-77986023D01*
X126703100Y-78081261D01*
X126750719Y-78224119D01*
X126750719Y-78319357D01*
X126703100Y-78462214D01*
X126655480Y-78509833D01*
X126750719Y-78843166D02*
X126750719Y-79462214D01*
X126369766Y-79128880D01*
X126369766Y-79271738D01*
X126322147Y-79366976D01*
X126274528Y-79414595D01*
X126179290Y-79462214D01*
X125941195Y-79462214D01*
X125845957Y-79414595D01*
X125798338Y-79366976D01*
X125750719Y-79271738D01*
X125750719Y-78986023D01*
X125798338Y-78890785D01*
X125845957Y-78843166D01*
X184570642Y-97550266D02*
X184618261Y-97597885D01*
X184665880Y-97740742D01*
X184665880Y-97835980D01*
X184618261Y-97978838D01*
X184523023Y-98074076D01*
X184427785Y-98121695D01*
X184237309Y-98169314D01*
X184094452Y-98169314D01*
X183903976Y-98121695D01*
X183808738Y-98074076D01*
X183713500Y-97978838D01*
X183665880Y-97835980D01*
X183665880Y-97740742D01*
X183713500Y-97597885D01*
X183761119Y-97550266D01*
X183999214Y-96693123D02*
X184665880Y-96693123D01*
X183618261Y-96931219D02*
X184332547Y-97169314D01*
X184332547Y-96550266D01*
X190158642Y-97550266D02*
X190206261Y-97597885D01*
X190253880Y-97740742D01*
X190253880Y-97835980D01*
X190206261Y-97978838D01*
X190111023Y-98074076D01*
X190015785Y-98121695D01*
X189825309Y-98169314D01*
X189682452Y-98169314D01*
X189491976Y-98121695D01*
X189396738Y-98074076D01*
X189301500Y-97978838D01*
X189253880Y-97835980D01*
X189253880Y-97740742D01*
X189301500Y-97597885D01*
X189349119Y-97550266D01*
X189253880Y-96645504D02*
X189253880Y-97121695D01*
X189730071Y-97169314D01*
X189682452Y-97121695D01*
X189634833Y-97026457D01*
X189634833Y-96788361D01*
X189682452Y-96693123D01*
X189730071Y-96645504D01*
X189825309Y-96597885D01*
X190063404Y-96597885D01*
X190158642Y-96645504D01*
X190206261Y-96693123D01*
X190253880Y-96788361D01*
X190253880Y-97026457D01*
X190206261Y-97121695D01*
X190158642Y-97169314D01*
X195505342Y-97486766D02*
X195552961Y-97534385D01*
X195600580Y-97677242D01*
X195600580Y-97772480D01*
X195552961Y-97915338D01*
X195457723Y-98010576D01*
X195362485Y-98058195D01*
X195172009Y-98105814D01*
X195029152Y-98105814D01*
X194838676Y-98058195D01*
X194743438Y-98010576D01*
X194648200Y-97915338D01*
X194600580Y-97772480D01*
X194600580Y-97677242D01*
X194648200Y-97534385D01*
X194695819Y-97486766D01*
X194600580Y-96629623D02*
X194600580Y-96820100D01*
X194648200Y-96915338D01*
X194695819Y-96962957D01*
X194838676Y-97058195D01*
X195029152Y-97105814D01*
X195410104Y-97105814D01*
X195505342Y-97058195D01*
X195552961Y-97010576D01*
X195600580Y-96915338D01*
X195600580Y-96724861D01*
X195552961Y-96629623D01*
X195505342Y-96582004D01*
X195410104Y-96534385D01*
X195172009Y-96534385D01*
X195076771Y-96582004D01*
X195029152Y-96629623D01*
X194981533Y-96724861D01*
X194981533Y-96915338D01*
X195029152Y-97010576D01*
X195076771Y-97058195D01*
X195172009Y-97105814D01*
X200705242Y-97702166D02*
X200752861Y-97749785D01*
X200800480Y-97892642D01*
X200800480Y-97987880D01*
X200752861Y-98130738D01*
X200657623Y-98225976D01*
X200562385Y-98273595D01*
X200371909Y-98321214D01*
X200229052Y-98321214D01*
X200038576Y-98273595D01*
X199943338Y-98225976D01*
X199848100Y-98130738D01*
X199800480Y-97987880D01*
X199800480Y-97892642D01*
X199848100Y-97749785D01*
X199895719Y-97702166D01*
X199800480Y-97368833D02*
X199800480Y-96702166D01*
X200800480Y-97130738D01*
X205688202Y-97555346D02*
X205735821Y-97602965D01*
X205783440Y-97745822D01*
X205783440Y-97841060D01*
X205735821Y-97983918D01*
X205640583Y-98079156D01*
X205545345Y-98126775D01*
X205354869Y-98174394D01*
X205212012Y-98174394D01*
X205021536Y-98126775D01*
X204926298Y-98079156D01*
X204831060Y-97983918D01*
X204783440Y-97841060D01*
X204783440Y-97745822D01*
X204831060Y-97602965D01*
X204878679Y-97555346D01*
X205212012Y-96983918D02*
X205164393Y-97079156D01*
X205116774Y-97126775D01*
X205021536Y-97174394D01*
X204973917Y-97174394D01*
X204878679Y-97126775D01*
X204831060Y-97079156D01*
X204783440Y-96983918D01*
X204783440Y-96793441D01*
X204831060Y-96698203D01*
X204878679Y-96650584D01*
X204973917Y-96602965D01*
X205021536Y-96602965D01*
X205116774Y-96650584D01*
X205164393Y-96698203D01*
X205212012Y-96793441D01*
X205212012Y-96983918D01*
X205259631Y-97079156D01*
X205307250Y-97126775D01*
X205402488Y-97174394D01*
X205592964Y-97174394D01*
X205688202Y-97126775D01*
X205735821Y-97079156D01*
X205783440Y-96983918D01*
X205783440Y-96793441D01*
X205735821Y-96698203D01*
X205688202Y-96650584D01*
X205592964Y-96602965D01*
X205402488Y-96602965D01*
X205307250Y-96650584D01*
X205259631Y-96698203D01*
X205212012Y-96793441D01*
X194045033Y-78891342D02*
X193997414Y-78938961D01*
X193854557Y-78986580D01*
X193759319Y-78986580D01*
X193616461Y-78938961D01*
X193521223Y-78843723D01*
X193473604Y-78748485D01*
X193425985Y-78558009D01*
X193425985Y-78415152D01*
X193473604Y-78224676D01*
X193521223Y-78129438D01*
X193616461Y-78034200D01*
X193759319Y-77986580D01*
X193854557Y-77986580D01*
X193997414Y-78034200D01*
X194045033Y-78081819D01*
X194473604Y-78986580D02*
X194473604Y-77986580D01*
X194711700Y-77986580D01*
X194854557Y-78034200D01*
X194949795Y-78129438D01*
X194997414Y-78224676D01*
X195045033Y-78415152D01*
X195045033Y-78558009D01*
X194997414Y-78748485D01*
X194949795Y-78843723D01*
X194854557Y-78938961D01*
X194711700Y-78986580D01*
X194473604Y-78986580D01*
X196045033Y-78986580D02*
X195711700Y-78510390D01*
X195473604Y-78986580D02*
X195473604Y-77986580D01*
X195854557Y-77986580D01*
X195949795Y-78034200D01*
X195997414Y-78081819D01*
X196045033Y-78177057D01*
X196045033Y-78319914D01*
X195997414Y-78415152D01*
X195949795Y-78462771D01*
X195854557Y-78510390D01*
X195473604Y-78510390D01*
X196997414Y-78986580D02*
X196425985Y-78986580D01*
X196711700Y-78986580D02*
X196711700Y-77986580D01*
X196616461Y-78129438D01*
X196521223Y-78224676D01*
X196425985Y-78272295D01*
X122347100Y-60508995D02*
X122299480Y-60604233D01*
X122299480Y-60747090D01*
X122347100Y-60889947D01*
X122442338Y-60985185D01*
X122537576Y-61032804D01*
X122728052Y-61080423D01*
X122870909Y-61080423D01*
X123061385Y-61032804D01*
X123156623Y-60985185D01*
X123251861Y-60889947D01*
X123299480Y-60747090D01*
X123299480Y-60651852D01*
X123251861Y-60508995D01*
X123204242Y-60461376D01*
X122870909Y-60461376D01*
X122870909Y-60651852D01*
X123299480Y-60032804D02*
X122299480Y-60032804D01*
X123299480Y-59461376D01*
X122299480Y-59461376D01*
X123299480Y-58985185D02*
X122299480Y-58985185D01*
X122299480Y-58747090D01*
X122347100Y-58604233D01*
X122442338Y-58508995D01*
X122537576Y-58461376D01*
X122728052Y-58413757D01*
X122870909Y-58413757D01*
X123061385Y-58461376D01*
X123156623Y-58508995D01*
X123251861Y-58604233D01*
X123299480Y-58747090D01*
X123299480Y-58985185D01*
X123299480Y-57461376D02*
X123299480Y-58032804D01*
X123299480Y-57747090D02*
X122299480Y-57747090D01*
X122442338Y-57842328D01*
X122537576Y-57937566D01*
X122585195Y-58032804D01*
X129006480Y-67652833D02*
X129720766Y-67652833D01*
X129863623Y-67700452D01*
X129958861Y-67795690D01*
X130006480Y-67938547D01*
X130006480Y-68033785D01*
X129006480Y-66748071D02*
X129006480Y-66938547D01*
X129054100Y-67033785D01*
X129101719Y-67081404D01*
X129244576Y-67176642D01*
X129435052Y-67224261D01*
X129816004Y-67224261D01*
X129911242Y-67176642D01*
X129958861Y-67129023D01*
X130006480Y-67033785D01*
X130006480Y-66843309D01*
X129958861Y-66748071D01*
X129911242Y-66700452D01*
X129816004Y-66652833D01*
X129577909Y-66652833D01*
X129482671Y-66700452D01*
X129435052Y-66748071D01*
X129387433Y-66843309D01*
X129387433Y-67033785D01*
X129435052Y-67129023D01*
X129482671Y-67176642D01*
X129577909Y-67224261D01*
X128743460Y-83020493D02*
X129457746Y-83020493D01*
X129600603Y-83068112D01*
X129695841Y-83163350D01*
X129743460Y-83306207D01*
X129743460Y-83401445D01*
X128743460Y-82639540D02*
X128743460Y-81972874D01*
X129743460Y-82401445D01*
X136356766Y-69211880D02*
X136356766Y-69926166D01*
X136309147Y-70069023D01*
X136213909Y-70164261D01*
X136071052Y-70211880D01*
X135975814Y-70211880D01*
X136975814Y-69640452D02*
X136880576Y-69592833D01*
X136832957Y-69545214D01*
X136785338Y-69449976D01*
X136785338Y-69402357D01*
X136832957Y-69307119D01*
X136880576Y-69259500D01*
X136975814Y-69211880D01*
X137166290Y-69211880D01*
X137261528Y-69259500D01*
X137309147Y-69307119D01*
X137356766Y-69402357D01*
X137356766Y-69449976D01*
X137309147Y-69545214D01*
X137261528Y-69592833D01*
X137166290Y-69640452D01*
X136975814Y-69640452D01*
X136880576Y-69688071D01*
X136832957Y-69735690D01*
X136785338Y-69830928D01*
X136785338Y-70021404D01*
X136832957Y-70116642D01*
X136880576Y-70164261D01*
X136975814Y-70211880D01*
X137166290Y-70211880D01*
X137261528Y-70164261D01*
X137309147Y-70116642D01*
X137356766Y-70021404D01*
X137356766Y-69830928D01*
X137309147Y-69735690D01*
X137261528Y-69688071D01*
X137166290Y-69640452D01*
X207651576Y-90396260D02*
X207651576Y-89396260D01*
X207984909Y-90110546D01*
X208318242Y-89396260D01*
X208318242Y-90396260D01*
X208794433Y-90396260D02*
X208794433Y-89396260D01*
X209175385Y-89396260D01*
X209270623Y-89443880D01*
X209318242Y-89491499D01*
X209365861Y-89586737D01*
X209365861Y-89729594D01*
X209318242Y-89824832D01*
X209270623Y-89872451D01*
X209175385Y-89920070D01*
X208794433Y-89920070D01*
X210127766Y-89872451D02*
X210270623Y-89920070D01*
X210318242Y-89967689D01*
X210365861Y-90062927D01*
X210365861Y-90205784D01*
X210318242Y-90301022D01*
X210270623Y-90348641D01*
X210175385Y-90396260D01*
X209794433Y-90396260D01*
X209794433Y-89396260D01*
X210127766Y-89396260D01*
X210223004Y-89443880D01*
X210270623Y-89491499D01*
X210318242Y-89586737D01*
X210318242Y-89681975D01*
X210270623Y-89777213D01*
X210223004Y-89824832D01*
X210127766Y-89872451D01*
X209794433Y-89872451D01*
X211318242Y-90396260D02*
X210746814Y-90396260D01*
X211032528Y-90396260D02*
X211032528Y-89396260D01*
X210937290Y-89539118D01*
X210842052Y-89634356D01*
X210746814Y-89681975D01*
X120905519Y-63417438D02*
X120857900Y-63512676D01*
X120762661Y-63607914D01*
X120619804Y-63750771D01*
X120572185Y-63846009D01*
X120572185Y-63941247D01*
X120810280Y-63893628D02*
X120762661Y-63988866D01*
X120667423Y-64084104D01*
X120476947Y-64131723D01*
X120143614Y-64131723D01*
X119953138Y-64084104D01*
X119857900Y-63988866D01*
X119810280Y-63893628D01*
X119810280Y-63703152D01*
X119857900Y-63607914D01*
X119953138Y-63512676D01*
X120143614Y-63465057D01*
X120476947Y-63465057D01*
X120667423Y-63512676D01*
X120762661Y-63607914D01*
X120810280Y-63703152D01*
X120810280Y-63893628D01*
X120810280Y-62512676D02*
X120810280Y-63084104D01*
X120810280Y-62798390D02*
X119810280Y-62798390D01*
X119953138Y-62893628D01*
X120048376Y-62988866D01*
X120095995Y-63084104D01*
X120790719Y-70135738D02*
X120743100Y-70230976D01*
X120647861Y-70326214D01*
X120505004Y-70469071D01*
X120457385Y-70564309D01*
X120457385Y-70659547D01*
X120695480Y-70611928D02*
X120647861Y-70707166D01*
X120552623Y-70802404D01*
X120362147Y-70850023D01*
X120028814Y-70850023D01*
X119838338Y-70802404D01*
X119743100Y-70707166D01*
X119695480Y-70611928D01*
X119695480Y-70421452D01*
X119743100Y-70326214D01*
X119838338Y-70230976D01*
X120028814Y-70183357D01*
X120362147Y-70183357D01*
X120552623Y-70230976D01*
X120647861Y-70326214D01*
X120695480Y-70421452D01*
X120695480Y-70611928D01*
X119790719Y-69802404D02*
X119743100Y-69754785D01*
X119695480Y-69659547D01*
X119695480Y-69421452D01*
X119743100Y-69326214D01*
X119790719Y-69278595D01*
X119885957Y-69230976D01*
X119981195Y-69230976D01*
X120124052Y-69278595D01*
X120695480Y-69850023D01*
X120695480Y-69230976D01*
X164832380Y-53098666D02*
X164356190Y-53432000D01*
X164832380Y-53670095D02*
X163832380Y-53670095D01*
X163832380Y-53289142D01*
X163880000Y-53193904D01*
X163927619Y-53146285D01*
X164022857Y-53098666D01*
X164165714Y-53098666D01*
X164260952Y-53146285D01*
X164308571Y-53193904D01*
X164356190Y-53289142D01*
X164356190Y-53670095D01*
X163927619Y-52717714D02*
X163880000Y-52670095D01*
X163832380Y-52574857D01*
X163832380Y-52336761D01*
X163880000Y-52241523D01*
X163927619Y-52193904D01*
X164022857Y-52146285D01*
X164118095Y-52146285D01*
X164260952Y-52193904D01*
X164832380Y-52765333D01*
X164832380Y-52146285D01*
X127490480Y-87352166D02*
X127014290Y-87685500D01*
X127490480Y-87923595D02*
X126490480Y-87923595D01*
X126490480Y-87542642D01*
X126538100Y-87447404D01*
X126585719Y-87399785D01*
X126680957Y-87352166D01*
X126823814Y-87352166D01*
X126919052Y-87399785D01*
X126966671Y-87447404D01*
X127014290Y-87542642D01*
X127014290Y-87923595D01*
X126490480Y-87018833D02*
X126490480Y-86399785D01*
X126871433Y-86733119D01*
X126871433Y-86590261D01*
X126919052Y-86495023D01*
X126966671Y-86447404D01*
X127061909Y-86399785D01*
X127300004Y-86399785D01*
X127395242Y-86447404D01*
X127442861Y-86495023D01*
X127490480Y-86590261D01*
X127490480Y-86875976D01*
X127442861Y-86971214D01*
X127395242Y-87018833D01*
X126490480Y-75486166D02*
X126014290Y-75819500D01*
X126490480Y-76057595D02*
X125490480Y-76057595D01*
X125490480Y-75676642D01*
X125538100Y-75581404D01*
X125585719Y-75533785D01*
X125680957Y-75486166D01*
X125823814Y-75486166D01*
X125919052Y-75533785D01*
X125966671Y-75581404D01*
X126014290Y-75676642D01*
X126014290Y-76057595D01*
X125490480Y-74581404D02*
X125490480Y-75057595D01*
X125966671Y-75105214D01*
X125919052Y-75057595D01*
X125871433Y-74962357D01*
X125871433Y-74724261D01*
X125919052Y-74629023D01*
X125966671Y-74581404D01*
X126061909Y-74533785D01*
X126300004Y-74533785D01*
X126395242Y-74581404D01*
X126442861Y-74629023D01*
X126490480Y-74724261D01*
X126490480Y-74962357D01*
X126442861Y-75057595D01*
X126395242Y-75105214D01*
X164832380Y-59412166D02*
X164356190Y-59745500D01*
X164832380Y-59983595D02*
X163832380Y-59983595D01*
X163832380Y-59602642D01*
X163880000Y-59507404D01*
X163927619Y-59459785D01*
X164022857Y-59412166D01*
X164165714Y-59412166D01*
X164260952Y-59459785D01*
X164308571Y-59507404D01*
X164356190Y-59602642D01*
X164356190Y-59983595D01*
X163832380Y-58555023D02*
X163832380Y-58745500D01*
X163880000Y-58840738D01*
X163927619Y-58888357D01*
X164070476Y-58983595D01*
X164260952Y-59031214D01*
X164641904Y-59031214D01*
X164737142Y-58983595D01*
X164784761Y-58935976D01*
X164832380Y-58840738D01*
X164832380Y-58650261D01*
X164784761Y-58555023D01*
X164737142Y-58507404D01*
X164641904Y-58459785D01*
X164403809Y-58459785D01*
X164308571Y-58507404D01*
X164260952Y-58555023D01*
X164213333Y-58650261D01*
X164213333Y-58840738D01*
X164260952Y-58935976D01*
X164308571Y-58983595D01*
X164403809Y-59031214D01*
X133755480Y-77319166D02*
X133279290Y-77652500D01*
X133755480Y-77890595D02*
X132755480Y-77890595D01*
X132755480Y-77509642D01*
X132803100Y-77414404D01*
X132850719Y-77366785D01*
X132945957Y-77319166D01*
X133088814Y-77319166D01*
X133184052Y-77366785D01*
X133231671Y-77414404D01*
X133279290Y-77509642D01*
X133279290Y-77890595D01*
X132755480Y-76985833D02*
X132755480Y-76319166D01*
X133755480Y-76747738D01*
X183882380Y-53025666D02*
X183406190Y-53359000D01*
X183882380Y-53597095D02*
X182882380Y-53597095D01*
X182882380Y-53216142D01*
X182930000Y-53120904D01*
X182977619Y-53073285D01*
X183072857Y-53025666D01*
X183215714Y-53025666D01*
X183310952Y-53073285D01*
X183358571Y-53120904D01*
X183406190Y-53216142D01*
X183406190Y-53597095D01*
X183310952Y-52454238D02*
X183263333Y-52549476D01*
X183215714Y-52597095D01*
X183120476Y-52644714D01*
X183072857Y-52644714D01*
X182977619Y-52597095D01*
X182930000Y-52549476D01*
X182882380Y-52454238D01*
X182882380Y-52263761D01*
X182930000Y-52168523D01*
X182977619Y-52120904D01*
X183072857Y-52073285D01*
X183120476Y-52073285D01*
X183215714Y-52120904D01*
X183263333Y-52168523D01*
X183310952Y-52263761D01*
X183310952Y-52454238D01*
X183358571Y-52549476D01*
X183406190Y-52597095D01*
X183501428Y-52644714D01*
X183691904Y-52644714D01*
X183787142Y-52597095D01*
X183834761Y-52549476D01*
X183882380Y-52454238D01*
X183882380Y-52263761D01*
X183834761Y-52168523D01*
X183787142Y-52120904D01*
X183691904Y-52073285D01*
X183501428Y-52073285D01*
X183406190Y-52120904D01*
X183358571Y-52168523D01*
X183310952Y-52263761D01*
X183882380Y-58867666D02*
X183406190Y-59201000D01*
X183882380Y-59439095D02*
X182882380Y-59439095D01*
X182882380Y-59058142D01*
X182930000Y-58962904D01*
X182977619Y-58915285D01*
X183072857Y-58867666D01*
X183215714Y-58867666D01*
X183310952Y-58915285D01*
X183358571Y-58962904D01*
X183406190Y-59058142D01*
X183406190Y-59439095D01*
X183882380Y-58391476D02*
X183882380Y-58201000D01*
X183834761Y-58105761D01*
X183787142Y-58058142D01*
X183644285Y-57962904D01*
X183453809Y-57915285D01*
X183072857Y-57915285D01*
X182977619Y-57962904D01*
X182930000Y-58010523D01*
X182882380Y-58105761D01*
X182882380Y-58296238D01*
X182930000Y-58391476D01*
X182977619Y-58439095D01*
X183072857Y-58486714D01*
X183310952Y-58486714D01*
X183406190Y-58439095D01*
X183453809Y-58391476D01*
X183501428Y-58296238D01*
X183501428Y-58105761D01*
X183453809Y-58010523D01*
X183406190Y-57962904D01*
X183310952Y-57915285D01*
X207166380Y-52612857D02*
X206690190Y-52946190D01*
X207166380Y-53184285D02*
X206166380Y-53184285D01*
X206166380Y-52803333D01*
X206214000Y-52708095D01*
X206261619Y-52660476D01*
X206356857Y-52612857D01*
X206499714Y-52612857D01*
X206594952Y-52660476D01*
X206642571Y-52708095D01*
X206690190Y-52803333D01*
X206690190Y-53184285D01*
X207166380Y-51660476D02*
X207166380Y-52231904D01*
X207166380Y-51946190D02*
X206166380Y-51946190D01*
X206309238Y-52041428D01*
X206404476Y-52136666D01*
X206452095Y-52231904D01*
X207166380Y-50708095D02*
X207166380Y-51279523D01*
X207166380Y-50993809D02*
X206166380Y-50993809D01*
X206309238Y-51089047D01*
X206404476Y-51184285D01*
X206452095Y-51279523D01*
X194381380Y-56586357D02*
X193905190Y-56919690D01*
X194381380Y-57157785D02*
X193381380Y-57157785D01*
X193381380Y-56776833D01*
X193429000Y-56681595D01*
X193476619Y-56633976D01*
X193571857Y-56586357D01*
X193714714Y-56586357D01*
X193809952Y-56633976D01*
X193857571Y-56681595D01*
X193905190Y-56776833D01*
X193905190Y-57157785D01*
X194381380Y-55633976D02*
X194381380Y-56205404D01*
X194381380Y-55919690D02*
X193381380Y-55919690D01*
X193524238Y-56014928D01*
X193619476Y-56110166D01*
X193667095Y-56205404D01*
X193476619Y-55253023D02*
X193429000Y-55205404D01*
X193381380Y-55110166D01*
X193381380Y-54872071D01*
X193429000Y-54776833D01*
X193476619Y-54729214D01*
X193571857Y-54681595D01*
X193667095Y-54681595D01*
X193809952Y-54729214D01*
X194381380Y-55300642D01*
X194381380Y-54681595D01*
X190529380Y-50961857D02*
X190053190Y-51295190D01*
X190529380Y-51533285D02*
X189529380Y-51533285D01*
X189529380Y-51152333D01*
X189577000Y-51057095D01*
X189624619Y-51009476D01*
X189719857Y-50961857D01*
X189862714Y-50961857D01*
X189957952Y-51009476D01*
X190005571Y-51057095D01*
X190053190Y-51152333D01*
X190053190Y-51533285D01*
X190529380Y-50009476D02*
X190529380Y-50580904D01*
X190529380Y-50295190D02*
X189529380Y-50295190D01*
X189672238Y-50390428D01*
X189767476Y-50485666D01*
X189815095Y-50580904D01*
X189529380Y-49676142D02*
X189529380Y-49057095D01*
X189910333Y-49390428D01*
X189910333Y-49247571D01*
X189957952Y-49152333D01*
X190005571Y-49104714D01*
X190100809Y-49057095D01*
X190338904Y-49057095D01*
X190434142Y-49104714D01*
X190481761Y-49152333D01*
X190529380Y-49247571D01*
X190529380Y-49533285D01*
X190481761Y-49628523D01*
X190434142Y-49676142D01*
X203356380Y-52558857D02*
X202880190Y-52892190D01*
X203356380Y-53130285D02*
X202356380Y-53130285D01*
X202356380Y-52749333D01*
X202404000Y-52654095D01*
X202451619Y-52606476D01*
X202546857Y-52558857D01*
X202689714Y-52558857D01*
X202784952Y-52606476D01*
X202832571Y-52654095D01*
X202880190Y-52749333D01*
X202880190Y-53130285D01*
X203356380Y-51606476D02*
X203356380Y-52177904D01*
X203356380Y-51892190D02*
X202356380Y-51892190D01*
X202499238Y-51987428D01*
X202594476Y-52082666D01*
X202642095Y-52177904D01*
X202356380Y-50701714D02*
X202356380Y-51177904D01*
X202832571Y-51225523D01*
X202784952Y-51177904D01*
X202737333Y-51082666D01*
X202737333Y-50844571D01*
X202784952Y-50749333D01*
X202832571Y-50701714D01*
X202927809Y-50654095D01*
X203165904Y-50654095D01*
X203261142Y-50701714D01*
X203308761Y-50749333D01*
X203356380Y-50844571D01*
X203356380Y-51082666D01*
X203308761Y-51177904D01*
X203261142Y-51225523D01*
X187612280Y-98178857D02*
X187136090Y-98512190D01*
X187612280Y-98750285D02*
X186612280Y-98750285D01*
X186612280Y-98369333D01*
X186659900Y-98274095D01*
X186707519Y-98226476D01*
X186802757Y-98178857D01*
X186945614Y-98178857D01*
X187040852Y-98226476D01*
X187088471Y-98274095D01*
X187136090Y-98369333D01*
X187136090Y-98750285D01*
X187612280Y-97226476D02*
X187612280Y-97797904D01*
X187612280Y-97512190D02*
X186612280Y-97512190D01*
X186755138Y-97607428D01*
X186850376Y-97702666D01*
X186897995Y-97797904D01*
X187040852Y-96655047D02*
X186993233Y-96750285D01*
X186945614Y-96797904D01*
X186850376Y-96845523D01*
X186802757Y-96845523D01*
X186707519Y-96797904D01*
X186659900Y-96750285D01*
X186612280Y-96655047D01*
X186612280Y-96464571D01*
X186659900Y-96369333D01*
X186707519Y-96321714D01*
X186802757Y-96274095D01*
X186850376Y-96274095D01*
X186945614Y-96321714D01*
X186993233Y-96369333D01*
X187040852Y-96464571D01*
X187040852Y-96655047D01*
X187088471Y-96750285D01*
X187136090Y-96797904D01*
X187231328Y-96845523D01*
X187421804Y-96845523D01*
X187517042Y-96797904D01*
X187564661Y-96750285D01*
X187612280Y-96655047D01*
X187612280Y-96464571D01*
X187564661Y-96369333D01*
X187517042Y-96321714D01*
X187421804Y-96274095D01*
X187231328Y-96274095D01*
X187136090Y-96321714D01*
X187088471Y-96369333D01*
X187040852Y-96464571D01*
X206996380Y-63534857D02*
X206520190Y-63868190D01*
X206996380Y-64106285D02*
X205996380Y-64106285D01*
X205996380Y-63725333D01*
X206044000Y-63630095D01*
X206091619Y-63582476D01*
X206186857Y-63534857D01*
X206329714Y-63534857D01*
X206424952Y-63582476D01*
X206472571Y-63630095D01*
X206520190Y-63725333D01*
X206520190Y-64106285D01*
X206996380Y-62582476D02*
X206996380Y-63153904D01*
X206996380Y-62868190D02*
X205996380Y-62868190D01*
X206139238Y-62963428D01*
X206234476Y-63058666D01*
X206282095Y-63153904D01*
X206996380Y-62106285D02*
X206996380Y-61915809D01*
X206948761Y-61820571D01*
X206901142Y-61772952D01*
X206758285Y-61677714D01*
X206567809Y-61630095D01*
X206186857Y-61630095D01*
X206091619Y-61677714D01*
X206044000Y-61725333D01*
X205996380Y-61820571D01*
X205996380Y-62011047D01*
X206044000Y-62106285D01*
X206091619Y-62153904D01*
X206186857Y-62201523D01*
X206424952Y-62201523D01*
X206520190Y-62153904D01*
X206567809Y-62106285D01*
X206615428Y-62011047D01*
X206615428Y-61820571D01*
X206567809Y-61725333D01*
X206520190Y-61677714D01*
X206424952Y-61630095D01*
X193022480Y-98432857D02*
X192546290Y-98766190D01*
X193022480Y-99004285D02*
X192022480Y-99004285D01*
X192022480Y-98623333D01*
X192070100Y-98528095D01*
X192117719Y-98480476D01*
X192212957Y-98432857D01*
X192355814Y-98432857D01*
X192451052Y-98480476D01*
X192498671Y-98528095D01*
X192546290Y-98623333D01*
X192546290Y-99004285D01*
X192117719Y-98051904D02*
X192070100Y-98004285D01*
X192022480Y-97909047D01*
X192022480Y-97670952D01*
X192070100Y-97575714D01*
X192117719Y-97528095D01*
X192212957Y-97480476D01*
X192308195Y-97480476D01*
X192451052Y-97528095D01*
X193022480Y-98099523D01*
X193022480Y-97480476D01*
X192022480Y-96861428D02*
X192022480Y-96766190D01*
X192070100Y-96670952D01*
X192117719Y-96623333D01*
X192212957Y-96575714D01*
X192403433Y-96528095D01*
X192641528Y-96528095D01*
X192832004Y-96575714D01*
X192927242Y-96623333D01*
X192974861Y-96670952D01*
X193022480Y-96766190D01*
X193022480Y-96861428D01*
X192974861Y-96956666D01*
X192927242Y-97004285D01*
X192832004Y-97051904D01*
X192641528Y-97099523D01*
X192403433Y-97099523D01*
X192212957Y-97051904D01*
X192117719Y-97004285D01*
X192070100Y-96956666D01*
X192022480Y-96861428D01*
X198013580Y-98379957D02*
X197537390Y-98713290D01*
X198013580Y-98951385D02*
X197013580Y-98951385D01*
X197013580Y-98570433D01*
X197061200Y-98475195D01*
X197108819Y-98427576D01*
X197204057Y-98379957D01*
X197346914Y-98379957D01*
X197442152Y-98427576D01*
X197489771Y-98475195D01*
X197537390Y-98570433D01*
X197537390Y-98951385D01*
X197108819Y-97999004D02*
X197061200Y-97951385D01*
X197013580Y-97856147D01*
X197013580Y-97618052D01*
X197061200Y-97522814D01*
X197108819Y-97475195D01*
X197204057Y-97427576D01*
X197299295Y-97427576D01*
X197442152Y-97475195D01*
X198013580Y-98046623D01*
X198013580Y-97427576D01*
X198013580Y-96475195D02*
X198013580Y-97046623D01*
X198013580Y-96760909D02*
X197013580Y-96760909D01*
X197156438Y-96856147D01*
X197251676Y-96951385D01*
X197299295Y-97046623D01*
X188079142Y-62745880D02*
X187745809Y-62269690D01*
X187507714Y-62745880D02*
X187507714Y-61745880D01*
X187888666Y-61745880D01*
X187983904Y-61793500D01*
X188031523Y-61841119D01*
X188079142Y-61936357D01*
X188079142Y-62079214D01*
X188031523Y-62174452D01*
X187983904Y-62222071D01*
X187888666Y-62269690D01*
X187507714Y-62269690D01*
X188460095Y-61841119D02*
X188507714Y-61793500D01*
X188602952Y-61745880D01*
X188841047Y-61745880D01*
X188936285Y-61793500D01*
X188983904Y-61841119D01*
X189031523Y-61936357D01*
X189031523Y-62031595D01*
X188983904Y-62174452D01*
X188412476Y-62745880D01*
X189031523Y-62745880D01*
X189412476Y-61841119D02*
X189460095Y-61793500D01*
X189555333Y-61745880D01*
X189793428Y-61745880D01*
X189888666Y-61793500D01*
X189936285Y-61841119D01*
X189983904Y-61936357D01*
X189983904Y-62031595D01*
X189936285Y-62174452D01*
X189364857Y-62745880D01*
X189983904Y-62745880D01*
X203060560Y-98488737D02*
X202584370Y-98822070D01*
X203060560Y-99060165D02*
X202060560Y-99060165D01*
X202060560Y-98679213D01*
X202108180Y-98583975D01*
X202155799Y-98536356D01*
X202251037Y-98488737D01*
X202393894Y-98488737D01*
X202489132Y-98536356D01*
X202536751Y-98583975D01*
X202584370Y-98679213D01*
X202584370Y-99060165D01*
X202155799Y-98107784D02*
X202108180Y-98060165D01*
X202060560Y-97964927D01*
X202060560Y-97726832D01*
X202108180Y-97631594D01*
X202155799Y-97583975D01*
X202251037Y-97536356D01*
X202346275Y-97536356D01*
X202489132Y-97583975D01*
X203060560Y-98155403D01*
X203060560Y-97536356D01*
X202060560Y-97203022D02*
X202060560Y-96583975D01*
X202441513Y-96917308D01*
X202441513Y-96774451D01*
X202489132Y-96679213D01*
X202536751Y-96631594D01*
X202631989Y-96583975D01*
X202870084Y-96583975D01*
X202965322Y-96631594D01*
X203012941Y-96679213D01*
X203060560Y-96774451D01*
X203060560Y-97060165D01*
X203012941Y-97155403D01*
X202965322Y-97203022D01*
X111799285Y-86082380D02*
X112370714Y-86082380D01*
X112085000Y-87082380D02*
X112085000Y-86082380D01*
X112704047Y-87082380D02*
X112704047Y-86082380D01*
X112704047Y-86558571D02*
X113275476Y-86558571D01*
X113275476Y-87082380D02*
X113275476Y-86082380D01*
X114275476Y-87082380D02*
X113704047Y-87082380D01*
X113989761Y-87082380D02*
X113989761Y-86082380D01*
X113894523Y-86225238D01*
X113799285Y-86320476D01*
X113704047Y-86368095D01*
X177419095Y-105878380D02*
X177419095Y-106687904D01*
X177466714Y-106783142D01*
X177514333Y-106830761D01*
X177609571Y-106878380D01*
X177800047Y-106878380D01*
X177895285Y-106830761D01*
X177942904Y-106783142D01*
X177990523Y-106687904D01*
X177990523Y-105878380D01*
X178419095Y-105973619D02*
X178466714Y-105926000D01*
X178561952Y-105878380D01*
X178800047Y-105878380D01*
X178895285Y-105926000D01*
X178942904Y-105973619D01*
X178990523Y-106068857D01*
X178990523Y-106164095D01*
X178942904Y-106306952D01*
X178371476Y-106878380D01*
X178990523Y-106878380D01*
X174637795Y-51437080D02*
X174637795Y-52246604D01*
X174685414Y-52341842D01*
X174733033Y-52389461D01*
X174828271Y-52437080D01*
X175018747Y-52437080D01*
X175113985Y-52389461D01*
X175161604Y-52341842D01*
X175209223Y-52246604D01*
X175209223Y-51437080D01*
X175590176Y-51437080D02*
X176209223Y-51437080D01*
X175875890Y-51818033D01*
X176018747Y-51818033D01*
X176113985Y-51865652D01*
X176161604Y-51913271D01*
X176209223Y-52008509D01*
X176209223Y-52246604D01*
X176161604Y-52341842D01*
X176113985Y-52389461D01*
X176018747Y-52437080D01*
X175733033Y-52437080D01*
X175637795Y-52389461D01*
X175590176Y-52341842D01*
X188350795Y-87301580D02*
X188350795Y-88111104D01*
X188398414Y-88206342D01*
X188446033Y-88253961D01*
X188541271Y-88301580D01*
X188731747Y-88301580D01*
X188826985Y-88253961D01*
X188874604Y-88206342D01*
X188922223Y-88111104D01*
X188922223Y-87301580D01*
X189826985Y-87634914D02*
X189826985Y-88301580D01*
X189588890Y-87253961D02*
X189350795Y-87968247D01*
X189969842Y-87968247D01*
X197637495Y-58262480D02*
X197637495Y-59072004D01*
X197685114Y-59167242D01*
X197732733Y-59214861D01*
X197827971Y-59262480D01*
X198018447Y-59262480D01*
X198113685Y-59214861D01*
X198161304Y-59167242D01*
X198208923Y-59072004D01*
X198208923Y-58262480D01*
X199161304Y-58262480D02*
X198685114Y-58262480D01*
X198637495Y-58738671D01*
X198685114Y-58691052D01*
X198780352Y-58643433D01*
X199018447Y-58643433D01*
X199113685Y-58691052D01*
X199161304Y-58738671D01*
X199208923Y-58833909D01*
X199208923Y-59072004D01*
X199161304Y-59167242D01*
X199113685Y-59214861D01*
X199018447Y-59262480D01*
X198780352Y-59262480D01*
X198685114Y-59214861D01*
X198637495Y-59167242D01*
X200964895Y-88352380D02*
X200964895Y-89161904D01*
X201012514Y-89257142D01*
X201060133Y-89304761D01*
X201155371Y-89352380D01*
X201345847Y-89352380D01*
X201441085Y-89304761D01*
X201488704Y-89257142D01*
X201536323Y-89161904D01*
X201536323Y-88352380D01*
X202441085Y-88352380D02*
X202250609Y-88352380D01*
X202155371Y-88400000D01*
X202107752Y-88447619D01*
X202012514Y-88590476D01*
X201964895Y-88780952D01*
X201964895Y-89161904D01*
X202012514Y-89257142D01*
X202060133Y-89304761D01*
X202155371Y-89352380D01*
X202345847Y-89352380D01*
X202441085Y-89304761D01*
X202488704Y-89257142D01*
X202536323Y-89161904D01*
X202536323Y-88923809D01*
X202488704Y-88828571D01*
X202441085Y-88780952D01*
X202345847Y-88733333D01*
X202155371Y-88733333D01*
X202060133Y-88780952D01*
X202012514Y-88828571D01*
X201964895Y-88923809D01*
M02*
