G04 #@! TF.GenerationSoftware,KiCad,Pcbnew,(5.1.0)-1*
G04 #@! TF.CreationDate,2020-01-06T22:35:46-04:00*
G04 #@! TF.ProjectId,Main,4d61696e-2e6b-4696-9361-645f70636258,rev?*
G04 #@! TF.SameCoordinates,Original*
G04 #@! TF.FileFunction,Soldermask,Bot*
G04 #@! TF.FilePolarity,Negative*
%FSLAX46Y46*%
G04 Gerber Fmt 4.6, Leading zero omitted, Abs format (unit mm)*
G04 Created by KiCad (PCBNEW (5.1.0)-1) date 2020-01-06 22:35:46*
%MOMM*%
%LPD*%
G04 APERTURE LIST*
%ADD10C,0.100000*%
G04 APERTURE END LIST*
D10*
G36*
X97898739Y-106825450D02*
G01*
X98088072Y-106903875D01*
X98221951Y-106959329D01*
X98512834Y-107153691D01*
X98760209Y-107401066D01*
X98954571Y-107691949D01*
X98977749Y-107747906D01*
X99088450Y-108015161D01*
X99156700Y-108358278D01*
X99156700Y-108708122D01*
X99088450Y-109051239D01*
X99058559Y-109123401D01*
X98954571Y-109374451D01*
X98760209Y-109665334D01*
X98512834Y-109912709D01*
X98221951Y-110107071D01*
X98088072Y-110162525D01*
X97898739Y-110240950D01*
X97555622Y-110309200D01*
X97205778Y-110309200D01*
X96862661Y-110240950D01*
X96673328Y-110162525D01*
X96539449Y-110107071D01*
X96248566Y-109912709D01*
X96001191Y-109665334D01*
X95806829Y-109374451D01*
X95702841Y-109123401D01*
X95672950Y-109051239D01*
X95604700Y-108708122D01*
X95604700Y-108358278D01*
X95672950Y-108015161D01*
X95783651Y-107747906D01*
X95806829Y-107691949D01*
X96001191Y-107401066D01*
X96248566Y-107153691D01*
X96539449Y-106959329D01*
X96673328Y-106903875D01*
X96862661Y-106825450D01*
X97205778Y-106757200D01*
X97555622Y-106757200D01*
X97898739Y-106825450D01*
X97898739Y-106825450D01*
G37*
G36*
X161274144Y-107335082D02*
G01*
X161500901Y-107429008D01*
X161500902Y-107429009D01*
X161704979Y-107565368D01*
X161878532Y-107738921D01*
X161968805Y-107874025D01*
X162014892Y-107942999D01*
X162108818Y-108169756D01*
X162156700Y-108410478D01*
X162156700Y-108655922D01*
X162108818Y-108896644D01*
X162014892Y-109123401D01*
X162014891Y-109123402D01*
X161878532Y-109327479D01*
X161704979Y-109501032D01*
X161568619Y-109592144D01*
X161500901Y-109637392D01*
X161274144Y-109731318D01*
X161033422Y-109779200D01*
X160787978Y-109779200D01*
X160547256Y-109731318D01*
X160320499Y-109637392D01*
X160252781Y-109592144D01*
X160116421Y-109501032D01*
X159942868Y-109327479D01*
X159806509Y-109123402D01*
X159806508Y-109123401D01*
X159712582Y-108896644D01*
X159664700Y-108655922D01*
X159664700Y-108410478D01*
X159712582Y-108169756D01*
X159806508Y-107942999D01*
X159852595Y-107874025D01*
X159942868Y-107738921D01*
X160116421Y-107565368D01*
X160320498Y-107429009D01*
X160320499Y-107429008D01*
X160547256Y-107335082D01*
X160787978Y-107287200D01*
X161033422Y-107287200D01*
X161274144Y-107335082D01*
X161274144Y-107335082D01*
G37*
G36*
X179866727Y-107429009D02*
G01*
X179955021Y-107437705D01*
X180091872Y-107479219D01*
X180091875Y-107479220D01*
X180217994Y-107546632D01*
X180328543Y-107637357D01*
X180419268Y-107747906D01*
X180486680Y-107874025D01*
X180486681Y-107874028D01*
X180528195Y-108010879D01*
X180542212Y-108153200D01*
X180528195Y-108295521D01*
X180493322Y-108410480D01*
X180486680Y-108432375D01*
X180419268Y-108558494D01*
X180328543Y-108669043D01*
X180217994Y-108759768D01*
X180091875Y-108827180D01*
X180091872Y-108827181D01*
X179955021Y-108868695D01*
X179883913Y-108875698D01*
X179848360Y-108879200D01*
X179777040Y-108879200D01*
X179741487Y-108875698D01*
X179670379Y-108868695D01*
X179533528Y-108827181D01*
X179533525Y-108827180D01*
X179407406Y-108759768D01*
X179296857Y-108669043D01*
X179206132Y-108558494D01*
X179138720Y-108432375D01*
X179132078Y-108410480D01*
X179097205Y-108295521D01*
X179083188Y-108153200D01*
X179097205Y-108010879D01*
X179138719Y-107874028D01*
X179138720Y-107874025D01*
X179206132Y-107747906D01*
X179296857Y-107637357D01*
X179407406Y-107546632D01*
X179533525Y-107479220D01*
X179533528Y-107479219D01*
X179670379Y-107437705D01*
X179758673Y-107429009D01*
X179777040Y-107427200D01*
X179848360Y-107427200D01*
X179866727Y-107429009D01*
X179866727Y-107429009D01*
G37*
G36*
X177866727Y-107429009D02*
G01*
X177955021Y-107437705D01*
X178091872Y-107479219D01*
X178091875Y-107479220D01*
X178217994Y-107546632D01*
X178328543Y-107637357D01*
X178419268Y-107747906D01*
X178486680Y-107874025D01*
X178486681Y-107874028D01*
X178528195Y-108010879D01*
X178542212Y-108153200D01*
X178528195Y-108295521D01*
X178493322Y-108410480D01*
X178486680Y-108432375D01*
X178419268Y-108558494D01*
X178328543Y-108669043D01*
X178217994Y-108759768D01*
X178091875Y-108827180D01*
X178091872Y-108827181D01*
X177955021Y-108868695D01*
X177883913Y-108875698D01*
X177848360Y-108879200D01*
X177777040Y-108879200D01*
X177741487Y-108875698D01*
X177670379Y-108868695D01*
X177533528Y-108827181D01*
X177533525Y-108827180D01*
X177407406Y-108759768D01*
X177296857Y-108669043D01*
X177206132Y-108558494D01*
X177138720Y-108432375D01*
X177132078Y-108410480D01*
X177097205Y-108295521D01*
X177083188Y-108153200D01*
X177097205Y-108010879D01*
X177138719Y-107874028D01*
X177138720Y-107874025D01*
X177206132Y-107747906D01*
X177296857Y-107637357D01*
X177407406Y-107546632D01*
X177533525Y-107479220D01*
X177533528Y-107479219D01*
X177670379Y-107437705D01*
X177758673Y-107429009D01*
X177777040Y-107427200D01*
X177848360Y-107427200D01*
X177866727Y-107429009D01*
X177866727Y-107429009D01*
G37*
G36*
X175866727Y-107429009D02*
G01*
X175955021Y-107437705D01*
X176091872Y-107479219D01*
X176091875Y-107479220D01*
X176217994Y-107546632D01*
X176328543Y-107637357D01*
X176419268Y-107747906D01*
X176486680Y-107874025D01*
X176486681Y-107874028D01*
X176528195Y-108010879D01*
X176542212Y-108153200D01*
X176528195Y-108295521D01*
X176493322Y-108410480D01*
X176486680Y-108432375D01*
X176419268Y-108558494D01*
X176328543Y-108669043D01*
X176217994Y-108759768D01*
X176091875Y-108827180D01*
X176091872Y-108827181D01*
X175955021Y-108868695D01*
X175883913Y-108875698D01*
X175848360Y-108879200D01*
X175777040Y-108879200D01*
X175741487Y-108875698D01*
X175670379Y-108868695D01*
X175533528Y-108827181D01*
X175533525Y-108827180D01*
X175407406Y-108759768D01*
X175296857Y-108669043D01*
X175206132Y-108558494D01*
X175138720Y-108432375D01*
X175132078Y-108410480D01*
X175097205Y-108295521D01*
X175083188Y-108153200D01*
X175097205Y-108010879D01*
X175138719Y-107874028D01*
X175138720Y-107874025D01*
X175206132Y-107747906D01*
X175296857Y-107637357D01*
X175407406Y-107546632D01*
X175533525Y-107479220D01*
X175533528Y-107479219D01*
X175670379Y-107437705D01*
X175758673Y-107429009D01*
X175777040Y-107427200D01*
X175848360Y-107427200D01*
X175866727Y-107429009D01*
X175866727Y-107429009D01*
G37*
G36*
X174538700Y-108879200D02*
G01*
X173086700Y-108879200D01*
X173086700Y-107427200D01*
X174538700Y-107427200D01*
X174538700Y-108879200D01*
X174538700Y-108879200D01*
G37*
G36*
X183866727Y-107429009D02*
G01*
X183955021Y-107437705D01*
X184091872Y-107479219D01*
X184091875Y-107479220D01*
X184217994Y-107546632D01*
X184328543Y-107637357D01*
X184419268Y-107747906D01*
X184486680Y-107874025D01*
X184486681Y-107874028D01*
X184528195Y-108010879D01*
X184542212Y-108153200D01*
X184528195Y-108295521D01*
X184493322Y-108410480D01*
X184486680Y-108432375D01*
X184419268Y-108558494D01*
X184328543Y-108669043D01*
X184217994Y-108759768D01*
X184091875Y-108827180D01*
X184091872Y-108827181D01*
X183955021Y-108868695D01*
X183883913Y-108875698D01*
X183848360Y-108879200D01*
X183777040Y-108879200D01*
X183741487Y-108875698D01*
X183670379Y-108868695D01*
X183533528Y-108827181D01*
X183533525Y-108827180D01*
X183407406Y-108759768D01*
X183296857Y-108669043D01*
X183206132Y-108558494D01*
X183138720Y-108432375D01*
X183132078Y-108410480D01*
X183097205Y-108295521D01*
X183083188Y-108153200D01*
X183097205Y-108010879D01*
X183138719Y-107874028D01*
X183138720Y-107874025D01*
X183206132Y-107747906D01*
X183296857Y-107637357D01*
X183407406Y-107546632D01*
X183533525Y-107479220D01*
X183533528Y-107479219D01*
X183670379Y-107437705D01*
X183758673Y-107429009D01*
X183777040Y-107427200D01*
X183848360Y-107427200D01*
X183866727Y-107429009D01*
X183866727Y-107429009D01*
G37*
G36*
X181866727Y-107429009D02*
G01*
X181955021Y-107437705D01*
X182091872Y-107479219D01*
X182091875Y-107479220D01*
X182217994Y-107546632D01*
X182328543Y-107637357D01*
X182419268Y-107747906D01*
X182486680Y-107874025D01*
X182486681Y-107874028D01*
X182528195Y-108010879D01*
X182542212Y-108153200D01*
X182528195Y-108295521D01*
X182493322Y-108410480D01*
X182486680Y-108432375D01*
X182419268Y-108558494D01*
X182328543Y-108669043D01*
X182217994Y-108759768D01*
X182091875Y-108827180D01*
X182091872Y-108827181D01*
X181955021Y-108868695D01*
X181883913Y-108875698D01*
X181848360Y-108879200D01*
X181777040Y-108879200D01*
X181741487Y-108875698D01*
X181670379Y-108868695D01*
X181533528Y-108827181D01*
X181533525Y-108827180D01*
X181407406Y-108759768D01*
X181296857Y-108669043D01*
X181206132Y-108558494D01*
X181138720Y-108432375D01*
X181132078Y-108410480D01*
X181097205Y-108295521D01*
X181083188Y-108153200D01*
X181097205Y-108010879D01*
X181138719Y-107874028D01*
X181138720Y-107874025D01*
X181206132Y-107747906D01*
X181296857Y-107637357D01*
X181407406Y-107546632D01*
X181533525Y-107479220D01*
X181533528Y-107479219D01*
X181670379Y-107437705D01*
X181758673Y-107429009D01*
X181777040Y-107427200D01*
X181848360Y-107427200D01*
X181866727Y-107429009D01*
X181866727Y-107429009D01*
G37*
G36*
X180669500Y-95770000D02*
G01*
X178867500Y-95770000D01*
X178867500Y-93968000D01*
X180669500Y-93968000D01*
X180669500Y-95770000D01*
X180669500Y-95770000D01*
G37*
G36*
X168906143Y-92590219D02*
G01*
X168972327Y-92596737D01*
X169142166Y-92648257D01*
X169298691Y-92731922D01*
X169334429Y-92761252D01*
X169435886Y-92844514D01*
X169519148Y-92945971D01*
X169548478Y-92981709D01*
X169632143Y-93138234D01*
X169683663Y-93308073D01*
X169701059Y-93484700D01*
X169683663Y-93661327D01*
X169632143Y-93831166D01*
X169548478Y-93987691D01*
X169519148Y-94023429D01*
X169435886Y-94124886D01*
X169334429Y-94208148D01*
X169298691Y-94237478D01*
X169142166Y-94321143D01*
X168972327Y-94372663D01*
X168906142Y-94379182D01*
X168839960Y-94385700D01*
X168751440Y-94385700D01*
X168685258Y-94379182D01*
X168619073Y-94372663D01*
X168449234Y-94321143D01*
X168292709Y-94237478D01*
X168256971Y-94208148D01*
X168155514Y-94124886D01*
X168072252Y-94023429D01*
X168042922Y-93987691D01*
X167959257Y-93831166D01*
X167907737Y-93661327D01*
X167890341Y-93484700D01*
X167907737Y-93308073D01*
X167959257Y-93138234D01*
X168042922Y-92981709D01*
X168072252Y-92945971D01*
X168155514Y-92844514D01*
X168256971Y-92761252D01*
X168292709Y-92731922D01*
X168449234Y-92648257D01*
X168619073Y-92596737D01*
X168685258Y-92590218D01*
X168751440Y-92583700D01*
X168839960Y-92583700D01*
X168906143Y-92590219D01*
X168906143Y-92590219D01*
G37*
G36*
X153098739Y-90825450D02*
G01*
X153288072Y-90903875D01*
X153421951Y-90959329D01*
X153712834Y-91153691D01*
X153960209Y-91401066D01*
X154154571Y-91691949D01*
X154154571Y-91691950D01*
X154288450Y-92015161D01*
X154356700Y-92358278D01*
X154356700Y-92708122D01*
X154288450Y-93051239D01*
X154214404Y-93230000D01*
X154154571Y-93374451D01*
X153960209Y-93665334D01*
X153712834Y-93912709D01*
X153421951Y-94107071D01*
X153288072Y-94162525D01*
X153098739Y-94240950D01*
X152755622Y-94309200D01*
X152405778Y-94309200D01*
X152062661Y-94240950D01*
X151873328Y-94162525D01*
X151739449Y-94107071D01*
X151448566Y-93912709D01*
X151201191Y-93665334D01*
X151006829Y-93374451D01*
X150946996Y-93230000D01*
X150872950Y-93051239D01*
X150804700Y-92708122D01*
X150804700Y-92358278D01*
X150872950Y-92015161D01*
X151006829Y-91691950D01*
X151006829Y-91691949D01*
X151201191Y-91401066D01*
X151448566Y-91153691D01*
X151739449Y-90959329D01*
X151873328Y-90903875D01*
X152062661Y-90825450D01*
X152405778Y-90757200D01*
X152755622Y-90757200D01*
X153098739Y-90825450D01*
X153098739Y-90825450D01*
G37*
G36*
X179878943Y-91434519D02*
G01*
X179945127Y-91441037D01*
X180114966Y-91492557D01*
X180271491Y-91576222D01*
X180307229Y-91605552D01*
X180408686Y-91688814D01*
X180491948Y-91790271D01*
X180521278Y-91826009D01*
X180604943Y-91982534D01*
X180656463Y-92152373D01*
X180673859Y-92329000D01*
X180656463Y-92505627D01*
X180604943Y-92675466D01*
X180521278Y-92831991D01*
X180491948Y-92867729D01*
X180408686Y-92969186D01*
X180308703Y-93051239D01*
X180271491Y-93081778D01*
X180114966Y-93165443D01*
X179945127Y-93216963D01*
X179878943Y-93223481D01*
X179812760Y-93230000D01*
X179724240Y-93230000D01*
X179658057Y-93223481D01*
X179591873Y-93216963D01*
X179422034Y-93165443D01*
X179265509Y-93081778D01*
X179228297Y-93051239D01*
X179128314Y-92969186D01*
X179045052Y-92867729D01*
X179015722Y-92831991D01*
X178932057Y-92675466D01*
X178880537Y-92505627D01*
X178863141Y-92329000D01*
X178880537Y-92152373D01*
X178932057Y-91982534D01*
X179015722Y-91826009D01*
X179045052Y-91790271D01*
X179128314Y-91688814D01*
X179229771Y-91605552D01*
X179265509Y-91576222D01*
X179422034Y-91492557D01*
X179591873Y-91441037D01*
X179658058Y-91434518D01*
X179724240Y-91428000D01*
X179812760Y-91428000D01*
X179878943Y-91434519D01*
X179878943Y-91434519D01*
G37*
G36*
X210187100Y-92729880D02*
G01*
X208735100Y-92729880D01*
X208735100Y-91277880D01*
X210187100Y-91277880D01*
X210187100Y-92729880D01*
X210187100Y-92729880D01*
G37*
G36*
X169696700Y-91845700D02*
G01*
X167894700Y-91845700D01*
X167894700Y-90043700D01*
X169696700Y-90043700D01*
X169696700Y-91845700D01*
X169696700Y-91845700D01*
G37*
G36*
X122648280Y-83570500D02*
G01*
X120846280Y-83570500D01*
X120846280Y-81768500D01*
X122648280Y-81768500D01*
X122648280Y-83570500D01*
X122648280Y-83570500D01*
G37*
G36*
X124397722Y-81775018D02*
G01*
X124463907Y-81781537D01*
X124633746Y-81833057D01*
X124790271Y-81916722D01*
X124826009Y-81946052D01*
X124927466Y-82029314D01*
X124984388Y-82098675D01*
X125040058Y-82166509D01*
X125123723Y-82323034D01*
X125175243Y-82492873D01*
X125192639Y-82669500D01*
X125175243Y-82846127D01*
X125123723Y-83015966D01*
X125040058Y-83172491D01*
X125010728Y-83208229D01*
X124927466Y-83309686D01*
X124826009Y-83392948D01*
X124790271Y-83422278D01*
X124633746Y-83505943D01*
X124463907Y-83557463D01*
X124397723Y-83563981D01*
X124331540Y-83570500D01*
X124243020Y-83570500D01*
X124176837Y-83563981D01*
X124110653Y-83557463D01*
X123940814Y-83505943D01*
X123784289Y-83422278D01*
X123748551Y-83392948D01*
X123647094Y-83309686D01*
X123563832Y-83208229D01*
X123534502Y-83172491D01*
X123450837Y-83015966D01*
X123399317Y-82846127D01*
X123381921Y-82669500D01*
X123399317Y-82492873D01*
X123450837Y-82323034D01*
X123534502Y-82166509D01*
X123590172Y-82098675D01*
X123647094Y-82029314D01*
X123748551Y-81946052D01*
X123784289Y-81916722D01*
X123940814Y-81833057D01*
X124110653Y-81781537D01*
X124176838Y-81775018D01*
X124243020Y-81768500D01*
X124331540Y-81768500D01*
X124397722Y-81775018D01*
X124397722Y-81775018D01*
G37*
G36*
X126937722Y-81775018D02*
G01*
X127003907Y-81781537D01*
X127173746Y-81833057D01*
X127330271Y-81916722D01*
X127366009Y-81946052D01*
X127467466Y-82029314D01*
X127524388Y-82098675D01*
X127580058Y-82166509D01*
X127663723Y-82323034D01*
X127715243Y-82492873D01*
X127732639Y-82669500D01*
X127715243Y-82846127D01*
X127663723Y-83015966D01*
X127580058Y-83172491D01*
X127550728Y-83208229D01*
X127467466Y-83309686D01*
X127366009Y-83392948D01*
X127330271Y-83422278D01*
X127173746Y-83505943D01*
X127003907Y-83557463D01*
X126937723Y-83563981D01*
X126871540Y-83570500D01*
X126783020Y-83570500D01*
X126716837Y-83563981D01*
X126650653Y-83557463D01*
X126480814Y-83505943D01*
X126324289Y-83422278D01*
X126288551Y-83392948D01*
X126187094Y-83309686D01*
X126103832Y-83208229D01*
X126074502Y-83172491D01*
X125990837Y-83015966D01*
X125939317Y-82846127D01*
X125921921Y-82669500D01*
X125939317Y-82492873D01*
X125990837Y-82323034D01*
X126074502Y-82166509D01*
X126130172Y-82098675D01*
X126187094Y-82029314D01*
X126288551Y-81946052D01*
X126324289Y-81916722D01*
X126480814Y-81833057D01*
X126650653Y-81781537D01*
X126716838Y-81775018D01*
X126783020Y-81768500D01*
X126871540Y-81768500D01*
X126937722Y-81775018D01*
X126937722Y-81775018D01*
G37*
G36*
X136761313Y-81097002D02*
G01*
X136832421Y-81104005D01*
X136969272Y-81145519D01*
X136969275Y-81145520D01*
X137095394Y-81212932D01*
X137205943Y-81303657D01*
X137296668Y-81414206D01*
X137364080Y-81540325D01*
X137364081Y-81540328D01*
X137405595Y-81677179D01*
X137419612Y-81819500D01*
X137405595Y-81961821D01*
X137364081Y-82098672D01*
X137364080Y-82098675D01*
X137296668Y-82224794D01*
X137205943Y-82335343D01*
X137095394Y-82426068D01*
X136969275Y-82493480D01*
X136969272Y-82493481D01*
X136832421Y-82534995D01*
X136761313Y-82541998D01*
X136725760Y-82545500D01*
X136654440Y-82545500D01*
X136618887Y-82541998D01*
X136547779Y-82534995D01*
X136410928Y-82493481D01*
X136410925Y-82493480D01*
X136284806Y-82426068D01*
X136174257Y-82335343D01*
X136083532Y-82224794D01*
X136016120Y-82098675D01*
X136016119Y-82098672D01*
X135974605Y-81961821D01*
X135960588Y-81819500D01*
X135974605Y-81677179D01*
X136016119Y-81540328D01*
X136016120Y-81540325D01*
X136083532Y-81414206D01*
X136174257Y-81303657D01*
X136284806Y-81212932D01*
X136410925Y-81145520D01*
X136410928Y-81145519D01*
X136547779Y-81104005D01*
X136618887Y-81097002D01*
X136654440Y-81093500D01*
X136725760Y-81093500D01*
X136761313Y-81097002D01*
X136761313Y-81097002D01*
G37*
G36*
X195937700Y-81320200D02*
G01*
X194485700Y-81320200D01*
X194485700Y-79868200D01*
X195937700Y-79868200D01*
X195937700Y-81320200D01*
X195937700Y-81320200D01*
G37*
G36*
X136761313Y-79097002D02*
G01*
X136832421Y-79104005D01*
X136969272Y-79145519D01*
X136969275Y-79145520D01*
X137095394Y-79212932D01*
X137205943Y-79303657D01*
X137296668Y-79414206D01*
X137364080Y-79540325D01*
X137364081Y-79540328D01*
X137405595Y-79677179D01*
X137419612Y-79819500D01*
X137405595Y-79961821D01*
X137364081Y-80098672D01*
X137364080Y-80098675D01*
X137296668Y-80224794D01*
X137205943Y-80335343D01*
X137095394Y-80426068D01*
X136969275Y-80493480D01*
X136969272Y-80493481D01*
X136832421Y-80534995D01*
X136761313Y-80541998D01*
X136725760Y-80545500D01*
X136654440Y-80545500D01*
X136618887Y-80541998D01*
X136547779Y-80534995D01*
X136410928Y-80493481D01*
X136410925Y-80493480D01*
X136284806Y-80426068D01*
X136174257Y-80335343D01*
X136083532Y-80224794D01*
X136016120Y-80098675D01*
X136016119Y-80098672D01*
X135974605Y-79961821D01*
X135960588Y-79819500D01*
X135974605Y-79677179D01*
X136016119Y-79540328D01*
X136016120Y-79540325D01*
X136083532Y-79414206D01*
X136174257Y-79303657D01*
X136284806Y-79212932D01*
X136410925Y-79145520D01*
X136410928Y-79145519D01*
X136547779Y-79104005D01*
X136618887Y-79097002D01*
X136654440Y-79093500D01*
X136725760Y-79093500D01*
X136761313Y-79097002D01*
X136761313Y-79097002D01*
G37*
G36*
X188889200Y-79669200D02*
G01*
X187437200Y-79669200D01*
X187437200Y-78217200D01*
X188889200Y-78217200D01*
X188889200Y-79669200D01*
X188889200Y-79669200D01*
G37*
G36*
X136761313Y-77097002D02*
G01*
X136832421Y-77104005D01*
X136969272Y-77145519D01*
X136969275Y-77145520D01*
X137095394Y-77212932D01*
X137205943Y-77303657D01*
X137296668Y-77414206D01*
X137364080Y-77540325D01*
X137364081Y-77540328D01*
X137405595Y-77677179D01*
X137419612Y-77819500D01*
X137405595Y-77961821D01*
X137364081Y-78098672D01*
X137364080Y-78098675D01*
X137296668Y-78224794D01*
X137205943Y-78335343D01*
X137095394Y-78426068D01*
X136969275Y-78493480D01*
X136969272Y-78493481D01*
X136832421Y-78534995D01*
X136761313Y-78541998D01*
X136725760Y-78545500D01*
X136654440Y-78545500D01*
X136618887Y-78541998D01*
X136547779Y-78534995D01*
X136410928Y-78493481D01*
X136410925Y-78493480D01*
X136284806Y-78426068D01*
X136174257Y-78335343D01*
X136083532Y-78224794D01*
X136016120Y-78098675D01*
X136016119Y-78098672D01*
X135974605Y-77961821D01*
X135960588Y-77819500D01*
X135974605Y-77677179D01*
X136016119Y-77540328D01*
X136016120Y-77540325D01*
X136083532Y-77414206D01*
X136174257Y-77303657D01*
X136284806Y-77212932D01*
X136410925Y-77145520D01*
X136410928Y-77145519D01*
X136547779Y-77104005D01*
X136618887Y-77097002D01*
X136654440Y-77093500D01*
X136725760Y-77093500D01*
X136761313Y-77097002D01*
X136761313Y-77097002D01*
G37*
G36*
X136761313Y-75097002D02*
G01*
X136832421Y-75104005D01*
X136969272Y-75145519D01*
X136969275Y-75145520D01*
X137095394Y-75212932D01*
X137205943Y-75303657D01*
X137296668Y-75414206D01*
X137364080Y-75540325D01*
X137364081Y-75540328D01*
X137405595Y-75677179D01*
X137419612Y-75819500D01*
X137405595Y-75961821D01*
X137364081Y-76098672D01*
X137364080Y-76098675D01*
X137296668Y-76224794D01*
X137205943Y-76335343D01*
X137095394Y-76426068D01*
X136969275Y-76493480D01*
X136969272Y-76493481D01*
X136832421Y-76534995D01*
X136761313Y-76541998D01*
X136725760Y-76545500D01*
X136654440Y-76545500D01*
X136618887Y-76541998D01*
X136547779Y-76534995D01*
X136410928Y-76493481D01*
X136410925Y-76493480D01*
X136284806Y-76426068D01*
X136174257Y-76335343D01*
X136083532Y-76224794D01*
X136016120Y-76098675D01*
X136016119Y-76098672D01*
X135974605Y-75961821D01*
X135960588Y-75819500D01*
X135974605Y-75677179D01*
X136016119Y-75540328D01*
X136016120Y-75540325D01*
X136083532Y-75414206D01*
X136174257Y-75303657D01*
X136284806Y-75212932D01*
X136410925Y-75145520D01*
X136410928Y-75145519D01*
X136547779Y-75104005D01*
X136618887Y-75097002D01*
X136654440Y-75093500D01*
X136725760Y-75093500D01*
X136761313Y-75097002D01*
X136761313Y-75097002D01*
G37*
G36*
X136761313Y-73097002D02*
G01*
X136832421Y-73104005D01*
X136969272Y-73145519D01*
X136969275Y-73145520D01*
X137095394Y-73212932D01*
X137205943Y-73303657D01*
X137296668Y-73414206D01*
X137364080Y-73540325D01*
X137364081Y-73540328D01*
X137405595Y-73677179D01*
X137419612Y-73819500D01*
X137405595Y-73961821D01*
X137364081Y-74098672D01*
X137364080Y-74098675D01*
X137296668Y-74224794D01*
X137205943Y-74335343D01*
X137095394Y-74426068D01*
X136969275Y-74493480D01*
X136969272Y-74493481D01*
X136832421Y-74534995D01*
X136761313Y-74541998D01*
X136725760Y-74545500D01*
X136654440Y-74545500D01*
X136618887Y-74541998D01*
X136547779Y-74534995D01*
X136410928Y-74493481D01*
X136410925Y-74493480D01*
X136284806Y-74426068D01*
X136174257Y-74335343D01*
X136083532Y-74224794D01*
X136016120Y-74098675D01*
X136016119Y-74098672D01*
X135974605Y-73961821D01*
X135960588Y-73819500D01*
X135974605Y-73677179D01*
X136016119Y-73540328D01*
X136016120Y-73540325D01*
X136083532Y-73414206D01*
X136174257Y-73303657D01*
X136284806Y-73212932D01*
X136410925Y-73145520D01*
X136410928Y-73145519D01*
X136547779Y-73104005D01*
X136618887Y-73097002D01*
X136654440Y-73093500D01*
X136725760Y-73093500D01*
X136761313Y-73097002D01*
X136761313Y-73097002D01*
G37*
G36*
X137416100Y-72545500D02*
G01*
X135964100Y-72545500D01*
X135964100Y-71093500D01*
X137416100Y-71093500D01*
X137416100Y-72545500D01*
X137416100Y-72545500D01*
G37*
G36*
X182824213Y-70079002D02*
G01*
X182895321Y-70086005D01*
X183032172Y-70127519D01*
X183032175Y-70127520D01*
X183158294Y-70194932D01*
X183268843Y-70285657D01*
X183359568Y-70396206D01*
X183426980Y-70522325D01*
X183426981Y-70522328D01*
X183468495Y-70659179D01*
X183482512Y-70801500D01*
X183468495Y-70943821D01*
X183426981Y-71080672D01*
X183426980Y-71080675D01*
X183359568Y-71206794D01*
X183268843Y-71317343D01*
X183158294Y-71408068D01*
X183032175Y-71475480D01*
X183032172Y-71475481D01*
X182895321Y-71516995D01*
X182824213Y-71523998D01*
X182788660Y-71527500D01*
X182717340Y-71527500D01*
X182681787Y-71523998D01*
X182610679Y-71516995D01*
X182473828Y-71475481D01*
X182473825Y-71475480D01*
X182347706Y-71408068D01*
X182237157Y-71317343D01*
X182146432Y-71206794D01*
X182079020Y-71080675D01*
X182079019Y-71080672D01*
X182037505Y-70943821D01*
X182023488Y-70801500D01*
X182037505Y-70659179D01*
X182079019Y-70522328D01*
X182079020Y-70522325D01*
X182146432Y-70396206D01*
X182237157Y-70285657D01*
X182347706Y-70194932D01*
X182473825Y-70127520D01*
X182473828Y-70127519D01*
X182610679Y-70086005D01*
X182681787Y-70079002D01*
X182717340Y-70075500D01*
X182788660Y-70075500D01*
X182824213Y-70079002D01*
X182824213Y-70079002D01*
G37*
G36*
X211152300Y-70842700D02*
G01*
X209700300Y-70842700D01*
X209700300Y-69390700D01*
X211152300Y-69390700D01*
X211152300Y-70842700D01*
X211152300Y-70842700D01*
G37*
G36*
X182824213Y-68079002D02*
G01*
X182895321Y-68086005D01*
X183032172Y-68127519D01*
X183032175Y-68127520D01*
X183158294Y-68194932D01*
X183268843Y-68285657D01*
X183359568Y-68396206D01*
X183426980Y-68522325D01*
X183426981Y-68522328D01*
X183468495Y-68659179D01*
X183482512Y-68801500D01*
X183468495Y-68943821D01*
X183426981Y-69080672D01*
X183426980Y-69080675D01*
X183359568Y-69206794D01*
X183268843Y-69317343D01*
X183158294Y-69408068D01*
X183032175Y-69475480D01*
X183032172Y-69475481D01*
X182895321Y-69516995D01*
X182824213Y-69523998D01*
X182788660Y-69527500D01*
X182717340Y-69527500D01*
X182681787Y-69523998D01*
X182610679Y-69516995D01*
X182473828Y-69475481D01*
X182473825Y-69475480D01*
X182347706Y-69408068D01*
X182237157Y-69317343D01*
X182146432Y-69206794D01*
X182079020Y-69080675D01*
X182079019Y-69080672D01*
X182037505Y-68943821D01*
X182023488Y-68801500D01*
X182037505Y-68659179D01*
X182079019Y-68522328D01*
X182079020Y-68522325D01*
X182146432Y-68396206D01*
X182237157Y-68285657D01*
X182347706Y-68194932D01*
X182473825Y-68127520D01*
X182473828Y-68127519D01*
X182610679Y-68086005D01*
X182681787Y-68079002D01*
X182717340Y-68075500D01*
X182788660Y-68075500D01*
X182824213Y-68079002D01*
X182824213Y-68079002D01*
G37*
G36*
X127685100Y-68220500D02*
G01*
X125883100Y-68220500D01*
X125883100Y-66418500D01*
X127685100Y-66418500D01*
X127685100Y-68220500D01*
X127685100Y-68220500D01*
G37*
G36*
X124354542Y-66425018D02*
G01*
X124420727Y-66431537D01*
X124590566Y-66483057D01*
X124747091Y-66566722D01*
X124782829Y-66596052D01*
X124884286Y-66679314D01*
X124967548Y-66780771D01*
X124996878Y-66816509D01*
X125080543Y-66973034D01*
X125132063Y-67142873D01*
X125149459Y-67319500D01*
X125132063Y-67496127D01*
X125080543Y-67665966D01*
X124996878Y-67822491D01*
X124967548Y-67858229D01*
X124884286Y-67959686D01*
X124782829Y-68042948D01*
X124747091Y-68072278D01*
X124590566Y-68155943D01*
X124420727Y-68207463D01*
X124354543Y-68213981D01*
X124288360Y-68220500D01*
X124199840Y-68220500D01*
X124133657Y-68213981D01*
X124067473Y-68207463D01*
X123897634Y-68155943D01*
X123741109Y-68072278D01*
X123705371Y-68042948D01*
X123603914Y-67959686D01*
X123520652Y-67858229D01*
X123491322Y-67822491D01*
X123407657Y-67665966D01*
X123356137Y-67496127D01*
X123338741Y-67319500D01*
X123356137Y-67142873D01*
X123407657Y-66973034D01*
X123491322Y-66816509D01*
X123520652Y-66780771D01*
X123603914Y-66679314D01*
X123705371Y-66596052D01*
X123741109Y-66566722D01*
X123897634Y-66483057D01*
X124067473Y-66431537D01*
X124133658Y-66425018D01*
X124199840Y-66418500D01*
X124288360Y-66418500D01*
X124354542Y-66425018D01*
X124354542Y-66425018D01*
G37*
G36*
X121814542Y-66425018D02*
G01*
X121880727Y-66431537D01*
X122050566Y-66483057D01*
X122207091Y-66566722D01*
X122242829Y-66596052D01*
X122344286Y-66679314D01*
X122427548Y-66780771D01*
X122456878Y-66816509D01*
X122540543Y-66973034D01*
X122592063Y-67142873D01*
X122609459Y-67319500D01*
X122592063Y-67496127D01*
X122540543Y-67665966D01*
X122456878Y-67822491D01*
X122427548Y-67858229D01*
X122344286Y-67959686D01*
X122242829Y-68042948D01*
X122207091Y-68072278D01*
X122050566Y-68155943D01*
X121880727Y-68207463D01*
X121814543Y-68213981D01*
X121748360Y-68220500D01*
X121659840Y-68220500D01*
X121593657Y-68213981D01*
X121527473Y-68207463D01*
X121357634Y-68155943D01*
X121201109Y-68072278D01*
X121165371Y-68042948D01*
X121063914Y-67959686D01*
X120980652Y-67858229D01*
X120951322Y-67822491D01*
X120867657Y-67665966D01*
X120816137Y-67496127D01*
X120798741Y-67319500D01*
X120816137Y-67142873D01*
X120867657Y-66973034D01*
X120951322Y-66816509D01*
X120980652Y-66780771D01*
X121063914Y-66679314D01*
X121165371Y-66596052D01*
X121201109Y-66566722D01*
X121357634Y-66483057D01*
X121527473Y-66431537D01*
X121593658Y-66425018D01*
X121659840Y-66418500D01*
X121748360Y-66418500D01*
X121814542Y-66425018D01*
X121814542Y-66425018D01*
G37*
G36*
X182824213Y-66079002D02*
G01*
X182895321Y-66086005D01*
X183032172Y-66127519D01*
X183032175Y-66127520D01*
X183158294Y-66194932D01*
X183268843Y-66285657D01*
X183359568Y-66396206D01*
X183426980Y-66522325D01*
X183426981Y-66522328D01*
X183468495Y-66659179D01*
X183482512Y-66801500D01*
X183468495Y-66943821D01*
X183459633Y-66973034D01*
X183426980Y-67080675D01*
X183359568Y-67206794D01*
X183268843Y-67317343D01*
X183158294Y-67408068D01*
X183032175Y-67475480D01*
X183032172Y-67475481D01*
X182895321Y-67516995D01*
X182824213Y-67523998D01*
X182788660Y-67527500D01*
X182717340Y-67527500D01*
X182681787Y-67523998D01*
X182610679Y-67516995D01*
X182473828Y-67475481D01*
X182473825Y-67475480D01*
X182347706Y-67408068D01*
X182237157Y-67317343D01*
X182146432Y-67206794D01*
X182079020Y-67080675D01*
X182046367Y-66973034D01*
X182037505Y-66943821D01*
X182023488Y-66801500D01*
X182037505Y-66659179D01*
X182079019Y-66522328D01*
X182079020Y-66522325D01*
X182146432Y-66396206D01*
X182237157Y-66285657D01*
X182347706Y-66194932D01*
X182473825Y-66127520D01*
X182473828Y-66127519D01*
X182610679Y-66086005D01*
X182681787Y-66079002D01*
X182717340Y-66075500D01*
X182788660Y-66075500D01*
X182824213Y-66079002D01*
X182824213Y-66079002D01*
G37*
G36*
X182824213Y-64079002D02*
G01*
X182895321Y-64086005D01*
X183032172Y-64127519D01*
X183032175Y-64127520D01*
X183158294Y-64194932D01*
X183268843Y-64285657D01*
X183359568Y-64396206D01*
X183426980Y-64522325D01*
X183426981Y-64522328D01*
X183468495Y-64659179D01*
X183482512Y-64801500D01*
X183468495Y-64943821D01*
X183426981Y-65080672D01*
X183426980Y-65080675D01*
X183359568Y-65206794D01*
X183268843Y-65317343D01*
X183158294Y-65408068D01*
X183032175Y-65475480D01*
X183032172Y-65475481D01*
X182895321Y-65516995D01*
X182824213Y-65523998D01*
X182788660Y-65527500D01*
X182717340Y-65527500D01*
X182681787Y-65523998D01*
X182610679Y-65516995D01*
X182473828Y-65475481D01*
X182473825Y-65475480D01*
X182347706Y-65408068D01*
X182237157Y-65317343D01*
X182146432Y-65206794D01*
X182079020Y-65080675D01*
X182079019Y-65080672D01*
X182037505Y-64943821D01*
X182023488Y-64801500D01*
X182037505Y-64659179D01*
X182079019Y-64522328D01*
X182079020Y-64522325D01*
X182146432Y-64396206D01*
X182237157Y-64285657D01*
X182347706Y-64194932D01*
X182473825Y-64127520D01*
X182473828Y-64127519D01*
X182610679Y-64086005D01*
X182681787Y-64079002D01*
X182717340Y-64075500D01*
X182788660Y-64075500D01*
X182824213Y-64079002D01*
X182824213Y-64079002D01*
G37*
G36*
X183479000Y-63527500D02*
G01*
X182027000Y-63527500D01*
X182027000Y-62075500D01*
X183479000Y-62075500D01*
X183479000Y-63527500D01*
X183479000Y-63527500D01*
G37*
G36*
X202186100Y-62587700D02*
G01*
X200734100Y-62587700D01*
X200734100Y-61135700D01*
X202186100Y-61135700D01*
X202186100Y-62587700D01*
X202186100Y-62587700D01*
G37*
G36*
X193531313Y-61139202D02*
G01*
X193602421Y-61146205D01*
X193739272Y-61187719D01*
X193739275Y-61187720D01*
X193865394Y-61255132D01*
X193975943Y-61345857D01*
X194066668Y-61456406D01*
X194134080Y-61582525D01*
X194134081Y-61582528D01*
X194175595Y-61719379D01*
X194189612Y-61861700D01*
X194175595Y-62004021D01*
X194134081Y-62140872D01*
X194134080Y-62140875D01*
X194066668Y-62266994D01*
X193975943Y-62377543D01*
X193865394Y-62468268D01*
X193739275Y-62535680D01*
X193739272Y-62535681D01*
X193602421Y-62577195D01*
X193531313Y-62584198D01*
X193495760Y-62587700D01*
X193424440Y-62587700D01*
X193388887Y-62584198D01*
X193317779Y-62577195D01*
X193180928Y-62535681D01*
X193180925Y-62535680D01*
X193054806Y-62468268D01*
X192944257Y-62377543D01*
X192853532Y-62266994D01*
X192786120Y-62140875D01*
X192786119Y-62140872D01*
X192744605Y-62004021D01*
X192730588Y-61861700D01*
X192744605Y-61719379D01*
X192786119Y-61582528D01*
X192786120Y-61582525D01*
X192853532Y-61456406D01*
X192944257Y-61345857D01*
X193054806Y-61255132D01*
X193180925Y-61187720D01*
X193180928Y-61187719D01*
X193317779Y-61146205D01*
X193388887Y-61139202D01*
X193424440Y-61135700D01*
X193495760Y-61135700D01*
X193531313Y-61139202D01*
X193531313Y-61139202D01*
G37*
G36*
X195531313Y-61139202D02*
G01*
X195602421Y-61146205D01*
X195739272Y-61187719D01*
X195739275Y-61187720D01*
X195865394Y-61255132D01*
X195975943Y-61345857D01*
X196066668Y-61456406D01*
X196134080Y-61582525D01*
X196134081Y-61582528D01*
X196175595Y-61719379D01*
X196189612Y-61861700D01*
X196175595Y-62004021D01*
X196134081Y-62140872D01*
X196134080Y-62140875D01*
X196066668Y-62266994D01*
X195975943Y-62377543D01*
X195865394Y-62468268D01*
X195739275Y-62535680D01*
X195739272Y-62535681D01*
X195602421Y-62577195D01*
X195531313Y-62584198D01*
X195495760Y-62587700D01*
X195424440Y-62587700D01*
X195388887Y-62584198D01*
X195317779Y-62577195D01*
X195180928Y-62535681D01*
X195180925Y-62535680D01*
X195054806Y-62468268D01*
X194944257Y-62377543D01*
X194853532Y-62266994D01*
X194786120Y-62140875D01*
X194786119Y-62140872D01*
X194744605Y-62004021D01*
X194730588Y-61861700D01*
X194744605Y-61719379D01*
X194786119Y-61582528D01*
X194786120Y-61582525D01*
X194853532Y-61456406D01*
X194944257Y-61345857D01*
X195054806Y-61255132D01*
X195180925Y-61187720D01*
X195180928Y-61187719D01*
X195317779Y-61146205D01*
X195388887Y-61139202D01*
X195424440Y-61135700D01*
X195495760Y-61135700D01*
X195531313Y-61139202D01*
X195531313Y-61139202D01*
G37*
G36*
X197531313Y-61139202D02*
G01*
X197602421Y-61146205D01*
X197739272Y-61187719D01*
X197739275Y-61187720D01*
X197865394Y-61255132D01*
X197975943Y-61345857D01*
X198066668Y-61456406D01*
X198134080Y-61582525D01*
X198134081Y-61582528D01*
X198175595Y-61719379D01*
X198189612Y-61861700D01*
X198175595Y-62004021D01*
X198134081Y-62140872D01*
X198134080Y-62140875D01*
X198066668Y-62266994D01*
X197975943Y-62377543D01*
X197865394Y-62468268D01*
X197739275Y-62535680D01*
X197739272Y-62535681D01*
X197602421Y-62577195D01*
X197531313Y-62584198D01*
X197495760Y-62587700D01*
X197424440Y-62587700D01*
X197388887Y-62584198D01*
X197317779Y-62577195D01*
X197180928Y-62535681D01*
X197180925Y-62535680D01*
X197054806Y-62468268D01*
X196944257Y-62377543D01*
X196853532Y-62266994D01*
X196786120Y-62140875D01*
X196786119Y-62140872D01*
X196744605Y-62004021D01*
X196730588Y-61861700D01*
X196744605Y-61719379D01*
X196786119Y-61582528D01*
X196786120Y-61582525D01*
X196853532Y-61456406D01*
X196944257Y-61345857D01*
X197054806Y-61255132D01*
X197180925Y-61187720D01*
X197180928Y-61187719D01*
X197317779Y-61146205D01*
X197388887Y-61139202D01*
X197424440Y-61135700D01*
X197495760Y-61135700D01*
X197531313Y-61139202D01*
X197531313Y-61139202D01*
G37*
G36*
X199531313Y-61139202D02*
G01*
X199602421Y-61146205D01*
X199739272Y-61187719D01*
X199739275Y-61187720D01*
X199865394Y-61255132D01*
X199975943Y-61345857D01*
X200066668Y-61456406D01*
X200134080Y-61582525D01*
X200134081Y-61582528D01*
X200175595Y-61719379D01*
X200189612Y-61861700D01*
X200175595Y-62004021D01*
X200134081Y-62140872D01*
X200134080Y-62140875D01*
X200066668Y-62266994D01*
X199975943Y-62377543D01*
X199865394Y-62468268D01*
X199739275Y-62535680D01*
X199739272Y-62535681D01*
X199602421Y-62577195D01*
X199531313Y-62584198D01*
X199495760Y-62587700D01*
X199424440Y-62587700D01*
X199388887Y-62584198D01*
X199317779Y-62577195D01*
X199180928Y-62535681D01*
X199180925Y-62535680D01*
X199054806Y-62468268D01*
X198944257Y-62377543D01*
X198853532Y-62266994D01*
X198786120Y-62140875D01*
X198786119Y-62140872D01*
X198744605Y-62004021D01*
X198730588Y-61861700D01*
X198744605Y-61719379D01*
X198786119Y-61582528D01*
X198786120Y-61582525D01*
X198853532Y-61456406D01*
X198944257Y-61345857D01*
X199054806Y-61255132D01*
X199180925Y-61187720D01*
X199180928Y-61187719D01*
X199317779Y-61146205D01*
X199388887Y-61139202D01*
X199424440Y-61135700D01*
X199495760Y-61135700D01*
X199531313Y-61139202D01*
X199531313Y-61139202D01*
G37*
G36*
X121769700Y-60479500D02*
G01*
X120317700Y-60479500D01*
X120317700Y-59027500D01*
X121769700Y-59027500D01*
X121769700Y-60479500D01*
X121769700Y-60479500D01*
G37*
G36*
X174283213Y-48871002D02*
G01*
X174354321Y-48878005D01*
X174491172Y-48919519D01*
X174491175Y-48919520D01*
X174617294Y-48986932D01*
X174727843Y-49077657D01*
X174818568Y-49188206D01*
X174885980Y-49314325D01*
X174885981Y-49314328D01*
X174927495Y-49451179D01*
X174941512Y-49593500D01*
X174927495Y-49735821D01*
X174885981Y-49872672D01*
X174885980Y-49872675D01*
X174818568Y-49998794D01*
X174727843Y-50109343D01*
X174617294Y-50200068D01*
X174491175Y-50267480D01*
X174491172Y-50267481D01*
X174354321Y-50308995D01*
X174283213Y-50315998D01*
X174247660Y-50319500D01*
X174176340Y-50319500D01*
X174140787Y-50315998D01*
X174069679Y-50308995D01*
X173932828Y-50267481D01*
X173932825Y-50267480D01*
X173806706Y-50200068D01*
X173696157Y-50109343D01*
X173605432Y-49998794D01*
X173538020Y-49872675D01*
X173538019Y-49872672D01*
X173496505Y-49735821D01*
X173482488Y-49593500D01*
X173496505Y-49451179D01*
X173538019Y-49314328D01*
X173538020Y-49314325D01*
X173605432Y-49188206D01*
X173696157Y-49077657D01*
X173806706Y-48986932D01*
X173932825Y-48919520D01*
X173932828Y-48919519D01*
X174069679Y-48878005D01*
X174140787Y-48871002D01*
X174176340Y-48867500D01*
X174247660Y-48867500D01*
X174283213Y-48871002D01*
X174283213Y-48871002D01*
G37*
G36*
X172938000Y-50319500D02*
G01*
X171486000Y-50319500D01*
X171486000Y-48867500D01*
X172938000Y-48867500D01*
X172938000Y-50319500D01*
X172938000Y-50319500D01*
G37*
G36*
X176283213Y-48871002D02*
G01*
X176354321Y-48878005D01*
X176491172Y-48919519D01*
X176491175Y-48919520D01*
X176617294Y-48986932D01*
X176727843Y-49077657D01*
X176818568Y-49188206D01*
X176885980Y-49314325D01*
X176885981Y-49314328D01*
X176927495Y-49451179D01*
X176941512Y-49593500D01*
X176927495Y-49735821D01*
X176885981Y-49872672D01*
X176885980Y-49872675D01*
X176818568Y-49998794D01*
X176727843Y-50109343D01*
X176617294Y-50200068D01*
X176491175Y-50267480D01*
X176491172Y-50267481D01*
X176354321Y-50308995D01*
X176283213Y-50315998D01*
X176247660Y-50319500D01*
X176176340Y-50319500D01*
X176140787Y-50315998D01*
X176069679Y-50308995D01*
X175932828Y-50267481D01*
X175932825Y-50267480D01*
X175806706Y-50200068D01*
X175696157Y-50109343D01*
X175605432Y-49998794D01*
X175538020Y-49872675D01*
X175538019Y-49872672D01*
X175496505Y-49735821D01*
X175482488Y-49593500D01*
X175496505Y-49451179D01*
X175538019Y-49314328D01*
X175538020Y-49314325D01*
X175605432Y-49188206D01*
X175696157Y-49077657D01*
X175806706Y-48986932D01*
X175932825Y-48919520D01*
X175932828Y-48919519D01*
X176069679Y-48878005D01*
X176140787Y-48871002D01*
X176176340Y-48867500D01*
X176247660Y-48867500D01*
X176283213Y-48871002D01*
X176283213Y-48871002D01*
G37*
G36*
X178283213Y-48871002D02*
G01*
X178354321Y-48878005D01*
X178491172Y-48919519D01*
X178491175Y-48919520D01*
X178617294Y-48986932D01*
X178727843Y-49077657D01*
X178818568Y-49188206D01*
X178885980Y-49314325D01*
X178885981Y-49314328D01*
X178927495Y-49451179D01*
X178941512Y-49593500D01*
X178927495Y-49735821D01*
X178885981Y-49872672D01*
X178885980Y-49872675D01*
X178818568Y-49998794D01*
X178727843Y-50109343D01*
X178617294Y-50200068D01*
X178491175Y-50267480D01*
X178491172Y-50267481D01*
X178354321Y-50308995D01*
X178283213Y-50315998D01*
X178247660Y-50319500D01*
X178176340Y-50319500D01*
X178140787Y-50315998D01*
X178069679Y-50308995D01*
X177932828Y-50267481D01*
X177932825Y-50267480D01*
X177806706Y-50200068D01*
X177696157Y-50109343D01*
X177605432Y-49998794D01*
X177538020Y-49872675D01*
X177538019Y-49872672D01*
X177496505Y-49735821D01*
X177482488Y-49593500D01*
X177496505Y-49451179D01*
X177538019Y-49314328D01*
X177538020Y-49314325D01*
X177605432Y-49188206D01*
X177696157Y-49077657D01*
X177806706Y-48986932D01*
X177932825Y-48919520D01*
X177932828Y-48919519D01*
X178069679Y-48878005D01*
X178140787Y-48871002D01*
X178176340Y-48867500D01*
X178247660Y-48867500D01*
X178283213Y-48871002D01*
X178283213Y-48871002D01*
G37*
M02*
