G04 #@! TF.GenerationSoftware,KiCad,Pcbnew,(5.1.0)-1*
G04 #@! TF.CreationDate,2019-12-16T03:31:48-04:00*
G04 #@! TF.ProjectId,Main,4d61696e-2e6b-4696-9361-645f70636258,rev?*
G04 #@! TF.SameCoordinates,Original*
G04 #@! TF.FileFunction,Other,User*
%FSLAX46Y46*%
G04 Gerber Fmt 4.6, Leading zero omitted, Abs format (unit mm)*
G04 Created by KiCad (PCBNEW (5.1.0)-1) date 2019-12-16 03:31:48*
%MOMM*%
%LPD*%
G04 APERTURE LIST*
%ADD10C,0.050000*%
G04 APERTURE END LIST*
D10*
X133199000Y-103465500D02*
X130199000Y-103465500D01*
X133199000Y-114465500D02*
X133199000Y-103465500D01*
X130199000Y-114465500D02*
X133199000Y-114465500D01*
X130199000Y-103465500D02*
X130199000Y-114465500D01*
X119658000Y-90257500D02*
X119658000Y-93257500D01*
X128658000Y-90257500D02*
X119658000Y-90257500D01*
X128658000Y-93257500D02*
X128658000Y-90257500D01*
X119658000Y-93257500D02*
X128658000Y-93257500D01*
X157872300Y-113780700D02*
X160872300Y-113780700D01*
X157872300Y-110780700D02*
X157872300Y-113780700D01*
X160872300Y-110780700D02*
X157872300Y-110780700D01*
X160872300Y-113780700D02*
X160872300Y-110780700D01*
X152877500Y-108245500D02*
X157637500Y-108245500D01*
X152877500Y-108245500D02*
X152877500Y-111845500D01*
X157637500Y-111845500D02*
X157637500Y-108245500D01*
X157637500Y-111845500D02*
X152877500Y-111845500D01*
X130514500Y-132733000D02*
X130514500Y-138833000D01*
X126964500Y-132733000D02*
X130514500Y-132733000D01*
X126964500Y-138833000D02*
X126964500Y-132733000D01*
X130514500Y-138833000D02*
X126964500Y-138833000D01*
X115941700Y-137408700D02*
X115941700Y-131308700D01*
X119491700Y-137408700D02*
X115941700Y-137408700D01*
X119491700Y-131308700D02*
X119491700Y-137408700D01*
X115941700Y-131308700D02*
X119491700Y-131308700D01*
X151906100Y-105525700D02*
X151906100Y-102525700D01*
X140906100Y-105525700D02*
X151906100Y-105525700D01*
X140906100Y-102525700D02*
X140906100Y-105525700D01*
X151906100Y-102525700D02*
X140906100Y-102525700D01*
X138609200Y-119607200D02*
X135609200Y-119607200D01*
X138609200Y-122607200D02*
X138609200Y-119607200D01*
X135609200Y-122607200D02*
X138609200Y-122607200D01*
X135609200Y-119607200D02*
X135609200Y-122607200D01*
X124713500Y-111338500D02*
X129613500Y-111338500D01*
X124713500Y-113578500D02*
X124713500Y-111338500D01*
X129613500Y-113578500D02*
X124713500Y-113578500D01*
X129613500Y-111338500D02*
X129613500Y-113578500D01*
X134258700Y-151817200D02*
X121258700Y-151817200D01*
X134258700Y-148817200D02*
X134258700Y-151817200D01*
X121258700Y-148817200D02*
X134258700Y-148817200D01*
X121258700Y-151817200D02*
X121258700Y-148817200D01*
X136375000Y-92990500D02*
X136375000Y-97890500D01*
X134135000Y-92990500D02*
X136375000Y-92990500D01*
X134135000Y-97890500D02*
X134135000Y-92990500D01*
X136375000Y-97890500D02*
X134135000Y-97890500D01*
X75894100Y-105831500D02*
X70994100Y-105831500D01*
X75894100Y-103591500D02*
X75894100Y-105831500D01*
X70994100Y-103591500D02*
X75894100Y-103591500D01*
X70994100Y-105831500D02*
X70994100Y-103591500D01*
X30426700Y-139017200D02*
X30426700Y-146377200D01*
X34896700Y-131867200D02*
X34896700Y-139017200D01*
X112956700Y-131867200D02*
X34896700Y-131867200D01*
X112956700Y-153527200D02*
X34896700Y-153527200D01*
X34896700Y-153527200D02*
X34896700Y-146377200D01*
X112956700Y-131867200D02*
X112956700Y-139017200D01*
X112956700Y-153527200D02*
X112956700Y-146377200D01*
X34896700Y-139017200D02*
X30426700Y-139017200D01*
X30426700Y-146377200D02*
X34896700Y-146377200D01*
X117426700Y-146377200D02*
X112956700Y-146377200D01*
X117426700Y-139017200D02*
X117426700Y-146377200D01*
X112956700Y-139017200D02*
X117426700Y-139017200D01*
X158359000Y-110403500D02*
X158359000Y-108163500D01*
X158359000Y-108163500D02*
X163259000Y-108163500D01*
X163259000Y-108163500D02*
X163259000Y-110403500D01*
X163259000Y-110403500D02*
X158359000Y-110403500D01*
X121066700Y-141807700D02*
X123306700Y-141807700D01*
X123306700Y-141807700D02*
X123306700Y-146707700D01*
X123306700Y-146707700D02*
X121066700Y-146707700D01*
X121066700Y-146707700D02*
X121066700Y-141807700D01*
X74460600Y-119593500D02*
X74460600Y-121833500D01*
X74460600Y-121833500D02*
X69560600Y-121833500D01*
X69560600Y-121833500D02*
X69560600Y-119593500D01*
X69560600Y-119593500D02*
X74460600Y-119593500D01*
X132242700Y-138479200D02*
X132242700Y-133579200D01*
X134482700Y-138479200D02*
X132242700Y-138479200D01*
X134482700Y-133579200D02*
X134482700Y-138479200D01*
X132242700Y-133579200D02*
X134482700Y-133579200D01*
X137576700Y-138479200D02*
X137576700Y-133579200D01*
X139816700Y-138479200D02*
X137576700Y-138479200D01*
X139816700Y-133579200D02*
X139816700Y-138479200D01*
X137576700Y-133579200D02*
X139816700Y-133579200D01*
X142834500Y-138517800D02*
X142834500Y-133617800D01*
X145074500Y-138517800D02*
X142834500Y-138517800D01*
X145074500Y-133617800D02*
X145074500Y-138517800D01*
X142834500Y-133617800D02*
X145074500Y-133617800D01*
X147894700Y-133579200D02*
X150134700Y-133579200D01*
X150134700Y-133579200D02*
X150134700Y-138479200D01*
X150134700Y-138479200D02*
X147894700Y-138479200D01*
X147894700Y-138479200D02*
X147894700Y-133579200D01*
X153070700Y-138473020D02*
X153070700Y-133573020D01*
X155310700Y-138473020D02*
X153070700Y-138473020D01*
X155310700Y-133573020D02*
X155310700Y-138473020D01*
X153070700Y-133573020D02*
X155310700Y-133573020D01*
X142657700Y-121258200D02*
X142657700Y-124258200D01*
X142657700Y-124258200D02*
X145657700Y-124258200D01*
X145657700Y-124258200D02*
X145657700Y-121258200D01*
X145657700Y-121258200D02*
X142657700Y-121258200D01*
X71489700Y-103417500D02*
X71489700Y-100417500D01*
X68489700Y-103417500D02*
X71489700Y-103417500D01*
X68489700Y-100417500D02*
X68489700Y-103417500D01*
X71489700Y-100417500D02*
X68489700Y-100417500D01*
X77530100Y-107683500D02*
X77530100Y-111233500D01*
X77530100Y-111233500D02*
X68880100Y-111233500D01*
X68880100Y-111233500D02*
X68880100Y-107683500D01*
X68880100Y-107683500D02*
X77530100Y-107683500D01*
X77543280Y-126633500D02*
X68893280Y-126633500D01*
X77543280Y-123083500D02*
X77543280Y-126633500D01*
X68893280Y-123083500D02*
X77543280Y-123083500D01*
X68893280Y-126633500D02*
X68893280Y-123083500D01*
X84136100Y-112483500D02*
X84136100Y-125483500D01*
X84136100Y-125483500D02*
X87136100Y-125483500D01*
X87136100Y-125483500D02*
X87136100Y-112483500D01*
X87136100Y-112483500D02*
X84136100Y-112483500D01*
X159907100Y-132667880D02*
X156907100Y-132667880D01*
X159907100Y-135667880D02*
X159907100Y-132667880D01*
X156907100Y-135667880D02*
X159907100Y-135667880D01*
X156907100Y-132667880D02*
X156907100Y-135667880D01*
X62189100Y-107572500D02*
X68189100Y-107572500D01*
X68189100Y-107572500D02*
X68189100Y-100072500D01*
X68189100Y-100072500D02*
X62189100Y-100072500D01*
X62189100Y-100072500D02*
X62189100Y-107572500D01*
X68189100Y-115954500D02*
X68189100Y-108454500D01*
X62189100Y-115954500D02*
X68189100Y-115954500D01*
X62189100Y-108454500D02*
X62189100Y-115954500D01*
X68189100Y-108454500D02*
X62189100Y-108454500D01*
X115212000Y-92646000D02*
X117452000Y-92646000D01*
X117452000Y-92646000D02*
X117452000Y-97546000D01*
X117452000Y-97546000D02*
X115212000Y-97546000D01*
X115212000Y-97546000D02*
X115212000Y-92646000D01*
X110386000Y-97546000D02*
X110386000Y-92646000D01*
X112626000Y-97546000D02*
X110386000Y-97546000D01*
X112626000Y-92646000D02*
X112626000Y-97546000D01*
X110386000Y-92646000D02*
X112626000Y-92646000D01*
X74624100Y-130596500D02*
X69724100Y-130596500D01*
X74624100Y-128356500D02*
X74624100Y-130596500D01*
X69724100Y-128356500D02*
X74624100Y-128356500D01*
X69724100Y-130596500D02*
X69724100Y-128356500D01*
X69486100Y-118603500D02*
X69486100Y-116363500D01*
X69486100Y-116363500D02*
X74386100Y-116363500D01*
X74386100Y-116363500D02*
X74386100Y-118603500D01*
X74386100Y-118603500D02*
X69486100Y-118603500D01*
X110386000Y-98959500D02*
X112626000Y-98959500D01*
X112626000Y-98959500D02*
X112626000Y-103859500D01*
X112626000Y-103859500D02*
X110386000Y-103859500D01*
X110386000Y-103859500D02*
X110386000Y-98959500D01*
X79309100Y-116866500D02*
X81549100Y-116866500D01*
X81549100Y-116866500D02*
X81549100Y-121766500D01*
X81549100Y-121766500D02*
X79309100Y-121766500D01*
X79309100Y-121766500D02*
X79309100Y-116866500D01*
X129436000Y-97473000D02*
X129436000Y-92573000D01*
X131676000Y-97473000D02*
X129436000Y-97473000D01*
X131676000Y-92573000D02*
X131676000Y-97473000D01*
X129436000Y-92573000D02*
X131676000Y-92573000D01*
X129436000Y-98415000D02*
X131676000Y-98415000D01*
X131676000Y-98415000D02*
X131676000Y-103315000D01*
X131676000Y-103315000D02*
X129436000Y-103315000D01*
X129436000Y-103315000D02*
X129436000Y-98415000D01*
X158600000Y-102208500D02*
X156360000Y-102208500D01*
X156360000Y-102208500D02*
X156360000Y-97308500D01*
X156360000Y-97308500D02*
X158600000Y-97308500D01*
X158600000Y-97308500D02*
X158600000Y-102208500D01*
X158600000Y-91684000D02*
X158600000Y-96584000D01*
X156360000Y-91684000D02*
X158600000Y-91684000D01*
X156360000Y-96584000D02*
X156360000Y-91684000D01*
X158600000Y-96584000D02*
X156360000Y-96584000D01*
X141963000Y-100811500D02*
X139723000Y-100811500D01*
X139723000Y-100811500D02*
X139723000Y-95911500D01*
X139723000Y-95911500D02*
X141963000Y-95911500D01*
X141963000Y-95911500D02*
X141963000Y-100811500D01*
X141963000Y-90033000D02*
X141963000Y-94933000D01*
X139723000Y-90033000D02*
X141963000Y-90033000D01*
X139723000Y-94933000D02*
X139723000Y-90033000D01*
X141963000Y-94933000D02*
X139723000Y-94933000D01*
X154917000Y-102208500D02*
X152677000Y-102208500D01*
X152677000Y-102208500D02*
X152677000Y-97308500D01*
X152677000Y-97308500D02*
X154917000Y-97308500D01*
X154917000Y-97308500D02*
X154917000Y-102208500D01*
X154790000Y-91630000D02*
X154790000Y-96530000D01*
X152550000Y-91630000D02*
X154790000Y-91630000D01*
X152550000Y-96530000D02*
X152550000Y-91630000D01*
X154790000Y-96530000D02*
X152550000Y-96530000D01*
X124816700Y-141577200D02*
X129716700Y-141577200D01*
X124816700Y-143817200D02*
X124816700Y-141577200D01*
X129716700Y-143817200D02*
X124816700Y-143817200D01*
X129716700Y-141577200D02*
X129716700Y-143817200D01*
X131676000Y-92012000D02*
X129436000Y-92012000D01*
X129436000Y-92012000D02*
X129436000Y-87112000D01*
X129436000Y-87112000D02*
X131676000Y-87112000D01*
X131676000Y-87112000D02*
X131676000Y-92012000D01*
X134909700Y-138479200D02*
X134909700Y-133579200D01*
X137149700Y-138479200D02*
X134909700Y-138479200D01*
X137149700Y-133579200D02*
X137149700Y-138479200D01*
X134909700Y-133579200D02*
X137149700Y-133579200D01*
X152550000Y-107506000D02*
X152550000Y-102606000D01*
X154790000Y-107506000D02*
X152550000Y-107506000D01*
X154790000Y-102606000D02*
X154790000Y-107506000D01*
X152550000Y-102606000D02*
X154790000Y-102606000D01*
X140370700Y-138479200D02*
X140370700Y-133579200D01*
X142610700Y-138479200D02*
X140370700Y-138479200D01*
X142610700Y-133579200D02*
X142610700Y-138479200D01*
X140370700Y-133579200D02*
X142610700Y-133579200D01*
X145323700Y-133579200D02*
X147563700Y-133579200D01*
X147563700Y-133579200D02*
X147563700Y-138479200D01*
X147563700Y-138479200D02*
X145323700Y-138479200D01*
X145323700Y-138479200D02*
X145323700Y-133579200D01*
X136548000Y-98796000D02*
X138788000Y-98796000D01*
X138788000Y-98796000D02*
X138788000Y-103696000D01*
X138788000Y-103696000D02*
X136548000Y-103696000D01*
X136548000Y-103696000D02*
X136548000Y-98796000D01*
X150416400Y-133579200D02*
X152656400Y-133579200D01*
X152656400Y-133579200D02*
X152656400Y-138479200D01*
X152656400Y-138479200D02*
X150416400Y-138479200D01*
X150416400Y-138479200D02*
X150416400Y-133579200D01*
X115862000Y-100733500D02*
X116802000Y-100733500D01*
X116802000Y-100733500D02*
X116802000Y-102593500D01*
X116802000Y-102593500D02*
X115862000Y-102593500D01*
X115862000Y-102593500D02*
X115862000Y-100733500D01*
X125166700Y-145511200D02*
X125166700Y-148011200D01*
X125166700Y-148011200D02*
X129366700Y-148011200D01*
X129366700Y-148011200D02*
X129366700Y-145511200D01*
X129366700Y-145511200D02*
X125166700Y-145511200D01*
X128045700Y-94848700D02*
X120645700Y-94848700D01*
X128045700Y-100248700D02*
X128045700Y-94848700D01*
X120645700Y-100248700D02*
X128045700Y-100248700D01*
X120645700Y-94848700D02*
X120645700Y-100248700D01*
X151045400Y-100274100D02*
X151045400Y-94874100D01*
X151045400Y-94874100D02*
X143645400Y-94874100D01*
X143645400Y-94874100D02*
X143645400Y-100274100D01*
X143645400Y-100274100D02*
X151045400Y-100274100D01*
X129246900Y-105276200D02*
X129246900Y-110776200D01*
X125946900Y-105276200D02*
X129246900Y-105276200D01*
X125946900Y-110776200D02*
X125946900Y-105276200D01*
X129246900Y-110776200D02*
X125946900Y-110776200D01*
M02*
