G04 #@! TF.GenerationSoftware,KiCad,Pcbnew,(5.1.0)-1*
G04 #@! TF.CreationDate,2019-12-16T03:31:48-04:00*
G04 #@! TF.ProjectId,Main,4d61696e-2e6b-4696-9361-645f70636258,rev?*
G04 #@! TF.SameCoordinates,Original*
G04 #@! TF.FileFunction,Other,Fab,Top*
%FSLAX46Y46*%
G04 Gerber Fmt 4.6, Leading zero omitted, Abs format (unit mm)*
G04 Created by KiCad (PCBNEW (5.1.0)-1) date 2019-12-16 03:31:48*
%MOMM*%
%LPD*%
G04 APERTURE LIST*
%ADD10C,0.100000*%
%ADD11C,0.150000*%
%ADD12C,0.075000*%
%ADD13C,0.120000*%
%ADD14C,0.040000*%
%ADD15C,0.110000*%
G04 APERTURE END LIST*
D10*
X130699000Y-104465500D02*
X131199000Y-103965500D01*
X130699000Y-113965500D02*
X130699000Y-104465500D01*
X132699000Y-113965500D02*
X130699000Y-113965500D01*
X132699000Y-103965500D02*
X132699000Y-113965500D01*
X131199000Y-103965500D02*
X132699000Y-103965500D01*
X120658000Y-92757500D02*
X120158000Y-92257500D01*
X128158000Y-92757500D02*
X120658000Y-92757500D01*
X128158000Y-90757500D02*
X128158000Y-92757500D01*
X120158000Y-90757500D02*
X128158000Y-90757500D01*
X120158000Y-92257500D02*
X120158000Y-90757500D01*
X160372300Y-112780700D02*
X159872300Y-113280700D01*
X160372300Y-111280700D02*
X160372300Y-112780700D01*
X158372300Y-111280700D02*
X160372300Y-111280700D01*
X158372300Y-113280700D02*
X158372300Y-111280700D01*
X159872300Y-113280700D02*
X158372300Y-113280700D01*
X154357500Y-109145500D02*
X155007500Y-108495500D01*
X156157500Y-108495500D02*
X155007500Y-108495500D01*
X154357500Y-109145500D02*
X154357500Y-111595500D01*
X156157500Y-111595500D02*
X154357500Y-111595500D01*
X156157500Y-108495500D02*
X156157500Y-111595500D01*
X129984500Y-133223000D02*
X129984500Y-138303000D01*
X127444500Y-133223000D02*
X129984500Y-133223000D01*
X127444500Y-137668000D02*
X127444500Y-133223000D01*
X128079500Y-138303000D02*
X127444500Y-137668000D01*
X129984500Y-138303000D02*
X128079500Y-138303000D01*
X116471700Y-136918700D02*
X116471700Y-131838700D01*
X119011700Y-136918700D02*
X116471700Y-136918700D01*
X119011700Y-132473700D02*
X119011700Y-136918700D01*
X118376700Y-131838700D02*
X119011700Y-132473700D01*
X116471700Y-131838700D02*
X118376700Y-131838700D01*
X150906100Y-103025700D02*
X151406100Y-103525700D01*
X141406100Y-103025700D02*
X150906100Y-103025700D01*
X141406100Y-105025700D02*
X141406100Y-103025700D01*
X151406100Y-105025700D02*
X141406100Y-105025700D01*
X151406100Y-103525700D02*
X151406100Y-105025700D01*
X136109200Y-120607200D02*
X136609200Y-120107200D01*
X136109200Y-122107200D02*
X136109200Y-120607200D01*
X138109200Y-122107200D02*
X136109200Y-122107200D01*
X138109200Y-120107200D02*
X138109200Y-122107200D01*
X136609200Y-120107200D02*
X138109200Y-120107200D01*
X125563500Y-111658500D02*
X128763500Y-111658500D01*
X125563500Y-113258500D02*
X125563500Y-111658500D01*
X128763500Y-113258500D02*
X125563500Y-113258500D01*
X128763500Y-111658500D02*
X128763500Y-113258500D01*
X133758700Y-151317200D02*
X121758700Y-151317200D01*
X133758700Y-149317200D02*
X133758700Y-151317200D01*
X122258700Y-149317200D02*
X133758700Y-149317200D01*
X121758700Y-149817200D02*
X122258700Y-149317200D01*
X121758700Y-151317200D02*
X121758700Y-149817200D01*
X136055000Y-93840500D02*
X136055000Y-97040500D01*
X134455000Y-93840500D02*
X136055000Y-93840500D01*
X134455000Y-97040500D02*
X134455000Y-93840500D01*
X136055000Y-97040500D02*
X134455000Y-97040500D01*
X75044100Y-105511500D02*
X71844100Y-105511500D01*
X75044100Y-103911500D02*
X75044100Y-105511500D01*
X71844100Y-103911500D02*
X75044100Y-103911500D01*
X71844100Y-105511500D02*
X71844100Y-103911500D01*
X107294200Y-153027200D02*
X112456700Y-147864700D01*
X112456700Y-132367200D02*
X35396700Y-132367200D01*
X112456700Y-147864700D02*
X112456700Y-132367200D01*
X107294200Y-153027200D02*
X35396700Y-153027200D01*
X35396700Y-153027200D02*
X35396700Y-132367200D01*
X159209000Y-110083500D02*
X159209000Y-108483500D01*
X159209000Y-108483500D02*
X162409000Y-108483500D01*
X162409000Y-108483500D02*
X162409000Y-110083500D01*
X162409000Y-110083500D02*
X159209000Y-110083500D01*
X121386700Y-142657700D02*
X122986700Y-142657700D01*
X122986700Y-142657700D02*
X122986700Y-145857700D01*
X122986700Y-145857700D02*
X121386700Y-145857700D01*
X121386700Y-145857700D02*
X121386700Y-142657700D01*
X73610600Y-119913500D02*
X73610600Y-121513500D01*
X73610600Y-121513500D02*
X70410600Y-121513500D01*
X70410600Y-121513500D02*
X70410600Y-119913500D01*
X70410600Y-119913500D02*
X73610600Y-119913500D01*
X132562700Y-137629200D02*
X132562700Y-134429200D01*
X134162700Y-137629200D02*
X132562700Y-137629200D01*
X134162700Y-134429200D02*
X134162700Y-137629200D01*
X132562700Y-134429200D02*
X134162700Y-134429200D01*
X137896700Y-137629200D02*
X137896700Y-134429200D01*
X139496700Y-137629200D02*
X137896700Y-137629200D01*
X139496700Y-134429200D02*
X139496700Y-137629200D01*
X137896700Y-134429200D02*
X139496700Y-134429200D01*
X143154500Y-137667800D02*
X143154500Y-134467800D01*
X144754500Y-137667800D02*
X143154500Y-137667800D01*
X144754500Y-134467800D02*
X144754500Y-137667800D01*
X143154500Y-134467800D02*
X144754500Y-134467800D01*
X148214700Y-134429200D02*
X149814700Y-134429200D01*
X149814700Y-134429200D02*
X149814700Y-137629200D01*
X149814700Y-137629200D02*
X148214700Y-137629200D01*
X148214700Y-137629200D02*
X148214700Y-134429200D01*
X153390700Y-137623020D02*
X153390700Y-134423020D01*
X154990700Y-137623020D02*
X153390700Y-137623020D01*
X154990700Y-134423020D02*
X154990700Y-137623020D01*
X153390700Y-134423020D02*
X154990700Y-134423020D01*
X143657700Y-121758200D02*
X145157700Y-121758200D01*
X145157700Y-121758200D02*
X145157700Y-123758200D01*
X145157700Y-123758200D02*
X143157700Y-123758200D01*
X143157700Y-123758200D02*
X143157700Y-122258200D01*
X143157700Y-122258200D02*
X143657700Y-121758200D01*
X70489700Y-100917500D02*
X70989700Y-101417500D01*
X68989700Y-100917500D02*
X70489700Y-100917500D01*
X68989700Y-102917500D02*
X68989700Y-100917500D01*
X70989700Y-102917500D02*
X68989700Y-102917500D01*
X70989700Y-101417500D02*
X70989700Y-102917500D01*
X77000100Y-108213500D02*
X77000100Y-110118500D01*
X77000100Y-110118500D02*
X76365100Y-110753500D01*
X76365100Y-110753500D02*
X69380100Y-110753500D01*
X69380100Y-110753500D02*
X69380100Y-108213500D01*
X69380100Y-108213500D02*
X77000100Y-108213500D01*
X77043280Y-126103500D02*
X69423280Y-126103500D01*
X77043280Y-123563500D02*
X77043280Y-126103500D01*
X70058280Y-123563500D02*
X77043280Y-123563500D01*
X69423280Y-124198500D02*
X70058280Y-123563500D01*
X69423280Y-126103500D02*
X69423280Y-124198500D01*
X85136100Y-112983500D02*
X86636100Y-112983500D01*
X86636100Y-112983500D02*
X86636100Y-124983500D01*
X86636100Y-124983500D02*
X84636100Y-124983500D01*
X84636100Y-124983500D02*
X84636100Y-113483500D01*
X84636100Y-113483500D02*
X85136100Y-112983500D01*
X157407100Y-133667880D02*
X157907100Y-133167880D01*
X157407100Y-135167880D02*
X157407100Y-133667880D01*
X159407100Y-135167880D02*
X157407100Y-135167880D01*
X159407100Y-133167880D02*
X159407100Y-135167880D01*
X157907100Y-133167880D02*
X159407100Y-133167880D01*
X67789100Y-101822500D02*
X66789100Y-100822500D01*
X67789100Y-106822500D02*
X62589100Y-106822500D01*
X62589100Y-106822500D02*
X62589100Y-100822500D01*
X62589100Y-100822500D02*
X66789100Y-100822500D01*
X67789100Y-101822500D02*
X67789100Y-106822500D01*
X62589100Y-114204500D02*
X62589100Y-109204500D01*
X67789100Y-115204500D02*
X63589100Y-115204500D01*
X67789100Y-109204500D02*
X67789100Y-115204500D01*
X62589100Y-109204500D02*
X67789100Y-109204500D01*
X62589100Y-114204500D02*
X63589100Y-115204500D01*
X115532000Y-93496000D02*
X117132000Y-93496000D01*
X117132000Y-93496000D02*
X117132000Y-96696000D01*
X117132000Y-96696000D02*
X115532000Y-96696000D01*
X115532000Y-96696000D02*
X115532000Y-93496000D01*
X110706000Y-96696000D02*
X110706000Y-93496000D01*
X112306000Y-96696000D02*
X110706000Y-96696000D01*
X112306000Y-93496000D02*
X112306000Y-96696000D01*
X110706000Y-93496000D02*
X112306000Y-93496000D01*
X73774100Y-130276500D02*
X70574100Y-130276500D01*
X73774100Y-128676500D02*
X73774100Y-130276500D01*
X70574100Y-128676500D02*
X73774100Y-128676500D01*
X70574100Y-130276500D02*
X70574100Y-128676500D01*
X70336100Y-118283500D02*
X70336100Y-116683500D01*
X70336100Y-116683500D02*
X73536100Y-116683500D01*
X73536100Y-116683500D02*
X73536100Y-118283500D01*
X73536100Y-118283500D02*
X70336100Y-118283500D01*
X110706000Y-99809500D02*
X112306000Y-99809500D01*
X112306000Y-99809500D02*
X112306000Y-103009500D01*
X112306000Y-103009500D02*
X110706000Y-103009500D01*
X110706000Y-103009500D02*
X110706000Y-99809500D01*
X79629100Y-117716500D02*
X81229100Y-117716500D01*
X81229100Y-117716500D02*
X81229100Y-120916500D01*
X81229100Y-120916500D02*
X79629100Y-120916500D01*
X79629100Y-120916500D02*
X79629100Y-117716500D01*
X129756000Y-96623000D02*
X129756000Y-93423000D01*
X131356000Y-96623000D02*
X129756000Y-96623000D01*
X131356000Y-93423000D02*
X131356000Y-96623000D01*
X129756000Y-93423000D02*
X131356000Y-93423000D01*
X129756000Y-99265000D02*
X131356000Y-99265000D01*
X131356000Y-99265000D02*
X131356000Y-102465000D01*
X131356000Y-102465000D02*
X129756000Y-102465000D01*
X129756000Y-102465000D02*
X129756000Y-99265000D01*
X158280000Y-101358500D02*
X156680000Y-101358500D01*
X156680000Y-101358500D02*
X156680000Y-98158500D01*
X156680000Y-98158500D02*
X158280000Y-98158500D01*
X158280000Y-98158500D02*
X158280000Y-101358500D01*
X158280000Y-92534000D02*
X158280000Y-95734000D01*
X156680000Y-92534000D02*
X158280000Y-92534000D01*
X156680000Y-95734000D02*
X156680000Y-92534000D01*
X158280000Y-95734000D02*
X156680000Y-95734000D01*
X141643000Y-99961500D02*
X140043000Y-99961500D01*
X140043000Y-99961500D02*
X140043000Y-96761500D01*
X140043000Y-96761500D02*
X141643000Y-96761500D01*
X141643000Y-96761500D02*
X141643000Y-99961500D01*
X141643000Y-90883000D02*
X141643000Y-94083000D01*
X140043000Y-90883000D02*
X141643000Y-90883000D01*
X140043000Y-94083000D02*
X140043000Y-90883000D01*
X141643000Y-94083000D02*
X140043000Y-94083000D01*
X154597000Y-101358500D02*
X152997000Y-101358500D01*
X152997000Y-101358500D02*
X152997000Y-98158500D01*
X152997000Y-98158500D02*
X154597000Y-98158500D01*
X154597000Y-98158500D02*
X154597000Y-101358500D01*
X154470000Y-92480000D02*
X154470000Y-95680000D01*
X152870000Y-92480000D02*
X154470000Y-92480000D01*
X152870000Y-95680000D02*
X152870000Y-92480000D01*
X154470000Y-95680000D02*
X152870000Y-95680000D01*
X125666700Y-141897200D02*
X128866700Y-141897200D01*
X125666700Y-143497200D02*
X125666700Y-141897200D01*
X128866700Y-143497200D02*
X125666700Y-143497200D01*
X128866700Y-141897200D02*
X128866700Y-143497200D01*
X131356000Y-91162000D02*
X129756000Y-91162000D01*
X129756000Y-91162000D02*
X129756000Y-87962000D01*
X129756000Y-87962000D02*
X131356000Y-87962000D01*
X131356000Y-87962000D02*
X131356000Y-91162000D01*
X135229700Y-137629200D02*
X135229700Y-134429200D01*
X136829700Y-137629200D02*
X135229700Y-137629200D01*
X136829700Y-134429200D02*
X136829700Y-137629200D01*
X135229700Y-134429200D02*
X136829700Y-134429200D01*
X152870000Y-106656000D02*
X152870000Y-103456000D01*
X154470000Y-106656000D02*
X152870000Y-106656000D01*
X154470000Y-103456000D02*
X154470000Y-106656000D01*
X152870000Y-103456000D02*
X154470000Y-103456000D01*
X140690700Y-137629200D02*
X140690700Y-134429200D01*
X142290700Y-137629200D02*
X140690700Y-137629200D01*
X142290700Y-134429200D02*
X142290700Y-137629200D01*
X140690700Y-134429200D02*
X142290700Y-134429200D01*
X145643700Y-134429200D02*
X147243700Y-134429200D01*
X147243700Y-134429200D02*
X147243700Y-137629200D01*
X147243700Y-137629200D02*
X145643700Y-137629200D01*
X145643700Y-137629200D02*
X145643700Y-134429200D01*
X136868000Y-99646000D02*
X138468000Y-99646000D01*
X138468000Y-99646000D02*
X138468000Y-102846000D01*
X138468000Y-102846000D02*
X136868000Y-102846000D01*
X136868000Y-102846000D02*
X136868000Y-99646000D01*
X150736400Y-134429200D02*
X152336400Y-134429200D01*
X152336400Y-134429200D02*
X152336400Y-137629200D01*
X152336400Y-137629200D02*
X150736400Y-137629200D01*
X150736400Y-137629200D02*
X150736400Y-134429200D01*
X116082000Y-101163500D02*
X116582000Y-101163500D01*
X116582000Y-101163500D02*
X116582000Y-102163500D01*
X116582000Y-102163500D02*
X116082000Y-102163500D01*
X116082000Y-102163500D02*
X116082000Y-101163500D01*
X126266700Y-145761200D02*
X128766700Y-145761200D01*
X128766700Y-145761200D02*
X128766700Y-147761200D01*
X128766700Y-147761200D02*
X125766700Y-147761200D01*
X125766700Y-147761200D02*
X125766700Y-146261200D01*
X125766700Y-146261200D02*
X126266700Y-145761200D01*
X122395700Y-96073700D02*
X123370700Y-95098700D01*
X122395700Y-99998700D02*
X122395700Y-96073700D01*
X126295700Y-99998700D02*
X122395700Y-99998700D01*
X126295700Y-95098700D02*
X126295700Y-99998700D01*
X123370700Y-95098700D02*
X126295700Y-95098700D01*
X148320400Y-100024100D02*
X145395400Y-100024100D01*
X145395400Y-100024100D02*
X145395400Y-95124100D01*
X145395400Y-95124100D02*
X149295400Y-95124100D01*
X149295400Y-95124100D02*
X149295400Y-99049100D01*
X149295400Y-99049100D02*
X148320400Y-100024100D01*
X128996900Y-107551200D02*
X128296900Y-106551200D01*
X128996900Y-107551200D02*
X128996900Y-109501200D01*
X126196900Y-106551200D02*
X128296900Y-106551200D01*
X126196900Y-109501200D02*
X126196900Y-106551200D01*
X128996900Y-109501200D02*
X126196900Y-109501200D01*
D11*
X152813900Y-131545720D02*
X151813900Y-131545720D01*
X151813900Y-131307624D01*
X151861520Y-131164767D01*
X151956758Y-131069529D01*
X152051996Y-131021910D01*
X152242472Y-130974291D01*
X152385329Y-130974291D01*
X152575805Y-131021910D01*
X152671043Y-131069529D01*
X152766281Y-131164767D01*
X152813900Y-131307624D01*
X152813900Y-131545720D01*
X152290091Y-130212386D02*
X152337710Y-130069529D01*
X152385329Y-130021910D01*
X152480567Y-129974291D01*
X152623424Y-129974291D01*
X152718662Y-130021910D01*
X152766281Y-130069529D01*
X152813900Y-130164767D01*
X152813900Y-130545720D01*
X151813900Y-130545720D01*
X151813900Y-130212386D01*
X151861520Y-130117148D01*
X151909139Y-130069529D01*
X152004377Y-130021910D01*
X152099615Y-130021910D01*
X152194853Y-130069529D01*
X152242472Y-130117148D01*
X152290091Y-130212386D01*
X152290091Y-130545720D01*
X151909139Y-129593339D02*
X151861520Y-129545720D01*
X151813900Y-129450481D01*
X151813900Y-129212386D01*
X151861520Y-129117148D01*
X151909139Y-129069529D01*
X152004377Y-129021910D01*
X152099615Y-129021910D01*
X152242472Y-129069529D01*
X152813900Y-129640958D01*
X152813900Y-129021910D01*
X152147234Y-128164767D02*
X152813900Y-128164767D01*
X151766281Y-128402862D02*
X152480567Y-128640958D01*
X152480567Y-128021910D01*
X151813900Y-127736196D02*
X151813900Y-127117148D01*
X152194853Y-127450481D01*
X152194853Y-127307624D01*
X152242472Y-127212386D01*
X152290091Y-127164767D01*
X152385329Y-127117148D01*
X152623424Y-127117148D01*
X152718662Y-127164767D01*
X152766281Y-127212386D01*
X152813900Y-127307624D01*
X152813900Y-127593339D01*
X152766281Y-127688577D01*
X152718662Y-127736196D01*
X152813900Y-126164767D02*
X152813900Y-126736196D01*
X152813900Y-126450481D02*
X151813900Y-126450481D01*
X151956758Y-126545720D01*
X152051996Y-126640958D01*
X152099615Y-126736196D01*
X151909139Y-125783815D02*
X151861520Y-125736196D01*
X151813900Y-125640958D01*
X151813900Y-125402862D01*
X151861520Y-125307624D01*
X151909139Y-125260005D01*
X152004377Y-125212386D01*
X152099615Y-125212386D01*
X152242472Y-125260005D01*
X152813900Y-125831434D01*
X152813900Y-125212386D01*
X151813900Y-124593339D02*
X151813900Y-124498100D01*
X151861520Y-124402862D01*
X151909139Y-124355243D01*
X152004377Y-124307624D01*
X152194853Y-124260005D01*
X152432948Y-124260005D01*
X152623424Y-124307624D01*
X152718662Y-124355243D01*
X152766281Y-124402862D01*
X152813900Y-124498100D01*
X152813900Y-124593339D01*
X152766281Y-124688577D01*
X152718662Y-124736196D01*
X152623424Y-124783815D01*
X152432948Y-124831434D01*
X152194853Y-124831434D01*
X152004377Y-124783815D01*
X151909139Y-124736196D01*
X151861520Y-124688577D01*
X151813900Y-124593339D01*
X151813900Y-123640958D02*
X151813900Y-123545720D01*
X151861520Y-123450481D01*
X151909139Y-123402862D01*
X152004377Y-123355243D01*
X152194853Y-123307624D01*
X152432948Y-123307624D01*
X152623424Y-123355243D01*
X152718662Y-123402862D01*
X152766281Y-123450481D01*
X152813900Y-123545720D01*
X152813900Y-123640958D01*
X152766281Y-123736196D01*
X152718662Y-123783815D01*
X152623424Y-123831434D01*
X152432948Y-123879053D01*
X152194853Y-123879053D01*
X152004377Y-123831434D01*
X151909139Y-123783815D01*
X151861520Y-123736196D01*
X151813900Y-123640958D01*
X152813900Y-122402862D02*
X152813900Y-122879053D01*
X151813900Y-122879053D01*
X133840860Y-130946280D02*
X132840860Y-130946280D01*
X132840860Y-130708184D01*
X132888480Y-130565327D01*
X132983718Y-130470089D01*
X133078956Y-130422470D01*
X133269432Y-130374851D01*
X133412289Y-130374851D01*
X133602765Y-130422470D01*
X133698003Y-130470089D01*
X133793241Y-130565327D01*
X133840860Y-130708184D01*
X133840860Y-130946280D01*
X133317051Y-129612946D02*
X133364670Y-129470089D01*
X133412289Y-129422470D01*
X133507527Y-129374851D01*
X133650384Y-129374851D01*
X133745622Y-129422470D01*
X133793241Y-129470089D01*
X133840860Y-129565327D01*
X133840860Y-129946280D01*
X132840860Y-129946280D01*
X132840860Y-129612946D01*
X132888480Y-129517708D01*
X132936099Y-129470089D01*
X133031337Y-129422470D01*
X133126575Y-129422470D01*
X133221813Y-129470089D01*
X133269432Y-129517708D01*
X133317051Y-129612946D01*
X133317051Y-129946280D01*
X132936099Y-128993899D02*
X132888480Y-128946280D01*
X132840860Y-128851041D01*
X132840860Y-128612946D01*
X132888480Y-128517708D01*
X132936099Y-128470089D01*
X133031337Y-128422470D01*
X133126575Y-128422470D01*
X133269432Y-128470089D01*
X133840860Y-129041518D01*
X133840860Y-128422470D01*
X133174194Y-127565327D02*
X133840860Y-127565327D01*
X132793241Y-127803422D02*
X133507527Y-128041518D01*
X133507527Y-127422470D01*
X132840860Y-127136756D02*
X132840860Y-126517708D01*
X133221813Y-126851041D01*
X133221813Y-126708184D01*
X133269432Y-126612946D01*
X133317051Y-126565327D01*
X133412289Y-126517708D01*
X133650384Y-126517708D01*
X133745622Y-126565327D01*
X133793241Y-126612946D01*
X133840860Y-126708184D01*
X133840860Y-126993899D01*
X133793241Y-127089137D01*
X133745622Y-127136756D01*
X133840860Y-125565327D02*
X133840860Y-126136756D01*
X133840860Y-125851041D02*
X132840860Y-125851041D01*
X132983718Y-125946280D01*
X133078956Y-126041518D01*
X133126575Y-126136756D01*
X132936099Y-125184375D02*
X132888480Y-125136756D01*
X132840860Y-125041518D01*
X132840860Y-124803422D01*
X132888480Y-124708184D01*
X132936099Y-124660565D01*
X133031337Y-124612946D01*
X133126575Y-124612946D01*
X133269432Y-124660565D01*
X133840860Y-125231994D01*
X133840860Y-124612946D01*
X132840860Y-123993899D02*
X132840860Y-123898660D01*
X132888480Y-123803422D01*
X132936099Y-123755803D01*
X133031337Y-123708184D01*
X133221813Y-123660565D01*
X133459908Y-123660565D01*
X133650384Y-123708184D01*
X133745622Y-123755803D01*
X133793241Y-123803422D01*
X133840860Y-123898660D01*
X133840860Y-123993899D01*
X133793241Y-124089137D01*
X133745622Y-124136756D01*
X133650384Y-124184375D01*
X133459908Y-124231994D01*
X133221813Y-124231994D01*
X133031337Y-124184375D01*
X132936099Y-124136756D01*
X132888480Y-124089137D01*
X132840860Y-123993899D01*
X132840860Y-123041518D02*
X132840860Y-122946280D01*
X132888480Y-122851041D01*
X132936099Y-122803422D01*
X133031337Y-122755803D01*
X133221813Y-122708184D01*
X133459908Y-122708184D01*
X133650384Y-122755803D01*
X133745622Y-122803422D01*
X133793241Y-122851041D01*
X133840860Y-122946280D01*
X133840860Y-123041518D01*
X133793241Y-123136756D01*
X133745622Y-123184375D01*
X133650384Y-123231994D01*
X133459908Y-123279613D01*
X133221813Y-123279613D01*
X133031337Y-123231994D01*
X132936099Y-123184375D01*
X132888480Y-123136756D01*
X132840860Y-123041518D01*
X133840860Y-121803422D02*
X133840860Y-122279613D01*
X132840860Y-122279613D01*
X125865666Y-115382642D02*
X125818047Y-115430261D01*
X125675190Y-115477880D01*
X125579952Y-115477880D01*
X125437095Y-115430261D01*
X125341857Y-115335023D01*
X125294238Y-115239785D01*
X125246619Y-115049309D01*
X125246619Y-114906452D01*
X125294238Y-114715976D01*
X125341857Y-114620738D01*
X125437095Y-114525500D01*
X125579952Y-114477880D01*
X125675190Y-114477880D01*
X125818047Y-114525500D01*
X125865666Y-114573119D01*
X126437095Y-115477880D02*
X126341857Y-115430261D01*
X126294238Y-115382642D01*
X126246619Y-115287404D01*
X126246619Y-115001690D01*
X126294238Y-114906452D01*
X126341857Y-114858833D01*
X126437095Y-114811214D01*
X126579952Y-114811214D01*
X126675190Y-114858833D01*
X126722809Y-114906452D01*
X126770428Y-115001690D01*
X126770428Y-115287404D01*
X126722809Y-115382642D01*
X126675190Y-115430261D01*
X126579952Y-115477880D01*
X126437095Y-115477880D01*
X127199000Y-114811214D02*
X127199000Y-115477880D01*
X127199000Y-114906452D02*
X127246619Y-114858833D01*
X127341857Y-114811214D01*
X127484714Y-114811214D01*
X127579952Y-114858833D01*
X127627571Y-114954071D01*
X127627571Y-115477880D01*
X128103761Y-114811214D02*
X128103761Y-115477880D01*
X128103761Y-114906452D02*
X128151380Y-114858833D01*
X128246619Y-114811214D01*
X128389476Y-114811214D01*
X128484714Y-114858833D01*
X128532333Y-114954071D01*
X128532333Y-115477880D01*
X128770428Y-115573119D02*
X129532333Y-115573119D01*
X129960904Y-114477880D02*
X130056142Y-114477880D01*
X130151380Y-114525500D01*
X130199000Y-114573119D01*
X130246619Y-114668357D01*
X130294238Y-114858833D01*
X130294238Y-115096928D01*
X130246619Y-115287404D01*
X130199000Y-115382642D01*
X130151380Y-115430261D01*
X130056142Y-115477880D01*
X129960904Y-115477880D01*
X129865666Y-115430261D01*
X129818047Y-115382642D01*
X129770428Y-115287404D01*
X129722809Y-115096928D01*
X129722809Y-114858833D01*
X129770428Y-114668357D01*
X129818047Y-114573119D01*
X129865666Y-114525500D01*
X129960904Y-114477880D01*
X131246619Y-115477880D02*
X130675190Y-115477880D01*
X130960904Y-115477880D02*
X130960904Y-114477880D01*
X130865666Y-114620738D01*
X130770428Y-114715976D01*
X130675190Y-114763595D01*
X131579952Y-115477880D02*
X132103761Y-114811214D01*
X131579952Y-114811214D02*
X132103761Y-115477880D01*
X132675190Y-114477880D02*
X132770428Y-114477880D01*
X132865666Y-114525500D01*
X132913285Y-114573119D01*
X132960904Y-114668357D01*
X133008523Y-114858833D01*
X133008523Y-115096928D01*
X132960904Y-115287404D01*
X132913285Y-115382642D01*
X132865666Y-115430261D01*
X132770428Y-115477880D01*
X132675190Y-115477880D01*
X132579952Y-115430261D01*
X132532333Y-115382642D01*
X132484714Y-115287404D01*
X132437095Y-115096928D01*
X132437095Y-114858833D01*
X132484714Y-114668357D01*
X132532333Y-114573119D01*
X132579952Y-114525500D01*
X132675190Y-114477880D01*
X133913285Y-114477880D02*
X133437095Y-114477880D01*
X133389476Y-114954071D01*
X133437095Y-114906452D01*
X133532333Y-114858833D01*
X133770428Y-114858833D01*
X133865666Y-114906452D01*
X133913285Y-114954071D01*
X133960904Y-115049309D01*
X133960904Y-115287404D01*
X133913285Y-115382642D01*
X133865666Y-115430261D01*
X133770428Y-115477880D01*
X133532333Y-115477880D01*
X133437095Y-115430261D01*
X133389476Y-115382642D01*
X134151380Y-115573119D02*
X134913285Y-115573119D01*
X135151380Y-115477880D02*
X135151380Y-114477880D01*
X135484714Y-115192166D01*
X135818047Y-114477880D01*
X135818047Y-115477880D01*
X136722809Y-115477880D02*
X136722809Y-114954071D01*
X136675190Y-114858833D01*
X136579952Y-114811214D01*
X136389476Y-114811214D01*
X136294238Y-114858833D01*
X136722809Y-115430261D02*
X136627571Y-115477880D01*
X136389476Y-115477880D01*
X136294238Y-115430261D01*
X136246619Y-115335023D01*
X136246619Y-115239785D01*
X136294238Y-115144547D01*
X136389476Y-115096928D01*
X136627571Y-115096928D01*
X136722809Y-115049309D01*
X137341857Y-115477880D02*
X137246619Y-115430261D01*
X137199000Y-115335023D01*
X137199000Y-114477880D01*
X138103761Y-115430261D02*
X138008523Y-115477880D01*
X137818047Y-115477880D01*
X137722809Y-115430261D01*
X137675190Y-115335023D01*
X137675190Y-114954071D01*
X137722809Y-114858833D01*
X137818047Y-114811214D01*
X138008523Y-114811214D01*
X138103761Y-114858833D01*
X138151380Y-114954071D01*
X138151380Y-115049309D01*
X137675190Y-115144547D01*
X131151380Y-109298833D02*
X131865666Y-109298833D01*
X132008523Y-109346452D01*
X132103761Y-109441690D01*
X132151380Y-109584547D01*
X132151380Y-109679785D01*
X132151380Y-108775023D02*
X132151380Y-108584547D01*
X132103761Y-108489309D01*
X132056142Y-108441690D01*
X131913285Y-108346452D01*
X131722809Y-108298833D01*
X131341857Y-108298833D01*
X131246619Y-108346452D01*
X131199000Y-108394071D01*
X131151380Y-108489309D01*
X131151380Y-108679785D01*
X131199000Y-108775023D01*
X131246619Y-108822642D01*
X131341857Y-108870261D01*
X131579952Y-108870261D01*
X131675190Y-108822642D01*
X131722809Y-108775023D01*
X131770428Y-108679785D01*
X131770428Y-108489309D01*
X131722809Y-108394071D01*
X131675190Y-108346452D01*
X131579952Y-108298833D01*
X129575142Y-97590833D02*
X129622761Y-97638452D01*
X129670380Y-97781309D01*
X129670380Y-97876547D01*
X129622761Y-98019404D01*
X129527523Y-98114642D01*
X129432285Y-98162261D01*
X129241809Y-98209880D01*
X129098952Y-98209880D01*
X128908476Y-98162261D01*
X128813238Y-98114642D01*
X128718000Y-98019404D01*
X128670380Y-97876547D01*
X128670380Y-97781309D01*
X128718000Y-97638452D01*
X128765619Y-97590833D01*
X129670380Y-97019404D02*
X129622761Y-97114642D01*
X129575142Y-97162261D01*
X129479904Y-97209880D01*
X129194190Y-97209880D01*
X129098952Y-97162261D01*
X129051333Y-97114642D01*
X129003714Y-97019404D01*
X129003714Y-96876547D01*
X129051333Y-96781309D01*
X129098952Y-96733690D01*
X129194190Y-96686071D01*
X129479904Y-96686071D01*
X129575142Y-96733690D01*
X129622761Y-96781309D01*
X129670380Y-96876547D01*
X129670380Y-97019404D01*
X129003714Y-96257500D02*
X129670380Y-96257500D01*
X129098952Y-96257500D02*
X129051333Y-96209880D01*
X129003714Y-96114642D01*
X129003714Y-95971785D01*
X129051333Y-95876547D01*
X129146571Y-95828928D01*
X129670380Y-95828928D01*
X129003714Y-95352738D02*
X129670380Y-95352738D01*
X129098952Y-95352738D02*
X129051333Y-95305119D01*
X129003714Y-95209880D01*
X129003714Y-95067023D01*
X129051333Y-94971785D01*
X129146571Y-94924166D01*
X129670380Y-94924166D01*
X129765619Y-94686071D02*
X129765619Y-93924166D01*
X128670380Y-93495595D02*
X128670380Y-93400357D01*
X128718000Y-93305119D01*
X128765619Y-93257500D01*
X128860857Y-93209880D01*
X129051333Y-93162261D01*
X129289428Y-93162261D01*
X129479904Y-93209880D01*
X129575142Y-93257500D01*
X129622761Y-93305119D01*
X129670380Y-93400357D01*
X129670380Y-93495595D01*
X129622761Y-93590833D01*
X129575142Y-93638452D01*
X129479904Y-93686071D01*
X129289428Y-93733690D01*
X129051333Y-93733690D01*
X128860857Y-93686071D01*
X128765619Y-93638452D01*
X128718000Y-93590833D01*
X128670380Y-93495595D01*
X129670380Y-92209880D02*
X129670380Y-92781309D01*
X129670380Y-92495595D02*
X128670380Y-92495595D01*
X128813238Y-92590833D01*
X128908476Y-92686071D01*
X128956095Y-92781309D01*
X129670380Y-91876547D02*
X129003714Y-91352738D01*
X129003714Y-91876547D02*
X129670380Y-91352738D01*
X128670380Y-90781309D02*
X128670380Y-90686071D01*
X128718000Y-90590833D01*
X128765619Y-90543214D01*
X128860857Y-90495595D01*
X129051333Y-90447976D01*
X129289428Y-90447976D01*
X129479904Y-90495595D01*
X129575142Y-90543214D01*
X129622761Y-90590833D01*
X129670380Y-90686071D01*
X129670380Y-90781309D01*
X129622761Y-90876547D01*
X129575142Y-90924166D01*
X129479904Y-90971785D01*
X129289428Y-91019404D01*
X129051333Y-91019404D01*
X128860857Y-90971785D01*
X128765619Y-90924166D01*
X128718000Y-90876547D01*
X128670380Y-90781309D01*
X129003714Y-89590833D02*
X129670380Y-89590833D01*
X128622761Y-89828928D02*
X129337047Y-90067023D01*
X129337047Y-89447976D01*
X129765619Y-89305119D02*
X129765619Y-88543214D01*
X129670380Y-88305119D02*
X128670380Y-88305119D01*
X129384666Y-87971785D01*
X128670380Y-87638452D01*
X129670380Y-87638452D01*
X129670380Y-86733690D02*
X129146571Y-86733690D01*
X129051333Y-86781309D01*
X129003714Y-86876547D01*
X129003714Y-87067023D01*
X129051333Y-87162261D01*
X129622761Y-86733690D02*
X129670380Y-86828928D01*
X129670380Y-87067023D01*
X129622761Y-87162261D01*
X129527523Y-87209880D01*
X129432285Y-87209880D01*
X129337047Y-87162261D01*
X129289428Y-87067023D01*
X129289428Y-86828928D01*
X129241809Y-86733690D01*
X129670380Y-86114642D02*
X129622761Y-86209880D01*
X129527523Y-86257500D01*
X128670380Y-86257500D01*
X129622761Y-85352738D02*
X129670380Y-85447976D01*
X129670380Y-85638452D01*
X129622761Y-85733690D01*
X129527523Y-85781309D01*
X129146571Y-85781309D01*
X129051333Y-85733690D01*
X129003714Y-85638452D01*
X129003714Y-85447976D01*
X129051333Y-85352738D01*
X129146571Y-85305119D01*
X129241809Y-85305119D01*
X129337047Y-85781309D01*
X123824666Y-91209880D02*
X123824666Y-91924166D01*
X123777047Y-92067023D01*
X123681809Y-92162261D01*
X123538952Y-92209880D01*
X123443714Y-92209880D01*
X124205619Y-91209880D02*
X124824666Y-91209880D01*
X124491333Y-91590833D01*
X124634190Y-91590833D01*
X124729428Y-91638452D01*
X124777047Y-91686071D01*
X124824666Y-91781309D01*
X124824666Y-92019404D01*
X124777047Y-92114642D01*
X124729428Y-92162261D01*
X124634190Y-92209880D01*
X124348476Y-92209880D01*
X124253238Y-92162261D01*
X124205619Y-92114642D01*
X153538966Y-110577842D02*
X153491347Y-110625461D01*
X153348490Y-110673080D01*
X153253252Y-110673080D01*
X153110395Y-110625461D01*
X153015157Y-110530223D01*
X152967538Y-110434985D01*
X152919919Y-110244509D01*
X152919919Y-110101652D01*
X152967538Y-109911176D01*
X153015157Y-109815938D01*
X153110395Y-109720700D01*
X153253252Y-109673080D01*
X153348490Y-109673080D01*
X153491347Y-109720700D01*
X153538966Y-109768319D01*
X154110395Y-110673080D02*
X154015157Y-110625461D01*
X153967538Y-110577842D01*
X153919919Y-110482604D01*
X153919919Y-110196890D01*
X153967538Y-110101652D01*
X154015157Y-110054033D01*
X154110395Y-110006414D01*
X154253252Y-110006414D01*
X154348490Y-110054033D01*
X154396109Y-110101652D01*
X154443728Y-110196890D01*
X154443728Y-110482604D01*
X154396109Y-110577842D01*
X154348490Y-110625461D01*
X154253252Y-110673080D01*
X154110395Y-110673080D01*
X154872300Y-110006414D02*
X154872300Y-110673080D01*
X154872300Y-110101652D02*
X154919919Y-110054033D01*
X155015157Y-110006414D01*
X155158014Y-110006414D01*
X155253252Y-110054033D01*
X155300871Y-110149271D01*
X155300871Y-110673080D01*
X155777061Y-110006414D02*
X155777061Y-110673080D01*
X155777061Y-110101652D02*
X155824680Y-110054033D01*
X155919919Y-110006414D01*
X156062776Y-110006414D01*
X156158014Y-110054033D01*
X156205633Y-110149271D01*
X156205633Y-110673080D01*
X156443728Y-110768319D02*
X157205633Y-110768319D01*
X157634204Y-109673080D02*
X157729442Y-109673080D01*
X157824680Y-109720700D01*
X157872300Y-109768319D01*
X157919919Y-109863557D01*
X157967538Y-110054033D01*
X157967538Y-110292128D01*
X157919919Y-110482604D01*
X157872300Y-110577842D01*
X157824680Y-110625461D01*
X157729442Y-110673080D01*
X157634204Y-110673080D01*
X157538966Y-110625461D01*
X157491347Y-110577842D01*
X157443728Y-110482604D01*
X157396109Y-110292128D01*
X157396109Y-110054033D01*
X157443728Y-109863557D01*
X157491347Y-109768319D01*
X157538966Y-109720700D01*
X157634204Y-109673080D01*
X158919919Y-110673080D02*
X158348490Y-110673080D01*
X158634204Y-110673080D02*
X158634204Y-109673080D01*
X158538966Y-109815938D01*
X158443728Y-109911176D01*
X158348490Y-109958795D01*
X159253252Y-110673080D02*
X159777061Y-110006414D01*
X159253252Y-110006414D02*
X159777061Y-110673080D01*
X160348490Y-109673080D02*
X160443728Y-109673080D01*
X160538966Y-109720700D01*
X160586585Y-109768319D01*
X160634204Y-109863557D01*
X160681823Y-110054033D01*
X160681823Y-110292128D01*
X160634204Y-110482604D01*
X160586585Y-110577842D01*
X160538966Y-110625461D01*
X160443728Y-110673080D01*
X160348490Y-110673080D01*
X160253252Y-110625461D01*
X160205633Y-110577842D01*
X160158014Y-110482604D01*
X160110395Y-110292128D01*
X160110395Y-110054033D01*
X160158014Y-109863557D01*
X160205633Y-109768319D01*
X160253252Y-109720700D01*
X160348490Y-109673080D01*
X161634204Y-110673080D02*
X161062776Y-110673080D01*
X161348490Y-110673080D02*
X161348490Y-109673080D01*
X161253252Y-109815938D01*
X161158014Y-109911176D01*
X161062776Y-109958795D01*
X161824680Y-110768319D02*
X162586585Y-110768319D01*
X162824680Y-110673080D02*
X162824680Y-109673080D01*
X163158014Y-110387366D01*
X163491347Y-109673080D01*
X163491347Y-110673080D01*
X164396109Y-110673080D02*
X164396109Y-110149271D01*
X164348490Y-110054033D01*
X164253252Y-110006414D01*
X164062776Y-110006414D01*
X163967538Y-110054033D01*
X164396109Y-110625461D02*
X164300871Y-110673080D01*
X164062776Y-110673080D01*
X163967538Y-110625461D01*
X163919919Y-110530223D01*
X163919919Y-110434985D01*
X163967538Y-110339747D01*
X164062776Y-110292128D01*
X164300871Y-110292128D01*
X164396109Y-110244509D01*
X165015157Y-110673080D02*
X164919919Y-110625461D01*
X164872300Y-110530223D01*
X164872300Y-109673080D01*
X165777061Y-110625461D02*
X165681823Y-110673080D01*
X165491347Y-110673080D01*
X165396109Y-110625461D01*
X165348490Y-110530223D01*
X165348490Y-110149271D01*
X165396109Y-110054033D01*
X165491347Y-110006414D01*
X165681823Y-110006414D01*
X165777061Y-110054033D01*
X165824680Y-110149271D01*
X165824680Y-110244509D01*
X165348490Y-110339747D01*
X158395919Y-112112466D02*
X157681633Y-112112466D01*
X157538776Y-112064847D01*
X157443538Y-111969609D01*
X157395919Y-111826752D01*
X157395919Y-111731514D01*
X157395919Y-113112466D02*
X157395919Y-112541038D01*
X157395919Y-112826752D02*
X158395919Y-112826752D01*
X158253061Y-112731514D01*
X158157823Y-112636276D01*
X158110204Y-112541038D01*
X147897342Y-114663480D02*
X147421152Y-114663480D01*
X147421152Y-113663480D01*
X148230676Y-114663480D02*
X148230676Y-113663480D01*
X148564009Y-114377766D01*
X148897342Y-113663480D01*
X148897342Y-114663480D01*
X149802104Y-113996814D02*
X149802104Y-114663480D01*
X149564009Y-113615861D02*
X149325914Y-114330147D01*
X149944961Y-114330147D01*
X150849723Y-114663480D02*
X150278295Y-114663480D01*
X150564009Y-114663480D02*
X150564009Y-113663480D01*
X150468771Y-113806338D01*
X150373533Y-113901576D01*
X150278295Y-113949195D01*
X151230676Y-113758719D02*
X151278295Y-113711100D01*
X151373533Y-113663480D01*
X151611628Y-113663480D01*
X151706866Y-113711100D01*
X151754485Y-113758719D01*
X151802104Y-113853957D01*
X151802104Y-113949195D01*
X151754485Y-114092052D01*
X151183057Y-114663480D01*
X151802104Y-114663480D01*
X152421152Y-113663480D02*
X152516390Y-113663480D01*
X152611628Y-113711100D01*
X152659247Y-113758719D01*
X152706866Y-113853957D01*
X152754485Y-114044433D01*
X152754485Y-114282528D01*
X152706866Y-114473004D01*
X152659247Y-114568242D01*
X152611628Y-114615861D01*
X152516390Y-114663480D01*
X152421152Y-114663480D01*
X152325914Y-114615861D01*
X152278295Y-114568242D01*
X152230676Y-114473004D01*
X152183057Y-114282528D01*
X152183057Y-114044433D01*
X152230676Y-113853957D01*
X152278295Y-113758719D01*
X152325914Y-113711100D01*
X152421152Y-113663480D01*
X153183057Y-114282528D02*
X153944961Y-114282528D01*
X154992580Y-114568242D02*
X154944961Y-114615861D01*
X154802104Y-114663480D01*
X154706866Y-114663480D01*
X154564009Y-114615861D01*
X154468771Y-114520623D01*
X154421152Y-114425385D01*
X154373533Y-114234909D01*
X154373533Y-114092052D01*
X154421152Y-113901576D01*
X154468771Y-113806338D01*
X154564009Y-113711100D01*
X154706866Y-113663480D01*
X154802104Y-113663480D01*
X154944961Y-113711100D01*
X154992580Y-113758719D01*
X155849723Y-113996814D02*
X155849723Y-114663480D01*
X155421152Y-113996814D02*
X155421152Y-114520623D01*
X155468771Y-114615861D01*
X155564009Y-114663480D01*
X155706866Y-114663480D01*
X155802104Y-114615861D01*
X155849723Y-114568242D01*
X156278295Y-114615861D02*
X156373533Y-114663480D01*
X156564009Y-114663480D01*
X156659247Y-114615861D01*
X156706866Y-114520623D01*
X156706866Y-114473004D01*
X156659247Y-114377766D01*
X156564009Y-114330147D01*
X156421152Y-114330147D01*
X156325914Y-114282528D01*
X156278295Y-114187290D01*
X156278295Y-114139671D01*
X156325914Y-114044433D01*
X156421152Y-113996814D01*
X156564009Y-113996814D01*
X156659247Y-114044433D01*
X156992580Y-113996814D02*
X157373533Y-113996814D01*
X157135438Y-113663480D02*
X157135438Y-114520623D01*
X157183057Y-114615861D01*
X157278295Y-114663480D01*
X157373533Y-114663480D01*
X157849723Y-114663480D02*
X157754485Y-114615861D01*
X157706866Y-114568242D01*
X157659247Y-114473004D01*
X157659247Y-114187290D01*
X157706866Y-114092052D01*
X157754485Y-114044433D01*
X157849723Y-113996814D01*
X157992580Y-113996814D01*
X158087819Y-114044433D01*
X158135438Y-114092052D01*
X158183057Y-114187290D01*
X158183057Y-114473004D01*
X158135438Y-114568242D01*
X158087819Y-114615861D01*
X157992580Y-114663480D01*
X157849723Y-114663480D01*
X158611628Y-114663480D02*
X158611628Y-113996814D01*
X158611628Y-114092052D02*
X158659247Y-114044433D01*
X158754485Y-113996814D01*
X158897342Y-113996814D01*
X158992580Y-114044433D01*
X159040200Y-114139671D01*
X159040200Y-114663480D01*
X159040200Y-114139671D02*
X159087819Y-114044433D01*
X159183057Y-113996814D01*
X159325914Y-113996814D01*
X159421152Y-114044433D01*
X159468771Y-114139671D01*
X159468771Y-114663480D01*
X159897342Y-114615861D02*
X160040200Y-114663480D01*
X160278295Y-114663480D01*
X160373533Y-114615861D01*
X160421152Y-114568242D01*
X160468771Y-114473004D01*
X160468771Y-114377766D01*
X160421152Y-114282528D01*
X160373533Y-114234909D01*
X160278295Y-114187290D01*
X160087819Y-114139671D01*
X159992580Y-114092052D01*
X159944961Y-114044433D01*
X159897342Y-113949195D01*
X159897342Y-113853957D01*
X159944961Y-113758719D01*
X159992580Y-113711100D01*
X160087819Y-113663480D01*
X160325914Y-113663480D01*
X160468771Y-113711100D01*
X160802104Y-113996814D02*
X161040200Y-114663480D01*
X161278295Y-113996814D02*
X161040200Y-114663480D01*
X160944961Y-114901576D01*
X160897342Y-114949195D01*
X160802104Y-114996814D01*
X161659247Y-114663480D02*
X161659247Y-113996814D01*
X161659247Y-114092052D02*
X161706866Y-114044433D01*
X161802104Y-113996814D01*
X161944961Y-113996814D01*
X162040200Y-114044433D01*
X162087819Y-114139671D01*
X162087819Y-114663480D01*
X162087819Y-114139671D02*
X162135438Y-114044433D01*
X162230676Y-113996814D01*
X162373533Y-113996814D01*
X162468771Y-114044433D01*
X162516390Y-114139671D01*
X162516390Y-114663480D01*
X162992580Y-114663480D02*
X162992580Y-113663480D01*
X162992580Y-114044433D02*
X163087819Y-113996814D01*
X163278295Y-113996814D01*
X163373533Y-114044433D01*
X163421152Y-114092052D01*
X163468771Y-114187290D01*
X163468771Y-114473004D01*
X163421152Y-114568242D01*
X163373533Y-114615861D01*
X163278295Y-114663480D01*
X163087819Y-114663480D01*
X162992580Y-114615861D01*
X164040200Y-114663480D02*
X163944961Y-114615861D01*
X163897342Y-114568242D01*
X163849723Y-114473004D01*
X163849723Y-114187290D01*
X163897342Y-114092052D01*
X163944961Y-114044433D01*
X164040200Y-113996814D01*
X164183057Y-113996814D01*
X164278295Y-114044433D01*
X164325914Y-114092052D01*
X164373533Y-114187290D01*
X164373533Y-114473004D01*
X164325914Y-114568242D01*
X164278295Y-114615861D01*
X164183057Y-114663480D01*
X164040200Y-114663480D01*
X164944961Y-114663480D02*
X164849723Y-114615861D01*
X164802104Y-114520623D01*
X164802104Y-113663480D01*
X165278295Y-114615861D02*
X165373533Y-114663480D01*
X165564009Y-114663480D01*
X165659247Y-114615861D01*
X165706866Y-114520623D01*
X165706866Y-114473004D01*
X165659247Y-114377766D01*
X165564009Y-114330147D01*
X165421152Y-114330147D01*
X165325914Y-114282528D01*
X165278295Y-114187290D01*
X165278295Y-114139671D01*
X165325914Y-114044433D01*
X165421152Y-113996814D01*
X165564009Y-113996814D01*
X165659247Y-114044433D01*
D12*
X155531309Y-109664547D02*
X155126547Y-109664547D01*
X155078928Y-109688357D01*
X155055119Y-109712166D01*
X155031309Y-109759785D01*
X155031309Y-109855023D01*
X155055119Y-109902642D01*
X155078928Y-109926452D01*
X155126547Y-109950261D01*
X155531309Y-109950261D01*
X155031309Y-110450261D02*
X155031309Y-110164547D01*
X155031309Y-110307404D02*
X155531309Y-110307404D01*
X155459880Y-110259785D01*
X155412261Y-110212166D01*
X155388452Y-110164547D01*
D11*
X123452595Y-131175380D02*
X123452595Y-131889666D01*
X123404976Y-132032523D01*
X123309738Y-132127761D01*
X123166880Y-132175380D01*
X123071642Y-132175380D01*
X124357357Y-131508714D02*
X124357357Y-132175380D01*
X123928785Y-131508714D02*
X123928785Y-132032523D01*
X123976404Y-132127761D01*
X124071642Y-132175380D01*
X124214500Y-132175380D01*
X124309738Y-132127761D01*
X124357357Y-132080142D01*
X124833547Y-132175380D02*
X124833547Y-131508714D01*
X124833547Y-131603952D02*
X124881166Y-131556333D01*
X124976404Y-131508714D01*
X125119261Y-131508714D01*
X125214500Y-131556333D01*
X125262119Y-131651571D01*
X125262119Y-132175380D01*
X125262119Y-131651571D02*
X125309738Y-131556333D01*
X125404976Y-131508714D01*
X125547833Y-131508714D01*
X125643071Y-131556333D01*
X125690690Y-131651571D01*
X125690690Y-132175380D01*
X126166880Y-131508714D02*
X126166880Y-132508714D01*
X126166880Y-131556333D02*
X126262119Y-131508714D01*
X126452595Y-131508714D01*
X126547833Y-131556333D01*
X126595452Y-131603952D01*
X126643071Y-131699190D01*
X126643071Y-131984904D01*
X126595452Y-132080142D01*
X126547833Y-132127761D01*
X126452595Y-132175380D01*
X126262119Y-132175380D01*
X126166880Y-132127761D01*
X127452595Y-132127761D02*
X127357357Y-132175380D01*
X127166880Y-132175380D01*
X127071642Y-132127761D01*
X127024023Y-132032523D01*
X127024023Y-131651571D01*
X127071642Y-131556333D01*
X127166880Y-131508714D01*
X127357357Y-131508714D01*
X127452595Y-131556333D01*
X127500214Y-131651571D01*
X127500214Y-131746809D01*
X127024023Y-131842047D01*
X127928785Y-132175380D02*
X127928785Y-131508714D01*
X127928785Y-131699190D02*
X127976404Y-131603952D01*
X128024023Y-131556333D01*
X128119261Y-131508714D01*
X128214500Y-131508714D01*
X128309738Y-132270619D02*
X129071642Y-132270619D01*
X129262119Y-131270619D02*
X129309738Y-131223000D01*
X129404976Y-131175380D01*
X129643071Y-131175380D01*
X129738309Y-131223000D01*
X129785928Y-131270619D01*
X129833547Y-131365857D01*
X129833547Y-131461095D01*
X129785928Y-131603952D01*
X129214500Y-132175380D01*
X129833547Y-132175380D01*
X130024023Y-132270619D02*
X130785928Y-132270619D01*
X131214500Y-131175380D02*
X131404976Y-131175380D01*
X131500214Y-131223000D01*
X131595452Y-131318238D01*
X131643071Y-131508714D01*
X131643071Y-131842047D01*
X131595452Y-132032523D01*
X131500214Y-132127761D01*
X131404976Y-132175380D01*
X131214500Y-132175380D01*
X131119261Y-132127761D01*
X131024023Y-132032523D01*
X130976404Y-131842047D01*
X130976404Y-131508714D01*
X131024023Y-131318238D01*
X131119261Y-131223000D01*
X131214500Y-131175380D01*
X132071642Y-131508714D02*
X132071642Y-132508714D01*
X132071642Y-131556333D02*
X132166880Y-131508714D01*
X132357357Y-131508714D01*
X132452595Y-131556333D01*
X132500214Y-131603952D01*
X132547833Y-131699190D01*
X132547833Y-131984904D01*
X132500214Y-132080142D01*
X132452595Y-132127761D01*
X132357357Y-132175380D01*
X132166880Y-132175380D01*
X132071642Y-132127761D01*
X133357357Y-132127761D02*
X133262119Y-132175380D01*
X133071642Y-132175380D01*
X132976404Y-132127761D01*
X132928785Y-132032523D01*
X132928785Y-131651571D01*
X132976404Y-131556333D01*
X133071642Y-131508714D01*
X133262119Y-131508714D01*
X133357357Y-131556333D01*
X133404976Y-131651571D01*
X133404976Y-131746809D01*
X132928785Y-131842047D01*
X133833547Y-131508714D02*
X133833547Y-132175380D01*
X133833547Y-131603952D02*
X133881166Y-131556333D01*
X133976404Y-131508714D01*
X134119261Y-131508714D01*
X134214500Y-131556333D01*
X134262119Y-131651571D01*
X134262119Y-132175380D01*
X128166880Y-136596333D02*
X128881166Y-136596333D01*
X129024023Y-136643952D01*
X129119261Y-136739190D01*
X129166880Y-136882047D01*
X129166880Y-136977285D01*
X129166880Y-136120142D02*
X128166880Y-136120142D01*
X128166880Y-135739190D01*
X128214500Y-135643952D01*
X128262119Y-135596333D01*
X128357357Y-135548714D01*
X128500214Y-135548714D01*
X128595452Y-135596333D01*
X128643071Y-135643952D01*
X128690690Y-135739190D01*
X128690690Y-136120142D01*
X128262119Y-135167761D02*
X128214500Y-135120142D01*
X128166880Y-135024904D01*
X128166880Y-134786809D01*
X128214500Y-134691571D01*
X128262119Y-134643952D01*
X128357357Y-134596333D01*
X128452595Y-134596333D01*
X128595452Y-134643952D01*
X129166880Y-135215380D01*
X129166880Y-134596333D01*
X112479795Y-137871080D02*
X112479795Y-138585366D01*
X112432176Y-138728223D01*
X112336938Y-138823461D01*
X112194080Y-138871080D01*
X112098842Y-138871080D01*
X113384557Y-138204414D02*
X113384557Y-138871080D01*
X112955985Y-138204414D02*
X112955985Y-138728223D01*
X113003604Y-138823461D01*
X113098842Y-138871080D01*
X113241700Y-138871080D01*
X113336938Y-138823461D01*
X113384557Y-138775842D01*
X113860747Y-138871080D02*
X113860747Y-138204414D01*
X113860747Y-138299652D02*
X113908366Y-138252033D01*
X114003604Y-138204414D01*
X114146461Y-138204414D01*
X114241700Y-138252033D01*
X114289319Y-138347271D01*
X114289319Y-138871080D01*
X114289319Y-138347271D02*
X114336938Y-138252033D01*
X114432176Y-138204414D01*
X114575033Y-138204414D01*
X114670271Y-138252033D01*
X114717890Y-138347271D01*
X114717890Y-138871080D01*
X115194080Y-138204414D02*
X115194080Y-139204414D01*
X115194080Y-138252033D02*
X115289319Y-138204414D01*
X115479795Y-138204414D01*
X115575033Y-138252033D01*
X115622652Y-138299652D01*
X115670271Y-138394890D01*
X115670271Y-138680604D01*
X115622652Y-138775842D01*
X115575033Y-138823461D01*
X115479795Y-138871080D01*
X115289319Y-138871080D01*
X115194080Y-138823461D01*
X116479795Y-138823461D02*
X116384557Y-138871080D01*
X116194080Y-138871080D01*
X116098842Y-138823461D01*
X116051223Y-138728223D01*
X116051223Y-138347271D01*
X116098842Y-138252033D01*
X116194080Y-138204414D01*
X116384557Y-138204414D01*
X116479795Y-138252033D01*
X116527414Y-138347271D01*
X116527414Y-138442509D01*
X116051223Y-138537747D01*
X116955985Y-138871080D02*
X116955985Y-138204414D01*
X116955985Y-138394890D02*
X117003604Y-138299652D01*
X117051223Y-138252033D01*
X117146461Y-138204414D01*
X117241700Y-138204414D01*
X117336938Y-138966319D02*
X118098842Y-138966319D01*
X118289319Y-137966319D02*
X118336938Y-137918700D01*
X118432176Y-137871080D01*
X118670271Y-137871080D01*
X118765509Y-137918700D01*
X118813128Y-137966319D01*
X118860747Y-138061557D01*
X118860747Y-138156795D01*
X118813128Y-138299652D01*
X118241700Y-138871080D01*
X118860747Y-138871080D01*
X119051223Y-138966319D02*
X119813128Y-138966319D01*
X120241700Y-137871080D02*
X120432176Y-137871080D01*
X120527414Y-137918700D01*
X120622652Y-138013938D01*
X120670271Y-138204414D01*
X120670271Y-138537747D01*
X120622652Y-138728223D01*
X120527414Y-138823461D01*
X120432176Y-138871080D01*
X120241700Y-138871080D01*
X120146461Y-138823461D01*
X120051223Y-138728223D01*
X120003604Y-138537747D01*
X120003604Y-138204414D01*
X120051223Y-138013938D01*
X120146461Y-137918700D01*
X120241700Y-137871080D01*
X121098842Y-138204414D02*
X121098842Y-139204414D01*
X121098842Y-138252033D02*
X121194080Y-138204414D01*
X121384557Y-138204414D01*
X121479795Y-138252033D01*
X121527414Y-138299652D01*
X121575033Y-138394890D01*
X121575033Y-138680604D01*
X121527414Y-138775842D01*
X121479795Y-138823461D01*
X121384557Y-138871080D01*
X121194080Y-138871080D01*
X121098842Y-138823461D01*
X122384557Y-138823461D02*
X122289319Y-138871080D01*
X122098842Y-138871080D01*
X122003604Y-138823461D01*
X121955985Y-138728223D01*
X121955985Y-138347271D01*
X122003604Y-138252033D01*
X122098842Y-138204414D01*
X122289319Y-138204414D01*
X122384557Y-138252033D01*
X122432176Y-138347271D01*
X122432176Y-138442509D01*
X121955985Y-138537747D01*
X122860747Y-138204414D02*
X122860747Y-138871080D01*
X122860747Y-138299652D02*
X122908366Y-138252033D01*
X123003604Y-138204414D01*
X123146461Y-138204414D01*
X123241700Y-138252033D01*
X123289319Y-138347271D01*
X123289319Y-138871080D01*
X117194080Y-135212033D02*
X117908366Y-135212033D01*
X118051223Y-135259652D01*
X118146461Y-135354890D01*
X118194080Y-135497747D01*
X118194080Y-135592985D01*
X118194080Y-134735842D02*
X117194080Y-134735842D01*
X117194080Y-134354890D01*
X117241700Y-134259652D01*
X117289319Y-134212033D01*
X117384557Y-134164414D01*
X117527414Y-134164414D01*
X117622652Y-134212033D01*
X117670271Y-134259652D01*
X117717890Y-134354890D01*
X117717890Y-134735842D01*
X118194080Y-133212033D02*
X118194080Y-133783461D01*
X118194080Y-133497747D02*
X117194080Y-133497747D01*
X117336938Y-133592985D01*
X117432176Y-133688223D01*
X117479795Y-133783461D01*
X140703242Y-109859033D02*
X140750861Y-109906652D01*
X140798480Y-110049509D01*
X140798480Y-110144747D01*
X140750861Y-110287604D01*
X140655623Y-110382842D01*
X140560385Y-110430461D01*
X140369909Y-110478080D01*
X140227052Y-110478080D01*
X140036576Y-110430461D01*
X139941338Y-110382842D01*
X139846100Y-110287604D01*
X139798480Y-110144747D01*
X139798480Y-110049509D01*
X139846100Y-109906652D01*
X139893719Y-109859033D01*
X140798480Y-109287604D02*
X140750861Y-109382842D01*
X140703242Y-109430461D01*
X140608004Y-109478080D01*
X140322290Y-109478080D01*
X140227052Y-109430461D01*
X140179433Y-109382842D01*
X140131814Y-109287604D01*
X140131814Y-109144747D01*
X140179433Y-109049509D01*
X140227052Y-109001890D01*
X140322290Y-108954271D01*
X140608004Y-108954271D01*
X140703242Y-109001890D01*
X140750861Y-109049509D01*
X140798480Y-109144747D01*
X140798480Y-109287604D01*
X140131814Y-108525700D02*
X140798480Y-108525700D01*
X140227052Y-108525700D02*
X140179433Y-108478080D01*
X140131814Y-108382842D01*
X140131814Y-108239985D01*
X140179433Y-108144747D01*
X140274671Y-108097128D01*
X140798480Y-108097128D01*
X140131814Y-107620938D02*
X140798480Y-107620938D01*
X140227052Y-107620938D02*
X140179433Y-107573319D01*
X140131814Y-107478080D01*
X140131814Y-107335223D01*
X140179433Y-107239985D01*
X140274671Y-107192366D01*
X140798480Y-107192366D01*
X140893719Y-106954271D02*
X140893719Y-106192366D01*
X139798480Y-105763795D02*
X139798480Y-105668557D01*
X139846100Y-105573319D01*
X139893719Y-105525700D01*
X139988957Y-105478080D01*
X140179433Y-105430461D01*
X140417528Y-105430461D01*
X140608004Y-105478080D01*
X140703242Y-105525700D01*
X140750861Y-105573319D01*
X140798480Y-105668557D01*
X140798480Y-105763795D01*
X140750861Y-105859033D01*
X140703242Y-105906652D01*
X140608004Y-105954271D01*
X140417528Y-106001890D01*
X140179433Y-106001890D01*
X139988957Y-105954271D01*
X139893719Y-105906652D01*
X139846100Y-105859033D01*
X139798480Y-105763795D01*
X140798480Y-104478080D02*
X140798480Y-105049509D01*
X140798480Y-104763795D02*
X139798480Y-104763795D01*
X139941338Y-104859033D01*
X140036576Y-104954271D01*
X140084195Y-105049509D01*
X140798480Y-104144747D02*
X140131814Y-103620938D01*
X140131814Y-104144747D02*
X140798480Y-103620938D01*
X139798480Y-103049509D02*
X139798480Y-102954271D01*
X139846100Y-102859033D01*
X139893719Y-102811414D01*
X139988957Y-102763795D01*
X140179433Y-102716176D01*
X140417528Y-102716176D01*
X140608004Y-102763795D01*
X140703242Y-102811414D01*
X140750861Y-102859033D01*
X140798480Y-102954271D01*
X140798480Y-103049509D01*
X140750861Y-103144747D01*
X140703242Y-103192366D01*
X140608004Y-103239985D01*
X140417528Y-103287604D01*
X140179433Y-103287604D01*
X139988957Y-103239985D01*
X139893719Y-103192366D01*
X139846100Y-103144747D01*
X139798480Y-103049509D01*
X139798480Y-101811414D02*
X139798480Y-102287604D01*
X140274671Y-102335223D01*
X140227052Y-102287604D01*
X140179433Y-102192366D01*
X140179433Y-101954271D01*
X140227052Y-101859033D01*
X140274671Y-101811414D01*
X140369909Y-101763795D01*
X140608004Y-101763795D01*
X140703242Y-101811414D01*
X140750861Y-101859033D01*
X140798480Y-101954271D01*
X140798480Y-102192366D01*
X140750861Y-102287604D01*
X140703242Y-102335223D01*
X140893719Y-101573319D02*
X140893719Y-100811414D01*
X140798480Y-100573319D02*
X139798480Y-100573319D01*
X140512766Y-100239985D01*
X139798480Y-99906652D01*
X140798480Y-99906652D01*
X140798480Y-99001890D02*
X140274671Y-99001890D01*
X140179433Y-99049509D01*
X140131814Y-99144747D01*
X140131814Y-99335223D01*
X140179433Y-99430461D01*
X140750861Y-99001890D02*
X140798480Y-99097128D01*
X140798480Y-99335223D01*
X140750861Y-99430461D01*
X140655623Y-99478080D01*
X140560385Y-99478080D01*
X140465147Y-99430461D01*
X140417528Y-99335223D01*
X140417528Y-99097128D01*
X140369909Y-99001890D01*
X140798480Y-98382842D02*
X140750861Y-98478080D01*
X140655623Y-98525700D01*
X139798480Y-98525700D01*
X140750861Y-97620938D02*
X140798480Y-97716176D01*
X140798480Y-97906652D01*
X140750861Y-98001890D01*
X140655623Y-98049509D01*
X140274671Y-98049509D01*
X140179433Y-98001890D01*
X140131814Y-97906652D01*
X140131814Y-97716176D01*
X140179433Y-97620938D01*
X140274671Y-97573319D01*
X140369909Y-97573319D01*
X140465147Y-98049509D01*
X146072766Y-103478080D02*
X146072766Y-104192366D01*
X146025147Y-104335223D01*
X145929909Y-104430461D01*
X145787052Y-104478080D01*
X145691814Y-104478080D01*
X147025147Y-103478080D02*
X146548957Y-103478080D01*
X146501338Y-103954271D01*
X146548957Y-103906652D01*
X146644195Y-103859033D01*
X146882290Y-103859033D01*
X146977528Y-103906652D01*
X147025147Y-103954271D01*
X147072766Y-104049509D01*
X147072766Y-104287604D01*
X147025147Y-104382842D01*
X146977528Y-104430461D01*
X146882290Y-104478080D01*
X146644195Y-104478080D01*
X146548957Y-104430461D01*
X146501338Y-104382842D01*
X131275866Y-123524342D02*
X131228247Y-123571961D01*
X131085390Y-123619580D01*
X130990152Y-123619580D01*
X130847295Y-123571961D01*
X130752057Y-123476723D01*
X130704438Y-123381485D01*
X130656819Y-123191009D01*
X130656819Y-123048152D01*
X130704438Y-122857676D01*
X130752057Y-122762438D01*
X130847295Y-122667200D01*
X130990152Y-122619580D01*
X131085390Y-122619580D01*
X131228247Y-122667200D01*
X131275866Y-122714819D01*
X131847295Y-123619580D02*
X131752057Y-123571961D01*
X131704438Y-123524342D01*
X131656819Y-123429104D01*
X131656819Y-123143390D01*
X131704438Y-123048152D01*
X131752057Y-123000533D01*
X131847295Y-122952914D01*
X131990152Y-122952914D01*
X132085390Y-123000533D01*
X132133009Y-123048152D01*
X132180628Y-123143390D01*
X132180628Y-123429104D01*
X132133009Y-123524342D01*
X132085390Y-123571961D01*
X131990152Y-123619580D01*
X131847295Y-123619580D01*
X132609200Y-122952914D02*
X132609200Y-123619580D01*
X132609200Y-123048152D02*
X132656819Y-123000533D01*
X132752057Y-122952914D01*
X132894914Y-122952914D01*
X132990152Y-123000533D01*
X133037771Y-123095771D01*
X133037771Y-123619580D01*
X133513961Y-122952914D02*
X133513961Y-123619580D01*
X133513961Y-123048152D02*
X133561580Y-123000533D01*
X133656819Y-122952914D01*
X133799676Y-122952914D01*
X133894914Y-123000533D01*
X133942533Y-123095771D01*
X133942533Y-123619580D01*
X134180628Y-123714819D02*
X134942533Y-123714819D01*
X135371104Y-122619580D02*
X135466342Y-122619580D01*
X135561580Y-122667200D01*
X135609200Y-122714819D01*
X135656819Y-122810057D01*
X135704438Y-123000533D01*
X135704438Y-123238628D01*
X135656819Y-123429104D01*
X135609200Y-123524342D01*
X135561580Y-123571961D01*
X135466342Y-123619580D01*
X135371104Y-123619580D01*
X135275866Y-123571961D01*
X135228247Y-123524342D01*
X135180628Y-123429104D01*
X135133009Y-123238628D01*
X135133009Y-123000533D01*
X135180628Y-122810057D01*
X135228247Y-122714819D01*
X135275866Y-122667200D01*
X135371104Y-122619580D01*
X136656819Y-123619580D02*
X136085390Y-123619580D01*
X136371104Y-123619580D02*
X136371104Y-122619580D01*
X136275866Y-122762438D01*
X136180628Y-122857676D01*
X136085390Y-122905295D01*
X136990152Y-123619580D02*
X137513961Y-122952914D01*
X136990152Y-122952914D02*
X137513961Y-123619580D01*
X138085390Y-122619580D02*
X138180628Y-122619580D01*
X138275866Y-122667200D01*
X138323485Y-122714819D01*
X138371104Y-122810057D01*
X138418723Y-123000533D01*
X138418723Y-123238628D01*
X138371104Y-123429104D01*
X138323485Y-123524342D01*
X138275866Y-123571961D01*
X138180628Y-123619580D01*
X138085390Y-123619580D01*
X137990152Y-123571961D01*
X137942533Y-123524342D01*
X137894914Y-123429104D01*
X137847295Y-123238628D01*
X137847295Y-123000533D01*
X137894914Y-122810057D01*
X137942533Y-122714819D01*
X137990152Y-122667200D01*
X138085390Y-122619580D01*
X139371104Y-123619580D02*
X138799676Y-123619580D01*
X139085390Y-123619580D02*
X139085390Y-122619580D01*
X138990152Y-122762438D01*
X138894914Y-122857676D01*
X138799676Y-122905295D01*
X139561580Y-123714819D02*
X140323485Y-123714819D01*
X140561580Y-123619580D02*
X140561580Y-122619580D01*
X140894914Y-123333866D01*
X141228247Y-122619580D01*
X141228247Y-123619580D01*
X142133009Y-123619580D02*
X142133009Y-123095771D01*
X142085390Y-123000533D01*
X141990152Y-122952914D01*
X141799676Y-122952914D01*
X141704438Y-123000533D01*
X142133009Y-123571961D02*
X142037771Y-123619580D01*
X141799676Y-123619580D01*
X141704438Y-123571961D01*
X141656819Y-123476723D01*
X141656819Y-123381485D01*
X141704438Y-123286247D01*
X141799676Y-123238628D01*
X142037771Y-123238628D01*
X142133009Y-123191009D01*
X142752057Y-123619580D02*
X142656819Y-123571961D01*
X142609200Y-123476723D01*
X142609200Y-122619580D01*
X143513961Y-123571961D02*
X143418723Y-123619580D01*
X143228247Y-123619580D01*
X143133009Y-123571961D01*
X143085390Y-123476723D01*
X143085390Y-123095771D01*
X143133009Y-123000533D01*
X143228247Y-122952914D01*
X143418723Y-122952914D01*
X143513961Y-123000533D01*
X143561580Y-123095771D01*
X143561580Y-123191009D01*
X143085390Y-123286247D01*
X136561580Y-121440533D02*
X137275866Y-121440533D01*
X137418723Y-121488152D01*
X137513961Y-121583390D01*
X137561580Y-121726247D01*
X137561580Y-121821485D01*
X136894914Y-120535771D02*
X137561580Y-120535771D01*
X136513961Y-120773866D02*
X137228247Y-121011961D01*
X137228247Y-120392914D01*
X125949214Y-110090880D02*
X126044452Y-110090880D01*
X126139690Y-110138500D01*
X126187309Y-110186119D01*
X126234928Y-110281357D01*
X126282547Y-110471833D01*
X126282547Y-110709928D01*
X126234928Y-110900404D01*
X126187309Y-110995642D01*
X126139690Y-111043261D01*
X126044452Y-111090880D01*
X125949214Y-111090880D01*
X125853976Y-111043261D01*
X125806357Y-110995642D01*
X125758738Y-110900404D01*
X125711119Y-110709928D01*
X125711119Y-110471833D01*
X125758738Y-110281357D01*
X125806357Y-110186119D01*
X125853976Y-110138500D01*
X125949214Y-110090880D01*
X126711119Y-110995642D02*
X126758738Y-111043261D01*
X126711119Y-111090880D01*
X126663500Y-111043261D01*
X126711119Y-110995642D01*
X126711119Y-111090880D01*
X127711119Y-111090880D02*
X127139690Y-111090880D01*
X127425404Y-111090880D02*
X127425404Y-110090880D01*
X127330166Y-110233738D01*
X127234928Y-110328976D01*
X127139690Y-110376595D01*
X128568261Y-110424214D02*
X128568261Y-111090880D01*
X128139690Y-110424214D02*
X128139690Y-110948023D01*
X128187309Y-111043261D01*
X128282547Y-111090880D01*
X128425404Y-111090880D01*
X128520642Y-111043261D01*
X128568261Y-110995642D01*
D13*
X126649214Y-112744214D02*
X126611119Y-112782309D01*
X126496833Y-112820404D01*
X126420642Y-112820404D01*
X126306357Y-112782309D01*
X126230166Y-112706119D01*
X126192071Y-112629928D01*
X126153976Y-112477547D01*
X126153976Y-112363261D01*
X126192071Y-112210880D01*
X126230166Y-112134690D01*
X126306357Y-112058500D01*
X126420642Y-112020404D01*
X126496833Y-112020404D01*
X126611119Y-112058500D01*
X126649214Y-112096595D01*
X127411119Y-112820404D02*
X126953976Y-112820404D01*
X127182547Y-112820404D02*
X127182547Y-112020404D01*
X127106357Y-112134690D01*
X127030166Y-112210880D01*
X126953976Y-112248976D01*
X127906357Y-112020404D02*
X127982547Y-112020404D01*
X128058738Y-112058500D01*
X128096833Y-112096595D01*
X128134928Y-112172785D01*
X128173023Y-112325166D01*
X128173023Y-112515642D01*
X128134928Y-112668023D01*
X128096833Y-112744214D01*
X128058738Y-112782309D01*
X127982547Y-112820404D01*
X127906357Y-112820404D01*
X127830166Y-112782309D01*
X127792071Y-112744214D01*
X127753976Y-112668023D01*
X127715880Y-112515642D01*
X127715880Y-112325166D01*
X127753976Y-112172785D01*
X127792071Y-112096595D01*
X127830166Y-112058500D01*
X127906357Y-112020404D01*
D11*
X135615842Y-156150533D02*
X135663461Y-156198152D01*
X135711080Y-156341009D01*
X135711080Y-156436247D01*
X135663461Y-156579104D01*
X135568223Y-156674342D01*
X135472985Y-156721961D01*
X135282509Y-156769580D01*
X135139652Y-156769580D01*
X134949176Y-156721961D01*
X134853938Y-156674342D01*
X134758700Y-156579104D01*
X134711080Y-156436247D01*
X134711080Y-156341009D01*
X134758700Y-156198152D01*
X134806319Y-156150533D01*
X135711080Y-155579104D02*
X135663461Y-155674342D01*
X135615842Y-155721961D01*
X135520604Y-155769580D01*
X135234890Y-155769580D01*
X135139652Y-155721961D01*
X135092033Y-155674342D01*
X135044414Y-155579104D01*
X135044414Y-155436247D01*
X135092033Y-155341009D01*
X135139652Y-155293390D01*
X135234890Y-155245771D01*
X135520604Y-155245771D01*
X135615842Y-155293390D01*
X135663461Y-155341009D01*
X135711080Y-155436247D01*
X135711080Y-155579104D01*
X135044414Y-154817200D02*
X135711080Y-154817200D01*
X135139652Y-154817200D02*
X135092033Y-154769580D01*
X135044414Y-154674342D01*
X135044414Y-154531485D01*
X135092033Y-154436247D01*
X135187271Y-154388628D01*
X135711080Y-154388628D01*
X135044414Y-153912438D02*
X135711080Y-153912438D01*
X135139652Y-153912438D02*
X135092033Y-153864819D01*
X135044414Y-153769580D01*
X135044414Y-153626723D01*
X135092033Y-153531485D01*
X135187271Y-153483866D01*
X135711080Y-153483866D01*
X135806319Y-153245771D02*
X135806319Y-152483866D01*
X134711080Y-152055295D02*
X134711080Y-151960057D01*
X134758700Y-151864819D01*
X134806319Y-151817200D01*
X134901557Y-151769580D01*
X135092033Y-151721961D01*
X135330128Y-151721961D01*
X135520604Y-151769580D01*
X135615842Y-151817200D01*
X135663461Y-151864819D01*
X135711080Y-151960057D01*
X135711080Y-152055295D01*
X135663461Y-152150533D01*
X135615842Y-152198152D01*
X135520604Y-152245771D01*
X135330128Y-152293390D01*
X135092033Y-152293390D01*
X134901557Y-152245771D01*
X134806319Y-152198152D01*
X134758700Y-152150533D01*
X134711080Y-152055295D01*
X135711080Y-150769580D02*
X135711080Y-151341009D01*
X135711080Y-151055295D02*
X134711080Y-151055295D01*
X134853938Y-151150533D01*
X134949176Y-151245771D01*
X134996795Y-151341009D01*
X135711080Y-150436247D02*
X135044414Y-149912438D01*
X135044414Y-150436247D02*
X135711080Y-149912438D01*
X134711080Y-149341009D02*
X134711080Y-149245771D01*
X134758700Y-149150533D01*
X134806319Y-149102914D01*
X134901557Y-149055295D01*
X135092033Y-149007676D01*
X135330128Y-149007676D01*
X135520604Y-149055295D01*
X135615842Y-149102914D01*
X135663461Y-149150533D01*
X135711080Y-149245771D01*
X135711080Y-149341009D01*
X135663461Y-149436247D01*
X135615842Y-149483866D01*
X135520604Y-149531485D01*
X135330128Y-149579104D01*
X135092033Y-149579104D01*
X134901557Y-149531485D01*
X134806319Y-149483866D01*
X134758700Y-149436247D01*
X134711080Y-149341009D01*
X134711080Y-148150533D02*
X134711080Y-148341009D01*
X134758700Y-148436247D01*
X134806319Y-148483866D01*
X134949176Y-148579104D01*
X135139652Y-148626723D01*
X135520604Y-148626723D01*
X135615842Y-148579104D01*
X135663461Y-148531485D01*
X135711080Y-148436247D01*
X135711080Y-148245771D01*
X135663461Y-148150533D01*
X135615842Y-148102914D01*
X135520604Y-148055295D01*
X135282509Y-148055295D01*
X135187271Y-148102914D01*
X135139652Y-148150533D01*
X135092033Y-148245771D01*
X135092033Y-148436247D01*
X135139652Y-148531485D01*
X135187271Y-148579104D01*
X135282509Y-148626723D01*
X135806319Y-147864819D02*
X135806319Y-147102914D01*
X135711080Y-146864819D02*
X134711080Y-146864819D01*
X135425366Y-146531485D01*
X134711080Y-146198152D01*
X135711080Y-146198152D01*
X135711080Y-145293390D02*
X135187271Y-145293390D01*
X135092033Y-145341009D01*
X135044414Y-145436247D01*
X135044414Y-145626723D01*
X135092033Y-145721961D01*
X135663461Y-145293390D02*
X135711080Y-145388628D01*
X135711080Y-145626723D01*
X135663461Y-145721961D01*
X135568223Y-145769580D01*
X135472985Y-145769580D01*
X135377747Y-145721961D01*
X135330128Y-145626723D01*
X135330128Y-145388628D01*
X135282509Y-145293390D01*
X135711080Y-144674342D02*
X135663461Y-144769580D01*
X135568223Y-144817200D01*
X134711080Y-144817200D01*
X135663461Y-143912438D02*
X135711080Y-144007676D01*
X135711080Y-144198152D01*
X135663461Y-144293390D01*
X135568223Y-144341009D01*
X135187271Y-144341009D01*
X135092033Y-144293390D01*
X135044414Y-144198152D01*
X135044414Y-144007676D01*
X135092033Y-143912438D01*
X135187271Y-143864819D01*
X135282509Y-143864819D01*
X135377747Y-144341009D01*
X127425366Y-149769580D02*
X127425366Y-150483866D01*
X127377747Y-150626723D01*
X127282509Y-150721961D01*
X127139652Y-150769580D01*
X127044414Y-150769580D01*
X127853938Y-149864819D02*
X127901557Y-149817200D01*
X127996795Y-149769580D01*
X128234890Y-149769580D01*
X128330128Y-149817200D01*
X128377747Y-149864819D01*
X128425366Y-149960057D01*
X128425366Y-150055295D01*
X128377747Y-150198152D01*
X127806319Y-150769580D01*
X128425366Y-150769580D01*
X137527380Y-95607166D02*
X137527380Y-96178595D01*
X137527380Y-95892880D02*
X136527380Y-95892880D01*
X136670238Y-95988119D01*
X136765476Y-96083357D01*
X136813095Y-96178595D01*
X136860714Y-94750023D02*
X137527380Y-94750023D01*
X136860714Y-95178595D02*
X137384523Y-95178595D01*
X137479761Y-95130976D01*
X137527380Y-95035738D01*
X137527380Y-94892880D01*
X137479761Y-94797642D01*
X137432142Y-94750023D01*
D13*
X135540714Y-95573833D02*
X135578809Y-95611928D01*
X135616904Y-95726214D01*
X135616904Y-95802404D01*
X135578809Y-95916690D01*
X135502619Y-95992880D01*
X135426428Y-96030976D01*
X135274047Y-96069071D01*
X135159761Y-96069071D01*
X135007380Y-96030976D01*
X134931190Y-95992880D01*
X134855000Y-95916690D01*
X134816904Y-95802404D01*
X134816904Y-95726214D01*
X134855000Y-95611928D01*
X134893095Y-95573833D01*
X135616904Y-95192880D02*
X135616904Y-95040500D01*
X135578809Y-94964309D01*
X135540714Y-94926214D01*
X135426428Y-94850023D01*
X135274047Y-94811928D01*
X134969285Y-94811928D01*
X134893095Y-94850023D01*
X134855000Y-94888119D01*
X134816904Y-94964309D01*
X134816904Y-95116690D01*
X134855000Y-95192880D01*
X134893095Y-95230976D01*
X134969285Y-95269071D01*
X135159761Y-95269071D01*
X135235952Y-95230976D01*
X135274047Y-95192880D01*
X135312142Y-95116690D01*
X135312142Y-94964309D01*
X135274047Y-94888119D01*
X135235952Y-94850023D01*
X135159761Y-94811928D01*
D11*
X73110766Y-105983880D02*
X72634576Y-105983880D01*
X72586957Y-106460071D01*
X72634576Y-106412452D01*
X72729814Y-106364833D01*
X72967909Y-106364833D01*
X73063147Y-106412452D01*
X73110766Y-106460071D01*
X73158385Y-106555309D01*
X73158385Y-106793404D01*
X73110766Y-106888642D01*
X73063147Y-106936261D01*
X72967909Y-106983880D01*
X72729814Y-106983880D01*
X72634576Y-106936261D01*
X72586957Y-106888642D01*
X73586957Y-106983880D02*
X73586957Y-105983880D01*
X73920290Y-106698166D01*
X74253623Y-105983880D01*
X74253623Y-106983880D01*
D13*
X73310766Y-105073404D02*
X73044100Y-104692452D01*
X72853623Y-105073404D02*
X72853623Y-104273404D01*
X73158385Y-104273404D01*
X73234576Y-104311500D01*
X73272671Y-104349595D01*
X73310766Y-104425785D01*
X73310766Y-104540071D01*
X73272671Y-104616261D01*
X73234576Y-104654357D01*
X73158385Y-104692452D01*
X72853623Y-104692452D01*
X73996480Y-104540071D02*
X73996480Y-105073404D01*
X73806004Y-104235309D02*
X73615528Y-104806738D01*
X74110766Y-104806738D01*
D11*
X72807652Y-131754342D02*
X72760033Y-131801961D01*
X72617176Y-131849580D01*
X72521938Y-131849580D01*
X72379080Y-131801961D01*
X72283842Y-131706723D01*
X72236223Y-131611485D01*
X72188604Y-131421009D01*
X72188604Y-131278152D01*
X72236223Y-131087676D01*
X72283842Y-130992438D01*
X72379080Y-130897200D01*
X72521938Y-130849580D01*
X72617176Y-130849580D01*
X72760033Y-130897200D01*
X72807652Y-130944819D01*
X73617176Y-131801961D02*
X73521938Y-131849580D01*
X73331461Y-131849580D01*
X73236223Y-131801961D01*
X73188604Y-131706723D01*
X73188604Y-131325771D01*
X73236223Y-131230533D01*
X73331461Y-131182914D01*
X73521938Y-131182914D01*
X73617176Y-131230533D01*
X73664795Y-131325771D01*
X73664795Y-131421009D01*
X73188604Y-131516247D01*
X74236223Y-131849580D02*
X74140985Y-131801961D01*
X74093366Y-131706723D01*
X74093366Y-130849580D01*
X74760033Y-131849580D02*
X74664795Y-131801961D01*
X74617176Y-131706723D01*
X74617176Y-130849580D01*
X75664795Y-131849580D02*
X75093366Y-131849580D01*
X75379080Y-131849580D02*
X75379080Y-130849580D01*
X75283842Y-130992438D01*
X75188604Y-131087676D01*
X75093366Y-131135295D01*
X73140985Y-142625771D02*
X73283842Y-142673390D01*
X73331461Y-142721009D01*
X73379080Y-142816247D01*
X73379080Y-142959104D01*
X73331461Y-143054342D01*
X73283842Y-143101961D01*
X73188604Y-143149580D01*
X72807652Y-143149580D01*
X72807652Y-142149580D01*
X73140985Y-142149580D01*
X73236223Y-142197200D01*
X73283842Y-142244819D01*
X73331461Y-142340057D01*
X73331461Y-142435295D01*
X73283842Y-142530533D01*
X73236223Y-142578152D01*
X73140985Y-142625771D01*
X72807652Y-142625771D01*
X73664795Y-142149580D02*
X74236223Y-142149580D01*
X73950509Y-143149580D02*
X73950509Y-142149580D01*
X75093366Y-143149580D02*
X74521938Y-143149580D01*
X74807652Y-143149580D02*
X74807652Y-142149580D01*
X74712414Y-142292438D01*
X74617176Y-142387676D01*
X74521938Y-142435295D01*
X158632861Y-111047280D02*
X158728100Y-111047280D01*
X158823338Y-111094900D01*
X158870957Y-111142519D01*
X158918576Y-111237757D01*
X158966195Y-111428233D01*
X158966195Y-111666328D01*
X158918576Y-111856804D01*
X158870957Y-111952042D01*
X158823338Y-111999661D01*
X158728100Y-112047280D01*
X158632861Y-112047280D01*
X158537623Y-111999661D01*
X158490004Y-111952042D01*
X158442385Y-111856804D01*
X158394766Y-111666328D01*
X158394766Y-111428233D01*
X158442385Y-111237757D01*
X158490004Y-111142519D01*
X158537623Y-111094900D01*
X158632861Y-111047280D01*
X159394766Y-111952042D02*
X159442385Y-111999661D01*
X159394766Y-112047280D01*
X159347147Y-111999661D01*
X159394766Y-111952042D01*
X159394766Y-112047280D01*
X160061433Y-111047280D02*
X160156671Y-111047280D01*
X160251909Y-111094900D01*
X160299528Y-111142519D01*
X160347147Y-111237757D01*
X160394766Y-111428233D01*
X160394766Y-111666328D01*
X160347147Y-111856804D01*
X160299528Y-111952042D01*
X160251909Y-111999661D01*
X160156671Y-112047280D01*
X160061433Y-112047280D01*
X159966195Y-111999661D01*
X159918576Y-111952042D01*
X159870957Y-111856804D01*
X159823338Y-111666328D01*
X159823338Y-111428233D01*
X159870957Y-111237757D01*
X159918576Y-111142519D01*
X159966195Y-111094900D01*
X160061433Y-111047280D01*
X160775719Y-111142519D02*
X160823338Y-111094900D01*
X160918576Y-111047280D01*
X161156671Y-111047280D01*
X161251909Y-111094900D01*
X161299528Y-111142519D01*
X161347147Y-111237757D01*
X161347147Y-111332995D01*
X161299528Y-111475852D01*
X160728100Y-112047280D01*
X161347147Y-112047280D01*
X161728100Y-111142519D02*
X161775719Y-111094900D01*
X161870957Y-111047280D01*
X162109052Y-111047280D01*
X162204290Y-111094900D01*
X162251909Y-111142519D01*
X162299528Y-111237757D01*
X162299528Y-111332995D01*
X162251909Y-111475852D01*
X161680480Y-112047280D01*
X162299528Y-112047280D01*
X163156671Y-111380614D02*
X163156671Y-112047280D01*
X162728100Y-111380614D02*
X162728100Y-111904423D01*
X162775719Y-111999661D01*
X162870957Y-112047280D01*
X163013814Y-112047280D01*
X163109052Y-111999661D01*
X163156671Y-111952042D01*
X163966195Y-111523471D02*
X163632861Y-111523471D01*
X163632861Y-112047280D02*
X163632861Y-111047280D01*
X164109052Y-111047280D01*
D13*
X160675666Y-109569214D02*
X160637571Y-109607309D01*
X160523285Y-109645404D01*
X160447095Y-109645404D01*
X160332809Y-109607309D01*
X160256619Y-109531119D01*
X160218523Y-109454928D01*
X160180428Y-109302547D01*
X160180428Y-109188261D01*
X160218523Y-109035880D01*
X160256619Y-108959690D01*
X160332809Y-108883500D01*
X160447095Y-108845404D01*
X160523285Y-108845404D01*
X160637571Y-108883500D01*
X160675666Y-108921595D01*
X161437571Y-109645404D02*
X160980428Y-109645404D01*
X161209000Y-109645404D02*
X161209000Y-108845404D01*
X161132809Y-108959690D01*
X161056619Y-109035880D01*
X160980428Y-109073976D01*
D11*
X119819080Y-145471985D02*
X119819080Y-145376747D01*
X119866700Y-145281509D01*
X119914319Y-145233890D01*
X120009557Y-145186271D01*
X120200033Y-145138652D01*
X120438128Y-145138652D01*
X120628604Y-145186271D01*
X120723842Y-145233890D01*
X120771461Y-145281509D01*
X120819080Y-145376747D01*
X120819080Y-145471985D01*
X120771461Y-145567223D01*
X120723842Y-145614842D01*
X120628604Y-145662461D01*
X120438128Y-145710080D01*
X120200033Y-145710080D01*
X120009557Y-145662461D01*
X119914319Y-145614842D01*
X119866700Y-145567223D01*
X119819080Y-145471985D01*
X120723842Y-144710080D02*
X120771461Y-144662461D01*
X120819080Y-144710080D01*
X120771461Y-144757700D01*
X120723842Y-144710080D01*
X120819080Y-144710080D01*
X120819080Y-143710080D02*
X120819080Y-144281509D01*
X120819080Y-143995795D02*
X119819080Y-143995795D01*
X119961938Y-144091033D01*
X120057176Y-144186271D01*
X120104795Y-144281509D01*
X120152414Y-142852938D02*
X120819080Y-142852938D01*
X120152414Y-143281509D02*
X120676223Y-143281509D01*
X120771461Y-143233890D01*
X120819080Y-143138652D01*
X120819080Y-142995795D01*
X120771461Y-142900557D01*
X120723842Y-142852938D01*
D13*
X122472414Y-144391033D02*
X122510509Y-144429128D01*
X122548604Y-144543414D01*
X122548604Y-144619604D01*
X122510509Y-144733890D01*
X122434319Y-144810080D01*
X122358128Y-144848176D01*
X122205747Y-144886271D01*
X122091461Y-144886271D01*
X121939080Y-144848176D01*
X121862890Y-144810080D01*
X121786700Y-144733890D01*
X121748604Y-144619604D01*
X121748604Y-144543414D01*
X121786700Y-144429128D01*
X121824795Y-144391033D01*
X121824795Y-144086271D02*
X121786700Y-144048176D01*
X121748604Y-143971985D01*
X121748604Y-143781509D01*
X121786700Y-143705319D01*
X121824795Y-143667223D01*
X121900985Y-143629128D01*
X121977176Y-143629128D01*
X122091461Y-143667223D01*
X122548604Y-144124366D01*
X122548604Y-143629128D01*
D11*
X70796314Y-118345880D02*
X70891552Y-118345880D01*
X70986790Y-118393500D01*
X71034409Y-118441119D01*
X71082028Y-118536357D01*
X71129647Y-118726833D01*
X71129647Y-118964928D01*
X71082028Y-119155404D01*
X71034409Y-119250642D01*
X70986790Y-119298261D01*
X70891552Y-119345880D01*
X70796314Y-119345880D01*
X70701076Y-119298261D01*
X70653457Y-119250642D01*
X70605838Y-119155404D01*
X70558219Y-118964928D01*
X70558219Y-118726833D01*
X70605838Y-118536357D01*
X70653457Y-118441119D01*
X70701076Y-118393500D01*
X70796314Y-118345880D01*
X71558219Y-119250642D02*
X71605838Y-119298261D01*
X71558219Y-119345880D01*
X71510600Y-119298261D01*
X71558219Y-119250642D01*
X71558219Y-119345880D01*
X72558219Y-119345880D02*
X71986790Y-119345880D01*
X72272504Y-119345880D02*
X72272504Y-118345880D01*
X72177266Y-118488738D01*
X72082028Y-118583976D01*
X71986790Y-118631595D01*
X73415361Y-118679214D02*
X73415361Y-119345880D01*
X72986790Y-118679214D02*
X72986790Y-119203023D01*
X73034409Y-119298261D01*
X73129647Y-119345880D01*
X73272504Y-119345880D01*
X73367742Y-119298261D01*
X73415361Y-119250642D01*
D13*
X71877266Y-120999214D02*
X71839171Y-121037309D01*
X71724885Y-121075404D01*
X71648695Y-121075404D01*
X71534409Y-121037309D01*
X71458219Y-120961119D01*
X71420123Y-120884928D01*
X71382028Y-120732547D01*
X71382028Y-120618261D01*
X71420123Y-120465880D01*
X71458219Y-120389690D01*
X71534409Y-120313500D01*
X71648695Y-120275404D01*
X71724885Y-120275404D01*
X71839171Y-120313500D01*
X71877266Y-120351595D01*
X72143933Y-120275404D02*
X72639171Y-120275404D01*
X72372504Y-120580166D01*
X72486790Y-120580166D01*
X72562980Y-120618261D01*
X72601076Y-120656357D01*
X72639171Y-120732547D01*
X72639171Y-120923023D01*
X72601076Y-120999214D01*
X72562980Y-121037309D01*
X72486790Y-121075404D01*
X72258219Y-121075404D01*
X72182028Y-121037309D01*
X72143933Y-120999214D01*
D11*
X130995080Y-137243485D02*
X130995080Y-137148247D01*
X131042700Y-137053009D01*
X131090319Y-137005390D01*
X131185557Y-136957771D01*
X131376033Y-136910152D01*
X131614128Y-136910152D01*
X131804604Y-136957771D01*
X131899842Y-137005390D01*
X131947461Y-137053009D01*
X131995080Y-137148247D01*
X131995080Y-137243485D01*
X131947461Y-137338723D01*
X131899842Y-137386342D01*
X131804604Y-137433961D01*
X131614128Y-137481580D01*
X131376033Y-137481580D01*
X131185557Y-137433961D01*
X131090319Y-137386342D01*
X131042700Y-137338723D01*
X130995080Y-137243485D01*
X131899842Y-136481580D02*
X131947461Y-136433961D01*
X131995080Y-136481580D01*
X131947461Y-136529200D01*
X131899842Y-136481580D01*
X131995080Y-136481580D01*
X131995080Y-135481580D02*
X131995080Y-136053009D01*
X131995080Y-135767295D02*
X130995080Y-135767295D01*
X131137938Y-135862533D01*
X131233176Y-135957771D01*
X131280795Y-136053009D01*
X131328414Y-134624438D02*
X131995080Y-134624438D01*
X131328414Y-135053009D02*
X131852223Y-135053009D01*
X131947461Y-135005390D01*
X131995080Y-134910152D01*
X131995080Y-134767295D01*
X131947461Y-134672057D01*
X131899842Y-134624438D01*
D13*
X133648414Y-136162533D02*
X133686509Y-136200628D01*
X133724604Y-136314914D01*
X133724604Y-136391104D01*
X133686509Y-136505390D01*
X133610319Y-136581580D01*
X133534128Y-136619676D01*
X133381747Y-136657771D01*
X133267461Y-136657771D01*
X133115080Y-136619676D01*
X133038890Y-136581580D01*
X132962700Y-136505390D01*
X132924604Y-136391104D01*
X132924604Y-136314914D01*
X132962700Y-136200628D01*
X133000795Y-136162533D01*
X133191271Y-135476819D02*
X133724604Y-135476819D01*
X132886509Y-135667295D02*
X133457938Y-135857771D01*
X133457938Y-135362533D01*
D11*
X136329080Y-137719676D02*
X136329080Y-137624438D01*
X136376700Y-137529200D01*
X136424319Y-137481580D01*
X136519557Y-137433961D01*
X136710033Y-137386342D01*
X136948128Y-137386342D01*
X137138604Y-137433961D01*
X137233842Y-137481580D01*
X137281461Y-137529200D01*
X137329080Y-137624438D01*
X137329080Y-137719676D01*
X137281461Y-137814914D01*
X137233842Y-137862533D01*
X137138604Y-137910152D01*
X136948128Y-137957771D01*
X136710033Y-137957771D01*
X136519557Y-137910152D01*
X136424319Y-137862533D01*
X136376700Y-137814914D01*
X136329080Y-137719676D01*
X137233842Y-136957771D02*
X137281461Y-136910152D01*
X137329080Y-136957771D01*
X137281461Y-137005390D01*
X137233842Y-136957771D01*
X137329080Y-136957771D01*
X136424319Y-136529200D02*
X136376700Y-136481580D01*
X136329080Y-136386342D01*
X136329080Y-136148247D01*
X136376700Y-136053009D01*
X136424319Y-136005390D01*
X136519557Y-135957771D01*
X136614795Y-135957771D01*
X136757652Y-136005390D01*
X137329080Y-136576819D01*
X137329080Y-135957771D01*
X136424319Y-135576819D02*
X136376700Y-135529200D01*
X136329080Y-135433961D01*
X136329080Y-135195866D01*
X136376700Y-135100628D01*
X136424319Y-135053009D01*
X136519557Y-135005390D01*
X136614795Y-135005390D01*
X136757652Y-135053009D01*
X137329080Y-135624438D01*
X137329080Y-135005390D01*
X136662414Y-134148247D02*
X137329080Y-134148247D01*
X136662414Y-134576819D02*
X137186223Y-134576819D01*
X137281461Y-134529200D01*
X137329080Y-134433961D01*
X137329080Y-134291104D01*
X137281461Y-134195866D01*
X137233842Y-134148247D01*
D13*
X138982414Y-136162533D02*
X139020509Y-136200628D01*
X139058604Y-136314914D01*
X139058604Y-136391104D01*
X139020509Y-136505390D01*
X138944319Y-136581580D01*
X138868128Y-136619676D01*
X138715747Y-136657771D01*
X138601461Y-136657771D01*
X138449080Y-136619676D01*
X138372890Y-136581580D01*
X138296700Y-136505390D01*
X138258604Y-136391104D01*
X138258604Y-136314914D01*
X138296700Y-136200628D01*
X138334795Y-136162533D01*
X138258604Y-135438723D02*
X138258604Y-135819676D01*
X138639557Y-135857771D01*
X138601461Y-135819676D01*
X138563366Y-135743485D01*
X138563366Y-135553009D01*
X138601461Y-135476819D01*
X138639557Y-135438723D01*
X138715747Y-135400628D01*
X138906223Y-135400628D01*
X138982414Y-135438723D01*
X139020509Y-135476819D01*
X139058604Y-135553009D01*
X139058604Y-135743485D01*
X139020509Y-135819676D01*
X138982414Y-135857771D01*
D11*
X142586880Y-136710657D02*
X142586880Y-137282085D01*
X142586880Y-136996371D02*
X141586880Y-136996371D01*
X141729738Y-137091609D01*
X141824976Y-137186847D01*
X141872595Y-137282085D01*
X141586880Y-136091609D02*
X141586880Y-135996371D01*
X141634500Y-135901133D01*
X141682119Y-135853514D01*
X141777357Y-135805895D01*
X141967833Y-135758276D01*
X142205928Y-135758276D01*
X142396404Y-135805895D01*
X142491642Y-135853514D01*
X142539261Y-135901133D01*
X142586880Y-135996371D01*
X142586880Y-136091609D01*
X142539261Y-136186847D01*
X142491642Y-136234466D01*
X142396404Y-136282085D01*
X142205928Y-136329704D01*
X141967833Y-136329704D01*
X141777357Y-136282085D01*
X141682119Y-136234466D01*
X141634500Y-136186847D01*
X141586880Y-136091609D01*
X141920214Y-134901133D02*
X142586880Y-134901133D01*
X141920214Y-135329704D02*
X142444023Y-135329704D01*
X142539261Y-135282085D01*
X142586880Y-135186847D01*
X142586880Y-135043990D01*
X142539261Y-134948752D01*
X142491642Y-134901133D01*
D13*
X144240214Y-136201133D02*
X144278309Y-136239228D01*
X144316404Y-136353514D01*
X144316404Y-136429704D01*
X144278309Y-136543990D01*
X144202119Y-136620180D01*
X144125928Y-136658276D01*
X143973547Y-136696371D01*
X143859261Y-136696371D01*
X143706880Y-136658276D01*
X143630690Y-136620180D01*
X143554500Y-136543990D01*
X143516404Y-136429704D01*
X143516404Y-136353514D01*
X143554500Y-136239228D01*
X143592595Y-136201133D01*
X143516404Y-135515419D02*
X143516404Y-135667800D01*
X143554500Y-135743990D01*
X143592595Y-135782085D01*
X143706880Y-135858276D01*
X143859261Y-135896371D01*
X144164023Y-135896371D01*
X144240214Y-135858276D01*
X144278309Y-135820180D01*
X144316404Y-135743990D01*
X144316404Y-135591609D01*
X144278309Y-135515419D01*
X144240214Y-135477323D01*
X144164023Y-135439228D01*
X143973547Y-135439228D01*
X143897357Y-135477323D01*
X143859261Y-135515419D01*
X143821166Y-135591609D01*
X143821166Y-135743990D01*
X143859261Y-135820180D01*
X143897357Y-135858276D01*
X143973547Y-135896371D01*
D11*
X146647080Y-137719676D02*
X146647080Y-137624438D01*
X146694700Y-137529200D01*
X146742319Y-137481580D01*
X146837557Y-137433961D01*
X147028033Y-137386342D01*
X147266128Y-137386342D01*
X147456604Y-137433961D01*
X147551842Y-137481580D01*
X147599461Y-137529200D01*
X147647080Y-137624438D01*
X147647080Y-137719676D01*
X147599461Y-137814914D01*
X147551842Y-137862533D01*
X147456604Y-137910152D01*
X147266128Y-137957771D01*
X147028033Y-137957771D01*
X146837557Y-137910152D01*
X146742319Y-137862533D01*
X146694700Y-137814914D01*
X146647080Y-137719676D01*
X147551842Y-136957771D02*
X147599461Y-136910152D01*
X147647080Y-136957771D01*
X147599461Y-137005390D01*
X147551842Y-136957771D01*
X147647080Y-136957771D01*
X146742319Y-136529200D02*
X146694700Y-136481580D01*
X146647080Y-136386342D01*
X146647080Y-136148247D01*
X146694700Y-136053009D01*
X146742319Y-136005390D01*
X146837557Y-135957771D01*
X146932795Y-135957771D01*
X147075652Y-136005390D01*
X147647080Y-136576819D01*
X147647080Y-135957771D01*
X146742319Y-135576819D02*
X146694700Y-135529200D01*
X146647080Y-135433961D01*
X146647080Y-135195866D01*
X146694700Y-135100628D01*
X146742319Y-135053009D01*
X146837557Y-135005390D01*
X146932795Y-135005390D01*
X147075652Y-135053009D01*
X147647080Y-135624438D01*
X147647080Y-135005390D01*
X146980414Y-134148247D02*
X147647080Y-134148247D01*
X146980414Y-134576819D02*
X147504223Y-134576819D01*
X147599461Y-134529200D01*
X147647080Y-134433961D01*
X147647080Y-134291104D01*
X147599461Y-134195866D01*
X147551842Y-134148247D01*
D13*
X149300414Y-136162533D02*
X149338509Y-136200628D01*
X149376604Y-136314914D01*
X149376604Y-136391104D01*
X149338509Y-136505390D01*
X149262319Y-136581580D01*
X149186128Y-136619676D01*
X149033747Y-136657771D01*
X148919461Y-136657771D01*
X148767080Y-136619676D01*
X148690890Y-136581580D01*
X148614700Y-136505390D01*
X148576604Y-136391104D01*
X148576604Y-136314914D01*
X148614700Y-136200628D01*
X148652795Y-136162533D01*
X148576604Y-135895866D02*
X148576604Y-135362533D01*
X149376604Y-135705390D01*
D11*
X151823080Y-137237305D02*
X151823080Y-137142067D01*
X151870700Y-137046829D01*
X151918319Y-136999210D01*
X152013557Y-136951591D01*
X152204033Y-136903972D01*
X152442128Y-136903972D01*
X152632604Y-136951591D01*
X152727842Y-136999210D01*
X152775461Y-137046829D01*
X152823080Y-137142067D01*
X152823080Y-137237305D01*
X152775461Y-137332543D01*
X152727842Y-137380162D01*
X152632604Y-137427781D01*
X152442128Y-137475400D01*
X152204033Y-137475400D01*
X152013557Y-137427781D01*
X151918319Y-137380162D01*
X151870700Y-137332543D01*
X151823080Y-137237305D01*
X152727842Y-136475400D02*
X152775461Y-136427781D01*
X152823080Y-136475400D01*
X152775461Y-136523020D01*
X152727842Y-136475400D01*
X152823080Y-136475400D01*
X152823080Y-135475400D02*
X152823080Y-136046829D01*
X152823080Y-135761115D02*
X151823080Y-135761115D01*
X151965938Y-135856353D01*
X152061176Y-135951591D01*
X152108795Y-136046829D01*
X152156414Y-134618258D02*
X152823080Y-134618258D01*
X152156414Y-135046829D02*
X152680223Y-135046829D01*
X152775461Y-134999210D01*
X152823080Y-134903972D01*
X152823080Y-134761115D01*
X152775461Y-134665877D01*
X152727842Y-134618258D01*
D13*
X154476414Y-136156353D02*
X154514509Y-136194448D01*
X154552604Y-136308734D01*
X154552604Y-136384924D01*
X154514509Y-136499210D01*
X154438319Y-136575400D01*
X154362128Y-136613496D01*
X154209747Y-136651591D01*
X154095461Y-136651591D01*
X153943080Y-136613496D01*
X153866890Y-136575400D01*
X153790700Y-136499210D01*
X153752604Y-136384924D01*
X153752604Y-136308734D01*
X153790700Y-136194448D01*
X153828795Y-136156353D01*
X154095461Y-135699210D02*
X154057366Y-135775400D01*
X154019271Y-135813496D01*
X153943080Y-135851591D01*
X153904985Y-135851591D01*
X153828795Y-135813496D01*
X153790700Y-135775400D01*
X153752604Y-135699210D01*
X153752604Y-135546829D01*
X153790700Y-135470639D01*
X153828795Y-135432543D01*
X153904985Y-135394448D01*
X153943080Y-135394448D01*
X154019271Y-135432543D01*
X154057366Y-135470639D01*
X154095461Y-135546829D01*
X154095461Y-135699210D01*
X154133557Y-135775400D01*
X154171652Y-135813496D01*
X154247842Y-135851591D01*
X154400223Y-135851591D01*
X154476414Y-135813496D01*
X154514509Y-135775400D01*
X154552604Y-135699210D01*
X154552604Y-135546829D01*
X154514509Y-135470639D01*
X154476414Y-135432543D01*
X154400223Y-135394448D01*
X154247842Y-135394448D01*
X154171652Y-135432543D01*
X154133557Y-135470639D01*
X154095461Y-135546829D01*
D11*
X140824366Y-124270580D02*
X141395795Y-124270580D01*
X141110080Y-125270580D02*
X141110080Y-124270580D01*
X142110080Y-125222961D02*
X142014842Y-125270580D01*
X141824366Y-125270580D01*
X141729128Y-125222961D01*
X141681509Y-125127723D01*
X141681509Y-124746771D01*
X141729128Y-124651533D01*
X141824366Y-124603914D01*
X142014842Y-124603914D01*
X142110080Y-124651533D01*
X142157700Y-124746771D01*
X142157700Y-124842009D01*
X141681509Y-124937247D01*
X142538652Y-125222961D02*
X142633890Y-125270580D01*
X142824366Y-125270580D01*
X142919604Y-125222961D01*
X142967223Y-125127723D01*
X142967223Y-125080104D01*
X142919604Y-124984866D01*
X142824366Y-124937247D01*
X142681509Y-124937247D01*
X142586271Y-124889628D01*
X142538652Y-124794390D01*
X142538652Y-124746771D01*
X142586271Y-124651533D01*
X142681509Y-124603914D01*
X142824366Y-124603914D01*
X142919604Y-124651533D01*
X143252938Y-124603914D02*
X143633890Y-124603914D01*
X143395795Y-124270580D02*
X143395795Y-125127723D01*
X143443414Y-125222961D01*
X143538652Y-125270580D01*
X143633890Y-125270580D01*
X143967223Y-125270580D02*
X143967223Y-124270580D01*
X144348176Y-124270580D01*
X144443414Y-124318200D01*
X144491033Y-124365819D01*
X144538652Y-124461057D01*
X144538652Y-124603914D01*
X144491033Y-124699152D01*
X144443414Y-124746771D01*
X144348176Y-124794390D01*
X143967223Y-124794390D01*
X145110080Y-125270580D02*
X145014842Y-125222961D01*
X144967223Y-125175342D01*
X144919604Y-125080104D01*
X144919604Y-124794390D01*
X144967223Y-124699152D01*
X145014842Y-124651533D01*
X145110080Y-124603914D01*
X145252938Y-124603914D01*
X145348176Y-124651533D01*
X145395795Y-124699152D01*
X145443414Y-124794390D01*
X145443414Y-125080104D01*
X145395795Y-125175342D01*
X145348176Y-125222961D01*
X145252938Y-125270580D01*
X145110080Y-125270580D01*
X145871985Y-125270580D02*
X145871985Y-124603914D01*
X145871985Y-124270580D02*
X145824366Y-124318200D01*
X145871985Y-124365819D01*
X145919604Y-124318200D01*
X145871985Y-124270580D01*
X145871985Y-124365819D01*
X146348176Y-124603914D02*
X146348176Y-125270580D01*
X146348176Y-124699152D02*
X146395795Y-124651533D01*
X146491033Y-124603914D01*
X146633890Y-124603914D01*
X146729128Y-124651533D01*
X146776747Y-124746771D01*
X146776747Y-125270580D01*
X147110080Y-124603914D02*
X147491033Y-124603914D01*
X147252938Y-124270580D02*
X147252938Y-125127723D01*
X147300557Y-125222961D01*
X147395795Y-125270580D01*
X147491033Y-125270580D01*
X144514842Y-123924866D02*
X144562461Y-123972485D01*
X144610080Y-124115342D01*
X144610080Y-124210580D01*
X144562461Y-124353438D01*
X144467223Y-124448676D01*
X144371985Y-124496295D01*
X144181509Y-124543914D01*
X144038652Y-124543914D01*
X143848176Y-124496295D01*
X143752938Y-124448676D01*
X143657700Y-124353438D01*
X143610080Y-124210580D01*
X143610080Y-124115342D01*
X143657700Y-123972485D01*
X143705319Y-123924866D01*
X144610080Y-123496295D02*
X143610080Y-123496295D01*
X143610080Y-123258200D01*
X143657700Y-123115342D01*
X143752938Y-123020104D01*
X143848176Y-122972485D01*
X144038652Y-122924866D01*
X144181509Y-122924866D01*
X144371985Y-122972485D01*
X144467223Y-123020104D01*
X144562461Y-123115342D01*
X144610080Y-123258200D01*
X144610080Y-123496295D01*
X144610080Y-121924866D02*
X144133890Y-122258200D01*
X144610080Y-122496295D02*
X143610080Y-122496295D01*
X143610080Y-122115342D01*
X143657700Y-122020104D01*
X143705319Y-121972485D01*
X143800557Y-121924866D01*
X143943414Y-121924866D01*
X144038652Y-121972485D01*
X144086271Y-122020104D01*
X144133890Y-122115342D01*
X144133890Y-122496295D01*
X144610080Y-120972485D02*
X144610080Y-121543914D01*
X144610080Y-121258200D02*
X143610080Y-121258200D01*
X143752938Y-121353438D01*
X143848176Y-121448676D01*
X143895795Y-121543914D01*
X67382080Y-105250833D02*
X67382080Y-104679404D01*
X68382080Y-104965119D02*
X67382080Y-104965119D01*
X68334461Y-103965119D02*
X68382080Y-104060357D01*
X68382080Y-104250833D01*
X68334461Y-104346071D01*
X68239223Y-104393690D01*
X67858271Y-104393690D01*
X67763033Y-104346071D01*
X67715414Y-104250833D01*
X67715414Y-104060357D01*
X67763033Y-103965119D01*
X67858271Y-103917500D01*
X67953509Y-103917500D01*
X68048747Y-104393690D01*
X68334461Y-103536547D02*
X68382080Y-103441309D01*
X68382080Y-103250833D01*
X68334461Y-103155595D01*
X68239223Y-103107976D01*
X68191604Y-103107976D01*
X68096366Y-103155595D01*
X68048747Y-103250833D01*
X68048747Y-103393690D01*
X68001128Y-103488928D01*
X67905890Y-103536547D01*
X67858271Y-103536547D01*
X67763033Y-103488928D01*
X67715414Y-103393690D01*
X67715414Y-103250833D01*
X67763033Y-103155595D01*
X67715414Y-102822261D02*
X67715414Y-102441309D01*
X67382080Y-102679404D02*
X68239223Y-102679404D01*
X68334461Y-102631785D01*
X68382080Y-102536547D01*
X68382080Y-102441309D01*
X68382080Y-102107976D02*
X67382080Y-102107976D01*
X67382080Y-101727023D01*
X67429700Y-101631785D01*
X67477319Y-101584166D01*
X67572557Y-101536547D01*
X67715414Y-101536547D01*
X67810652Y-101584166D01*
X67858271Y-101631785D01*
X67905890Y-101727023D01*
X67905890Y-102107976D01*
X68382080Y-100965119D02*
X68334461Y-101060357D01*
X68286842Y-101107976D01*
X68191604Y-101155595D01*
X67905890Y-101155595D01*
X67810652Y-101107976D01*
X67763033Y-101060357D01*
X67715414Y-100965119D01*
X67715414Y-100822261D01*
X67763033Y-100727023D01*
X67810652Y-100679404D01*
X67905890Y-100631785D01*
X68191604Y-100631785D01*
X68286842Y-100679404D01*
X68334461Y-100727023D01*
X68382080Y-100822261D01*
X68382080Y-100965119D01*
X68382080Y-100203214D02*
X67715414Y-100203214D01*
X67382080Y-100203214D02*
X67429700Y-100250833D01*
X67477319Y-100203214D01*
X67429700Y-100155595D01*
X67382080Y-100203214D01*
X67477319Y-100203214D01*
X67715414Y-99727023D02*
X68382080Y-99727023D01*
X67810652Y-99727023D02*
X67763033Y-99679404D01*
X67715414Y-99584166D01*
X67715414Y-99441309D01*
X67763033Y-99346071D01*
X67858271Y-99298452D01*
X68382080Y-99298452D01*
X67715414Y-98965119D02*
X67715414Y-98584166D01*
X67382080Y-98822261D02*
X68239223Y-98822261D01*
X68334461Y-98774642D01*
X68382080Y-98679404D01*
X68382080Y-98584166D01*
X68751604Y-101417500D02*
X68656366Y-101369880D01*
X68513509Y-101369880D01*
X68370652Y-101417500D01*
X68275414Y-101512738D01*
X68227795Y-101607976D01*
X68180176Y-101798452D01*
X68180176Y-101941309D01*
X68227795Y-102131785D01*
X68275414Y-102227023D01*
X68370652Y-102322261D01*
X68513509Y-102369880D01*
X68608747Y-102369880D01*
X68751604Y-102322261D01*
X68799223Y-102274642D01*
X68799223Y-101941309D01*
X68608747Y-101941309D01*
X69227795Y-102369880D02*
X69227795Y-101369880D01*
X69799223Y-102369880D01*
X69799223Y-101369880D01*
X70275414Y-102369880D02*
X70275414Y-101369880D01*
X70513509Y-101369880D01*
X70656366Y-101417500D01*
X70751604Y-101512738D01*
X70799223Y-101607976D01*
X70846842Y-101798452D01*
X70846842Y-101941309D01*
X70799223Y-102131785D01*
X70751604Y-102227023D01*
X70656366Y-102322261D01*
X70513509Y-102369880D01*
X70275414Y-102369880D01*
X71799223Y-102369880D02*
X71227795Y-102369880D01*
X71513509Y-102369880D02*
X71513509Y-101369880D01*
X71418271Y-101512738D01*
X71323033Y-101607976D01*
X71227795Y-101655595D01*
X68237242Y-113221595D02*
X68284861Y-113269214D01*
X68332480Y-113412071D01*
X68332480Y-113507309D01*
X68284861Y-113650166D01*
X68189623Y-113745404D01*
X68094385Y-113793023D01*
X67903909Y-113840642D01*
X67761052Y-113840642D01*
X67570576Y-113793023D01*
X67475338Y-113745404D01*
X67380100Y-113650166D01*
X67332480Y-113507309D01*
X67332480Y-113412071D01*
X67380100Y-113269214D01*
X67427719Y-113221595D01*
X68332480Y-112650166D02*
X68284861Y-112745404D01*
X68237242Y-112793023D01*
X68142004Y-112840642D01*
X67856290Y-112840642D01*
X67761052Y-112793023D01*
X67713433Y-112745404D01*
X67665814Y-112650166D01*
X67665814Y-112507309D01*
X67713433Y-112412071D01*
X67761052Y-112364452D01*
X67856290Y-112316833D01*
X68142004Y-112316833D01*
X68237242Y-112364452D01*
X68284861Y-112412071D01*
X68332480Y-112507309D01*
X68332480Y-112650166D01*
X67665814Y-111888261D02*
X68332480Y-111888261D01*
X67761052Y-111888261D02*
X67713433Y-111840642D01*
X67665814Y-111745404D01*
X67665814Y-111602547D01*
X67713433Y-111507309D01*
X67808671Y-111459690D01*
X68332480Y-111459690D01*
X67665814Y-110983500D02*
X68332480Y-110983500D01*
X67761052Y-110983500D02*
X67713433Y-110935880D01*
X67665814Y-110840642D01*
X67665814Y-110697785D01*
X67713433Y-110602547D01*
X67808671Y-110554928D01*
X68332480Y-110554928D01*
X68427719Y-110316833D02*
X68427719Y-109554928D01*
X67332480Y-109126357D02*
X67332480Y-109031119D01*
X67380100Y-108935880D01*
X67427719Y-108888261D01*
X67522957Y-108840642D01*
X67713433Y-108793023D01*
X67951528Y-108793023D01*
X68142004Y-108840642D01*
X68237242Y-108888261D01*
X68284861Y-108935880D01*
X68332480Y-109031119D01*
X68332480Y-109126357D01*
X68284861Y-109221595D01*
X68237242Y-109269214D01*
X68142004Y-109316833D01*
X67951528Y-109364452D01*
X67713433Y-109364452D01*
X67522957Y-109316833D01*
X67427719Y-109269214D01*
X67380100Y-109221595D01*
X67332480Y-109126357D01*
X68332480Y-107840642D02*
X68332480Y-108412071D01*
X68332480Y-108126357D02*
X67332480Y-108126357D01*
X67475338Y-108221595D01*
X67570576Y-108316833D01*
X67618195Y-108412071D01*
X68332480Y-107507309D02*
X67665814Y-106983500D01*
X67665814Y-107507309D02*
X68332480Y-106983500D01*
X67332480Y-106412071D02*
X67332480Y-106316833D01*
X67380100Y-106221595D01*
X67427719Y-106173976D01*
X67522957Y-106126357D01*
X67713433Y-106078738D01*
X67951528Y-106078738D01*
X68142004Y-106126357D01*
X68237242Y-106173976D01*
X68284861Y-106221595D01*
X68332480Y-106316833D01*
X68332480Y-106412071D01*
X68284861Y-106507309D01*
X68237242Y-106554928D01*
X68142004Y-106602547D01*
X67951528Y-106650166D01*
X67713433Y-106650166D01*
X67522957Y-106602547D01*
X67427719Y-106554928D01*
X67380100Y-106507309D01*
X67332480Y-106412071D01*
X67332480Y-105745404D02*
X67332480Y-105126357D01*
X67713433Y-105459690D01*
X67713433Y-105316833D01*
X67761052Y-105221595D01*
X67808671Y-105173976D01*
X67903909Y-105126357D01*
X68142004Y-105126357D01*
X68237242Y-105173976D01*
X68284861Y-105221595D01*
X68332480Y-105316833D01*
X68332480Y-105602547D01*
X68284861Y-105697785D01*
X68237242Y-105745404D01*
X72856766Y-108935880D02*
X72856766Y-109650166D01*
X72809147Y-109793023D01*
X72713909Y-109888261D01*
X72571052Y-109935880D01*
X72475814Y-109935880D01*
X73761528Y-108935880D02*
X73571052Y-108935880D01*
X73475814Y-108983500D01*
X73428195Y-109031119D01*
X73332957Y-109173976D01*
X73285338Y-109364452D01*
X73285338Y-109745404D01*
X73332957Y-109840642D01*
X73380576Y-109888261D01*
X73475814Y-109935880D01*
X73666290Y-109935880D01*
X73761528Y-109888261D01*
X73809147Y-109840642D01*
X73856766Y-109745404D01*
X73856766Y-109507309D01*
X73809147Y-109412071D01*
X73761528Y-109364452D01*
X73666290Y-109316833D01*
X73475814Y-109316833D01*
X73380576Y-109364452D01*
X73332957Y-109412071D01*
X73285338Y-109507309D01*
X78900422Y-128571595D02*
X78948041Y-128619214D01*
X78995660Y-128762071D01*
X78995660Y-128857309D01*
X78948041Y-129000166D01*
X78852803Y-129095404D01*
X78757565Y-129143023D01*
X78567089Y-129190642D01*
X78424232Y-129190642D01*
X78233756Y-129143023D01*
X78138518Y-129095404D01*
X78043280Y-129000166D01*
X77995660Y-128857309D01*
X77995660Y-128762071D01*
X78043280Y-128619214D01*
X78090899Y-128571595D01*
X78995660Y-128000166D02*
X78948041Y-128095404D01*
X78900422Y-128143023D01*
X78805184Y-128190642D01*
X78519470Y-128190642D01*
X78424232Y-128143023D01*
X78376613Y-128095404D01*
X78328994Y-128000166D01*
X78328994Y-127857309D01*
X78376613Y-127762071D01*
X78424232Y-127714452D01*
X78519470Y-127666833D01*
X78805184Y-127666833D01*
X78900422Y-127714452D01*
X78948041Y-127762071D01*
X78995660Y-127857309D01*
X78995660Y-128000166D01*
X78328994Y-127238261D02*
X78995660Y-127238261D01*
X78424232Y-127238261D02*
X78376613Y-127190642D01*
X78328994Y-127095404D01*
X78328994Y-126952547D01*
X78376613Y-126857309D01*
X78471851Y-126809690D01*
X78995660Y-126809690D01*
X78328994Y-126333500D02*
X78995660Y-126333500D01*
X78424232Y-126333500D02*
X78376613Y-126285880D01*
X78328994Y-126190642D01*
X78328994Y-126047785D01*
X78376613Y-125952547D01*
X78471851Y-125904928D01*
X78995660Y-125904928D01*
X79090899Y-125666833D02*
X79090899Y-124904928D01*
X77995660Y-124476357D02*
X77995660Y-124381119D01*
X78043280Y-124285880D01*
X78090899Y-124238261D01*
X78186137Y-124190642D01*
X78376613Y-124143023D01*
X78614708Y-124143023D01*
X78805184Y-124190642D01*
X78900422Y-124238261D01*
X78948041Y-124285880D01*
X78995660Y-124381119D01*
X78995660Y-124476357D01*
X78948041Y-124571595D01*
X78900422Y-124619214D01*
X78805184Y-124666833D01*
X78614708Y-124714452D01*
X78376613Y-124714452D01*
X78186137Y-124666833D01*
X78090899Y-124619214D01*
X78043280Y-124571595D01*
X77995660Y-124476357D01*
X78995660Y-123190642D02*
X78995660Y-123762071D01*
X78995660Y-123476357D02*
X77995660Y-123476357D01*
X78138518Y-123571595D01*
X78233756Y-123666833D01*
X78281375Y-123762071D01*
X78995660Y-122857309D02*
X78328994Y-122333500D01*
X78328994Y-122857309D02*
X78995660Y-122333500D01*
X77995660Y-121762071D02*
X77995660Y-121666833D01*
X78043280Y-121571595D01*
X78090899Y-121523976D01*
X78186137Y-121476357D01*
X78376613Y-121428738D01*
X78614708Y-121428738D01*
X78805184Y-121476357D01*
X78900422Y-121523976D01*
X78948041Y-121571595D01*
X78995660Y-121666833D01*
X78995660Y-121762071D01*
X78948041Y-121857309D01*
X78900422Y-121904928D01*
X78805184Y-121952547D01*
X78614708Y-122000166D01*
X78376613Y-122000166D01*
X78186137Y-121952547D01*
X78090899Y-121904928D01*
X78043280Y-121857309D01*
X77995660Y-121762071D01*
X77995660Y-121095404D02*
X77995660Y-120476357D01*
X78376613Y-120809690D01*
X78376613Y-120666833D01*
X78424232Y-120571595D01*
X78471851Y-120523976D01*
X78567089Y-120476357D01*
X78805184Y-120476357D01*
X78900422Y-120523976D01*
X78948041Y-120571595D01*
X78995660Y-120666833D01*
X78995660Y-120952547D01*
X78948041Y-121047785D01*
X78900422Y-121095404D01*
X72899946Y-124285880D02*
X72899946Y-125000166D01*
X72852327Y-125143023D01*
X72757089Y-125238261D01*
X72614232Y-125285880D01*
X72518994Y-125285880D01*
X73280899Y-124285880D02*
X73947565Y-124285880D01*
X73518994Y-125285880D01*
X81898004Y-126400642D02*
X81850385Y-126448261D01*
X81707528Y-126495880D01*
X81612290Y-126495880D01*
X81469433Y-126448261D01*
X81374195Y-126353023D01*
X81326576Y-126257785D01*
X81278957Y-126067309D01*
X81278957Y-125924452D01*
X81326576Y-125733976D01*
X81374195Y-125638738D01*
X81469433Y-125543500D01*
X81612290Y-125495880D01*
X81707528Y-125495880D01*
X81850385Y-125543500D01*
X81898004Y-125591119D01*
X82469433Y-126495880D02*
X82374195Y-126448261D01*
X82326576Y-126400642D01*
X82278957Y-126305404D01*
X82278957Y-126019690D01*
X82326576Y-125924452D01*
X82374195Y-125876833D01*
X82469433Y-125829214D01*
X82612290Y-125829214D01*
X82707528Y-125876833D01*
X82755147Y-125924452D01*
X82802766Y-126019690D01*
X82802766Y-126305404D01*
X82755147Y-126400642D01*
X82707528Y-126448261D01*
X82612290Y-126495880D01*
X82469433Y-126495880D01*
X83231338Y-125829214D02*
X83231338Y-126495880D01*
X83231338Y-125924452D02*
X83278957Y-125876833D01*
X83374195Y-125829214D01*
X83517052Y-125829214D01*
X83612290Y-125876833D01*
X83659909Y-125972071D01*
X83659909Y-126495880D01*
X84136100Y-125829214D02*
X84136100Y-126495880D01*
X84136100Y-125924452D02*
X84183719Y-125876833D01*
X84278957Y-125829214D01*
X84421814Y-125829214D01*
X84517052Y-125876833D01*
X84564671Y-125972071D01*
X84564671Y-126495880D01*
X84802766Y-126591119D02*
X85564671Y-126591119D01*
X85993242Y-125495880D02*
X86088480Y-125495880D01*
X86183719Y-125543500D01*
X86231338Y-125591119D01*
X86278957Y-125686357D01*
X86326576Y-125876833D01*
X86326576Y-126114928D01*
X86278957Y-126305404D01*
X86231338Y-126400642D01*
X86183719Y-126448261D01*
X86088480Y-126495880D01*
X85993242Y-126495880D01*
X85898004Y-126448261D01*
X85850385Y-126400642D01*
X85802766Y-126305404D01*
X85755147Y-126114928D01*
X85755147Y-125876833D01*
X85802766Y-125686357D01*
X85850385Y-125591119D01*
X85898004Y-125543500D01*
X85993242Y-125495880D01*
X87278957Y-126495880D02*
X86707528Y-126495880D01*
X86993242Y-126495880D02*
X86993242Y-125495880D01*
X86898004Y-125638738D01*
X86802766Y-125733976D01*
X86707528Y-125781595D01*
X87612290Y-126495880D02*
X88136100Y-125829214D01*
X87612290Y-125829214D02*
X88136100Y-126495880D01*
X88707528Y-125495880D02*
X88802766Y-125495880D01*
X88898004Y-125543500D01*
X88945623Y-125591119D01*
X88993242Y-125686357D01*
X89040861Y-125876833D01*
X89040861Y-126114928D01*
X88993242Y-126305404D01*
X88945623Y-126400642D01*
X88898004Y-126448261D01*
X88802766Y-126495880D01*
X88707528Y-126495880D01*
X88612290Y-126448261D01*
X88564671Y-126400642D01*
X88517052Y-126305404D01*
X88469433Y-126114928D01*
X88469433Y-125876833D01*
X88517052Y-125686357D01*
X88564671Y-125591119D01*
X88612290Y-125543500D01*
X88707528Y-125495880D01*
X89898004Y-125495880D02*
X89707528Y-125495880D01*
X89612290Y-125543500D01*
X89564671Y-125591119D01*
X89469433Y-125733976D01*
X89421814Y-125924452D01*
X89421814Y-126305404D01*
X89469433Y-126400642D01*
X89517052Y-126448261D01*
X89612290Y-126495880D01*
X89802766Y-126495880D01*
X89898004Y-126448261D01*
X89945623Y-126400642D01*
X89993242Y-126305404D01*
X89993242Y-126067309D01*
X89945623Y-125972071D01*
X89898004Y-125924452D01*
X89802766Y-125876833D01*
X89612290Y-125876833D01*
X89517052Y-125924452D01*
X89469433Y-125972071D01*
X89421814Y-126067309D01*
X85088480Y-119316833D02*
X85802766Y-119316833D01*
X85945623Y-119364452D01*
X86040861Y-119459690D01*
X86088480Y-119602547D01*
X86088480Y-119697785D01*
X85517052Y-118697785D02*
X85469433Y-118793023D01*
X85421814Y-118840642D01*
X85326576Y-118888261D01*
X85278957Y-118888261D01*
X85183719Y-118840642D01*
X85136100Y-118793023D01*
X85088480Y-118697785D01*
X85088480Y-118507309D01*
X85136100Y-118412071D01*
X85183719Y-118364452D01*
X85278957Y-118316833D01*
X85326576Y-118316833D01*
X85421814Y-118364452D01*
X85469433Y-118412071D01*
X85517052Y-118507309D01*
X85517052Y-118697785D01*
X85564671Y-118793023D01*
X85612290Y-118840642D01*
X85707528Y-118888261D01*
X85898004Y-118888261D01*
X85993242Y-118840642D01*
X86040861Y-118793023D01*
X86088480Y-118697785D01*
X86088480Y-118507309D01*
X86040861Y-118412071D01*
X85993242Y-118364452D01*
X85898004Y-118316833D01*
X85707528Y-118316833D01*
X85612290Y-118364452D01*
X85564671Y-118412071D01*
X85517052Y-118507309D01*
X155073766Y-135680260D02*
X155645195Y-135680260D01*
X155359480Y-136680260D02*
X155359480Y-135680260D01*
X156359480Y-136632641D02*
X156264242Y-136680260D01*
X156073766Y-136680260D01*
X155978528Y-136632641D01*
X155930909Y-136537403D01*
X155930909Y-136156451D01*
X155978528Y-136061213D01*
X156073766Y-136013594D01*
X156264242Y-136013594D01*
X156359480Y-136061213D01*
X156407100Y-136156451D01*
X156407100Y-136251689D01*
X155930909Y-136346927D01*
X156788052Y-136632641D02*
X156883290Y-136680260D01*
X157073766Y-136680260D01*
X157169004Y-136632641D01*
X157216623Y-136537403D01*
X157216623Y-136489784D01*
X157169004Y-136394546D01*
X157073766Y-136346927D01*
X156930909Y-136346927D01*
X156835671Y-136299308D01*
X156788052Y-136204070D01*
X156788052Y-136156451D01*
X156835671Y-136061213D01*
X156930909Y-136013594D01*
X157073766Y-136013594D01*
X157169004Y-136061213D01*
X157502338Y-136013594D02*
X157883290Y-136013594D01*
X157645195Y-135680260D02*
X157645195Y-136537403D01*
X157692814Y-136632641D01*
X157788052Y-136680260D01*
X157883290Y-136680260D01*
X158216623Y-136680260D02*
X158216623Y-135680260D01*
X158597576Y-135680260D01*
X158692814Y-135727880D01*
X158740433Y-135775499D01*
X158788052Y-135870737D01*
X158788052Y-136013594D01*
X158740433Y-136108832D01*
X158692814Y-136156451D01*
X158597576Y-136204070D01*
X158216623Y-136204070D01*
X159359480Y-136680260D02*
X159264242Y-136632641D01*
X159216623Y-136585022D01*
X159169004Y-136489784D01*
X159169004Y-136204070D01*
X159216623Y-136108832D01*
X159264242Y-136061213D01*
X159359480Y-136013594D01*
X159502338Y-136013594D01*
X159597576Y-136061213D01*
X159645195Y-136108832D01*
X159692814Y-136204070D01*
X159692814Y-136489784D01*
X159645195Y-136585022D01*
X159597576Y-136632641D01*
X159502338Y-136680260D01*
X159359480Y-136680260D01*
X160121385Y-136680260D02*
X160121385Y-136013594D01*
X160121385Y-135680260D02*
X160073766Y-135727880D01*
X160121385Y-135775499D01*
X160169004Y-135727880D01*
X160121385Y-135680260D01*
X160121385Y-135775499D01*
X160597576Y-136013594D02*
X160597576Y-136680260D01*
X160597576Y-136108832D02*
X160645195Y-136061213D01*
X160740433Y-136013594D01*
X160883290Y-136013594D01*
X160978528Y-136061213D01*
X161026147Y-136156451D01*
X161026147Y-136680260D01*
X161359480Y-136013594D02*
X161740433Y-136013594D01*
X161502338Y-135680260D02*
X161502338Y-136537403D01*
X161549957Y-136632641D01*
X161645195Y-136680260D01*
X161740433Y-136680260D01*
X158859480Y-135977403D02*
X157859480Y-135977403D01*
X158573766Y-135644070D01*
X157859480Y-135310737D01*
X158859480Y-135310737D01*
X158859480Y-134834546D02*
X157859480Y-134834546D01*
X157859480Y-134453594D01*
X157907100Y-134358356D01*
X157954719Y-134310737D01*
X158049957Y-134263118D01*
X158192814Y-134263118D01*
X158288052Y-134310737D01*
X158335671Y-134358356D01*
X158383290Y-134453594D01*
X158383290Y-134834546D01*
X158335671Y-133501213D02*
X158383290Y-133358356D01*
X158430909Y-133310737D01*
X158526147Y-133263118D01*
X158669004Y-133263118D01*
X158764242Y-133310737D01*
X158811861Y-133358356D01*
X158859480Y-133453594D01*
X158859480Y-133834546D01*
X157859480Y-133834546D01*
X157859480Y-133501213D01*
X157907100Y-133405975D01*
X157954719Y-133358356D01*
X158049957Y-133310737D01*
X158145195Y-133310737D01*
X158240433Y-133358356D01*
X158288052Y-133405975D01*
X158335671Y-133501213D01*
X158335671Y-133834546D01*
X158859480Y-132310737D02*
X158859480Y-132882165D01*
X158859480Y-132596451D02*
X157859480Y-132596451D01*
X158002338Y-132691689D01*
X158097576Y-132786927D01*
X158145195Y-132882165D01*
X69546242Y-108298690D02*
X69593861Y-108346309D01*
X69641480Y-108489166D01*
X69641480Y-108584404D01*
X69593861Y-108727261D01*
X69498623Y-108822500D01*
X69403385Y-108870119D01*
X69212909Y-108917738D01*
X69070052Y-108917738D01*
X68879576Y-108870119D01*
X68784338Y-108822500D01*
X68689100Y-108727261D01*
X68641480Y-108584404D01*
X68641480Y-108489166D01*
X68689100Y-108346309D01*
X68736719Y-108298690D01*
X69593861Y-107917738D02*
X69641480Y-107774880D01*
X69641480Y-107536785D01*
X69593861Y-107441547D01*
X69546242Y-107393928D01*
X69451004Y-107346309D01*
X69355766Y-107346309D01*
X69260528Y-107393928D01*
X69212909Y-107441547D01*
X69165290Y-107536785D01*
X69117671Y-107727261D01*
X69070052Y-107822500D01*
X69022433Y-107870119D01*
X68927195Y-107917738D01*
X68831957Y-107917738D01*
X68736719Y-107870119D01*
X68689100Y-107822500D01*
X68641480Y-107727261D01*
X68641480Y-107489166D01*
X68689100Y-107346309D01*
X69641480Y-106917738D02*
X68641480Y-106917738D01*
X68641480Y-106679642D01*
X68689100Y-106536785D01*
X68784338Y-106441547D01*
X68879576Y-106393928D01*
X69070052Y-106346309D01*
X69212909Y-106346309D01*
X69403385Y-106393928D01*
X69498623Y-106441547D01*
X69593861Y-106536785D01*
X69641480Y-106679642D01*
X69641480Y-106917738D01*
X69641480Y-105393928D02*
X69641480Y-105965357D01*
X69641480Y-105679642D02*
X68641480Y-105679642D01*
X68784338Y-105774880D01*
X68879576Y-105870119D01*
X68927195Y-105965357D01*
X68641480Y-105060595D02*
X68641480Y-104393928D01*
X69641480Y-104822500D01*
X68641480Y-104108214D02*
X68641480Y-103489166D01*
X69022433Y-103822500D01*
X69022433Y-103679642D01*
X69070052Y-103584404D01*
X69117671Y-103536785D01*
X69212909Y-103489166D01*
X69451004Y-103489166D01*
X69546242Y-103536785D01*
X69593861Y-103584404D01*
X69641480Y-103679642D01*
X69641480Y-103965357D01*
X69593861Y-104060595D01*
X69546242Y-104108214D01*
X68641480Y-102870119D02*
X68641480Y-102774880D01*
X68689100Y-102679642D01*
X68736719Y-102632023D01*
X68831957Y-102584404D01*
X69022433Y-102536785D01*
X69260528Y-102536785D01*
X69451004Y-102584404D01*
X69546242Y-102632023D01*
X69593861Y-102679642D01*
X69641480Y-102774880D01*
X69641480Y-102870119D01*
X69593861Y-102965357D01*
X69546242Y-103012976D01*
X69451004Y-103060595D01*
X69260528Y-103108214D01*
X69022433Y-103108214D01*
X68831957Y-103060595D01*
X68736719Y-103012976D01*
X68689100Y-102965357D01*
X68641480Y-102870119D01*
X68641480Y-102203452D02*
X68641480Y-101536785D01*
X69641480Y-101965357D01*
X69736719Y-100489166D02*
X69689100Y-100584404D01*
X69593861Y-100679642D01*
X69451004Y-100822500D01*
X69403385Y-100917738D01*
X69403385Y-101012976D01*
X69641480Y-100965357D02*
X69593861Y-101060595D01*
X69498623Y-101155833D01*
X69308147Y-101203452D01*
X68974814Y-101203452D01*
X68784338Y-101155833D01*
X68689100Y-101060595D01*
X68641480Y-100965357D01*
X68641480Y-100774880D01*
X68689100Y-100679642D01*
X68784338Y-100584404D01*
X68974814Y-100536785D01*
X69308147Y-100536785D01*
X69498623Y-100584404D01*
X69593861Y-100679642D01*
X69641480Y-100774880D01*
X69641480Y-100965357D01*
X68641480Y-99632023D02*
X68641480Y-100108214D01*
X69117671Y-100155833D01*
X69070052Y-100108214D01*
X69022433Y-100012976D01*
X69022433Y-99774880D01*
X69070052Y-99679642D01*
X69117671Y-99632023D01*
X69212909Y-99584404D01*
X69451004Y-99584404D01*
X69546242Y-99632023D01*
X69593861Y-99679642D01*
X69641480Y-99774880D01*
X69641480Y-100012976D01*
X69593861Y-100108214D01*
X69546242Y-100155833D01*
X69355766Y-99203452D02*
X69355766Y-98727261D01*
X69641480Y-99298690D02*
X68641480Y-98965357D01*
X69641480Y-98632023D01*
X66736719Y-103917738D02*
X66689100Y-104012976D01*
X66593861Y-104108214D01*
X66451004Y-104251071D01*
X66403385Y-104346309D01*
X66403385Y-104441547D01*
X66641480Y-104393928D02*
X66593861Y-104489166D01*
X66498623Y-104584404D01*
X66308147Y-104632023D01*
X65974814Y-104632023D01*
X65784338Y-104584404D01*
X65689100Y-104489166D01*
X65641480Y-104393928D01*
X65641480Y-104203452D01*
X65689100Y-104108214D01*
X65784338Y-104012976D01*
X65974814Y-103965357D01*
X66308147Y-103965357D01*
X66498623Y-104012976D01*
X66593861Y-104108214D01*
X66641480Y-104203452D01*
X66641480Y-104393928D01*
X66641480Y-103012976D02*
X66641480Y-103584404D01*
X66641480Y-103298690D02*
X65641480Y-103298690D01*
X65784338Y-103393928D01*
X65879576Y-103489166D01*
X65927195Y-103584404D01*
X61546242Y-116680690D02*
X61593861Y-116728309D01*
X61641480Y-116871166D01*
X61641480Y-116966404D01*
X61593861Y-117109261D01*
X61498623Y-117204500D01*
X61403385Y-117252119D01*
X61212909Y-117299738D01*
X61070052Y-117299738D01*
X60879576Y-117252119D01*
X60784338Y-117204500D01*
X60689100Y-117109261D01*
X60641480Y-116966404D01*
X60641480Y-116871166D01*
X60689100Y-116728309D01*
X60736719Y-116680690D01*
X61593861Y-116299738D02*
X61641480Y-116156880D01*
X61641480Y-115918785D01*
X61593861Y-115823547D01*
X61546242Y-115775928D01*
X61451004Y-115728309D01*
X61355766Y-115728309D01*
X61260528Y-115775928D01*
X61212909Y-115823547D01*
X61165290Y-115918785D01*
X61117671Y-116109261D01*
X61070052Y-116204500D01*
X61022433Y-116252119D01*
X60927195Y-116299738D01*
X60831957Y-116299738D01*
X60736719Y-116252119D01*
X60689100Y-116204500D01*
X60641480Y-116109261D01*
X60641480Y-115871166D01*
X60689100Y-115728309D01*
X61641480Y-115299738D02*
X60641480Y-115299738D01*
X60641480Y-115061642D01*
X60689100Y-114918785D01*
X60784338Y-114823547D01*
X60879576Y-114775928D01*
X61070052Y-114728309D01*
X61212909Y-114728309D01*
X61403385Y-114775928D01*
X61498623Y-114823547D01*
X61593861Y-114918785D01*
X61641480Y-115061642D01*
X61641480Y-115299738D01*
X61641480Y-113775928D02*
X61641480Y-114347357D01*
X61641480Y-114061642D02*
X60641480Y-114061642D01*
X60784338Y-114156880D01*
X60879576Y-114252119D01*
X60927195Y-114347357D01*
X60641480Y-113442595D02*
X60641480Y-112775928D01*
X61641480Y-113204500D01*
X60641480Y-112490214D02*
X60641480Y-111871166D01*
X61022433Y-112204500D01*
X61022433Y-112061642D01*
X61070052Y-111966404D01*
X61117671Y-111918785D01*
X61212909Y-111871166D01*
X61451004Y-111871166D01*
X61546242Y-111918785D01*
X61593861Y-111966404D01*
X61641480Y-112061642D01*
X61641480Y-112347357D01*
X61593861Y-112442595D01*
X61546242Y-112490214D01*
X60641480Y-111252119D02*
X60641480Y-111156880D01*
X60689100Y-111061642D01*
X60736719Y-111014023D01*
X60831957Y-110966404D01*
X61022433Y-110918785D01*
X61260528Y-110918785D01*
X61451004Y-110966404D01*
X61546242Y-111014023D01*
X61593861Y-111061642D01*
X61641480Y-111156880D01*
X61641480Y-111252119D01*
X61593861Y-111347357D01*
X61546242Y-111394976D01*
X61451004Y-111442595D01*
X61260528Y-111490214D01*
X61022433Y-111490214D01*
X60831957Y-111442595D01*
X60736719Y-111394976D01*
X60689100Y-111347357D01*
X60641480Y-111252119D01*
X60641480Y-110585452D02*
X60641480Y-109918785D01*
X61641480Y-110347357D01*
X61736719Y-108871166D02*
X61689100Y-108966404D01*
X61593861Y-109061642D01*
X61451004Y-109204500D01*
X61403385Y-109299738D01*
X61403385Y-109394976D01*
X61641480Y-109347357D02*
X61593861Y-109442595D01*
X61498623Y-109537833D01*
X61308147Y-109585452D01*
X60974814Y-109585452D01*
X60784338Y-109537833D01*
X60689100Y-109442595D01*
X60641480Y-109347357D01*
X60641480Y-109156880D01*
X60689100Y-109061642D01*
X60784338Y-108966404D01*
X60974814Y-108918785D01*
X61308147Y-108918785D01*
X61498623Y-108966404D01*
X61593861Y-109061642D01*
X61641480Y-109156880D01*
X61641480Y-109347357D01*
X60641480Y-108014023D02*
X60641480Y-108490214D01*
X61117671Y-108537833D01*
X61070052Y-108490214D01*
X61022433Y-108394976D01*
X61022433Y-108156880D01*
X61070052Y-108061642D01*
X61117671Y-108014023D01*
X61212909Y-107966404D01*
X61451004Y-107966404D01*
X61546242Y-108014023D01*
X61593861Y-108061642D01*
X61641480Y-108156880D01*
X61641480Y-108394976D01*
X61593861Y-108490214D01*
X61546242Y-108537833D01*
X61355766Y-107585452D02*
X61355766Y-107109261D01*
X61641480Y-107680690D02*
X60641480Y-107347357D01*
X61641480Y-107014023D01*
X64736719Y-112299738D02*
X64689100Y-112394976D01*
X64593861Y-112490214D01*
X64451004Y-112633071D01*
X64403385Y-112728309D01*
X64403385Y-112823547D01*
X64641480Y-112775928D02*
X64593861Y-112871166D01*
X64498623Y-112966404D01*
X64308147Y-113014023D01*
X63974814Y-113014023D01*
X63784338Y-112966404D01*
X63689100Y-112871166D01*
X63641480Y-112775928D01*
X63641480Y-112585452D01*
X63689100Y-112490214D01*
X63784338Y-112394976D01*
X63974814Y-112347357D01*
X64308147Y-112347357D01*
X64498623Y-112394976D01*
X64593861Y-112490214D01*
X64641480Y-112585452D01*
X64641480Y-112775928D01*
X63736719Y-111966404D02*
X63689100Y-111918785D01*
X63641480Y-111823547D01*
X63641480Y-111585452D01*
X63689100Y-111490214D01*
X63736719Y-111442595D01*
X63831957Y-111394976D01*
X63927195Y-111394976D01*
X64070052Y-111442595D01*
X64641480Y-112014023D01*
X64641480Y-111394976D01*
X114392952Y-96548380D02*
X114345333Y-96643619D01*
X114297714Y-96691238D01*
X114202476Y-96738857D01*
X114154857Y-96738857D01*
X114059619Y-96691238D01*
X114012000Y-96643619D01*
X113964380Y-96548380D01*
X113964380Y-96357904D01*
X114012000Y-96262666D01*
X114059619Y-96215047D01*
X114154857Y-96167428D01*
X114202476Y-96167428D01*
X114297714Y-96215047D01*
X114345333Y-96262666D01*
X114392952Y-96357904D01*
X114392952Y-96548380D01*
X114440571Y-96643619D01*
X114488190Y-96691238D01*
X114583428Y-96738857D01*
X114773904Y-96738857D01*
X114869142Y-96691238D01*
X114916761Y-96643619D01*
X114964380Y-96548380D01*
X114964380Y-96357904D01*
X114916761Y-96262666D01*
X114869142Y-96215047D01*
X114773904Y-96167428D01*
X114583428Y-96167428D01*
X114488190Y-96215047D01*
X114440571Y-96262666D01*
X114392952Y-96357904D01*
X114964380Y-95691238D02*
X114964380Y-95500761D01*
X114916761Y-95405523D01*
X114869142Y-95357904D01*
X114726285Y-95262666D01*
X114535809Y-95215047D01*
X114154857Y-95215047D01*
X114059619Y-95262666D01*
X114012000Y-95310285D01*
X113964380Y-95405523D01*
X113964380Y-95596000D01*
X114012000Y-95691238D01*
X114059619Y-95738857D01*
X114154857Y-95786476D01*
X114392952Y-95786476D01*
X114488190Y-95738857D01*
X114535809Y-95691238D01*
X114583428Y-95596000D01*
X114583428Y-95405523D01*
X114535809Y-95310285D01*
X114488190Y-95262666D01*
X114392952Y-95215047D01*
X114392952Y-94643619D02*
X114345333Y-94738857D01*
X114297714Y-94786476D01*
X114202476Y-94834095D01*
X114154857Y-94834095D01*
X114059619Y-94786476D01*
X114012000Y-94738857D01*
X113964380Y-94643619D01*
X113964380Y-94453142D01*
X114012000Y-94357904D01*
X114059619Y-94310285D01*
X114154857Y-94262666D01*
X114202476Y-94262666D01*
X114297714Y-94310285D01*
X114345333Y-94357904D01*
X114392952Y-94453142D01*
X114392952Y-94643619D01*
X114440571Y-94738857D01*
X114488190Y-94786476D01*
X114583428Y-94834095D01*
X114773904Y-94834095D01*
X114869142Y-94786476D01*
X114916761Y-94738857D01*
X114964380Y-94643619D01*
X114964380Y-94453142D01*
X114916761Y-94357904D01*
X114869142Y-94310285D01*
X114773904Y-94262666D01*
X114583428Y-94262666D01*
X114488190Y-94310285D01*
X114440571Y-94357904D01*
X114392952Y-94453142D01*
X114964380Y-93834095D02*
X113964380Y-93834095D01*
X114583428Y-93738857D02*
X114964380Y-93453142D01*
X114297714Y-93453142D02*
X114678666Y-93834095D01*
D13*
X116693904Y-95229333D02*
X116312952Y-95496000D01*
X116693904Y-95686476D02*
X115893904Y-95686476D01*
X115893904Y-95381714D01*
X115932000Y-95305523D01*
X115970095Y-95267428D01*
X116046285Y-95229333D01*
X116160571Y-95229333D01*
X116236761Y-95267428D01*
X116274857Y-95305523D01*
X116312952Y-95381714D01*
X116312952Y-95686476D01*
X116693904Y-94467428D02*
X116693904Y-94924571D01*
X116693904Y-94696000D02*
X115893904Y-94696000D01*
X116008190Y-94772190D01*
X116084380Y-94848380D01*
X116122476Y-94924571D01*
D11*
X109566952Y-96548380D02*
X109519333Y-96643619D01*
X109471714Y-96691238D01*
X109376476Y-96738857D01*
X109328857Y-96738857D01*
X109233619Y-96691238D01*
X109186000Y-96643619D01*
X109138380Y-96548380D01*
X109138380Y-96357904D01*
X109186000Y-96262666D01*
X109233619Y-96215047D01*
X109328857Y-96167428D01*
X109376476Y-96167428D01*
X109471714Y-96215047D01*
X109519333Y-96262666D01*
X109566952Y-96357904D01*
X109566952Y-96548380D01*
X109614571Y-96643619D01*
X109662190Y-96691238D01*
X109757428Y-96738857D01*
X109947904Y-96738857D01*
X110043142Y-96691238D01*
X110090761Y-96643619D01*
X110138380Y-96548380D01*
X110138380Y-96357904D01*
X110090761Y-96262666D01*
X110043142Y-96215047D01*
X109947904Y-96167428D01*
X109757428Y-96167428D01*
X109662190Y-96215047D01*
X109614571Y-96262666D01*
X109566952Y-96357904D01*
X110138380Y-95691238D02*
X110138380Y-95500761D01*
X110090761Y-95405523D01*
X110043142Y-95357904D01*
X109900285Y-95262666D01*
X109709809Y-95215047D01*
X109328857Y-95215047D01*
X109233619Y-95262666D01*
X109186000Y-95310285D01*
X109138380Y-95405523D01*
X109138380Y-95596000D01*
X109186000Y-95691238D01*
X109233619Y-95738857D01*
X109328857Y-95786476D01*
X109566952Y-95786476D01*
X109662190Y-95738857D01*
X109709809Y-95691238D01*
X109757428Y-95596000D01*
X109757428Y-95405523D01*
X109709809Y-95310285D01*
X109662190Y-95262666D01*
X109566952Y-95215047D01*
X109566952Y-94643619D02*
X109519333Y-94738857D01*
X109471714Y-94786476D01*
X109376476Y-94834095D01*
X109328857Y-94834095D01*
X109233619Y-94786476D01*
X109186000Y-94738857D01*
X109138380Y-94643619D01*
X109138380Y-94453142D01*
X109186000Y-94357904D01*
X109233619Y-94310285D01*
X109328857Y-94262666D01*
X109376476Y-94262666D01*
X109471714Y-94310285D01*
X109519333Y-94357904D01*
X109566952Y-94453142D01*
X109566952Y-94643619D01*
X109614571Y-94738857D01*
X109662190Y-94786476D01*
X109757428Y-94834095D01*
X109947904Y-94834095D01*
X110043142Y-94786476D01*
X110090761Y-94738857D01*
X110138380Y-94643619D01*
X110138380Y-94453142D01*
X110090761Y-94357904D01*
X110043142Y-94310285D01*
X109947904Y-94262666D01*
X109757428Y-94262666D01*
X109662190Y-94310285D01*
X109614571Y-94357904D01*
X109566952Y-94453142D01*
X110138380Y-93834095D02*
X109138380Y-93834095D01*
X109757428Y-93738857D02*
X110138380Y-93453142D01*
X109471714Y-93453142D02*
X109852666Y-93834095D01*
D13*
X111867904Y-95229333D02*
X111486952Y-95496000D01*
X111867904Y-95686476D02*
X111067904Y-95686476D01*
X111067904Y-95381714D01*
X111106000Y-95305523D01*
X111144095Y-95267428D01*
X111220285Y-95229333D01*
X111334571Y-95229333D01*
X111410761Y-95267428D01*
X111448857Y-95305523D01*
X111486952Y-95381714D01*
X111486952Y-95686476D01*
X111144095Y-94924571D02*
X111106000Y-94886476D01*
X111067904Y-94810285D01*
X111067904Y-94619809D01*
X111106000Y-94543619D01*
X111144095Y-94505523D01*
X111220285Y-94467428D01*
X111296476Y-94467428D01*
X111410761Y-94505523D01*
X111867904Y-94962666D01*
X111867904Y-94467428D01*
D11*
X70769338Y-130844119D02*
X70816957Y-130796500D01*
X70912195Y-130748880D01*
X71150290Y-130748880D01*
X71245528Y-130796500D01*
X71293147Y-130844119D01*
X71340766Y-130939357D01*
X71340766Y-131034595D01*
X71293147Y-131177452D01*
X70721719Y-131748880D01*
X71340766Y-131748880D01*
X71769338Y-131653642D02*
X71816957Y-131701261D01*
X71769338Y-131748880D01*
X71721719Y-131701261D01*
X71769338Y-131653642D01*
X71769338Y-131748880D01*
X72197909Y-130844119D02*
X72245528Y-130796500D01*
X72340766Y-130748880D01*
X72578861Y-130748880D01*
X72674100Y-130796500D01*
X72721719Y-130844119D01*
X72769338Y-130939357D01*
X72769338Y-131034595D01*
X72721719Y-131177452D01*
X72150290Y-131748880D01*
X72769338Y-131748880D01*
X73197909Y-131748880D02*
X73197909Y-130748880D01*
X73293147Y-131367928D02*
X73578861Y-131748880D01*
X73578861Y-131082214D02*
X73197909Y-131463166D01*
D13*
X72040766Y-129838404D02*
X71774100Y-129457452D01*
X71583623Y-129838404D02*
X71583623Y-129038404D01*
X71888385Y-129038404D01*
X71964576Y-129076500D01*
X72002671Y-129114595D01*
X72040766Y-129190785D01*
X72040766Y-129305071D01*
X72002671Y-129381261D01*
X71964576Y-129419357D01*
X71888385Y-129457452D01*
X71583623Y-129457452D01*
X72307433Y-129038404D02*
X72802671Y-129038404D01*
X72536004Y-129343166D01*
X72650290Y-129343166D01*
X72726480Y-129381261D01*
X72764576Y-129419357D01*
X72802671Y-129495547D01*
X72802671Y-129686023D01*
X72764576Y-129762214D01*
X72726480Y-129800309D01*
X72650290Y-129838404D01*
X72421719Y-129838404D01*
X72345528Y-129800309D01*
X72307433Y-129762214D01*
D11*
X71602766Y-118755880D02*
X71126576Y-118755880D01*
X71078957Y-119232071D01*
X71126576Y-119184452D01*
X71221814Y-119136833D01*
X71459909Y-119136833D01*
X71555147Y-119184452D01*
X71602766Y-119232071D01*
X71650385Y-119327309D01*
X71650385Y-119565404D01*
X71602766Y-119660642D01*
X71555147Y-119708261D01*
X71459909Y-119755880D01*
X71221814Y-119755880D01*
X71126576Y-119708261D01*
X71078957Y-119660642D01*
X72078957Y-119755880D02*
X72078957Y-118755880D01*
X72412290Y-119470166D01*
X72745623Y-118755880D01*
X72745623Y-119755880D01*
D13*
X71802766Y-117845404D02*
X71536100Y-117464452D01*
X71345623Y-117845404D02*
X71345623Y-117045404D01*
X71650385Y-117045404D01*
X71726576Y-117083500D01*
X71764671Y-117121595D01*
X71802766Y-117197785D01*
X71802766Y-117312071D01*
X71764671Y-117388261D01*
X71726576Y-117426357D01*
X71650385Y-117464452D01*
X71345623Y-117464452D01*
X72526576Y-117045404D02*
X72145623Y-117045404D01*
X72107528Y-117426357D01*
X72145623Y-117388261D01*
X72221814Y-117350166D01*
X72412290Y-117350166D01*
X72488480Y-117388261D01*
X72526576Y-117426357D01*
X72564671Y-117502547D01*
X72564671Y-117693023D01*
X72526576Y-117769214D01*
X72488480Y-117807309D01*
X72412290Y-117845404D01*
X72221814Y-117845404D01*
X72145623Y-117807309D01*
X72107528Y-117769214D01*
D11*
X109471714Y-102814261D02*
X110138380Y-102814261D01*
X109090761Y-103052357D02*
X109805047Y-103290452D01*
X109805047Y-102671404D01*
X110043142Y-102290452D02*
X110090761Y-102242833D01*
X110138380Y-102290452D01*
X110090761Y-102338071D01*
X110043142Y-102290452D01*
X110138380Y-102290452D01*
X109566952Y-101671404D02*
X109519333Y-101766642D01*
X109471714Y-101814261D01*
X109376476Y-101861880D01*
X109328857Y-101861880D01*
X109233619Y-101814261D01*
X109186000Y-101766642D01*
X109138380Y-101671404D01*
X109138380Y-101480928D01*
X109186000Y-101385690D01*
X109233619Y-101338071D01*
X109328857Y-101290452D01*
X109376476Y-101290452D01*
X109471714Y-101338071D01*
X109519333Y-101385690D01*
X109566952Y-101480928D01*
X109566952Y-101671404D01*
X109614571Y-101766642D01*
X109662190Y-101814261D01*
X109757428Y-101861880D01*
X109947904Y-101861880D01*
X110043142Y-101814261D01*
X110090761Y-101766642D01*
X110138380Y-101671404D01*
X110138380Y-101480928D01*
X110090761Y-101385690D01*
X110043142Y-101338071D01*
X109947904Y-101290452D01*
X109757428Y-101290452D01*
X109662190Y-101338071D01*
X109614571Y-101385690D01*
X109566952Y-101480928D01*
X109138380Y-100957119D02*
X109138380Y-100290452D01*
X110138380Y-100719023D01*
X110138380Y-99909500D02*
X109138380Y-99909500D01*
X109757428Y-99814261D02*
X110138380Y-99528547D01*
X109471714Y-99528547D02*
X109852666Y-99909500D01*
D13*
X111867904Y-101542833D02*
X111486952Y-101809500D01*
X111867904Y-101999976D02*
X111067904Y-101999976D01*
X111067904Y-101695214D01*
X111106000Y-101619023D01*
X111144095Y-101580928D01*
X111220285Y-101542833D01*
X111334571Y-101542833D01*
X111410761Y-101580928D01*
X111448857Y-101619023D01*
X111486952Y-101695214D01*
X111486952Y-101999976D01*
X111067904Y-100857119D02*
X111067904Y-101009500D01*
X111106000Y-101085690D01*
X111144095Y-101123785D01*
X111258380Y-101199976D01*
X111410761Y-101238071D01*
X111715523Y-101238071D01*
X111791714Y-101199976D01*
X111829809Y-101161880D01*
X111867904Y-101085690D01*
X111867904Y-100933309D01*
X111829809Y-100857119D01*
X111791714Y-100819023D01*
X111715523Y-100780928D01*
X111525047Y-100780928D01*
X111448857Y-100819023D01*
X111410761Y-100857119D01*
X111372666Y-100933309D01*
X111372666Y-101085690D01*
X111410761Y-101161880D01*
X111448857Y-101199976D01*
X111525047Y-101238071D01*
D11*
X78061480Y-120602214D02*
X78061480Y-119983166D01*
X78442433Y-120316500D01*
X78442433Y-120173642D01*
X78490052Y-120078404D01*
X78537671Y-120030785D01*
X78632909Y-119983166D01*
X78871004Y-119983166D01*
X78966242Y-120030785D01*
X79013861Y-120078404D01*
X79061480Y-120173642D01*
X79061480Y-120459357D01*
X79013861Y-120554595D01*
X78966242Y-120602214D01*
X78061480Y-119649833D02*
X78061480Y-119030785D01*
X78442433Y-119364119D01*
X78442433Y-119221261D01*
X78490052Y-119126023D01*
X78537671Y-119078404D01*
X78632909Y-119030785D01*
X78871004Y-119030785D01*
X78966242Y-119078404D01*
X79013861Y-119126023D01*
X79061480Y-119221261D01*
X79061480Y-119506976D01*
X79013861Y-119602214D01*
X78966242Y-119649833D01*
X78061480Y-118411738D02*
X78061480Y-118316500D01*
X78109100Y-118221261D01*
X78156719Y-118173642D01*
X78251957Y-118126023D01*
X78442433Y-118078404D01*
X78680528Y-118078404D01*
X78871004Y-118126023D01*
X78966242Y-118173642D01*
X79013861Y-118221261D01*
X79061480Y-118316500D01*
X79061480Y-118411738D01*
X79013861Y-118506976D01*
X78966242Y-118554595D01*
X78871004Y-118602214D01*
X78680528Y-118649833D01*
X78442433Y-118649833D01*
X78251957Y-118602214D01*
X78156719Y-118554595D01*
X78109100Y-118506976D01*
X78061480Y-118411738D01*
D13*
X80791004Y-119449833D02*
X80410052Y-119716500D01*
X80791004Y-119906976D02*
X79991004Y-119906976D01*
X79991004Y-119602214D01*
X80029100Y-119526023D01*
X80067195Y-119487928D01*
X80143385Y-119449833D01*
X80257671Y-119449833D01*
X80333861Y-119487928D01*
X80371957Y-119526023D01*
X80410052Y-119602214D01*
X80410052Y-119906976D01*
X79991004Y-119183166D02*
X79991004Y-118649833D01*
X80791004Y-118992690D01*
D11*
X128616952Y-96475380D02*
X128569333Y-96570619D01*
X128521714Y-96618238D01*
X128426476Y-96665857D01*
X128378857Y-96665857D01*
X128283619Y-96618238D01*
X128236000Y-96570619D01*
X128188380Y-96475380D01*
X128188380Y-96284904D01*
X128236000Y-96189666D01*
X128283619Y-96142047D01*
X128378857Y-96094428D01*
X128426476Y-96094428D01*
X128521714Y-96142047D01*
X128569333Y-96189666D01*
X128616952Y-96284904D01*
X128616952Y-96475380D01*
X128664571Y-96570619D01*
X128712190Y-96618238D01*
X128807428Y-96665857D01*
X128997904Y-96665857D01*
X129093142Y-96618238D01*
X129140761Y-96570619D01*
X129188380Y-96475380D01*
X129188380Y-96284904D01*
X129140761Y-96189666D01*
X129093142Y-96142047D01*
X128997904Y-96094428D01*
X128807428Y-96094428D01*
X128712190Y-96142047D01*
X128664571Y-96189666D01*
X128616952Y-96284904D01*
X129188380Y-95618238D02*
X129188380Y-95427761D01*
X129140761Y-95332523D01*
X129093142Y-95284904D01*
X128950285Y-95189666D01*
X128759809Y-95142047D01*
X128378857Y-95142047D01*
X128283619Y-95189666D01*
X128236000Y-95237285D01*
X128188380Y-95332523D01*
X128188380Y-95523000D01*
X128236000Y-95618238D01*
X128283619Y-95665857D01*
X128378857Y-95713476D01*
X128616952Y-95713476D01*
X128712190Y-95665857D01*
X128759809Y-95618238D01*
X128807428Y-95523000D01*
X128807428Y-95332523D01*
X128759809Y-95237285D01*
X128712190Y-95189666D01*
X128616952Y-95142047D01*
X128616952Y-94570619D02*
X128569333Y-94665857D01*
X128521714Y-94713476D01*
X128426476Y-94761095D01*
X128378857Y-94761095D01*
X128283619Y-94713476D01*
X128236000Y-94665857D01*
X128188380Y-94570619D01*
X128188380Y-94380142D01*
X128236000Y-94284904D01*
X128283619Y-94237285D01*
X128378857Y-94189666D01*
X128426476Y-94189666D01*
X128521714Y-94237285D01*
X128569333Y-94284904D01*
X128616952Y-94380142D01*
X128616952Y-94570619D01*
X128664571Y-94665857D01*
X128712190Y-94713476D01*
X128807428Y-94761095D01*
X128997904Y-94761095D01*
X129093142Y-94713476D01*
X129140761Y-94665857D01*
X129188380Y-94570619D01*
X129188380Y-94380142D01*
X129140761Y-94284904D01*
X129093142Y-94237285D01*
X128997904Y-94189666D01*
X128807428Y-94189666D01*
X128712190Y-94237285D01*
X128664571Y-94284904D01*
X128616952Y-94380142D01*
X129188380Y-93761095D02*
X128188380Y-93761095D01*
X128807428Y-93665857D02*
X129188380Y-93380142D01*
X128521714Y-93380142D02*
X128902666Y-93761095D01*
D13*
X130917904Y-95156333D02*
X130536952Y-95423000D01*
X130917904Y-95613476D02*
X130117904Y-95613476D01*
X130117904Y-95308714D01*
X130156000Y-95232523D01*
X130194095Y-95194428D01*
X130270285Y-95156333D01*
X130384571Y-95156333D01*
X130460761Y-95194428D01*
X130498857Y-95232523D01*
X130536952Y-95308714D01*
X130536952Y-95613476D01*
X130460761Y-94699190D02*
X130422666Y-94775380D01*
X130384571Y-94813476D01*
X130308380Y-94851571D01*
X130270285Y-94851571D01*
X130194095Y-94813476D01*
X130156000Y-94775380D01*
X130117904Y-94699190D01*
X130117904Y-94546809D01*
X130156000Y-94470619D01*
X130194095Y-94432523D01*
X130270285Y-94394428D01*
X130308380Y-94394428D01*
X130384571Y-94432523D01*
X130422666Y-94470619D01*
X130460761Y-94546809D01*
X130460761Y-94699190D01*
X130498857Y-94775380D01*
X130536952Y-94813476D01*
X130613142Y-94851571D01*
X130765523Y-94851571D01*
X130841714Y-94813476D01*
X130879809Y-94775380D01*
X130917904Y-94699190D01*
X130917904Y-94546809D01*
X130879809Y-94470619D01*
X130841714Y-94432523D01*
X130765523Y-94394428D01*
X130613142Y-94394428D01*
X130536952Y-94432523D01*
X130498857Y-94470619D01*
X130460761Y-94546809D01*
D11*
X128283619Y-102031666D02*
X128236000Y-101984047D01*
X128188380Y-101888809D01*
X128188380Y-101650714D01*
X128236000Y-101555476D01*
X128283619Y-101507857D01*
X128378857Y-101460238D01*
X128474095Y-101460238D01*
X128616952Y-101507857D01*
X129188380Y-102079285D01*
X129188380Y-101460238D01*
X128616952Y-100888809D02*
X128569333Y-100984047D01*
X128521714Y-101031666D01*
X128426476Y-101079285D01*
X128378857Y-101079285D01*
X128283619Y-101031666D01*
X128236000Y-100984047D01*
X128188380Y-100888809D01*
X128188380Y-100698333D01*
X128236000Y-100603095D01*
X128283619Y-100555476D01*
X128378857Y-100507857D01*
X128426476Y-100507857D01*
X128521714Y-100555476D01*
X128569333Y-100603095D01*
X128616952Y-100698333D01*
X128616952Y-100888809D01*
X128664571Y-100984047D01*
X128712190Y-101031666D01*
X128807428Y-101079285D01*
X128997904Y-101079285D01*
X129093142Y-101031666D01*
X129140761Y-100984047D01*
X129188380Y-100888809D01*
X129188380Y-100698333D01*
X129140761Y-100603095D01*
X129093142Y-100555476D01*
X128997904Y-100507857D01*
X128807428Y-100507857D01*
X128712190Y-100555476D01*
X128664571Y-100603095D01*
X128616952Y-100698333D01*
X129188380Y-100079285D02*
X128188380Y-100079285D01*
X128807428Y-99984047D02*
X129188380Y-99698333D01*
X128521714Y-99698333D02*
X128902666Y-100079285D01*
D13*
X130917904Y-100998333D02*
X130536952Y-101265000D01*
X130917904Y-101455476D02*
X130117904Y-101455476D01*
X130117904Y-101150714D01*
X130156000Y-101074523D01*
X130194095Y-101036428D01*
X130270285Y-100998333D01*
X130384571Y-100998333D01*
X130460761Y-101036428D01*
X130498857Y-101074523D01*
X130536952Y-101150714D01*
X130536952Y-101455476D01*
X130917904Y-100617380D02*
X130917904Y-100465000D01*
X130879809Y-100388809D01*
X130841714Y-100350714D01*
X130727428Y-100274523D01*
X130575047Y-100236428D01*
X130270285Y-100236428D01*
X130194095Y-100274523D01*
X130156000Y-100312619D01*
X130117904Y-100388809D01*
X130117904Y-100541190D01*
X130156000Y-100617380D01*
X130194095Y-100655476D01*
X130270285Y-100693571D01*
X130460761Y-100693571D01*
X130536952Y-100655476D01*
X130575047Y-100617380D01*
X130613142Y-100541190D01*
X130613142Y-100388809D01*
X130575047Y-100312619D01*
X130536952Y-100274523D01*
X130460761Y-100236428D01*
D11*
X158752380Y-101448976D02*
X158752380Y-100829928D01*
X159133333Y-101163261D01*
X159133333Y-101020404D01*
X159180952Y-100925166D01*
X159228571Y-100877547D01*
X159323809Y-100829928D01*
X159561904Y-100829928D01*
X159657142Y-100877547D01*
X159704761Y-100925166D01*
X159752380Y-101020404D01*
X159752380Y-101306119D01*
X159704761Y-101401357D01*
X159657142Y-101448976D01*
X158752380Y-100496595D02*
X158752380Y-99877547D01*
X159133333Y-100210880D01*
X159133333Y-100068023D01*
X159180952Y-99972785D01*
X159228571Y-99925166D01*
X159323809Y-99877547D01*
X159561904Y-99877547D01*
X159657142Y-99925166D01*
X159704761Y-99972785D01*
X159752380Y-100068023D01*
X159752380Y-100353738D01*
X159704761Y-100448976D01*
X159657142Y-100496595D01*
X158847619Y-99496595D02*
X158800000Y-99448976D01*
X158752380Y-99353738D01*
X158752380Y-99115642D01*
X158800000Y-99020404D01*
X158847619Y-98972785D01*
X158942857Y-98925166D01*
X159038095Y-98925166D01*
X159180952Y-98972785D01*
X159752380Y-99544214D01*
X159752380Y-98925166D01*
X159752380Y-98496595D02*
X158752380Y-98496595D01*
X159371428Y-98401357D02*
X159752380Y-98115642D01*
X159085714Y-98115642D02*
X159466666Y-98496595D01*
D13*
X157841904Y-100272785D02*
X157460952Y-100539452D01*
X157841904Y-100729928D02*
X157041904Y-100729928D01*
X157041904Y-100425166D01*
X157080000Y-100348976D01*
X157118095Y-100310880D01*
X157194285Y-100272785D01*
X157308571Y-100272785D01*
X157384761Y-100310880D01*
X157422857Y-100348976D01*
X157460952Y-100425166D01*
X157460952Y-100729928D01*
X157841904Y-99510880D02*
X157841904Y-99968023D01*
X157841904Y-99739452D02*
X157041904Y-99739452D01*
X157156190Y-99815642D01*
X157232380Y-99891833D01*
X157270476Y-99968023D01*
X157041904Y-99015642D02*
X157041904Y-98939452D01*
X157080000Y-98863261D01*
X157118095Y-98825166D01*
X157194285Y-98787071D01*
X157346666Y-98748976D01*
X157537142Y-98748976D01*
X157689523Y-98787071D01*
X157765714Y-98825166D01*
X157803809Y-98863261D01*
X157841904Y-98939452D01*
X157841904Y-99015642D01*
X157803809Y-99091833D01*
X157765714Y-99129928D01*
X157689523Y-99168023D01*
X157537142Y-99206119D01*
X157346666Y-99206119D01*
X157194285Y-99168023D01*
X157118095Y-99129928D01*
X157080000Y-99091833D01*
X157041904Y-99015642D01*
D11*
X159752380Y-95205428D02*
X159752380Y-95776857D01*
X159752380Y-95491142D02*
X158752380Y-95491142D01*
X158895238Y-95586380D01*
X158990476Y-95681619D01*
X159038095Y-95776857D01*
X158752380Y-94348285D02*
X158752380Y-94538761D01*
X158800000Y-94634000D01*
X158847619Y-94681619D01*
X158990476Y-94776857D01*
X159180952Y-94824476D01*
X159561904Y-94824476D01*
X159657142Y-94776857D01*
X159704761Y-94729238D01*
X159752380Y-94634000D01*
X159752380Y-94443523D01*
X159704761Y-94348285D01*
X159657142Y-94300666D01*
X159561904Y-94253047D01*
X159323809Y-94253047D01*
X159228571Y-94300666D01*
X159180952Y-94348285D01*
X159133333Y-94443523D01*
X159133333Y-94634000D01*
X159180952Y-94729238D01*
X159228571Y-94776857D01*
X159323809Y-94824476D01*
X158752380Y-93919714D02*
X158752380Y-93253047D01*
X159752380Y-93681619D01*
X159752380Y-92872095D02*
X158752380Y-92872095D01*
X159371428Y-92776857D02*
X159752380Y-92491142D01*
X159085714Y-92491142D02*
X159466666Y-92872095D01*
D13*
X157841904Y-94648285D02*
X157460952Y-94914952D01*
X157841904Y-95105428D02*
X157041904Y-95105428D01*
X157041904Y-94800666D01*
X157080000Y-94724476D01*
X157118095Y-94686380D01*
X157194285Y-94648285D01*
X157308571Y-94648285D01*
X157384761Y-94686380D01*
X157422857Y-94724476D01*
X157460952Y-94800666D01*
X157460952Y-95105428D01*
X157841904Y-93886380D02*
X157841904Y-94343523D01*
X157841904Y-94114952D02*
X157041904Y-94114952D01*
X157156190Y-94191142D01*
X157232380Y-94267333D01*
X157270476Y-94343523D01*
X157841904Y-93124476D02*
X157841904Y-93581619D01*
X157841904Y-93353047D02*
X157041904Y-93353047D01*
X157156190Y-93429238D01*
X157232380Y-93505428D01*
X157270476Y-93581619D01*
D11*
X143115380Y-99837690D02*
X143115380Y-100409119D01*
X143115380Y-100123404D02*
X142115380Y-100123404D01*
X142258238Y-100218642D01*
X142353476Y-100313880D01*
X142401095Y-100409119D01*
X143020142Y-99409119D02*
X143067761Y-99361500D01*
X143115380Y-99409119D01*
X143067761Y-99456738D01*
X143020142Y-99409119D01*
X143115380Y-99409119D01*
X142115380Y-98504357D02*
X142115380Y-98694833D01*
X142163000Y-98790071D01*
X142210619Y-98837690D01*
X142353476Y-98932928D01*
X142543952Y-98980547D01*
X142924904Y-98980547D01*
X143020142Y-98932928D01*
X143067761Y-98885309D01*
X143115380Y-98790071D01*
X143115380Y-98599595D01*
X143067761Y-98504357D01*
X143020142Y-98456738D01*
X142924904Y-98409119D01*
X142686809Y-98409119D01*
X142591571Y-98456738D01*
X142543952Y-98504357D01*
X142496333Y-98599595D01*
X142496333Y-98790071D01*
X142543952Y-98885309D01*
X142591571Y-98932928D01*
X142686809Y-98980547D01*
X142448714Y-97551976D02*
X143115380Y-97551976D01*
X142067761Y-97790071D02*
X142782047Y-98028166D01*
X142782047Y-97409119D01*
X143115380Y-97028166D02*
X142115380Y-97028166D01*
X142829666Y-96694833D01*
X142115380Y-96361500D01*
X143115380Y-96361500D01*
D13*
X141204904Y-98875785D02*
X140823952Y-99142452D01*
X141204904Y-99332928D02*
X140404904Y-99332928D01*
X140404904Y-99028166D01*
X140443000Y-98951976D01*
X140481095Y-98913880D01*
X140557285Y-98875785D01*
X140671571Y-98875785D01*
X140747761Y-98913880D01*
X140785857Y-98951976D01*
X140823952Y-99028166D01*
X140823952Y-99332928D01*
X141204904Y-98113880D02*
X141204904Y-98571023D01*
X141204904Y-98342452D02*
X140404904Y-98342452D01*
X140519190Y-98418642D01*
X140595380Y-98494833D01*
X140633476Y-98571023D01*
X140481095Y-97809119D02*
X140443000Y-97771023D01*
X140404904Y-97694833D01*
X140404904Y-97504357D01*
X140443000Y-97428166D01*
X140481095Y-97390071D01*
X140557285Y-97351976D01*
X140633476Y-97351976D01*
X140747761Y-97390071D01*
X141204904Y-97847214D01*
X141204904Y-97351976D01*
D11*
X142115380Y-94173476D02*
X142115380Y-93554428D01*
X142496333Y-93887761D01*
X142496333Y-93744904D01*
X142543952Y-93649666D01*
X142591571Y-93602047D01*
X142686809Y-93554428D01*
X142924904Y-93554428D01*
X143020142Y-93602047D01*
X143067761Y-93649666D01*
X143115380Y-93744904D01*
X143115380Y-94030619D01*
X143067761Y-94125857D01*
X143020142Y-94173476D01*
X142115380Y-93221095D02*
X142115380Y-92554428D01*
X143115380Y-92983000D01*
X142448714Y-91744904D02*
X143115380Y-91744904D01*
X142067761Y-91983000D02*
X142782047Y-92221095D01*
X142782047Y-91602047D01*
X143115380Y-91221095D02*
X142115380Y-91221095D01*
X142734428Y-91125857D02*
X143115380Y-90840142D01*
X142448714Y-90840142D02*
X142829666Y-91221095D01*
D13*
X141204904Y-92997285D02*
X140823952Y-93263952D01*
X141204904Y-93454428D02*
X140404904Y-93454428D01*
X140404904Y-93149666D01*
X140443000Y-93073476D01*
X140481095Y-93035380D01*
X140557285Y-92997285D01*
X140671571Y-92997285D01*
X140747761Y-93035380D01*
X140785857Y-93073476D01*
X140823952Y-93149666D01*
X140823952Y-93454428D01*
X141204904Y-92235380D02*
X141204904Y-92692523D01*
X141204904Y-92463952D02*
X140404904Y-92463952D01*
X140519190Y-92540142D01*
X140595380Y-92616333D01*
X140633476Y-92692523D01*
X140404904Y-91968714D02*
X140404904Y-91473476D01*
X140709666Y-91740142D01*
X140709666Y-91625857D01*
X140747761Y-91549666D01*
X140785857Y-91511571D01*
X140862047Y-91473476D01*
X141052523Y-91473476D01*
X141128714Y-91511571D01*
X141166809Y-91549666D01*
X141204904Y-91625857D01*
X141204904Y-91854428D01*
X141166809Y-91930619D01*
X141128714Y-91968714D01*
D11*
X156069380Y-101234690D02*
X156069380Y-101806119D01*
X156069380Y-101520404D02*
X155069380Y-101520404D01*
X155212238Y-101615642D01*
X155307476Y-101710880D01*
X155355095Y-101806119D01*
X155974142Y-100806119D02*
X156021761Y-100758500D01*
X156069380Y-100806119D01*
X156021761Y-100853738D01*
X155974142Y-100806119D01*
X156069380Y-100806119D01*
X155402714Y-99901357D02*
X156069380Y-99901357D01*
X155021761Y-100139452D02*
X155736047Y-100377547D01*
X155736047Y-99758500D01*
X155069380Y-99472785D02*
X155069380Y-98853738D01*
X155450333Y-99187071D01*
X155450333Y-99044214D01*
X155497952Y-98948976D01*
X155545571Y-98901357D01*
X155640809Y-98853738D01*
X155878904Y-98853738D01*
X155974142Y-98901357D01*
X156021761Y-98948976D01*
X156069380Y-99044214D01*
X156069380Y-99329928D01*
X156021761Y-99425166D01*
X155974142Y-99472785D01*
X156069380Y-98425166D02*
X155069380Y-98425166D01*
X155783666Y-98091833D01*
X155069380Y-97758500D01*
X156069380Y-97758500D01*
D13*
X154158904Y-100272785D02*
X153777952Y-100539452D01*
X154158904Y-100729928D02*
X153358904Y-100729928D01*
X153358904Y-100425166D01*
X153397000Y-100348976D01*
X153435095Y-100310880D01*
X153511285Y-100272785D01*
X153625571Y-100272785D01*
X153701761Y-100310880D01*
X153739857Y-100348976D01*
X153777952Y-100425166D01*
X153777952Y-100729928D01*
X154158904Y-99510880D02*
X154158904Y-99968023D01*
X154158904Y-99739452D02*
X153358904Y-99739452D01*
X153473190Y-99815642D01*
X153549380Y-99891833D01*
X153587476Y-99968023D01*
X153625571Y-98825166D02*
X154158904Y-98825166D01*
X153320809Y-99015642D02*
X153892238Y-99206119D01*
X153892238Y-98710880D01*
D11*
X154942380Y-95199047D02*
X154942380Y-95675238D01*
X155418571Y-95722857D01*
X155370952Y-95675238D01*
X155323333Y-95580000D01*
X155323333Y-95341904D01*
X155370952Y-95246666D01*
X155418571Y-95199047D01*
X155513809Y-95151428D01*
X155751904Y-95151428D01*
X155847142Y-95199047D01*
X155894761Y-95246666D01*
X155942380Y-95341904D01*
X155942380Y-95580000D01*
X155894761Y-95675238D01*
X155847142Y-95722857D01*
X154942380Y-94294285D02*
X154942380Y-94484761D01*
X154990000Y-94580000D01*
X155037619Y-94627619D01*
X155180476Y-94722857D01*
X155370952Y-94770476D01*
X155751904Y-94770476D01*
X155847142Y-94722857D01*
X155894761Y-94675238D01*
X155942380Y-94580000D01*
X155942380Y-94389523D01*
X155894761Y-94294285D01*
X155847142Y-94246666D01*
X155751904Y-94199047D01*
X155513809Y-94199047D01*
X155418571Y-94246666D01*
X155370952Y-94294285D01*
X155323333Y-94389523D01*
X155323333Y-94580000D01*
X155370952Y-94675238D01*
X155418571Y-94722857D01*
X155513809Y-94770476D01*
X155037619Y-93818095D02*
X154990000Y-93770476D01*
X154942380Y-93675238D01*
X154942380Y-93437142D01*
X154990000Y-93341904D01*
X155037619Y-93294285D01*
X155132857Y-93246666D01*
X155228095Y-93246666D01*
X155370952Y-93294285D01*
X155942380Y-93865714D01*
X155942380Y-93246666D01*
X155942380Y-92818095D02*
X154942380Y-92818095D01*
X155561428Y-92722857D02*
X155942380Y-92437142D01*
X155275714Y-92437142D02*
X155656666Y-92818095D01*
D13*
X154031904Y-94594285D02*
X153650952Y-94860952D01*
X154031904Y-95051428D02*
X153231904Y-95051428D01*
X153231904Y-94746666D01*
X153270000Y-94670476D01*
X153308095Y-94632380D01*
X153384285Y-94594285D01*
X153498571Y-94594285D01*
X153574761Y-94632380D01*
X153612857Y-94670476D01*
X153650952Y-94746666D01*
X153650952Y-95051428D01*
X154031904Y-93832380D02*
X154031904Y-94289523D01*
X154031904Y-94060952D02*
X153231904Y-94060952D01*
X153346190Y-94137142D01*
X153422380Y-94213333D01*
X153460476Y-94289523D01*
X153231904Y-93108571D02*
X153231904Y-93489523D01*
X153612857Y-93527619D01*
X153574761Y-93489523D01*
X153536666Y-93413333D01*
X153536666Y-93222857D01*
X153574761Y-93146666D01*
X153612857Y-93108571D01*
X153689047Y-93070476D01*
X153879523Y-93070476D01*
X153955714Y-93108571D01*
X153993809Y-93146666D01*
X154031904Y-93222857D01*
X154031904Y-93413333D01*
X153993809Y-93489523D01*
X153955714Y-93527619D01*
D11*
X125695271Y-141329580D02*
X125123842Y-141329580D01*
X125409557Y-141329580D02*
X125409557Y-140329580D01*
X125314319Y-140472438D01*
X125219080Y-140567676D01*
X125123842Y-140615295D01*
X126552414Y-140662914D02*
X126552414Y-141329580D01*
X126314319Y-140281961D02*
X126076223Y-140996247D01*
X126695271Y-140996247D01*
X127076223Y-141234342D02*
X127123842Y-141281961D01*
X127076223Y-141329580D01*
X127028604Y-141281961D01*
X127076223Y-141234342D01*
X127076223Y-141329580D01*
X127457176Y-140329580D02*
X128123842Y-140329580D01*
X127695271Y-141329580D01*
X128504795Y-141329580D02*
X128504795Y-140662914D01*
X128504795Y-140758152D02*
X128552414Y-140710533D01*
X128647652Y-140662914D01*
X128790509Y-140662914D01*
X128885747Y-140710533D01*
X128933366Y-140805771D01*
X128933366Y-141329580D01*
X128933366Y-140805771D02*
X128980985Y-140710533D01*
X129076223Y-140662914D01*
X129219080Y-140662914D01*
X129314319Y-140710533D01*
X129361938Y-140805771D01*
X129361938Y-141329580D01*
D13*
X126752414Y-143059104D02*
X126485747Y-142678152D01*
X126295271Y-143059104D02*
X126295271Y-142259104D01*
X126600033Y-142259104D01*
X126676223Y-142297200D01*
X126714319Y-142335295D01*
X126752414Y-142411485D01*
X126752414Y-142525771D01*
X126714319Y-142601961D01*
X126676223Y-142640057D01*
X126600033Y-142678152D01*
X126295271Y-142678152D01*
X127514319Y-143059104D02*
X127057176Y-143059104D01*
X127285747Y-143059104D02*
X127285747Y-142259104D01*
X127209557Y-142373390D01*
X127133366Y-142449580D01*
X127057176Y-142487676D01*
X128200033Y-142259104D02*
X128047652Y-142259104D01*
X127971461Y-142297200D01*
X127933366Y-142335295D01*
X127857176Y-142449580D01*
X127819080Y-142601961D01*
X127819080Y-142906723D01*
X127857176Y-142982914D01*
X127895271Y-143021009D01*
X127971461Y-143059104D01*
X128123842Y-143059104D01*
X128200033Y-143021009D01*
X128238128Y-142982914D01*
X128276223Y-142906723D01*
X128276223Y-142716247D01*
X128238128Y-142640057D01*
X128200033Y-142601961D01*
X128123842Y-142563866D01*
X127971461Y-142563866D01*
X127895271Y-142601961D01*
X127857176Y-142640057D01*
X127819080Y-142716247D01*
D11*
X131923619Y-91204857D02*
X131876000Y-91157238D01*
X131828380Y-91062000D01*
X131828380Y-90823904D01*
X131876000Y-90728666D01*
X131923619Y-90681047D01*
X132018857Y-90633428D01*
X132114095Y-90633428D01*
X132256952Y-90681047D01*
X132828380Y-91252476D01*
X132828380Y-90633428D01*
X132256952Y-90062000D02*
X132209333Y-90157238D01*
X132161714Y-90204857D01*
X132066476Y-90252476D01*
X132018857Y-90252476D01*
X131923619Y-90204857D01*
X131876000Y-90157238D01*
X131828380Y-90062000D01*
X131828380Y-89871523D01*
X131876000Y-89776285D01*
X131923619Y-89728666D01*
X132018857Y-89681047D01*
X132066476Y-89681047D01*
X132161714Y-89728666D01*
X132209333Y-89776285D01*
X132256952Y-89871523D01*
X132256952Y-90062000D01*
X132304571Y-90157238D01*
X132352190Y-90204857D01*
X132447428Y-90252476D01*
X132637904Y-90252476D01*
X132733142Y-90204857D01*
X132780761Y-90157238D01*
X132828380Y-90062000D01*
X132828380Y-89871523D01*
X132780761Y-89776285D01*
X132733142Y-89728666D01*
X132637904Y-89681047D01*
X132447428Y-89681047D01*
X132352190Y-89728666D01*
X132304571Y-89776285D01*
X132256952Y-89871523D01*
X132161714Y-88823904D02*
X132828380Y-88823904D01*
X131780761Y-89062000D02*
X132495047Y-89300095D01*
X132495047Y-88681047D01*
X132828380Y-88300095D02*
X131828380Y-88300095D01*
X132447428Y-88204857D02*
X132828380Y-87919142D01*
X132161714Y-87919142D02*
X132542666Y-88300095D01*
D13*
X130917904Y-90076285D02*
X130536952Y-90342952D01*
X130917904Y-90533428D02*
X130117904Y-90533428D01*
X130117904Y-90228666D01*
X130156000Y-90152476D01*
X130194095Y-90114380D01*
X130270285Y-90076285D01*
X130384571Y-90076285D01*
X130460761Y-90114380D01*
X130498857Y-90152476D01*
X130536952Y-90228666D01*
X130536952Y-90533428D01*
X130917904Y-89314380D02*
X130917904Y-89771523D01*
X130917904Y-89542952D02*
X130117904Y-89542952D01*
X130232190Y-89619142D01*
X130308380Y-89695333D01*
X130346476Y-89771523D01*
X130117904Y-89047714D02*
X130117904Y-88514380D01*
X130917904Y-88857238D01*
D11*
X134662080Y-137100628D02*
X134662080Y-137672057D01*
X134662080Y-137386342D02*
X133662080Y-137386342D01*
X133804938Y-137481580D01*
X133900176Y-137576819D01*
X133947795Y-137672057D01*
X133662080Y-136481580D02*
X133662080Y-136386342D01*
X133709700Y-136291104D01*
X133757319Y-136243485D01*
X133852557Y-136195866D01*
X134043033Y-136148247D01*
X134281128Y-136148247D01*
X134471604Y-136195866D01*
X134566842Y-136243485D01*
X134614461Y-136291104D01*
X134662080Y-136386342D01*
X134662080Y-136481580D01*
X134614461Y-136576819D01*
X134566842Y-136624438D01*
X134471604Y-136672057D01*
X134281128Y-136719676D01*
X134043033Y-136719676D01*
X133852557Y-136672057D01*
X133757319Y-136624438D01*
X133709700Y-136576819D01*
X133662080Y-136481580D01*
X133662080Y-135529200D02*
X133662080Y-135433961D01*
X133709700Y-135338723D01*
X133757319Y-135291104D01*
X133852557Y-135243485D01*
X134043033Y-135195866D01*
X134281128Y-135195866D01*
X134471604Y-135243485D01*
X134566842Y-135291104D01*
X134614461Y-135338723D01*
X134662080Y-135433961D01*
X134662080Y-135529200D01*
X134614461Y-135624438D01*
X134566842Y-135672057D01*
X134471604Y-135719676D01*
X134281128Y-135767295D01*
X134043033Y-135767295D01*
X133852557Y-135719676D01*
X133757319Y-135672057D01*
X133709700Y-135624438D01*
X133662080Y-135529200D01*
X134662080Y-134767295D02*
X133662080Y-134767295D01*
X134281128Y-134672057D02*
X134662080Y-134386342D01*
X133995414Y-134386342D02*
X134376366Y-134767295D01*
D13*
X136391604Y-136543485D02*
X136010652Y-136810152D01*
X136391604Y-137000628D02*
X135591604Y-137000628D01*
X135591604Y-136695866D01*
X135629700Y-136619676D01*
X135667795Y-136581580D01*
X135743985Y-136543485D01*
X135858271Y-136543485D01*
X135934461Y-136581580D01*
X135972557Y-136619676D01*
X136010652Y-136695866D01*
X136010652Y-137000628D01*
X136391604Y-135781580D02*
X136391604Y-136238723D01*
X136391604Y-136010152D02*
X135591604Y-136010152D01*
X135705890Y-136086342D01*
X135782080Y-136162533D01*
X135820176Y-136238723D01*
X135934461Y-135324438D02*
X135896366Y-135400628D01*
X135858271Y-135438723D01*
X135782080Y-135476819D01*
X135743985Y-135476819D01*
X135667795Y-135438723D01*
X135629700Y-135400628D01*
X135591604Y-135324438D01*
X135591604Y-135172057D01*
X135629700Y-135095866D01*
X135667795Y-135057771D01*
X135743985Y-135019676D01*
X135782080Y-135019676D01*
X135858271Y-135057771D01*
X135896366Y-135095866D01*
X135934461Y-135172057D01*
X135934461Y-135324438D01*
X135972557Y-135400628D01*
X136010652Y-135438723D01*
X136086842Y-135476819D01*
X136239223Y-135476819D01*
X136315414Y-135438723D01*
X136353509Y-135400628D01*
X136391604Y-135324438D01*
X136391604Y-135172057D01*
X136353509Y-135095866D01*
X136315414Y-135057771D01*
X136239223Y-135019676D01*
X136086842Y-135019676D01*
X136010652Y-135057771D01*
X135972557Y-135095866D01*
X135934461Y-135172057D01*
D11*
X151302380Y-106746476D02*
X151302380Y-106127428D01*
X151683333Y-106460761D01*
X151683333Y-106317904D01*
X151730952Y-106222666D01*
X151778571Y-106175047D01*
X151873809Y-106127428D01*
X152111904Y-106127428D01*
X152207142Y-106175047D01*
X152254761Y-106222666D01*
X152302380Y-106317904D01*
X152302380Y-106603619D01*
X152254761Y-106698857D01*
X152207142Y-106746476D01*
X151302380Y-105794095D02*
X151302380Y-105175047D01*
X151683333Y-105508380D01*
X151683333Y-105365523D01*
X151730952Y-105270285D01*
X151778571Y-105222666D01*
X151873809Y-105175047D01*
X152111904Y-105175047D01*
X152207142Y-105222666D01*
X152254761Y-105270285D01*
X152302380Y-105365523D01*
X152302380Y-105651238D01*
X152254761Y-105746476D01*
X152207142Y-105794095D01*
X151397619Y-104794095D02*
X151350000Y-104746476D01*
X151302380Y-104651238D01*
X151302380Y-104413142D01*
X151350000Y-104317904D01*
X151397619Y-104270285D01*
X151492857Y-104222666D01*
X151588095Y-104222666D01*
X151730952Y-104270285D01*
X152302380Y-104841714D01*
X152302380Y-104222666D01*
X152302380Y-103794095D02*
X151302380Y-103794095D01*
X151921428Y-103698857D02*
X152302380Y-103413142D01*
X151635714Y-103413142D02*
X152016666Y-103794095D01*
D13*
X154031904Y-105570285D02*
X153650952Y-105836952D01*
X154031904Y-106027428D02*
X153231904Y-106027428D01*
X153231904Y-105722666D01*
X153270000Y-105646476D01*
X153308095Y-105608380D01*
X153384285Y-105570285D01*
X153498571Y-105570285D01*
X153574761Y-105608380D01*
X153612857Y-105646476D01*
X153650952Y-105722666D01*
X153650952Y-106027428D01*
X154031904Y-104808380D02*
X154031904Y-105265523D01*
X154031904Y-105036952D02*
X153231904Y-105036952D01*
X153346190Y-105113142D01*
X153422380Y-105189333D01*
X153460476Y-105265523D01*
X154031904Y-104427428D02*
X154031904Y-104275047D01*
X153993809Y-104198857D01*
X153955714Y-104160761D01*
X153841428Y-104084571D01*
X153689047Y-104046476D01*
X153384285Y-104046476D01*
X153308095Y-104084571D01*
X153270000Y-104122666D01*
X153231904Y-104198857D01*
X153231904Y-104351238D01*
X153270000Y-104427428D01*
X153308095Y-104465523D01*
X153384285Y-104503619D01*
X153574761Y-104503619D01*
X153650952Y-104465523D01*
X153689047Y-104427428D01*
X153727142Y-104351238D01*
X153727142Y-104198857D01*
X153689047Y-104122666D01*
X153650952Y-104084571D01*
X153574761Y-104046476D01*
D11*
X139218319Y-137910152D02*
X139170700Y-137862533D01*
X139123080Y-137767295D01*
X139123080Y-137529200D01*
X139170700Y-137433961D01*
X139218319Y-137386342D01*
X139313557Y-137338723D01*
X139408795Y-137338723D01*
X139551652Y-137386342D01*
X140123080Y-137957771D01*
X140123080Y-137338723D01*
X140123080Y-136862533D02*
X140123080Y-136672057D01*
X140075461Y-136576819D01*
X140027842Y-136529200D01*
X139884985Y-136433961D01*
X139694509Y-136386342D01*
X139313557Y-136386342D01*
X139218319Y-136433961D01*
X139170700Y-136481580D01*
X139123080Y-136576819D01*
X139123080Y-136767295D01*
X139170700Y-136862533D01*
X139218319Y-136910152D01*
X139313557Y-136957771D01*
X139551652Y-136957771D01*
X139646890Y-136910152D01*
X139694509Y-136862533D01*
X139742128Y-136767295D01*
X139742128Y-136576819D01*
X139694509Y-136481580D01*
X139646890Y-136433961D01*
X139551652Y-136386342D01*
X140027842Y-135957771D02*
X140075461Y-135910152D01*
X140123080Y-135957771D01*
X140075461Y-136005390D01*
X140027842Y-135957771D01*
X140123080Y-135957771D01*
X139456414Y-135053009D02*
X140123080Y-135053009D01*
X139075461Y-135291104D02*
X139789747Y-135529200D01*
X139789747Y-134910152D01*
X140123080Y-134529200D02*
X139123080Y-134529200D01*
X139742128Y-134433961D02*
X140123080Y-134148247D01*
X139456414Y-134148247D02*
X139837366Y-134529200D01*
D13*
X141852604Y-136543485D02*
X141471652Y-136810152D01*
X141852604Y-137000628D02*
X141052604Y-137000628D01*
X141052604Y-136695866D01*
X141090700Y-136619676D01*
X141128795Y-136581580D01*
X141204985Y-136543485D01*
X141319271Y-136543485D01*
X141395461Y-136581580D01*
X141433557Y-136619676D01*
X141471652Y-136695866D01*
X141471652Y-137000628D01*
X141128795Y-136238723D02*
X141090700Y-136200628D01*
X141052604Y-136124438D01*
X141052604Y-135933961D01*
X141090700Y-135857771D01*
X141128795Y-135819676D01*
X141204985Y-135781580D01*
X141281176Y-135781580D01*
X141395461Y-135819676D01*
X141852604Y-136276819D01*
X141852604Y-135781580D01*
X141052604Y-135286342D02*
X141052604Y-135210152D01*
X141090700Y-135133961D01*
X141128795Y-135095866D01*
X141204985Y-135057771D01*
X141357366Y-135019676D01*
X141547842Y-135019676D01*
X141700223Y-135057771D01*
X141776414Y-135095866D01*
X141814509Y-135133961D01*
X141852604Y-135210152D01*
X141852604Y-135286342D01*
X141814509Y-135362533D01*
X141776414Y-135400628D01*
X141700223Y-135438723D01*
X141547842Y-135476819D01*
X141357366Y-135476819D01*
X141204985Y-135438723D01*
X141128795Y-135400628D01*
X141090700Y-135362533D01*
X141052604Y-135286342D01*
D11*
X144076080Y-137386342D02*
X144076080Y-137862533D01*
X144552271Y-137910152D01*
X144504652Y-137862533D01*
X144457033Y-137767295D01*
X144457033Y-137529200D01*
X144504652Y-137433961D01*
X144552271Y-137386342D01*
X144647509Y-137338723D01*
X144885604Y-137338723D01*
X144980842Y-137386342D01*
X145028461Y-137433961D01*
X145076080Y-137529200D01*
X145076080Y-137767295D01*
X145028461Y-137862533D01*
X144980842Y-137910152D01*
X145076080Y-136862533D02*
X145076080Y-136672057D01*
X145028461Y-136576819D01*
X144980842Y-136529200D01*
X144837985Y-136433961D01*
X144647509Y-136386342D01*
X144266557Y-136386342D01*
X144171319Y-136433961D01*
X144123700Y-136481580D01*
X144076080Y-136576819D01*
X144076080Y-136767295D01*
X144123700Y-136862533D01*
X144171319Y-136910152D01*
X144266557Y-136957771D01*
X144504652Y-136957771D01*
X144599890Y-136910152D01*
X144647509Y-136862533D01*
X144695128Y-136767295D01*
X144695128Y-136576819D01*
X144647509Y-136481580D01*
X144599890Y-136433961D01*
X144504652Y-136386342D01*
X144980842Y-135957771D02*
X145028461Y-135910152D01*
X145076080Y-135957771D01*
X145028461Y-136005390D01*
X144980842Y-135957771D01*
X145076080Y-135957771D01*
X144076080Y-135291104D02*
X144076080Y-135195866D01*
X144123700Y-135100628D01*
X144171319Y-135053009D01*
X144266557Y-135005390D01*
X144457033Y-134957771D01*
X144695128Y-134957771D01*
X144885604Y-135005390D01*
X144980842Y-135053009D01*
X145028461Y-135100628D01*
X145076080Y-135195866D01*
X145076080Y-135291104D01*
X145028461Y-135386342D01*
X144980842Y-135433961D01*
X144885604Y-135481580D01*
X144695128Y-135529200D01*
X144457033Y-135529200D01*
X144266557Y-135481580D01*
X144171319Y-135433961D01*
X144123700Y-135386342D01*
X144076080Y-135291104D01*
X145076080Y-134529200D02*
X144076080Y-134529200D01*
X144695128Y-134433961D02*
X145076080Y-134148247D01*
X144409414Y-134148247D02*
X144790366Y-134529200D01*
D13*
X146805604Y-136543485D02*
X146424652Y-136810152D01*
X146805604Y-137000628D02*
X146005604Y-137000628D01*
X146005604Y-136695866D01*
X146043700Y-136619676D01*
X146081795Y-136581580D01*
X146157985Y-136543485D01*
X146272271Y-136543485D01*
X146348461Y-136581580D01*
X146386557Y-136619676D01*
X146424652Y-136695866D01*
X146424652Y-137000628D01*
X146081795Y-136238723D02*
X146043700Y-136200628D01*
X146005604Y-136124438D01*
X146005604Y-135933961D01*
X146043700Y-135857771D01*
X146081795Y-135819676D01*
X146157985Y-135781580D01*
X146234176Y-135781580D01*
X146348461Y-135819676D01*
X146805604Y-136276819D01*
X146805604Y-135781580D01*
X146805604Y-135019676D02*
X146805604Y-135476819D01*
X146805604Y-135248247D02*
X146005604Y-135248247D01*
X146119890Y-135324438D01*
X146196080Y-135400628D01*
X146234176Y-135476819D01*
D11*
X135300380Y-102936476D02*
X135300380Y-102317428D01*
X135681333Y-102650761D01*
X135681333Y-102507904D01*
X135728952Y-102412666D01*
X135776571Y-102365047D01*
X135871809Y-102317428D01*
X136109904Y-102317428D01*
X136205142Y-102365047D01*
X136252761Y-102412666D01*
X136300380Y-102507904D01*
X136300380Y-102793619D01*
X136252761Y-102888857D01*
X136205142Y-102936476D01*
X135300380Y-101984095D02*
X135300380Y-101365047D01*
X135681333Y-101698380D01*
X135681333Y-101555523D01*
X135728952Y-101460285D01*
X135776571Y-101412666D01*
X135871809Y-101365047D01*
X136109904Y-101365047D01*
X136205142Y-101412666D01*
X136252761Y-101460285D01*
X136300380Y-101555523D01*
X136300380Y-101841238D01*
X136252761Y-101936476D01*
X136205142Y-101984095D01*
X135395619Y-100984095D02*
X135348000Y-100936476D01*
X135300380Y-100841238D01*
X135300380Y-100603142D01*
X135348000Y-100507904D01*
X135395619Y-100460285D01*
X135490857Y-100412666D01*
X135586095Y-100412666D01*
X135728952Y-100460285D01*
X136300380Y-101031714D01*
X136300380Y-100412666D01*
X136300380Y-99984095D02*
X135300380Y-99984095D01*
X135919428Y-99888857D02*
X136300380Y-99603142D01*
X135633714Y-99603142D02*
X136014666Y-99984095D01*
D13*
X138029904Y-101760285D02*
X137648952Y-102026952D01*
X138029904Y-102217428D02*
X137229904Y-102217428D01*
X137229904Y-101912666D01*
X137268000Y-101836476D01*
X137306095Y-101798380D01*
X137382285Y-101760285D01*
X137496571Y-101760285D01*
X137572761Y-101798380D01*
X137610857Y-101836476D01*
X137648952Y-101912666D01*
X137648952Y-102217428D01*
X137306095Y-101455523D02*
X137268000Y-101417428D01*
X137229904Y-101341238D01*
X137229904Y-101150761D01*
X137268000Y-101074571D01*
X137306095Y-101036476D01*
X137382285Y-100998380D01*
X137458476Y-100998380D01*
X137572761Y-101036476D01*
X138029904Y-101493619D01*
X138029904Y-100998380D01*
X137306095Y-100693619D02*
X137268000Y-100655523D01*
X137229904Y-100579333D01*
X137229904Y-100388857D01*
X137268000Y-100312666D01*
X137306095Y-100274571D01*
X137382285Y-100236476D01*
X137458476Y-100236476D01*
X137572761Y-100274571D01*
X138029904Y-100731714D01*
X138029904Y-100236476D01*
D11*
X150168780Y-137100628D02*
X150168780Y-137672057D01*
X150168780Y-137386342D02*
X149168780Y-137386342D01*
X149311638Y-137481580D01*
X149406876Y-137576819D01*
X149454495Y-137672057D01*
X149168780Y-136481580D02*
X149168780Y-136386342D01*
X149216400Y-136291104D01*
X149264019Y-136243485D01*
X149359257Y-136195866D01*
X149549733Y-136148247D01*
X149787828Y-136148247D01*
X149978304Y-136195866D01*
X150073542Y-136243485D01*
X150121161Y-136291104D01*
X150168780Y-136386342D01*
X150168780Y-136481580D01*
X150121161Y-136576819D01*
X150073542Y-136624438D01*
X149978304Y-136672057D01*
X149787828Y-136719676D01*
X149549733Y-136719676D01*
X149359257Y-136672057D01*
X149264019Y-136624438D01*
X149216400Y-136576819D01*
X149168780Y-136481580D01*
X149168780Y-135529200D02*
X149168780Y-135433961D01*
X149216400Y-135338723D01*
X149264019Y-135291104D01*
X149359257Y-135243485D01*
X149549733Y-135195866D01*
X149787828Y-135195866D01*
X149978304Y-135243485D01*
X150073542Y-135291104D01*
X150121161Y-135338723D01*
X150168780Y-135433961D01*
X150168780Y-135529200D01*
X150121161Y-135624438D01*
X150073542Y-135672057D01*
X149978304Y-135719676D01*
X149787828Y-135767295D01*
X149549733Y-135767295D01*
X149359257Y-135719676D01*
X149264019Y-135672057D01*
X149216400Y-135624438D01*
X149168780Y-135529200D01*
X150168780Y-134767295D02*
X149168780Y-134767295D01*
X149787828Y-134672057D02*
X150168780Y-134386342D01*
X149502114Y-134386342D02*
X149883066Y-134767295D01*
D13*
X151898304Y-136543485D02*
X151517352Y-136810152D01*
X151898304Y-137000628D02*
X151098304Y-137000628D01*
X151098304Y-136695866D01*
X151136400Y-136619676D01*
X151174495Y-136581580D01*
X151250685Y-136543485D01*
X151364971Y-136543485D01*
X151441161Y-136581580D01*
X151479257Y-136619676D01*
X151517352Y-136695866D01*
X151517352Y-137000628D01*
X151174495Y-136238723D02*
X151136400Y-136200628D01*
X151098304Y-136124438D01*
X151098304Y-135933961D01*
X151136400Y-135857771D01*
X151174495Y-135819676D01*
X151250685Y-135781580D01*
X151326876Y-135781580D01*
X151441161Y-135819676D01*
X151898304Y-136276819D01*
X151898304Y-135781580D01*
X151098304Y-135514914D02*
X151098304Y-135019676D01*
X151403066Y-135286342D01*
X151403066Y-135172057D01*
X151441161Y-135095866D01*
X151479257Y-135057771D01*
X151555447Y-135019676D01*
X151745923Y-135019676D01*
X151822114Y-135057771D01*
X151860209Y-135095866D01*
X151898304Y-135172057D01*
X151898304Y-135400628D01*
X151860209Y-135476819D01*
X151822114Y-135514914D01*
D11*
X114614380Y-104306357D02*
X114614380Y-103734928D01*
X115614380Y-104020642D02*
X114614380Y-104020642D01*
X115614380Y-103401595D02*
X114614380Y-103401595D01*
X114614380Y-103163500D01*
X114662000Y-103020642D01*
X114757238Y-102925404D01*
X114852476Y-102877785D01*
X115042952Y-102830166D01*
X115185809Y-102830166D01*
X115376285Y-102877785D01*
X115471523Y-102925404D01*
X115566761Y-103020642D01*
X115614380Y-103163500D01*
X115614380Y-103401595D01*
X115614380Y-102401595D02*
X114614380Y-102401595D01*
X115614380Y-101830166D02*
X115042952Y-102258738D01*
X114614380Y-101830166D02*
X115185809Y-102401595D01*
X115614380Y-100877785D02*
X115614380Y-101449214D01*
X115614380Y-101163500D02*
X114614380Y-101163500D01*
X114757238Y-101258738D01*
X114852476Y-101353976D01*
X114900095Y-101449214D01*
X114614380Y-100258738D02*
X114614380Y-100163500D01*
X114662000Y-100068261D01*
X114709619Y-100020642D01*
X114804857Y-99973023D01*
X114995333Y-99925404D01*
X115233428Y-99925404D01*
X115423904Y-99973023D01*
X115519142Y-100020642D01*
X115566761Y-100068261D01*
X115614380Y-100163500D01*
X115614380Y-100258738D01*
X115566761Y-100353976D01*
X115519142Y-100401595D01*
X115423904Y-100449214D01*
X115233428Y-100496833D01*
X114995333Y-100496833D01*
X114804857Y-100449214D01*
X114709619Y-100401595D01*
X114662000Y-100353976D01*
X114614380Y-100258738D01*
X115614380Y-99496833D02*
X114614380Y-99496833D01*
X115233428Y-99401595D02*
X115614380Y-99115880D01*
X114947714Y-99115880D02*
X115328666Y-99496833D01*
D14*
X116195095Y-101984928D02*
X116195095Y-101842071D01*
X116445095Y-101913500D02*
X116195095Y-101913500D01*
X116445095Y-101758738D02*
X116195095Y-101758738D01*
X116314142Y-101758738D02*
X116314142Y-101615880D01*
X116445095Y-101615880D02*
X116195095Y-101615880D01*
X116445095Y-101365880D02*
X116445095Y-101508738D01*
X116445095Y-101437309D02*
X116195095Y-101437309D01*
X116230809Y-101461119D01*
X116254619Y-101484928D01*
X116266523Y-101508738D01*
D11*
X124790509Y-149163580D02*
X124314319Y-149163580D01*
X124314319Y-148163580D01*
X124980985Y-148163580D02*
X125552414Y-148163580D01*
X125266700Y-149163580D02*
X125266700Y-148163580D01*
X126457176Y-149068342D02*
X126409557Y-149115961D01*
X126266700Y-149163580D01*
X126171461Y-149163580D01*
X126028604Y-149115961D01*
X125933366Y-149020723D01*
X125885747Y-148925485D01*
X125838128Y-148735009D01*
X125838128Y-148592152D01*
X125885747Y-148401676D01*
X125933366Y-148306438D01*
X126028604Y-148211200D01*
X126171461Y-148163580D01*
X126266700Y-148163580D01*
X126409557Y-148211200D01*
X126457176Y-148258819D01*
X126838128Y-148258819D02*
X126885747Y-148211200D01*
X126980985Y-148163580D01*
X127219080Y-148163580D01*
X127314319Y-148211200D01*
X127361938Y-148258819D01*
X127409557Y-148354057D01*
X127409557Y-148449295D01*
X127361938Y-148592152D01*
X126790509Y-149163580D01*
X127409557Y-149163580D01*
X127885747Y-149163580D02*
X128076223Y-149163580D01*
X128171461Y-149115961D01*
X128219080Y-149068342D01*
X128314319Y-148925485D01*
X128361938Y-148735009D01*
X128361938Y-148354057D01*
X128314319Y-148258819D01*
X128266700Y-148211200D01*
X128171461Y-148163580D01*
X127980985Y-148163580D01*
X127885747Y-148211200D01*
X127838128Y-148258819D01*
X127790509Y-148354057D01*
X127790509Y-148592152D01*
X127838128Y-148687390D01*
X127885747Y-148735009D01*
X127980985Y-148782628D01*
X128171461Y-148782628D01*
X128266700Y-148735009D01*
X128314319Y-148687390D01*
X128361938Y-148592152D01*
X129219080Y-148496914D02*
X129219080Y-149163580D01*
X128980985Y-148115961D02*
X128742890Y-148830247D01*
X129361938Y-148830247D01*
X129695271Y-148258819D02*
X129742890Y-148211200D01*
X129838128Y-148163580D01*
X130076223Y-148163580D01*
X130171461Y-148211200D01*
X130219080Y-148258819D01*
X130266700Y-148354057D01*
X130266700Y-148449295D01*
X130219080Y-148592152D01*
X129647652Y-149163580D01*
X130266700Y-149163580D01*
D15*
X126695271Y-146350485D02*
X126695271Y-146957628D01*
X126730985Y-147029057D01*
X126766700Y-147064771D01*
X126838128Y-147100485D01*
X126980985Y-147100485D01*
X127052414Y-147064771D01*
X127088128Y-147029057D01*
X127123842Y-146957628D01*
X127123842Y-146350485D01*
X127445271Y-146421914D02*
X127480985Y-146386200D01*
X127552414Y-146350485D01*
X127730985Y-146350485D01*
X127802414Y-146386200D01*
X127838128Y-146421914D01*
X127873842Y-146493342D01*
X127873842Y-146564771D01*
X127838128Y-146671914D01*
X127409557Y-147100485D01*
X127873842Y-147100485D01*
D11*
X122655223Y-101401080D02*
X122179033Y-101401080D01*
X122179033Y-100401080D01*
X122988557Y-101401080D02*
X122988557Y-100401080D01*
X123321890Y-101115366D01*
X123655223Y-100401080D01*
X123655223Y-101401080D01*
X124036176Y-100401080D02*
X124655223Y-100401080D01*
X124321890Y-100782033D01*
X124464747Y-100782033D01*
X124559985Y-100829652D01*
X124607604Y-100877271D01*
X124655223Y-100972509D01*
X124655223Y-101210604D01*
X124607604Y-101305842D01*
X124559985Y-101353461D01*
X124464747Y-101401080D01*
X124179033Y-101401080D01*
X124083795Y-101353461D01*
X124036176Y-101305842D01*
X125131414Y-101401080D02*
X125321890Y-101401080D01*
X125417128Y-101353461D01*
X125464747Y-101305842D01*
X125559985Y-101162985D01*
X125607604Y-100972509D01*
X125607604Y-100591557D01*
X125559985Y-100496319D01*
X125512366Y-100448700D01*
X125417128Y-100401080D01*
X125226652Y-100401080D01*
X125131414Y-100448700D01*
X125083795Y-100496319D01*
X125036176Y-100591557D01*
X125036176Y-100829652D01*
X125083795Y-100924890D01*
X125131414Y-100972509D01*
X125226652Y-101020128D01*
X125417128Y-101020128D01*
X125512366Y-100972509D01*
X125559985Y-100924890D01*
X125607604Y-100829652D01*
X125940938Y-100401080D02*
X126559985Y-100401080D01*
X126226652Y-100782033D01*
X126369509Y-100782033D01*
X126464747Y-100829652D01*
X126512366Y-100877271D01*
X126559985Y-100972509D01*
X126559985Y-101210604D01*
X126512366Y-101305842D01*
X126464747Y-101353461D01*
X126369509Y-101401080D01*
X126083795Y-101401080D01*
X125988557Y-101353461D01*
X125940938Y-101305842D01*
X123599033Y-97012033D02*
X123599033Y-97805366D01*
X123645700Y-97898700D01*
X123692366Y-97945366D01*
X123785700Y-97992033D01*
X123972366Y-97992033D01*
X124065700Y-97945366D01*
X124112366Y-97898700D01*
X124159033Y-97805366D01*
X124159033Y-97012033D01*
X124532366Y-97012033D02*
X125139033Y-97012033D01*
X124812366Y-97385366D01*
X124952366Y-97385366D01*
X125045700Y-97432033D01*
X125092366Y-97478700D01*
X125139033Y-97572033D01*
X125139033Y-97805366D01*
X125092366Y-97898700D01*
X125045700Y-97945366D01*
X124952366Y-97992033D01*
X124672366Y-97992033D01*
X124579033Y-97945366D01*
X124532366Y-97898700D01*
X135511793Y-129358900D02*
X136083221Y-129358900D01*
X135797507Y-130358900D02*
X135797507Y-129358900D01*
X136416555Y-130358900D02*
X136416555Y-129358900D01*
X136797507Y-129358900D01*
X136892745Y-129406520D01*
X136940364Y-129454139D01*
X136987983Y-129549377D01*
X136987983Y-129692234D01*
X136940364Y-129787472D01*
X136892745Y-129835091D01*
X136797507Y-129882710D01*
X136416555Y-129882710D01*
X137368936Y-130311281D02*
X137511793Y-130358900D01*
X137749888Y-130358900D01*
X137845126Y-130311281D01*
X137892745Y-130263662D01*
X137940364Y-130168424D01*
X137940364Y-130073186D01*
X137892745Y-129977948D01*
X137845126Y-129930329D01*
X137749888Y-129882710D01*
X137559412Y-129835091D01*
X137464174Y-129787472D01*
X137416555Y-129739853D01*
X137368936Y-129644615D01*
X137368936Y-129549377D01*
X137416555Y-129454139D01*
X137464174Y-129406520D01*
X137559412Y-129358900D01*
X137797507Y-129358900D01*
X137940364Y-129406520D01*
X138321317Y-129454139D02*
X138368936Y-129406520D01*
X138464174Y-129358900D01*
X138702269Y-129358900D01*
X138797507Y-129406520D01*
X138845126Y-129454139D01*
X138892745Y-129549377D01*
X138892745Y-129644615D01*
X138845126Y-129787472D01*
X138273698Y-130358900D01*
X138892745Y-130358900D01*
X139797507Y-129358900D02*
X139321317Y-129358900D01*
X139273698Y-129835091D01*
X139321317Y-129787472D01*
X139416555Y-129739853D01*
X139654650Y-129739853D01*
X139749888Y-129787472D01*
X139797507Y-129835091D01*
X139845126Y-129930329D01*
X139845126Y-130168424D01*
X139797507Y-130263662D01*
X139749888Y-130311281D01*
X139654650Y-130358900D01*
X139416555Y-130358900D01*
X139321317Y-130311281D01*
X139273698Y-130263662D01*
X140749888Y-129358900D02*
X140273698Y-129358900D01*
X140226079Y-129835091D01*
X140273698Y-129787472D01*
X140368936Y-129739853D01*
X140607031Y-129739853D01*
X140702269Y-129787472D01*
X140749888Y-129835091D01*
X140797507Y-129930329D01*
X140797507Y-130168424D01*
X140749888Y-130263662D01*
X140702269Y-130311281D01*
X140607031Y-130358900D01*
X140368936Y-130358900D01*
X140273698Y-130311281D01*
X140226079Y-130263662D01*
X141130840Y-129358900D02*
X141797507Y-129358900D01*
X141368936Y-130358900D01*
X145654923Y-94626480D02*
X145178733Y-94626480D01*
X145178733Y-93626480D01*
X145988257Y-94626480D02*
X145988257Y-93626480D01*
X146321590Y-94340766D01*
X146654923Y-93626480D01*
X146654923Y-94626480D01*
X147035876Y-93626480D02*
X147654923Y-93626480D01*
X147321590Y-94007433D01*
X147464447Y-94007433D01*
X147559685Y-94055052D01*
X147607304Y-94102671D01*
X147654923Y-94197909D01*
X147654923Y-94436004D01*
X147607304Y-94531242D01*
X147559685Y-94578861D01*
X147464447Y-94626480D01*
X147178733Y-94626480D01*
X147083495Y-94578861D01*
X147035876Y-94531242D01*
X148131114Y-94626480D02*
X148321590Y-94626480D01*
X148416828Y-94578861D01*
X148464447Y-94531242D01*
X148559685Y-94388385D01*
X148607304Y-94197909D01*
X148607304Y-93816957D01*
X148559685Y-93721719D01*
X148512066Y-93674100D01*
X148416828Y-93626480D01*
X148226352Y-93626480D01*
X148131114Y-93674100D01*
X148083495Y-93721719D01*
X148035876Y-93816957D01*
X148035876Y-94055052D01*
X148083495Y-94150290D01*
X148131114Y-94197909D01*
X148226352Y-94245528D01*
X148416828Y-94245528D01*
X148512066Y-94197909D01*
X148559685Y-94150290D01*
X148607304Y-94055052D01*
X148940638Y-93626480D02*
X149559685Y-93626480D01*
X149226352Y-94007433D01*
X149369209Y-94007433D01*
X149464447Y-94055052D01*
X149512066Y-94102671D01*
X149559685Y-94197909D01*
X149559685Y-94436004D01*
X149512066Y-94531242D01*
X149464447Y-94578861D01*
X149369209Y-94626480D01*
X149083495Y-94626480D01*
X148988257Y-94578861D01*
X148940638Y-94531242D01*
X146598733Y-97037433D02*
X146598733Y-97830766D01*
X146645400Y-97924100D01*
X146692066Y-97970766D01*
X146785400Y-98017433D01*
X146972066Y-98017433D01*
X147065400Y-97970766D01*
X147112066Y-97924100D01*
X147158733Y-97830766D01*
X147158733Y-97037433D01*
X148092066Y-97037433D02*
X147625400Y-97037433D01*
X147578733Y-97504100D01*
X147625400Y-97457433D01*
X147718733Y-97410766D01*
X147952066Y-97410766D01*
X148045400Y-97457433D01*
X148092066Y-97504100D01*
X148138733Y-97597433D01*
X148138733Y-97830766D01*
X148092066Y-97924100D01*
X148045400Y-97970766D01*
X147952066Y-98017433D01*
X147718733Y-98017433D01*
X147625400Y-97970766D01*
X147578733Y-97924100D01*
X144018773Y-132220360D02*
X144590201Y-132220360D01*
X144304487Y-133220360D02*
X144304487Y-132220360D01*
X144923535Y-133220360D02*
X144923535Y-132220360D01*
X145304487Y-132220360D01*
X145399725Y-132267980D01*
X145447344Y-132315599D01*
X145494963Y-132410837D01*
X145494963Y-132553694D01*
X145447344Y-132648932D01*
X145399725Y-132696551D01*
X145304487Y-132744170D01*
X144923535Y-132744170D01*
X145875916Y-133172741D02*
X146018773Y-133220360D01*
X146256868Y-133220360D01*
X146352106Y-133172741D01*
X146399725Y-133125122D01*
X146447344Y-133029884D01*
X146447344Y-132934646D01*
X146399725Y-132839408D01*
X146352106Y-132791789D01*
X146256868Y-132744170D01*
X146066392Y-132696551D01*
X145971154Y-132648932D01*
X145923535Y-132601313D01*
X145875916Y-132506075D01*
X145875916Y-132410837D01*
X145923535Y-132315599D01*
X145971154Y-132267980D01*
X146066392Y-132220360D01*
X146304487Y-132220360D01*
X146447344Y-132267980D01*
X146828297Y-132315599D02*
X146875916Y-132267980D01*
X146971154Y-132220360D01*
X147209249Y-132220360D01*
X147304487Y-132267980D01*
X147352106Y-132315599D01*
X147399725Y-132410837D01*
X147399725Y-132506075D01*
X147352106Y-132648932D01*
X146780678Y-133220360D01*
X147399725Y-133220360D01*
X148304487Y-132220360D02*
X147828297Y-132220360D01*
X147780678Y-132696551D01*
X147828297Y-132648932D01*
X147923535Y-132601313D01*
X148161630Y-132601313D01*
X148256868Y-132648932D01*
X148304487Y-132696551D01*
X148352106Y-132791789D01*
X148352106Y-133029884D01*
X148304487Y-133125122D01*
X148256868Y-133172741D01*
X148161630Y-133220360D01*
X147923535Y-133220360D01*
X147828297Y-133172741D01*
X147780678Y-133125122D01*
X149256868Y-132220360D02*
X148780678Y-132220360D01*
X148733059Y-132696551D01*
X148780678Y-132648932D01*
X148875916Y-132601313D01*
X149114011Y-132601313D01*
X149209249Y-132648932D01*
X149256868Y-132696551D01*
X149304487Y-132791789D01*
X149304487Y-133029884D01*
X149256868Y-133125122D01*
X149209249Y-133172741D01*
X149114011Y-133220360D01*
X148875916Y-133220360D01*
X148780678Y-133172741D01*
X148733059Y-133125122D01*
X149637820Y-132220360D02*
X150304487Y-132220360D01*
X149875916Y-133220360D01*
X125401661Y-113050009D02*
X125449280Y-112907152D01*
X125449280Y-112669057D01*
X125401661Y-112573819D01*
X125354042Y-112526200D01*
X125258804Y-112478580D01*
X125163566Y-112478580D01*
X125068328Y-112526200D01*
X125020709Y-112573819D01*
X124973090Y-112669057D01*
X124925471Y-112859533D01*
X124877852Y-112954771D01*
X124830233Y-113002390D01*
X124734995Y-113050009D01*
X124639757Y-113050009D01*
X124544519Y-113002390D01*
X124496900Y-112954771D01*
X124449280Y-112859533D01*
X124449280Y-112621438D01*
X124496900Y-112478580D01*
X125449280Y-112050009D02*
X124449280Y-112050009D01*
X125449280Y-111478580D01*
X124449280Y-111478580D01*
X124449280Y-111097628D02*
X124449280Y-110430961D01*
X125449280Y-110859533D01*
X124782614Y-109621438D02*
X125449280Y-109621438D01*
X124401661Y-109859533D02*
X125115947Y-110097628D01*
X125115947Y-109478580D01*
X125449280Y-108621438D02*
X125449280Y-109097628D01*
X124449280Y-109097628D01*
X124449280Y-108430961D02*
X125449280Y-108097628D01*
X124449280Y-107764295D01*
X125354042Y-106859533D02*
X125401661Y-106907152D01*
X125449280Y-107050009D01*
X125449280Y-107145247D01*
X125401661Y-107288104D01*
X125306423Y-107383342D01*
X125211185Y-107430961D01*
X125020709Y-107478580D01*
X124877852Y-107478580D01*
X124687376Y-107430961D01*
X124592138Y-107383342D01*
X124496900Y-107288104D01*
X124449280Y-107145247D01*
X124449280Y-107050009D01*
X124496900Y-106907152D01*
X124544519Y-106859533D01*
X124544519Y-106478580D02*
X124496900Y-106430961D01*
X124449280Y-106335723D01*
X124449280Y-106097628D01*
X124496900Y-106002390D01*
X124544519Y-105954771D01*
X124639757Y-105907152D01*
X124734995Y-105907152D01*
X124877852Y-105954771D01*
X125449280Y-106526200D01*
X125449280Y-105907152D01*
X124496900Y-104954771D02*
X124449280Y-105050009D01*
X124449280Y-105192866D01*
X124496900Y-105335723D01*
X124592138Y-105430961D01*
X124687376Y-105478580D01*
X124877852Y-105526200D01*
X125020709Y-105526200D01*
X125211185Y-105478580D01*
X125306423Y-105430961D01*
X125401661Y-105335723D01*
X125449280Y-105192866D01*
X125449280Y-105097628D01*
X125401661Y-104954771D01*
X125354042Y-104907152D01*
X125020709Y-104907152D01*
X125020709Y-105097628D01*
X124449280Y-104288104D02*
X124449280Y-104192866D01*
X124496900Y-104097628D01*
X124544519Y-104050009D01*
X124639757Y-104002390D01*
X124830233Y-103954771D01*
X125068328Y-103954771D01*
X125258804Y-104002390D01*
X125354042Y-104050009D01*
X125401661Y-104097628D01*
X125449280Y-104192866D01*
X125449280Y-104288104D01*
X125401661Y-104383342D01*
X125354042Y-104430961D01*
X125258804Y-104478580D01*
X125068328Y-104526200D01*
X124830233Y-104526200D01*
X124639757Y-104478580D01*
X124544519Y-104430961D01*
X124496900Y-104383342D01*
X124449280Y-104288104D01*
X124877852Y-103383342D02*
X124830233Y-103478580D01*
X124782614Y-103526200D01*
X124687376Y-103573819D01*
X124639757Y-103573819D01*
X124544519Y-103526200D01*
X124496900Y-103478580D01*
X124449280Y-103383342D01*
X124449280Y-103192866D01*
X124496900Y-103097628D01*
X124544519Y-103050009D01*
X124639757Y-103002390D01*
X124687376Y-103002390D01*
X124782614Y-103050009D01*
X124830233Y-103097628D01*
X124877852Y-103192866D01*
X124877852Y-103383342D01*
X124925471Y-103478580D01*
X124973090Y-103526200D01*
X125068328Y-103573819D01*
X125258804Y-103573819D01*
X125354042Y-103526200D01*
X125401661Y-103478580D01*
X125449280Y-103383342D01*
X125449280Y-103192866D01*
X125401661Y-103097628D01*
X125354042Y-103050009D01*
X125258804Y-103002390D01*
X125068328Y-103002390D01*
X124973090Y-103050009D01*
X124925471Y-103097628D01*
X124877852Y-103192866D01*
X127268328Y-108483342D02*
X127754042Y-108483342D01*
X127811185Y-108454771D01*
X127839757Y-108426200D01*
X127868328Y-108369057D01*
X127868328Y-108254771D01*
X127839757Y-108197628D01*
X127811185Y-108169057D01*
X127754042Y-108140485D01*
X127268328Y-108140485D01*
X127268328Y-107911914D02*
X127268328Y-107511914D01*
X127868328Y-107769057D01*
M02*
