G04 #@! TF.GenerationSoftware,KiCad,Pcbnew,(5.1.0)-1*
G04 #@! TF.CreationDate,2020-01-06T22:35:46-04:00*
G04 #@! TF.ProjectId,Main,4d61696e-2e6b-4696-9361-645f70636258,rev?*
G04 #@! TF.SameCoordinates,Original*
G04 #@! TF.FileFunction,Soldermask,Top*
G04 #@! TF.FilePolarity,Negative*
%FSLAX46Y46*%
G04 Gerber Fmt 4.6, Leading zero omitted, Abs format (unit mm)*
G04 Created by KiCad (PCBNEW (5.1.0)-1) date 2020-01-06 22:35:46*
%MOMM*%
%LPD*%
G04 APERTURE LIST*
%ADD10C,0.100000*%
G04 APERTURE END LIST*
D10*
G36*
X97898739Y-106825450D02*
G01*
X98088072Y-106903875D01*
X98221951Y-106959329D01*
X98512834Y-107153691D01*
X98760209Y-107401066D01*
X98954571Y-107691949D01*
X98977749Y-107747906D01*
X99088450Y-108015161D01*
X99156700Y-108358278D01*
X99156700Y-108708122D01*
X99088450Y-109051239D01*
X99058559Y-109123401D01*
X98954571Y-109374451D01*
X98760209Y-109665334D01*
X98512834Y-109912709D01*
X98221951Y-110107071D01*
X98088072Y-110162525D01*
X97898739Y-110240950D01*
X97555622Y-110309200D01*
X97205778Y-110309200D01*
X96862661Y-110240950D01*
X96673328Y-110162525D01*
X96539449Y-110107071D01*
X96248566Y-109912709D01*
X96001191Y-109665334D01*
X95806829Y-109374451D01*
X95702841Y-109123401D01*
X95672950Y-109051239D01*
X95604700Y-108708122D01*
X95604700Y-108358278D01*
X95672950Y-108015161D01*
X95783651Y-107747906D01*
X95806829Y-107691949D01*
X96001191Y-107401066D01*
X96248566Y-107153691D01*
X96539449Y-106959329D01*
X96673328Y-106903875D01*
X96862661Y-106825450D01*
X97205778Y-106757200D01*
X97555622Y-106757200D01*
X97898739Y-106825450D01*
X97898739Y-106825450D01*
G37*
G36*
X161274144Y-107335082D02*
G01*
X161500901Y-107429008D01*
X161500902Y-107429009D01*
X161704979Y-107565368D01*
X161878532Y-107738921D01*
X161968805Y-107874025D01*
X162014892Y-107942999D01*
X162108818Y-108169756D01*
X162156700Y-108410478D01*
X162156700Y-108655922D01*
X162108818Y-108896644D01*
X162014892Y-109123401D01*
X162014891Y-109123402D01*
X161878532Y-109327479D01*
X161704979Y-109501032D01*
X161568619Y-109592144D01*
X161500901Y-109637392D01*
X161274144Y-109731318D01*
X161033422Y-109779200D01*
X160787978Y-109779200D01*
X160547256Y-109731318D01*
X160320499Y-109637392D01*
X160252781Y-109592144D01*
X160116421Y-109501032D01*
X159942868Y-109327479D01*
X159806509Y-109123402D01*
X159806508Y-109123401D01*
X159712582Y-108896644D01*
X159664700Y-108655922D01*
X159664700Y-108410478D01*
X159712582Y-108169756D01*
X159806508Y-107942999D01*
X159852595Y-107874025D01*
X159942868Y-107738921D01*
X160116421Y-107565368D01*
X160320498Y-107429009D01*
X160320499Y-107429008D01*
X160547256Y-107335082D01*
X160787978Y-107287200D01*
X161033422Y-107287200D01*
X161274144Y-107335082D01*
X161274144Y-107335082D01*
G37*
G36*
X183866727Y-107429009D02*
G01*
X183955021Y-107437705D01*
X184091872Y-107479219D01*
X184091875Y-107479220D01*
X184217994Y-107546632D01*
X184328543Y-107637357D01*
X184419268Y-107747906D01*
X184486680Y-107874025D01*
X184486681Y-107874028D01*
X184528195Y-108010879D01*
X184542212Y-108153200D01*
X184528195Y-108295521D01*
X184493322Y-108410480D01*
X184486680Y-108432375D01*
X184419268Y-108558494D01*
X184328543Y-108669043D01*
X184217994Y-108759768D01*
X184091875Y-108827180D01*
X184091872Y-108827181D01*
X183955021Y-108868695D01*
X183883913Y-108875698D01*
X183848360Y-108879200D01*
X183777040Y-108879200D01*
X183741487Y-108875698D01*
X183670379Y-108868695D01*
X183533528Y-108827181D01*
X183533525Y-108827180D01*
X183407406Y-108759768D01*
X183296857Y-108669043D01*
X183206132Y-108558494D01*
X183138720Y-108432375D01*
X183132078Y-108410480D01*
X183097205Y-108295521D01*
X183083188Y-108153200D01*
X183097205Y-108010879D01*
X183138719Y-107874028D01*
X183138720Y-107874025D01*
X183206132Y-107747906D01*
X183296857Y-107637357D01*
X183407406Y-107546632D01*
X183533525Y-107479220D01*
X183533528Y-107479219D01*
X183670379Y-107437705D01*
X183758673Y-107429009D01*
X183777040Y-107427200D01*
X183848360Y-107427200D01*
X183866727Y-107429009D01*
X183866727Y-107429009D01*
G37*
G36*
X181866727Y-107429009D02*
G01*
X181955021Y-107437705D01*
X182091872Y-107479219D01*
X182091875Y-107479220D01*
X182217994Y-107546632D01*
X182328543Y-107637357D01*
X182419268Y-107747906D01*
X182486680Y-107874025D01*
X182486681Y-107874028D01*
X182528195Y-108010879D01*
X182542212Y-108153200D01*
X182528195Y-108295521D01*
X182493322Y-108410480D01*
X182486680Y-108432375D01*
X182419268Y-108558494D01*
X182328543Y-108669043D01*
X182217994Y-108759768D01*
X182091875Y-108827180D01*
X182091872Y-108827181D01*
X181955021Y-108868695D01*
X181883913Y-108875698D01*
X181848360Y-108879200D01*
X181777040Y-108879200D01*
X181741487Y-108875698D01*
X181670379Y-108868695D01*
X181533528Y-108827181D01*
X181533525Y-108827180D01*
X181407406Y-108759768D01*
X181296857Y-108669043D01*
X181206132Y-108558494D01*
X181138720Y-108432375D01*
X181132078Y-108410480D01*
X181097205Y-108295521D01*
X181083188Y-108153200D01*
X181097205Y-108010879D01*
X181138719Y-107874028D01*
X181138720Y-107874025D01*
X181206132Y-107747906D01*
X181296857Y-107637357D01*
X181407406Y-107546632D01*
X181533525Y-107479220D01*
X181533528Y-107479219D01*
X181670379Y-107437705D01*
X181758673Y-107429009D01*
X181777040Y-107427200D01*
X181848360Y-107427200D01*
X181866727Y-107429009D01*
X181866727Y-107429009D01*
G37*
G36*
X174538700Y-108879200D02*
G01*
X173086700Y-108879200D01*
X173086700Y-107427200D01*
X174538700Y-107427200D01*
X174538700Y-108879200D01*
X174538700Y-108879200D01*
G37*
G36*
X175866727Y-107429009D02*
G01*
X175955021Y-107437705D01*
X176091872Y-107479219D01*
X176091875Y-107479220D01*
X176217994Y-107546632D01*
X176328543Y-107637357D01*
X176419268Y-107747906D01*
X176486680Y-107874025D01*
X176486681Y-107874028D01*
X176528195Y-108010879D01*
X176542212Y-108153200D01*
X176528195Y-108295521D01*
X176493322Y-108410480D01*
X176486680Y-108432375D01*
X176419268Y-108558494D01*
X176328543Y-108669043D01*
X176217994Y-108759768D01*
X176091875Y-108827180D01*
X176091872Y-108827181D01*
X175955021Y-108868695D01*
X175883913Y-108875698D01*
X175848360Y-108879200D01*
X175777040Y-108879200D01*
X175741487Y-108875698D01*
X175670379Y-108868695D01*
X175533528Y-108827181D01*
X175533525Y-108827180D01*
X175407406Y-108759768D01*
X175296857Y-108669043D01*
X175206132Y-108558494D01*
X175138720Y-108432375D01*
X175132078Y-108410480D01*
X175097205Y-108295521D01*
X175083188Y-108153200D01*
X175097205Y-108010879D01*
X175138719Y-107874028D01*
X175138720Y-107874025D01*
X175206132Y-107747906D01*
X175296857Y-107637357D01*
X175407406Y-107546632D01*
X175533525Y-107479220D01*
X175533528Y-107479219D01*
X175670379Y-107437705D01*
X175758673Y-107429009D01*
X175777040Y-107427200D01*
X175848360Y-107427200D01*
X175866727Y-107429009D01*
X175866727Y-107429009D01*
G37*
G36*
X179866727Y-107429009D02*
G01*
X179955021Y-107437705D01*
X180091872Y-107479219D01*
X180091875Y-107479220D01*
X180217994Y-107546632D01*
X180328543Y-107637357D01*
X180419268Y-107747906D01*
X180486680Y-107874025D01*
X180486681Y-107874028D01*
X180528195Y-108010879D01*
X180542212Y-108153200D01*
X180528195Y-108295521D01*
X180493322Y-108410480D01*
X180486680Y-108432375D01*
X180419268Y-108558494D01*
X180328543Y-108669043D01*
X180217994Y-108759768D01*
X180091875Y-108827180D01*
X180091872Y-108827181D01*
X179955021Y-108868695D01*
X179883913Y-108875698D01*
X179848360Y-108879200D01*
X179777040Y-108879200D01*
X179741487Y-108875698D01*
X179670379Y-108868695D01*
X179533528Y-108827181D01*
X179533525Y-108827180D01*
X179407406Y-108759768D01*
X179296857Y-108669043D01*
X179206132Y-108558494D01*
X179138720Y-108432375D01*
X179132078Y-108410480D01*
X179097205Y-108295521D01*
X179083188Y-108153200D01*
X179097205Y-108010879D01*
X179138719Y-107874028D01*
X179138720Y-107874025D01*
X179206132Y-107747906D01*
X179296857Y-107637357D01*
X179407406Y-107546632D01*
X179533525Y-107479220D01*
X179533528Y-107479219D01*
X179670379Y-107437705D01*
X179758673Y-107429009D01*
X179777040Y-107427200D01*
X179848360Y-107427200D01*
X179866727Y-107429009D01*
X179866727Y-107429009D01*
G37*
G36*
X177866727Y-107429009D02*
G01*
X177955021Y-107437705D01*
X178091872Y-107479219D01*
X178091875Y-107479220D01*
X178217994Y-107546632D01*
X178328543Y-107637357D01*
X178419268Y-107747906D01*
X178486680Y-107874025D01*
X178486681Y-107874028D01*
X178528195Y-108010879D01*
X178542212Y-108153200D01*
X178528195Y-108295521D01*
X178493322Y-108410480D01*
X178486680Y-108432375D01*
X178419268Y-108558494D01*
X178328543Y-108669043D01*
X178217994Y-108759768D01*
X178091875Y-108827180D01*
X178091872Y-108827181D01*
X177955021Y-108868695D01*
X177883913Y-108875698D01*
X177848360Y-108879200D01*
X177777040Y-108879200D01*
X177741487Y-108875698D01*
X177670379Y-108868695D01*
X177533528Y-108827181D01*
X177533525Y-108827180D01*
X177407406Y-108759768D01*
X177296857Y-108669043D01*
X177206132Y-108558494D01*
X177138720Y-108432375D01*
X177132078Y-108410480D01*
X177097205Y-108295521D01*
X177083188Y-108153200D01*
X177097205Y-108010879D01*
X177138719Y-107874028D01*
X177138720Y-107874025D01*
X177206132Y-107747906D01*
X177296857Y-107637357D01*
X177407406Y-107546632D01*
X177533525Y-107479220D01*
X177533528Y-107479219D01*
X177670379Y-107437705D01*
X177758673Y-107429009D01*
X177777040Y-107427200D01*
X177848360Y-107427200D01*
X177866727Y-107429009D01*
X177866727Y-107429009D01*
G37*
G36*
X179043498Y-103875447D02*
G01*
X179079067Y-103886237D01*
X179111839Y-103903754D01*
X179143360Y-103929622D01*
X179163734Y-103943236D01*
X179186373Y-103952613D01*
X179210407Y-103957393D01*
X179234911Y-103957393D01*
X179258944Y-103952612D01*
X179281583Y-103943235D01*
X179301956Y-103929622D01*
X179306370Y-103926000D01*
X179310671Y-103923701D01*
X179315345Y-103922283D01*
X179326341Y-103921200D01*
X180190059Y-103921200D01*
X180201055Y-103922283D01*
X180205729Y-103923701D01*
X180210031Y-103926000D01*
X180213804Y-103929096D01*
X180216900Y-103932869D01*
X180219199Y-103937171D01*
X180220617Y-103941845D01*
X180221700Y-103952841D01*
X180221700Y-104241559D01*
X180220617Y-104252555D01*
X180219199Y-104257229D01*
X180216900Y-104261530D01*
X180211671Y-104267902D01*
X180198057Y-104288276D01*
X180188680Y-104310915D01*
X180183900Y-104334949D01*
X180183900Y-104359453D01*
X180188681Y-104383486D01*
X180198058Y-104406125D01*
X180211671Y-104426498D01*
X180216900Y-104432870D01*
X180219199Y-104437171D01*
X180220617Y-104441845D01*
X180221700Y-104452841D01*
X180221700Y-104741559D01*
X180220617Y-104752555D01*
X180219199Y-104757229D01*
X180216900Y-104761530D01*
X180211671Y-104767902D01*
X180198057Y-104788276D01*
X180188680Y-104810915D01*
X180183900Y-104834949D01*
X180183900Y-104859453D01*
X180188681Y-104883486D01*
X180198058Y-104906125D01*
X180211671Y-104926498D01*
X180216900Y-104932870D01*
X180219199Y-104937171D01*
X180220617Y-104941845D01*
X180221700Y-104952841D01*
X180221700Y-105241559D01*
X180220617Y-105252555D01*
X180219199Y-105257229D01*
X180216900Y-105261531D01*
X180213804Y-105265304D01*
X180210031Y-105268400D01*
X180205729Y-105270699D01*
X180201055Y-105272117D01*
X180190059Y-105273200D01*
X179326341Y-105273200D01*
X179315345Y-105272117D01*
X179310671Y-105270699D01*
X179306370Y-105268400D01*
X179301956Y-105264778D01*
X179281581Y-105251164D01*
X179258942Y-105241787D01*
X179234909Y-105237007D01*
X179210405Y-105237007D01*
X179186372Y-105241788D01*
X179163733Y-105251165D01*
X179143360Y-105264778D01*
X179111839Y-105290646D01*
X179079067Y-105308163D01*
X179043498Y-105318953D01*
X179000375Y-105323200D01*
X177641025Y-105323200D01*
X177597902Y-105318953D01*
X177562333Y-105308163D01*
X177529561Y-105290646D01*
X177498040Y-105264778D01*
X177477666Y-105251164D01*
X177455027Y-105241787D01*
X177430993Y-105237007D01*
X177406489Y-105237007D01*
X177382456Y-105241788D01*
X177359817Y-105251165D01*
X177339444Y-105264778D01*
X177335030Y-105268400D01*
X177330729Y-105270699D01*
X177326055Y-105272117D01*
X177315059Y-105273200D01*
X176451341Y-105273200D01*
X176440345Y-105272117D01*
X176435671Y-105270699D01*
X176431369Y-105268400D01*
X176427596Y-105265304D01*
X176424500Y-105261531D01*
X176422201Y-105257229D01*
X176420783Y-105252555D01*
X176419700Y-105241559D01*
X176419700Y-104952841D01*
X176420783Y-104941845D01*
X176422201Y-104937171D01*
X176424500Y-104932870D01*
X176429729Y-104926498D01*
X176443343Y-104906124D01*
X176452720Y-104883485D01*
X176457500Y-104859451D01*
X176457500Y-104834947D01*
X176452719Y-104810914D01*
X176443342Y-104788275D01*
X176429729Y-104767902D01*
X176424500Y-104761530D01*
X176422201Y-104757229D01*
X176420783Y-104752555D01*
X176419700Y-104741559D01*
X176419700Y-104452841D01*
X176420783Y-104441845D01*
X176422201Y-104437171D01*
X176424500Y-104432870D01*
X176429729Y-104426498D01*
X176443343Y-104406124D01*
X176452720Y-104383485D01*
X176457500Y-104359451D01*
X176457500Y-104334947D01*
X176452719Y-104310914D01*
X176443342Y-104288275D01*
X176429729Y-104267902D01*
X176424500Y-104261530D01*
X176422201Y-104257229D01*
X176420783Y-104252555D01*
X176419700Y-104241559D01*
X176419700Y-103952841D01*
X176420783Y-103941845D01*
X176422201Y-103937171D01*
X176424500Y-103932869D01*
X176427596Y-103929096D01*
X176431369Y-103926000D01*
X176435671Y-103923701D01*
X176440345Y-103922283D01*
X176451341Y-103921200D01*
X177315059Y-103921200D01*
X177326055Y-103922283D01*
X177330729Y-103923701D01*
X177335030Y-103926000D01*
X177339444Y-103929622D01*
X177359819Y-103943236D01*
X177382458Y-103952613D01*
X177406491Y-103957393D01*
X177430995Y-103957393D01*
X177455028Y-103952612D01*
X177477667Y-103943235D01*
X177498040Y-103929622D01*
X177529561Y-103903754D01*
X177562333Y-103886237D01*
X177597902Y-103875447D01*
X177641025Y-103871200D01*
X179000375Y-103871200D01*
X179043498Y-103875447D01*
X179043498Y-103875447D01*
G37*
G36*
X174016262Y-102821881D02*
G01*
X174051181Y-102832474D01*
X174083363Y-102849676D01*
X174111573Y-102872827D01*
X174134724Y-102901037D01*
X174151926Y-102933219D01*
X174162519Y-102968138D01*
X174166700Y-103010595D01*
X174166700Y-104151805D01*
X174162519Y-104194262D01*
X174151926Y-104229181D01*
X174134724Y-104261363D01*
X174111573Y-104289573D01*
X174083363Y-104312724D01*
X174051181Y-104329926D01*
X174016262Y-104340519D01*
X173973805Y-104344700D01*
X172507595Y-104344700D01*
X172465138Y-104340519D01*
X172430219Y-104329926D01*
X172398037Y-104312724D01*
X172369827Y-104289573D01*
X172346676Y-104261363D01*
X172329474Y-104229181D01*
X172318881Y-104194262D01*
X172314700Y-104151805D01*
X172314700Y-103010595D01*
X172318881Y-102968138D01*
X172329474Y-102933219D01*
X172346676Y-102901037D01*
X172369827Y-102872827D01*
X172398037Y-102849676D01*
X172430219Y-102832474D01*
X172465138Y-102821881D01*
X172507595Y-102817700D01*
X173973805Y-102817700D01*
X174016262Y-102821881D01*
X174016262Y-102821881D01*
G37*
G36*
X168031700Y-103759200D02*
G01*
X160589700Y-103759200D01*
X160589700Y-97307200D01*
X168031700Y-97307200D01*
X168031700Y-103759200D01*
X168031700Y-103759200D01*
G37*
G36*
X89371700Y-103759200D02*
G01*
X81929700Y-103759200D01*
X81929700Y-97307200D01*
X89371700Y-97307200D01*
X89371700Y-103759200D01*
X89371700Y-103759200D01*
G37*
G36*
X179695968Y-101615565D02*
G01*
X179734638Y-101627296D01*
X179770277Y-101646346D01*
X179801517Y-101671983D01*
X179827154Y-101703223D01*
X179846204Y-101738862D01*
X179857935Y-101777532D01*
X179862500Y-101823888D01*
X179862500Y-102900112D01*
X179857935Y-102946468D01*
X179846204Y-102985138D01*
X179827154Y-103020777D01*
X179801517Y-103052017D01*
X179770277Y-103077654D01*
X179734638Y-103096704D01*
X179695968Y-103108435D01*
X179649612Y-103113000D01*
X178998388Y-103113000D01*
X178952032Y-103108435D01*
X178913362Y-103096704D01*
X178877723Y-103077654D01*
X178846483Y-103052017D01*
X178820846Y-103020777D01*
X178801796Y-102985138D01*
X178790065Y-102946468D01*
X178785500Y-102900112D01*
X178785500Y-101823888D01*
X178790065Y-101777532D01*
X178801796Y-101738862D01*
X178820846Y-101703223D01*
X178846483Y-101671983D01*
X178877723Y-101646346D01*
X178913362Y-101627296D01*
X178952032Y-101615565D01*
X178998388Y-101611000D01*
X179649612Y-101611000D01*
X179695968Y-101615565D01*
X179695968Y-101615565D01*
G37*
G36*
X177820968Y-101615565D02*
G01*
X177859638Y-101627296D01*
X177895277Y-101646346D01*
X177926517Y-101671983D01*
X177952154Y-101703223D01*
X177971204Y-101738862D01*
X177982935Y-101777532D01*
X177987500Y-101823888D01*
X177987500Y-102900112D01*
X177982935Y-102946468D01*
X177971204Y-102985138D01*
X177952154Y-103020777D01*
X177926517Y-103052017D01*
X177895277Y-103077654D01*
X177859638Y-103096704D01*
X177820968Y-103108435D01*
X177774612Y-103113000D01*
X177123388Y-103113000D01*
X177077032Y-103108435D01*
X177038362Y-103096704D01*
X177002723Y-103077654D01*
X176971483Y-103052017D01*
X176945846Y-103020777D01*
X176926796Y-102985138D01*
X176915065Y-102946468D01*
X176910500Y-102900112D01*
X176910500Y-101823888D01*
X176915065Y-101777532D01*
X176926796Y-101738862D01*
X176945846Y-101703223D01*
X176971483Y-101671983D01*
X177002723Y-101646346D01*
X177038362Y-101627296D01*
X177077032Y-101615565D01*
X177123388Y-101611000D01*
X177774612Y-101611000D01*
X177820968Y-101615565D01*
X177820968Y-101615565D01*
G37*
G36*
X174016262Y-99846881D02*
G01*
X174051181Y-99857474D01*
X174083363Y-99874676D01*
X174111573Y-99897827D01*
X174134724Y-99926037D01*
X174151926Y-99958219D01*
X174162519Y-99993138D01*
X174166700Y-100035595D01*
X174166700Y-101176805D01*
X174162519Y-101219262D01*
X174151926Y-101254181D01*
X174134724Y-101286363D01*
X174111573Y-101314573D01*
X174083363Y-101337724D01*
X174051181Y-101354926D01*
X174016262Y-101365519D01*
X173973805Y-101369700D01*
X172507595Y-101369700D01*
X172465138Y-101365519D01*
X172430219Y-101354926D01*
X172398037Y-101337724D01*
X172369827Y-101314573D01*
X172346676Y-101286363D01*
X172329474Y-101254181D01*
X172318881Y-101219262D01*
X172314700Y-101176805D01*
X172314700Y-100035595D01*
X172318881Y-99993138D01*
X172329474Y-99958219D01*
X172346676Y-99926037D01*
X172369827Y-99897827D01*
X172398037Y-99874676D01*
X172430219Y-99857474D01*
X172465138Y-99846881D01*
X172507595Y-99842700D01*
X173973805Y-99842700D01*
X174016262Y-99846881D01*
X174016262Y-99846881D01*
G37*
G36*
X195784062Y-94631981D02*
G01*
X195818981Y-94642574D01*
X195851163Y-94659776D01*
X195879373Y-94682927D01*
X195902524Y-94711137D01*
X195919726Y-94743319D01*
X195930319Y-94778238D01*
X195934500Y-94820695D01*
X195934500Y-95961905D01*
X195930319Y-96004362D01*
X195919726Y-96039281D01*
X195902524Y-96071463D01*
X195879373Y-96099673D01*
X195851163Y-96122824D01*
X195818981Y-96140026D01*
X195784062Y-96150619D01*
X195741605Y-96154800D01*
X194275395Y-96154800D01*
X194232938Y-96150619D01*
X194198019Y-96140026D01*
X194165837Y-96122824D01*
X194137627Y-96099673D01*
X194114476Y-96071463D01*
X194097274Y-96039281D01*
X194086681Y-96004362D01*
X194082500Y-95961905D01*
X194082500Y-94820695D01*
X194086681Y-94778238D01*
X194097274Y-94743319D01*
X194114476Y-94711137D01*
X194137627Y-94682927D01*
X194165837Y-94659776D01*
X194198019Y-94642574D01*
X194232938Y-94631981D01*
X194275395Y-94627800D01*
X195741605Y-94627800D01*
X195784062Y-94631981D01*
X195784062Y-94631981D01*
G37*
G36*
X198273262Y-94593381D02*
G01*
X198308181Y-94603974D01*
X198340363Y-94621176D01*
X198368573Y-94644327D01*
X198391724Y-94672537D01*
X198408926Y-94704719D01*
X198419519Y-94739638D01*
X198423700Y-94782095D01*
X198423700Y-95923305D01*
X198419519Y-95965762D01*
X198408926Y-96000681D01*
X198391724Y-96032863D01*
X198368573Y-96061073D01*
X198340363Y-96084224D01*
X198308181Y-96101426D01*
X198273262Y-96112019D01*
X198230805Y-96116200D01*
X196764595Y-96116200D01*
X196722138Y-96112019D01*
X196687219Y-96101426D01*
X196655037Y-96084224D01*
X196626827Y-96061073D01*
X196603676Y-96032863D01*
X196586474Y-96000681D01*
X196575881Y-95965762D01*
X196571700Y-95923305D01*
X196571700Y-94782095D01*
X196575881Y-94739638D01*
X196586474Y-94704719D01*
X196603676Y-94672537D01*
X196626827Y-94644327D01*
X196655037Y-94621176D01*
X196687219Y-94603974D01*
X196722138Y-94593381D01*
X196764595Y-94589200D01*
X198230805Y-94589200D01*
X198273262Y-94593381D01*
X198273262Y-94593381D01*
G37*
G36*
X185192262Y-94593381D02*
G01*
X185227181Y-94603974D01*
X185259363Y-94621176D01*
X185287573Y-94644327D01*
X185310724Y-94672537D01*
X185327926Y-94704719D01*
X185338519Y-94739638D01*
X185342700Y-94782095D01*
X185342700Y-95923305D01*
X185338519Y-95965762D01*
X185327926Y-96000681D01*
X185310724Y-96032863D01*
X185287573Y-96061073D01*
X185259363Y-96084224D01*
X185227181Y-96101426D01*
X185192262Y-96112019D01*
X185149805Y-96116200D01*
X183683595Y-96116200D01*
X183641138Y-96112019D01*
X183606219Y-96101426D01*
X183574037Y-96084224D01*
X183545827Y-96061073D01*
X183522676Y-96032863D01*
X183505474Y-96000681D01*
X183494881Y-95965762D01*
X183490700Y-95923305D01*
X183490700Y-94782095D01*
X183494881Y-94739638D01*
X183505474Y-94704719D01*
X183522676Y-94672537D01*
X183545827Y-94644327D01*
X183574037Y-94621176D01*
X183606219Y-94603974D01*
X183641138Y-94593381D01*
X183683595Y-94589200D01*
X185149805Y-94589200D01*
X185192262Y-94593381D01*
X185192262Y-94593381D01*
G37*
G36*
X190526262Y-94593381D02*
G01*
X190561181Y-94603974D01*
X190593363Y-94621176D01*
X190621573Y-94644327D01*
X190644724Y-94672537D01*
X190661926Y-94704719D01*
X190672519Y-94739638D01*
X190676700Y-94782095D01*
X190676700Y-95923305D01*
X190672519Y-95965762D01*
X190661926Y-96000681D01*
X190644724Y-96032863D01*
X190621573Y-96061073D01*
X190593363Y-96084224D01*
X190561181Y-96101426D01*
X190526262Y-96112019D01*
X190483805Y-96116200D01*
X189017595Y-96116200D01*
X188975138Y-96112019D01*
X188940219Y-96101426D01*
X188908037Y-96084224D01*
X188879827Y-96061073D01*
X188856676Y-96032863D01*
X188839474Y-96000681D01*
X188828881Y-95965762D01*
X188824700Y-95923305D01*
X188824700Y-94782095D01*
X188828881Y-94739638D01*
X188839474Y-94704719D01*
X188856676Y-94672537D01*
X188879827Y-94644327D01*
X188908037Y-94621176D01*
X188940219Y-94603974D01*
X188975138Y-94593381D01*
X189017595Y-94589200D01*
X190483805Y-94589200D01*
X190526262Y-94593381D01*
X190526262Y-94593381D01*
G37*
G36*
X200844262Y-94593381D02*
G01*
X200879181Y-94603974D01*
X200911363Y-94621176D01*
X200939573Y-94644327D01*
X200962724Y-94672537D01*
X200979926Y-94704719D01*
X200990519Y-94739638D01*
X200994700Y-94782095D01*
X200994700Y-95923305D01*
X200990519Y-95965762D01*
X200979926Y-96000681D01*
X200962724Y-96032863D01*
X200939573Y-96061073D01*
X200911363Y-96084224D01*
X200879181Y-96101426D01*
X200844262Y-96112019D01*
X200801805Y-96116200D01*
X199335595Y-96116200D01*
X199293138Y-96112019D01*
X199258219Y-96101426D01*
X199226037Y-96084224D01*
X199197827Y-96061073D01*
X199174676Y-96032863D01*
X199157474Y-96000681D01*
X199146881Y-95965762D01*
X199142700Y-95923305D01*
X199142700Y-94782095D01*
X199146881Y-94739638D01*
X199157474Y-94704719D01*
X199174676Y-94672537D01*
X199197827Y-94644327D01*
X199226037Y-94621176D01*
X199258219Y-94603974D01*
X199293138Y-94593381D01*
X199335595Y-94589200D01*
X200801805Y-94589200D01*
X200844262Y-94593381D01*
X200844262Y-94593381D01*
G37*
G36*
X203365962Y-94593381D02*
G01*
X203400881Y-94603974D01*
X203433063Y-94621176D01*
X203461273Y-94644327D01*
X203484424Y-94672537D01*
X203501626Y-94704719D01*
X203512219Y-94739638D01*
X203516400Y-94782095D01*
X203516400Y-95923305D01*
X203512219Y-95965762D01*
X203501626Y-96000681D01*
X203484424Y-96032863D01*
X203461273Y-96061073D01*
X203433063Y-96084224D01*
X203400881Y-96101426D01*
X203365962Y-96112019D01*
X203323505Y-96116200D01*
X201857295Y-96116200D01*
X201814838Y-96112019D01*
X201779919Y-96101426D01*
X201747737Y-96084224D01*
X201719527Y-96061073D01*
X201696376Y-96032863D01*
X201679174Y-96000681D01*
X201668581Y-95965762D01*
X201664400Y-95923305D01*
X201664400Y-94782095D01*
X201668581Y-94739638D01*
X201679174Y-94704719D01*
X201696376Y-94672537D01*
X201719527Y-94644327D01*
X201747737Y-94621176D01*
X201779919Y-94603974D01*
X201814838Y-94593381D01*
X201857295Y-94589200D01*
X203323505Y-94589200D01*
X203365962Y-94593381D01*
X203365962Y-94593381D01*
G37*
G36*
X193320262Y-94593381D02*
G01*
X193355181Y-94603974D01*
X193387363Y-94621176D01*
X193415573Y-94644327D01*
X193438724Y-94672537D01*
X193455926Y-94704719D01*
X193466519Y-94739638D01*
X193470700Y-94782095D01*
X193470700Y-95923305D01*
X193466519Y-95965762D01*
X193455926Y-96000681D01*
X193438724Y-96032863D01*
X193415573Y-96061073D01*
X193387363Y-96084224D01*
X193355181Y-96101426D01*
X193320262Y-96112019D01*
X193277805Y-96116200D01*
X191811595Y-96116200D01*
X191769138Y-96112019D01*
X191734219Y-96101426D01*
X191702037Y-96084224D01*
X191673827Y-96061073D01*
X191650676Y-96032863D01*
X191633474Y-96000681D01*
X191622881Y-95965762D01*
X191618700Y-95923305D01*
X191618700Y-94782095D01*
X191622881Y-94739638D01*
X191633474Y-94704719D01*
X191650676Y-94672537D01*
X191673827Y-94644327D01*
X191702037Y-94621176D01*
X191734219Y-94603974D01*
X191769138Y-94593381D01*
X191811595Y-94589200D01*
X193277805Y-94589200D01*
X193320262Y-94593381D01*
X193320262Y-94593381D01*
G37*
G36*
X187859262Y-94593381D02*
G01*
X187894181Y-94603974D01*
X187926363Y-94621176D01*
X187954573Y-94644327D01*
X187977724Y-94672537D01*
X187994926Y-94704719D01*
X188005519Y-94739638D01*
X188009700Y-94782095D01*
X188009700Y-95923305D01*
X188005519Y-95965762D01*
X187994926Y-96000681D01*
X187977724Y-96032863D01*
X187954573Y-96061073D01*
X187926363Y-96084224D01*
X187894181Y-96101426D01*
X187859262Y-96112019D01*
X187816805Y-96116200D01*
X186350595Y-96116200D01*
X186308138Y-96112019D01*
X186273219Y-96101426D01*
X186241037Y-96084224D01*
X186212827Y-96061073D01*
X186189676Y-96032863D01*
X186172474Y-96000681D01*
X186161881Y-95965762D01*
X186157700Y-95923305D01*
X186157700Y-94782095D01*
X186161881Y-94739638D01*
X186172474Y-94704719D01*
X186189676Y-94672537D01*
X186212827Y-94644327D01*
X186241037Y-94621176D01*
X186273219Y-94603974D01*
X186308138Y-94593381D01*
X186350595Y-94589200D01*
X187816805Y-94589200D01*
X187859262Y-94593381D01*
X187859262Y-94593381D01*
G37*
G36*
X206020262Y-94587201D02*
G01*
X206055181Y-94597794D01*
X206087363Y-94614996D01*
X206115573Y-94638147D01*
X206138724Y-94666357D01*
X206155926Y-94698539D01*
X206166519Y-94733458D01*
X206170700Y-94775915D01*
X206170700Y-95917125D01*
X206166519Y-95959582D01*
X206155926Y-95994501D01*
X206138724Y-96026683D01*
X206115573Y-96054893D01*
X206087363Y-96078044D01*
X206055181Y-96095246D01*
X206020262Y-96105839D01*
X205977805Y-96110020D01*
X204511595Y-96110020D01*
X204469138Y-96105839D01*
X204434219Y-96095246D01*
X204402037Y-96078044D01*
X204373827Y-96054893D01*
X204350676Y-96026683D01*
X204333474Y-95994501D01*
X204322881Y-95959582D01*
X204318700Y-95917125D01*
X204318700Y-94775915D01*
X204322881Y-94733458D01*
X204333474Y-94698539D01*
X204350676Y-94666357D01*
X204373827Y-94638147D01*
X204402037Y-94614996D01*
X204434219Y-94597794D01*
X204469138Y-94587201D01*
X204511595Y-94583020D01*
X205977805Y-94583020D01*
X206020262Y-94587201D01*
X206020262Y-94587201D01*
G37*
G36*
X180669500Y-95770000D02*
G01*
X178867500Y-95770000D01*
X178867500Y-93968000D01*
X180669500Y-93968000D01*
X180669500Y-95770000D01*
X180669500Y-95770000D01*
G37*
G36*
X168906143Y-92590219D02*
G01*
X168972327Y-92596737D01*
X169142166Y-92648257D01*
X169298691Y-92731922D01*
X169334429Y-92761252D01*
X169435886Y-92844514D01*
X169497333Y-92919389D01*
X169548478Y-92981709D01*
X169548479Y-92981711D01*
X169625832Y-93126426D01*
X169632143Y-93138234D01*
X169683663Y-93308073D01*
X169701059Y-93484700D01*
X169683663Y-93661327D01*
X169632143Y-93831166D01*
X169548478Y-93987691D01*
X169519148Y-94023429D01*
X169435886Y-94124886D01*
X169334429Y-94208148D01*
X169298691Y-94237478D01*
X169142166Y-94321143D01*
X168972327Y-94372663D01*
X168906142Y-94379182D01*
X168839960Y-94385700D01*
X168751440Y-94385700D01*
X168685258Y-94379182D01*
X168619073Y-94372663D01*
X168449234Y-94321143D01*
X168292709Y-94237478D01*
X168256971Y-94208148D01*
X168155514Y-94124886D01*
X168072252Y-94023429D01*
X168042922Y-93987691D01*
X167959257Y-93831166D01*
X167907737Y-93661327D01*
X167890341Y-93484700D01*
X167907737Y-93308073D01*
X167959257Y-93138234D01*
X167965569Y-93126426D01*
X168042921Y-92981711D01*
X168042922Y-92981709D01*
X168094067Y-92919389D01*
X168155514Y-92844514D01*
X168256971Y-92761252D01*
X168292709Y-92731922D01*
X168449234Y-92648257D01*
X168619073Y-92596737D01*
X168685258Y-92590218D01*
X168751440Y-92583700D01*
X168839960Y-92583700D01*
X168906143Y-92590219D01*
X168906143Y-92590219D01*
G37*
G36*
X153098739Y-90825450D02*
G01*
X153288072Y-90903875D01*
X153421951Y-90959329D01*
X153712834Y-91153691D01*
X153960209Y-91401066D01*
X154154571Y-91691949D01*
X154188307Y-91773396D01*
X154288450Y-92015161D01*
X154356700Y-92358278D01*
X154356700Y-92708122D01*
X154288450Y-93051239D01*
X154214404Y-93230000D01*
X154154571Y-93374451D01*
X153960209Y-93665334D01*
X153712834Y-93912709D01*
X153421951Y-94107071D01*
X153288072Y-94162525D01*
X153098739Y-94240950D01*
X152755622Y-94309200D01*
X152405778Y-94309200D01*
X152062661Y-94240950D01*
X151873328Y-94162525D01*
X151739449Y-94107071D01*
X151448566Y-93912709D01*
X151201191Y-93665334D01*
X151006829Y-93374451D01*
X150946996Y-93230000D01*
X150872950Y-93051239D01*
X150804700Y-92708122D01*
X150804700Y-92358278D01*
X150872950Y-92015161D01*
X150973093Y-91773396D01*
X151006829Y-91691949D01*
X151201191Y-91401066D01*
X151448566Y-91153691D01*
X151739449Y-90959329D01*
X151873328Y-90903875D01*
X152062661Y-90825450D01*
X152405778Y-90757200D01*
X152755622Y-90757200D01*
X153098739Y-90825450D01*
X153098739Y-90825450D01*
G37*
G36*
X179878943Y-91434519D02*
G01*
X179945127Y-91441037D01*
X180114966Y-91492557D01*
X180271491Y-91576222D01*
X180307229Y-91605552D01*
X180408686Y-91688814D01*
X180483171Y-91779576D01*
X180521278Y-91826009D01*
X180604943Y-91982534D01*
X180656463Y-92152373D01*
X180673859Y-92329000D01*
X180656463Y-92505627D01*
X180604943Y-92675466D01*
X180521278Y-92831991D01*
X180492444Y-92867125D01*
X180408686Y-92969186D01*
X180335360Y-93029362D01*
X180271491Y-93081778D01*
X180114966Y-93165443D01*
X179945127Y-93216963D01*
X179878943Y-93223481D01*
X179812760Y-93230000D01*
X179724240Y-93230000D01*
X179658057Y-93223481D01*
X179591873Y-93216963D01*
X179422034Y-93165443D01*
X179265509Y-93081778D01*
X179201640Y-93029362D01*
X179128314Y-92969186D01*
X179044556Y-92867125D01*
X179015722Y-92831991D01*
X178932057Y-92675466D01*
X178880537Y-92505627D01*
X178863141Y-92329000D01*
X178880537Y-92152373D01*
X178932057Y-91982534D01*
X179015722Y-91826009D01*
X179053829Y-91779576D01*
X179128314Y-91688814D01*
X179229771Y-91605552D01*
X179265509Y-91576222D01*
X179422034Y-91492557D01*
X179591873Y-91441037D01*
X179658058Y-91434518D01*
X179724240Y-91428000D01*
X179812760Y-91428000D01*
X179878943Y-91434519D01*
X179878943Y-91434519D01*
G37*
G36*
X195784062Y-91656981D02*
G01*
X195818981Y-91667574D01*
X195851163Y-91684776D01*
X195879373Y-91707927D01*
X195902524Y-91736137D01*
X195919726Y-91768319D01*
X195930319Y-91803238D01*
X195934500Y-91845695D01*
X195934500Y-92986905D01*
X195930319Y-93029362D01*
X195919726Y-93064281D01*
X195902524Y-93096463D01*
X195879373Y-93124673D01*
X195851163Y-93147824D01*
X195818981Y-93165026D01*
X195784062Y-93175619D01*
X195741605Y-93179800D01*
X194275395Y-93179800D01*
X194232938Y-93175619D01*
X194198019Y-93165026D01*
X194165837Y-93147824D01*
X194137627Y-93124673D01*
X194114476Y-93096463D01*
X194097274Y-93064281D01*
X194086681Y-93029362D01*
X194082500Y-92986905D01*
X194082500Y-91845695D01*
X194086681Y-91803238D01*
X194097274Y-91768319D01*
X194114476Y-91736137D01*
X194137627Y-91707927D01*
X194165837Y-91684776D01*
X194198019Y-91667574D01*
X194232938Y-91656981D01*
X194275395Y-91652800D01*
X195741605Y-91652800D01*
X195784062Y-91656981D01*
X195784062Y-91656981D01*
G37*
G36*
X190526262Y-91618381D02*
G01*
X190561181Y-91628974D01*
X190593363Y-91646176D01*
X190621573Y-91669327D01*
X190644724Y-91697537D01*
X190661926Y-91729719D01*
X190672519Y-91764638D01*
X190676700Y-91807095D01*
X190676700Y-92948305D01*
X190672519Y-92990762D01*
X190661926Y-93025681D01*
X190644724Y-93057863D01*
X190621573Y-93086073D01*
X190593363Y-93109224D01*
X190561181Y-93126426D01*
X190526262Y-93137019D01*
X190483805Y-93141200D01*
X189017595Y-93141200D01*
X188975138Y-93137019D01*
X188940219Y-93126426D01*
X188908037Y-93109224D01*
X188879827Y-93086073D01*
X188856676Y-93057863D01*
X188839474Y-93025681D01*
X188828881Y-92990762D01*
X188824700Y-92948305D01*
X188824700Y-91807095D01*
X188828881Y-91764638D01*
X188839474Y-91729719D01*
X188856676Y-91697537D01*
X188879827Y-91669327D01*
X188908037Y-91646176D01*
X188940219Y-91628974D01*
X188975138Y-91618381D01*
X189017595Y-91614200D01*
X190483805Y-91614200D01*
X190526262Y-91618381D01*
X190526262Y-91618381D01*
G37*
G36*
X187859262Y-91618381D02*
G01*
X187894181Y-91628974D01*
X187926363Y-91646176D01*
X187954573Y-91669327D01*
X187977724Y-91697537D01*
X187994926Y-91729719D01*
X188005519Y-91764638D01*
X188009700Y-91807095D01*
X188009700Y-92948305D01*
X188005519Y-92990762D01*
X187994926Y-93025681D01*
X187977724Y-93057863D01*
X187954573Y-93086073D01*
X187926363Y-93109224D01*
X187894181Y-93126426D01*
X187859262Y-93137019D01*
X187816805Y-93141200D01*
X186350595Y-93141200D01*
X186308138Y-93137019D01*
X186273219Y-93126426D01*
X186241037Y-93109224D01*
X186212827Y-93086073D01*
X186189676Y-93057863D01*
X186172474Y-93025681D01*
X186161881Y-92990762D01*
X186157700Y-92948305D01*
X186157700Y-91807095D01*
X186161881Y-91764638D01*
X186172474Y-91729719D01*
X186189676Y-91697537D01*
X186212827Y-91669327D01*
X186241037Y-91646176D01*
X186273219Y-91628974D01*
X186308138Y-91618381D01*
X186350595Y-91614200D01*
X187816805Y-91614200D01*
X187859262Y-91618381D01*
X187859262Y-91618381D01*
G37*
G36*
X200844262Y-91618381D02*
G01*
X200879181Y-91628974D01*
X200911363Y-91646176D01*
X200939573Y-91669327D01*
X200962724Y-91697537D01*
X200979926Y-91729719D01*
X200990519Y-91764638D01*
X200994700Y-91807095D01*
X200994700Y-92948305D01*
X200990519Y-92990762D01*
X200979926Y-93025681D01*
X200962724Y-93057863D01*
X200939573Y-93086073D01*
X200911363Y-93109224D01*
X200879181Y-93126426D01*
X200844262Y-93137019D01*
X200801805Y-93141200D01*
X199335595Y-93141200D01*
X199293138Y-93137019D01*
X199258219Y-93126426D01*
X199226037Y-93109224D01*
X199197827Y-93086073D01*
X199174676Y-93057863D01*
X199157474Y-93025681D01*
X199146881Y-92990762D01*
X199142700Y-92948305D01*
X199142700Y-91807095D01*
X199146881Y-91764638D01*
X199157474Y-91729719D01*
X199174676Y-91697537D01*
X199197827Y-91669327D01*
X199226037Y-91646176D01*
X199258219Y-91628974D01*
X199293138Y-91618381D01*
X199335595Y-91614200D01*
X200801805Y-91614200D01*
X200844262Y-91618381D01*
X200844262Y-91618381D01*
G37*
G36*
X185192262Y-91618381D02*
G01*
X185227181Y-91628974D01*
X185259363Y-91646176D01*
X185287573Y-91669327D01*
X185310724Y-91697537D01*
X185327926Y-91729719D01*
X185338519Y-91764638D01*
X185342700Y-91807095D01*
X185342700Y-92948305D01*
X185338519Y-92990762D01*
X185327926Y-93025681D01*
X185310724Y-93057863D01*
X185287573Y-93086073D01*
X185259363Y-93109224D01*
X185227181Y-93126426D01*
X185192262Y-93137019D01*
X185149805Y-93141200D01*
X183683595Y-93141200D01*
X183641138Y-93137019D01*
X183606219Y-93126426D01*
X183574037Y-93109224D01*
X183545827Y-93086073D01*
X183522676Y-93057863D01*
X183505474Y-93025681D01*
X183494881Y-92990762D01*
X183490700Y-92948305D01*
X183490700Y-91807095D01*
X183494881Y-91764638D01*
X183505474Y-91729719D01*
X183522676Y-91697537D01*
X183545827Y-91669327D01*
X183574037Y-91646176D01*
X183606219Y-91628974D01*
X183641138Y-91618381D01*
X183683595Y-91614200D01*
X185149805Y-91614200D01*
X185192262Y-91618381D01*
X185192262Y-91618381D01*
G37*
G36*
X198273262Y-91618381D02*
G01*
X198308181Y-91628974D01*
X198340363Y-91646176D01*
X198368573Y-91669327D01*
X198391724Y-91697537D01*
X198408926Y-91729719D01*
X198419519Y-91764638D01*
X198423700Y-91807095D01*
X198423700Y-92948305D01*
X198419519Y-92990762D01*
X198408926Y-93025681D01*
X198391724Y-93057863D01*
X198368573Y-93086073D01*
X198340363Y-93109224D01*
X198308181Y-93126426D01*
X198273262Y-93137019D01*
X198230805Y-93141200D01*
X196764595Y-93141200D01*
X196722138Y-93137019D01*
X196687219Y-93126426D01*
X196655037Y-93109224D01*
X196626827Y-93086073D01*
X196603676Y-93057863D01*
X196586474Y-93025681D01*
X196575881Y-92990762D01*
X196571700Y-92948305D01*
X196571700Y-91807095D01*
X196575881Y-91764638D01*
X196586474Y-91729719D01*
X196603676Y-91697537D01*
X196626827Y-91669327D01*
X196655037Y-91646176D01*
X196687219Y-91628974D01*
X196722138Y-91618381D01*
X196764595Y-91614200D01*
X198230805Y-91614200D01*
X198273262Y-91618381D01*
X198273262Y-91618381D01*
G37*
G36*
X193320262Y-91618381D02*
G01*
X193355181Y-91628974D01*
X193387363Y-91646176D01*
X193415573Y-91669327D01*
X193438724Y-91697537D01*
X193455926Y-91729719D01*
X193466519Y-91764638D01*
X193470700Y-91807095D01*
X193470700Y-92948305D01*
X193466519Y-92990762D01*
X193455926Y-93025681D01*
X193438724Y-93057863D01*
X193415573Y-93086073D01*
X193387363Y-93109224D01*
X193355181Y-93126426D01*
X193320262Y-93137019D01*
X193277805Y-93141200D01*
X191811595Y-93141200D01*
X191769138Y-93137019D01*
X191734219Y-93126426D01*
X191702037Y-93109224D01*
X191673827Y-93086073D01*
X191650676Y-93057863D01*
X191633474Y-93025681D01*
X191622881Y-92990762D01*
X191618700Y-92948305D01*
X191618700Y-91807095D01*
X191622881Y-91764638D01*
X191633474Y-91729719D01*
X191650676Y-91697537D01*
X191673827Y-91669327D01*
X191702037Y-91646176D01*
X191734219Y-91628974D01*
X191769138Y-91618381D01*
X191811595Y-91614200D01*
X193277805Y-91614200D01*
X193320262Y-91618381D01*
X193320262Y-91618381D01*
G37*
G36*
X203365962Y-91618381D02*
G01*
X203400881Y-91628974D01*
X203433063Y-91646176D01*
X203461273Y-91669327D01*
X203484424Y-91697537D01*
X203501626Y-91729719D01*
X203512219Y-91764638D01*
X203516400Y-91807095D01*
X203516400Y-92948305D01*
X203512219Y-92990762D01*
X203501626Y-93025681D01*
X203484424Y-93057863D01*
X203461273Y-93086073D01*
X203433063Y-93109224D01*
X203400881Y-93126426D01*
X203365962Y-93137019D01*
X203323505Y-93141200D01*
X201857295Y-93141200D01*
X201814838Y-93137019D01*
X201779919Y-93126426D01*
X201747737Y-93109224D01*
X201719527Y-93086073D01*
X201696376Y-93057863D01*
X201679174Y-93025681D01*
X201668581Y-92990762D01*
X201664400Y-92948305D01*
X201664400Y-91807095D01*
X201668581Y-91764638D01*
X201679174Y-91729719D01*
X201696376Y-91697537D01*
X201719527Y-91669327D01*
X201747737Y-91646176D01*
X201779919Y-91628974D01*
X201814838Y-91618381D01*
X201857295Y-91614200D01*
X203323505Y-91614200D01*
X203365962Y-91618381D01*
X203365962Y-91618381D01*
G37*
G36*
X206020262Y-91612201D02*
G01*
X206055181Y-91622794D01*
X206087363Y-91639996D01*
X206115573Y-91663147D01*
X206138724Y-91691357D01*
X206155926Y-91723539D01*
X206166519Y-91758458D01*
X206170700Y-91800915D01*
X206170700Y-92942125D01*
X206166519Y-92984582D01*
X206155926Y-93019501D01*
X206138724Y-93051683D01*
X206115573Y-93079893D01*
X206087363Y-93103044D01*
X206055181Y-93120246D01*
X206020262Y-93130839D01*
X205977805Y-93135020D01*
X204511595Y-93135020D01*
X204469138Y-93130839D01*
X204434219Y-93120246D01*
X204402037Y-93103044D01*
X204373827Y-93079893D01*
X204350676Y-93051683D01*
X204333474Y-93019501D01*
X204322881Y-92984582D01*
X204318700Y-92942125D01*
X204318700Y-91800915D01*
X204322881Y-91758458D01*
X204333474Y-91723539D01*
X204350676Y-91691357D01*
X204373827Y-91663147D01*
X204402037Y-91639996D01*
X204434219Y-91622794D01*
X204469138Y-91612201D01*
X204511595Y-91608020D01*
X205977805Y-91608020D01*
X206020262Y-91612201D01*
X206020262Y-91612201D01*
G37*
G36*
X210187100Y-92729880D02*
G01*
X208735100Y-92729880D01*
X208735100Y-91277880D01*
X210187100Y-91277880D01*
X210187100Y-92729880D01*
X210187100Y-92729880D01*
G37*
G36*
X169696700Y-91845700D02*
G01*
X167894700Y-91845700D01*
X167894700Y-90043700D01*
X169696700Y-90043700D01*
X169696700Y-91845700D01*
X169696700Y-91845700D01*
G37*
G36*
X190174253Y-88593134D02*
G01*
X190195864Y-88604685D01*
X190219313Y-88611798D01*
X190243699Y-88614200D01*
X190993700Y-88614200D01*
X190993700Y-91066200D01*
X190243699Y-91066200D01*
X190219313Y-91068602D01*
X190195864Y-91075715D01*
X190174253Y-91087266D01*
X190169459Y-91091200D01*
X188315941Y-91091200D01*
X188311147Y-91087266D01*
X188289536Y-91075715D01*
X188266087Y-91068602D01*
X188241701Y-91066200D01*
X187491700Y-91066200D01*
X187491700Y-88614200D01*
X188241701Y-88614200D01*
X188266087Y-88611798D01*
X188289536Y-88604685D01*
X188311147Y-88593134D01*
X188315941Y-88589200D01*
X190169459Y-88589200D01*
X190174253Y-88593134D01*
X190174253Y-88593134D01*
G37*
G36*
X199660753Y-87259234D02*
G01*
X199682364Y-87270785D01*
X199705813Y-87277898D01*
X199730199Y-87280300D01*
X200480200Y-87280300D01*
X200480200Y-89732300D01*
X199730199Y-89732300D01*
X199705813Y-89734702D01*
X199682364Y-89741815D01*
X199660753Y-89753366D01*
X199655959Y-89757300D01*
X197802441Y-89757300D01*
X197797647Y-89753366D01*
X197776036Y-89741815D01*
X197752587Y-89734702D01*
X197728201Y-89732300D01*
X196978200Y-89732300D01*
X196978200Y-87280300D01*
X197728201Y-87280300D01*
X197752587Y-87277898D01*
X197776036Y-87270785D01*
X197797647Y-87259234D01*
X197802441Y-87255300D01*
X199655959Y-87255300D01*
X199660753Y-87259234D01*
X199660753Y-87259234D01*
G37*
G36*
X108090562Y-87559681D02*
G01*
X108125481Y-87570274D01*
X108157663Y-87587476D01*
X108185873Y-87610627D01*
X108209024Y-87638837D01*
X108226226Y-87671019D01*
X108236819Y-87705938D01*
X108241000Y-87748395D01*
X108241000Y-88889605D01*
X108236819Y-88932062D01*
X108226226Y-88966981D01*
X108209024Y-88999163D01*
X108185873Y-89027373D01*
X108157663Y-89050524D01*
X108125481Y-89067726D01*
X108090562Y-89078319D01*
X108048105Y-89082500D01*
X106581895Y-89082500D01*
X106539438Y-89078319D01*
X106504519Y-89067726D01*
X106472337Y-89050524D01*
X106444127Y-89027373D01*
X106420976Y-88999163D01*
X106403774Y-88966981D01*
X106393181Y-88932062D01*
X106389000Y-88889605D01*
X106389000Y-87748395D01*
X106393181Y-87705938D01*
X106403774Y-87671019D01*
X106420976Y-87638837D01*
X106444127Y-87610627D01*
X106472337Y-87587476D01*
X106504519Y-87570274D01*
X106539438Y-87559681D01*
X106581895Y-87555500D01*
X108048105Y-87555500D01*
X108090562Y-87559681D01*
X108090562Y-87559681D01*
G37*
G36*
X125328662Y-86390681D02*
G01*
X125363581Y-86401274D01*
X125395763Y-86418476D01*
X125423973Y-86441627D01*
X125447124Y-86469837D01*
X125464326Y-86502019D01*
X125474919Y-86536938D01*
X125479100Y-86579395D01*
X125479100Y-88045605D01*
X125474919Y-88088062D01*
X125464326Y-88122981D01*
X125447124Y-88155163D01*
X125423973Y-88183373D01*
X125395763Y-88206524D01*
X125363581Y-88223726D01*
X125328662Y-88234319D01*
X125286205Y-88238500D01*
X124144995Y-88238500D01*
X124102538Y-88234319D01*
X124067619Y-88223726D01*
X124035437Y-88206524D01*
X124007227Y-88183373D01*
X123984076Y-88155163D01*
X123966874Y-88122981D01*
X123956281Y-88088062D01*
X123952100Y-88045605D01*
X123952100Y-86579395D01*
X123956281Y-86536938D01*
X123966874Y-86502019D01*
X123984076Y-86469837D01*
X124007227Y-86441627D01*
X124035437Y-86418476D01*
X124067619Y-86401274D01*
X124102538Y-86390681D01*
X124144995Y-86386500D01*
X125286205Y-86386500D01*
X125328662Y-86390681D01*
X125328662Y-86390681D01*
G37*
G36*
X122353662Y-86390681D02*
G01*
X122388581Y-86401274D01*
X122420763Y-86418476D01*
X122448973Y-86441627D01*
X122472124Y-86469837D01*
X122489326Y-86502019D01*
X122499919Y-86536938D01*
X122504100Y-86579395D01*
X122504100Y-88045605D01*
X122499919Y-88088062D01*
X122489326Y-88122981D01*
X122472124Y-88155163D01*
X122448973Y-88183373D01*
X122420763Y-88206524D01*
X122388581Y-88223726D01*
X122353662Y-88234319D01*
X122311205Y-88238500D01*
X121169995Y-88238500D01*
X121127538Y-88234319D01*
X121092619Y-88223726D01*
X121060437Y-88206524D01*
X121032227Y-88183373D01*
X121009076Y-88155163D01*
X120991874Y-88122981D01*
X120981281Y-88088062D01*
X120977100Y-88045605D01*
X120977100Y-86579395D01*
X120981281Y-86536938D01*
X120991874Y-86502019D01*
X121009076Y-86469837D01*
X121032227Y-86441627D01*
X121060437Y-86418476D01*
X121092619Y-86401274D01*
X121127538Y-86390681D01*
X121169995Y-86386500D01*
X122311205Y-86386500D01*
X122353662Y-86390681D01*
X122353662Y-86390681D01*
G37*
G36*
X113826938Y-87431716D02*
G01*
X113847557Y-87437971D01*
X113866553Y-87448124D01*
X113883208Y-87461792D01*
X113896876Y-87478447D01*
X113907029Y-87497443D01*
X113913284Y-87518062D01*
X113916000Y-87545640D01*
X113916000Y-88054360D01*
X113913284Y-88081938D01*
X113907029Y-88102557D01*
X113896876Y-88121553D01*
X113883208Y-88138208D01*
X113866553Y-88151876D01*
X113847557Y-88162029D01*
X113826938Y-88168284D01*
X113799360Y-88171000D01*
X113340640Y-88171000D01*
X113313062Y-88168284D01*
X113292443Y-88162029D01*
X113273447Y-88151876D01*
X113256792Y-88138208D01*
X113243124Y-88121553D01*
X113232971Y-88102557D01*
X113226716Y-88081938D01*
X113224000Y-88054360D01*
X113224000Y-87545640D01*
X113226716Y-87518062D01*
X113232971Y-87497443D01*
X113243124Y-87478447D01*
X113256792Y-87461792D01*
X113273447Y-87448124D01*
X113292443Y-87437971D01*
X113313062Y-87431716D01*
X113340640Y-87429000D01*
X113799360Y-87429000D01*
X113826938Y-87431716D01*
X113826938Y-87431716D01*
G37*
G36*
X112856938Y-87431716D02*
G01*
X112877557Y-87437971D01*
X112896553Y-87448124D01*
X112913208Y-87461792D01*
X112926876Y-87478447D01*
X112937029Y-87497443D01*
X112943284Y-87518062D01*
X112946000Y-87545640D01*
X112946000Y-88054360D01*
X112943284Y-88081938D01*
X112937029Y-88102557D01*
X112926876Y-88121553D01*
X112913208Y-88138208D01*
X112896553Y-88151876D01*
X112877557Y-88162029D01*
X112856938Y-88168284D01*
X112829360Y-88171000D01*
X112370640Y-88171000D01*
X112343062Y-88168284D01*
X112322443Y-88162029D01*
X112303447Y-88151876D01*
X112286792Y-88138208D01*
X112273124Y-88121553D01*
X112262971Y-88102557D01*
X112256716Y-88081938D01*
X112254000Y-88054360D01*
X112254000Y-87545640D01*
X112256716Y-87518062D01*
X112262971Y-87497443D01*
X112273124Y-87478447D01*
X112286792Y-87461792D01*
X112303447Y-87448124D01*
X112322443Y-87437971D01*
X112343062Y-87431716D01*
X112370640Y-87429000D01*
X112829360Y-87429000D01*
X112856938Y-87431716D01*
X112856938Y-87431716D01*
G37*
G36*
X108090562Y-84584681D02*
G01*
X108125481Y-84595274D01*
X108157663Y-84612476D01*
X108185873Y-84635627D01*
X108209024Y-84663837D01*
X108226226Y-84696019D01*
X108236819Y-84730938D01*
X108241000Y-84773395D01*
X108241000Y-85914605D01*
X108236819Y-85957062D01*
X108226226Y-85991981D01*
X108209024Y-86024163D01*
X108185873Y-86052373D01*
X108157663Y-86075524D01*
X108125481Y-86092726D01*
X108090562Y-86103319D01*
X108048105Y-86107500D01*
X106581895Y-86107500D01*
X106539438Y-86103319D01*
X106504519Y-86092726D01*
X106472337Y-86075524D01*
X106444127Y-86052373D01*
X106420976Y-86024163D01*
X106403774Y-85991981D01*
X106393181Y-85957062D01*
X106389000Y-85914605D01*
X106389000Y-84773395D01*
X106393181Y-84730938D01*
X106403774Y-84696019D01*
X106420976Y-84663837D01*
X106444127Y-84635627D01*
X106472337Y-84612476D01*
X106504519Y-84595274D01*
X106539438Y-84584681D01*
X106581895Y-84580500D01*
X108048105Y-84580500D01*
X108090562Y-84584681D01*
X108090562Y-84584681D01*
G37*
G36*
X192603000Y-85683000D02*
G01*
X191101000Y-85683000D01*
X191101000Y-83481000D01*
X192603000Y-83481000D01*
X192603000Y-85683000D01*
X192603000Y-85683000D01*
G37*
G36*
X201157000Y-85683000D02*
G01*
X199655000Y-85683000D01*
X199655000Y-83481000D01*
X201157000Y-83481000D01*
X201157000Y-85683000D01*
X201157000Y-85683000D01*
G37*
G36*
X196757000Y-85683000D02*
G01*
X195255000Y-85683000D01*
X195255000Y-83481000D01*
X196757000Y-83481000D01*
X196757000Y-85683000D01*
X196757000Y-85683000D01*
G37*
G36*
X188203000Y-85683000D02*
G01*
X186701000Y-85683000D01*
X186701000Y-83481000D01*
X188203000Y-83481000D01*
X188203000Y-85683000D01*
X188203000Y-85683000D01*
G37*
G36*
X124397722Y-81775018D02*
G01*
X124463907Y-81781537D01*
X124633746Y-81833057D01*
X124790271Y-81916722D01*
X124826009Y-81946052D01*
X124927466Y-82029314D01*
X124984388Y-82098675D01*
X125040058Y-82166509D01*
X125123723Y-82323034D01*
X125175243Y-82492873D01*
X125192639Y-82669500D01*
X125175243Y-82846127D01*
X125123723Y-83015966D01*
X125040058Y-83172491D01*
X125010728Y-83208229D01*
X124927466Y-83309686D01*
X124826009Y-83392948D01*
X124790271Y-83422278D01*
X124633746Y-83505943D01*
X124463907Y-83557463D01*
X124397723Y-83563981D01*
X124331540Y-83570500D01*
X124243020Y-83570500D01*
X124176837Y-83563981D01*
X124110653Y-83557463D01*
X123940814Y-83505943D01*
X123784289Y-83422278D01*
X123748551Y-83392948D01*
X123647094Y-83309686D01*
X123563832Y-83208229D01*
X123534502Y-83172491D01*
X123450837Y-83015966D01*
X123399317Y-82846127D01*
X123381921Y-82669500D01*
X123399317Y-82492873D01*
X123450837Y-82323034D01*
X123534502Y-82166509D01*
X123590172Y-82098675D01*
X123647094Y-82029314D01*
X123748551Y-81946052D01*
X123784289Y-81916722D01*
X123940814Y-81833057D01*
X124110653Y-81781537D01*
X124176838Y-81775018D01*
X124243020Y-81768500D01*
X124331540Y-81768500D01*
X124397722Y-81775018D01*
X124397722Y-81775018D01*
G37*
G36*
X126937722Y-81775018D02*
G01*
X127003907Y-81781537D01*
X127173746Y-81833057D01*
X127330271Y-81916722D01*
X127366009Y-81946052D01*
X127467466Y-82029314D01*
X127524388Y-82098675D01*
X127580058Y-82166509D01*
X127663723Y-82323034D01*
X127715243Y-82492873D01*
X127732639Y-82669500D01*
X127715243Y-82846127D01*
X127663723Y-83015966D01*
X127580058Y-83172491D01*
X127550728Y-83208229D01*
X127467466Y-83309686D01*
X127366009Y-83392948D01*
X127330271Y-83422278D01*
X127173746Y-83505943D01*
X127003907Y-83557463D01*
X126937723Y-83563981D01*
X126871540Y-83570500D01*
X126783020Y-83570500D01*
X126716837Y-83563981D01*
X126650653Y-83557463D01*
X126480814Y-83505943D01*
X126324289Y-83422278D01*
X126288551Y-83392948D01*
X126187094Y-83309686D01*
X126103832Y-83208229D01*
X126074502Y-83172491D01*
X125990837Y-83015966D01*
X125939317Y-82846127D01*
X125921921Y-82669500D01*
X125939317Y-82492873D01*
X125990837Y-82323034D01*
X126074502Y-82166509D01*
X126130172Y-82098675D01*
X126187094Y-82029314D01*
X126288551Y-81946052D01*
X126324289Y-81916722D01*
X126480814Y-81833057D01*
X126650653Y-81781537D01*
X126716838Y-81775018D01*
X126783020Y-81768500D01*
X126871540Y-81768500D01*
X126937722Y-81775018D01*
X126937722Y-81775018D01*
G37*
G36*
X122648280Y-83570500D02*
G01*
X120846280Y-83570500D01*
X120846280Y-81768500D01*
X122648280Y-81768500D01*
X122648280Y-83570500D01*
X122648280Y-83570500D01*
G37*
G36*
X136761313Y-81097002D02*
G01*
X136832421Y-81104005D01*
X136969272Y-81145519D01*
X136969275Y-81145520D01*
X137095394Y-81212932D01*
X137205943Y-81303657D01*
X137296668Y-81414206D01*
X137364080Y-81540325D01*
X137364081Y-81540328D01*
X137405595Y-81677179D01*
X137419612Y-81819500D01*
X137405595Y-81961821D01*
X137364081Y-82098672D01*
X137364080Y-82098675D01*
X137296668Y-82224794D01*
X137205943Y-82335343D01*
X137095394Y-82426068D01*
X136969275Y-82493480D01*
X136969272Y-82493481D01*
X136832421Y-82534995D01*
X136761313Y-82541998D01*
X136725760Y-82545500D01*
X136654440Y-82545500D01*
X136618887Y-82541998D01*
X136547779Y-82534995D01*
X136410928Y-82493481D01*
X136410925Y-82493480D01*
X136284806Y-82426068D01*
X136174257Y-82335343D01*
X136083532Y-82224794D01*
X136016120Y-82098675D01*
X136016119Y-82098672D01*
X135974605Y-81961821D01*
X135960588Y-81819500D01*
X135974605Y-81677179D01*
X136016119Y-81540328D01*
X136016120Y-81540325D01*
X136083532Y-81414206D01*
X136174257Y-81303657D01*
X136284806Y-81212932D01*
X136410925Y-81145520D01*
X136410928Y-81145519D01*
X136547779Y-81104005D01*
X136618887Y-81097002D01*
X136654440Y-81093500D01*
X136725760Y-81093500D01*
X136761313Y-81097002D01*
X136761313Y-81097002D01*
G37*
G36*
X195937700Y-81320200D02*
G01*
X194485700Y-81320200D01*
X194485700Y-79868200D01*
X195937700Y-79868200D01*
X195937700Y-81320200D01*
X195937700Y-81320200D01*
G37*
G36*
X136761313Y-79097002D02*
G01*
X136832421Y-79104005D01*
X136936590Y-79135605D01*
X136969275Y-79145520D01*
X137095394Y-79212932D01*
X137205943Y-79303657D01*
X137296668Y-79414206D01*
X137364080Y-79540325D01*
X137364081Y-79540328D01*
X137405595Y-79677179D01*
X137419612Y-79819500D01*
X137405595Y-79961821D01*
X137364081Y-80098672D01*
X137364080Y-80098675D01*
X137296668Y-80224794D01*
X137205943Y-80335343D01*
X137095394Y-80426068D01*
X136969275Y-80493480D01*
X136969272Y-80493481D01*
X136832421Y-80534995D01*
X136761313Y-80541998D01*
X136725760Y-80545500D01*
X136654440Y-80545500D01*
X136618887Y-80541998D01*
X136547779Y-80534995D01*
X136410928Y-80493481D01*
X136410925Y-80493480D01*
X136284806Y-80426068D01*
X136174257Y-80335343D01*
X136083532Y-80224794D01*
X136016120Y-80098675D01*
X136016119Y-80098672D01*
X135974605Y-79961821D01*
X135960588Y-79819500D01*
X135974605Y-79677179D01*
X136016119Y-79540328D01*
X136016120Y-79540325D01*
X136083532Y-79414206D01*
X136174257Y-79303657D01*
X136284806Y-79212932D01*
X136410925Y-79145520D01*
X136443610Y-79135605D01*
X136547779Y-79104005D01*
X136618887Y-79097002D01*
X136654440Y-79093500D01*
X136725760Y-79093500D01*
X136761313Y-79097002D01*
X136761313Y-79097002D01*
G37*
G36*
X188889200Y-79669200D02*
G01*
X187437200Y-79669200D01*
X187437200Y-78217200D01*
X188889200Y-78217200D01*
X188889200Y-79669200D01*
X188889200Y-79669200D01*
G37*
G36*
X122190162Y-77627681D02*
G01*
X122225081Y-77638274D01*
X122257263Y-77655476D01*
X122285473Y-77678627D01*
X122308624Y-77706837D01*
X122325826Y-77739019D01*
X122336419Y-77773938D01*
X122340600Y-77816395D01*
X122340600Y-79282605D01*
X122336419Y-79325062D01*
X122325826Y-79359981D01*
X122308624Y-79392163D01*
X122285473Y-79420373D01*
X122257263Y-79443524D01*
X122225081Y-79460726D01*
X122190162Y-79471319D01*
X122147705Y-79475500D01*
X121006495Y-79475500D01*
X120964038Y-79471319D01*
X120929119Y-79460726D01*
X120896937Y-79443524D01*
X120868727Y-79420373D01*
X120845576Y-79392163D01*
X120828374Y-79359981D01*
X120817781Y-79325062D01*
X120813600Y-79282605D01*
X120813600Y-77816395D01*
X120817781Y-77773938D01*
X120828374Y-77739019D01*
X120845576Y-77706837D01*
X120868727Y-77678627D01*
X120896937Y-77655476D01*
X120929119Y-77638274D01*
X120964038Y-77627681D01*
X121006495Y-77623500D01*
X122147705Y-77623500D01*
X122190162Y-77627681D01*
X122190162Y-77627681D01*
G37*
G36*
X125165162Y-77627681D02*
G01*
X125200081Y-77638274D01*
X125232263Y-77655476D01*
X125260473Y-77678627D01*
X125283624Y-77706837D01*
X125300826Y-77739019D01*
X125311419Y-77773938D01*
X125315600Y-77816395D01*
X125315600Y-79282605D01*
X125311419Y-79325062D01*
X125300826Y-79359981D01*
X125283624Y-79392163D01*
X125260473Y-79420373D01*
X125232263Y-79443524D01*
X125200081Y-79460726D01*
X125165162Y-79471319D01*
X125122705Y-79475500D01*
X123981495Y-79475500D01*
X123939038Y-79471319D01*
X123904119Y-79460726D01*
X123871937Y-79443524D01*
X123843727Y-79420373D01*
X123820576Y-79392163D01*
X123803374Y-79359981D01*
X123792781Y-79325062D01*
X123788600Y-79282605D01*
X123788600Y-77816395D01*
X123792781Y-77773938D01*
X123803374Y-77739019D01*
X123820576Y-77706837D01*
X123843727Y-77678627D01*
X123871937Y-77655476D01*
X123904119Y-77638274D01*
X123939038Y-77627681D01*
X123981495Y-77623500D01*
X125122705Y-77623500D01*
X125165162Y-77627681D01*
X125165162Y-77627681D01*
G37*
G36*
X132258662Y-77880681D02*
G01*
X132293581Y-77891274D01*
X132325763Y-77908476D01*
X132353973Y-77931627D01*
X132377124Y-77959837D01*
X132394326Y-77992019D01*
X132404919Y-78026938D01*
X132409100Y-78069395D01*
X132409100Y-79210605D01*
X132404919Y-79253062D01*
X132394326Y-79287981D01*
X132377124Y-79320163D01*
X132353973Y-79348373D01*
X132325763Y-79371524D01*
X132293581Y-79388726D01*
X132258662Y-79399319D01*
X132216205Y-79403500D01*
X130749995Y-79403500D01*
X130707538Y-79399319D01*
X130672619Y-79388726D01*
X130640437Y-79371524D01*
X130612227Y-79348373D01*
X130589076Y-79320163D01*
X130571874Y-79287981D01*
X130561281Y-79253062D01*
X130557100Y-79210605D01*
X130557100Y-78069395D01*
X130561281Y-78026938D01*
X130571874Y-77992019D01*
X130589076Y-77959837D01*
X130612227Y-77931627D01*
X130640437Y-77908476D01*
X130672619Y-77891274D01*
X130707538Y-77880681D01*
X130749995Y-77876500D01*
X132216205Y-77876500D01*
X132258662Y-77880681D01*
X132258662Y-77880681D01*
G37*
G36*
X136761313Y-77097002D02*
G01*
X136832421Y-77104005D01*
X136969272Y-77145519D01*
X136969275Y-77145520D01*
X137095394Y-77212932D01*
X137205943Y-77303657D01*
X137296668Y-77414206D01*
X137364080Y-77540325D01*
X137364081Y-77540328D01*
X137405595Y-77677179D01*
X137419612Y-77819500D01*
X137405595Y-77961821D01*
X137381310Y-78041876D01*
X137364080Y-78098675D01*
X137296668Y-78224794D01*
X137205943Y-78335343D01*
X137095394Y-78426068D01*
X136969275Y-78493480D01*
X136969272Y-78493481D01*
X136832421Y-78534995D01*
X136761313Y-78541998D01*
X136725760Y-78545500D01*
X136654440Y-78545500D01*
X136618887Y-78541998D01*
X136547779Y-78534995D01*
X136410928Y-78493481D01*
X136410925Y-78493480D01*
X136284806Y-78426068D01*
X136174257Y-78335343D01*
X136083532Y-78224794D01*
X136016120Y-78098675D01*
X135998890Y-78041876D01*
X135974605Y-77961821D01*
X135960588Y-77819500D01*
X135974605Y-77677179D01*
X136016119Y-77540328D01*
X136016120Y-77540325D01*
X136083532Y-77414206D01*
X136174257Y-77303657D01*
X136284806Y-77212932D01*
X136410925Y-77145520D01*
X136410928Y-77145519D01*
X136547779Y-77104005D01*
X136618887Y-77097002D01*
X136654440Y-77093500D01*
X136725760Y-77093500D01*
X136761313Y-77097002D01*
X136761313Y-77097002D01*
G37*
G36*
X136761313Y-75097002D02*
G01*
X136832421Y-75104005D01*
X136969272Y-75145519D01*
X136969275Y-75145520D01*
X137095394Y-75212932D01*
X137205943Y-75303657D01*
X137296668Y-75414206D01*
X137364080Y-75540325D01*
X137364081Y-75540328D01*
X137405595Y-75677179D01*
X137419612Y-75819500D01*
X137405595Y-75961821D01*
X137365176Y-76095062D01*
X137364080Y-76098675D01*
X137296668Y-76224794D01*
X137205943Y-76335343D01*
X137095394Y-76426068D01*
X136969275Y-76493480D01*
X136969272Y-76493481D01*
X136832421Y-76534995D01*
X136761313Y-76541998D01*
X136725760Y-76545500D01*
X136654440Y-76545500D01*
X136618887Y-76541998D01*
X136547779Y-76534995D01*
X136410928Y-76493481D01*
X136410925Y-76493480D01*
X136284806Y-76426068D01*
X136174257Y-76335343D01*
X136083532Y-76224794D01*
X136016120Y-76098675D01*
X136015024Y-76095062D01*
X135974605Y-75961821D01*
X135960588Y-75819500D01*
X135974605Y-75677179D01*
X136016119Y-75540328D01*
X136016120Y-75540325D01*
X136083532Y-75414206D01*
X136174257Y-75303657D01*
X136284806Y-75212932D01*
X136410925Y-75145520D01*
X136410928Y-75145519D01*
X136547779Y-75104005D01*
X136618887Y-75097002D01*
X136654440Y-75093500D01*
X136725760Y-75093500D01*
X136761313Y-75097002D01*
X136761313Y-75097002D01*
G37*
G36*
X132258662Y-74905681D02*
G01*
X132293581Y-74916274D01*
X132325763Y-74933476D01*
X132353973Y-74956627D01*
X132377124Y-74984837D01*
X132394326Y-75017019D01*
X132404919Y-75051938D01*
X132409100Y-75094395D01*
X132409100Y-76235605D01*
X132404919Y-76278062D01*
X132394326Y-76312981D01*
X132377124Y-76345163D01*
X132353973Y-76373373D01*
X132325763Y-76396524D01*
X132293581Y-76413726D01*
X132258662Y-76424319D01*
X132216205Y-76428500D01*
X130749995Y-76428500D01*
X130707538Y-76424319D01*
X130672619Y-76413726D01*
X130640437Y-76396524D01*
X130612227Y-76373373D01*
X130589076Y-76345163D01*
X130571874Y-76312981D01*
X130561281Y-76278062D01*
X130557100Y-76235605D01*
X130557100Y-75094395D01*
X130561281Y-75051938D01*
X130571874Y-75017019D01*
X130589076Y-74984837D01*
X130612227Y-74956627D01*
X130640437Y-74933476D01*
X130672619Y-74916274D01*
X130707538Y-74905681D01*
X130749995Y-74901500D01*
X132216205Y-74901500D01*
X132258662Y-74905681D01*
X132258662Y-74905681D01*
G37*
G36*
X122115662Y-74397681D02*
G01*
X122150581Y-74408274D01*
X122182763Y-74425476D01*
X122210973Y-74448627D01*
X122234124Y-74476837D01*
X122251326Y-74509019D01*
X122261919Y-74543938D01*
X122266100Y-74586395D01*
X122266100Y-76052605D01*
X122261919Y-76095062D01*
X122251326Y-76129981D01*
X122234124Y-76162163D01*
X122210973Y-76190373D01*
X122182763Y-76213524D01*
X122150581Y-76230726D01*
X122115662Y-76241319D01*
X122073205Y-76245500D01*
X120931995Y-76245500D01*
X120889538Y-76241319D01*
X120854619Y-76230726D01*
X120822437Y-76213524D01*
X120794227Y-76190373D01*
X120771076Y-76162163D01*
X120753874Y-76129981D01*
X120743281Y-76095062D01*
X120739100Y-76052605D01*
X120739100Y-74586395D01*
X120743281Y-74543938D01*
X120753874Y-74509019D01*
X120771076Y-74476837D01*
X120794227Y-74448627D01*
X120822437Y-74425476D01*
X120854619Y-74408274D01*
X120889538Y-74397681D01*
X120931995Y-74393500D01*
X122073205Y-74393500D01*
X122115662Y-74397681D01*
X122115662Y-74397681D01*
G37*
G36*
X125090662Y-74397681D02*
G01*
X125125581Y-74408274D01*
X125157763Y-74425476D01*
X125185973Y-74448627D01*
X125209124Y-74476837D01*
X125226326Y-74509019D01*
X125236919Y-74543938D01*
X125241100Y-74586395D01*
X125241100Y-76052605D01*
X125236919Y-76095062D01*
X125226326Y-76129981D01*
X125209124Y-76162163D01*
X125185973Y-76190373D01*
X125157763Y-76213524D01*
X125125581Y-76230726D01*
X125090662Y-76241319D01*
X125048205Y-76245500D01*
X123906995Y-76245500D01*
X123864538Y-76241319D01*
X123829619Y-76230726D01*
X123797437Y-76213524D01*
X123769227Y-76190373D01*
X123746076Y-76162163D01*
X123728874Y-76129981D01*
X123718281Y-76095062D01*
X123714100Y-76052605D01*
X123714100Y-74586395D01*
X123718281Y-74543938D01*
X123728874Y-74509019D01*
X123746076Y-74476837D01*
X123769227Y-74448627D01*
X123797437Y-74425476D01*
X123829619Y-74408274D01*
X123864538Y-74397681D01*
X123906995Y-74393500D01*
X125048205Y-74393500D01*
X125090662Y-74397681D01*
X125090662Y-74397681D01*
G37*
G36*
X136761313Y-73097002D02*
G01*
X136832421Y-73104005D01*
X136969272Y-73145519D01*
X136969275Y-73145520D01*
X137095394Y-73212932D01*
X137205943Y-73303657D01*
X137296668Y-73414206D01*
X137364080Y-73540325D01*
X137364081Y-73540328D01*
X137405595Y-73677179D01*
X137419612Y-73819500D01*
X137405595Y-73961821D01*
X137364081Y-74098672D01*
X137364080Y-74098675D01*
X137296668Y-74224794D01*
X137205943Y-74335343D01*
X137095394Y-74426068D01*
X136969275Y-74493480D01*
X136969272Y-74493481D01*
X136832421Y-74534995D01*
X136761313Y-74541998D01*
X136725760Y-74545500D01*
X136654440Y-74545500D01*
X136618887Y-74541998D01*
X136547779Y-74534995D01*
X136410928Y-74493481D01*
X136410925Y-74493480D01*
X136284806Y-74426068D01*
X136174257Y-74335343D01*
X136083532Y-74224794D01*
X136016120Y-74098675D01*
X136016119Y-74098672D01*
X135974605Y-73961821D01*
X135960588Y-73819500D01*
X135974605Y-73677179D01*
X136016119Y-73540328D01*
X136016120Y-73540325D01*
X136083532Y-73414206D01*
X136174257Y-73303657D01*
X136284806Y-73212932D01*
X136410925Y-73145520D01*
X136410928Y-73145519D01*
X136547779Y-73104005D01*
X136618887Y-73097002D01*
X136654440Y-73093500D01*
X136725760Y-73093500D01*
X136761313Y-73097002D01*
X136761313Y-73097002D01*
G37*
G36*
X118554100Y-73241500D02*
G01*
X117752100Y-73241500D01*
X117752100Y-72339500D01*
X118554100Y-72339500D01*
X118554100Y-73241500D01*
X118554100Y-73241500D01*
G37*
G36*
X117284100Y-73241500D02*
G01*
X116482100Y-73241500D01*
X116482100Y-72339500D01*
X117284100Y-72339500D01*
X117284100Y-73241500D01*
X117284100Y-73241500D01*
G37*
G36*
X116004100Y-73241500D02*
G01*
X115202100Y-73241500D01*
X115202100Y-72339500D01*
X116004100Y-72339500D01*
X116004100Y-73241500D01*
X116004100Y-73241500D01*
G37*
G36*
X114734100Y-73241500D02*
G01*
X113932100Y-73241500D01*
X113932100Y-72339500D01*
X114734100Y-72339500D01*
X114734100Y-73241500D01*
X114734100Y-73241500D01*
G37*
G36*
X137416100Y-72545500D02*
G01*
X135964100Y-72545500D01*
X135964100Y-71093500D01*
X137416100Y-71093500D01*
X137416100Y-72545500D01*
X137416100Y-72545500D01*
G37*
G36*
X114734100Y-67219501D02*
G01*
X114736502Y-67243887D01*
X114743615Y-67267336D01*
X114755166Y-67288947D01*
X114770711Y-67307889D01*
X114789653Y-67323434D01*
X114811264Y-67334985D01*
X114834713Y-67342098D01*
X114859099Y-67344500D01*
X115077101Y-67344500D01*
X115101487Y-67342098D01*
X115124936Y-67334985D01*
X115146547Y-67323434D01*
X115165489Y-67307889D01*
X115181034Y-67288947D01*
X115192585Y-67267336D01*
X115199698Y-67243887D01*
X115202100Y-67219501D01*
X115202100Y-66839500D01*
X116004100Y-66839500D01*
X116004100Y-67219501D01*
X116006502Y-67243887D01*
X116013615Y-67267336D01*
X116025166Y-67288947D01*
X116040711Y-67307889D01*
X116059653Y-67323434D01*
X116081264Y-67334985D01*
X116104713Y-67342098D01*
X116129099Y-67344500D01*
X116357101Y-67344500D01*
X116381487Y-67342098D01*
X116404936Y-67334985D01*
X116426547Y-67323434D01*
X116445489Y-67307889D01*
X116461034Y-67288947D01*
X116472585Y-67267336D01*
X116479698Y-67243887D01*
X116482100Y-67219501D01*
X116482100Y-66839500D01*
X117284100Y-66839500D01*
X117284100Y-67219501D01*
X117286502Y-67243887D01*
X117293615Y-67267336D01*
X117305166Y-67288947D01*
X117320711Y-67307889D01*
X117339653Y-67323434D01*
X117361264Y-67334985D01*
X117384713Y-67342098D01*
X117409099Y-67344500D01*
X117627101Y-67344500D01*
X117651487Y-67342098D01*
X117674936Y-67334985D01*
X117696547Y-67323434D01*
X117715489Y-67307889D01*
X117731034Y-67288947D01*
X117742585Y-67267336D01*
X117749698Y-67243887D01*
X117752100Y-67219501D01*
X117752100Y-66839500D01*
X118554100Y-66839500D01*
X118554100Y-67817757D01*
X118553615Y-67818664D01*
X118546502Y-67842113D01*
X118544100Y-67866499D01*
X118544100Y-71736500D01*
X113942100Y-71736500D01*
X113942100Y-67866499D01*
X113939698Y-67842113D01*
X113932585Y-67818664D01*
X113932100Y-67817757D01*
X113932100Y-66839500D01*
X114734100Y-66839500D01*
X114734100Y-67219501D01*
X114734100Y-67219501D01*
G37*
G36*
X182824213Y-70079002D02*
G01*
X182895321Y-70086005D01*
X183032172Y-70127519D01*
X183032175Y-70127520D01*
X183158294Y-70194932D01*
X183268843Y-70285657D01*
X183359568Y-70396206D01*
X183426980Y-70522325D01*
X183426981Y-70522328D01*
X183468495Y-70659179D01*
X183482512Y-70801500D01*
X183468495Y-70943821D01*
X183426981Y-71080672D01*
X183426980Y-71080675D01*
X183359568Y-71206794D01*
X183268843Y-71317343D01*
X183158294Y-71408068D01*
X183032175Y-71475480D01*
X183032172Y-71475481D01*
X182895321Y-71516995D01*
X182824213Y-71523998D01*
X182788660Y-71527500D01*
X182717340Y-71527500D01*
X182681787Y-71523998D01*
X182610679Y-71516995D01*
X182473828Y-71475481D01*
X182473825Y-71475480D01*
X182347706Y-71408068D01*
X182237157Y-71317343D01*
X182146432Y-71206794D01*
X182079020Y-71080675D01*
X182079019Y-71080672D01*
X182037505Y-70943821D01*
X182023488Y-70801500D01*
X182037505Y-70659179D01*
X182079019Y-70522328D01*
X182079020Y-70522325D01*
X182146432Y-70396206D01*
X182237157Y-70285657D01*
X182347706Y-70194932D01*
X182473825Y-70127520D01*
X182473828Y-70127519D01*
X182610679Y-70086005D01*
X182681787Y-70079002D01*
X182717340Y-70075500D01*
X182788660Y-70075500D01*
X182824213Y-70079002D01*
X182824213Y-70079002D01*
G37*
G36*
X180318062Y-69372681D02*
G01*
X180352981Y-69383274D01*
X180385163Y-69400476D01*
X180413373Y-69423627D01*
X180436524Y-69451837D01*
X180453726Y-69484019D01*
X180464319Y-69518938D01*
X180468500Y-69561395D01*
X180468500Y-71027605D01*
X180464319Y-71070062D01*
X180453726Y-71104981D01*
X180436524Y-71137163D01*
X180413373Y-71165373D01*
X180385163Y-71188524D01*
X180352981Y-71205726D01*
X180318062Y-71216319D01*
X180275605Y-71220500D01*
X179134395Y-71220500D01*
X179091938Y-71216319D01*
X179057019Y-71205726D01*
X179024837Y-71188524D01*
X178996627Y-71165373D01*
X178973476Y-71137163D01*
X178956274Y-71104981D01*
X178945681Y-71070062D01*
X178941500Y-71027605D01*
X178941500Y-69561395D01*
X178945681Y-69518938D01*
X178956274Y-69484019D01*
X178973476Y-69451837D01*
X178996627Y-69423627D01*
X179024837Y-69400476D01*
X179057019Y-69383274D01*
X179091938Y-69372681D01*
X179134395Y-69368500D01*
X180275605Y-69368500D01*
X180318062Y-69372681D01*
X180318062Y-69372681D01*
G37*
G36*
X177343062Y-69372681D02*
G01*
X177377981Y-69383274D01*
X177410163Y-69400476D01*
X177438373Y-69423627D01*
X177461524Y-69451837D01*
X177478726Y-69484019D01*
X177489319Y-69518938D01*
X177493500Y-69561395D01*
X177493500Y-71027605D01*
X177489319Y-71070062D01*
X177478726Y-71104981D01*
X177461524Y-71137163D01*
X177438373Y-71165373D01*
X177410163Y-71188524D01*
X177377981Y-71205726D01*
X177343062Y-71216319D01*
X177300605Y-71220500D01*
X176159395Y-71220500D01*
X176116938Y-71216319D01*
X176082019Y-71205726D01*
X176049837Y-71188524D01*
X176021627Y-71165373D01*
X175998476Y-71137163D01*
X175981274Y-71104981D01*
X175970681Y-71070062D01*
X175966500Y-71027605D01*
X175966500Y-69561395D01*
X175970681Y-69518938D01*
X175981274Y-69484019D01*
X175998476Y-69451837D01*
X176021627Y-69423627D01*
X176049837Y-69400476D01*
X176082019Y-69383274D01*
X176116938Y-69372681D01*
X176159395Y-69368500D01*
X177300605Y-69368500D01*
X177343062Y-69372681D01*
X177343062Y-69372681D01*
G37*
G36*
X211152300Y-70842700D02*
G01*
X209700300Y-70842700D01*
X209700300Y-69390700D01*
X211152300Y-69390700D01*
X211152300Y-70842700D01*
X211152300Y-70842700D01*
G37*
G36*
X182824213Y-68079002D02*
G01*
X182895321Y-68086005D01*
X183032172Y-68127519D01*
X183032175Y-68127520D01*
X183158294Y-68194932D01*
X183268843Y-68285657D01*
X183359568Y-68396206D01*
X183426980Y-68522325D01*
X183426981Y-68522328D01*
X183468495Y-68659179D01*
X183482512Y-68801500D01*
X183468495Y-68943821D01*
X183426981Y-69080672D01*
X183426980Y-69080675D01*
X183359568Y-69206794D01*
X183268843Y-69317343D01*
X183158294Y-69408068D01*
X183032175Y-69475480D01*
X183032172Y-69475481D01*
X182895321Y-69516995D01*
X182824213Y-69523998D01*
X182788660Y-69527500D01*
X182717340Y-69527500D01*
X182681787Y-69523998D01*
X182610679Y-69516995D01*
X182473828Y-69475481D01*
X182473825Y-69475480D01*
X182347706Y-69408068D01*
X182237157Y-69317343D01*
X182146432Y-69206794D01*
X182079020Y-69080675D01*
X182079019Y-69080672D01*
X182037505Y-68943821D01*
X182023488Y-68801500D01*
X182037505Y-68659179D01*
X182079019Y-68522328D01*
X182079020Y-68522325D01*
X182146432Y-68396206D01*
X182237157Y-68285657D01*
X182347706Y-68194932D01*
X182473825Y-68127520D01*
X182473828Y-68127519D01*
X182610679Y-68086005D01*
X182681787Y-68079002D01*
X182717340Y-68075500D01*
X182788660Y-68075500D01*
X182824213Y-68079002D01*
X182824213Y-68079002D01*
G37*
G36*
X205792500Y-69207500D02*
G01*
X204130500Y-69207500D01*
X204130500Y-66555500D01*
X205792500Y-66555500D01*
X205792500Y-69207500D01*
X205792500Y-69207500D01*
G37*
G36*
X208492500Y-69207500D02*
G01*
X206830500Y-69207500D01*
X206830500Y-68455500D01*
X208492500Y-68455500D01*
X208492500Y-69207500D01*
X208492500Y-69207500D01*
G37*
G36*
X124354542Y-66425018D02*
G01*
X124420727Y-66431537D01*
X124590566Y-66483057D01*
X124747091Y-66566722D01*
X124782829Y-66596052D01*
X124884286Y-66679314D01*
X124967548Y-66780771D01*
X124996878Y-66816509D01*
X125080543Y-66973034D01*
X125132063Y-67142873D01*
X125149459Y-67319500D01*
X125132063Y-67496127D01*
X125080543Y-67665966D01*
X124996878Y-67822491D01*
X124972164Y-67852605D01*
X124884286Y-67959686D01*
X124797722Y-68030726D01*
X124747091Y-68072278D01*
X124590566Y-68155943D01*
X124420727Y-68207463D01*
X124354543Y-68213981D01*
X124288360Y-68220500D01*
X124199840Y-68220500D01*
X124133657Y-68213981D01*
X124067473Y-68207463D01*
X123897634Y-68155943D01*
X123741109Y-68072278D01*
X123690478Y-68030726D01*
X123603914Y-67959686D01*
X123516036Y-67852605D01*
X123491322Y-67822491D01*
X123407657Y-67665966D01*
X123356137Y-67496127D01*
X123338741Y-67319500D01*
X123356137Y-67142873D01*
X123407657Y-66973034D01*
X123491322Y-66816509D01*
X123520652Y-66780771D01*
X123603914Y-66679314D01*
X123705371Y-66596052D01*
X123741109Y-66566722D01*
X123897634Y-66483057D01*
X124067473Y-66431537D01*
X124133658Y-66425018D01*
X124199840Y-66418500D01*
X124288360Y-66418500D01*
X124354542Y-66425018D01*
X124354542Y-66425018D01*
G37*
G36*
X121814542Y-66425018D02*
G01*
X121880727Y-66431537D01*
X122050566Y-66483057D01*
X122207091Y-66566722D01*
X122242829Y-66596052D01*
X122344286Y-66679314D01*
X122427548Y-66780771D01*
X122456878Y-66816509D01*
X122540543Y-66973034D01*
X122592063Y-67142873D01*
X122609459Y-67319500D01*
X122592063Y-67496127D01*
X122540543Y-67665966D01*
X122456878Y-67822491D01*
X122432164Y-67852605D01*
X122344286Y-67959686D01*
X122257722Y-68030726D01*
X122207091Y-68072278D01*
X122050566Y-68155943D01*
X121880727Y-68207463D01*
X121814543Y-68213981D01*
X121748360Y-68220500D01*
X121659840Y-68220500D01*
X121593657Y-68213981D01*
X121527473Y-68207463D01*
X121357634Y-68155943D01*
X121201109Y-68072278D01*
X121150478Y-68030726D01*
X121063914Y-67959686D01*
X120976036Y-67852605D01*
X120951322Y-67822491D01*
X120867657Y-67665966D01*
X120816137Y-67496127D01*
X120798741Y-67319500D01*
X120816137Y-67142873D01*
X120867657Y-66973034D01*
X120951322Y-66816509D01*
X120980652Y-66780771D01*
X121063914Y-66679314D01*
X121165371Y-66596052D01*
X121201109Y-66566722D01*
X121357634Y-66483057D01*
X121527473Y-66431537D01*
X121593658Y-66425018D01*
X121659840Y-66418500D01*
X121748360Y-66418500D01*
X121814542Y-66425018D01*
X121814542Y-66425018D01*
G37*
G36*
X127685100Y-68220500D02*
G01*
X125883100Y-68220500D01*
X125883100Y-66418500D01*
X127685100Y-66418500D01*
X127685100Y-68220500D01*
X127685100Y-68220500D01*
G37*
G36*
X213963562Y-66197681D02*
G01*
X213998481Y-66208274D01*
X214030663Y-66225476D01*
X214058873Y-66248627D01*
X214082024Y-66276837D01*
X214099226Y-66309019D01*
X214109819Y-66343938D01*
X214114000Y-66386395D01*
X214114000Y-67852605D01*
X214109819Y-67895062D01*
X214099226Y-67929981D01*
X214082024Y-67962163D01*
X214058873Y-67990373D01*
X214030663Y-68013524D01*
X213998481Y-68030726D01*
X213963562Y-68041319D01*
X213921105Y-68045500D01*
X212779895Y-68045500D01*
X212737438Y-68041319D01*
X212702519Y-68030726D01*
X212670337Y-68013524D01*
X212642127Y-67990373D01*
X212618976Y-67962163D01*
X212601774Y-67929981D01*
X212591181Y-67895062D01*
X212587000Y-67852605D01*
X212587000Y-66386395D01*
X212591181Y-66343938D01*
X212601774Y-66309019D01*
X212618976Y-66276837D01*
X212642127Y-66248627D01*
X212670337Y-66225476D01*
X212702519Y-66208274D01*
X212737438Y-66197681D01*
X212779895Y-66193500D01*
X213921105Y-66193500D01*
X213963562Y-66197681D01*
X213963562Y-66197681D01*
G37*
G36*
X210988562Y-66197681D02*
G01*
X211023481Y-66208274D01*
X211055663Y-66225476D01*
X211083873Y-66248627D01*
X211107024Y-66276837D01*
X211124226Y-66309019D01*
X211134819Y-66343938D01*
X211139000Y-66386395D01*
X211139000Y-67852605D01*
X211134819Y-67895062D01*
X211124226Y-67929981D01*
X211107024Y-67962163D01*
X211083873Y-67990373D01*
X211055663Y-68013524D01*
X211023481Y-68030726D01*
X210988562Y-68041319D01*
X210946105Y-68045500D01*
X209804895Y-68045500D01*
X209762438Y-68041319D01*
X209727519Y-68030726D01*
X209695337Y-68013524D01*
X209667127Y-67990373D01*
X209643976Y-67962163D01*
X209626774Y-67929981D01*
X209616181Y-67895062D01*
X209612000Y-67852605D01*
X209612000Y-66386395D01*
X209616181Y-66343938D01*
X209626774Y-66309019D01*
X209643976Y-66276837D01*
X209667127Y-66248627D01*
X209695337Y-66225476D01*
X209727519Y-66208274D01*
X209762438Y-66197681D01*
X209804895Y-66193500D01*
X210946105Y-66193500D01*
X210988562Y-66197681D01*
X210988562Y-66197681D01*
G37*
G36*
X179884000Y-67702000D02*
G01*
X178032000Y-67702000D01*
X178032000Y-66850000D01*
X179884000Y-66850000D01*
X179884000Y-67702000D01*
X179884000Y-67702000D01*
G37*
G36*
X182824213Y-66079002D02*
G01*
X182895321Y-66086005D01*
X183032172Y-66127519D01*
X183032175Y-66127520D01*
X183158294Y-66194932D01*
X183268843Y-66285657D01*
X183359568Y-66396206D01*
X183426980Y-66522325D01*
X183426981Y-66522328D01*
X183468495Y-66659179D01*
X183482512Y-66801500D01*
X183468495Y-66943821D01*
X183459633Y-66973034D01*
X183426980Y-67080675D01*
X183359568Y-67206794D01*
X183268843Y-67317343D01*
X183158294Y-67408068D01*
X183032175Y-67475480D01*
X183032172Y-67475481D01*
X182895321Y-67516995D01*
X182824213Y-67523998D01*
X182788660Y-67527500D01*
X182717340Y-67527500D01*
X182681787Y-67523998D01*
X182610679Y-67516995D01*
X182473828Y-67475481D01*
X182473825Y-67475480D01*
X182347706Y-67408068D01*
X182237157Y-67317343D01*
X182146432Y-67206794D01*
X182079020Y-67080675D01*
X182046367Y-66973034D01*
X182037505Y-66943821D01*
X182023488Y-66801500D01*
X182037505Y-66659179D01*
X182079019Y-66522328D01*
X182079020Y-66522325D01*
X182146432Y-66396206D01*
X182237157Y-66285657D01*
X182347706Y-66194932D01*
X182473825Y-66127520D01*
X182473828Y-66127519D01*
X182610679Y-66086005D01*
X182681787Y-66079002D01*
X182717340Y-66075500D01*
X182788660Y-66075500D01*
X182824213Y-66079002D01*
X182824213Y-66079002D01*
G37*
G36*
X208492500Y-67307500D02*
G01*
X206830500Y-67307500D01*
X206830500Y-66555500D01*
X208492500Y-66555500D01*
X208492500Y-67307500D01*
X208492500Y-67307500D01*
G37*
G36*
X182824213Y-64079002D02*
G01*
X182895321Y-64086005D01*
X183008829Y-64120438D01*
X183032175Y-64127520D01*
X183158294Y-64194932D01*
X183268843Y-64285657D01*
X183359568Y-64396206D01*
X183426980Y-64522325D01*
X183426981Y-64522328D01*
X183468495Y-64659179D01*
X183482512Y-64801500D01*
X183468495Y-64943821D01*
X183433354Y-65059663D01*
X183426980Y-65080675D01*
X183359568Y-65206794D01*
X183268843Y-65317343D01*
X183158294Y-65408068D01*
X183032175Y-65475480D01*
X183032172Y-65475481D01*
X182895321Y-65516995D01*
X182824213Y-65523998D01*
X182788660Y-65527500D01*
X182717340Y-65527500D01*
X182681787Y-65523998D01*
X182610679Y-65516995D01*
X182473828Y-65475481D01*
X182473825Y-65475480D01*
X182347706Y-65408068D01*
X182237157Y-65317343D01*
X182146432Y-65206794D01*
X182079020Y-65080675D01*
X182072646Y-65059663D01*
X182037505Y-64943821D01*
X182023488Y-64801500D01*
X182037505Y-64659179D01*
X182079019Y-64522328D01*
X182079020Y-64522325D01*
X182146432Y-64396206D01*
X182237157Y-64285657D01*
X182347706Y-64194932D01*
X182473825Y-64127520D01*
X182497171Y-64120438D01*
X182610679Y-64086005D01*
X182681787Y-64079002D01*
X182717340Y-64075500D01*
X182788660Y-64075500D01*
X182824213Y-64079002D01*
X182824213Y-64079002D01*
G37*
G36*
X209436562Y-63974181D02*
G01*
X209471481Y-63984774D01*
X209503663Y-64001976D01*
X209531873Y-64025127D01*
X209555024Y-64053337D01*
X209572226Y-64085519D01*
X209582819Y-64120438D01*
X209587000Y-64162895D01*
X209587000Y-65304105D01*
X209582819Y-65346562D01*
X209572226Y-65381481D01*
X209555024Y-65413663D01*
X209531873Y-65441873D01*
X209503663Y-65465024D01*
X209471481Y-65482226D01*
X209436562Y-65492819D01*
X209394105Y-65497000D01*
X207927895Y-65497000D01*
X207885438Y-65492819D01*
X207850519Y-65482226D01*
X207818337Y-65465024D01*
X207790127Y-65441873D01*
X207766976Y-65413663D01*
X207749774Y-65381481D01*
X207739181Y-65346562D01*
X207735000Y-65304105D01*
X207735000Y-64162895D01*
X207739181Y-64120438D01*
X207749774Y-64085519D01*
X207766976Y-64053337D01*
X207790127Y-64025127D01*
X207818337Y-64001976D01*
X207850519Y-63984774D01*
X207885438Y-63974181D01*
X207927895Y-63970000D01*
X209394105Y-63970000D01*
X209436562Y-63974181D01*
X209436562Y-63974181D01*
G37*
G36*
X205499562Y-63620181D02*
G01*
X205534481Y-63630774D01*
X205566663Y-63647976D01*
X205594873Y-63671127D01*
X205618024Y-63699337D01*
X205635226Y-63731519D01*
X205645819Y-63766438D01*
X205650000Y-63808895D01*
X205650000Y-64950105D01*
X205645819Y-64992562D01*
X205635226Y-65027481D01*
X205618024Y-65059663D01*
X205594873Y-65087873D01*
X205566663Y-65111024D01*
X205534481Y-65128226D01*
X205499562Y-65138819D01*
X205457105Y-65143000D01*
X203990895Y-65143000D01*
X203948438Y-65138819D01*
X203913519Y-65128226D01*
X203881337Y-65111024D01*
X203853127Y-65087873D01*
X203829976Y-65059663D01*
X203812774Y-65027481D01*
X203802181Y-64992562D01*
X203798000Y-64950105D01*
X203798000Y-63808895D01*
X203802181Y-63766438D01*
X203812774Y-63731519D01*
X203829976Y-63699337D01*
X203853127Y-63671127D01*
X203881337Y-63647976D01*
X203913519Y-63630774D01*
X203948438Y-63620181D01*
X203990895Y-63616000D01*
X205457105Y-63616000D01*
X205499562Y-63620181D01*
X205499562Y-63620181D01*
G37*
G36*
X118544100Y-63832501D02*
G01*
X118546502Y-63856887D01*
X118553615Y-63880336D01*
X118554100Y-63881243D01*
X118554100Y-64859500D01*
X117752100Y-64859500D01*
X117752100Y-64479499D01*
X117749698Y-64455113D01*
X117742585Y-64431664D01*
X117731034Y-64410053D01*
X117715489Y-64391111D01*
X117696547Y-64375566D01*
X117674936Y-64364015D01*
X117651487Y-64356902D01*
X117627101Y-64354500D01*
X117409099Y-64354500D01*
X117384713Y-64356902D01*
X117361264Y-64364015D01*
X117339653Y-64375566D01*
X117320711Y-64391111D01*
X117305166Y-64410053D01*
X117293615Y-64431664D01*
X117286502Y-64455113D01*
X117284100Y-64479499D01*
X117284100Y-64859500D01*
X116482100Y-64859500D01*
X116482100Y-64479499D01*
X116479698Y-64455113D01*
X116472585Y-64431664D01*
X116461034Y-64410053D01*
X116445489Y-64391111D01*
X116426547Y-64375566D01*
X116404936Y-64364015D01*
X116381487Y-64356902D01*
X116357101Y-64354500D01*
X116129099Y-64354500D01*
X116104713Y-64356902D01*
X116081264Y-64364015D01*
X116059653Y-64375566D01*
X116040711Y-64391111D01*
X116025166Y-64410053D01*
X116013615Y-64431664D01*
X116006502Y-64455113D01*
X116004100Y-64479499D01*
X116004100Y-64859500D01*
X115202100Y-64859500D01*
X115202100Y-64479499D01*
X115199698Y-64455113D01*
X115192585Y-64431664D01*
X115181034Y-64410053D01*
X115165489Y-64391111D01*
X115146547Y-64375566D01*
X115124936Y-64364015D01*
X115101487Y-64356902D01*
X115077101Y-64354500D01*
X114859099Y-64354500D01*
X114834713Y-64356902D01*
X114811264Y-64364015D01*
X114789653Y-64375566D01*
X114770711Y-64391111D01*
X114755166Y-64410053D01*
X114743615Y-64431664D01*
X114736502Y-64455113D01*
X114734100Y-64479499D01*
X114734100Y-64859500D01*
X113932100Y-64859500D01*
X113932100Y-63881243D01*
X113932585Y-63880336D01*
X113939698Y-63856887D01*
X113942100Y-63832501D01*
X113942100Y-59962500D01*
X118544100Y-59962500D01*
X118544100Y-63832501D01*
X118544100Y-63832501D01*
G37*
G36*
X179884000Y-64602000D02*
G01*
X178032000Y-64602000D01*
X178032000Y-63750000D01*
X179884000Y-63750000D01*
X179884000Y-64602000D01*
X179884000Y-64602000D01*
G37*
G36*
X183479000Y-63527500D02*
G01*
X182027000Y-63527500D01*
X182027000Y-62075500D01*
X183479000Y-62075500D01*
X183479000Y-63527500D01*
X183479000Y-63527500D01*
G37*
G36*
X123623662Y-61625681D02*
G01*
X123658581Y-61636274D01*
X123690763Y-61653476D01*
X123718973Y-61676627D01*
X123742124Y-61704837D01*
X123759326Y-61737019D01*
X123769919Y-61771938D01*
X123774100Y-61814395D01*
X123774100Y-63280605D01*
X123769919Y-63323062D01*
X123759326Y-63357981D01*
X123742124Y-63390163D01*
X123718973Y-63418373D01*
X123690763Y-63441524D01*
X123658581Y-63458726D01*
X123623662Y-63469319D01*
X123581205Y-63473500D01*
X122439995Y-63473500D01*
X122397538Y-63469319D01*
X122362619Y-63458726D01*
X122330437Y-63441524D01*
X122302227Y-63418373D01*
X122279076Y-63390163D01*
X122261874Y-63357981D01*
X122251281Y-63323062D01*
X122247100Y-63280605D01*
X122247100Y-61814395D01*
X122251281Y-61771938D01*
X122261874Y-61737019D01*
X122279076Y-61704837D01*
X122302227Y-61676627D01*
X122330437Y-61653476D01*
X122362619Y-61636274D01*
X122397538Y-61625681D01*
X122439995Y-61621500D01*
X123581205Y-61621500D01*
X123623662Y-61625681D01*
X123623662Y-61625681D01*
G37*
G36*
X126598662Y-61625681D02*
G01*
X126633581Y-61636274D01*
X126665763Y-61653476D01*
X126693973Y-61676627D01*
X126717124Y-61704837D01*
X126734326Y-61737019D01*
X126744919Y-61771938D01*
X126749100Y-61814395D01*
X126749100Y-63280605D01*
X126744919Y-63323062D01*
X126734326Y-63357981D01*
X126717124Y-63390163D01*
X126693973Y-63418373D01*
X126665763Y-63441524D01*
X126633581Y-63458726D01*
X126598662Y-63469319D01*
X126556205Y-63473500D01*
X125414995Y-63473500D01*
X125372538Y-63469319D01*
X125337619Y-63458726D01*
X125305437Y-63441524D01*
X125277227Y-63418373D01*
X125254076Y-63390163D01*
X125236874Y-63357981D01*
X125226281Y-63323062D01*
X125222100Y-63280605D01*
X125222100Y-61814395D01*
X125226281Y-61771938D01*
X125236874Y-61737019D01*
X125254076Y-61704837D01*
X125277227Y-61676627D01*
X125305437Y-61653476D01*
X125337619Y-61636274D01*
X125372538Y-61625681D01*
X125414995Y-61621500D01*
X126556205Y-61621500D01*
X126598662Y-61625681D01*
X126598662Y-61625681D01*
G37*
G36*
X193531313Y-61139202D02*
G01*
X193602421Y-61146205D01*
X193739272Y-61187719D01*
X193739275Y-61187720D01*
X193865394Y-61255132D01*
X193975943Y-61345857D01*
X194066668Y-61456406D01*
X194134080Y-61582525D01*
X194134081Y-61582528D01*
X194175595Y-61719379D01*
X194189612Y-61861700D01*
X194175595Y-62004021D01*
X194139547Y-62122852D01*
X194134080Y-62140875D01*
X194066668Y-62266994D01*
X193975943Y-62377543D01*
X193865394Y-62468268D01*
X193739275Y-62535680D01*
X193739272Y-62535681D01*
X193602421Y-62577195D01*
X193531313Y-62584198D01*
X193495760Y-62587700D01*
X193424440Y-62587700D01*
X193388887Y-62584198D01*
X193317779Y-62577195D01*
X193180928Y-62535681D01*
X193180925Y-62535680D01*
X193054806Y-62468268D01*
X192944257Y-62377543D01*
X192853532Y-62266994D01*
X192786120Y-62140875D01*
X192780653Y-62122852D01*
X192744605Y-62004021D01*
X192730588Y-61861700D01*
X192744605Y-61719379D01*
X192786119Y-61582528D01*
X192786120Y-61582525D01*
X192853532Y-61456406D01*
X192944257Y-61345857D01*
X193054806Y-61255132D01*
X193180925Y-61187720D01*
X193180928Y-61187719D01*
X193317779Y-61146205D01*
X193388887Y-61139202D01*
X193424440Y-61135700D01*
X193495760Y-61135700D01*
X193531313Y-61139202D01*
X193531313Y-61139202D01*
G37*
G36*
X202186100Y-62587700D02*
G01*
X200734100Y-62587700D01*
X200734100Y-61135700D01*
X202186100Y-61135700D01*
X202186100Y-62587700D01*
X202186100Y-62587700D01*
G37*
G36*
X199531313Y-61139202D02*
G01*
X199602421Y-61146205D01*
X199739272Y-61187719D01*
X199739275Y-61187720D01*
X199865394Y-61255132D01*
X199975943Y-61345857D01*
X200066668Y-61456406D01*
X200134080Y-61582525D01*
X200134081Y-61582528D01*
X200175595Y-61719379D01*
X200189612Y-61861700D01*
X200175595Y-62004021D01*
X200139547Y-62122852D01*
X200134080Y-62140875D01*
X200066668Y-62266994D01*
X199975943Y-62377543D01*
X199865394Y-62468268D01*
X199739275Y-62535680D01*
X199739272Y-62535681D01*
X199602421Y-62577195D01*
X199531313Y-62584198D01*
X199495760Y-62587700D01*
X199424440Y-62587700D01*
X199388887Y-62584198D01*
X199317779Y-62577195D01*
X199180928Y-62535681D01*
X199180925Y-62535680D01*
X199054806Y-62468268D01*
X198944257Y-62377543D01*
X198853532Y-62266994D01*
X198786120Y-62140875D01*
X198780653Y-62122852D01*
X198744605Y-62004021D01*
X198730588Y-61861700D01*
X198744605Y-61719379D01*
X198786119Y-61582528D01*
X198786120Y-61582525D01*
X198853532Y-61456406D01*
X198944257Y-61345857D01*
X199054806Y-61255132D01*
X199180925Y-61187720D01*
X199180928Y-61187719D01*
X199317779Y-61146205D01*
X199388887Y-61139202D01*
X199424440Y-61135700D01*
X199495760Y-61135700D01*
X199531313Y-61139202D01*
X199531313Y-61139202D01*
G37*
G36*
X197531313Y-61139202D02*
G01*
X197602421Y-61146205D01*
X197739272Y-61187719D01*
X197739275Y-61187720D01*
X197865394Y-61255132D01*
X197975943Y-61345857D01*
X198066668Y-61456406D01*
X198134080Y-61582525D01*
X198134081Y-61582528D01*
X198175595Y-61719379D01*
X198189612Y-61861700D01*
X198175595Y-62004021D01*
X198139547Y-62122852D01*
X198134080Y-62140875D01*
X198066668Y-62266994D01*
X197975943Y-62377543D01*
X197865394Y-62468268D01*
X197739275Y-62535680D01*
X197739272Y-62535681D01*
X197602421Y-62577195D01*
X197531313Y-62584198D01*
X197495760Y-62587700D01*
X197424440Y-62587700D01*
X197388887Y-62584198D01*
X197317779Y-62577195D01*
X197180928Y-62535681D01*
X197180925Y-62535680D01*
X197054806Y-62468268D01*
X196944257Y-62377543D01*
X196853532Y-62266994D01*
X196786120Y-62140875D01*
X196780653Y-62122852D01*
X196744605Y-62004021D01*
X196730588Y-61861700D01*
X196744605Y-61719379D01*
X196786119Y-61582528D01*
X196786120Y-61582525D01*
X196853532Y-61456406D01*
X196944257Y-61345857D01*
X197054806Y-61255132D01*
X197180925Y-61187720D01*
X197180928Y-61187719D01*
X197317779Y-61146205D01*
X197388887Y-61139202D01*
X197424440Y-61135700D01*
X197495760Y-61135700D01*
X197531313Y-61139202D01*
X197531313Y-61139202D01*
G37*
G36*
X195531313Y-61139202D02*
G01*
X195602421Y-61146205D01*
X195739272Y-61187719D01*
X195739275Y-61187720D01*
X195865394Y-61255132D01*
X195975943Y-61345857D01*
X196066668Y-61456406D01*
X196134080Y-61582525D01*
X196134081Y-61582528D01*
X196175595Y-61719379D01*
X196189612Y-61861700D01*
X196175595Y-62004021D01*
X196139547Y-62122852D01*
X196134080Y-62140875D01*
X196066668Y-62266994D01*
X195975943Y-62377543D01*
X195865394Y-62468268D01*
X195739275Y-62535680D01*
X195739272Y-62535681D01*
X195602421Y-62577195D01*
X195531313Y-62584198D01*
X195495760Y-62587700D01*
X195424440Y-62587700D01*
X195388887Y-62584198D01*
X195317779Y-62577195D01*
X195180928Y-62535681D01*
X195180925Y-62535680D01*
X195054806Y-62468268D01*
X194944257Y-62377543D01*
X194853532Y-62266994D01*
X194786120Y-62140875D01*
X194780653Y-62122852D01*
X194744605Y-62004021D01*
X194730588Y-61861700D01*
X194744605Y-61719379D01*
X194786119Y-61582528D01*
X194786120Y-61582525D01*
X194853532Y-61456406D01*
X194944257Y-61345857D01*
X195054806Y-61255132D01*
X195180925Y-61187720D01*
X195180928Y-61187719D01*
X195317779Y-61146205D01*
X195388887Y-61139202D01*
X195424440Y-61135700D01*
X195495760Y-61135700D01*
X195531313Y-61139202D01*
X195531313Y-61139202D01*
G37*
G36*
X209436562Y-60999181D02*
G01*
X209471481Y-61009774D01*
X209503663Y-61026976D01*
X209531873Y-61050127D01*
X209555024Y-61078337D01*
X209572226Y-61110519D01*
X209582819Y-61145438D01*
X209587000Y-61187895D01*
X209587000Y-62329105D01*
X209582819Y-62371562D01*
X209572226Y-62406481D01*
X209555024Y-62438663D01*
X209531873Y-62466873D01*
X209503663Y-62490024D01*
X209471481Y-62507226D01*
X209436562Y-62517819D01*
X209394105Y-62522000D01*
X207927895Y-62522000D01*
X207885438Y-62517819D01*
X207850519Y-62507226D01*
X207818337Y-62490024D01*
X207790127Y-62466873D01*
X207766976Y-62438663D01*
X207749774Y-62406481D01*
X207739181Y-62371562D01*
X207735000Y-62329105D01*
X207735000Y-61187895D01*
X207739181Y-61145438D01*
X207749774Y-61110519D01*
X207766976Y-61078337D01*
X207790127Y-61050127D01*
X207818337Y-61026976D01*
X207850519Y-61009774D01*
X207885438Y-60999181D01*
X207927895Y-60995000D01*
X209394105Y-60995000D01*
X209436562Y-60999181D01*
X209436562Y-60999181D01*
G37*
G36*
X205499562Y-60645181D02*
G01*
X205534481Y-60655774D01*
X205566663Y-60672976D01*
X205594873Y-60696127D01*
X205618024Y-60724337D01*
X205635226Y-60756519D01*
X205645819Y-60791438D01*
X205650000Y-60833895D01*
X205650000Y-61975105D01*
X205645819Y-62017562D01*
X205635226Y-62052481D01*
X205618024Y-62084663D01*
X205594873Y-62112873D01*
X205566663Y-62136024D01*
X205534481Y-62153226D01*
X205499562Y-62163819D01*
X205457105Y-62168000D01*
X203990895Y-62168000D01*
X203948438Y-62163819D01*
X203913519Y-62153226D01*
X203881337Y-62136024D01*
X203853127Y-62112873D01*
X203829976Y-62084663D01*
X203812774Y-62052481D01*
X203802181Y-62017562D01*
X203798000Y-61975105D01*
X203798000Y-60833895D01*
X203802181Y-60791438D01*
X203812774Y-60756519D01*
X203829976Y-60724337D01*
X203853127Y-60696127D01*
X203881337Y-60672976D01*
X203913519Y-60655774D01*
X203948438Y-60645181D01*
X203990895Y-60641000D01*
X205457105Y-60641000D01*
X205499562Y-60645181D01*
X205499562Y-60645181D01*
G37*
G36*
X163335562Y-59973681D02*
G01*
X163370481Y-59984274D01*
X163402663Y-60001476D01*
X163430873Y-60024627D01*
X163454024Y-60052837D01*
X163471226Y-60085019D01*
X163481819Y-60119938D01*
X163486000Y-60162395D01*
X163486000Y-61303605D01*
X163481819Y-61346062D01*
X163471226Y-61380981D01*
X163454024Y-61413163D01*
X163430873Y-61441373D01*
X163402663Y-61464524D01*
X163370481Y-61481726D01*
X163335562Y-61492319D01*
X163293105Y-61496500D01*
X161826895Y-61496500D01*
X161784438Y-61492319D01*
X161749519Y-61481726D01*
X161717337Y-61464524D01*
X161689127Y-61441373D01*
X161665976Y-61413163D01*
X161648774Y-61380981D01*
X161638181Y-61346062D01*
X161634000Y-61303605D01*
X161634000Y-60162395D01*
X161638181Y-60119938D01*
X161648774Y-60085019D01*
X161665976Y-60052837D01*
X161689127Y-60024627D01*
X161717337Y-60001476D01*
X161749519Y-59984274D01*
X161784438Y-59973681D01*
X161826895Y-59969500D01*
X163293105Y-59969500D01*
X163335562Y-59973681D01*
X163335562Y-59973681D01*
G37*
G36*
X189497562Y-59810181D02*
G01*
X189532481Y-59820774D01*
X189564663Y-59837976D01*
X189592873Y-59861127D01*
X189616024Y-59889337D01*
X189633226Y-59921519D01*
X189643819Y-59956438D01*
X189648000Y-59998895D01*
X189648000Y-61140105D01*
X189643819Y-61182562D01*
X189633226Y-61217481D01*
X189616024Y-61249663D01*
X189592873Y-61277873D01*
X189564663Y-61301024D01*
X189532481Y-61318226D01*
X189497562Y-61328819D01*
X189455105Y-61333000D01*
X187988895Y-61333000D01*
X187946438Y-61328819D01*
X187911519Y-61318226D01*
X187879337Y-61301024D01*
X187851127Y-61277873D01*
X187827976Y-61249663D01*
X187810774Y-61217481D01*
X187800181Y-61182562D01*
X187796000Y-61140105D01*
X187796000Y-59998895D01*
X187800181Y-59956438D01*
X187810774Y-59921519D01*
X187827976Y-59889337D01*
X187851127Y-59861127D01*
X187879337Y-59837976D01*
X187911519Y-59820774D01*
X187946438Y-59810181D01*
X187988895Y-59806000D01*
X189455105Y-59806000D01*
X189497562Y-59810181D01*
X189497562Y-59810181D01*
G37*
G36*
X182385562Y-59429181D02*
G01*
X182420481Y-59439774D01*
X182452663Y-59456976D01*
X182480873Y-59480127D01*
X182504024Y-59508337D01*
X182521226Y-59540519D01*
X182531819Y-59575438D01*
X182536000Y-59617895D01*
X182536000Y-60759105D01*
X182531819Y-60801562D01*
X182521226Y-60836481D01*
X182504024Y-60868663D01*
X182480873Y-60896873D01*
X182452663Y-60920024D01*
X182420481Y-60937226D01*
X182385562Y-60947819D01*
X182343105Y-60952000D01*
X180876895Y-60952000D01*
X180834438Y-60947819D01*
X180799519Y-60937226D01*
X180767337Y-60920024D01*
X180739127Y-60896873D01*
X180715976Y-60868663D01*
X180698774Y-60836481D01*
X180688181Y-60801562D01*
X180684000Y-60759105D01*
X180684000Y-59617895D01*
X180688181Y-59575438D01*
X180698774Y-59540519D01*
X180715976Y-59508337D01*
X180739127Y-59480127D01*
X180767337Y-59456976D01*
X180799519Y-59439774D01*
X180834438Y-59429181D01*
X180876895Y-59425000D01*
X182343105Y-59425000D01*
X182385562Y-59429181D01*
X182385562Y-59429181D01*
G37*
G36*
X121769700Y-60479500D02*
G01*
X120317700Y-60479500D01*
X120317700Y-59027500D01*
X121769700Y-59027500D01*
X121769700Y-60479500D01*
X121769700Y-60479500D01*
G37*
G36*
X209436562Y-58349681D02*
G01*
X209471481Y-58360274D01*
X209503663Y-58377476D01*
X209531873Y-58400627D01*
X209555024Y-58428837D01*
X209572226Y-58461019D01*
X209582819Y-58495938D01*
X209587000Y-58538395D01*
X209587000Y-59679605D01*
X209582819Y-59722062D01*
X209572226Y-59756981D01*
X209555024Y-59789163D01*
X209531873Y-59817373D01*
X209503663Y-59840524D01*
X209471481Y-59857726D01*
X209436562Y-59868319D01*
X209394105Y-59872500D01*
X207927895Y-59872500D01*
X207885438Y-59868319D01*
X207850519Y-59857726D01*
X207818337Y-59840524D01*
X207790127Y-59817373D01*
X207766976Y-59789163D01*
X207749774Y-59756981D01*
X207739181Y-59722062D01*
X207735000Y-59679605D01*
X207735000Y-58538395D01*
X207739181Y-58495938D01*
X207749774Y-58461019D01*
X207766976Y-58428837D01*
X207790127Y-58400627D01*
X207818337Y-58377476D01*
X207850519Y-58360274D01*
X207885438Y-58349681D01*
X207927895Y-58345500D01*
X209394105Y-58345500D01*
X209436562Y-58349681D01*
X209436562Y-58349681D01*
G37*
G36*
X114734100Y-59359500D02*
G01*
X113932100Y-59359500D01*
X113932100Y-58457500D01*
X114734100Y-58457500D01*
X114734100Y-59359500D01*
X114734100Y-59359500D01*
G37*
G36*
X116004100Y-59359500D02*
G01*
X115202100Y-59359500D01*
X115202100Y-58457500D01*
X116004100Y-58457500D01*
X116004100Y-59359500D01*
X116004100Y-59359500D01*
G37*
G36*
X117284100Y-59359500D02*
G01*
X116482100Y-59359500D01*
X116482100Y-58457500D01*
X117284100Y-58457500D01*
X117284100Y-59359500D01*
X117284100Y-59359500D01*
G37*
G36*
X118554100Y-59359500D02*
G01*
X117752100Y-59359500D01*
X117752100Y-58457500D01*
X118554100Y-58457500D01*
X118554100Y-59359500D01*
X118554100Y-59359500D01*
G37*
G36*
X205438674Y-57553465D02*
G01*
X205476367Y-57564899D01*
X205511103Y-57583466D01*
X205541548Y-57608452D01*
X205566534Y-57638897D01*
X205585101Y-57673633D01*
X205596535Y-57711326D01*
X205601000Y-57756661D01*
X205601000Y-58593339D01*
X205596535Y-58638674D01*
X205585101Y-58676367D01*
X205566534Y-58711103D01*
X205541548Y-58741548D01*
X205511103Y-58766534D01*
X205476367Y-58785101D01*
X205438674Y-58796535D01*
X205393339Y-58801000D01*
X204306661Y-58801000D01*
X204261326Y-58796535D01*
X204223633Y-58785101D01*
X204188897Y-58766534D01*
X204158452Y-58741548D01*
X204133466Y-58711103D01*
X204114899Y-58676367D01*
X204103465Y-58638674D01*
X204099000Y-58593339D01*
X204099000Y-57756661D01*
X204103465Y-57711326D01*
X204114899Y-57673633D01*
X204133466Y-57638897D01*
X204158452Y-57608452D01*
X204188897Y-57583466D01*
X204223633Y-57564899D01*
X204261326Y-57553465D01*
X204306661Y-57549000D01*
X205393339Y-57549000D01*
X205438674Y-57553465D01*
X205438674Y-57553465D01*
G37*
G36*
X163335562Y-56998681D02*
G01*
X163370481Y-57009274D01*
X163402663Y-57026476D01*
X163430873Y-57049627D01*
X163454024Y-57077837D01*
X163471226Y-57110019D01*
X163481819Y-57144938D01*
X163486000Y-57187395D01*
X163486000Y-58328605D01*
X163481819Y-58371062D01*
X163471226Y-58405981D01*
X163454024Y-58438163D01*
X163430873Y-58466373D01*
X163402663Y-58489524D01*
X163370481Y-58506726D01*
X163335562Y-58517319D01*
X163293105Y-58521500D01*
X161826895Y-58521500D01*
X161784438Y-58517319D01*
X161749519Y-58506726D01*
X161717337Y-58489524D01*
X161689127Y-58466373D01*
X161665976Y-58438163D01*
X161648774Y-58405981D01*
X161638181Y-58371062D01*
X161634000Y-58328605D01*
X161634000Y-57187395D01*
X161638181Y-57144938D01*
X161648774Y-57110019D01*
X161665976Y-57077837D01*
X161689127Y-57049627D01*
X161717337Y-57026476D01*
X161749519Y-57009274D01*
X161784438Y-56998681D01*
X161826895Y-56994500D01*
X163293105Y-56994500D01*
X163335562Y-56998681D01*
X163335562Y-56998681D01*
G37*
G36*
X192672562Y-56925681D02*
G01*
X192707481Y-56936274D01*
X192739663Y-56953476D01*
X192767873Y-56976627D01*
X192791024Y-57004837D01*
X192808226Y-57037019D01*
X192818819Y-57071938D01*
X192823000Y-57114395D01*
X192823000Y-58255605D01*
X192818819Y-58298062D01*
X192808226Y-58332981D01*
X192791024Y-58365163D01*
X192767873Y-58393373D01*
X192739663Y-58416524D01*
X192707481Y-58433726D01*
X192672562Y-58444319D01*
X192630105Y-58448500D01*
X191163895Y-58448500D01*
X191121438Y-58444319D01*
X191086519Y-58433726D01*
X191054337Y-58416524D01*
X191026127Y-58393373D01*
X191002976Y-58365163D01*
X190985774Y-58332981D01*
X190975181Y-58298062D01*
X190971000Y-58255605D01*
X190971000Y-57114395D01*
X190975181Y-57071938D01*
X190985774Y-57037019D01*
X191002976Y-57004837D01*
X191026127Y-56976627D01*
X191054337Y-56953476D01*
X191086519Y-56936274D01*
X191121438Y-56925681D01*
X191163895Y-56921500D01*
X192630105Y-56921500D01*
X192672562Y-56925681D01*
X192672562Y-56925681D01*
G37*
G36*
X189497562Y-56835181D02*
G01*
X189532481Y-56845774D01*
X189564663Y-56862976D01*
X189592873Y-56886127D01*
X189616024Y-56914337D01*
X189633226Y-56946519D01*
X189643819Y-56981438D01*
X189648000Y-57023895D01*
X189648000Y-58165105D01*
X189643819Y-58207562D01*
X189633226Y-58242481D01*
X189616024Y-58274663D01*
X189592873Y-58302873D01*
X189564663Y-58326024D01*
X189532481Y-58343226D01*
X189497562Y-58353819D01*
X189455105Y-58358000D01*
X187988895Y-58358000D01*
X187946438Y-58353819D01*
X187911519Y-58343226D01*
X187879337Y-58326024D01*
X187851127Y-58302873D01*
X187827976Y-58274663D01*
X187810774Y-58242481D01*
X187800181Y-58207562D01*
X187796000Y-58165105D01*
X187796000Y-57023895D01*
X187800181Y-56981438D01*
X187810774Y-56946519D01*
X187827976Y-56914337D01*
X187851127Y-56886127D01*
X187879337Y-56862976D01*
X187911519Y-56845774D01*
X187946438Y-56835181D01*
X187988895Y-56831000D01*
X189455105Y-56831000D01*
X189497562Y-56835181D01*
X189497562Y-56835181D01*
G37*
G36*
X182385562Y-56454181D02*
G01*
X182420481Y-56464774D01*
X182452663Y-56481976D01*
X182480873Y-56505127D01*
X182504024Y-56533337D01*
X182521226Y-56565519D01*
X182531819Y-56600438D01*
X182536000Y-56642895D01*
X182536000Y-57784105D01*
X182531819Y-57826562D01*
X182521226Y-57861481D01*
X182504024Y-57893663D01*
X182480873Y-57921873D01*
X182452663Y-57945024D01*
X182420481Y-57962226D01*
X182385562Y-57972819D01*
X182343105Y-57977000D01*
X180876895Y-57977000D01*
X180834438Y-57972819D01*
X180799519Y-57962226D01*
X180767337Y-57945024D01*
X180739127Y-57921873D01*
X180715976Y-57893663D01*
X180698774Y-57861481D01*
X180688181Y-57826562D01*
X180684000Y-57784105D01*
X180684000Y-56642895D01*
X180688181Y-56600438D01*
X180698774Y-56565519D01*
X180715976Y-56533337D01*
X180739127Y-56505127D01*
X180767337Y-56481976D01*
X180799519Y-56464774D01*
X180834438Y-56454181D01*
X180876895Y-56450000D01*
X182343105Y-56450000D01*
X182385562Y-56454181D01*
X182385562Y-56454181D01*
G37*
G36*
X196859328Y-56966864D02*
G01*
X196880409Y-56973260D01*
X196899845Y-56983648D01*
X196916876Y-56997624D01*
X196930852Y-57014655D01*
X196941240Y-57034091D01*
X196947636Y-57055172D01*
X196950400Y-57083240D01*
X196950400Y-57546960D01*
X196947636Y-57575028D01*
X196941240Y-57596109D01*
X196930852Y-57615545D01*
X196916876Y-57632576D01*
X196899845Y-57646552D01*
X196880409Y-57656940D01*
X196859328Y-57663336D01*
X196831260Y-57666100D01*
X195017540Y-57666100D01*
X194989472Y-57663336D01*
X194968391Y-57656940D01*
X194948955Y-57646552D01*
X194931924Y-57632576D01*
X194917948Y-57615545D01*
X194907560Y-57596109D01*
X194901164Y-57575028D01*
X194898400Y-57546960D01*
X194898400Y-57083240D01*
X194901164Y-57055172D01*
X194907560Y-57034091D01*
X194917948Y-57014655D01*
X194931924Y-56997624D01*
X194948955Y-56983648D01*
X194968391Y-56973260D01*
X194989472Y-56966864D01*
X195017540Y-56964100D01*
X196831260Y-56964100D01*
X196859328Y-56966864D01*
X196859328Y-56966864D01*
G37*
G36*
X201809328Y-56966864D02*
G01*
X201830409Y-56973260D01*
X201849845Y-56983648D01*
X201866876Y-56997624D01*
X201880852Y-57014655D01*
X201891240Y-57034091D01*
X201897636Y-57055172D01*
X201900400Y-57083240D01*
X201900400Y-57546960D01*
X201897636Y-57575028D01*
X201891240Y-57596109D01*
X201880852Y-57615545D01*
X201866876Y-57632576D01*
X201849845Y-57646552D01*
X201830409Y-57656940D01*
X201809328Y-57663336D01*
X201781260Y-57666100D01*
X199967540Y-57666100D01*
X199939472Y-57663336D01*
X199918391Y-57656940D01*
X199898955Y-57646552D01*
X199881924Y-57632576D01*
X199867948Y-57615545D01*
X199857560Y-57596109D01*
X199851164Y-57575028D01*
X199848400Y-57546960D01*
X199848400Y-57083240D01*
X199851164Y-57055172D01*
X199857560Y-57034091D01*
X199867948Y-57014655D01*
X199881924Y-56997624D01*
X199898955Y-56983648D01*
X199918391Y-56973260D01*
X199939472Y-56966864D01*
X199967540Y-56964100D01*
X201781260Y-56964100D01*
X201809328Y-56966864D01*
X201809328Y-56966864D01*
G37*
G36*
X178809628Y-56941464D02*
G01*
X178830709Y-56947860D01*
X178850145Y-56958248D01*
X178867176Y-56972224D01*
X178881152Y-56989255D01*
X178891540Y-57008691D01*
X178897936Y-57029772D01*
X178900700Y-57057840D01*
X178900700Y-57521560D01*
X178897936Y-57549628D01*
X178891540Y-57570709D01*
X178881152Y-57590145D01*
X178867176Y-57607176D01*
X178850145Y-57621152D01*
X178830709Y-57631540D01*
X178809628Y-57637936D01*
X178781560Y-57640700D01*
X176967840Y-57640700D01*
X176939772Y-57637936D01*
X176918691Y-57631540D01*
X176899255Y-57621152D01*
X176882224Y-57607176D01*
X176868248Y-57590145D01*
X176857860Y-57570709D01*
X176851464Y-57549628D01*
X176848700Y-57521560D01*
X176848700Y-57057840D01*
X176851464Y-57029772D01*
X176857860Y-57008691D01*
X176868248Y-56989255D01*
X176882224Y-56972224D01*
X176899255Y-56958248D01*
X176918691Y-56947860D01*
X176939772Y-56941464D01*
X176967840Y-56938700D01*
X178781560Y-56938700D01*
X178809628Y-56941464D01*
X178809628Y-56941464D01*
G37*
G36*
X173859628Y-56941464D02*
G01*
X173880709Y-56947860D01*
X173900145Y-56958248D01*
X173917176Y-56972224D01*
X173931152Y-56989255D01*
X173941540Y-57008691D01*
X173947936Y-57029772D01*
X173950700Y-57057840D01*
X173950700Y-57521560D01*
X173947936Y-57549628D01*
X173941540Y-57570709D01*
X173931152Y-57590145D01*
X173917176Y-57607176D01*
X173900145Y-57621152D01*
X173880709Y-57631540D01*
X173859628Y-57637936D01*
X173831560Y-57640700D01*
X172017840Y-57640700D01*
X171989772Y-57637936D01*
X171968691Y-57631540D01*
X171949255Y-57621152D01*
X171932224Y-57607176D01*
X171918248Y-57590145D01*
X171907860Y-57570709D01*
X171901464Y-57549628D01*
X171898700Y-57521560D01*
X171898700Y-57057840D01*
X171901464Y-57029772D01*
X171907860Y-57008691D01*
X171918248Y-56989255D01*
X171932224Y-56972224D01*
X171949255Y-56958248D01*
X171968691Y-56947860D01*
X171989772Y-56941464D01*
X172017840Y-56938700D01*
X173831560Y-56938700D01*
X173859628Y-56941464D01*
X173859628Y-56941464D01*
G37*
G36*
X199463736Y-53862833D02*
G01*
X199494283Y-53872099D01*
X199522433Y-53887146D01*
X199547106Y-53907394D01*
X199567354Y-53932067D01*
X199582401Y-53960217D01*
X199591667Y-53990764D01*
X199595400Y-54028667D01*
X199595400Y-56791533D01*
X199591667Y-56829436D01*
X199582401Y-56859983D01*
X199567354Y-56888133D01*
X199547106Y-56912806D01*
X199522433Y-56933054D01*
X199494283Y-56948101D01*
X199463736Y-56957367D01*
X199425833Y-56961100D01*
X197372967Y-56961100D01*
X197335064Y-56957367D01*
X197304517Y-56948101D01*
X197276367Y-56933054D01*
X197251694Y-56912806D01*
X197231446Y-56888133D01*
X197216399Y-56859983D01*
X197207133Y-56829436D01*
X197203400Y-56791533D01*
X197203400Y-54028667D01*
X197207133Y-53990764D01*
X197216399Y-53960217D01*
X197231446Y-53932067D01*
X197251694Y-53907394D01*
X197276367Y-53887146D01*
X197304517Y-53872099D01*
X197335064Y-53862833D01*
X197372967Y-53859100D01*
X199425833Y-53859100D01*
X199463736Y-53862833D01*
X199463736Y-53862833D01*
G37*
G36*
X176464036Y-53837433D02*
G01*
X176494583Y-53846699D01*
X176522733Y-53861746D01*
X176547406Y-53881994D01*
X176567654Y-53906667D01*
X176582701Y-53934817D01*
X176591967Y-53965364D01*
X176595700Y-54003267D01*
X176595700Y-56766133D01*
X176591967Y-56804036D01*
X176582701Y-56834583D01*
X176567654Y-56862733D01*
X176547406Y-56887406D01*
X176522733Y-56907654D01*
X176494583Y-56922701D01*
X176464036Y-56931967D01*
X176426133Y-56935700D01*
X174373267Y-56935700D01*
X174335364Y-56931967D01*
X174304817Y-56922701D01*
X174276667Y-56907654D01*
X174251994Y-56887406D01*
X174231746Y-56862733D01*
X174216699Y-56834583D01*
X174207433Y-56804036D01*
X174203700Y-56766133D01*
X174203700Y-54003267D01*
X174207433Y-53965364D01*
X174216699Y-53934817D01*
X174231746Y-53906667D01*
X174251994Y-53881994D01*
X174276667Y-53861746D01*
X174304817Y-53846699D01*
X174335364Y-53837433D01*
X174373267Y-53833700D01*
X176426133Y-53833700D01*
X176464036Y-53837433D01*
X176464036Y-53837433D01*
G37*
G36*
X209436562Y-55374681D02*
G01*
X209471481Y-55385274D01*
X209503663Y-55402476D01*
X209531873Y-55425627D01*
X209555024Y-55453837D01*
X209572226Y-55486019D01*
X209582819Y-55520938D01*
X209587000Y-55563395D01*
X209587000Y-56704605D01*
X209582819Y-56747062D01*
X209572226Y-56781981D01*
X209555024Y-56814163D01*
X209531873Y-56842373D01*
X209503663Y-56865524D01*
X209471481Y-56882726D01*
X209436562Y-56893319D01*
X209394105Y-56897500D01*
X207927895Y-56897500D01*
X207885438Y-56893319D01*
X207850519Y-56882726D01*
X207818337Y-56865524D01*
X207790127Y-56842373D01*
X207766976Y-56814163D01*
X207749774Y-56781981D01*
X207739181Y-56747062D01*
X207735000Y-56704605D01*
X207735000Y-55563395D01*
X207739181Y-55520938D01*
X207749774Y-55486019D01*
X207766976Y-55453837D01*
X207790127Y-55425627D01*
X207818337Y-55402476D01*
X207850519Y-55385274D01*
X207885438Y-55374681D01*
X207927895Y-55370500D01*
X209394105Y-55370500D01*
X209436562Y-55374681D01*
X209436562Y-55374681D01*
G37*
G36*
X205438674Y-55503465D02*
G01*
X205476367Y-55514899D01*
X205511103Y-55533466D01*
X205541548Y-55558452D01*
X205566534Y-55588897D01*
X205585101Y-55623633D01*
X205596535Y-55661326D01*
X205601000Y-55706661D01*
X205601000Y-56543339D01*
X205596535Y-56588674D01*
X205585101Y-56626367D01*
X205566534Y-56661103D01*
X205541548Y-56691548D01*
X205511103Y-56716534D01*
X205476367Y-56735101D01*
X205438674Y-56746535D01*
X205393339Y-56751000D01*
X204306661Y-56751000D01*
X204261326Y-56746535D01*
X204223633Y-56735101D01*
X204188897Y-56716534D01*
X204158452Y-56691548D01*
X204133466Y-56661103D01*
X204114899Y-56626367D01*
X204103465Y-56588674D01*
X204099000Y-56543339D01*
X204099000Y-55706661D01*
X204103465Y-55661326D01*
X204114899Y-55623633D01*
X204133466Y-55588897D01*
X204158452Y-55558452D01*
X204188897Y-55533466D01*
X204223633Y-55514899D01*
X204261326Y-55503465D01*
X204306661Y-55499000D01*
X205393339Y-55499000D01*
X205438674Y-55503465D01*
X205438674Y-55503465D01*
G37*
G36*
X196859328Y-55696864D02*
G01*
X196880409Y-55703260D01*
X196899845Y-55713648D01*
X196916876Y-55727624D01*
X196930852Y-55744655D01*
X196941240Y-55764091D01*
X196947636Y-55785172D01*
X196950400Y-55813240D01*
X196950400Y-56276960D01*
X196947636Y-56305028D01*
X196941240Y-56326109D01*
X196930852Y-56345545D01*
X196916876Y-56362576D01*
X196899845Y-56376552D01*
X196880409Y-56386940D01*
X196859328Y-56393336D01*
X196831260Y-56396100D01*
X195017540Y-56396100D01*
X194989472Y-56393336D01*
X194968391Y-56386940D01*
X194948955Y-56376552D01*
X194931924Y-56362576D01*
X194917948Y-56345545D01*
X194907560Y-56326109D01*
X194901164Y-56305028D01*
X194898400Y-56276960D01*
X194898400Y-55813240D01*
X194901164Y-55785172D01*
X194907560Y-55764091D01*
X194917948Y-55744655D01*
X194931924Y-55727624D01*
X194948955Y-55713648D01*
X194968391Y-55703260D01*
X194989472Y-55696864D01*
X195017540Y-55694100D01*
X196831260Y-55694100D01*
X196859328Y-55696864D01*
X196859328Y-55696864D01*
G37*
G36*
X201809328Y-55696864D02*
G01*
X201830409Y-55703260D01*
X201849845Y-55713648D01*
X201866876Y-55727624D01*
X201880852Y-55744655D01*
X201891240Y-55764091D01*
X201897636Y-55785172D01*
X201900400Y-55813240D01*
X201900400Y-56276960D01*
X201897636Y-56305028D01*
X201891240Y-56326109D01*
X201880852Y-56345545D01*
X201866876Y-56362576D01*
X201849845Y-56376552D01*
X201830409Y-56386940D01*
X201809328Y-56393336D01*
X201781260Y-56396100D01*
X199967540Y-56396100D01*
X199939472Y-56393336D01*
X199918391Y-56386940D01*
X199898955Y-56376552D01*
X199881924Y-56362576D01*
X199867948Y-56345545D01*
X199857560Y-56326109D01*
X199851164Y-56305028D01*
X199848400Y-56276960D01*
X199848400Y-55813240D01*
X199851164Y-55785172D01*
X199857560Y-55764091D01*
X199867948Y-55744655D01*
X199881924Y-55727624D01*
X199898955Y-55713648D01*
X199918391Y-55703260D01*
X199939472Y-55696864D01*
X199967540Y-55694100D01*
X201781260Y-55694100D01*
X201809328Y-55696864D01*
X201809328Y-55696864D01*
G37*
G36*
X173859628Y-55671464D02*
G01*
X173880709Y-55677860D01*
X173900145Y-55688248D01*
X173917176Y-55702224D01*
X173931152Y-55719255D01*
X173941540Y-55738691D01*
X173947936Y-55759772D01*
X173950700Y-55787840D01*
X173950700Y-56251560D01*
X173947936Y-56279628D01*
X173941540Y-56300709D01*
X173931152Y-56320145D01*
X173917176Y-56337176D01*
X173900145Y-56351152D01*
X173880709Y-56361540D01*
X173859628Y-56367936D01*
X173831560Y-56370700D01*
X172017840Y-56370700D01*
X171989772Y-56367936D01*
X171968691Y-56361540D01*
X171949255Y-56351152D01*
X171932224Y-56337176D01*
X171918248Y-56320145D01*
X171907860Y-56300709D01*
X171901464Y-56279628D01*
X171898700Y-56251560D01*
X171898700Y-55787840D01*
X171901464Y-55759772D01*
X171907860Y-55738691D01*
X171918248Y-55719255D01*
X171932224Y-55702224D01*
X171949255Y-55688248D01*
X171968691Y-55677860D01*
X171989772Y-55671464D01*
X172017840Y-55668700D01*
X173831560Y-55668700D01*
X173859628Y-55671464D01*
X173859628Y-55671464D01*
G37*
G36*
X178809628Y-55671464D02*
G01*
X178830709Y-55677860D01*
X178850145Y-55688248D01*
X178867176Y-55702224D01*
X178881152Y-55719255D01*
X178891540Y-55738691D01*
X178897936Y-55759772D01*
X178900700Y-55787840D01*
X178900700Y-56251560D01*
X178897936Y-56279628D01*
X178891540Y-56300709D01*
X178881152Y-56320145D01*
X178867176Y-56337176D01*
X178850145Y-56351152D01*
X178830709Y-56361540D01*
X178809628Y-56367936D01*
X178781560Y-56370700D01*
X176967840Y-56370700D01*
X176939772Y-56367936D01*
X176918691Y-56361540D01*
X176899255Y-56351152D01*
X176882224Y-56337176D01*
X176868248Y-56320145D01*
X176857860Y-56300709D01*
X176851464Y-56279628D01*
X176848700Y-56251560D01*
X176848700Y-55787840D01*
X176851464Y-55759772D01*
X176857860Y-55738691D01*
X176868248Y-55719255D01*
X176882224Y-55702224D01*
X176899255Y-55688248D01*
X176918691Y-55677860D01*
X176939772Y-55671464D01*
X176967840Y-55668700D01*
X178781560Y-55668700D01*
X178809628Y-55671464D01*
X178809628Y-55671464D01*
G37*
G36*
X187084562Y-54004681D02*
G01*
X187119481Y-54015274D01*
X187151663Y-54032476D01*
X187179873Y-54055627D01*
X187203024Y-54083837D01*
X187220226Y-54116019D01*
X187230819Y-54150938D01*
X187235000Y-54193395D01*
X187235000Y-55334605D01*
X187230819Y-55377062D01*
X187220226Y-55411981D01*
X187203024Y-55444163D01*
X187179873Y-55472373D01*
X187151663Y-55495524D01*
X187119481Y-55512726D01*
X187084562Y-55523319D01*
X187042105Y-55527500D01*
X185575895Y-55527500D01*
X185533438Y-55523319D01*
X185498519Y-55512726D01*
X185466337Y-55495524D01*
X185438127Y-55472373D01*
X185414976Y-55444163D01*
X185397774Y-55411981D01*
X185387181Y-55377062D01*
X185383000Y-55334605D01*
X185383000Y-54193395D01*
X185387181Y-54150938D01*
X185397774Y-54116019D01*
X185414976Y-54083837D01*
X185438127Y-54055627D01*
X185466337Y-54032476D01*
X185498519Y-54015274D01*
X185533438Y-54004681D01*
X185575895Y-54000500D01*
X187042105Y-54000500D01*
X187084562Y-54004681D01*
X187084562Y-54004681D01*
G37*
G36*
X192672562Y-53950681D02*
G01*
X192707481Y-53961274D01*
X192739663Y-53978476D01*
X192767873Y-54001627D01*
X192791024Y-54029837D01*
X192808226Y-54062019D01*
X192818819Y-54096938D01*
X192823000Y-54139395D01*
X192823000Y-55280605D01*
X192818819Y-55323062D01*
X192808226Y-55357981D01*
X192791024Y-55390163D01*
X192767873Y-55418373D01*
X192739663Y-55441524D01*
X192707481Y-55458726D01*
X192672562Y-55469319D01*
X192630105Y-55473500D01*
X191163895Y-55473500D01*
X191121438Y-55469319D01*
X191086519Y-55458726D01*
X191054337Y-55441524D01*
X191026127Y-55418373D01*
X191002976Y-55390163D01*
X190985774Y-55357981D01*
X190975181Y-55323062D01*
X190971000Y-55280605D01*
X190971000Y-54139395D01*
X190975181Y-54096938D01*
X190985774Y-54062019D01*
X191002976Y-54029837D01*
X191026127Y-54001627D01*
X191054337Y-53978476D01*
X191086519Y-53961274D01*
X191121438Y-53950681D01*
X191163895Y-53946500D01*
X192630105Y-53946500D01*
X192672562Y-53950681D01*
X192672562Y-53950681D01*
G37*
G36*
X163335562Y-53660181D02*
G01*
X163370481Y-53670774D01*
X163402663Y-53687976D01*
X163430873Y-53711127D01*
X163454024Y-53739337D01*
X163471226Y-53771519D01*
X163481819Y-53806438D01*
X163486000Y-53848895D01*
X163486000Y-54990105D01*
X163481819Y-55032562D01*
X163471226Y-55067481D01*
X163454024Y-55099663D01*
X163430873Y-55127873D01*
X163402663Y-55151024D01*
X163370481Y-55168226D01*
X163335562Y-55178819D01*
X163293105Y-55183000D01*
X161826895Y-55183000D01*
X161784438Y-55178819D01*
X161749519Y-55168226D01*
X161717337Y-55151024D01*
X161689127Y-55127873D01*
X161665976Y-55099663D01*
X161648774Y-55067481D01*
X161638181Y-55032562D01*
X161634000Y-54990105D01*
X161634000Y-53848895D01*
X161638181Y-53806438D01*
X161648774Y-53771519D01*
X161665976Y-53739337D01*
X161689127Y-53711127D01*
X161717337Y-53687976D01*
X161749519Y-53670774D01*
X161784438Y-53660181D01*
X161826895Y-53656000D01*
X163293105Y-53656000D01*
X163335562Y-53660181D01*
X163335562Y-53660181D01*
G37*
G36*
X201809328Y-54426864D02*
G01*
X201830409Y-54433260D01*
X201849845Y-54443648D01*
X201866876Y-54457624D01*
X201880852Y-54474655D01*
X201891240Y-54494091D01*
X201897636Y-54515172D01*
X201900400Y-54543240D01*
X201900400Y-55006960D01*
X201897636Y-55035028D01*
X201891240Y-55056109D01*
X201880852Y-55075545D01*
X201866876Y-55092576D01*
X201849845Y-55106552D01*
X201830409Y-55116940D01*
X201809328Y-55123336D01*
X201781260Y-55126100D01*
X199967540Y-55126100D01*
X199939472Y-55123336D01*
X199918391Y-55116940D01*
X199898955Y-55106552D01*
X199881924Y-55092576D01*
X199867948Y-55075545D01*
X199857560Y-55056109D01*
X199851164Y-55035028D01*
X199848400Y-55006960D01*
X199848400Y-54543240D01*
X199851164Y-54515172D01*
X199857560Y-54494091D01*
X199867948Y-54474655D01*
X199881924Y-54457624D01*
X199898955Y-54443648D01*
X199918391Y-54433260D01*
X199939472Y-54426864D01*
X199967540Y-54424100D01*
X201781260Y-54424100D01*
X201809328Y-54426864D01*
X201809328Y-54426864D01*
G37*
G36*
X196859328Y-54426864D02*
G01*
X196880409Y-54433260D01*
X196899845Y-54443648D01*
X196916876Y-54457624D01*
X196930852Y-54474655D01*
X196941240Y-54494091D01*
X196947636Y-54515172D01*
X196950400Y-54543240D01*
X196950400Y-55006960D01*
X196947636Y-55035028D01*
X196941240Y-55056109D01*
X196930852Y-55075545D01*
X196916876Y-55092576D01*
X196899845Y-55106552D01*
X196880409Y-55116940D01*
X196859328Y-55123336D01*
X196831260Y-55126100D01*
X195017540Y-55126100D01*
X194989472Y-55123336D01*
X194968391Y-55116940D01*
X194948955Y-55106552D01*
X194931924Y-55092576D01*
X194917948Y-55075545D01*
X194907560Y-55056109D01*
X194901164Y-55035028D01*
X194898400Y-55006960D01*
X194898400Y-54543240D01*
X194901164Y-54515172D01*
X194907560Y-54494091D01*
X194917948Y-54474655D01*
X194931924Y-54457624D01*
X194948955Y-54443648D01*
X194968391Y-54433260D01*
X194989472Y-54426864D01*
X195017540Y-54424100D01*
X196831260Y-54424100D01*
X196859328Y-54426864D01*
X196859328Y-54426864D01*
G37*
G36*
X182385562Y-53587181D02*
G01*
X182420481Y-53597774D01*
X182452663Y-53614976D01*
X182480873Y-53638127D01*
X182504024Y-53666337D01*
X182521226Y-53698519D01*
X182531819Y-53733438D01*
X182536000Y-53775895D01*
X182536000Y-54917105D01*
X182531819Y-54959562D01*
X182521226Y-54994481D01*
X182504024Y-55026663D01*
X182480873Y-55054873D01*
X182452663Y-55078024D01*
X182420481Y-55095226D01*
X182385562Y-55105819D01*
X182343105Y-55110000D01*
X180876895Y-55110000D01*
X180834438Y-55105819D01*
X180799519Y-55095226D01*
X180767337Y-55078024D01*
X180739127Y-55054873D01*
X180715976Y-55026663D01*
X180698774Y-54994481D01*
X180688181Y-54959562D01*
X180684000Y-54917105D01*
X180684000Y-53775895D01*
X180688181Y-53733438D01*
X180698774Y-53698519D01*
X180715976Y-53666337D01*
X180739127Y-53638127D01*
X180767337Y-53614976D01*
X180799519Y-53597774D01*
X180834438Y-53587181D01*
X180876895Y-53583000D01*
X182343105Y-53583000D01*
X182385562Y-53587181D01*
X182385562Y-53587181D01*
G37*
G36*
X173859628Y-54401464D02*
G01*
X173880709Y-54407860D01*
X173900145Y-54418248D01*
X173917176Y-54432224D01*
X173931152Y-54449255D01*
X173941540Y-54468691D01*
X173947936Y-54489772D01*
X173950700Y-54517840D01*
X173950700Y-54981560D01*
X173947936Y-55009628D01*
X173941540Y-55030709D01*
X173931152Y-55050145D01*
X173917176Y-55067176D01*
X173900145Y-55081152D01*
X173880709Y-55091540D01*
X173859628Y-55097936D01*
X173831560Y-55100700D01*
X172017840Y-55100700D01*
X171989772Y-55097936D01*
X171968691Y-55091540D01*
X171949255Y-55081152D01*
X171932224Y-55067176D01*
X171918248Y-55050145D01*
X171907860Y-55030709D01*
X171901464Y-55009628D01*
X171898700Y-54981560D01*
X171898700Y-54517840D01*
X171901464Y-54489772D01*
X171907860Y-54468691D01*
X171918248Y-54449255D01*
X171932224Y-54432224D01*
X171949255Y-54418248D01*
X171968691Y-54407860D01*
X171989772Y-54401464D01*
X172017840Y-54398700D01*
X173831560Y-54398700D01*
X173859628Y-54401464D01*
X173859628Y-54401464D01*
G37*
G36*
X178809628Y-54401464D02*
G01*
X178830709Y-54407860D01*
X178850145Y-54418248D01*
X178867176Y-54432224D01*
X178881152Y-54449255D01*
X178891540Y-54468691D01*
X178897936Y-54489772D01*
X178900700Y-54517840D01*
X178900700Y-54981560D01*
X178897936Y-55009628D01*
X178891540Y-55030709D01*
X178881152Y-55050145D01*
X178867176Y-55067176D01*
X178850145Y-55081152D01*
X178830709Y-55091540D01*
X178809628Y-55097936D01*
X178781560Y-55100700D01*
X176967840Y-55100700D01*
X176939772Y-55097936D01*
X176918691Y-55091540D01*
X176899255Y-55081152D01*
X176882224Y-55067176D01*
X176868248Y-55050145D01*
X176857860Y-55030709D01*
X176851464Y-55009628D01*
X176848700Y-54981560D01*
X176848700Y-54517840D01*
X176851464Y-54489772D01*
X176857860Y-54468691D01*
X176868248Y-54449255D01*
X176882224Y-54432224D01*
X176899255Y-54418248D01*
X176918691Y-54407860D01*
X176939772Y-54401464D01*
X176967840Y-54398700D01*
X178781560Y-54398700D01*
X178809628Y-54401464D01*
X178809628Y-54401464D01*
G37*
G36*
X209309562Y-52698181D02*
G01*
X209344481Y-52708774D01*
X209376663Y-52725976D01*
X209404873Y-52749127D01*
X209428024Y-52777337D01*
X209445226Y-52809519D01*
X209455819Y-52844438D01*
X209460000Y-52886895D01*
X209460000Y-54028105D01*
X209455819Y-54070562D01*
X209445226Y-54105481D01*
X209428024Y-54137663D01*
X209404873Y-54165873D01*
X209376663Y-54189024D01*
X209344481Y-54206226D01*
X209309562Y-54216819D01*
X209267105Y-54221000D01*
X207800895Y-54221000D01*
X207758438Y-54216819D01*
X207723519Y-54206226D01*
X207691337Y-54189024D01*
X207663127Y-54165873D01*
X207639976Y-54137663D01*
X207622774Y-54105481D01*
X207612181Y-54070562D01*
X207608000Y-54028105D01*
X207608000Y-52886895D01*
X207612181Y-52844438D01*
X207622774Y-52809519D01*
X207639976Y-52777337D01*
X207663127Y-52749127D01*
X207691337Y-52725976D01*
X207723519Y-52708774D01*
X207758438Y-52698181D01*
X207800895Y-52694000D01*
X209267105Y-52694000D01*
X209309562Y-52698181D01*
X209309562Y-52698181D01*
G37*
G36*
X205499562Y-52644181D02*
G01*
X205534481Y-52654774D01*
X205566663Y-52671976D01*
X205594873Y-52695127D01*
X205618024Y-52723337D01*
X205635226Y-52755519D01*
X205645819Y-52790438D01*
X205650000Y-52832895D01*
X205650000Y-53974105D01*
X205645819Y-54016562D01*
X205635226Y-54051481D01*
X205618024Y-54083663D01*
X205594873Y-54111873D01*
X205566663Y-54135024D01*
X205534481Y-54152226D01*
X205499562Y-54162819D01*
X205457105Y-54167000D01*
X203990895Y-54167000D01*
X203948438Y-54162819D01*
X203913519Y-54152226D01*
X203881337Y-54135024D01*
X203853127Y-54111873D01*
X203829976Y-54083663D01*
X203812774Y-54051481D01*
X203802181Y-54016562D01*
X203798000Y-53974105D01*
X203798000Y-52832895D01*
X203802181Y-52790438D01*
X203812774Y-52755519D01*
X203829976Y-52723337D01*
X203853127Y-52695127D01*
X203881337Y-52671976D01*
X203913519Y-52654774D01*
X203948438Y-52644181D01*
X203990895Y-52640000D01*
X205457105Y-52640000D01*
X205499562Y-52644181D01*
X205499562Y-52644181D01*
G37*
G36*
X201809328Y-53156864D02*
G01*
X201830409Y-53163260D01*
X201849845Y-53173648D01*
X201866876Y-53187624D01*
X201880852Y-53204655D01*
X201891240Y-53224091D01*
X201897636Y-53245172D01*
X201900400Y-53273240D01*
X201900400Y-53736960D01*
X201897636Y-53765028D01*
X201891240Y-53786109D01*
X201880852Y-53805545D01*
X201866876Y-53822576D01*
X201849845Y-53836552D01*
X201830409Y-53846940D01*
X201809328Y-53853336D01*
X201781260Y-53856100D01*
X199967540Y-53856100D01*
X199939472Y-53853336D01*
X199918391Y-53846940D01*
X199898955Y-53836552D01*
X199881924Y-53822576D01*
X199867948Y-53805545D01*
X199857560Y-53786109D01*
X199851164Y-53765028D01*
X199848400Y-53736960D01*
X199848400Y-53273240D01*
X199851164Y-53245172D01*
X199857560Y-53224091D01*
X199867948Y-53204655D01*
X199881924Y-53187624D01*
X199898955Y-53173648D01*
X199918391Y-53163260D01*
X199939472Y-53156864D01*
X199967540Y-53154100D01*
X201781260Y-53154100D01*
X201809328Y-53156864D01*
X201809328Y-53156864D01*
G37*
G36*
X196859328Y-53156864D02*
G01*
X196880409Y-53163260D01*
X196899845Y-53173648D01*
X196916876Y-53187624D01*
X196930852Y-53204655D01*
X196941240Y-53224091D01*
X196947636Y-53245172D01*
X196950400Y-53273240D01*
X196950400Y-53736960D01*
X196947636Y-53765028D01*
X196941240Y-53786109D01*
X196930852Y-53805545D01*
X196916876Y-53822576D01*
X196899845Y-53836552D01*
X196880409Y-53846940D01*
X196859328Y-53853336D01*
X196831260Y-53856100D01*
X195017540Y-53856100D01*
X194989472Y-53853336D01*
X194968391Y-53846940D01*
X194948955Y-53836552D01*
X194931924Y-53822576D01*
X194917948Y-53805545D01*
X194907560Y-53786109D01*
X194901164Y-53765028D01*
X194898400Y-53736960D01*
X194898400Y-53273240D01*
X194901164Y-53245172D01*
X194907560Y-53224091D01*
X194917948Y-53204655D01*
X194931924Y-53187624D01*
X194948955Y-53173648D01*
X194968391Y-53163260D01*
X194989472Y-53156864D01*
X195017540Y-53154100D01*
X196831260Y-53154100D01*
X196859328Y-53156864D01*
X196859328Y-53156864D01*
G37*
G36*
X173859628Y-53131464D02*
G01*
X173880709Y-53137860D01*
X173900145Y-53148248D01*
X173917176Y-53162224D01*
X173931152Y-53179255D01*
X173941540Y-53198691D01*
X173947936Y-53219772D01*
X173950700Y-53247840D01*
X173950700Y-53711560D01*
X173947936Y-53739628D01*
X173941540Y-53760709D01*
X173931152Y-53780145D01*
X173917176Y-53797176D01*
X173900145Y-53811152D01*
X173880709Y-53821540D01*
X173859628Y-53827936D01*
X173831560Y-53830700D01*
X172017840Y-53830700D01*
X171989772Y-53827936D01*
X171968691Y-53821540D01*
X171949255Y-53811152D01*
X171932224Y-53797176D01*
X171918248Y-53780145D01*
X171907860Y-53760709D01*
X171901464Y-53739628D01*
X171898700Y-53711560D01*
X171898700Y-53247840D01*
X171901464Y-53219772D01*
X171907860Y-53198691D01*
X171918248Y-53179255D01*
X171932224Y-53162224D01*
X171949255Y-53148248D01*
X171968691Y-53137860D01*
X171989772Y-53131464D01*
X172017840Y-53128700D01*
X173831560Y-53128700D01*
X173859628Y-53131464D01*
X173859628Y-53131464D01*
G37*
G36*
X178809628Y-53131464D02*
G01*
X178830709Y-53137860D01*
X178850145Y-53148248D01*
X178867176Y-53162224D01*
X178881152Y-53179255D01*
X178891540Y-53198691D01*
X178897936Y-53219772D01*
X178900700Y-53247840D01*
X178900700Y-53711560D01*
X178897936Y-53739628D01*
X178891540Y-53760709D01*
X178881152Y-53780145D01*
X178867176Y-53797176D01*
X178850145Y-53811152D01*
X178830709Y-53821540D01*
X178809628Y-53827936D01*
X178781560Y-53830700D01*
X176967840Y-53830700D01*
X176939772Y-53827936D01*
X176918691Y-53821540D01*
X176899255Y-53811152D01*
X176882224Y-53797176D01*
X176868248Y-53780145D01*
X176857860Y-53760709D01*
X176851464Y-53739628D01*
X176848700Y-53711560D01*
X176848700Y-53247840D01*
X176851464Y-53219772D01*
X176857860Y-53198691D01*
X176868248Y-53179255D01*
X176882224Y-53162224D01*
X176899255Y-53148248D01*
X176918691Y-53137860D01*
X176939772Y-53131464D01*
X176967840Y-53128700D01*
X178781560Y-53128700D01*
X178809628Y-53131464D01*
X178809628Y-53131464D01*
G37*
G36*
X192672562Y-51047181D02*
G01*
X192707481Y-51057774D01*
X192739663Y-51074976D01*
X192767873Y-51098127D01*
X192791024Y-51126337D01*
X192808226Y-51158519D01*
X192818819Y-51193438D01*
X192823000Y-51235895D01*
X192823000Y-52377105D01*
X192818819Y-52419562D01*
X192808226Y-52454481D01*
X192791024Y-52486663D01*
X192767873Y-52514873D01*
X192739663Y-52538024D01*
X192707481Y-52555226D01*
X192672562Y-52565819D01*
X192630105Y-52570000D01*
X191163895Y-52570000D01*
X191121438Y-52565819D01*
X191086519Y-52555226D01*
X191054337Y-52538024D01*
X191026127Y-52514873D01*
X191002976Y-52486663D01*
X190985774Y-52454481D01*
X190975181Y-52419562D01*
X190971000Y-52377105D01*
X190971000Y-51235895D01*
X190975181Y-51193438D01*
X190985774Y-51158519D01*
X191002976Y-51126337D01*
X191026127Y-51098127D01*
X191054337Y-51074976D01*
X191086519Y-51057774D01*
X191121438Y-51047181D01*
X191163895Y-51043000D01*
X192630105Y-51043000D01*
X192672562Y-51047181D01*
X192672562Y-51047181D01*
G37*
G36*
X187084562Y-51029681D02*
G01*
X187119481Y-51040274D01*
X187151663Y-51057476D01*
X187179873Y-51080627D01*
X187203024Y-51108837D01*
X187220226Y-51141019D01*
X187230819Y-51175938D01*
X187235000Y-51218395D01*
X187235000Y-52359605D01*
X187230819Y-52402062D01*
X187220226Y-52436981D01*
X187203024Y-52469163D01*
X187179873Y-52497373D01*
X187151663Y-52520524D01*
X187119481Y-52537726D01*
X187084562Y-52548319D01*
X187042105Y-52552500D01*
X185575895Y-52552500D01*
X185533438Y-52548319D01*
X185498519Y-52537726D01*
X185466337Y-52520524D01*
X185438127Y-52497373D01*
X185414976Y-52469163D01*
X185397774Y-52436981D01*
X185387181Y-52402062D01*
X185383000Y-52359605D01*
X185383000Y-51218395D01*
X185387181Y-51175938D01*
X185397774Y-51141019D01*
X185414976Y-51108837D01*
X185438127Y-51080627D01*
X185466337Y-51057476D01*
X185498519Y-51040274D01*
X185533438Y-51029681D01*
X185575895Y-51025500D01*
X187042105Y-51025500D01*
X187084562Y-51029681D01*
X187084562Y-51029681D01*
G37*
G36*
X163335562Y-50685181D02*
G01*
X163370481Y-50695774D01*
X163402663Y-50712976D01*
X163430873Y-50736127D01*
X163454024Y-50764337D01*
X163471226Y-50796519D01*
X163481819Y-50831438D01*
X163486000Y-50873895D01*
X163486000Y-52015105D01*
X163481819Y-52057562D01*
X163471226Y-52092481D01*
X163454024Y-52124663D01*
X163430873Y-52152873D01*
X163402663Y-52176024D01*
X163370481Y-52193226D01*
X163335562Y-52203819D01*
X163293105Y-52208000D01*
X161826895Y-52208000D01*
X161784438Y-52203819D01*
X161749519Y-52193226D01*
X161717337Y-52176024D01*
X161689127Y-52152873D01*
X161665976Y-52124663D01*
X161648774Y-52092481D01*
X161638181Y-52057562D01*
X161634000Y-52015105D01*
X161634000Y-50873895D01*
X161638181Y-50831438D01*
X161648774Y-50796519D01*
X161665976Y-50764337D01*
X161689127Y-50736127D01*
X161717337Y-50712976D01*
X161749519Y-50695774D01*
X161784438Y-50685181D01*
X161826895Y-50681000D01*
X163293105Y-50681000D01*
X163335562Y-50685181D01*
X163335562Y-50685181D01*
G37*
G36*
X182385562Y-50612181D02*
G01*
X182420481Y-50622774D01*
X182452663Y-50639976D01*
X182480873Y-50663127D01*
X182504024Y-50691337D01*
X182521226Y-50723519D01*
X182531819Y-50758438D01*
X182536000Y-50800895D01*
X182536000Y-51942105D01*
X182531819Y-51984562D01*
X182521226Y-52019481D01*
X182504024Y-52051663D01*
X182480873Y-52079873D01*
X182452663Y-52103024D01*
X182420481Y-52120226D01*
X182385562Y-52130819D01*
X182343105Y-52135000D01*
X180876895Y-52135000D01*
X180834438Y-52130819D01*
X180799519Y-52120226D01*
X180767337Y-52103024D01*
X180739127Y-52079873D01*
X180715976Y-52051663D01*
X180698774Y-52019481D01*
X180688181Y-51984562D01*
X180684000Y-51942105D01*
X180684000Y-50800895D01*
X180688181Y-50758438D01*
X180698774Y-50723519D01*
X180715976Y-50691337D01*
X180739127Y-50663127D01*
X180767337Y-50639976D01*
X180799519Y-50622774D01*
X180834438Y-50612181D01*
X180876895Y-50608000D01*
X182343105Y-50608000D01*
X182385562Y-50612181D01*
X182385562Y-50612181D01*
G37*
G36*
X209309562Y-49723181D02*
G01*
X209344481Y-49733774D01*
X209376663Y-49750976D01*
X209404873Y-49774127D01*
X209428024Y-49802337D01*
X209445226Y-49834519D01*
X209455819Y-49869438D01*
X209460000Y-49911895D01*
X209460000Y-51053105D01*
X209455819Y-51095562D01*
X209445226Y-51130481D01*
X209428024Y-51162663D01*
X209404873Y-51190873D01*
X209376663Y-51214024D01*
X209344481Y-51231226D01*
X209309562Y-51241819D01*
X209267105Y-51246000D01*
X207800895Y-51246000D01*
X207758438Y-51241819D01*
X207723519Y-51231226D01*
X207691337Y-51214024D01*
X207663127Y-51190873D01*
X207639976Y-51162663D01*
X207622774Y-51130481D01*
X207612181Y-51095562D01*
X207608000Y-51053105D01*
X207608000Y-49911895D01*
X207612181Y-49869438D01*
X207622774Y-49834519D01*
X207639976Y-49802337D01*
X207663127Y-49774127D01*
X207691337Y-49750976D01*
X207723519Y-49733774D01*
X207758438Y-49723181D01*
X207800895Y-49719000D01*
X209267105Y-49719000D01*
X209309562Y-49723181D01*
X209309562Y-49723181D01*
G37*
G36*
X205499562Y-49669181D02*
G01*
X205534481Y-49679774D01*
X205566663Y-49696976D01*
X205594873Y-49720127D01*
X205618024Y-49748337D01*
X205635226Y-49780519D01*
X205645819Y-49815438D01*
X205650000Y-49857895D01*
X205650000Y-50999105D01*
X205645819Y-51041562D01*
X205635226Y-51076481D01*
X205618024Y-51108663D01*
X205594873Y-51136873D01*
X205566663Y-51160024D01*
X205534481Y-51177226D01*
X205499562Y-51187819D01*
X205457105Y-51192000D01*
X203990895Y-51192000D01*
X203948438Y-51187819D01*
X203913519Y-51177226D01*
X203881337Y-51160024D01*
X203853127Y-51136873D01*
X203829976Y-51108663D01*
X203812774Y-51076481D01*
X203802181Y-51041562D01*
X203798000Y-50999105D01*
X203798000Y-49857895D01*
X203802181Y-49815438D01*
X203812774Y-49780519D01*
X203829976Y-49748337D01*
X203853127Y-49720127D01*
X203881337Y-49696976D01*
X203913519Y-49679774D01*
X203948438Y-49669181D01*
X203990895Y-49665000D01*
X205457105Y-49665000D01*
X205499562Y-49669181D01*
X205499562Y-49669181D01*
G37*
G36*
X172938000Y-50319500D02*
G01*
X171486000Y-50319500D01*
X171486000Y-48867500D01*
X172938000Y-48867500D01*
X172938000Y-50319500D01*
X172938000Y-50319500D01*
G37*
G36*
X174283213Y-48871002D02*
G01*
X174354321Y-48878005D01*
X174491172Y-48919519D01*
X174491175Y-48919520D01*
X174617294Y-48986932D01*
X174727843Y-49077657D01*
X174818568Y-49188206D01*
X174885980Y-49314325D01*
X174885981Y-49314328D01*
X174927495Y-49451179D01*
X174941512Y-49593500D01*
X174927495Y-49735821D01*
X174886962Y-49869438D01*
X174885980Y-49872675D01*
X174818568Y-49998794D01*
X174727843Y-50109343D01*
X174617294Y-50200068D01*
X174491175Y-50267480D01*
X174491172Y-50267481D01*
X174354321Y-50308995D01*
X174283213Y-50315998D01*
X174247660Y-50319500D01*
X174176340Y-50319500D01*
X174140787Y-50315998D01*
X174069679Y-50308995D01*
X173932828Y-50267481D01*
X173932825Y-50267480D01*
X173806706Y-50200068D01*
X173696157Y-50109343D01*
X173605432Y-49998794D01*
X173538020Y-49872675D01*
X173537038Y-49869438D01*
X173496505Y-49735821D01*
X173482488Y-49593500D01*
X173496505Y-49451179D01*
X173538019Y-49314328D01*
X173538020Y-49314325D01*
X173605432Y-49188206D01*
X173696157Y-49077657D01*
X173806706Y-48986932D01*
X173932825Y-48919520D01*
X173932828Y-48919519D01*
X174069679Y-48878005D01*
X174140787Y-48871002D01*
X174176340Y-48867500D01*
X174247660Y-48867500D01*
X174283213Y-48871002D01*
X174283213Y-48871002D01*
G37*
G36*
X176283213Y-48871002D02*
G01*
X176354321Y-48878005D01*
X176491172Y-48919519D01*
X176491175Y-48919520D01*
X176617294Y-48986932D01*
X176727843Y-49077657D01*
X176818568Y-49188206D01*
X176885980Y-49314325D01*
X176885981Y-49314328D01*
X176927495Y-49451179D01*
X176941512Y-49593500D01*
X176927495Y-49735821D01*
X176886962Y-49869438D01*
X176885980Y-49872675D01*
X176818568Y-49998794D01*
X176727843Y-50109343D01*
X176617294Y-50200068D01*
X176491175Y-50267480D01*
X176491172Y-50267481D01*
X176354321Y-50308995D01*
X176283213Y-50315998D01*
X176247660Y-50319500D01*
X176176340Y-50319500D01*
X176140787Y-50315998D01*
X176069679Y-50308995D01*
X175932828Y-50267481D01*
X175932825Y-50267480D01*
X175806706Y-50200068D01*
X175696157Y-50109343D01*
X175605432Y-49998794D01*
X175538020Y-49872675D01*
X175537038Y-49869438D01*
X175496505Y-49735821D01*
X175482488Y-49593500D01*
X175496505Y-49451179D01*
X175538019Y-49314328D01*
X175538020Y-49314325D01*
X175605432Y-49188206D01*
X175696157Y-49077657D01*
X175806706Y-48986932D01*
X175932825Y-48919520D01*
X175932828Y-48919519D01*
X176069679Y-48878005D01*
X176140787Y-48871002D01*
X176176340Y-48867500D01*
X176247660Y-48867500D01*
X176283213Y-48871002D01*
X176283213Y-48871002D01*
G37*
G36*
X178283213Y-48871002D02*
G01*
X178354321Y-48878005D01*
X178491172Y-48919519D01*
X178491175Y-48919520D01*
X178617294Y-48986932D01*
X178727843Y-49077657D01*
X178818568Y-49188206D01*
X178885980Y-49314325D01*
X178885981Y-49314328D01*
X178927495Y-49451179D01*
X178941512Y-49593500D01*
X178927495Y-49735821D01*
X178886962Y-49869438D01*
X178885980Y-49872675D01*
X178818568Y-49998794D01*
X178727843Y-50109343D01*
X178617294Y-50200068D01*
X178491175Y-50267480D01*
X178491172Y-50267481D01*
X178354321Y-50308995D01*
X178283213Y-50315998D01*
X178247660Y-50319500D01*
X178176340Y-50319500D01*
X178140787Y-50315998D01*
X178069679Y-50308995D01*
X177932828Y-50267481D01*
X177932825Y-50267480D01*
X177806706Y-50200068D01*
X177696157Y-50109343D01*
X177605432Y-49998794D01*
X177538020Y-49872675D01*
X177537038Y-49869438D01*
X177496505Y-49735821D01*
X177482488Y-49593500D01*
X177496505Y-49451179D01*
X177538019Y-49314328D01*
X177538020Y-49314325D01*
X177605432Y-49188206D01*
X177696157Y-49077657D01*
X177806706Y-48986932D01*
X177932825Y-48919520D01*
X177932828Y-48919519D01*
X178069679Y-48878005D01*
X178140787Y-48871002D01*
X178176340Y-48867500D01*
X178247660Y-48867500D01*
X178283213Y-48871002D01*
X178283213Y-48871002D01*
G37*
G36*
X192672562Y-48072181D02*
G01*
X192707481Y-48082774D01*
X192739663Y-48099976D01*
X192767873Y-48123127D01*
X192791024Y-48151337D01*
X192808226Y-48183519D01*
X192818819Y-48218438D01*
X192823000Y-48260895D01*
X192823000Y-49402105D01*
X192818819Y-49444562D01*
X192808226Y-49479481D01*
X192791024Y-49511663D01*
X192767873Y-49539873D01*
X192739663Y-49563024D01*
X192707481Y-49580226D01*
X192672562Y-49590819D01*
X192630105Y-49595000D01*
X191163895Y-49595000D01*
X191121438Y-49590819D01*
X191086519Y-49580226D01*
X191054337Y-49563024D01*
X191026127Y-49539873D01*
X191002976Y-49511663D01*
X190985774Y-49479481D01*
X190975181Y-49444562D01*
X190971000Y-49402105D01*
X190971000Y-48260895D01*
X190975181Y-48218438D01*
X190985774Y-48183519D01*
X191002976Y-48151337D01*
X191026127Y-48123127D01*
X191054337Y-48099976D01*
X191086519Y-48082774D01*
X191121438Y-48072181D01*
X191163895Y-48068000D01*
X192630105Y-48068000D01*
X192672562Y-48072181D01*
X192672562Y-48072181D01*
G37*
G36*
X181214499Y-48228445D02*
G01*
X181251995Y-48239820D01*
X181286554Y-48258292D01*
X181316847Y-48283153D01*
X181341708Y-48313446D01*
X181360180Y-48348005D01*
X181371555Y-48385501D01*
X181376000Y-48430638D01*
X181376000Y-49069362D01*
X181371555Y-49114499D01*
X181360180Y-49151995D01*
X181341708Y-49186554D01*
X181316847Y-49216847D01*
X181286554Y-49241708D01*
X181251995Y-49260180D01*
X181214499Y-49271555D01*
X181169362Y-49276000D01*
X180430638Y-49276000D01*
X180385501Y-49271555D01*
X180348005Y-49260180D01*
X180313446Y-49241708D01*
X180283153Y-49216847D01*
X180258292Y-49186554D01*
X180239820Y-49151995D01*
X180228445Y-49114499D01*
X180224000Y-49069362D01*
X180224000Y-48430638D01*
X180228445Y-48385501D01*
X180239820Y-48348005D01*
X180258292Y-48313446D01*
X180283153Y-48283153D01*
X180313446Y-48258292D01*
X180348005Y-48239820D01*
X180385501Y-48228445D01*
X180430638Y-48224000D01*
X181169362Y-48224000D01*
X181214499Y-48228445D01*
X181214499Y-48228445D01*
G37*
G36*
X182964499Y-48228445D02*
G01*
X183001995Y-48239820D01*
X183036554Y-48258292D01*
X183066847Y-48283153D01*
X183091708Y-48313446D01*
X183110180Y-48348005D01*
X183121555Y-48385501D01*
X183126000Y-48430638D01*
X183126000Y-49069362D01*
X183121555Y-49114499D01*
X183110180Y-49151995D01*
X183091708Y-49186554D01*
X183066847Y-49216847D01*
X183036554Y-49241708D01*
X183001995Y-49260180D01*
X182964499Y-49271555D01*
X182919362Y-49276000D01*
X182180638Y-49276000D01*
X182135501Y-49271555D01*
X182098005Y-49260180D01*
X182063446Y-49241708D01*
X182033153Y-49216847D01*
X182008292Y-49186554D01*
X181989820Y-49151995D01*
X181978445Y-49114499D01*
X181974000Y-49069362D01*
X181974000Y-48430638D01*
X181978445Y-48385501D01*
X181989820Y-48348005D01*
X182008292Y-48313446D01*
X182033153Y-48283153D01*
X182063446Y-48258292D01*
X182098005Y-48239820D01*
X182135501Y-48228445D01*
X182180638Y-48224000D01*
X182919362Y-48224000D01*
X182964499Y-48228445D01*
X182964499Y-48228445D01*
G37*
M02*
