M48
; DRILL file {KiCad (5.1.0)-1} date 1/6/2020 10:35:49 PM
; FORMAT={-:-/ absolute / inch / decimal}
; #@! TF.CreationDate,2020-01-06T22:35:49-04:00
; #@! TF.GenerationSoftware,Kicad,Pcbnew,(5.1.0)-1
; #@! TF.FileFunction,Plated,1,2,PTH
FMAT,2
INCH
T1C0.0157
T2C0.0315
T3C0.0394
%
G90
G05
T1
X4.2244Y-3.2874
X4.401Y-3.415
X4.5079Y-3.4528
X4.7365Y-3.4375
X6.2795Y-2.0276
X6.47Y-2.4
X6.7008Y-2.1575
X6.735Y-2.2575
X6.8Y-2.37
X6.8081Y-2.0544
X6.8905Y-4.118
X6.9514Y-2.5261
X6.955Y-2.6575
X7.005Y-2.3025
X7.02Y-2.77
X7.0554Y-2.4709
X7.08Y-2.1525
X7.15Y-2.2025
X7.15Y-2.33
X7.3555Y-3.578
X7.366Y-3.6935
X7.412Y-1.962
X7.4515Y-3.5183
X7.4515Y-3.561
X7.5455Y-3.498
X7.5805Y-3.7043
X7.641Y-2.1565
X7.6464Y-2.2211
X7.733Y-3.4405
X7.7755Y-3.6955
X7.79Y-2.0925
X7.7941Y-3.5659
X7.823Y-3.4555
X7.8905Y-3.588
X7.9211Y-3.4461
X7.965Y-2.2825
X7.9759Y-2.2316
X7.976Y-3.6965
X7.9775Y-2.0375
X7.9776Y-2.1599
X8.0135Y-2.6725
X8.4035Y-2.5725
T2
X7.408Y-3.108
X7.6855Y-3.173
X8.2845Y-2.7605
X5.3815Y-2.8275
X5.3815Y-2.9063
X5.3815Y-2.985
X5.3815Y-3.0638
X5.3815Y-3.1425
X5.3815Y-3.2212
X7.195Y-2.4725
X7.195Y-2.5512
X7.195Y-2.63
X7.195Y-2.7087
X7.195Y-2.7875
X4.7655Y-2.3525
X6.78Y-1.9525
X6.8587Y-1.9525
X6.9375Y-1.9525
X7.0162Y-1.9525
X8.2465Y-3.6222
X6.843Y-4.258
X6.9218Y-4.258
X7.0005Y-4.258
X7.0792Y-4.258
X7.158Y-4.258
X7.2367Y-4.258
X7.6165Y-2.4355
X7.6953Y-2.4355
X7.774Y-2.4355
X7.8528Y-2.4355
X7.9315Y-2.4355
T3
X6.6455Y-3.5805
X6.6455Y-3.6805
X4.7932Y-3.2547
X4.8932Y-3.2547
X4.9932Y-3.2547
X4.7915Y-2.6504
X4.8915Y-2.6504
X4.9915Y-2.6504
X7.0775Y-3.635
X7.0775Y-3.735
T0
M30
