G04 #@! TF.GenerationSoftware,KiCad,Pcbnew,(5.1.0)-1*
G04 #@! TF.CreationDate,2019-12-16T03:31:47-04:00*
G04 #@! TF.ProjectId,Main,4d61696e-2e6b-4696-9361-645f70636258,rev?*
G04 #@! TF.SameCoordinates,Original*
G04 #@! TF.FileFunction,Soldermask,Bot*
G04 #@! TF.FilePolarity,Negative*
%FSLAX46Y46*%
G04 Gerber Fmt 4.6, Leading zero omitted, Abs format (unit mm)*
G04 Created by KiCad (PCBNEW (5.1.0)-1) date 2019-12-16 03:31:47*
%MOMM*%
%LPD*%
G04 APERTURE LIST*
%ADD10C,0.100000*%
G04 APERTURE END LIST*
D10*
G36*
X46844739Y-148989450D02*
G01*
X47034072Y-149067875D01*
X47167951Y-149123329D01*
X47458834Y-149317691D01*
X47706209Y-149565066D01*
X47900571Y-149855949D01*
X47923749Y-149911906D01*
X48034450Y-150179161D01*
X48102700Y-150522278D01*
X48102700Y-150872122D01*
X48034450Y-151215239D01*
X48004559Y-151287401D01*
X47900571Y-151538451D01*
X47706209Y-151829334D01*
X47458834Y-152076709D01*
X47167951Y-152271071D01*
X47034072Y-152326525D01*
X46844739Y-152404950D01*
X46501622Y-152473200D01*
X46151778Y-152473200D01*
X45808661Y-152404950D01*
X45619328Y-152326525D01*
X45485449Y-152271071D01*
X45194566Y-152076709D01*
X44947191Y-151829334D01*
X44752829Y-151538451D01*
X44648841Y-151287401D01*
X44618950Y-151215239D01*
X44550700Y-150872122D01*
X44550700Y-150522278D01*
X44618950Y-150179161D01*
X44729651Y-149911906D01*
X44752829Y-149855949D01*
X44947191Y-149565066D01*
X45194566Y-149317691D01*
X45485449Y-149123329D01*
X45619328Y-149067875D01*
X45808661Y-148989450D01*
X46151778Y-148921200D01*
X46501622Y-148921200D01*
X46844739Y-148989450D01*
X46844739Y-148989450D01*
G37*
G36*
X110220144Y-149499082D02*
G01*
X110446901Y-149593008D01*
X110446902Y-149593009D01*
X110650979Y-149729368D01*
X110824532Y-149902921D01*
X110914805Y-150038025D01*
X110960892Y-150106999D01*
X111054818Y-150333756D01*
X111102700Y-150574478D01*
X111102700Y-150819922D01*
X111054818Y-151060644D01*
X110960892Y-151287401D01*
X110960891Y-151287402D01*
X110824532Y-151491479D01*
X110650979Y-151665032D01*
X110514619Y-151756144D01*
X110446901Y-151801392D01*
X110220144Y-151895318D01*
X109979422Y-151943200D01*
X109733978Y-151943200D01*
X109493256Y-151895318D01*
X109266499Y-151801392D01*
X109198781Y-151756144D01*
X109062421Y-151665032D01*
X108888868Y-151491479D01*
X108752509Y-151287402D01*
X108752508Y-151287401D01*
X108658582Y-151060644D01*
X108610700Y-150819922D01*
X108610700Y-150574478D01*
X108658582Y-150333756D01*
X108752508Y-150106999D01*
X108798595Y-150038025D01*
X108888868Y-149902921D01*
X109062421Y-149729368D01*
X109266498Y-149593009D01*
X109266499Y-149593008D01*
X109493256Y-149499082D01*
X109733978Y-149451200D01*
X109979422Y-149451200D01*
X110220144Y-149499082D01*
X110220144Y-149499082D01*
G37*
G36*
X128812727Y-149593009D02*
G01*
X128901021Y-149601705D01*
X129037872Y-149643219D01*
X129037875Y-149643220D01*
X129163994Y-149710632D01*
X129274543Y-149801357D01*
X129365268Y-149911906D01*
X129432680Y-150038025D01*
X129432681Y-150038028D01*
X129474195Y-150174879D01*
X129488212Y-150317200D01*
X129474195Y-150459521D01*
X129439322Y-150574480D01*
X129432680Y-150596375D01*
X129365268Y-150722494D01*
X129274543Y-150833043D01*
X129163994Y-150923768D01*
X129037875Y-150991180D01*
X129037872Y-150991181D01*
X128901021Y-151032695D01*
X128829913Y-151039698D01*
X128794360Y-151043200D01*
X128723040Y-151043200D01*
X128687487Y-151039698D01*
X128616379Y-151032695D01*
X128479528Y-150991181D01*
X128479525Y-150991180D01*
X128353406Y-150923768D01*
X128242857Y-150833043D01*
X128152132Y-150722494D01*
X128084720Y-150596375D01*
X128078078Y-150574480D01*
X128043205Y-150459521D01*
X128029188Y-150317200D01*
X128043205Y-150174879D01*
X128084719Y-150038028D01*
X128084720Y-150038025D01*
X128152132Y-149911906D01*
X128242857Y-149801357D01*
X128353406Y-149710632D01*
X128479525Y-149643220D01*
X128479528Y-149643219D01*
X128616379Y-149601705D01*
X128704673Y-149593009D01*
X128723040Y-149591200D01*
X128794360Y-149591200D01*
X128812727Y-149593009D01*
X128812727Y-149593009D01*
G37*
G36*
X126812727Y-149593009D02*
G01*
X126901021Y-149601705D01*
X127037872Y-149643219D01*
X127037875Y-149643220D01*
X127163994Y-149710632D01*
X127274543Y-149801357D01*
X127365268Y-149911906D01*
X127432680Y-150038025D01*
X127432681Y-150038028D01*
X127474195Y-150174879D01*
X127488212Y-150317200D01*
X127474195Y-150459521D01*
X127439322Y-150574480D01*
X127432680Y-150596375D01*
X127365268Y-150722494D01*
X127274543Y-150833043D01*
X127163994Y-150923768D01*
X127037875Y-150991180D01*
X127037872Y-150991181D01*
X126901021Y-151032695D01*
X126829913Y-151039698D01*
X126794360Y-151043200D01*
X126723040Y-151043200D01*
X126687487Y-151039698D01*
X126616379Y-151032695D01*
X126479528Y-150991181D01*
X126479525Y-150991180D01*
X126353406Y-150923768D01*
X126242857Y-150833043D01*
X126152132Y-150722494D01*
X126084720Y-150596375D01*
X126078078Y-150574480D01*
X126043205Y-150459521D01*
X126029188Y-150317200D01*
X126043205Y-150174879D01*
X126084719Y-150038028D01*
X126084720Y-150038025D01*
X126152132Y-149911906D01*
X126242857Y-149801357D01*
X126353406Y-149710632D01*
X126479525Y-149643220D01*
X126479528Y-149643219D01*
X126616379Y-149601705D01*
X126704673Y-149593009D01*
X126723040Y-149591200D01*
X126794360Y-149591200D01*
X126812727Y-149593009D01*
X126812727Y-149593009D01*
G37*
G36*
X124812727Y-149593009D02*
G01*
X124901021Y-149601705D01*
X125037872Y-149643219D01*
X125037875Y-149643220D01*
X125163994Y-149710632D01*
X125274543Y-149801357D01*
X125365268Y-149911906D01*
X125432680Y-150038025D01*
X125432681Y-150038028D01*
X125474195Y-150174879D01*
X125488212Y-150317200D01*
X125474195Y-150459521D01*
X125439322Y-150574480D01*
X125432680Y-150596375D01*
X125365268Y-150722494D01*
X125274543Y-150833043D01*
X125163994Y-150923768D01*
X125037875Y-150991180D01*
X125037872Y-150991181D01*
X124901021Y-151032695D01*
X124829913Y-151039698D01*
X124794360Y-151043200D01*
X124723040Y-151043200D01*
X124687487Y-151039698D01*
X124616379Y-151032695D01*
X124479528Y-150991181D01*
X124479525Y-150991180D01*
X124353406Y-150923768D01*
X124242857Y-150833043D01*
X124152132Y-150722494D01*
X124084720Y-150596375D01*
X124078078Y-150574480D01*
X124043205Y-150459521D01*
X124029188Y-150317200D01*
X124043205Y-150174879D01*
X124084719Y-150038028D01*
X124084720Y-150038025D01*
X124152132Y-149911906D01*
X124242857Y-149801357D01*
X124353406Y-149710632D01*
X124479525Y-149643220D01*
X124479528Y-149643219D01*
X124616379Y-149601705D01*
X124704673Y-149593009D01*
X124723040Y-149591200D01*
X124794360Y-149591200D01*
X124812727Y-149593009D01*
X124812727Y-149593009D01*
G37*
G36*
X123484700Y-151043200D02*
G01*
X122032700Y-151043200D01*
X122032700Y-149591200D01*
X123484700Y-149591200D01*
X123484700Y-151043200D01*
X123484700Y-151043200D01*
G37*
G36*
X132812727Y-149593009D02*
G01*
X132901021Y-149601705D01*
X133037872Y-149643219D01*
X133037875Y-149643220D01*
X133163994Y-149710632D01*
X133274543Y-149801357D01*
X133365268Y-149911906D01*
X133432680Y-150038025D01*
X133432681Y-150038028D01*
X133474195Y-150174879D01*
X133488212Y-150317200D01*
X133474195Y-150459521D01*
X133439322Y-150574480D01*
X133432680Y-150596375D01*
X133365268Y-150722494D01*
X133274543Y-150833043D01*
X133163994Y-150923768D01*
X133037875Y-150991180D01*
X133037872Y-150991181D01*
X132901021Y-151032695D01*
X132829913Y-151039698D01*
X132794360Y-151043200D01*
X132723040Y-151043200D01*
X132687487Y-151039698D01*
X132616379Y-151032695D01*
X132479528Y-150991181D01*
X132479525Y-150991180D01*
X132353406Y-150923768D01*
X132242857Y-150833043D01*
X132152132Y-150722494D01*
X132084720Y-150596375D01*
X132078078Y-150574480D01*
X132043205Y-150459521D01*
X132029188Y-150317200D01*
X132043205Y-150174879D01*
X132084719Y-150038028D01*
X132084720Y-150038025D01*
X132152132Y-149911906D01*
X132242857Y-149801357D01*
X132353406Y-149710632D01*
X132479525Y-149643220D01*
X132479528Y-149643219D01*
X132616379Y-149601705D01*
X132704673Y-149593009D01*
X132723040Y-149591200D01*
X132794360Y-149591200D01*
X132812727Y-149593009D01*
X132812727Y-149593009D01*
G37*
G36*
X130812727Y-149593009D02*
G01*
X130901021Y-149601705D01*
X131037872Y-149643219D01*
X131037875Y-149643220D01*
X131163994Y-149710632D01*
X131274543Y-149801357D01*
X131365268Y-149911906D01*
X131432680Y-150038025D01*
X131432681Y-150038028D01*
X131474195Y-150174879D01*
X131488212Y-150317200D01*
X131474195Y-150459521D01*
X131439322Y-150574480D01*
X131432680Y-150596375D01*
X131365268Y-150722494D01*
X131274543Y-150833043D01*
X131163994Y-150923768D01*
X131037875Y-150991180D01*
X131037872Y-150991181D01*
X130901021Y-151032695D01*
X130829913Y-151039698D01*
X130794360Y-151043200D01*
X130723040Y-151043200D01*
X130687487Y-151039698D01*
X130616379Y-151032695D01*
X130479528Y-150991181D01*
X130479525Y-150991180D01*
X130353406Y-150923768D01*
X130242857Y-150833043D01*
X130152132Y-150722494D01*
X130084720Y-150596375D01*
X130078078Y-150574480D01*
X130043205Y-150459521D01*
X130029188Y-150317200D01*
X130043205Y-150174879D01*
X130084719Y-150038028D01*
X130084720Y-150038025D01*
X130152132Y-149911906D01*
X130242857Y-149801357D01*
X130353406Y-149710632D01*
X130479525Y-149643220D01*
X130479528Y-149643219D01*
X130616379Y-149601705D01*
X130704673Y-149593009D01*
X130723040Y-149591200D01*
X130794360Y-149591200D01*
X130812727Y-149593009D01*
X130812727Y-149593009D01*
G37*
G36*
X129615500Y-137934000D02*
G01*
X127813500Y-137934000D01*
X127813500Y-136132000D01*
X129615500Y-136132000D01*
X129615500Y-137934000D01*
X129615500Y-137934000D01*
G37*
G36*
X117852143Y-134754219D02*
G01*
X117918327Y-134760737D01*
X118088166Y-134812257D01*
X118244691Y-134895922D01*
X118280429Y-134925252D01*
X118381886Y-135008514D01*
X118465148Y-135109971D01*
X118494478Y-135145709D01*
X118578143Y-135302234D01*
X118629663Y-135472073D01*
X118647059Y-135648700D01*
X118629663Y-135825327D01*
X118578143Y-135995166D01*
X118494478Y-136151691D01*
X118465148Y-136187429D01*
X118381886Y-136288886D01*
X118280429Y-136372148D01*
X118244691Y-136401478D01*
X118088166Y-136485143D01*
X117918327Y-136536663D01*
X117852143Y-136543181D01*
X117785960Y-136549700D01*
X117697440Y-136549700D01*
X117631257Y-136543181D01*
X117565073Y-136536663D01*
X117395234Y-136485143D01*
X117238709Y-136401478D01*
X117202971Y-136372148D01*
X117101514Y-136288886D01*
X117018252Y-136187429D01*
X116988922Y-136151691D01*
X116905257Y-135995166D01*
X116853737Y-135825327D01*
X116836341Y-135648700D01*
X116853737Y-135472073D01*
X116905257Y-135302234D01*
X116988922Y-135145709D01*
X117018252Y-135109971D01*
X117101514Y-135008514D01*
X117202971Y-134925252D01*
X117238709Y-134895922D01*
X117395234Y-134812257D01*
X117565073Y-134760737D01*
X117631257Y-134754219D01*
X117697440Y-134747700D01*
X117785960Y-134747700D01*
X117852143Y-134754219D01*
X117852143Y-134754219D01*
G37*
G36*
X102044739Y-132989450D02*
G01*
X102234072Y-133067875D01*
X102367951Y-133123329D01*
X102658834Y-133317691D01*
X102906209Y-133565066D01*
X103100571Y-133855949D01*
X103100571Y-133855950D01*
X103234450Y-134179161D01*
X103302700Y-134522278D01*
X103302700Y-134872122D01*
X103234450Y-135215239D01*
X103160404Y-135394000D01*
X103100571Y-135538451D01*
X102906209Y-135829334D01*
X102658834Y-136076709D01*
X102367951Y-136271071D01*
X102234072Y-136326525D01*
X102044739Y-136404950D01*
X101701622Y-136473200D01*
X101351778Y-136473200D01*
X101008661Y-136404950D01*
X100819328Y-136326525D01*
X100685449Y-136271071D01*
X100394566Y-136076709D01*
X100147191Y-135829334D01*
X99952829Y-135538451D01*
X99892996Y-135394000D01*
X99818950Y-135215239D01*
X99750700Y-134872122D01*
X99750700Y-134522278D01*
X99818950Y-134179161D01*
X99952829Y-133855950D01*
X99952829Y-133855949D01*
X100147191Y-133565066D01*
X100394566Y-133317691D01*
X100685449Y-133123329D01*
X100819328Y-133067875D01*
X101008661Y-132989450D01*
X101351778Y-132921200D01*
X101701622Y-132921200D01*
X102044739Y-132989450D01*
X102044739Y-132989450D01*
G37*
G36*
X128824942Y-133598518D02*
G01*
X128891127Y-133605037D01*
X129060966Y-133656557D01*
X129217491Y-133740222D01*
X129253229Y-133769552D01*
X129354686Y-133852814D01*
X129437948Y-133954271D01*
X129467278Y-133990009D01*
X129550943Y-134146534D01*
X129602463Y-134316373D01*
X129619859Y-134493000D01*
X129602463Y-134669627D01*
X129550943Y-134839466D01*
X129467278Y-134995991D01*
X129437948Y-135031729D01*
X129354686Y-135133186D01*
X129254703Y-135215239D01*
X129217491Y-135245778D01*
X129060966Y-135329443D01*
X128891127Y-135380963D01*
X128824943Y-135387481D01*
X128758760Y-135394000D01*
X128670240Y-135394000D01*
X128604057Y-135387481D01*
X128537873Y-135380963D01*
X128368034Y-135329443D01*
X128211509Y-135245778D01*
X128174297Y-135215239D01*
X128074314Y-135133186D01*
X127991052Y-135031729D01*
X127961722Y-134995991D01*
X127878057Y-134839466D01*
X127826537Y-134669627D01*
X127809141Y-134493000D01*
X127826537Y-134316373D01*
X127878057Y-134146534D01*
X127961722Y-133990009D01*
X127991052Y-133954271D01*
X128074314Y-133852814D01*
X128175771Y-133769552D01*
X128211509Y-133740222D01*
X128368034Y-133656557D01*
X128537873Y-133605037D01*
X128604058Y-133598518D01*
X128670240Y-133592000D01*
X128758760Y-133592000D01*
X128824942Y-133598518D01*
X128824942Y-133598518D01*
G37*
G36*
X159133100Y-134893880D02*
G01*
X157681100Y-134893880D01*
X157681100Y-133441880D01*
X159133100Y-133441880D01*
X159133100Y-134893880D01*
X159133100Y-134893880D01*
G37*
G36*
X118642700Y-134009700D02*
G01*
X116840700Y-134009700D01*
X116840700Y-132207700D01*
X118642700Y-132207700D01*
X118642700Y-134009700D01*
X118642700Y-134009700D01*
G37*
G36*
X71594280Y-125734500D02*
G01*
X69792280Y-125734500D01*
X69792280Y-123932500D01*
X71594280Y-123932500D01*
X71594280Y-125734500D01*
X71594280Y-125734500D01*
G37*
G36*
X73343722Y-123939018D02*
G01*
X73409907Y-123945537D01*
X73579746Y-123997057D01*
X73736271Y-124080722D01*
X73772009Y-124110052D01*
X73873466Y-124193314D01*
X73930388Y-124262675D01*
X73986058Y-124330509D01*
X74069723Y-124487034D01*
X74121243Y-124656873D01*
X74138639Y-124833500D01*
X74121243Y-125010127D01*
X74069723Y-125179966D01*
X73986058Y-125336491D01*
X73956728Y-125372229D01*
X73873466Y-125473686D01*
X73772009Y-125556948D01*
X73736271Y-125586278D01*
X73579746Y-125669943D01*
X73409907Y-125721463D01*
X73343722Y-125727982D01*
X73277540Y-125734500D01*
X73189020Y-125734500D01*
X73122838Y-125727982D01*
X73056653Y-125721463D01*
X72886814Y-125669943D01*
X72730289Y-125586278D01*
X72694551Y-125556948D01*
X72593094Y-125473686D01*
X72509832Y-125372229D01*
X72480502Y-125336491D01*
X72396837Y-125179966D01*
X72345317Y-125010127D01*
X72327921Y-124833500D01*
X72345317Y-124656873D01*
X72396837Y-124487034D01*
X72480502Y-124330509D01*
X72536172Y-124262675D01*
X72593094Y-124193314D01*
X72694551Y-124110052D01*
X72730289Y-124080722D01*
X72886814Y-123997057D01*
X73056653Y-123945537D01*
X73122838Y-123939018D01*
X73189020Y-123932500D01*
X73277540Y-123932500D01*
X73343722Y-123939018D01*
X73343722Y-123939018D01*
G37*
G36*
X75883722Y-123939018D02*
G01*
X75949907Y-123945537D01*
X76119746Y-123997057D01*
X76276271Y-124080722D01*
X76312009Y-124110052D01*
X76413466Y-124193314D01*
X76470388Y-124262675D01*
X76526058Y-124330509D01*
X76609723Y-124487034D01*
X76661243Y-124656873D01*
X76678639Y-124833500D01*
X76661243Y-125010127D01*
X76609723Y-125179966D01*
X76526058Y-125336491D01*
X76496728Y-125372229D01*
X76413466Y-125473686D01*
X76312009Y-125556948D01*
X76276271Y-125586278D01*
X76119746Y-125669943D01*
X75949907Y-125721463D01*
X75883722Y-125727982D01*
X75817540Y-125734500D01*
X75729020Y-125734500D01*
X75662838Y-125727982D01*
X75596653Y-125721463D01*
X75426814Y-125669943D01*
X75270289Y-125586278D01*
X75234551Y-125556948D01*
X75133094Y-125473686D01*
X75049832Y-125372229D01*
X75020502Y-125336491D01*
X74936837Y-125179966D01*
X74885317Y-125010127D01*
X74867921Y-124833500D01*
X74885317Y-124656873D01*
X74936837Y-124487034D01*
X75020502Y-124330509D01*
X75076172Y-124262675D01*
X75133094Y-124193314D01*
X75234551Y-124110052D01*
X75270289Y-124080722D01*
X75426814Y-123997057D01*
X75596653Y-123945537D01*
X75662838Y-123939018D01*
X75729020Y-123932500D01*
X75817540Y-123932500D01*
X75883722Y-123939018D01*
X75883722Y-123939018D01*
G37*
G36*
X85707313Y-123261002D02*
G01*
X85778421Y-123268005D01*
X85915272Y-123309519D01*
X85915275Y-123309520D01*
X86041394Y-123376932D01*
X86151943Y-123467657D01*
X86242668Y-123578206D01*
X86310080Y-123704325D01*
X86310081Y-123704328D01*
X86351595Y-123841179D01*
X86365612Y-123983500D01*
X86351595Y-124125821D01*
X86310081Y-124262672D01*
X86310080Y-124262675D01*
X86242668Y-124388794D01*
X86151943Y-124499343D01*
X86041394Y-124590068D01*
X85915275Y-124657480D01*
X85915272Y-124657481D01*
X85778421Y-124698995D01*
X85707313Y-124705998D01*
X85671760Y-124709500D01*
X85600440Y-124709500D01*
X85564887Y-124705998D01*
X85493779Y-124698995D01*
X85356928Y-124657481D01*
X85356925Y-124657480D01*
X85230806Y-124590068D01*
X85120257Y-124499343D01*
X85029532Y-124388794D01*
X84962120Y-124262675D01*
X84962119Y-124262672D01*
X84920605Y-124125821D01*
X84906588Y-123983500D01*
X84920605Y-123841179D01*
X84962119Y-123704328D01*
X84962120Y-123704325D01*
X85029532Y-123578206D01*
X85120257Y-123467657D01*
X85230806Y-123376932D01*
X85356925Y-123309520D01*
X85356928Y-123309519D01*
X85493779Y-123268005D01*
X85564887Y-123261002D01*
X85600440Y-123257500D01*
X85671760Y-123257500D01*
X85707313Y-123261002D01*
X85707313Y-123261002D01*
G37*
G36*
X144883700Y-123484200D02*
G01*
X143431700Y-123484200D01*
X143431700Y-122032200D01*
X144883700Y-122032200D01*
X144883700Y-123484200D01*
X144883700Y-123484200D01*
G37*
G36*
X85707313Y-121261002D02*
G01*
X85778421Y-121268005D01*
X85915272Y-121309519D01*
X85915275Y-121309520D01*
X86041394Y-121376932D01*
X86151943Y-121467657D01*
X86242668Y-121578206D01*
X86310080Y-121704325D01*
X86310081Y-121704328D01*
X86351595Y-121841179D01*
X86365612Y-121983500D01*
X86351595Y-122125821D01*
X86310081Y-122262672D01*
X86310080Y-122262675D01*
X86242668Y-122388794D01*
X86151943Y-122499343D01*
X86041394Y-122590068D01*
X85915275Y-122657480D01*
X85915272Y-122657481D01*
X85778421Y-122698995D01*
X85707313Y-122705998D01*
X85671760Y-122709500D01*
X85600440Y-122709500D01*
X85564887Y-122705998D01*
X85493779Y-122698995D01*
X85356928Y-122657481D01*
X85356925Y-122657480D01*
X85230806Y-122590068D01*
X85120257Y-122499343D01*
X85029532Y-122388794D01*
X84962120Y-122262675D01*
X84962119Y-122262672D01*
X84920605Y-122125821D01*
X84906588Y-121983500D01*
X84920605Y-121841179D01*
X84962119Y-121704328D01*
X84962120Y-121704325D01*
X85029532Y-121578206D01*
X85120257Y-121467657D01*
X85230806Y-121376932D01*
X85356925Y-121309520D01*
X85356928Y-121309519D01*
X85493779Y-121268005D01*
X85564887Y-121261002D01*
X85600440Y-121257500D01*
X85671760Y-121257500D01*
X85707313Y-121261002D01*
X85707313Y-121261002D01*
G37*
G36*
X137835200Y-121833200D02*
G01*
X136383200Y-121833200D01*
X136383200Y-120381200D01*
X137835200Y-120381200D01*
X137835200Y-121833200D01*
X137835200Y-121833200D01*
G37*
G36*
X85707313Y-119261002D02*
G01*
X85778421Y-119268005D01*
X85915272Y-119309519D01*
X85915275Y-119309520D01*
X86041394Y-119376932D01*
X86151943Y-119467657D01*
X86242668Y-119578206D01*
X86310080Y-119704325D01*
X86310081Y-119704328D01*
X86351595Y-119841179D01*
X86365612Y-119983500D01*
X86351595Y-120125821D01*
X86310081Y-120262672D01*
X86310080Y-120262675D01*
X86242668Y-120388794D01*
X86151943Y-120499343D01*
X86041394Y-120590068D01*
X85915275Y-120657480D01*
X85915272Y-120657481D01*
X85778421Y-120698995D01*
X85707313Y-120705998D01*
X85671760Y-120709500D01*
X85600440Y-120709500D01*
X85564887Y-120705998D01*
X85493779Y-120698995D01*
X85356928Y-120657481D01*
X85356925Y-120657480D01*
X85230806Y-120590068D01*
X85120257Y-120499343D01*
X85029532Y-120388794D01*
X84962120Y-120262675D01*
X84962119Y-120262672D01*
X84920605Y-120125821D01*
X84906588Y-119983500D01*
X84920605Y-119841179D01*
X84962119Y-119704328D01*
X84962120Y-119704325D01*
X85029532Y-119578206D01*
X85120257Y-119467657D01*
X85230806Y-119376932D01*
X85356925Y-119309520D01*
X85356928Y-119309519D01*
X85493779Y-119268005D01*
X85564887Y-119261002D01*
X85600440Y-119257500D01*
X85671760Y-119257500D01*
X85707313Y-119261002D01*
X85707313Y-119261002D01*
G37*
G36*
X85707313Y-117261002D02*
G01*
X85778421Y-117268005D01*
X85915272Y-117309519D01*
X85915275Y-117309520D01*
X86041394Y-117376932D01*
X86151943Y-117467657D01*
X86242668Y-117578206D01*
X86310080Y-117704325D01*
X86310081Y-117704328D01*
X86351595Y-117841179D01*
X86365612Y-117983500D01*
X86351595Y-118125821D01*
X86310081Y-118262672D01*
X86310080Y-118262675D01*
X86242668Y-118388794D01*
X86151943Y-118499343D01*
X86041394Y-118590068D01*
X85915275Y-118657480D01*
X85915272Y-118657481D01*
X85778421Y-118698995D01*
X85707313Y-118705998D01*
X85671760Y-118709500D01*
X85600440Y-118709500D01*
X85564887Y-118705998D01*
X85493779Y-118698995D01*
X85356928Y-118657481D01*
X85356925Y-118657480D01*
X85230806Y-118590068D01*
X85120257Y-118499343D01*
X85029532Y-118388794D01*
X84962120Y-118262675D01*
X84962119Y-118262672D01*
X84920605Y-118125821D01*
X84906588Y-117983500D01*
X84920605Y-117841179D01*
X84962119Y-117704328D01*
X84962120Y-117704325D01*
X85029532Y-117578206D01*
X85120257Y-117467657D01*
X85230806Y-117376932D01*
X85356925Y-117309520D01*
X85356928Y-117309519D01*
X85493779Y-117268005D01*
X85564887Y-117261002D01*
X85600440Y-117257500D01*
X85671760Y-117257500D01*
X85707313Y-117261002D01*
X85707313Y-117261002D01*
G37*
G36*
X85707313Y-115261002D02*
G01*
X85778421Y-115268005D01*
X85915272Y-115309519D01*
X85915275Y-115309520D01*
X86041394Y-115376932D01*
X86151943Y-115467657D01*
X86242668Y-115578206D01*
X86310080Y-115704325D01*
X86310081Y-115704328D01*
X86351595Y-115841179D01*
X86365612Y-115983500D01*
X86351595Y-116125821D01*
X86310081Y-116262672D01*
X86310080Y-116262675D01*
X86242668Y-116388794D01*
X86151943Y-116499343D01*
X86041394Y-116590068D01*
X85915275Y-116657480D01*
X85915272Y-116657481D01*
X85778421Y-116698995D01*
X85707313Y-116705998D01*
X85671760Y-116709500D01*
X85600440Y-116709500D01*
X85564887Y-116705998D01*
X85493779Y-116698995D01*
X85356928Y-116657481D01*
X85356925Y-116657480D01*
X85230806Y-116590068D01*
X85120257Y-116499343D01*
X85029532Y-116388794D01*
X84962120Y-116262675D01*
X84962119Y-116262672D01*
X84920605Y-116125821D01*
X84906588Y-115983500D01*
X84920605Y-115841179D01*
X84962119Y-115704328D01*
X84962120Y-115704325D01*
X85029532Y-115578206D01*
X85120257Y-115467657D01*
X85230806Y-115376932D01*
X85356925Y-115309520D01*
X85356928Y-115309519D01*
X85493779Y-115268005D01*
X85564887Y-115261002D01*
X85600440Y-115257500D01*
X85671760Y-115257500D01*
X85707313Y-115261002D01*
X85707313Y-115261002D01*
G37*
G36*
X86362100Y-114709500D02*
G01*
X84910100Y-114709500D01*
X84910100Y-113257500D01*
X86362100Y-113257500D01*
X86362100Y-114709500D01*
X86362100Y-114709500D01*
G37*
G36*
X131770213Y-112243002D02*
G01*
X131841321Y-112250005D01*
X131978172Y-112291519D01*
X131978175Y-112291520D01*
X132104294Y-112358932D01*
X132214843Y-112449657D01*
X132305568Y-112560206D01*
X132372980Y-112686325D01*
X132372981Y-112686328D01*
X132414495Y-112823179D01*
X132428512Y-112965500D01*
X132414495Y-113107821D01*
X132372981Y-113244672D01*
X132372980Y-113244675D01*
X132305568Y-113370794D01*
X132214843Y-113481343D01*
X132104294Y-113572068D01*
X131978175Y-113639480D01*
X131978172Y-113639481D01*
X131841321Y-113680995D01*
X131770213Y-113687998D01*
X131734660Y-113691500D01*
X131663340Y-113691500D01*
X131627787Y-113687998D01*
X131556679Y-113680995D01*
X131419828Y-113639481D01*
X131419825Y-113639480D01*
X131293706Y-113572068D01*
X131183157Y-113481343D01*
X131092432Y-113370794D01*
X131025020Y-113244675D01*
X131025019Y-113244672D01*
X130983505Y-113107821D01*
X130969488Y-112965500D01*
X130983505Y-112823179D01*
X131025019Y-112686328D01*
X131025020Y-112686325D01*
X131092432Y-112560206D01*
X131183157Y-112449657D01*
X131293706Y-112358932D01*
X131419825Y-112291520D01*
X131419828Y-112291519D01*
X131556679Y-112250005D01*
X131627787Y-112243002D01*
X131663340Y-112239500D01*
X131734660Y-112239500D01*
X131770213Y-112243002D01*
X131770213Y-112243002D01*
G37*
G36*
X160098300Y-113006700D02*
G01*
X158646300Y-113006700D01*
X158646300Y-111554700D01*
X160098300Y-111554700D01*
X160098300Y-113006700D01*
X160098300Y-113006700D01*
G37*
G36*
X131770213Y-110243002D02*
G01*
X131841321Y-110250005D01*
X131978172Y-110291519D01*
X131978175Y-110291520D01*
X132104294Y-110358932D01*
X132214843Y-110449657D01*
X132305568Y-110560206D01*
X132372980Y-110686325D01*
X132372981Y-110686328D01*
X132414495Y-110823179D01*
X132428512Y-110965500D01*
X132414495Y-111107821D01*
X132372981Y-111244672D01*
X132372980Y-111244675D01*
X132305568Y-111370794D01*
X132214843Y-111481343D01*
X132104294Y-111572068D01*
X131978175Y-111639480D01*
X131978172Y-111639481D01*
X131841321Y-111680995D01*
X131770213Y-111687998D01*
X131734660Y-111691500D01*
X131663340Y-111691500D01*
X131627787Y-111687998D01*
X131556679Y-111680995D01*
X131419828Y-111639481D01*
X131419825Y-111639480D01*
X131293706Y-111572068D01*
X131183157Y-111481343D01*
X131092432Y-111370794D01*
X131025020Y-111244675D01*
X131025019Y-111244672D01*
X130983505Y-111107821D01*
X130969488Y-110965500D01*
X130983505Y-110823179D01*
X131025019Y-110686328D01*
X131025020Y-110686325D01*
X131092432Y-110560206D01*
X131183157Y-110449657D01*
X131293706Y-110358932D01*
X131419825Y-110291520D01*
X131419828Y-110291519D01*
X131556679Y-110250005D01*
X131627787Y-110243002D01*
X131663340Y-110239500D01*
X131734660Y-110239500D01*
X131770213Y-110243002D01*
X131770213Y-110243002D01*
G37*
G36*
X76631100Y-110384500D02*
G01*
X74829100Y-110384500D01*
X74829100Y-108582500D01*
X76631100Y-108582500D01*
X76631100Y-110384500D01*
X76631100Y-110384500D01*
G37*
G36*
X73300543Y-108589019D02*
G01*
X73366727Y-108595537D01*
X73536566Y-108647057D01*
X73693091Y-108730722D01*
X73728829Y-108760052D01*
X73830286Y-108843314D01*
X73913548Y-108944771D01*
X73942878Y-108980509D01*
X74026543Y-109137034D01*
X74078063Y-109306873D01*
X74095459Y-109483500D01*
X74078063Y-109660127D01*
X74026543Y-109829966D01*
X73942878Y-109986491D01*
X73913548Y-110022229D01*
X73830286Y-110123686D01*
X73728829Y-110206948D01*
X73693091Y-110236278D01*
X73536566Y-110319943D01*
X73366727Y-110371463D01*
X73300543Y-110377981D01*
X73234360Y-110384500D01*
X73145840Y-110384500D01*
X73079657Y-110377981D01*
X73013473Y-110371463D01*
X72843634Y-110319943D01*
X72687109Y-110236278D01*
X72651371Y-110206948D01*
X72549914Y-110123686D01*
X72466652Y-110022229D01*
X72437322Y-109986491D01*
X72353657Y-109829966D01*
X72302137Y-109660127D01*
X72284741Y-109483500D01*
X72302137Y-109306873D01*
X72353657Y-109137034D01*
X72437322Y-108980509D01*
X72466652Y-108944771D01*
X72549914Y-108843314D01*
X72651371Y-108760052D01*
X72687109Y-108730722D01*
X72843634Y-108647057D01*
X73013473Y-108595537D01*
X73079657Y-108589019D01*
X73145840Y-108582500D01*
X73234360Y-108582500D01*
X73300543Y-108589019D01*
X73300543Y-108589019D01*
G37*
G36*
X70760543Y-108589019D02*
G01*
X70826727Y-108595537D01*
X70996566Y-108647057D01*
X71153091Y-108730722D01*
X71188829Y-108760052D01*
X71290286Y-108843314D01*
X71373548Y-108944771D01*
X71402878Y-108980509D01*
X71486543Y-109137034D01*
X71538063Y-109306873D01*
X71555459Y-109483500D01*
X71538063Y-109660127D01*
X71486543Y-109829966D01*
X71402878Y-109986491D01*
X71373548Y-110022229D01*
X71290286Y-110123686D01*
X71188829Y-110206948D01*
X71153091Y-110236278D01*
X70996566Y-110319943D01*
X70826727Y-110371463D01*
X70760543Y-110377981D01*
X70694360Y-110384500D01*
X70605840Y-110384500D01*
X70539657Y-110377981D01*
X70473473Y-110371463D01*
X70303634Y-110319943D01*
X70147109Y-110236278D01*
X70111371Y-110206948D01*
X70009914Y-110123686D01*
X69926652Y-110022229D01*
X69897322Y-109986491D01*
X69813657Y-109829966D01*
X69762137Y-109660127D01*
X69744741Y-109483500D01*
X69762137Y-109306873D01*
X69813657Y-109137034D01*
X69897322Y-108980509D01*
X69926652Y-108944771D01*
X70009914Y-108843314D01*
X70111371Y-108760052D01*
X70147109Y-108730722D01*
X70303634Y-108647057D01*
X70473473Y-108595537D01*
X70539657Y-108589019D01*
X70605840Y-108582500D01*
X70694360Y-108582500D01*
X70760543Y-108589019D01*
X70760543Y-108589019D01*
G37*
G36*
X131770213Y-108243002D02*
G01*
X131841321Y-108250005D01*
X131978172Y-108291519D01*
X131978175Y-108291520D01*
X132104294Y-108358932D01*
X132214843Y-108449657D01*
X132305568Y-108560206D01*
X132372980Y-108686325D01*
X132372981Y-108686328D01*
X132414495Y-108823179D01*
X132428512Y-108965500D01*
X132414495Y-109107821D01*
X132405633Y-109137034D01*
X132372980Y-109244675D01*
X132305568Y-109370794D01*
X132214843Y-109481343D01*
X132104294Y-109572068D01*
X131978175Y-109639480D01*
X131978172Y-109639481D01*
X131841321Y-109680995D01*
X131770213Y-109687998D01*
X131734660Y-109691500D01*
X131663340Y-109691500D01*
X131627787Y-109687998D01*
X131556679Y-109680995D01*
X131419828Y-109639481D01*
X131419825Y-109639480D01*
X131293706Y-109572068D01*
X131183157Y-109481343D01*
X131092432Y-109370794D01*
X131025020Y-109244675D01*
X130992367Y-109137034D01*
X130983505Y-109107821D01*
X130969488Y-108965500D01*
X130983505Y-108823179D01*
X131025019Y-108686328D01*
X131025020Y-108686325D01*
X131092432Y-108560206D01*
X131183157Y-108449657D01*
X131293706Y-108358932D01*
X131419825Y-108291520D01*
X131419828Y-108291519D01*
X131556679Y-108250005D01*
X131627787Y-108243002D01*
X131663340Y-108239500D01*
X131734660Y-108239500D01*
X131770213Y-108243002D01*
X131770213Y-108243002D01*
G37*
G36*
X131770213Y-106243002D02*
G01*
X131841321Y-106250005D01*
X131978172Y-106291519D01*
X131978175Y-106291520D01*
X132104294Y-106358932D01*
X132214843Y-106449657D01*
X132305568Y-106560206D01*
X132372980Y-106686325D01*
X132372981Y-106686328D01*
X132414495Y-106823179D01*
X132428512Y-106965500D01*
X132414495Y-107107821D01*
X132372981Y-107244672D01*
X132372980Y-107244675D01*
X132305568Y-107370794D01*
X132214843Y-107481343D01*
X132104294Y-107572068D01*
X131978175Y-107639480D01*
X131978172Y-107639481D01*
X131841321Y-107680995D01*
X131770213Y-107687998D01*
X131734660Y-107691500D01*
X131663340Y-107691500D01*
X131627787Y-107687998D01*
X131556679Y-107680995D01*
X131419828Y-107639481D01*
X131419825Y-107639480D01*
X131293706Y-107572068D01*
X131183157Y-107481343D01*
X131092432Y-107370794D01*
X131025020Y-107244675D01*
X131025019Y-107244672D01*
X130983505Y-107107821D01*
X130969488Y-106965500D01*
X130983505Y-106823179D01*
X131025019Y-106686328D01*
X131025020Y-106686325D01*
X131092432Y-106560206D01*
X131183157Y-106449657D01*
X131293706Y-106358932D01*
X131419825Y-106291520D01*
X131419828Y-106291519D01*
X131556679Y-106250005D01*
X131627787Y-106243002D01*
X131663340Y-106239500D01*
X131734660Y-106239500D01*
X131770213Y-106243002D01*
X131770213Y-106243002D01*
G37*
G36*
X132425000Y-105691500D02*
G01*
X130973000Y-105691500D01*
X130973000Y-104239500D01*
X132425000Y-104239500D01*
X132425000Y-105691500D01*
X132425000Y-105691500D01*
G37*
G36*
X151132100Y-104751700D02*
G01*
X149680100Y-104751700D01*
X149680100Y-103299700D01*
X151132100Y-103299700D01*
X151132100Y-104751700D01*
X151132100Y-104751700D01*
G37*
G36*
X142477313Y-103303202D02*
G01*
X142548421Y-103310205D01*
X142685272Y-103351719D01*
X142685275Y-103351720D01*
X142811394Y-103419132D01*
X142921943Y-103509857D01*
X143012668Y-103620406D01*
X143080080Y-103746525D01*
X143080081Y-103746528D01*
X143121595Y-103883379D01*
X143135612Y-104025700D01*
X143121595Y-104168021D01*
X143080081Y-104304872D01*
X143080080Y-104304875D01*
X143012668Y-104430994D01*
X142921943Y-104541543D01*
X142811394Y-104632268D01*
X142685275Y-104699680D01*
X142685272Y-104699681D01*
X142548421Y-104741195D01*
X142477313Y-104748198D01*
X142441760Y-104751700D01*
X142370440Y-104751700D01*
X142334887Y-104748198D01*
X142263779Y-104741195D01*
X142126928Y-104699681D01*
X142126925Y-104699680D01*
X142000806Y-104632268D01*
X141890257Y-104541543D01*
X141799532Y-104430994D01*
X141732120Y-104304875D01*
X141732119Y-104304872D01*
X141690605Y-104168021D01*
X141676588Y-104025700D01*
X141690605Y-103883379D01*
X141732119Y-103746528D01*
X141732120Y-103746525D01*
X141799532Y-103620406D01*
X141890257Y-103509857D01*
X142000806Y-103419132D01*
X142126925Y-103351720D01*
X142126928Y-103351719D01*
X142263779Y-103310205D01*
X142334887Y-103303202D01*
X142370440Y-103299700D01*
X142441760Y-103299700D01*
X142477313Y-103303202D01*
X142477313Y-103303202D01*
G37*
G36*
X144477313Y-103303202D02*
G01*
X144548421Y-103310205D01*
X144685272Y-103351719D01*
X144685275Y-103351720D01*
X144811394Y-103419132D01*
X144921943Y-103509857D01*
X145012668Y-103620406D01*
X145080080Y-103746525D01*
X145080081Y-103746528D01*
X145121595Y-103883379D01*
X145135612Y-104025700D01*
X145121595Y-104168021D01*
X145080081Y-104304872D01*
X145080080Y-104304875D01*
X145012668Y-104430994D01*
X144921943Y-104541543D01*
X144811394Y-104632268D01*
X144685275Y-104699680D01*
X144685272Y-104699681D01*
X144548421Y-104741195D01*
X144477313Y-104748198D01*
X144441760Y-104751700D01*
X144370440Y-104751700D01*
X144334887Y-104748198D01*
X144263779Y-104741195D01*
X144126928Y-104699681D01*
X144126925Y-104699680D01*
X144000806Y-104632268D01*
X143890257Y-104541543D01*
X143799532Y-104430994D01*
X143732120Y-104304875D01*
X143732119Y-104304872D01*
X143690605Y-104168021D01*
X143676588Y-104025700D01*
X143690605Y-103883379D01*
X143732119Y-103746528D01*
X143732120Y-103746525D01*
X143799532Y-103620406D01*
X143890257Y-103509857D01*
X144000806Y-103419132D01*
X144126925Y-103351720D01*
X144126928Y-103351719D01*
X144263779Y-103310205D01*
X144334887Y-103303202D01*
X144370440Y-103299700D01*
X144441760Y-103299700D01*
X144477313Y-103303202D01*
X144477313Y-103303202D01*
G37*
G36*
X146477313Y-103303202D02*
G01*
X146548421Y-103310205D01*
X146685272Y-103351719D01*
X146685275Y-103351720D01*
X146811394Y-103419132D01*
X146921943Y-103509857D01*
X147012668Y-103620406D01*
X147080080Y-103746525D01*
X147080081Y-103746528D01*
X147121595Y-103883379D01*
X147135612Y-104025700D01*
X147121595Y-104168021D01*
X147080081Y-104304872D01*
X147080080Y-104304875D01*
X147012668Y-104430994D01*
X146921943Y-104541543D01*
X146811394Y-104632268D01*
X146685275Y-104699680D01*
X146685272Y-104699681D01*
X146548421Y-104741195D01*
X146477313Y-104748198D01*
X146441760Y-104751700D01*
X146370440Y-104751700D01*
X146334887Y-104748198D01*
X146263779Y-104741195D01*
X146126928Y-104699681D01*
X146126925Y-104699680D01*
X146000806Y-104632268D01*
X145890257Y-104541543D01*
X145799532Y-104430994D01*
X145732120Y-104304875D01*
X145732119Y-104304872D01*
X145690605Y-104168021D01*
X145676588Y-104025700D01*
X145690605Y-103883379D01*
X145732119Y-103746528D01*
X145732120Y-103746525D01*
X145799532Y-103620406D01*
X145890257Y-103509857D01*
X146000806Y-103419132D01*
X146126925Y-103351720D01*
X146126928Y-103351719D01*
X146263779Y-103310205D01*
X146334887Y-103303202D01*
X146370440Y-103299700D01*
X146441760Y-103299700D01*
X146477313Y-103303202D01*
X146477313Y-103303202D01*
G37*
G36*
X148477313Y-103303202D02*
G01*
X148548421Y-103310205D01*
X148685272Y-103351719D01*
X148685275Y-103351720D01*
X148811394Y-103419132D01*
X148921943Y-103509857D01*
X149012668Y-103620406D01*
X149080080Y-103746525D01*
X149080081Y-103746528D01*
X149121595Y-103883379D01*
X149135612Y-104025700D01*
X149121595Y-104168021D01*
X149080081Y-104304872D01*
X149080080Y-104304875D01*
X149012668Y-104430994D01*
X148921943Y-104541543D01*
X148811394Y-104632268D01*
X148685275Y-104699680D01*
X148685272Y-104699681D01*
X148548421Y-104741195D01*
X148477313Y-104748198D01*
X148441760Y-104751700D01*
X148370440Y-104751700D01*
X148334887Y-104748198D01*
X148263779Y-104741195D01*
X148126928Y-104699681D01*
X148126925Y-104699680D01*
X148000806Y-104632268D01*
X147890257Y-104541543D01*
X147799532Y-104430994D01*
X147732120Y-104304875D01*
X147732119Y-104304872D01*
X147690605Y-104168021D01*
X147676588Y-104025700D01*
X147690605Y-103883379D01*
X147732119Y-103746528D01*
X147732120Y-103746525D01*
X147799532Y-103620406D01*
X147890257Y-103509857D01*
X148000806Y-103419132D01*
X148126925Y-103351720D01*
X148126928Y-103351719D01*
X148263779Y-103310205D01*
X148334887Y-103303202D01*
X148370440Y-103299700D01*
X148441760Y-103299700D01*
X148477313Y-103303202D01*
X148477313Y-103303202D01*
G37*
G36*
X70715700Y-102643500D02*
G01*
X69263700Y-102643500D01*
X69263700Y-101191500D01*
X70715700Y-101191500D01*
X70715700Y-102643500D01*
X70715700Y-102643500D01*
G37*
G36*
X123229213Y-91035002D02*
G01*
X123300321Y-91042005D01*
X123437172Y-91083519D01*
X123437175Y-91083520D01*
X123563294Y-91150932D01*
X123673843Y-91241657D01*
X123764568Y-91352206D01*
X123831980Y-91478325D01*
X123831981Y-91478328D01*
X123873495Y-91615179D01*
X123887512Y-91757500D01*
X123873495Y-91899821D01*
X123831981Y-92036672D01*
X123831980Y-92036675D01*
X123764568Y-92162794D01*
X123673843Y-92273343D01*
X123563294Y-92364068D01*
X123437175Y-92431480D01*
X123437172Y-92431481D01*
X123300321Y-92472995D01*
X123229213Y-92479998D01*
X123193660Y-92483500D01*
X123122340Y-92483500D01*
X123086787Y-92479998D01*
X123015679Y-92472995D01*
X122878828Y-92431481D01*
X122878825Y-92431480D01*
X122752706Y-92364068D01*
X122642157Y-92273343D01*
X122551432Y-92162794D01*
X122484020Y-92036675D01*
X122484019Y-92036672D01*
X122442505Y-91899821D01*
X122428488Y-91757500D01*
X122442505Y-91615179D01*
X122484019Y-91478328D01*
X122484020Y-91478325D01*
X122551432Y-91352206D01*
X122642157Y-91241657D01*
X122752706Y-91150932D01*
X122878825Y-91083520D01*
X122878828Y-91083519D01*
X123015679Y-91042005D01*
X123086787Y-91035002D01*
X123122340Y-91031500D01*
X123193660Y-91031500D01*
X123229213Y-91035002D01*
X123229213Y-91035002D01*
G37*
G36*
X121884000Y-92483500D02*
G01*
X120432000Y-92483500D01*
X120432000Y-91031500D01*
X121884000Y-91031500D01*
X121884000Y-92483500D01*
X121884000Y-92483500D01*
G37*
G36*
X125229213Y-91035002D02*
G01*
X125300321Y-91042005D01*
X125437172Y-91083519D01*
X125437175Y-91083520D01*
X125563294Y-91150932D01*
X125673843Y-91241657D01*
X125764568Y-91352206D01*
X125831980Y-91478325D01*
X125831981Y-91478328D01*
X125873495Y-91615179D01*
X125887512Y-91757500D01*
X125873495Y-91899821D01*
X125831981Y-92036672D01*
X125831980Y-92036675D01*
X125764568Y-92162794D01*
X125673843Y-92273343D01*
X125563294Y-92364068D01*
X125437175Y-92431480D01*
X125437172Y-92431481D01*
X125300321Y-92472995D01*
X125229213Y-92479998D01*
X125193660Y-92483500D01*
X125122340Y-92483500D01*
X125086787Y-92479998D01*
X125015679Y-92472995D01*
X124878828Y-92431481D01*
X124878825Y-92431480D01*
X124752706Y-92364068D01*
X124642157Y-92273343D01*
X124551432Y-92162794D01*
X124484020Y-92036675D01*
X124484019Y-92036672D01*
X124442505Y-91899821D01*
X124428488Y-91757500D01*
X124442505Y-91615179D01*
X124484019Y-91478328D01*
X124484020Y-91478325D01*
X124551432Y-91352206D01*
X124642157Y-91241657D01*
X124752706Y-91150932D01*
X124878825Y-91083520D01*
X124878828Y-91083519D01*
X125015679Y-91042005D01*
X125086787Y-91035002D01*
X125122340Y-91031500D01*
X125193660Y-91031500D01*
X125229213Y-91035002D01*
X125229213Y-91035002D01*
G37*
G36*
X127229213Y-91035002D02*
G01*
X127300321Y-91042005D01*
X127437172Y-91083519D01*
X127437175Y-91083520D01*
X127563294Y-91150932D01*
X127673843Y-91241657D01*
X127764568Y-91352206D01*
X127831980Y-91478325D01*
X127831981Y-91478328D01*
X127873495Y-91615179D01*
X127887512Y-91757500D01*
X127873495Y-91899821D01*
X127831981Y-92036672D01*
X127831980Y-92036675D01*
X127764568Y-92162794D01*
X127673843Y-92273343D01*
X127563294Y-92364068D01*
X127437175Y-92431480D01*
X127437172Y-92431481D01*
X127300321Y-92472995D01*
X127229213Y-92479998D01*
X127193660Y-92483500D01*
X127122340Y-92483500D01*
X127086787Y-92479998D01*
X127015679Y-92472995D01*
X126878828Y-92431481D01*
X126878825Y-92431480D01*
X126752706Y-92364068D01*
X126642157Y-92273343D01*
X126551432Y-92162794D01*
X126484020Y-92036675D01*
X126484019Y-92036672D01*
X126442505Y-91899821D01*
X126428488Y-91757500D01*
X126442505Y-91615179D01*
X126484019Y-91478328D01*
X126484020Y-91478325D01*
X126551432Y-91352206D01*
X126642157Y-91241657D01*
X126752706Y-91150932D01*
X126878825Y-91083520D01*
X126878828Y-91083519D01*
X127015679Y-91042005D01*
X127086787Y-91035002D01*
X127122340Y-91031500D01*
X127193660Y-91031500D01*
X127229213Y-91035002D01*
X127229213Y-91035002D01*
G37*
M02*
