G04 #@! TF.GenerationSoftware,KiCad,Pcbnew,(5.1.0)-1*
G04 #@! TF.CreationDate,2020-01-06T22:35:46-04:00*
G04 #@! TF.ProjectId,Main,4d61696e-2e6b-4696-9361-645f70636258,rev?*
G04 #@! TF.SameCoordinates,Original*
G04 #@! TF.FileFunction,Paste,Top*
G04 #@! TF.FilePolarity,Positive*
%FSLAX46Y46*%
G04 Gerber Fmt 4.6, Leading zero omitted, Abs format (unit mm)*
G04 Created by KiCad (PCBNEW (5.1.0)-1) date 2020-01-06 22:35:46*
%MOMM*%
%LPD*%
G04 APERTURE LIST*
%ADD10C,0.100000*%
%ADD11C,0.975000*%
%ADD12C,1.425000*%
%ADD13R,0.250000X0.750000*%
%ADD14C,1.150000*%
%ADD15C,0.950000*%
%ADD16R,1.400000X2.100000*%
%ADD17R,1.560000X0.650000*%
%ADD18R,7.340000X6.350000*%
%ADD19R,1.550000X1.200000*%
%ADD20R,1.550000X1.600000*%
%ADD21R,0.700000X0.800000*%
%ADD22C,0.590000*%
%ADD23C,0.540000*%
%ADD24C,0.250000*%
%ADD25C,0.600000*%
%ADD26C,0.920000*%
%ADD27R,0.600000X0.400000*%
%ADD28R,1.650000X2.400000*%
G04 APERTURE END LIST*
D10*
G36*
X177716642Y-101663174D02*
G01*
X177740303Y-101666684D01*
X177763507Y-101672496D01*
X177786029Y-101680554D01*
X177807653Y-101690782D01*
X177828170Y-101703079D01*
X177847383Y-101717329D01*
X177865107Y-101733393D01*
X177881171Y-101751117D01*
X177895421Y-101770330D01*
X177907718Y-101790847D01*
X177917946Y-101812471D01*
X177926004Y-101834993D01*
X177931816Y-101858197D01*
X177935326Y-101881858D01*
X177936500Y-101905750D01*
X177936500Y-102818250D01*
X177935326Y-102842142D01*
X177931816Y-102865803D01*
X177926004Y-102889007D01*
X177917946Y-102911529D01*
X177907718Y-102933153D01*
X177895421Y-102953670D01*
X177881171Y-102972883D01*
X177865107Y-102990607D01*
X177847383Y-103006671D01*
X177828170Y-103020921D01*
X177807653Y-103033218D01*
X177786029Y-103043446D01*
X177763507Y-103051504D01*
X177740303Y-103057316D01*
X177716642Y-103060826D01*
X177692750Y-103062000D01*
X177205250Y-103062000D01*
X177181358Y-103060826D01*
X177157697Y-103057316D01*
X177134493Y-103051504D01*
X177111971Y-103043446D01*
X177090347Y-103033218D01*
X177069830Y-103020921D01*
X177050617Y-103006671D01*
X177032893Y-102990607D01*
X177016829Y-102972883D01*
X177002579Y-102953670D01*
X176990282Y-102933153D01*
X176980054Y-102911529D01*
X176971996Y-102889007D01*
X176966184Y-102865803D01*
X176962674Y-102842142D01*
X176961500Y-102818250D01*
X176961500Y-101905750D01*
X176962674Y-101881858D01*
X176966184Y-101858197D01*
X176971996Y-101834993D01*
X176980054Y-101812471D01*
X176990282Y-101790847D01*
X177002579Y-101770330D01*
X177016829Y-101751117D01*
X177032893Y-101733393D01*
X177050617Y-101717329D01*
X177069830Y-101703079D01*
X177090347Y-101690782D01*
X177111971Y-101680554D01*
X177134493Y-101672496D01*
X177157697Y-101666684D01*
X177181358Y-101663174D01*
X177205250Y-101662000D01*
X177692750Y-101662000D01*
X177716642Y-101663174D01*
X177716642Y-101663174D01*
G37*
D11*
X177449000Y-102362000D03*
D10*
G36*
X179591642Y-101663174D02*
G01*
X179615303Y-101666684D01*
X179638507Y-101672496D01*
X179661029Y-101680554D01*
X179682653Y-101690782D01*
X179703170Y-101703079D01*
X179722383Y-101717329D01*
X179740107Y-101733393D01*
X179756171Y-101751117D01*
X179770421Y-101770330D01*
X179782718Y-101790847D01*
X179792946Y-101812471D01*
X179801004Y-101834993D01*
X179806816Y-101858197D01*
X179810326Y-101881858D01*
X179811500Y-101905750D01*
X179811500Y-102818250D01*
X179810326Y-102842142D01*
X179806816Y-102865803D01*
X179801004Y-102889007D01*
X179792946Y-102911529D01*
X179782718Y-102933153D01*
X179770421Y-102953670D01*
X179756171Y-102972883D01*
X179740107Y-102990607D01*
X179722383Y-103006671D01*
X179703170Y-103020921D01*
X179682653Y-103033218D01*
X179661029Y-103043446D01*
X179638507Y-103051504D01*
X179615303Y-103057316D01*
X179591642Y-103060826D01*
X179567750Y-103062000D01*
X179080250Y-103062000D01*
X179056358Y-103060826D01*
X179032697Y-103057316D01*
X179009493Y-103051504D01*
X178986971Y-103043446D01*
X178965347Y-103033218D01*
X178944830Y-103020921D01*
X178925617Y-103006671D01*
X178907893Y-102990607D01*
X178891829Y-102972883D01*
X178877579Y-102953670D01*
X178865282Y-102933153D01*
X178855054Y-102911529D01*
X178846996Y-102889007D01*
X178841184Y-102865803D01*
X178837674Y-102842142D01*
X178836500Y-102818250D01*
X178836500Y-101905750D01*
X178837674Y-101881858D01*
X178841184Y-101858197D01*
X178846996Y-101834993D01*
X178855054Y-101812471D01*
X178865282Y-101790847D01*
X178877579Y-101770330D01*
X178891829Y-101751117D01*
X178907893Y-101733393D01*
X178925617Y-101717329D01*
X178944830Y-101703079D01*
X178965347Y-101690782D01*
X178986971Y-101680554D01*
X179009493Y-101672496D01*
X179032697Y-101666684D01*
X179056358Y-101663174D01*
X179080250Y-101662000D01*
X179567750Y-101662000D01*
X179591642Y-101663174D01*
X179591642Y-101663174D01*
G37*
D11*
X179324000Y-102362000D03*
D10*
G36*
X209310504Y-55422704D02*
G01*
X209334773Y-55426304D01*
X209358571Y-55432265D01*
X209381671Y-55440530D01*
X209403849Y-55451020D01*
X209424893Y-55463633D01*
X209444598Y-55478247D01*
X209462777Y-55494723D01*
X209479253Y-55512902D01*
X209493867Y-55532607D01*
X209506480Y-55553651D01*
X209516970Y-55575829D01*
X209525235Y-55598929D01*
X209531196Y-55622727D01*
X209534796Y-55646996D01*
X209536000Y-55671500D01*
X209536000Y-56596500D01*
X209534796Y-56621004D01*
X209531196Y-56645273D01*
X209525235Y-56669071D01*
X209516970Y-56692171D01*
X209506480Y-56714349D01*
X209493867Y-56735393D01*
X209479253Y-56755098D01*
X209462777Y-56773277D01*
X209444598Y-56789753D01*
X209424893Y-56804367D01*
X209403849Y-56816980D01*
X209381671Y-56827470D01*
X209358571Y-56835735D01*
X209334773Y-56841696D01*
X209310504Y-56845296D01*
X209286000Y-56846500D01*
X208036000Y-56846500D01*
X208011496Y-56845296D01*
X207987227Y-56841696D01*
X207963429Y-56835735D01*
X207940329Y-56827470D01*
X207918151Y-56816980D01*
X207897107Y-56804367D01*
X207877402Y-56789753D01*
X207859223Y-56773277D01*
X207842747Y-56755098D01*
X207828133Y-56735393D01*
X207815520Y-56714349D01*
X207805030Y-56692171D01*
X207796765Y-56669071D01*
X207790804Y-56645273D01*
X207787204Y-56621004D01*
X207786000Y-56596500D01*
X207786000Y-55671500D01*
X207787204Y-55646996D01*
X207790804Y-55622727D01*
X207796765Y-55598929D01*
X207805030Y-55575829D01*
X207815520Y-55553651D01*
X207828133Y-55532607D01*
X207842747Y-55512902D01*
X207859223Y-55494723D01*
X207877402Y-55478247D01*
X207897107Y-55463633D01*
X207918151Y-55451020D01*
X207940329Y-55440530D01*
X207963429Y-55432265D01*
X207987227Y-55426304D01*
X208011496Y-55422704D01*
X208036000Y-55421500D01*
X209286000Y-55421500D01*
X209310504Y-55422704D01*
X209310504Y-55422704D01*
G37*
D12*
X208661000Y-56134000D03*
D10*
G36*
X209310504Y-58397704D02*
G01*
X209334773Y-58401304D01*
X209358571Y-58407265D01*
X209381671Y-58415530D01*
X209403849Y-58426020D01*
X209424893Y-58438633D01*
X209444598Y-58453247D01*
X209462777Y-58469723D01*
X209479253Y-58487902D01*
X209493867Y-58507607D01*
X209506480Y-58528651D01*
X209516970Y-58550829D01*
X209525235Y-58573929D01*
X209531196Y-58597727D01*
X209534796Y-58621996D01*
X209536000Y-58646500D01*
X209536000Y-59571500D01*
X209534796Y-59596004D01*
X209531196Y-59620273D01*
X209525235Y-59644071D01*
X209516970Y-59667171D01*
X209506480Y-59689349D01*
X209493867Y-59710393D01*
X209479253Y-59730098D01*
X209462777Y-59748277D01*
X209444598Y-59764753D01*
X209424893Y-59779367D01*
X209403849Y-59791980D01*
X209381671Y-59802470D01*
X209358571Y-59810735D01*
X209334773Y-59816696D01*
X209310504Y-59820296D01*
X209286000Y-59821500D01*
X208036000Y-59821500D01*
X208011496Y-59820296D01*
X207987227Y-59816696D01*
X207963429Y-59810735D01*
X207940329Y-59802470D01*
X207918151Y-59791980D01*
X207897107Y-59779367D01*
X207877402Y-59764753D01*
X207859223Y-59748277D01*
X207842747Y-59730098D01*
X207828133Y-59710393D01*
X207815520Y-59689349D01*
X207805030Y-59667171D01*
X207796765Y-59644071D01*
X207790804Y-59620273D01*
X207787204Y-59596004D01*
X207786000Y-59571500D01*
X207786000Y-58646500D01*
X207787204Y-58621996D01*
X207790804Y-58597727D01*
X207796765Y-58573929D01*
X207805030Y-58550829D01*
X207815520Y-58528651D01*
X207828133Y-58507607D01*
X207842747Y-58487902D01*
X207859223Y-58469723D01*
X207877402Y-58453247D01*
X207897107Y-58438633D01*
X207918151Y-58426020D01*
X207940329Y-58415530D01*
X207963429Y-58407265D01*
X207987227Y-58401304D01*
X208011496Y-58397704D01*
X208036000Y-58396500D01*
X209286000Y-58396500D01*
X209310504Y-58397704D01*
X209310504Y-58397704D01*
G37*
D12*
X208661000Y-59109000D03*
D10*
G36*
X209310504Y-61047204D02*
G01*
X209334773Y-61050804D01*
X209358571Y-61056765D01*
X209381671Y-61065030D01*
X209403849Y-61075520D01*
X209424893Y-61088133D01*
X209444598Y-61102747D01*
X209462777Y-61119223D01*
X209479253Y-61137402D01*
X209493867Y-61157107D01*
X209506480Y-61178151D01*
X209516970Y-61200329D01*
X209525235Y-61223429D01*
X209531196Y-61247227D01*
X209534796Y-61271496D01*
X209536000Y-61296000D01*
X209536000Y-62221000D01*
X209534796Y-62245504D01*
X209531196Y-62269773D01*
X209525235Y-62293571D01*
X209516970Y-62316671D01*
X209506480Y-62338849D01*
X209493867Y-62359893D01*
X209479253Y-62379598D01*
X209462777Y-62397777D01*
X209444598Y-62414253D01*
X209424893Y-62428867D01*
X209403849Y-62441480D01*
X209381671Y-62451970D01*
X209358571Y-62460235D01*
X209334773Y-62466196D01*
X209310504Y-62469796D01*
X209286000Y-62471000D01*
X208036000Y-62471000D01*
X208011496Y-62469796D01*
X207987227Y-62466196D01*
X207963429Y-62460235D01*
X207940329Y-62451970D01*
X207918151Y-62441480D01*
X207897107Y-62428867D01*
X207877402Y-62414253D01*
X207859223Y-62397777D01*
X207842747Y-62379598D01*
X207828133Y-62359893D01*
X207815520Y-62338849D01*
X207805030Y-62316671D01*
X207796765Y-62293571D01*
X207790804Y-62269773D01*
X207787204Y-62245504D01*
X207786000Y-62221000D01*
X207786000Y-61296000D01*
X207787204Y-61271496D01*
X207790804Y-61247227D01*
X207796765Y-61223429D01*
X207805030Y-61200329D01*
X207815520Y-61178151D01*
X207828133Y-61157107D01*
X207842747Y-61137402D01*
X207859223Y-61119223D01*
X207877402Y-61102747D01*
X207897107Y-61088133D01*
X207918151Y-61075520D01*
X207940329Y-61065030D01*
X207963429Y-61056765D01*
X207987227Y-61050804D01*
X208011496Y-61047204D01*
X208036000Y-61046000D01*
X209286000Y-61046000D01*
X209310504Y-61047204D01*
X209310504Y-61047204D01*
G37*
D12*
X208661000Y-61758500D03*
D10*
G36*
X209310504Y-64022204D02*
G01*
X209334773Y-64025804D01*
X209358571Y-64031765D01*
X209381671Y-64040030D01*
X209403849Y-64050520D01*
X209424893Y-64063133D01*
X209444598Y-64077747D01*
X209462777Y-64094223D01*
X209479253Y-64112402D01*
X209493867Y-64132107D01*
X209506480Y-64153151D01*
X209516970Y-64175329D01*
X209525235Y-64198429D01*
X209531196Y-64222227D01*
X209534796Y-64246496D01*
X209536000Y-64271000D01*
X209536000Y-65196000D01*
X209534796Y-65220504D01*
X209531196Y-65244773D01*
X209525235Y-65268571D01*
X209516970Y-65291671D01*
X209506480Y-65313849D01*
X209493867Y-65334893D01*
X209479253Y-65354598D01*
X209462777Y-65372777D01*
X209444598Y-65389253D01*
X209424893Y-65403867D01*
X209403849Y-65416480D01*
X209381671Y-65426970D01*
X209358571Y-65435235D01*
X209334773Y-65441196D01*
X209310504Y-65444796D01*
X209286000Y-65446000D01*
X208036000Y-65446000D01*
X208011496Y-65444796D01*
X207987227Y-65441196D01*
X207963429Y-65435235D01*
X207940329Y-65426970D01*
X207918151Y-65416480D01*
X207897107Y-65403867D01*
X207877402Y-65389253D01*
X207859223Y-65372777D01*
X207842747Y-65354598D01*
X207828133Y-65334893D01*
X207815520Y-65313849D01*
X207805030Y-65291671D01*
X207796765Y-65268571D01*
X207790804Y-65244773D01*
X207787204Y-65220504D01*
X207786000Y-65196000D01*
X207786000Y-64271000D01*
X207787204Y-64246496D01*
X207790804Y-64222227D01*
X207796765Y-64198429D01*
X207805030Y-64175329D01*
X207815520Y-64153151D01*
X207828133Y-64132107D01*
X207842747Y-64112402D01*
X207859223Y-64094223D01*
X207877402Y-64077747D01*
X207897107Y-64063133D01*
X207918151Y-64050520D01*
X207940329Y-64040030D01*
X207963429Y-64031765D01*
X207987227Y-64025804D01*
X208011496Y-64022204D01*
X208036000Y-64021000D01*
X209286000Y-64021000D01*
X209310504Y-64022204D01*
X209310504Y-64022204D01*
G37*
D12*
X208661000Y-64733500D03*
D10*
G36*
X107964504Y-87607704D02*
G01*
X107988773Y-87611304D01*
X108012571Y-87617265D01*
X108035671Y-87625530D01*
X108057849Y-87636020D01*
X108078893Y-87648633D01*
X108098598Y-87663247D01*
X108116777Y-87679723D01*
X108133253Y-87697902D01*
X108147867Y-87717607D01*
X108160480Y-87738651D01*
X108170970Y-87760829D01*
X108179235Y-87783929D01*
X108185196Y-87807727D01*
X108188796Y-87831996D01*
X108190000Y-87856500D01*
X108190000Y-88781500D01*
X108188796Y-88806004D01*
X108185196Y-88830273D01*
X108179235Y-88854071D01*
X108170970Y-88877171D01*
X108160480Y-88899349D01*
X108147867Y-88920393D01*
X108133253Y-88940098D01*
X108116777Y-88958277D01*
X108098598Y-88974753D01*
X108078893Y-88989367D01*
X108057849Y-89001980D01*
X108035671Y-89012470D01*
X108012571Y-89020735D01*
X107988773Y-89026696D01*
X107964504Y-89030296D01*
X107940000Y-89031500D01*
X106690000Y-89031500D01*
X106665496Y-89030296D01*
X106641227Y-89026696D01*
X106617429Y-89020735D01*
X106594329Y-89012470D01*
X106572151Y-89001980D01*
X106551107Y-88989367D01*
X106531402Y-88974753D01*
X106513223Y-88958277D01*
X106496747Y-88940098D01*
X106482133Y-88920393D01*
X106469520Y-88899349D01*
X106459030Y-88877171D01*
X106450765Y-88854071D01*
X106444804Y-88830273D01*
X106441204Y-88806004D01*
X106440000Y-88781500D01*
X106440000Y-87856500D01*
X106441204Y-87831996D01*
X106444804Y-87807727D01*
X106450765Y-87783929D01*
X106459030Y-87760829D01*
X106469520Y-87738651D01*
X106482133Y-87717607D01*
X106496747Y-87697902D01*
X106513223Y-87679723D01*
X106531402Y-87663247D01*
X106551107Y-87648633D01*
X106572151Y-87636020D01*
X106594329Y-87625530D01*
X106617429Y-87617265D01*
X106641227Y-87611304D01*
X106665496Y-87607704D01*
X106690000Y-87606500D01*
X107940000Y-87606500D01*
X107964504Y-87607704D01*
X107964504Y-87607704D01*
G37*
D12*
X107315000Y-88319000D03*
D10*
G36*
X107964504Y-84632704D02*
G01*
X107988773Y-84636304D01*
X108012571Y-84642265D01*
X108035671Y-84650530D01*
X108057849Y-84661020D01*
X108078893Y-84673633D01*
X108098598Y-84688247D01*
X108116777Y-84704723D01*
X108133253Y-84722902D01*
X108147867Y-84742607D01*
X108160480Y-84763651D01*
X108170970Y-84785829D01*
X108179235Y-84808929D01*
X108185196Y-84832727D01*
X108188796Y-84856996D01*
X108190000Y-84881500D01*
X108190000Y-85806500D01*
X108188796Y-85831004D01*
X108185196Y-85855273D01*
X108179235Y-85879071D01*
X108170970Y-85902171D01*
X108160480Y-85924349D01*
X108147867Y-85945393D01*
X108133253Y-85965098D01*
X108116777Y-85983277D01*
X108098598Y-85999753D01*
X108078893Y-86014367D01*
X108057849Y-86026980D01*
X108035671Y-86037470D01*
X108012571Y-86045735D01*
X107988773Y-86051696D01*
X107964504Y-86055296D01*
X107940000Y-86056500D01*
X106690000Y-86056500D01*
X106665496Y-86055296D01*
X106641227Y-86051696D01*
X106617429Y-86045735D01*
X106594329Y-86037470D01*
X106572151Y-86026980D01*
X106551107Y-86014367D01*
X106531402Y-85999753D01*
X106513223Y-85983277D01*
X106496747Y-85965098D01*
X106482133Y-85945393D01*
X106469520Y-85924349D01*
X106459030Y-85902171D01*
X106450765Y-85879071D01*
X106444804Y-85855273D01*
X106441204Y-85831004D01*
X106440000Y-85806500D01*
X106440000Y-84881500D01*
X106441204Y-84856996D01*
X106444804Y-84832727D01*
X106450765Y-84808929D01*
X106459030Y-84785829D01*
X106469520Y-84763651D01*
X106482133Y-84742607D01*
X106496747Y-84722902D01*
X106513223Y-84704723D01*
X106531402Y-84688247D01*
X106551107Y-84673633D01*
X106572151Y-84661020D01*
X106594329Y-84650530D01*
X106617429Y-84642265D01*
X106641227Y-84636304D01*
X106665496Y-84632704D01*
X106690000Y-84631500D01*
X107940000Y-84631500D01*
X107964504Y-84632704D01*
X107964504Y-84632704D01*
G37*
D12*
X107315000Y-85344000D03*
D13*
X178708000Y-67276000D03*
X178208000Y-67276000D03*
X179208000Y-67276000D03*
X179708000Y-67276000D03*
X179708000Y-64176000D03*
X179208000Y-64176000D03*
X178708000Y-64176000D03*
X178208000Y-64176000D03*
D10*
G36*
X205324505Y-55551204D02*
G01*
X205348773Y-55554804D01*
X205372572Y-55560765D01*
X205395671Y-55569030D01*
X205417850Y-55579520D01*
X205438893Y-55592132D01*
X205458599Y-55606747D01*
X205476777Y-55623223D01*
X205493253Y-55641401D01*
X205507868Y-55661107D01*
X205520480Y-55682150D01*
X205530970Y-55704329D01*
X205539235Y-55727428D01*
X205545196Y-55751227D01*
X205548796Y-55775495D01*
X205550000Y-55799999D01*
X205550000Y-56450001D01*
X205548796Y-56474505D01*
X205545196Y-56498773D01*
X205539235Y-56522572D01*
X205530970Y-56545671D01*
X205520480Y-56567850D01*
X205507868Y-56588893D01*
X205493253Y-56608599D01*
X205476777Y-56626777D01*
X205458599Y-56643253D01*
X205438893Y-56657868D01*
X205417850Y-56670480D01*
X205395671Y-56680970D01*
X205372572Y-56689235D01*
X205348773Y-56695196D01*
X205324505Y-56698796D01*
X205300001Y-56700000D01*
X204399999Y-56700000D01*
X204375495Y-56698796D01*
X204351227Y-56695196D01*
X204327428Y-56689235D01*
X204304329Y-56680970D01*
X204282150Y-56670480D01*
X204261107Y-56657868D01*
X204241401Y-56643253D01*
X204223223Y-56626777D01*
X204206747Y-56608599D01*
X204192132Y-56588893D01*
X204179520Y-56567850D01*
X204169030Y-56545671D01*
X204160765Y-56522572D01*
X204154804Y-56498773D01*
X204151204Y-56474505D01*
X204150000Y-56450001D01*
X204150000Y-55799999D01*
X204151204Y-55775495D01*
X204154804Y-55751227D01*
X204160765Y-55727428D01*
X204169030Y-55704329D01*
X204179520Y-55682150D01*
X204192132Y-55661107D01*
X204206747Y-55641401D01*
X204223223Y-55623223D01*
X204241401Y-55606747D01*
X204261107Y-55592132D01*
X204282150Y-55579520D01*
X204304329Y-55569030D01*
X204327428Y-55560765D01*
X204351227Y-55554804D01*
X204375495Y-55551204D01*
X204399999Y-55550000D01*
X205300001Y-55550000D01*
X205324505Y-55551204D01*
X205324505Y-55551204D01*
G37*
D14*
X204850000Y-56125000D03*
D10*
G36*
X205324505Y-57601204D02*
G01*
X205348773Y-57604804D01*
X205372572Y-57610765D01*
X205395671Y-57619030D01*
X205417850Y-57629520D01*
X205438893Y-57642132D01*
X205458599Y-57656747D01*
X205476777Y-57673223D01*
X205493253Y-57691401D01*
X205507868Y-57711107D01*
X205520480Y-57732150D01*
X205530970Y-57754329D01*
X205539235Y-57777428D01*
X205545196Y-57801227D01*
X205548796Y-57825495D01*
X205550000Y-57849999D01*
X205550000Y-58500001D01*
X205548796Y-58524505D01*
X205545196Y-58548773D01*
X205539235Y-58572572D01*
X205530970Y-58595671D01*
X205520480Y-58617850D01*
X205507868Y-58638893D01*
X205493253Y-58658599D01*
X205476777Y-58676777D01*
X205458599Y-58693253D01*
X205438893Y-58707868D01*
X205417850Y-58720480D01*
X205395671Y-58730970D01*
X205372572Y-58739235D01*
X205348773Y-58745196D01*
X205324505Y-58748796D01*
X205300001Y-58750000D01*
X204399999Y-58750000D01*
X204375495Y-58748796D01*
X204351227Y-58745196D01*
X204327428Y-58739235D01*
X204304329Y-58730970D01*
X204282150Y-58720480D01*
X204261107Y-58707868D01*
X204241401Y-58693253D01*
X204223223Y-58676777D01*
X204206747Y-58658599D01*
X204192132Y-58638893D01*
X204179520Y-58617850D01*
X204169030Y-58595671D01*
X204160765Y-58572572D01*
X204154804Y-58548773D01*
X204151204Y-58524505D01*
X204150000Y-58500001D01*
X204150000Y-57849999D01*
X204151204Y-57825495D01*
X204154804Y-57801227D01*
X204160765Y-57777428D01*
X204169030Y-57754329D01*
X204179520Y-57732150D01*
X204192132Y-57711107D01*
X204206747Y-57691401D01*
X204223223Y-57673223D01*
X204241401Y-57656747D01*
X204261107Y-57642132D01*
X204282150Y-57629520D01*
X204304329Y-57619030D01*
X204327428Y-57610765D01*
X204351227Y-57604804D01*
X204375495Y-57601204D01*
X204399999Y-57600000D01*
X205300001Y-57600000D01*
X205324505Y-57601204D01*
X205324505Y-57601204D01*
G37*
D14*
X204850000Y-58175000D03*
D10*
G36*
X181110779Y-48276144D02*
G01*
X181133834Y-48279563D01*
X181156443Y-48285227D01*
X181178387Y-48293079D01*
X181199457Y-48303044D01*
X181219448Y-48315026D01*
X181238168Y-48328910D01*
X181255438Y-48344562D01*
X181271090Y-48361832D01*
X181284974Y-48380552D01*
X181296956Y-48400543D01*
X181306921Y-48421613D01*
X181314773Y-48443557D01*
X181320437Y-48466166D01*
X181323856Y-48489221D01*
X181325000Y-48512500D01*
X181325000Y-48987500D01*
X181323856Y-49010779D01*
X181320437Y-49033834D01*
X181314773Y-49056443D01*
X181306921Y-49078387D01*
X181296956Y-49099457D01*
X181284974Y-49119448D01*
X181271090Y-49138168D01*
X181255438Y-49155438D01*
X181238168Y-49171090D01*
X181219448Y-49184974D01*
X181199457Y-49196956D01*
X181178387Y-49206921D01*
X181156443Y-49214773D01*
X181133834Y-49220437D01*
X181110779Y-49223856D01*
X181087500Y-49225000D01*
X180512500Y-49225000D01*
X180489221Y-49223856D01*
X180466166Y-49220437D01*
X180443557Y-49214773D01*
X180421613Y-49206921D01*
X180400543Y-49196956D01*
X180380552Y-49184974D01*
X180361832Y-49171090D01*
X180344562Y-49155438D01*
X180328910Y-49138168D01*
X180315026Y-49119448D01*
X180303044Y-49099457D01*
X180293079Y-49078387D01*
X180285227Y-49056443D01*
X180279563Y-49033834D01*
X180276144Y-49010779D01*
X180275000Y-48987500D01*
X180275000Y-48512500D01*
X180276144Y-48489221D01*
X180279563Y-48466166D01*
X180285227Y-48443557D01*
X180293079Y-48421613D01*
X180303044Y-48400543D01*
X180315026Y-48380552D01*
X180328910Y-48361832D01*
X180344562Y-48344562D01*
X180361832Y-48328910D01*
X180380552Y-48315026D01*
X180400543Y-48303044D01*
X180421613Y-48293079D01*
X180443557Y-48285227D01*
X180466166Y-48279563D01*
X180489221Y-48276144D01*
X180512500Y-48275000D01*
X181087500Y-48275000D01*
X181110779Y-48276144D01*
X181110779Y-48276144D01*
G37*
D15*
X180800000Y-48750000D03*
D10*
G36*
X182860779Y-48276144D02*
G01*
X182883834Y-48279563D01*
X182906443Y-48285227D01*
X182928387Y-48293079D01*
X182949457Y-48303044D01*
X182969448Y-48315026D01*
X182988168Y-48328910D01*
X183005438Y-48344562D01*
X183021090Y-48361832D01*
X183034974Y-48380552D01*
X183046956Y-48400543D01*
X183056921Y-48421613D01*
X183064773Y-48443557D01*
X183070437Y-48466166D01*
X183073856Y-48489221D01*
X183075000Y-48512500D01*
X183075000Y-48987500D01*
X183073856Y-49010779D01*
X183070437Y-49033834D01*
X183064773Y-49056443D01*
X183056921Y-49078387D01*
X183046956Y-49099457D01*
X183034974Y-49119448D01*
X183021090Y-49138168D01*
X183005438Y-49155438D01*
X182988168Y-49171090D01*
X182969448Y-49184974D01*
X182949457Y-49196956D01*
X182928387Y-49206921D01*
X182906443Y-49214773D01*
X182883834Y-49220437D01*
X182860779Y-49223856D01*
X182837500Y-49225000D01*
X182262500Y-49225000D01*
X182239221Y-49223856D01*
X182216166Y-49220437D01*
X182193557Y-49214773D01*
X182171613Y-49206921D01*
X182150543Y-49196956D01*
X182130552Y-49184974D01*
X182111832Y-49171090D01*
X182094562Y-49155438D01*
X182078910Y-49138168D01*
X182065026Y-49119448D01*
X182053044Y-49099457D01*
X182043079Y-49078387D01*
X182035227Y-49056443D01*
X182029563Y-49033834D01*
X182026144Y-49010779D01*
X182025000Y-48987500D01*
X182025000Y-48512500D01*
X182026144Y-48489221D01*
X182029563Y-48466166D01*
X182035227Y-48443557D01*
X182043079Y-48421613D01*
X182053044Y-48400543D01*
X182065026Y-48380552D01*
X182078910Y-48361832D01*
X182094562Y-48344562D01*
X182111832Y-48328910D01*
X182130552Y-48315026D01*
X182150543Y-48303044D01*
X182171613Y-48293079D01*
X182193557Y-48285227D01*
X182216166Y-48279563D01*
X182239221Y-48276144D01*
X182262500Y-48275000D01*
X182837500Y-48275000D01*
X182860779Y-48276144D01*
X182860779Y-48276144D01*
G37*
D15*
X182550000Y-48750000D03*
D16*
X196006000Y-84582000D03*
X200406000Y-84582000D03*
X191852000Y-84582000D03*
X187452000Y-84582000D03*
D17*
X204961500Y-66931500D03*
X204961500Y-67881500D03*
X204961500Y-68831500D03*
X207661500Y-68831500D03*
X207661500Y-66931500D03*
D10*
G36*
X177217004Y-69420704D02*
G01*
X177241273Y-69424304D01*
X177265071Y-69430265D01*
X177288171Y-69438530D01*
X177310349Y-69449020D01*
X177331393Y-69461633D01*
X177351098Y-69476247D01*
X177369277Y-69492723D01*
X177385753Y-69510902D01*
X177400367Y-69530607D01*
X177412980Y-69551651D01*
X177423470Y-69573829D01*
X177431735Y-69596929D01*
X177437696Y-69620727D01*
X177441296Y-69644996D01*
X177442500Y-69669500D01*
X177442500Y-70919500D01*
X177441296Y-70944004D01*
X177437696Y-70968273D01*
X177431735Y-70992071D01*
X177423470Y-71015171D01*
X177412980Y-71037349D01*
X177400367Y-71058393D01*
X177385753Y-71078098D01*
X177369277Y-71096277D01*
X177351098Y-71112753D01*
X177331393Y-71127367D01*
X177310349Y-71139980D01*
X177288171Y-71150470D01*
X177265071Y-71158735D01*
X177241273Y-71164696D01*
X177217004Y-71168296D01*
X177192500Y-71169500D01*
X176267500Y-71169500D01*
X176242996Y-71168296D01*
X176218727Y-71164696D01*
X176194929Y-71158735D01*
X176171829Y-71150470D01*
X176149651Y-71139980D01*
X176128607Y-71127367D01*
X176108902Y-71112753D01*
X176090723Y-71096277D01*
X176074247Y-71078098D01*
X176059633Y-71058393D01*
X176047020Y-71037349D01*
X176036530Y-71015171D01*
X176028265Y-70992071D01*
X176022304Y-70968273D01*
X176018704Y-70944004D01*
X176017500Y-70919500D01*
X176017500Y-69669500D01*
X176018704Y-69644996D01*
X176022304Y-69620727D01*
X176028265Y-69596929D01*
X176036530Y-69573829D01*
X176047020Y-69551651D01*
X176059633Y-69530607D01*
X176074247Y-69510902D01*
X176090723Y-69492723D01*
X176108902Y-69476247D01*
X176128607Y-69461633D01*
X176149651Y-69449020D01*
X176171829Y-69438530D01*
X176194929Y-69430265D01*
X176218727Y-69424304D01*
X176242996Y-69420704D01*
X176267500Y-69419500D01*
X177192500Y-69419500D01*
X177217004Y-69420704D01*
X177217004Y-69420704D01*
G37*
D12*
X176730000Y-70294500D03*
D10*
G36*
X180192004Y-69420704D02*
G01*
X180216273Y-69424304D01*
X180240071Y-69430265D01*
X180263171Y-69438530D01*
X180285349Y-69449020D01*
X180306393Y-69461633D01*
X180326098Y-69476247D01*
X180344277Y-69492723D01*
X180360753Y-69510902D01*
X180375367Y-69530607D01*
X180387980Y-69551651D01*
X180398470Y-69573829D01*
X180406735Y-69596929D01*
X180412696Y-69620727D01*
X180416296Y-69644996D01*
X180417500Y-69669500D01*
X180417500Y-70919500D01*
X180416296Y-70944004D01*
X180412696Y-70968273D01*
X180406735Y-70992071D01*
X180398470Y-71015171D01*
X180387980Y-71037349D01*
X180375367Y-71058393D01*
X180360753Y-71078098D01*
X180344277Y-71096277D01*
X180326098Y-71112753D01*
X180306393Y-71127367D01*
X180285349Y-71139980D01*
X180263171Y-71150470D01*
X180240071Y-71158735D01*
X180216273Y-71164696D01*
X180192004Y-71168296D01*
X180167500Y-71169500D01*
X179242500Y-71169500D01*
X179217996Y-71168296D01*
X179193727Y-71164696D01*
X179169929Y-71158735D01*
X179146829Y-71150470D01*
X179124651Y-71139980D01*
X179103607Y-71127367D01*
X179083902Y-71112753D01*
X179065723Y-71096277D01*
X179049247Y-71078098D01*
X179034633Y-71058393D01*
X179022020Y-71037349D01*
X179011530Y-71015171D01*
X179003265Y-70992071D01*
X178997304Y-70968273D01*
X178993704Y-70944004D01*
X178992500Y-70919500D01*
X178992500Y-69669500D01*
X178993704Y-69644996D01*
X178997304Y-69620727D01*
X179003265Y-69596929D01*
X179011530Y-69573829D01*
X179022020Y-69551651D01*
X179034633Y-69530607D01*
X179049247Y-69510902D01*
X179065723Y-69492723D01*
X179083902Y-69476247D01*
X179103607Y-69461633D01*
X179124651Y-69449020D01*
X179146829Y-69438530D01*
X179169929Y-69430265D01*
X179193727Y-69424304D01*
X179217996Y-69420704D01*
X179242500Y-69419500D01*
X180167500Y-69419500D01*
X180192004Y-69420704D01*
X180192004Y-69420704D01*
G37*
D12*
X179705000Y-70294500D03*
D10*
G36*
X186958504Y-51077704D02*
G01*
X186982773Y-51081304D01*
X187006571Y-51087265D01*
X187029671Y-51095530D01*
X187051849Y-51106020D01*
X187072893Y-51118633D01*
X187092598Y-51133247D01*
X187110777Y-51149723D01*
X187127253Y-51167902D01*
X187141867Y-51187607D01*
X187154480Y-51208651D01*
X187164970Y-51230829D01*
X187173235Y-51253929D01*
X187179196Y-51277727D01*
X187182796Y-51301996D01*
X187184000Y-51326500D01*
X187184000Y-52251500D01*
X187182796Y-52276004D01*
X187179196Y-52300273D01*
X187173235Y-52324071D01*
X187164970Y-52347171D01*
X187154480Y-52369349D01*
X187141867Y-52390393D01*
X187127253Y-52410098D01*
X187110777Y-52428277D01*
X187092598Y-52444753D01*
X187072893Y-52459367D01*
X187051849Y-52471980D01*
X187029671Y-52482470D01*
X187006571Y-52490735D01*
X186982773Y-52496696D01*
X186958504Y-52500296D01*
X186934000Y-52501500D01*
X185684000Y-52501500D01*
X185659496Y-52500296D01*
X185635227Y-52496696D01*
X185611429Y-52490735D01*
X185588329Y-52482470D01*
X185566151Y-52471980D01*
X185545107Y-52459367D01*
X185525402Y-52444753D01*
X185507223Y-52428277D01*
X185490747Y-52410098D01*
X185476133Y-52390393D01*
X185463520Y-52369349D01*
X185453030Y-52347171D01*
X185444765Y-52324071D01*
X185438804Y-52300273D01*
X185435204Y-52276004D01*
X185434000Y-52251500D01*
X185434000Y-51326500D01*
X185435204Y-51301996D01*
X185438804Y-51277727D01*
X185444765Y-51253929D01*
X185453030Y-51230829D01*
X185463520Y-51208651D01*
X185476133Y-51187607D01*
X185490747Y-51167902D01*
X185507223Y-51149723D01*
X185525402Y-51133247D01*
X185545107Y-51118633D01*
X185566151Y-51106020D01*
X185588329Y-51095530D01*
X185611429Y-51087265D01*
X185635227Y-51081304D01*
X185659496Y-51077704D01*
X185684000Y-51076500D01*
X186934000Y-51076500D01*
X186958504Y-51077704D01*
X186958504Y-51077704D01*
G37*
D12*
X186309000Y-51789000D03*
D10*
G36*
X186958504Y-54052704D02*
G01*
X186982773Y-54056304D01*
X187006571Y-54062265D01*
X187029671Y-54070530D01*
X187051849Y-54081020D01*
X187072893Y-54093633D01*
X187092598Y-54108247D01*
X187110777Y-54124723D01*
X187127253Y-54142902D01*
X187141867Y-54162607D01*
X187154480Y-54183651D01*
X187164970Y-54205829D01*
X187173235Y-54228929D01*
X187179196Y-54252727D01*
X187182796Y-54276996D01*
X187184000Y-54301500D01*
X187184000Y-55226500D01*
X187182796Y-55251004D01*
X187179196Y-55275273D01*
X187173235Y-55299071D01*
X187164970Y-55322171D01*
X187154480Y-55344349D01*
X187141867Y-55365393D01*
X187127253Y-55385098D01*
X187110777Y-55403277D01*
X187092598Y-55419753D01*
X187072893Y-55434367D01*
X187051849Y-55446980D01*
X187029671Y-55457470D01*
X187006571Y-55465735D01*
X186982773Y-55471696D01*
X186958504Y-55475296D01*
X186934000Y-55476500D01*
X185684000Y-55476500D01*
X185659496Y-55475296D01*
X185635227Y-55471696D01*
X185611429Y-55465735D01*
X185588329Y-55457470D01*
X185566151Y-55446980D01*
X185545107Y-55434367D01*
X185525402Y-55419753D01*
X185507223Y-55403277D01*
X185490747Y-55385098D01*
X185476133Y-55365393D01*
X185463520Y-55344349D01*
X185453030Y-55322171D01*
X185444765Y-55299071D01*
X185438804Y-55275273D01*
X185435204Y-55251004D01*
X185434000Y-55226500D01*
X185434000Y-54301500D01*
X185435204Y-54276996D01*
X185438804Y-54252727D01*
X185444765Y-54228929D01*
X185453030Y-54205829D01*
X185463520Y-54183651D01*
X185476133Y-54162607D01*
X185490747Y-54142902D01*
X185507223Y-54124723D01*
X185525402Y-54108247D01*
X185545107Y-54093633D01*
X185566151Y-54081020D01*
X185588329Y-54070530D01*
X185611429Y-54062265D01*
X185635227Y-54056304D01*
X185659496Y-54052704D01*
X185684000Y-54051500D01*
X186934000Y-54051500D01*
X186958504Y-54052704D01*
X186958504Y-54052704D01*
G37*
D12*
X186309000Y-54764000D03*
D10*
G36*
X126472604Y-61673704D02*
G01*
X126496873Y-61677304D01*
X126520671Y-61683265D01*
X126543771Y-61691530D01*
X126565949Y-61702020D01*
X126586993Y-61714633D01*
X126606698Y-61729247D01*
X126624877Y-61745723D01*
X126641353Y-61763902D01*
X126655967Y-61783607D01*
X126668580Y-61804651D01*
X126679070Y-61826829D01*
X126687335Y-61849929D01*
X126693296Y-61873727D01*
X126696896Y-61897996D01*
X126698100Y-61922500D01*
X126698100Y-63172500D01*
X126696896Y-63197004D01*
X126693296Y-63221273D01*
X126687335Y-63245071D01*
X126679070Y-63268171D01*
X126668580Y-63290349D01*
X126655967Y-63311393D01*
X126641353Y-63331098D01*
X126624877Y-63349277D01*
X126606698Y-63365753D01*
X126586993Y-63380367D01*
X126565949Y-63392980D01*
X126543771Y-63403470D01*
X126520671Y-63411735D01*
X126496873Y-63417696D01*
X126472604Y-63421296D01*
X126448100Y-63422500D01*
X125523100Y-63422500D01*
X125498596Y-63421296D01*
X125474327Y-63417696D01*
X125450529Y-63411735D01*
X125427429Y-63403470D01*
X125405251Y-63392980D01*
X125384207Y-63380367D01*
X125364502Y-63365753D01*
X125346323Y-63349277D01*
X125329847Y-63331098D01*
X125315233Y-63311393D01*
X125302620Y-63290349D01*
X125292130Y-63268171D01*
X125283865Y-63245071D01*
X125277904Y-63221273D01*
X125274304Y-63197004D01*
X125273100Y-63172500D01*
X125273100Y-61922500D01*
X125274304Y-61897996D01*
X125277904Y-61873727D01*
X125283865Y-61849929D01*
X125292130Y-61826829D01*
X125302620Y-61804651D01*
X125315233Y-61783607D01*
X125329847Y-61763902D01*
X125346323Y-61745723D01*
X125364502Y-61729247D01*
X125384207Y-61714633D01*
X125405251Y-61702020D01*
X125427429Y-61691530D01*
X125450529Y-61683265D01*
X125474327Y-61677304D01*
X125498596Y-61673704D01*
X125523100Y-61672500D01*
X126448100Y-61672500D01*
X126472604Y-61673704D01*
X126472604Y-61673704D01*
G37*
D12*
X125985600Y-62547500D03*
D10*
G36*
X123497604Y-61673704D02*
G01*
X123521873Y-61677304D01*
X123545671Y-61683265D01*
X123568771Y-61691530D01*
X123590949Y-61702020D01*
X123611993Y-61714633D01*
X123631698Y-61729247D01*
X123649877Y-61745723D01*
X123666353Y-61763902D01*
X123680967Y-61783607D01*
X123693580Y-61804651D01*
X123704070Y-61826829D01*
X123712335Y-61849929D01*
X123718296Y-61873727D01*
X123721896Y-61897996D01*
X123723100Y-61922500D01*
X123723100Y-63172500D01*
X123721896Y-63197004D01*
X123718296Y-63221273D01*
X123712335Y-63245071D01*
X123704070Y-63268171D01*
X123693580Y-63290349D01*
X123680967Y-63311393D01*
X123666353Y-63331098D01*
X123649877Y-63349277D01*
X123631698Y-63365753D01*
X123611993Y-63380367D01*
X123590949Y-63392980D01*
X123568771Y-63403470D01*
X123545671Y-63411735D01*
X123521873Y-63417696D01*
X123497604Y-63421296D01*
X123473100Y-63422500D01*
X122548100Y-63422500D01*
X122523596Y-63421296D01*
X122499327Y-63417696D01*
X122475529Y-63411735D01*
X122452429Y-63403470D01*
X122430251Y-63392980D01*
X122409207Y-63380367D01*
X122389502Y-63365753D01*
X122371323Y-63349277D01*
X122354847Y-63331098D01*
X122340233Y-63311393D01*
X122327620Y-63290349D01*
X122317130Y-63268171D01*
X122308865Y-63245071D01*
X122302904Y-63221273D01*
X122299304Y-63197004D01*
X122298100Y-63172500D01*
X122298100Y-61922500D01*
X122299304Y-61897996D01*
X122302904Y-61873727D01*
X122308865Y-61849929D01*
X122317130Y-61826829D01*
X122327620Y-61804651D01*
X122340233Y-61783607D01*
X122354847Y-61763902D01*
X122371323Y-61745723D01*
X122389502Y-61729247D01*
X122409207Y-61714633D01*
X122430251Y-61702020D01*
X122452429Y-61691530D01*
X122475529Y-61683265D01*
X122499327Y-61677304D01*
X122523596Y-61673704D01*
X122548100Y-61672500D01*
X123473100Y-61672500D01*
X123497604Y-61673704D01*
X123497604Y-61673704D01*
G37*
D12*
X123010600Y-62547500D03*
D18*
X164310700Y-100533200D03*
X85650700Y-100533200D03*
D10*
G36*
X210862504Y-66245704D02*
G01*
X210886773Y-66249304D01*
X210910571Y-66255265D01*
X210933671Y-66263530D01*
X210955849Y-66274020D01*
X210976893Y-66286633D01*
X210996598Y-66301247D01*
X211014777Y-66317723D01*
X211031253Y-66335902D01*
X211045867Y-66355607D01*
X211058480Y-66376651D01*
X211068970Y-66398829D01*
X211077235Y-66421929D01*
X211083196Y-66445727D01*
X211086796Y-66469996D01*
X211088000Y-66494500D01*
X211088000Y-67744500D01*
X211086796Y-67769004D01*
X211083196Y-67793273D01*
X211077235Y-67817071D01*
X211068970Y-67840171D01*
X211058480Y-67862349D01*
X211045867Y-67883393D01*
X211031253Y-67903098D01*
X211014777Y-67921277D01*
X210996598Y-67937753D01*
X210976893Y-67952367D01*
X210955849Y-67964980D01*
X210933671Y-67975470D01*
X210910571Y-67983735D01*
X210886773Y-67989696D01*
X210862504Y-67993296D01*
X210838000Y-67994500D01*
X209913000Y-67994500D01*
X209888496Y-67993296D01*
X209864227Y-67989696D01*
X209840429Y-67983735D01*
X209817329Y-67975470D01*
X209795151Y-67964980D01*
X209774107Y-67952367D01*
X209754402Y-67937753D01*
X209736223Y-67921277D01*
X209719747Y-67903098D01*
X209705133Y-67883393D01*
X209692520Y-67862349D01*
X209682030Y-67840171D01*
X209673765Y-67817071D01*
X209667804Y-67793273D01*
X209664204Y-67769004D01*
X209663000Y-67744500D01*
X209663000Y-66494500D01*
X209664204Y-66469996D01*
X209667804Y-66445727D01*
X209673765Y-66421929D01*
X209682030Y-66398829D01*
X209692520Y-66376651D01*
X209705133Y-66355607D01*
X209719747Y-66335902D01*
X209736223Y-66317723D01*
X209754402Y-66301247D01*
X209774107Y-66286633D01*
X209795151Y-66274020D01*
X209817329Y-66263530D01*
X209840429Y-66255265D01*
X209864227Y-66249304D01*
X209888496Y-66245704D01*
X209913000Y-66244500D01*
X210838000Y-66244500D01*
X210862504Y-66245704D01*
X210862504Y-66245704D01*
G37*
D12*
X210375500Y-67119500D03*
D10*
G36*
X213837504Y-66245704D02*
G01*
X213861773Y-66249304D01*
X213885571Y-66255265D01*
X213908671Y-66263530D01*
X213930849Y-66274020D01*
X213951893Y-66286633D01*
X213971598Y-66301247D01*
X213989777Y-66317723D01*
X214006253Y-66335902D01*
X214020867Y-66355607D01*
X214033480Y-66376651D01*
X214043970Y-66398829D01*
X214052235Y-66421929D01*
X214058196Y-66445727D01*
X214061796Y-66469996D01*
X214063000Y-66494500D01*
X214063000Y-67744500D01*
X214061796Y-67769004D01*
X214058196Y-67793273D01*
X214052235Y-67817071D01*
X214043970Y-67840171D01*
X214033480Y-67862349D01*
X214020867Y-67883393D01*
X214006253Y-67903098D01*
X213989777Y-67921277D01*
X213971598Y-67937753D01*
X213951893Y-67952367D01*
X213930849Y-67964980D01*
X213908671Y-67975470D01*
X213885571Y-67983735D01*
X213861773Y-67989696D01*
X213837504Y-67993296D01*
X213813000Y-67994500D01*
X212888000Y-67994500D01*
X212863496Y-67993296D01*
X212839227Y-67989696D01*
X212815429Y-67983735D01*
X212792329Y-67975470D01*
X212770151Y-67964980D01*
X212749107Y-67952367D01*
X212729402Y-67937753D01*
X212711223Y-67921277D01*
X212694747Y-67903098D01*
X212680133Y-67883393D01*
X212667520Y-67862349D01*
X212657030Y-67840171D01*
X212648765Y-67817071D01*
X212642804Y-67793273D01*
X212639204Y-67769004D01*
X212638000Y-67744500D01*
X212638000Y-66494500D01*
X212639204Y-66469996D01*
X212642804Y-66445727D01*
X212648765Y-66421929D01*
X212657030Y-66398829D01*
X212667520Y-66376651D01*
X212680133Y-66355607D01*
X212694747Y-66335902D01*
X212711223Y-66317723D01*
X212729402Y-66301247D01*
X212749107Y-66286633D01*
X212770151Y-66274020D01*
X212792329Y-66263530D01*
X212815429Y-66255265D01*
X212839227Y-66249304D01*
X212863496Y-66245704D01*
X212888000Y-66244500D01*
X213813000Y-66244500D01*
X213837504Y-66245704D01*
X213837504Y-66245704D01*
G37*
D12*
X213350500Y-67119500D03*
D10*
G36*
X173890204Y-99894904D02*
G01*
X173914473Y-99898504D01*
X173938271Y-99904465D01*
X173961371Y-99912730D01*
X173983549Y-99923220D01*
X174004593Y-99935833D01*
X174024298Y-99950447D01*
X174042477Y-99966923D01*
X174058953Y-99985102D01*
X174073567Y-100004807D01*
X174086180Y-100025851D01*
X174096670Y-100048029D01*
X174104935Y-100071129D01*
X174110896Y-100094927D01*
X174114496Y-100119196D01*
X174115700Y-100143700D01*
X174115700Y-101068700D01*
X174114496Y-101093204D01*
X174110896Y-101117473D01*
X174104935Y-101141271D01*
X174096670Y-101164371D01*
X174086180Y-101186549D01*
X174073567Y-101207593D01*
X174058953Y-101227298D01*
X174042477Y-101245477D01*
X174024298Y-101261953D01*
X174004593Y-101276567D01*
X173983549Y-101289180D01*
X173961371Y-101299670D01*
X173938271Y-101307935D01*
X173914473Y-101313896D01*
X173890204Y-101317496D01*
X173865700Y-101318700D01*
X172615700Y-101318700D01*
X172591196Y-101317496D01*
X172566927Y-101313896D01*
X172543129Y-101307935D01*
X172520029Y-101299670D01*
X172497851Y-101289180D01*
X172476807Y-101276567D01*
X172457102Y-101261953D01*
X172438923Y-101245477D01*
X172422447Y-101227298D01*
X172407833Y-101207593D01*
X172395220Y-101186549D01*
X172384730Y-101164371D01*
X172376465Y-101141271D01*
X172370504Y-101117473D01*
X172366904Y-101093204D01*
X172365700Y-101068700D01*
X172365700Y-100143700D01*
X172366904Y-100119196D01*
X172370504Y-100094927D01*
X172376465Y-100071129D01*
X172384730Y-100048029D01*
X172395220Y-100025851D01*
X172407833Y-100004807D01*
X172422447Y-99985102D01*
X172438923Y-99966923D01*
X172457102Y-99950447D01*
X172476807Y-99935833D01*
X172497851Y-99923220D01*
X172520029Y-99912730D01*
X172543129Y-99904465D01*
X172566927Y-99898504D01*
X172591196Y-99894904D01*
X172615700Y-99893700D01*
X173865700Y-99893700D01*
X173890204Y-99894904D01*
X173890204Y-99894904D01*
G37*
D12*
X173240700Y-100606200D03*
D10*
G36*
X173890204Y-102869904D02*
G01*
X173914473Y-102873504D01*
X173938271Y-102879465D01*
X173961371Y-102887730D01*
X173983549Y-102898220D01*
X174004593Y-102910833D01*
X174024298Y-102925447D01*
X174042477Y-102941923D01*
X174058953Y-102960102D01*
X174073567Y-102979807D01*
X174086180Y-103000851D01*
X174096670Y-103023029D01*
X174104935Y-103046129D01*
X174110896Y-103069927D01*
X174114496Y-103094196D01*
X174115700Y-103118700D01*
X174115700Y-104043700D01*
X174114496Y-104068204D01*
X174110896Y-104092473D01*
X174104935Y-104116271D01*
X174096670Y-104139371D01*
X174086180Y-104161549D01*
X174073567Y-104182593D01*
X174058953Y-104202298D01*
X174042477Y-104220477D01*
X174024298Y-104236953D01*
X174004593Y-104251567D01*
X173983549Y-104264180D01*
X173961371Y-104274670D01*
X173938271Y-104282935D01*
X173914473Y-104288896D01*
X173890204Y-104292496D01*
X173865700Y-104293700D01*
X172615700Y-104293700D01*
X172591196Y-104292496D01*
X172566927Y-104288896D01*
X172543129Y-104282935D01*
X172520029Y-104274670D01*
X172497851Y-104264180D01*
X172476807Y-104251567D01*
X172457102Y-104236953D01*
X172438923Y-104220477D01*
X172422447Y-104202298D01*
X172407833Y-104182593D01*
X172395220Y-104161549D01*
X172384730Y-104139371D01*
X172376465Y-104116271D01*
X172370504Y-104092473D01*
X172366904Y-104068204D01*
X172365700Y-104043700D01*
X172365700Y-103118700D01*
X172366904Y-103094196D01*
X172370504Y-103069927D01*
X172376465Y-103046129D01*
X172384730Y-103023029D01*
X172395220Y-103000851D01*
X172407833Y-102979807D01*
X172422447Y-102960102D01*
X172438923Y-102941923D01*
X172457102Y-102925447D01*
X172476807Y-102910833D01*
X172497851Y-102898220D01*
X172520029Y-102887730D01*
X172543129Y-102879465D01*
X172566927Y-102873504D01*
X172591196Y-102869904D01*
X172615700Y-102868700D01*
X173865700Y-102868700D01*
X173890204Y-102869904D01*
X173890204Y-102869904D01*
G37*
D12*
X173240700Y-103581200D03*
D10*
G36*
X125039104Y-77675704D02*
G01*
X125063373Y-77679304D01*
X125087171Y-77685265D01*
X125110271Y-77693530D01*
X125132449Y-77704020D01*
X125153493Y-77716633D01*
X125173198Y-77731247D01*
X125191377Y-77747723D01*
X125207853Y-77765902D01*
X125222467Y-77785607D01*
X125235080Y-77806651D01*
X125245570Y-77828829D01*
X125253835Y-77851929D01*
X125259796Y-77875727D01*
X125263396Y-77899996D01*
X125264600Y-77924500D01*
X125264600Y-79174500D01*
X125263396Y-79199004D01*
X125259796Y-79223273D01*
X125253835Y-79247071D01*
X125245570Y-79270171D01*
X125235080Y-79292349D01*
X125222467Y-79313393D01*
X125207853Y-79333098D01*
X125191377Y-79351277D01*
X125173198Y-79367753D01*
X125153493Y-79382367D01*
X125132449Y-79394980D01*
X125110271Y-79405470D01*
X125087171Y-79413735D01*
X125063373Y-79419696D01*
X125039104Y-79423296D01*
X125014600Y-79424500D01*
X124089600Y-79424500D01*
X124065096Y-79423296D01*
X124040827Y-79419696D01*
X124017029Y-79413735D01*
X123993929Y-79405470D01*
X123971751Y-79394980D01*
X123950707Y-79382367D01*
X123931002Y-79367753D01*
X123912823Y-79351277D01*
X123896347Y-79333098D01*
X123881733Y-79313393D01*
X123869120Y-79292349D01*
X123858630Y-79270171D01*
X123850365Y-79247071D01*
X123844404Y-79223273D01*
X123840804Y-79199004D01*
X123839600Y-79174500D01*
X123839600Y-77924500D01*
X123840804Y-77899996D01*
X123844404Y-77875727D01*
X123850365Y-77851929D01*
X123858630Y-77828829D01*
X123869120Y-77806651D01*
X123881733Y-77785607D01*
X123896347Y-77765902D01*
X123912823Y-77747723D01*
X123931002Y-77731247D01*
X123950707Y-77716633D01*
X123971751Y-77704020D01*
X123993929Y-77693530D01*
X124017029Y-77685265D01*
X124040827Y-77679304D01*
X124065096Y-77675704D01*
X124089600Y-77674500D01*
X125014600Y-77674500D01*
X125039104Y-77675704D01*
X125039104Y-77675704D01*
G37*
D12*
X124552100Y-78549500D03*
D10*
G36*
X122064104Y-77675704D02*
G01*
X122088373Y-77679304D01*
X122112171Y-77685265D01*
X122135271Y-77693530D01*
X122157449Y-77704020D01*
X122178493Y-77716633D01*
X122198198Y-77731247D01*
X122216377Y-77747723D01*
X122232853Y-77765902D01*
X122247467Y-77785607D01*
X122260080Y-77806651D01*
X122270570Y-77828829D01*
X122278835Y-77851929D01*
X122284796Y-77875727D01*
X122288396Y-77899996D01*
X122289600Y-77924500D01*
X122289600Y-79174500D01*
X122288396Y-79199004D01*
X122284796Y-79223273D01*
X122278835Y-79247071D01*
X122270570Y-79270171D01*
X122260080Y-79292349D01*
X122247467Y-79313393D01*
X122232853Y-79333098D01*
X122216377Y-79351277D01*
X122198198Y-79367753D01*
X122178493Y-79382367D01*
X122157449Y-79394980D01*
X122135271Y-79405470D01*
X122112171Y-79413735D01*
X122088373Y-79419696D01*
X122064104Y-79423296D01*
X122039600Y-79424500D01*
X121114600Y-79424500D01*
X121090096Y-79423296D01*
X121065827Y-79419696D01*
X121042029Y-79413735D01*
X121018929Y-79405470D01*
X120996751Y-79394980D01*
X120975707Y-79382367D01*
X120956002Y-79367753D01*
X120937823Y-79351277D01*
X120921347Y-79333098D01*
X120906733Y-79313393D01*
X120894120Y-79292349D01*
X120883630Y-79270171D01*
X120875365Y-79247071D01*
X120869404Y-79223273D01*
X120865804Y-79199004D01*
X120864600Y-79174500D01*
X120864600Y-77924500D01*
X120865804Y-77899996D01*
X120869404Y-77875727D01*
X120875365Y-77851929D01*
X120883630Y-77828829D01*
X120894120Y-77806651D01*
X120906733Y-77785607D01*
X120921347Y-77765902D01*
X120937823Y-77747723D01*
X120956002Y-77731247D01*
X120975707Y-77716633D01*
X120996751Y-77704020D01*
X121018929Y-77693530D01*
X121042029Y-77685265D01*
X121065827Y-77679304D01*
X121090096Y-77675704D01*
X121114600Y-77674500D01*
X122039600Y-77674500D01*
X122064104Y-77675704D01*
X122064104Y-77675704D01*
G37*
D12*
X121577100Y-78549500D03*
D10*
G36*
X185066204Y-94641404D02*
G01*
X185090473Y-94645004D01*
X185114271Y-94650965D01*
X185137371Y-94659230D01*
X185159549Y-94669720D01*
X185180593Y-94682333D01*
X185200298Y-94696947D01*
X185218477Y-94713423D01*
X185234953Y-94731602D01*
X185249567Y-94751307D01*
X185262180Y-94772351D01*
X185272670Y-94794529D01*
X185280935Y-94817629D01*
X185286896Y-94841427D01*
X185290496Y-94865696D01*
X185291700Y-94890200D01*
X185291700Y-95815200D01*
X185290496Y-95839704D01*
X185286896Y-95863973D01*
X185280935Y-95887771D01*
X185272670Y-95910871D01*
X185262180Y-95933049D01*
X185249567Y-95954093D01*
X185234953Y-95973798D01*
X185218477Y-95991977D01*
X185200298Y-96008453D01*
X185180593Y-96023067D01*
X185159549Y-96035680D01*
X185137371Y-96046170D01*
X185114271Y-96054435D01*
X185090473Y-96060396D01*
X185066204Y-96063996D01*
X185041700Y-96065200D01*
X183791700Y-96065200D01*
X183767196Y-96063996D01*
X183742927Y-96060396D01*
X183719129Y-96054435D01*
X183696029Y-96046170D01*
X183673851Y-96035680D01*
X183652807Y-96023067D01*
X183633102Y-96008453D01*
X183614923Y-95991977D01*
X183598447Y-95973798D01*
X183583833Y-95954093D01*
X183571220Y-95933049D01*
X183560730Y-95910871D01*
X183552465Y-95887771D01*
X183546504Y-95863973D01*
X183542904Y-95839704D01*
X183541700Y-95815200D01*
X183541700Y-94890200D01*
X183542904Y-94865696D01*
X183546504Y-94841427D01*
X183552465Y-94817629D01*
X183560730Y-94794529D01*
X183571220Y-94772351D01*
X183583833Y-94751307D01*
X183598447Y-94731602D01*
X183614923Y-94713423D01*
X183633102Y-94696947D01*
X183652807Y-94682333D01*
X183673851Y-94669720D01*
X183696029Y-94659230D01*
X183719129Y-94650965D01*
X183742927Y-94645004D01*
X183767196Y-94641404D01*
X183791700Y-94640200D01*
X185041700Y-94640200D01*
X185066204Y-94641404D01*
X185066204Y-94641404D01*
G37*
D12*
X184416700Y-95352700D03*
D10*
G36*
X185066204Y-91666404D02*
G01*
X185090473Y-91670004D01*
X185114271Y-91675965D01*
X185137371Y-91684230D01*
X185159549Y-91694720D01*
X185180593Y-91707333D01*
X185200298Y-91721947D01*
X185218477Y-91738423D01*
X185234953Y-91756602D01*
X185249567Y-91776307D01*
X185262180Y-91797351D01*
X185272670Y-91819529D01*
X185280935Y-91842629D01*
X185286896Y-91866427D01*
X185290496Y-91890696D01*
X185291700Y-91915200D01*
X185291700Y-92840200D01*
X185290496Y-92864704D01*
X185286896Y-92888973D01*
X185280935Y-92912771D01*
X185272670Y-92935871D01*
X185262180Y-92958049D01*
X185249567Y-92979093D01*
X185234953Y-92998798D01*
X185218477Y-93016977D01*
X185200298Y-93033453D01*
X185180593Y-93048067D01*
X185159549Y-93060680D01*
X185137371Y-93071170D01*
X185114271Y-93079435D01*
X185090473Y-93085396D01*
X185066204Y-93088996D01*
X185041700Y-93090200D01*
X183791700Y-93090200D01*
X183767196Y-93088996D01*
X183742927Y-93085396D01*
X183719129Y-93079435D01*
X183696029Y-93071170D01*
X183673851Y-93060680D01*
X183652807Y-93048067D01*
X183633102Y-93033453D01*
X183614923Y-93016977D01*
X183598447Y-92998798D01*
X183583833Y-92979093D01*
X183571220Y-92958049D01*
X183560730Y-92935871D01*
X183552465Y-92912771D01*
X183546504Y-92888973D01*
X183542904Y-92864704D01*
X183541700Y-92840200D01*
X183541700Y-91915200D01*
X183542904Y-91890696D01*
X183546504Y-91866427D01*
X183552465Y-91842629D01*
X183560730Y-91819529D01*
X183571220Y-91797351D01*
X183583833Y-91776307D01*
X183598447Y-91756602D01*
X183614923Y-91738423D01*
X183633102Y-91721947D01*
X183652807Y-91707333D01*
X183673851Y-91694720D01*
X183696029Y-91684230D01*
X183719129Y-91675965D01*
X183742927Y-91670004D01*
X183767196Y-91666404D01*
X183791700Y-91665200D01*
X185041700Y-91665200D01*
X185066204Y-91666404D01*
X185066204Y-91666404D01*
G37*
D12*
X184416700Y-92377700D03*
D10*
G36*
X190400204Y-94641404D02*
G01*
X190424473Y-94645004D01*
X190448271Y-94650965D01*
X190471371Y-94659230D01*
X190493549Y-94669720D01*
X190514593Y-94682333D01*
X190534298Y-94696947D01*
X190552477Y-94713423D01*
X190568953Y-94731602D01*
X190583567Y-94751307D01*
X190596180Y-94772351D01*
X190606670Y-94794529D01*
X190614935Y-94817629D01*
X190620896Y-94841427D01*
X190624496Y-94865696D01*
X190625700Y-94890200D01*
X190625700Y-95815200D01*
X190624496Y-95839704D01*
X190620896Y-95863973D01*
X190614935Y-95887771D01*
X190606670Y-95910871D01*
X190596180Y-95933049D01*
X190583567Y-95954093D01*
X190568953Y-95973798D01*
X190552477Y-95991977D01*
X190534298Y-96008453D01*
X190514593Y-96023067D01*
X190493549Y-96035680D01*
X190471371Y-96046170D01*
X190448271Y-96054435D01*
X190424473Y-96060396D01*
X190400204Y-96063996D01*
X190375700Y-96065200D01*
X189125700Y-96065200D01*
X189101196Y-96063996D01*
X189076927Y-96060396D01*
X189053129Y-96054435D01*
X189030029Y-96046170D01*
X189007851Y-96035680D01*
X188986807Y-96023067D01*
X188967102Y-96008453D01*
X188948923Y-95991977D01*
X188932447Y-95973798D01*
X188917833Y-95954093D01*
X188905220Y-95933049D01*
X188894730Y-95910871D01*
X188886465Y-95887771D01*
X188880504Y-95863973D01*
X188876904Y-95839704D01*
X188875700Y-95815200D01*
X188875700Y-94890200D01*
X188876904Y-94865696D01*
X188880504Y-94841427D01*
X188886465Y-94817629D01*
X188894730Y-94794529D01*
X188905220Y-94772351D01*
X188917833Y-94751307D01*
X188932447Y-94731602D01*
X188948923Y-94713423D01*
X188967102Y-94696947D01*
X188986807Y-94682333D01*
X189007851Y-94669720D01*
X189030029Y-94659230D01*
X189053129Y-94650965D01*
X189076927Y-94645004D01*
X189101196Y-94641404D01*
X189125700Y-94640200D01*
X190375700Y-94640200D01*
X190400204Y-94641404D01*
X190400204Y-94641404D01*
G37*
D12*
X189750700Y-95352700D03*
D10*
G36*
X190400204Y-91666404D02*
G01*
X190424473Y-91670004D01*
X190448271Y-91675965D01*
X190471371Y-91684230D01*
X190493549Y-91694720D01*
X190514593Y-91707333D01*
X190534298Y-91721947D01*
X190552477Y-91738423D01*
X190568953Y-91756602D01*
X190583567Y-91776307D01*
X190596180Y-91797351D01*
X190606670Y-91819529D01*
X190614935Y-91842629D01*
X190620896Y-91866427D01*
X190624496Y-91890696D01*
X190625700Y-91915200D01*
X190625700Y-92840200D01*
X190624496Y-92864704D01*
X190620896Y-92888973D01*
X190614935Y-92912771D01*
X190606670Y-92935871D01*
X190596180Y-92958049D01*
X190583567Y-92979093D01*
X190568953Y-92998798D01*
X190552477Y-93016977D01*
X190534298Y-93033453D01*
X190514593Y-93048067D01*
X190493549Y-93060680D01*
X190471371Y-93071170D01*
X190448271Y-93079435D01*
X190424473Y-93085396D01*
X190400204Y-93088996D01*
X190375700Y-93090200D01*
X189125700Y-93090200D01*
X189101196Y-93088996D01*
X189076927Y-93085396D01*
X189053129Y-93079435D01*
X189030029Y-93071170D01*
X189007851Y-93060680D01*
X188986807Y-93048067D01*
X188967102Y-93033453D01*
X188948923Y-93016977D01*
X188932447Y-92998798D01*
X188917833Y-92979093D01*
X188905220Y-92958049D01*
X188894730Y-92935871D01*
X188886465Y-92912771D01*
X188880504Y-92888973D01*
X188876904Y-92864704D01*
X188875700Y-92840200D01*
X188875700Y-91915200D01*
X188876904Y-91890696D01*
X188880504Y-91866427D01*
X188886465Y-91842629D01*
X188894730Y-91819529D01*
X188905220Y-91797351D01*
X188917833Y-91776307D01*
X188932447Y-91756602D01*
X188948923Y-91738423D01*
X188967102Y-91721947D01*
X188986807Y-91707333D01*
X189007851Y-91694720D01*
X189030029Y-91684230D01*
X189053129Y-91675965D01*
X189076927Y-91670004D01*
X189101196Y-91666404D01*
X189125700Y-91665200D01*
X190375700Y-91665200D01*
X190400204Y-91666404D01*
X190400204Y-91666404D01*
G37*
D12*
X189750700Y-92377700D03*
D10*
G36*
X195658004Y-94680004D02*
G01*
X195682273Y-94683604D01*
X195706071Y-94689565D01*
X195729171Y-94697830D01*
X195751349Y-94708320D01*
X195772393Y-94720933D01*
X195792098Y-94735547D01*
X195810277Y-94752023D01*
X195826753Y-94770202D01*
X195841367Y-94789907D01*
X195853980Y-94810951D01*
X195864470Y-94833129D01*
X195872735Y-94856229D01*
X195878696Y-94880027D01*
X195882296Y-94904296D01*
X195883500Y-94928800D01*
X195883500Y-95853800D01*
X195882296Y-95878304D01*
X195878696Y-95902573D01*
X195872735Y-95926371D01*
X195864470Y-95949471D01*
X195853980Y-95971649D01*
X195841367Y-95992693D01*
X195826753Y-96012398D01*
X195810277Y-96030577D01*
X195792098Y-96047053D01*
X195772393Y-96061667D01*
X195751349Y-96074280D01*
X195729171Y-96084770D01*
X195706071Y-96093035D01*
X195682273Y-96098996D01*
X195658004Y-96102596D01*
X195633500Y-96103800D01*
X194383500Y-96103800D01*
X194358996Y-96102596D01*
X194334727Y-96098996D01*
X194310929Y-96093035D01*
X194287829Y-96084770D01*
X194265651Y-96074280D01*
X194244607Y-96061667D01*
X194224902Y-96047053D01*
X194206723Y-96030577D01*
X194190247Y-96012398D01*
X194175633Y-95992693D01*
X194163020Y-95971649D01*
X194152530Y-95949471D01*
X194144265Y-95926371D01*
X194138304Y-95902573D01*
X194134704Y-95878304D01*
X194133500Y-95853800D01*
X194133500Y-94928800D01*
X194134704Y-94904296D01*
X194138304Y-94880027D01*
X194144265Y-94856229D01*
X194152530Y-94833129D01*
X194163020Y-94810951D01*
X194175633Y-94789907D01*
X194190247Y-94770202D01*
X194206723Y-94752023D01*
X194224902Y-94735547D01*
X194244607Y-94720933D01*
X194265651Y-94708320D01*
X194287829Y-94697830D01*
X194310929Y-94689565D01*
X194334727Y-94683604D01*
X194358996Y-94680004D01*
X194383500Y-94678800D01*
X195633500Y-94678800D01*
X195658004Y-94680004D01*
X195658004Y-94680004D01*
G37*
D12*
X195008500Y-95391300D03*
D10*
G36*
X195658004Y-91705004D02*
G01*
X195682273Y-91708604D01*
X195706071Y-91714565D01*
X195729171Y-91722830D01*
X195751349Y-91733320D01*
X195772393Y-91745933D01*
X195792098Y-91760547D01*
X195810277Y-91777023D01*
X195826753Y-91795202D01*
X195841367Y-91814907D01*
X195853980Y-91835951D01*
X195864470Y-91858129D01*
X195872735Y-91881229D01*
X195878696Y-91905027D01*
X195882296Y-91929296D01*
X195883500Y-91953800D01*
X195883500Y-92878800D01*
X195882296Y-92903304D01*
X195878696Y-92927573D01*
X195872735Y-92951371D01*
X195864470Y-92974471D01*
X195853980Y-92996649D01*
X195841367Y-93017693D01*
X195826753Y-93037398D01*
X195810277Y-93055577D01*
X195792098Y-93072053D01*
X195772393Y-93086667D01*
X195751349Y-93099280D01*
X195729171Y-93109770D01*
X195706071Y-93118035D01*
X195682273Y-93123996D01*
X195658004Y-93127596D01*
X195633500Y-93128800D01*
X194383500Y-93128800D01*
X194358996Y-93127596D01*
X194334727Y-93123996D01*
X194310929Y-93118035D01*
X194287829Y-93109770D01*
X194265651Y-93099280D01*
X194244607Y-93086667D01*
X194224902Y-93072053D01*
X194206723Y-93055577D01*
X194190247Y-93037398D01*
X194175633Y-93017693D01*
X194163020Y-92996649D01*
X194152530Y-92974471D01*
X194144265Y-92951371D01*
X194138304Y-92927573D01*
X194134704Y-92903304D01*
X194133500Y-92878800D01*
X194133500Y-91953800D01*
X194134704Y-91929296D01*
X194138304Y-91905027D01*
X194144265Y-91881229D01*
X194152530Y-91858129D01*
X194163020Y-91835951D01*
X194175633Y-91814907D01*
X194190247Y-91795202D01*
X194206723Y-91777023D01*
X194224902Y-91760547D01*
X194244607Y-91745933D01*
X194265651Y-91733320D01*
X194287829Y-91722830D01*
X194310929Y-91714565D01*
X194334727Y-91708604D01*
X194358996Y-91705004D01*
X194383500Y-91703800D01*
X195633500Y-91703800D01*
X195658004Y-91705004D01*
X195658004Y-91705004D01*
G37*
D12*
X195008500Y-92416300D03*
D10*
G36*
X200718204Y-91666404D02*
G01*
X200742473Y-91670004D01*
X200766271Y-91675965D01*
X200789371Y-91684230D01*
X200811549Y-91694720D01*
X200832593Y-91707333D01*
X200852298Y-91721947D01*
X200870477Y-91738423D01*
X200886953Y-91756602D01*
X200901567Y-91776307D01*
X200914180Y-91797351D01*
X200924670Y-91819529D01*
X200932935Y-91842629D01*
X200938896Y-91866427D01*
X200942496Y-91890696D01*
X200943700Y-91915200D01*
X200943700Y-92840200D01*
X200942496Y-92864704D01*
X200938896Y-92888973D01*
X200932935Y-92912771D01*
X200924670Y-92935871D01*
X200914180Y-92958049D01*
X200901567Y-92979093D01*
X200886953Y-92998798D01*
X200870477Y-93016977D01*
X200852298Y-93033453D01*
X200832593Y-93048067D01*
X200811549Y-93060680D01*
X200789371Y-93071170D01*
X200766271Y-93079435D01*
X200742473Y-93085396D01*
X200718204Y-93088996D01*
X200693700Y-93090200D01*
X199443700Y-93090200D01*
X199419196Y-93088996D01*
X199394927Y-93085396D01*
X199371129Y-93079435D01*
X199348029Y-93071170D01*
X199325851Y-93060680D01*
X199304807Y-93048067D01*
X199285102Y-93033453D01*
X199266923Y-93016977D01*
X199250447Y-92998798D01*
X199235833Y-92979093D01*
X199223220Y-92958049D01*
X199212730Y-92935871D01*
X199204465Y-92912771D01*
X199198504Y-92888973D01*
X199194904Y-92864704D01*
X199193700Y-92840200D01*
X199193700Y-91915200D01*
X199194904Y-91890696D01*
X199198504Y-91866427D01*
X199204465Y-91842629D01*
X199212730Y-91819529D01*
X199223220Y-91797351D01*
X199235833Y-91776307D01*
X199250447Y-91756602D01*
X199266923Y-91738423D01*
X199285102Y-91721947D01*
X199304807Y-91707333D01*
X199325851Y-91694720D01*
X199348029Y-91684230D01*
X199371129Y-91675965D01*
X199394927Y-91670004D01*
X199419196Y-91666404D01*
X199443700Y-91665200D01*
X200693700Y-91665200D01*
X200718204Y-91666404D01*
X200718204Y-91666404D01*
G37*
D12*
X200068700Y-92377700D03*
D10*
G36*
X200718204Y-94641404D02*
G01*
X200742473Y-94645004D01*
X200766271Y-94650965D01*
X200789371Y-94659230D01*
X200811549Y-94669720D01*
X200832593Y-94682333D01*
X200852298Y-94696947D01*
X200870477Y-94713423D01*
X200886953Y-94731602D01*
X200901567Y-94751307D01*
X200914180Y-94772351D01*
X200924670Y-94794529D01*
X200932935Y-94817629D01*
X200938896Y-94841427D01*
X200942496Y-94865696D01*
X200943700Y-94890200D01*
X200943700Y-95815200D01*
X200942496Y-95839704D01*
X200938896Y-95863973D01*
X200932935Y-95887771D01*
X200924670Y-95910871D01*
X200914180Y-95933049D01*
X200901567Y-95954093D01*
X200886953Y-95973798D01*
X200870477Y-95991977D01*
X200852298Y-96008453D01*
X200832593Y-96023067D01*
X200811549Y-96035680D01*
X200789371Y-96046170D01*
X200766271Y-96054435D01*
X200742473Y-96060396D01*
X200718204Y-96063996D01*
X200693700Y-96065200D01*
X199443700Y-96065200D01*
X199419196Y-96063996D01*
X199394927Y-96060396D01*
X199371129Y-96054435D01*
X199348029Y-96046170D01*
X199325851Y-96035680D01*
X199304807Y-96023067D01*
X199285102Y-96008453D01*
X199266923Y-95991977D01*
X199250447Y-95973798D01*
X199235833Y-95954093D01*
X199223220Y-95933049D01*
X199212730Y-95910871D01*
X199204465Y-95887771D01*
X199198504Y-95863973D01*
X199194904Y-95839704D01*
X199193700Y-95815200D01*
X199193700Y-94890200D01*
X199194904Y-94865696D01*
X199198504Y-94841427D01*
X199204465Y-94817629D01*
X199212730Y-94794529D01*
X199223220Y-94772351D01*
X199235833Y-94751307D01*
X199250447Y-94731602D01*
X199266923Y-94713423D01*
X199285102Y-94696947D01*
X199304807Y-94682333D01*
X199325851Y-94669720D01*
X199348029Y-94659230D01*
X199371129Y-94650965D01*
X199394927Y-94645004D01*
X199419196Y-94641404D01*
X199443700Y-94640200D01*
X200693700Y-94640200D01*
X200718204Y-94641404D01*
X200718204Y-94641404D01*
G37*
D12*
X200068700Y-95352700D03*
D10*
G36*
X205894204Y-94635224D02*
G01*
X205918473Y-94638824D01*
X205942271Y-94644785D01*
X205965371Y-94653050D01*
X205987549Y-94663540D01*
X206008593Y-94676153D01*
X206028298Y-94690767D01*
X206046477Y-94707243D01*
X206062953Y-94725422D01*
X206077567Y-94745127D01*
X206090180Y-94766171D01*
X206100670Y-94788349D01*
X206108935Y-94811449D01*
X206114896Y-94835247D01*
X206118496Y-94859516D01*
X206119700Y-94884020D01*
X206119700Y-95809020D01*
X206118496Y-95833524D01*
X206114896Y-95857793D01*
X206108935Y-95881591D01*
X206100670Y-95904691D01*
X206090180Y-95926869D01*
X206077567Y-95947913D01*
X206062953Y-95967618D01*
X206046477Y-95985797D01*
X206028298Y-96002273D01*
X206008593Y-96016887D01*
X205987549Y-96029500D01*
X205965371Y-96039990D01*
X205942271Y-96048255D01*
X205918473Y-96054216D01*
X205894204Y-96057816D01*
X205869700Y-96059020D01*
X204619700Y-96059020D01*
X204595196Y-96057816D01*
X204570927Y-96054216D01*
X204547129Y-96048255D01*
X204524029Y-96039990D01*
X204501851Y-96029500D01*
X204480807Y-96016887D01*
X204461102Y-96002273D01*
X204442923Y-95985797D01*
X204426447Y-95967618D01*
X204411833Y-95947913D01*
X204399220Y-95926869D01*
X204388730Y-95904691D01*
X204380465Y-95881591D01*
X204374504Y-95857793D01*
X204370904Y-95833524D01*
X204369700Y-95809020D01*
X204369700Y-94884020D01*
X204370904Y-94859516D01*
X204374504Y-94835247D01*
X204380465Y-94811449D01*
X204388730Y-94788349D01*
X204399220Y-94766171D01*
X204411833Y-94745127D01*
X204426447Y-94725422D01*
X204442923Y-94707243D01*
X204461102Y-94690767D01*
X204480807Y-94676153D01*
X204501851Y-94663540D01*
X204524029Y-94653050D01*
X204547129Y-94644785D01*
X204570927Y-94638824D01*
X204595196Y-94635224D01*
X204619700Y-94634020D01*
X205869700Y-94634020D01*
X205894204Y-94635224D01*
X205894204Y-94635224D01*
G37*
D12*
X205244700Y-95346520D03*
D10*
G36*
X205894204Y-91660224D02*
G01*
X205918473Y-91663824D01*
X205942271Y-91669785D01*
X205965371Y-91678050D01*
X205987549Y-91688540D01*
X206008593Y-91701153D01*
X206028298Y-91715767D01*
X206046477Y-91732243D01*
X206062953Y-91750422D01*
X206077567Y-91770127D01*
X206090180Y-91791171D01*
X206100670Y-91813349D01*
X206108935Y-91836449D01*
X206114896Y-91860247D01*
X206118496Y-91884516D01*
X206119700Y-91909020D01*
X206119700Y-92834020D01*
X206118496Y-92858524D01*
X206114896Y-92882793D01*
X206108935Y-92906591D01*
X206100670Y-92929691D01*
X206090180Y-92951869D01*
X206077567Y-92972913D01*
X206062953Y-92992618D01*
X206046477Y-93010797D01*
X206028298Y-93027273D01*
X206008593Y-93041887D01*
X205987549Y-93054500D01*
X205965371Y-93064990D01*
X205942271Y-93073255D01*
X205918473Y-93079216D01*
X205894204Y-93082816D01*
X205869700Y-93084020D01*
X204619700Y-93084020D01*
X204595196Y-93082816D01*
X204570927Y-93079216D01*
X204547129Y-93073255D01*
X204524029Y-93064990D01*
X204501851Y-93054500D01*
X204480807Y-93041887D01*
X204461102Y-93027273D01*
X204442923Y-93010797D01*
X204426447Y-92992618D01*
X204411833Y-92972913D01*
X204399220Y-92951869D01*
X204388730Y-92929691D01*
X204380465Y-92906591D01*
X204374504Y-92882793D01*
X204370904Y-92858524D01*
X204369700Y-92834020D01*
X204369700Y-91909020D01*
X204370904Y-91884516D01*
X204374504Y-91860247D01*
X204380465Y-91836449D01*
X204388730Y-91813349D01*
X204399220Y-91791171D01*
X204411833Y-91770127D01*
X204426447Y-91750422D01*
X204442923Y-91732243D01*
X204461102Y-91715767D01*
X204480807Y-91701153D01*
X204501851Y-91688540D01*
X204524029Y-91678050D01*
X204547129Y-91669785D01*
X204570927Y-91663824D01*
X204595196Y-91660224D01*
X204619700Y-91659020D01*
X205869700Y-91659020D01*
X205894204Y-91660224D01*
X205894204Y-91660224D01*
G37*
D12*
X205244700Y-92371520D03*
D19*
X115153100Y-60908500D03*
X117333100Y-60908500D03*
D20*
X115153100Y-62908500D03*
X117333100Y-62908500D03*
D21*
X118153100Y-64408500D03*
X116883100Y-64408500D03*
X115603100Y-64408500D03*
X114333100Y-64408500D03*
X114333100Y-58908500D03*
X115603100Y-58908500D03*
X116883100Y-58908500D03*
X118153100Y-58908500D03*
X114333100Y-72790500D03*
X115603100Y-72790500D03*
X116883100Y-72790500D03*
X118153100Y-72790500D03*
X118153100Y-67290500D03*
X116883100Y-67290500D03*
X115603100Y-67290500D03*
X114333100Y-67290500D03*
D20*
X115153100Y-68790500D03*
X117333100Y-68790500D03*
D19*
X115153100Y-70790500D03*
X117333100Y-70790500D03*
D10*
G36*
X163209504Y-53708204D02*
G01*
X163233773Y-53711804D01*
X163257571Y-53717765D01*
X163280671Y-53726030D01*
X163302849Y-53736520D01*
X163323893Y-53749133D01*
X163343598Y-53763747D01*
X163361777Y-53780223D01*
X163378253Y-53798402D01*
X163392867Y-53818107D01*
X163405480Y-53839151D01*
X163415970Y-53861329D01*
X163424235Y-53884429D01*
X163430196Y-53908227D01*
X163433796Y-53932496D01*
X163435000Y-53957000D01*
X163435000Y-54882000D01*
X163433796Y-54906504D01*
X163430196Y-54930773D01*
X163424235Y-54954571D01*
X163415970Y-54977671D01*
X163405480Y-54999849D01*
X163392867Y-55020893D01*
X163378253Y-55040598D01*
X163361777Y-55058777D01*
X163343598Y-55075253D01*
X163323893Y-55089867D01*
X163302849Y-55102480D01*
X163280671Y-55112970D01*
X163257571Y-55121235D01*
X163233773Y-55127196D01*
X163209504Y-55130796D01*
X163185000Y-55132000D01*
X161935000Y-55132000D01*
X161910496Y-55130796D01*
X161886227Y-55127196D01*
X161862429Y-55121235D01*
X161839329Y-55112970D01*
X161817151Y-55102480D01*
X161796107Y-55089867D01*
X161776402Y-55075253D01*
X161758223Y-55058777D01*
X161741747Y-55040598D01*
X161727133Y-55020893D01*
X161714520Y-54999849D01*
X161704030Y-54977671D01*
X161695765Y-54954571D01*
X161689804Y-54930773D01*
X161686204Y-54906504D01*
X161685000Y-54882000D01*
X161685000Y-53957000D01*
X161686204Y-53932496D01*
X161689804Y-53908227D01*
X161695765Y-53884429D01*
X161704030Y-53861329D01*
X161714520Y-53839151D01*
X161727133Y-53818107D01*
X161741747Y-53798402D01*
X161758223Y-53780223D01*
X161776402Y-53763747D01*
X161796107Y-53749133D01*
X161817151Y-53736520D01*
X161839329Y-53726030D01*
X161862429Y-53717765D01*
X161886227Y-53711804D01*
X161910496Y-53708204D01*
X161935000Y-53707000D01*
X163185000Y-53707000D01*
X163209504Y-53708204D01*
X163209504Y-53708204D01*
G37*
D12*
X162560000Y-54419500D03*
D10*
G36*
X163209504Y-50733204D02*
G01*
X163233773Y-50736804D01*
X163257571Y-50742765D01*
X163280671Y-50751030D01*
X163302849Y-50761520D01*
X163323893Y-50774133D01*
X163343598Y-50788747D01*
X163361777Y-50805223D01*
X163378253Y-50823402D01*
X163392867Y-50843107D01*
X163405480Y-50864151D01*
X163415970Y-50886329D01*
X163424235Y-50909429D01*
X163430196Y-50933227D01*
X163433796Y-50957496D01*
X163435000Y-50982000D01*
X163435000Y-51907000D01*
X163433796Y-51931504D01*
X163430196Y-51955773D01*
X163424235Y-51979571D01*
X163415970Y-52002671D01*
X163405480Y-52024849D01*
X163392867Y-52045893D01*
X163378253Y-52065598D01*
X163361777Y-52083777D01*
X163343598Y-52100253D01*
X163323893Y-52114867D01*
X163302849Y-52127480D01*
X163280671Y-52137970D01*
X163257571Y-52146235D01*
X163233773Y-52152196D01*
X163209504Y-52155796D01*
X163185000Y-52157000D01*
X161935000Y-52157000D01*
X161910496Y-52155796D01*
X161886227Y-52152196D01*
X161862429Y-52146235D01*
X161839329Y-52137970D01*
X161817151Y-52127480D01*
X161796107Y-52114867D01*
X161776402Y-52100253D01*
X161758223Y-52083777D01*
X161741747Y-52065598D01*
X161727133Y-52045893D01*
X161714520Y-52024849D01*
X161704030Y-52002671D01*
X161695765Y-51979571D01*
X161689804Y-51955773D01*
X161686204Y-51931504D01*
X161685000Y-51907000D01*
X161685000Y-50982000D01*
X161686204Y-50957496D01*
X161689804Y-50933227D01*
X161695765Y-50909429D01*
X161704030Y-50886329D01*
X161714520Y-50864151D01*
X161727133Y-50843107D01*
X161741747Y-50823402D01*
X161758223Y-50805223D01*
X161776402Y-50788747D01*
X161796107Y-50774133D01*
X161817151Y-50761520D01*
X161839329Y-50751030D01*
X161862429Y-50742765D01*
X161886227Y-50736804D01*
X161910496Y-50733204D01*
X161935000Y-50732000D01*
X163185000Y-50732000D01*
X163209504Y-50733204D01*
X163209504Y-50733204D01*
G37*
D12*
X162560000Y-51444500D03*
D10*
G36*
X125202604Y-86438704D02*
G01*
X125226873Y-86442304D01*
X125250671Y-86448265D01*
X125273771Y-86456530D01*
X125295949Y-86467020D01*
X125316993Y-86479633D01*
X125336698Y-86494247D01*
X125354877Y-86510723D01*
X125371353Y-86528902D01*
X125385967Y-86548607D01*
X125398580Y-86569651D01*
X125409070Y-86591829D01*
X125417335Y-86614929D01*
X125423296Y-86638727D01*
X125426896Y-86662996D01*
X125428100Y-86687500D01*
X125428100Y-87937500D01*
X125426896Y-87962004D01*
X125423296Y-87986273D01*
X125417335Y-88010071D01*
X125409070Y-88033171D01*
X125398580Y-88055349D01*
X125385967Y-88076393D01*
X125371353Y-88096098D01*
X125354877Y-88114277D01*
X125336698Y-88130753D01*
X125316993Y-88145367D01*
X125295949Y-88157980D01*
X125273771Y-88168470D01*
X125250671Y-88176735D01*
X125226873Y-88182696D01*
X125202604Y-88186296D01*
X125178100Y-88187500D01*
X124253100Y-88187500D01*
X124228596Y-88186296D01*
X124204327Y-88182696D01*
X124180529Y-88176735D01*
X124157429Y-88168470D01*
X124135251Y-88157980D01*
X124114207Y-88145367D01*
X124094502Y-88130753D01*
X124076323Y-88114277D01*
X124059847Y-88096098D01*
X124045233Y-88076393D01*
X124032620Y-88055349D01*
X124022130Y-88033171D01*
X124013865Y-88010071D01*
X124007904Y-87986273D01*
X124004304Y-87962004D01*
X124003100Y-87937500D01*
X124003100Y-86687500D01*
X124004304Y-86662996D01*
X124007904Y-86638727D01*
X124013865Y-86614929D01*
X124022130Y-86591829D01*
X124032620Y-86569651D01*
X124045233Y-86548607D01*
X124059847Y-86528902D01*
X124076323Y-86510723D01*
X124094502Y-86494247D01*
X124114207Y-86479633D01*
X124135251Y-86467020D01*
X124157429Y-86456530D01*
X124180529Y-86448265D01*
X124204327Y-86442304D01*
X124228596Y-86438704D01*
X124253100Y-86437500D01*
X125178100Y-86437500D01*
X125202604Y-86438704D01*
X125202604Y-86438704D01*
G37*
D12*
X124715600Y-87312500D03*
D10*
G36*
X122227604Y-86438704D02*
G01*
X122251873Y-86442304D01*
X122275671Y-86448265D01*
X122298771Y-86456530D01*
X122320949Y-86467020D01*
X122341993Y-86479633D01*
X122361698Y-86494247D01*
X122379877Y-86510723D01*
X122396353Y-86528902D01*
X122410967Y-86548607D01*
X122423580Y-86569651D01*
X122434070Y-86591829D01*
X122442335Y-86614929D01*
X122448296Y-86638727D01*
X122451896Y-86662996D01*
X122453100Y-86687500D01*
X122453100Y-87937500D01*
X122451896Y-87962004D01*
X122448296Y-87986273D01*
X122442335Y-88010071D01*
X122434070Y-88033171D01*
X122423580Y-88055349D01*
X122410967Y-88076393D01*
X122396353Y-88096098D01*
X122379877Y-88114277D01*
X122361698Y-88130753D01*
X122341993Y-88145367D01*
X122320949Y-88157980D01*
X122298771Y-88168470D01*
X122275671Y-88176735D01*
X122251873Y-88182696D01*
X122227604Y-88186296D01*
X122203100Y-88187500D01*
X121278100Y-88187500D01*
X121253596Y-88186296D01*
X121229327Y-88182696D01*
X121205529Y-88176735D01*
X121182429Y-88168470D01*
X121160251Y-88157980D01*
X121139207Y-88145367D01*
X121119502Y-88130753D01*
X121101323Y-88114277D01*
X121084847Y-88096098D01*
X121070233Y-88076393D01*
X121057620Y-88055349D01*
X121047130Y-88033171D01*
X121038865Y-88010071D01*
X121032904Y-87986273D01*
X121029304Y-87962004D01*
X121028100Y-87937500D01*
X121028100Y-86687500D01*
X121029304Y-86662996D01*
X121032904Y-86638727D01*
X121038865Y-86614929D01*
X121047130Y-86591829D01*
X121057620Y-86569651D01*
X121070233Y-86548607D01*
X121084847Y-86528902D01*
X121101323Y-86510723D01*
X121119502Y-86494247D01*
X121139207Y-86479633D01*
X121160251Y-86467020D01*
X121182429Y-86456530D01*
X121205529Y-86448265D01*
X121229327Y-86442304D01*
X121253596Y-86438704D01*
X121278100Y-86437500D01*
X122203100Y-86437500D01*
X122227604Y-86438704D01*
X122227604Y-86438704D01*
G37*
D12*
X121740600Y-87312500D03*
D10*
G36*
X121989604Y-74445704D02*
G01*
X122013873Y-74449304D01*
X122037671Y-74455265D01*
X122060771Y-74463530D01*
X122082949Y-74474020D01*
X122103993Y-74486633D01*
X122123698Y-74501247D01*
X122141877Y-74517723D01*
X122158353Y-74535902D01*
X122172967Y-74555607D01*
X122185580Y-74576651D01*
X122196070Y-74598829D01*
X122204335Y-74621929D01*
X122210296Y-74645727D01*
X122213896Y-74669996D01*
X122215100Y-74694500D01*
X122215100Y-75944500D01*
X122213896Y-75969004D01*
X122210296Y-75993273D01*
X122204335Y-76017071D01*
X122196070Y-76040171D01*
X122185580Y-76062349D01*
X122172967Y-76083393D01*
X122158353Y-76103098D01*
X122141877Y-76121277D01*
X122123698Y-76137753D01*
X122103993Y-76152367D01*
X122082949Y-76164980D01*
X122060771Y-76175470D01*
X122037671Y-76183735D01*
X122013873Y-76189696D01*
X121989604Y-76193296D01*
X121965100Y-76194500D01*
X121040100Y-76194500D01*
X121015596Y-76193296D01*
X120991327Y-76189696D01*
X120967529Y-76183735D01*
X120944429Y-76175470D01*
X120922251Y-76164980D01*
X120901207Y-76152367D01*
X120881502Y-76137753D01*
X120863323Y-76121277D01*
X120846847Y-76103098D01*
X120832233Y-76083393D01*
X120819620Y-76062349D01*
X120809130Y-76040171D01*
X120800865Y-76017071D01*
X120794904Y-75993273D01*
X120791304Y-75969004D01*
X120790100Y-75944500D01*
X120790100Y-74694500D01*
X120791304Y-74669996D01*
X120794904Y-74645727D01*
X120800865Y-74621929D01*
X120809130Y-74598829D01*
X120819620Y-74576651D01*
X120832233Y-74555607D01*
X120846847Y-74535902D01*
X120863323Y-74517723D01*
X120881502Y-74501247D01*
X120901207Y-74486633D01*
X120922251Y-74474020D01*
X120944429Y-74463530D01*
X120967529Y-74455265D01*
X120991327Y-74449304D01*
X121015596Y-74445704D01*
X121040100Y-74444500D01*
X121965100Y-74444500D01*
X121989604Y-74445704D01*
X121989604Y-74445704D01*
G37*
D12*
X121502600Y-75319500D03*
D10*
G36*
X124964604Y-74445704D02*
G01*
X124988873Y-74449304D01*
X125012671Y-74455265D01*
X125035771Y-74463530D01*
X125057949Y-74474020D01*
X125078993Y-74486633D01*
X125098698Y-74501247D01*
X125116877Y-74517723D01*
X125133353Y-74535902D01*
X125147967Y-74555607D01*
X125160580Y-74576651D01*
X125171070Y-74598829D01*
X125179335Y-74621929D01*
X125185296Y-74645727D01*
X125188896Y-74669996D01*
X125190100Y-74694500D01*
X125190100Y-75944500D01*
X125188896Y-75969004D01*
X125185296Y-75993273D01*
X125179335Y-76017071D01*
X125171070Y-76040171D01*
X125160580Y-76062349D01*
X125147967Y-76083393D01*
X125133353Y-76103098D01*
X125116877Y-76121277D01*
X125098698Y-76137753D01*
X125078993Y-76152367D01*
X125057949Y-76164980D01*
X125035771Y-76175470D01*
X125012671Y-76183735D01*
X124988873Y-76189696D01*
X124964604Y-76193296D01*
X124940100Y-76194500D01*
X124015100Y-76194500D01*
X123990596Y-76193296D01*
X123966327Y-76189696D01*
X123942529Y-76183735D01*
X123919429Y-76175470D01*
X123897251Y-76164980D01*
X123876207Y-76152367D01*
X123856502Y-76137753D01*
X123838323Y-76121277D01*
X123821847Y-76103098D01*
X123807233Y-76083393D01*
X123794620Y-76062349D01*
X123784130Y-76040171D01*
X123775865Y-76017071D01*
X123769904Y-75993273D01*
X123766304Y-75969004D01*
X123765100Y-75944500D01*
X123765100Y-74694500D01*
X123766304Y-74669996D01*
X123769904Y-74645727D01*
X123775865Y-74621929D01*
X123784130Y-74598829D01*
X123794620Y-74576651D01*
X123807233Y-74555607D01*
X123821847Y-74535902D01*
X123838323Y-74517723D01*
X123856502Y-74501247D01*
X123876207Y-74486633D01*
X123897251Y-74474020D01*
X123919429Y-74463530D01*
X123942529Y-74455265D01*
X123966327Y-74449304D01*
X123990596Y-74445704D01*
X124015100Y-74444500D01*
X124940100Y-74444500D01*
X124964604Y-74445704D01*
X124964604Y-74445704D01*
G37*
D12*
X124477600Y-75319500D03*
D10*
G36*
X163209504Y-57046704D02*
G01*
X163233773Y-57050304D01*
X163257571Y-57056265D01*
X163280671Y-57064530D01*
X163302849Y-57075020D01*
X163323893Y-57087633D01*
X163343598Y-57102247D01*
X163361777Y-57118723D01*
X163378253Y-57136902D01*
X163392867Y-57156607D01*
X163405480Y-57177651D01*
X163415970Y-57199829D01*
X163424235Y-57222929D01*
X163430196Y-57246727D01*
X163433796Y-57270996D01*
X163435000Y-57295500D01*
X163435000Y-58220500D01*
X163433796Y-58245004D01*
X163430196Y-58269273D01*
X163424235Y-58293071D01*
X163415970Y-58316171D01*
X163405480Y-58338349D01*
X163392867Y-58359393D01*
X163378253Y-58379098D01*
X163361777Y-58397277D01*
X163343598Y-58413753D01*
X163323893Y-58428367D01*
X163302849Y-58440980D01*
X163280671Y-58451470D01*
X163257571Y-58459735D01*
X163233773Y-58465696D01*
X163209504Y-58469296D01*
X163185000Y-58470500D01*
X161935000Y-58470500D01*
X161910496Y-58469296D01*
X161886227Y-58465696D01*
X161862429Y-58459735D01*
X161839329Y-58451470D01*
X161817151Y-58440980D01*
X161796107Y-58428367D01*
X161776402Y-58413753D01*
X161758223Y-58397277D01*
X161741747Y-58379098D01*
X161727133Y-58359393D01*
X161714520Y-58338349D01*
X161704030Y-58316171D01*
X161695765Y-58293071D01*
X161689804Y-58269273D01*
X161686204Y-58245004D01*
X161685000Y-58220500D01*
X161685000Y-57295500D01*
X161686204Y-57270996D01*
X161689804Y-57246727D01*
X161695765Y-57222929D01*
X161704030Y-57199829D01*
X161714520Y-57177651D01*
X161727133Y-57156607D01*
X161741747Y-57136902D01*
X161758223Y-57118723D01*
X161776402Y-57102247D01*
X161796107Y-57087633D01*
X161817151Y-57075020D01*
X161839329Y-57064530D01*
X161862429Y-57056265D01*
X161886227Y-57050304D01*
X161910496Y-57046704D01*
X161935000Y-57045500D01*
X163185000Y-57045500D01*
X163209504Y-57046704D01*
X163209504Y-57046704D01*
G37*
D12*
X162560000Y-57758000D03*
D10*
G36*
X163209504Y-60021704D02*
G01*
X163233773Y-60025304D01*
X163257571Y-60031265D01*
X163280671Y-60039530D01*
X163302849Y-60050020D01*
X163323893Y-60062633D01*
X163343598Y-60077247D01*
X163361777Y-60093723D01*
X163378253Y-60111902D01*
X163392867Y-60131607D01*
X163405480Y-60152651D01*
X163415970Y-60174829D01*
X163424235Y-60197929D01*
X163430196Y-60221727D01*
X163433796Y-60245996D01*
X163435000Y-60270500D01*
X163435000Y-61195500D01*
X163433796Y-61220004D01*
X163430196Y-61244273D01*
X163424235Y-61268071D01*
X163415970Y-61291171D01*
X163405480Y-61313349D01*
X163392867Y-61334393D01*
X163378253Y-61354098D01*
X163361777Y-61372277D01*
X163343598Y-61388753D01*
X163323893Y-61403367D01*
X163302849Y-61415980D01*
X163280671Y-61426470D01*
X163257571Y-61434735D01*
X163233773Y-61440696D01*
X163209504Y-61444296D01*
X163185000Y-61445500D01*
X161935000Y-61445500D01*
X161910496Y-61444296D01*
X161886227Y-61440696D01*
X161862429Y-61434735D01*
X161839329Y-61426470D01*
X161817151Y-61415980D01*
X161796107Y-61403367D01*
X161776402Y-61388753D01*
X161758223Y-61372277D01*
X161741747Y-61354098D01*
X161727133Y-61334393D01*
X161714520Y-61313349D01*
X161704030Y-61291171D01*
X161695765Y-61268071D01*
X161689804Y-61244273D01*
X161686204Y-61220004D01*
X161685000Y-61195500D01*
X161685000Y-60270500D01*
X161686204Y-60245996D01*
X161689804Y-60221727D01*
X161695765Y-60197929D01*
X161704030Y-60174829D01*
X161714520Y-60152651D01*
X161727133Y-60131607D01*
X161741747Y-60111902D01*
X161758223Y-60093723D01*
X161776402Y-60077247D01*
X161796107Y-60062633D01*
X161817151Y-60050020D01*
X161839329Y-60039530D01*
X161862429Y-60031265D01*
X161886227Y-60025304D01*
X161910496Y-60021704D01*
X161935000Y-60020500D01*
X163185000Y-60020500D01*
X163209504Y-60021704D01*
X163209504Y-60021704D01*
G37*
D12*
X162560000Y-60733000D03*
D10*
G36*
X132132604Y-74953704D02*
G01*
X132156873Y-74957304D01*
X132180671Y-74963265D01*
X132203771Y-74971530D01*
X132225949Y-74982020D01*
X132246993Y-74994633D01*
X132266698Y-75009247D01*
X132284877Y-75025723D01*
X132301353Y-75043902D01*
X132315967Y-75063607D01*
X132328580Y-75084651D01*
X132339070Y-75106829D01*
X132347335Y-75129929D01*
X132353296Y-75153727D01*
X132356896Y-75177996D01*
X132358100Y-75202500D01*
X132358100Y-76127500D01*
X132356896Y-76152004D01*
X132353296Y-76176273D01*
X132347335Y-76200071D01*
X132339070Y-76223171D01*
X132328580Y-76245349D01*
X132315967Y-76266393D01*
X132301353Y-76286098D01*
X132284877Y-76304277D01*
X132266698Y-76320753D01*
X132246993Y-76335367D01*
X132225949Y-76347980D01*
X132203771Y-76358470D01*
X132180671Y-76366735D01*
X132156873Y-76372696D01*
X132132604Y-76376296D01*
X132108100Y-76377500D01*
X130858100Y-76377500D01*
X130833596Y-76376296D01*
X130809327Y-76372696D01*
X130785529Y-76366735D01*
X130762429Y-76358470D01*
X130740251Y-76347980D01*
X130719207Y-76335367D01*
X130699502Y-76320753D01*
X130681323Y-76304277D01*
X130664847Y-76286098D01*
X130650233Y-76266393D01*
X130637620Y-76245349D01*
X130627130Y-76223171D01*
X130618865Y-76200071D01*
X130612904Y-76176273D01*
X130609304Y-76152004D01*
X130608100Y-76127500D01*
X130608100Y-75202500D01*
X130609304Y-75177996D01*
X130612904Y-75153727D01*
X130618865Y-75129929D01*
X130627130Y-75106829D01*
X130637620Y-75084651D01*
X130650233Y-75063607D01*
X130664847Y-75043902D01*
X130681323Y-75025723D01*
X130699502Y-75009247D01*
X130719207Y-74994633D01*
X130740251Y-74982020D01*
X130762429Y-74971530D01*
X130785529Y-74963265D01*
X130809327Y-74957304D01*
X130833596Y-74953704D01*
X130858100Y-74952500D01*
X132108100Y-74952500D01*
X132132604Y-74953704D01*
X132132604Y-74953704D01*
G37*
D12*
X131483100Y-75665000D03*
D10*
G36*
X132132604Y-77928704D02*
G01*
X132156873Y-77932304D01*
X132180671Y-77938265D01*
X132203771Y-77946530D01*
X132225949Y-77957020D01*
X132246993Y-77969633D01*
X132266698Y-77984247D01*
X132284877Y-78000723D01*
X132301353Y-78018902D01*
X132315967Y-78038607D01*
X132328580Y-78059651D01*
X132339070Y-78081829D01*
X132347335Y-78104929D01*
X132353296Y-78128727D01*
X132356896Y-78152996D01*
X132358100Y-78177500D01*
X132358100Y-79102500D01*
X132356896Y-79127004D01*
X132353296Y-79151273D01*
X132347335Y-79175071D01*
X132339070Y-79198171D01*
X132328580Y-79220349D01*
X132315967Y-79241393D01*
X132301353Y-79261098D01*
X132284877Y-79279277D01*
X132266698Y-79295753D01*
X132246993Y-79310367D01*
X132225949Y-79322980D01*
X132203771Y-79333470D01*
X132180671Y-79341735D01*
X132156873Y-79347696D01*
X132132604Y-79351296D01*
X132108100Y-79352500D01*
X130858100Y-79352500D01*
X130833596Y-79351296D01*
X130809327Y-79347696D01*
X130785529Y-79341735D01*
X130762429Y-79333470D01*
X130740251Y-79322980D01*
X130719207Y-79310367D01*
X130699502Y-79295753D01*
X130681323Y-79279277D01*
X130664847Y-79261098D01*
X130650233Y-79241393D01*
X130637620Y-79220349D01*
X130627130Y-79198171D01*
X130618865Y-79175071D01*
X130612904Y-79151273D01*
X130609304Y-79127004D01*
X130608100Y-79102500D01*
X130608100Y-78177500D01*
X130609304Y-78152996D01*
X130612904Y-78128727D01*
X130618865Y-78104929D01*
X130627130Y-78081829D01*
X130637620Y-78059651D01*
X130650233Y-78038607D01*
X130664847Y-78018902D01*
X130681323Y-78000723D01*
X130699502Y-77984247D01*
X130719207Y-77969633D01*
X130740251Y-77957020D01*
X130762429Y-77946530D01*
X130785529Y-77938265D01*
X130809327Y-77932304D01*
X130833596Y-77928704D01*
X130858100Y-77927500D01*
X132108100Y-77927500D01*
X132132604Y-77928704D01*
X132132604Y-77928704D01*
G37*
D12*
X131483100Y-78640000D03*
D10*
G36*
X182259504Y-53635204D02*
G01*
X182283773Y-53638804D01*
X182307571Y-53644765D01*
X182330671Y-53653030D01*
X182352849Y-53663520D01*
X182373893Y-53676133D01*
X182393598Y-53690747D01*
X182411777Y-53707223D01*
X182428253Y-53725402D01*
X182442867Y-53745107D01*
X182455480Y-53766151D01*
X182465970Y-53788329D01*
X182474235Y-53811429D01*
X182480196Y-53835227D01*
X182483796Y-53859496D01*
X182485000Y-53884000D01*
X182485000Y-54809000D01*
X182483796Y-54833504D01*
X182480196Y-54857773D01*
X182474235Y-54881571D01*
X182465970Y-54904671D01*
X182455480Y-54926849D01*
X182442867Y-54947893D01*
X182428253Y-54967598D01*
X182411777Y-54985777D01*
X182393598Y-55002253D01*
X182373893Y-55016867D01*
X182352849Y-55029480D01*
X182330671Y-55039970D01*
X182307571Y-55048235D01*
X182283773Y-55054196D01*
X182259504Y-55057796D01*
X182235000Y-55059000D01*
X180985000Y-55059000D01*
X180960496Y-55057796D01*
X180936227Y-55054196D01*
X180912429Y-55048235D01*
X180889329Y-55039970D01*
X180867151Y-55029480D01*
X180846107Y-55016867D01*
X180826402Y-55002253D01*
X180808223Y-54985777D01*
X180791747Y-54967598D01*
X180777133Y-54947893D01*
X180764520Y-54926849D01*
X180754030Y-54904671D01*
X180745765Y-54881571D01*
X180739804Y-54857773D01*
X180736204Y-54833504D01*
X180735000Y-54809000D01*
X180735000Y-53884000D01*
X180736204Y-53859496D01*
X180739804Y-53835227D01*
X180745765Y-53811429D01*
X180754030Y-53788329D01*
X180764520Y-53766151D01*
X180777133Y-53745107D01*
X180791747Y-53725402D01*
X180808223Y-53707223D01*
X180826402Y-53690747D01*
X180846107Y-53676133D01*
X180867151Y-53663520D01*
X180889329Y-53653030D01*
X180912429Y-53644765D01*
X180936227Y-53638804D01*
X180960496Y-53635204D01*
X180985000Y-53634000D01*
X182235000Y-53634000D01*
X182259504Y-53635204D01*
X182259504Y-53635204D01*
G37*
D12*
X181610000Y-54346500D03*
D10*
G36*
X182259504Y-50660204D02*
G01*
X182283773Y-50663804D01*
X182307571Y-50669765D01*
X182330671Y-50678030D01*
X182352849Y-50688520D01*
X182373893Y-50701133D01*
X182393598Y-50715747D01*
X182411777Y-50732223D01*
X182428253Y-50750402D01*
X182442867Y-50770107D01*
X182455480Y-50791151D01*
X182465970Y-50813329D01*
X182474235Y-50836429D01*
X182480196Y-50860227D01*
X182483796Y-50884496D01*
X182485000Y-50909000D01*
X182485000Y-51834000D01*
X182483796Y-51858504D01*
X182480196Y-51882773D01*
X182474235Y-51906571D01*
X182465970Y-51929671D01*
X182455480Y-51951849D01*
X182442867Y-51972893D01*
X182428253Y-51992598D01*
X182411777Y-52010777D01*
X182393598Y-52027253D01*
X182373893Y-52041867D01*
X182352849Y-52054480D01*
X182330671Y-52064970D01*
X182307571Y-52073235D01*
X182283773Y-52079196D01*
X182259504Y-52082796D01*
X182235000Y-52084000D01*
X180985000Y-52084000D01*
X180960496Y-52082796D01*
X180936227Y-52079196D01*
X180912429Y-52073235D01*
X180889329Y-52064970D01*
X180867151Y-52054480D01*
X180846107Y-52041867D01*
X180826402Y-52027253D01*
X180808223Y-52010777D01*
X180791747Y-51992598D01*
X180777133Y-51972893D01*
X180764520Y-51951849D01*
X180754030Y-51929671D01*
X180745765Y-51906571D01*
X180739804Y-51882773D01*
X180736204Y-51858504D01*
X180735000Y-51834000D01*
X180735000Y-50909000D01*
X180736204Y-50884496D01*
X180739804Y-50860227D01*
X180745765Y-50836429D01*
X180754030Y-50813329D01*
X180764520Y-50791151D01*
X180777133Y-50770107D01*
X180791747Y-50750402D01*
X180808223Y-50732223D01*
X180826402Y-50715747D01*
X180846107Y-50701133D01*
X180867151Y-50688520D01*
X180889329Y-50678030D01*
X180912429Y-50669765D01*
X180936227Y-50663804D01*
X180960496Y-50660204D01*
X180985000Y-50659000D01*
X182235000Y-50659000D01*
X182259504Y-50660204D01*
X182259504Y-50660204D01*
G37*
D12*
X181610000Y-51371500D03*
D10*
G36*
X182259504Y-56502204D02*
G01*
X182283773Y-56505804D01*
X182307571Y-56511765D01*
X182330671Y-56520030D01*
X182352849Y-56530520D01*
X182373893Y-56543133D01*
X182393598Y-56557747D01*
X182411777Y-56574223D01*
X182428253Y-56592402D01*
X182442867Y-56612107D01*
X182455480Y-56633151D01*
X182465970Y-56655329D01*
X182474235Y-56678429D01*
X182480196Y-56702227D01*
X182483796Y-56726496D01*
X182485000Y-56751000D01*
X182485000Y-57676000D01*
X182483796Y-57700504D01*
X182480196Y-57724773D01*
X182474235Y-57748571D01*
X182465970Y-57771671D01*
X182455480Y-57793849D01*
X182442867Y-57814893D01*
X182428253Y-57834598D01*
X182411777Y-57852777D01*
X182393598Y-57869253D01*
X182373893Y-57883867D01*
X182352849Y-57896480D01*
X182330671Y-57906970D01*
X182307571Y-57915235D01*
X182283773Y-57921196D01*
X182259504Y-57924796D01*
X182235000Y-57926000D01*
X180985000Y-57926000D01*
X180960496Y-57924796D01*
X180936227Y-57921196D01*
X180912429Y-57915235D01*
X180889329Y-57906970D01*
X180867151Y-57896480D01*
X180846107Y-57883867D01*
X180826402Y-57869253D01*
X180808223Y-57852777D01*
X180791747Y-57834598D01*
X180777133Y-57814893D01*
X180764520Y-57793849D01*
X180754030Y-57771671D01*
X180745765Y-57748571D01*
X180739804Y-57724773D01*
X180736204Y-57700504D01*
X180735000Y-57676000D01*
X180735000Y-56751000D01*
X180736204Y-56726496D01*
X180739804Y-56702227D01*
X180745765Y-56678429D01*
X180754030Y-56655329D01*
X180764520Y-56633151D01*
X180777133Y-56612107D01*
X180791747Y-56592402D01*
X180808223Y-56574223D01*
X180826402Y-56557747D01*
X180846107Y-56543133D01*
X180867151Y-56530520D01*
X180889329Y-56520030D01*
X180912429Y-56511765D01*
X180936227Y-56505804D01*
X180960496Y-56502204D01*
X180985000Y-56501000D01*
X182235000Y-56501000D01*
X182259504Y-56502204D01*
X182259504Y-56502204D01*
G37*
D12*
X181610000Y-57213500D03*
D10*
G36*
X182259504Y-59477204D02*
G01*
X182283773Y-59480804D01*
X182307571Y-59486765D01*
X182330671Y-59495030D01*
X182352849Y-59505520D01*
X182373893Y-59518133D01*
X182393598Y-59532747D01*
X182411777Y-59549223D01*
X182428253Y-59567402D01*
X182442867Y-59587107D01*
X182455480Y-59608151D01*
X182465970Y-59630329D01*
X182474235Y-59653429D01*
X182480196Y-59677227D01*
X182483796Y-59701496D01*
X182485000Y-59726000D01*
X182485000Y-60651000D01*
X182483796Y-60675504D01*
X182480196Y-60699773D01*
X182474235Y-60723571D01*
X182465970Y-60746671D01*
X182455480Y-60768849D01*
X182442867Y-60789893D01*
X182428253Y-60809598D01*
X182411777Y-60827777D01*
X182393598Y-60844253D01*
X182373893Y-60858867D01*
X182352849Y-60871480D01*
X182330671Y-60881970D01*
X182307571Y-60890235D01*
X182283773Y-60896196D01*
X182259504Y-60899796D01*
X182235000Y-60901000D01*
X180985000Y-60901000D01*
X180960496Y-60899796D01*
X180936227Y-60896196D01*
X180912429Y-60890235D01*
X180889329Y-60881970D01*
X180867151Y-60871480D01*
X180846107Y-60858867D01*
X180826402Y-60844253D01*
X180808223Y-60827777D01*
X180791747Y-60809598D01*
X180777133Y-60789893D01*
X180764520Y-60768849D01*
X180754030Y-60746671D01*
X180745765Y-60723571D01*
X180739804Y-60699773D01*
X180736204Y-60675504D01*
X180735000Y-60651000D01*
X180735000Y-59726000D01*
X180736204Y-59701496D01*
X180739804Y-59677227D01*
X180745765Y-59653429D01*
X180754030Y-59630329D01*
X180764520Y-59608151D01*
X180777133Y-59587107D01*
X180791747Y-59567402D01*
X180808223Y-59549223D01*
X180826402Y-59532747D01*
X180846107Y-59518133D01*
X180867151Y-59505520D01*
X180889329Y-59495030D01*
X180912429Y-59486765D01*
X180936227Y-59480804D01*
X180960496Y-59477204D01*
X180985000Y-59476000D01*
X182235000Y-59476000D01*
X182259504Y-59477204D01*
X182259504Y-59477204D01*
G37*
D12*
X181610000Y-60188500D03*
D10*
G36*
X209183504Y-49771204D02*
G01*
X209207773Y-49774804D01*
X209231571Y-49780765D01*
X209254671Y-49789030D01*
X209276849Y-49799520D01*
X209297893Y-49812133D01*
X209317598Y-49826747D01*
X209335777Y-49843223D01*
X209352253Y-49861402D01*
X209366867Y-49881107D01*
X209379480Y-49902151D01*
X209389970Y-49924329D01*
X209398235Y-49947429D01*
X209404196Y-49971227D01*
X209407796Y-49995496D01*
X209409000Y-50020000D01*
X209409000Y-50945000D01*
X209407796Y-50969504D01*
X209404196Y-50993773D01*
X209398235Y-51017571D01*
X209389970Y-51040671D01*
X209379480Y-51062849D01*
X209366867Y-51083893D01*
X209352253Y-51103598D01*
X209335777Y-51121777D01*
X209317598Y-51138253D01*
X209297893Y-51152867D01*
X209276849Y-51165480D01*
X209254671Y-51175970D01*
X209231571Y-51184235D01*
X209207773Y-51190196D01*
X209183504Y-51193796D01*
X209159000Y-51195000D01*
X207909000Y-51195000D01*
X207884496Y-51193796D01*
X207860227Y-51190196D01*
X207836429Y-51184235D01*
X207813329Y-51175970D01*
X207791151Y-51165480D01*
X207770107Y-51152867D01*
X207750402Y-51138253D01*
X207732223Y-51121777D01*
X207715747Y-51103598D01*
X207701133Y-51083893D01*
X207688520Y-51062849D01*
X207678030Y-51040671D01*
X207669765Y-51017571D01*
X207663804Y-50993773D01*
X207660204Y-50969504D01*
X207659000Y-50945000D01*
X207659000Y-50020000D01*
X207660204Y-49995496D01*
X207663804Y-49971227D01*
X207669765Y-49947429D01*
X207678030Y-49924329D01*
X207688520Y-49902151D01*
X207701133Y-49881107D01*
X207715747Y-49861402D01*
X207732223Y-49843223D01*
X207750402Y-49826747D01*
X207770107Y-49812133D01*
X207791151Y-49799520D01*
X207813329Y-49789030D01*
X207836429Y-49780765D01*
X207860227Y-49774804D01*
X207884496Y-49771204D01*
X207909000Y-49770000D01*
X209159000Y-49770000D01*
X209183504Y-49771204D01*
X209183504Y-49771204D01*
G37*
D12*
X208534000Y-50482500D03*
D10*
G36*
X209183504Y-52746204D02*
G01*
X209207773Y-52749804D01*
X209231571Y-52755765D01*
X209254671Y-52764030D01*
X209276849Y-52774520D01*
X209297893Y-52787133D01*
X209317598Y-52801747D01*
X209335777Y-52818223D01*
X209352253Y-52836402D01*
X209366867Y-52856107D01*
X209379480Y-52877151D01*
X209389970Y-52899329D01*
X209398235Y-52922429D01*
X209404196Y-52946227D01*
X209407796Y-52970496D01*
X209409000Y-52995000D01*
X209409000Y-53920000D01*
X209407796Y-53944504D01*
X209404196Y-53968773D01*
X209398235Y-53992571D01*
X209389970Y-54015671D01*
X209379480Y-54037849D01*
X209366867Y-54058893D01*
X209352253Y-54078598D01*
X209335777Y-54096777D01*
X209317598Y-54113253D01*
X209297893Y-54127867D01*
X209276849Y-54140480D01*
X209254671Y-54150970D01*
X209231571Y-54159235D01*
X209207773Y-54165196D01*
X209183504Y-54168796D01*
X209159000Y-54170000D01*
X207909000Y-54170000D01*
X207884496Y-54168796D01*
X207860227Y-54165196D01*
X207836429Y-54159235D01*
X207813329Y-54150970D01*
X207791151Y-54140480D01*
X207770107Y-54127867D01*
X207750402Y-54113253D01*
X207732223Y-54096777D01*
X207715747Y-54078598D01*
X207701133Y-54058893D01*
X207688520Y-54037849D01*
X207678030Y-54015671D01*
X207669765Y-53992571D01*
X207663804Y-53968773D01*
X207660204Y-53944504D01*
X207659000Y-53920000D01*
X207659000Y-52995000D01*
X207660204Y-52970496D01*
X207663804Y-52946227D01*
X207669765Y-52922429D01*
X207678030Y-52899329D01*
X207688520Y-52877151D01*
X207701133Y-52856107D01*
X207715747Y-52836402D01*
X207732223Y-52818223D01*
X207750402Y-52801747D01*
X207770107Y-52787133D01*
X207791151Y-52774520D01*
X207813329Y-52764030D01*
X207836429Y-52755765D01*
X207860227Y-52749804D01*
X207884496Y-52746204D01*
X207909000Y-52745000D01*
X209159000Y-52745000D01*
X209183504Y-52746204D01*
X209183504Y-52746204D01*
G37*
D12*
X208534000Y-53457500D03*
D10*
G36*
X192546504Y-56973704D02*
G01*
X192570773Y-56977304D01*
X192594571Y-56983265D01*
X192617671Y-56991530D01*
X192639849Y-57002020D01*
X192660893Y-57014633D01*
X192680598Y-57029247D01*
X192698777Y-57045723D01*
X192715253Y-57063902D01*
X192729867Y-57083607D01*
X192742480Y-57104651D01*
X192752970Y-57126829D01*
X192761235Y-57149929D01*
X192767196Y-57173727D01*
X192770796Y-57197996D01*
X192772000Y-57222500D01*
X192772000Y-58147500D01*
X192770796Y-58172004D01*
X192767196Y-58196273D01*
X192761235Y-58220071D01*
X192752970Y-58243171D01*
X192742480Y-58265349D01*
X192729867Y-58286393D01*
X192715253Y-58306098D01*
X192698777Y-58324277D01*
X192680598Y-58340753D01*
X192660893Y-58355367D01*
X192639849Y-58367980D01*
X192617671Y-58378470D01*
X192594571Y-58386735D01*
X192570773Y-58392696D01*
X192546504Y-58396296D01*
X192522000Y-58397500D01*
X191272000Y-58397500D01*
X191247496Y-58396296D01*
X191223227Y-58392696D01*
X191199429Y-58386735D01*
X191176329Y-58378470D01*
X191154151Y-58367980D01*
X191133107Y-58355367D01*
X191113402Y-58340753D01*
X191095223Y-58324277D01*
X191078747Y-58306098D01*
X191064133Y-58286393D01*
X191051520Y-58265349D01*
X191041030Y-58243171D01*
X191032765Y-58220071D01*
X191026804Y-58196273D01*
X191023204Y-58172004D01*
X191022000Y-58147500D01*
X191022000Y-57222500D01*
X191023204Y-57197996D01*
X191026804Y-57173727D01*
X191032765Y-57149929D01*
X191041030Y-57126829D01*
X191051520Y-57104651D01*
X191064133Y-57083607D01*
X191078747Y-57063902D01*
X191095223Y-57045723D01*
X191113402Y-57029247D01*
X191133107Y-57014633D01*
X191154151Y-57002020D01*
X191176329Y-56991530D01*
X191199429Y-56983265D01*
X191223227Y-56977304D01*
X191247496Y-56973704D01*
X191272000Y-56972500D01*
X192522000Y-56972500D01*
X192546504Y-56973704D01*
X192546504Y-56973704D01*
G37*
D12*
X191897000Y-57685000D03*
D10*
G36*
X192546504Y-53998704D02*
G01*
X192570773Y-54002304D01*
X192594571Y-54008265D01*
X192617671Y-54016530D01*
X192639849Y-54027020D01*
X192660893Y-54039633D01*
X192680598Y-54054247D01*
X192698777Y-54070723D01*
X192715253Y-54088902D01*
X192729867Y-54108607D01*
X192742480Y-54129651D01*
X192752970Y-54151829D01*
X192761235Y-54174929D01*
X192767196Y-54198727D01*
X192770796Y-54222996D01*
X192772000Y-54247500D01*
X192772000Y-55172500D01*
X192770796Y-55197004D01*
X192767196Y-55221273D01*
X192761235Y-55245071D01*
X192752970Y-55268171D01*
X192742480Y-55290349D01*
X192729867Y-55311393D01*
X192715253Y-55331098D01*
X192698777Y-55349277D01*
X192680598Y-55365753D01*
X192660893Y-55380367D01*
X192639849Y-55392980D01*
X192617671Y-55403470D01*
X192594571Y-55411735D01*
X192570773Y-55417696D01*
X192546504Y-55421296D01*
X192522000Y-55422500D01*
X191272000Y-55422500D01*
X191247496Y-55421296D01*
X191223227Y-55417696D01*
X191199429Y-55411735D01*
X191176329Y-55403470D01*
X191154151Y-55392980D01*
X191133107Y-55380367D01*
X191113402Y-55365753D01*
X191095223Y-55349277D01*
X191078747Y-55331098D01*
X191064133Y-55311393D01*
X191051520Y-55290349D01*
X191041030Y-55268171D01*
X191032765Y-55245071D01*
X191026804Y-55221273D01*
X191023204Y-55197004D01*
X191022000Y-55172500D01*
X191022000Y-54247500D01*
X191023204Y-54222996D01*
X191026804Y-54198727D01*
X191032765Y-54174929D01*
X191041030Y-54151829D01*
X191051520Y-54129651D01*
X191064133Y-54108607D01*
X191078747Y-54088902D01*
X191095223Y-54070723D01*
X191113402Y-54054247D01*
X191133107Y-54039633D01*
X191154151Y-54027020D01*
X191176329Y-54016530D01*
X191199429Y-54008265D01*
X191223227Y-54002304D01*
X191247496Y-53998704D01*
X191272000Y-53997500D01*
X192522000Y-53997500D01*
X192546504Y-53998704D01*
X192546504Y-53998704D01*
G37*
D12*
X191897000Y-54710000D03*
D10*
G36*
X192546504Y-48120204D02*
G01*
X192570773Y-48123804D01*
X192594571Y-48129765D01*
X192617671Y-48138030D01*
X192639849Y-48148520D01*
X192660893Y-48161133D01*
X192680598Y-48175747D01*
X192698777Y-48192223D01*
X192715253Y-48210402D01*
X192729867Y-48230107D01*
X192742480Y-48251151D01*
X192752970Y-48273329D01*
X192761235Y-48296429D01*
X192767196Y-48320227D01*
X192770796Y-48344496D01*
X192772000Y-48369000D01*
X192772000Y-49294000D01*
X192770796Y-49318504D01*
X192767196Y-49342773D01*
X192761235Y-49366571D01*
X192752970Y-49389671D01*
X192742480Y-49411849D01*
X192729867Y-49432893D01*
X192715253Y-49452598D01*
X192698777Y-49470777D01*
X192680598Y-49487253D01*
X192660893Y-49501867D01*
X192639849Y-49514480D01*
X192617671Y-49524970D01*
X192594571Y-49533235D01*
X192570773Y-49539196D01*
X192546504Y-49542796D01*
X192522000Y-49544000D01*
X191272000Y-49544000D01*
X191247496Y-49542796D01*
X191223227Y-49539196D01*
X191199429Y-49533235D01*
X191176329Y-49524970D01*
X191154151Y-49514480D01*
X191133107Y-49501867D01*
X191113402Y-49487253D01*
X191095223Y-49470777D01*
X191078747Y-49452598D01*
X191064133Y-49432893D01*
X191051520Y-49411849D01*
X191041030Y-49389671D01*
X191032765Y-49366571D01*
X191026804Y-49342773D01*
X191023204Y-49318504D01*
X191022000Y-49294000D01*
X191022000Y-48369000D01*
X191023204Y-48344496D01*
X191026804Y-48320227D01*
X191032765Y-48296429D01*
X191041030Y-48273329D01*
X191051520Y-48251151D01*
X191064133Y-48230107D01*
X191078747Y-48210402D01*
X191095223Y-48192223D01*
X191113402Y-48175747D01*
X191133107Y-48161133D01*
X191154151Y-48148520D01*
X191176329Y-48138030D01*
X191199429Y-48129765D01*
X191223227Y-48123804D01*
X191247496Y-48120204D01*
X191272000Y-48119000D01*
X192522000Y-48119000D01*
X192546504Y-48120204D01*
X192546504Y-48120204D01*
G37*
D12*
X191897000Y-48831500D03*
D10*
G36*
X192546504Y-51095204D02*
G01*
X192570773Y-51098804D01*
X192594571Y-51104765D01*
X192617671Y-51113030D01*
X192639849Y-51123520D01*
X192660893Y-51136133D01*
X192680598Y-51150747D01*
X192698777Y-51167223D01*
X192715253Y-51185402D01*
X192729867Y-51205107D01*
X192742480Y-51226151D01*
X192752970Y-51248329D01*
X192761235Y-51271429D01*
X192767196Y-51295227D01*
X192770796Y-51319496D01*
X192772000Y-51344000D01*
X192772000Y-52269000D01*
X192770796Y-52293504D01*
X192767196Y-52317773D01*
X192761235Y-52341571D01*
X192752970Y-52364671D01*
X192742480Y-52386849D01*
X192729867Y-52407893D01*
X192715253Y-52427598D01*
X192698777Y-52445777D01*
X192680598Y-52462253D01*
X192660893Y-52476867D01*
X192639849Y-52489480D01*
X192617671Y-52499970D01*
X192594571Y-52508235D01*
X192570773Y-52514196D01*
X192546504Y-52517796D01*
X192522000Y-52519000D01*
X191272000Y-52519000D01*
X191247496Y-52517796D01*
X191223227Y-52514196D01*
X191199429Y-52508235D01*
X191176329Y-52499970D01*
X191154151Y-52489480D01*
X191133107Y-52476867D01*
X191113402Y-52462253D01*
X191095223Y-52445777D01*
X191078747Y-52427598D01*
X191064133Y-52407893D01*
X191051520Y-52386849D01*
X191041030Y-52364671D01*
X191032765Y-52341571D01*
X191026804Y-52317773D01*
X191023204Y-52293504D01*
X191022000Y-52269000D01*
X191022000Y-51344000D01*
X191023204Y-51319496D01*
X191026804Y-51295227D01*
X191032765Y-51271429D01*
X191041030Y-51248329D01*
X191051520Y-51226151D01*
X191064133Y-51205107D01*
X191078747Y-51185402D01*
X191095223Y-51167223D01*
X191113402Y-51150747D01*
X191133107Y-51136133D01*
X191154151Y-51123520D01*
X191176329Y-51113030D01*
X191199429Y-51104765D01*
X191223227Y-51098804D01*
X191247496Y-51095204D01*
X191272000Y-51094000D01*
X192522000Y-51094000D01*
X192546504Y-51095204D01*
X192546504Y-51095204D01*
G37*
D12*
X191897000Y-51806500D03*
D10*
G36*
X205373504Y-49717204D02*
G01*
X205397773Y-49720804D01*
X205421571Y-49726765D01*
X205444671Y-49735030D01*
X205466849Y-49745520D01*
X205487893Y-49758133D01*
X205507598Y-49772747D01*
X205525777Y-49789223D01*
X205542253Y-49807402D01*
X205556867Y-49827107D01*
X205569480Y-49848151D01*
X205579970Y-49870329D01*
X205588235Y-49893429D01*
X205594196Y-49917227D01*
X205597796Y-49941496D01*
X205599000Y-49966000D01*
X205599000Y-50891000D01*
X205597796Y-50915504D01*
X205594196Y-50939773D01*
X205588235Y-50963571D01*
X205579970Y-50986671D01*
X205569480Y-51008849D01*
X205556867Y-51029893D01*
X205542253Y-51049598D01*
X205525777Y-51067777D01*
X205507598Y-51084253D01*
X205487893Y-51098867D01*
X205466849Y-51111480D01*
X205444671Y-51121970D01*
X205421571Y-51130235D01*
X205397773Y-51136196D01*
X205373504Y-51139796D01*
X205349000Y-51141000D01*
X204099000Y-51141000D01*
X204074496Y-51139796D01*
X204050227Y-51136196D01*
X204026429Y-51130235D01*
X204003329Y-51121970D01*
X203981151Y-51111480D01*
X203960107Y-51098867D01*
X203940402Y-51084253D01*
X203922223Y-51067777D01*
X203905747Y-51049598D01*
X203891133Y-51029893D01*
X203878520Y-51008849D01*
X203868030Y-50986671D01*
X203859765Y-50963571D01*
X203853804Y-50939773D01*
X203850204Y-50915504D01*
X203849000Y-50891000D01*
X203849000Y-49966000D01*
X203850204Y-49941496D01*
X203853804Y-49917227D01*
X203859765Y-49893429D01*
X203868030Y-49870329D01*
X203878520Y-49848151D01*
X203891133Y-49827107D01*
X203905747Y-49807402D01*
X203922223Y-49789223D01*
X203940402Y-49772747D01*
X203960107Y-49758133D01*
X203981151Y-49745520D01*
X204003329Y-49735030D01*
X204026429Y-49726765D01*
X204050227Y-49720804D01*
X204074496Y-49717204D01*
X204099000Y-49716000D01*
X205349000Y-49716000D01*
X205373504Y-49717204D01*
X205373504Y-49717204D01*
G37*
D12*
X204724000Y-50428500D03*
D10*
G36*
X205373504Y-52692204D02*
G01*
X205397773Y-52695804D01*
X205421571Y-52701765D01*
X205444671Y-52710030D01*
X205466849Y-52720520D01*
X205487893Y-52733133D01*
X205507598Y-52747747D01*
X205525777Y-52764223D01*
X205542253Y-52782402D01*
X205556867Y-52802107D01*
X205569480Y-52823151D01*
X205579970Y-52845329D01*
X205588235Y-52868429D01*
X205594196Y-52892227D01*
X205597796Y-52916496D01*
X205599000Y-52941000D01*
X205599000Y-53866000D01*
X205597796Y-53890504D01*
X205594196Y-53914773D01*
X205588235Y-53938571D01*
X205579970Y-53961671D01*
X205569480Y-53983849D01*
X205556867Y-54004893D01*
X205542253Y-54024598D01*
X205525777Y-54042777D01*
X205507598Y-54059253D01*
X205487893Y-54073867D01*
X205466849Y-54086480D01*
X205444671Y-54096970D01*
X205421571Y-54105235D01*
X205397773Y-54111196D01*
X205373504Y-54114796D01*
X205349000Y-54116000D01*
X204099000Y-54116000D01*
X204074496Y-54114796D01*
X204050227Y-54111196D01*
X204026429Y-54105235D01*
X204003329Y-54096970D01*
X203981151Y-54086480D01*
X203960107Y-54073867D01*
X203940402Y-54059253D01*
X203922223Y-54042777D01*
X203905747Y-54024598D01*
X203891133Y-54004893D01*
X203878520Y-53983849D01*
X203868030Y-53961671D01*
X203859765Y-53938571D01*
X203853804Y-53914773D01*
X203850204Y-53890504D01*
X203849000Y-53866000D01*
X203849000Y-52941000D01*
X203850204Y-52916496D01*
X203853804Y-52892227D01*
X203859765Y-52868429D01*
X203868030Y-52845329D01*
X203878520Y-52823151D01*
X203891133Y-52802107D01*
X203905747Y-52782402D01*
X203922223Y-52764223D01*
X203940402Y-52747747D01*
X203960107Y-52733133D01*
X203981151Y-52720520D01*
X204003329Y-52710030D01*
X204026429Y-52701765D01*
X204050227Y-52695804D01*
X204074496Y-52692204D01*
X204099000Y-52691000D01*
X205349000Y-52691000D01*
X205373504Y-52692204D01*
X205373504Y-52692204D01*
G37*
D12*
X204724000Y-53403500D03*
D10*
G36*
X187733204Y-94641404D02*
G01*
X187757473Y-94645004D01*
X187781271Y-94650965D01*
X187804371Y-94659230D01*
X187826549Y-94669720D01*
X187847593Y-94682333D01*
X187867298Y-94696947D01*
X187885477Y-94713423D01*
X187901953Y-94731602D01*
X187916567Y-94751307D01*
X187929180Y-94772351D01*
X187939670Y-94794529D01*
X187947935Y-94817629D01*
X187953896Y-94841427D01*
X187957496Y-94865696D01*
X187958700Y-94890200D01*
X187958700Y-95815200D01*
X187957496Y-95839704D01*
X187953896Y-95863973D01*
X187947935Y-95887771D01*
X187939670Y-95910871D01*
X187929180Y-95933049D01*
X187916567Y-95954093D01*
X187901953Y-95973798D01*
X187885477Y-95991977D01*
X187867298Y-96008453D01*
X187847593Y-96023067D01*
X187826549Y-96035680D01*
X187804371Y-96046170D01*
X187781271Y-96054435D01*
X187757473Y-96060396D01*
X187733204Y-96063996D01*
X187708700Y-96065200D01*
X186458700Y-96065200D01*
X186434196Y-96063996D01*
X186409927Y-96060396D01*
X186386129Y-96054435D01*
X186363029Y-96046170D01*
X186340851Y-96035680D01*
X186319807Y-96023067D01*
X186300102Y-96008453D01*
X186281923Y-95991977D01*
X186265447Y-95973798D01*
X186250833Y-95954093D01*
X186238220Y-95933049D01*
X186227730Y-95910871D01*
X186219465Y-95887771D01*
X186213504Y-95863973D01*
X186209904Y-95839704D01*
X186208700Y-95815200D01*
X186208700Y-94890200D01*
X186209904Y-94865696D01*
X186213504Y-94841427D01*
X186219465Y-94817629D01*
X186227730Y-94794529D01*
X186238220Y-94772351D01*
X186250833Y-94751307D01*
X186265447Y-94731602D01*
X186281923Y-94713423D01*
X186300102Y-94696947D01*
X186319807Y-94682333D01*
X186340851Y-94669720D01*
X186363029Y-94659230D01*
X186386129Y-94650965D01*
X186409927Y-94645004D01*
X186434196Y-94641404D01*
X186458700Y-94640200D01*
X187708700Y-94640200D01*
X187733204Y-94641404D01*
X187733204Y-94641404D01*
G37*
D12*
X187083700Y-95352700D03*
D10*
G36*
X187733204Y-91666404D02*
G01*
X187757473Y-91670004D01*
X187781271Y-91675965D01*
X187804371Y-91684230D01*
X187826549Y-91694720D01*
X187847593Y-91707333D01*
X187867298Y-91721947D01*
X187885477Y-91738423D01*
X187901953Y-91756602D01*
X187916567Y-91776307D01*
X187929180Y-91797351D01*
X187939670Y-91819529D01*
X187947935Y-91842629D01*
X187953896Y-91866427D01*
X187957496Y-91890696D01*
X187958700Y-91915200D01*
X187958700Y-92840200D01*
X187957496Y-92864704D01*
X187953896Y-92888973D01*
X187947935Y-92912771D01*
X187939670Y-92935871D01*
X187929180Y-92958049D01*
X187916567Y-92979093D01*
X187901953Y-92998798D01*
X187885477Y-93016977D01*
X187867298Y-93033453D01*
X187847593Y-93048067D01*
X187826549Y-93060680D01*
X187804371Y-93071170D01*
X187781271Y-93079435D01*
X187757473Y-93085396D01*
X187733204Y-93088996D01*
X187708700Y-93090200D01*
X186458700Y-93090200D01*
X186434196Y-93088996D01*
X186409927Y-93085396D01*
X186386129Y-93079435D01*
X186363029Y-93071170D01*
X186340851Y-93060680D01*
X186319807Y-93048067D01*
X186300102Y-93033453D01*
X186281923Y-93016977D01*
X186265447Y-92998798D01*
X186250833Y-92979093D01*
X186238220Y-92958049D01*
X186227730Y-92935871D01*
X186219465Y-92912771D01*
X186213504Y-92888973D01*
X186209904Y-92864704D01*
X186208700Y-92840200D01*
X186208700Y-91915200D01*
X186209904Y-91890696D01*
X186213504Y-91866427D01*
X186219465Y-91842629D01*
X186227730Y-91819529D01*
X186238220Y-91797351D01*
X186250833Y-91776307D01*
X186265447Y-91756602D01*
X186281923Y-91738423D01*
X186300102Y-91721947D01*
X186319807Y-91707333D01*
X186340851Y-91694720D01*
X186363029Y-91684230D01*
X186386129Y-91675965D01*
X186409927Y-91670004D01*
X186434196Y-91666404D01*
X186458700Y-91665200D01*
X187708700Y-91665200D01*
X187733204Y-91666404D01*
X187733204Y-91666404D01*
G37*
D12*
X187083700Y-92377700D03*
D10*
G36*
X205373504Y-63668204D02*
G01*
X205397773Y-63671804D01*
X205421571Y-63677765D01*
X205444671Y-63686030D01*
X205466849Y-63696520D01*
X205487893Y-63709133D01*
X205507598Y-63723747D01*
X205525777Y-63740223D01*
X205542253Y-63758402D01*
X205556867Y-63778107D01*
X205569480Y-63799151D01*
X205579970Y-63821329D01*
X205588235Y-63844429D01*
X205594196Y-63868227D01*
X205597796Y-63892496D01*
X205599000Y-63917000D01*
X205599000Y-64842000D01*
X205597796Y-64866504D01*
X205594196Y-64890773D01*
X205588235Y-64914571D01*
X205579970Y-64937671D01*
X205569480Y-64959849D01*
X205556867Y-64980893D01*
X205542253Y-65000598D01*
X205525777Y-65018777D01*
X205507598Y-65035253D01*
X205487893Y-65049867D01*
X205466849Y-65062480D01*
X205444671Y-65072970D01*
X205421571Y-65081235D01*
X205397773Y-65087196D01*
X205373504Y-65090796D01*
X205349000Y-65092000D01*
X204099000Y-65092000D01*
X204074496Y-65090796D01*
X204050227Y-65087196D01*
X204026429Y-65081235D01*
X204003329Y-65072970D01*
X203981151Y-65062480D01*
X203960107Y-65049867D01*
X203940402Y-65035253D01*
X203922223Y-65018777D01*
X203905747Y-65000598D01*
X203891133Y-64980893D01*
X203878520Y-64959849D01*
X203868030Y-64937671D01*
X203859765Y-64914571D01*
X203853804Y-64890773D01*
X203850204Y-64866504D01*
X203849000Y-64842000D01*
X203849000Y-63917000D01*
X203850204Y-63892496D01*
X203853804Y-63868227D01*
X203859765Y-63844429D01*
X203868030Y-63821329D01*
X203878520Y-63799151D01*
X203891133Y-63778107D01*
X203905747Y-63758402D01*
X203922223Y-63740223D01*
X203940402Y-63723747D01*
X203960107Y-63709133D01*
X203981151Y-63696520D01*
X204003329Y-63686030D01*
X204026429Y-63677765D01*
X204050227Y-63671804D01*
X204074496Y-63668204D01*
X204099000Y-63667000D01*
X205349000Y-63667000D01*
X205373504Y-63668204D01*
X205373504Y-63668204D01*
G37*
D12*
X204724000Y-64379500D03*
D10*
G36*
X205373504Y-60693204D02*
G01*
X205397773Y-60696804D01*
X205421571Y-60702765D01*
X205444671Y-60711030D01*
X205466849Y-60721520D01*
X205487893Y-60734133D01*
X205507598Y-60748747D01*
X205525777Y-60765223D01*
X205542253Y-60783402D01*
X205556867Y-60803107D01*
X205569480Y-60824151D01*
X205579970Y-60846329D01*
X205588235Y-60869429D01*
X205594196Y-60893227D01*
X205597796Y-60917496D01*
X205599000Y-60942000D01*
X205599000Y-61867000D01*
X205597796Y-61891504D01*
X205594196Y-61915773D01*
X205588235Y-61939571D01*
X205579970Y-61962671D01*
X205569480Y-61984849D01*
X205556867Y-62005893D01*
X205542253Y-62025598D01*
X205525777Y-62043777D01*
X205507598Y-62060253D01*
X205487893Y-62074867D01*
X205466849Y-62087480D01*
X205444671Y-62097970D01*
X205421571Y-62106235D01*
X205397773Y-62112196D01*
X205373504Y-62115796D01*
X205349000Y-62117000D01*
X204099000Y-62117000D01*
X204074496Y-62115796D01*
X204050227Y-62112196D01*
X204026429Y-62106235D01*
X204003329Y-62097970D01*
X203981151Y-62087480D01*
X203960107Y-62074867D01*
X203940402Y-62060253D01*
X203922223Y-62043777D01*
X203905747Y-62025598D01*
X203891133Y-62005893D01*
X203878520Y-61984849D01*
X203868030Y-61962671D01*
X203859765Y-61939571D01*
X203853804Y-61915773D01*
X203850204Y-61891504D01*
X203849000Y-61867000D01*
X203849000Y-60942000D01*
X203850204Y-60917496D01*
X203853804Y-60893227D01*
X203859765Y-60869429D01*
X203868030Y-60846329D01*
X203878520Y-60824151D01*
X203891133Y-60803107D01*
X203905747Y-60783402D01*
X203922223Y-60765223D01*
X203940402Y-60748747D01*
X203960107Y-60734133D01*
X203981151Y-60721520D01*
X204003329Y-60711030D01*
X204026429Y-60702765D01*
X204050227Y-60696804D01*
X204074496Y-60693204D01*
X204099000Y-60692000D01*
X205349000Y-60692000D01*
X205373504Y-60693204D01*
X205373504Y-60693204D01*
G37*
D12*
X204724000Y-61404500D03*
D10*
G36*
X193194204Y-94641404D02*
G01*
X193218473Y-94645004D01*
X193242271Y-94650965D01*
X193265371Y-94659230D01*
X193287549Y-94669720D01*
X193308593Y-94682333D01*
X193328298Y-94696947D01*
X193346477Y-94713423D01*
X193362953Y-94731602D01*
X193377567Y-94751307D01*
X193390180Y-94772351D01*
X193400670Y-94794529D01*
X193408935Y-94817629D01*
X193414896Y-94841427D01*
X193418496Y-94865696D01*
X193419700Y-94890200D01*
X193419700Y-95815200D01*
X193418496Y-95839704D01*
X193414896Y-95863973D01*
X193408935Y-95887771D01*
X193400670Y-95910871D01*
X193390180Y-95933049D01*
X193377567Y-95954093D01*
X193362953Y-95973798D01*
X193346477Y-95991977D01*
X193328298Y-96008453D01*
X193308593Y-96023067D01*
X193287549Y-96035680D01*
X193265371Y-96046170D01*
X193242271Y-96054435D01*
X193218473Y-96060396D01*
X193194204Y-96063996D01*
X193169700Y-96065200D01*
X191919700Y-96065200D01*
X191895196Y-96063996D01*
X191870927Y-96060396D01*
X191847129Y-96054435D01*
X191824029Y-96046170D01*
X191801851Y-96035680D01*
X191780807Y-96023067D01*
X191761102Y-96008453D01*
X191742923Y-95991977D01*
X191726447Y-95973798D01*
X191711833Y-95954093D01*
X191699220Y-95933049D01*
X191688730Y-95910871D01*
X191680465Y-95887771D01*
X191674504Y-95863973D01*
X191670904Y-95839704D01*
X191669700Y-95815200D01*
X191669700Y-94890200D01*
X191670904Y-94865696D01*
X191674504Y-94841427D01*
X191680465Y-94817629D01*
X191688730Y-94794529D01*
X191699220Y-94772351D01*
X191711833Y-94751307D01*
X191726447Y-94731602D01*
X191742923Y-94713423D01*
X191761102Y-94696947D01*
X191780807Y-94682333D01*
X191801851Y-94669720D01*
X191824029Y-94659230D01*
X191847129Y-94650965D01*
X191870927Y-94645004D01*
X191895196Y-94641404D01*
X191919700Y-94640200D01*
X193169700Y-94640200D01*
X193194204Y-94641404D01*
X193194204Y-94641404D01*
G37*
D12*
X192544700Y-95352700D03*
D10*
G36*
X193194204Y-91666404D02*
G01*
X193218473Y-91670004D01*
X193242271Y-91675965D01*
X193265371Y-91684230D01*
X193287549Y-91694720D01*
X193308593Y-91707333D01*
X193328298Y-91721947D01*
X193346477Y-91738423D01*
X193362953Y-91756602D01*
X193377567Y-91776307D01*
X193390180Y-91797351D01*
X193400670Y-91819529D01*
X193408935Y-91842629D01*
X193414896Y-91866427D01*
X193418496Y-91890696D01*
X193419700Y-91915200D01*
X193419700Y-92840200D01*
X193418496Y-92864704D01*
X193414896Y-92888973D01*
X193408935Y-92912771D01*
X193400670Y-92935871D01*
X193390180Y-92958049D01*
X193377567Y-92979093D01*
X193362953Y-92998798D01*
X193346477Y-93016977D01*
X193328298Y-93033453D01*
X193308593Y-93048067D01*
X193287549Y-93060680D01*
X193265371Y-93071170D01*
X193242271Y-93079435D01*
X193218473Y-93085396D01*
X193194204Y-93088996D01*
X193169700Y-93090200D01*
X191919700Y-93090200D01*
X191895196Y-93088996D01*
X191870927Y-93085396D01*
X191847129Y-93079435D01*
X191824029Y-93071170D01*
X191801851Y-93060680D01*
X191780807Y-93048067D01*
X191761102Y-93033453D01*
X191742923Y-93016977D01*
X191726447Y-92998798D01*
X191711833Y-92979093D01*
X191699220Y-92958049D01*
X191688730Y-92935871D01*
X191680465Y-92912771D01*
X191674504Y-92888973D01*
X191670904Y-92864704D01*
X191669700Y-92840200D01*
X191669700Y-91915200D01*
X191670904Y-91890696D01*
X191674504Y-91866427D01*
X191680465Y-91842629D01*
X191688730Y-91819529D01*
X191699220Y-91797351D01*
X191711833Y-91776307D01*
X191726447Y-91756602D01*
X191742923Y-91738423D01*
X191761102Y-91721947D01*
X191780807Y-91707333D01*
X191801851Y-91694720D01*
X191824029Y-91684230D01*
X191847129Y-91675965D01*
X191870927Y-91670004D01*
X191895196Y-91666404D01*
X191919700Y-91665200D01*
X193169700Y-91665200D01*
X193194204Y-91666404D01*
X193194204Y-91666404D01*
G37*
D12*
X192544700Y-92377700D03*
D10*
G36*
X198147204Y-91666404D02*
G01*
X198171473Y-91670004D01*
X198195271Y-91675965D01*
X198218371Y-91684230D01*
X198240549Y-91694720D01*
X198261593Y-91707333D01*
X198281298Y-91721947D01*
X198299477Y-91738423D01*
X198315953Y-91756602D01*
X198330567Y-91776307D01*
X198343180Y-91797351D01*
X198353670Y-91819529D01*
X198361935Y-91842629D01*
X198367896Y-91866427D01*
X198371496Y-91890696D01*
X198372700Y-91915200D01*
X198372700Y-92840200D01*
X198371496Y-92864704D01*
X198367896Y-92888973D01*
X198361935Y-92912771D01*
X198353670Y-92935871D01*
X198343180Y-92958049D01*
X198330567Y-92979093D01*
X198315953Y-92998798D01*
X198299477Y-93016977D01*
X198281298Y-93033453D01*
X198261593Y-93048067D01*
X198240549Y-93060680D01*
X198218371Y-93071170D01*
X198195271Y-93079435D01*
X198171473Y-93085396D01*
X198147204Y-93088996D01*
X198122700Y-93090200D01*
X196872700Y-93090200D01*
X196848196Y-93088996D01*
X196823927Y-93085396D01*
X196800129Y-93079435D01*
X196777029Y-93071170D01*
X196754851Y-93060680D01*
X196733807Y-93048067D01*
X196714102Y-93033453D01*
X196695923Y-93016977D01*
X196679447Y-92998798D01*
X196664833Y-92979093D01*
X196652220Y-92958049D01*
X196641730Y-92935871D01*
X196633465Y-92912771D01*
X196627504Y-92888973D01*
X196623904Y-92864704D01*
X196622700Y-92840200D01*
X196622700Y-91915200D01*
X196623904Y-91890696D01*
X196627504Y-91866427D01*
X196633465Y-91842629D01*
X196641730Y-91819529D01*
X196652220Y-91797351D01*
X196664833Y-91776307D01*
X196679447Y-91756602D01*
X196695923Y-91738423D01*
X196714102Y-91721947D01*
X196733807Y-91707333D01*
X196754851Y-91694720D01*
X196777029Y-91684230D01*
X196800129Y-91675965D01*
X196823927Y-91670004D01*
X196848196Y-91666404D01*
X196872700Y-91665200D01*
X198122700Y-91665200D01*
X198147204Y-91666404D01*
X198147204Y-91666404D01*
G37*
D12*
X197497700Y-92377700D03*
D10*
G36*
X198147204Y-94641404D02*
G01*
X198171473Y-94645004D01*
X198195271Y-94650965D01*
X198218371Y-94659230D01*
X198240549Y-94669720D01*
X198261593Y-94682333D01*
X198281298Y-94696947D01*
X198299477Y-94713423D01*
X198315953Y-94731602D01*
X198330567Y-94751307D01*
X198343180Y-94772351D01*
X198353670Y-94794529D01*
X198361935Y-94817629D01*
X198367896Y-94841427D01*
X198371496Y-94865696D01*
X198372700Y-94890200D01*
X198372700Y-95815200D01*
X198371496Y-95839704D01*
X198367896Y-95863973D01*
X198361935Y-95887771D01*
X198353670Y-95910871D01*
X198343180Y-95933049D01*
X198330567Y-95954093D01*
X198315953Y-95973798D01*
X198299477Y-95991977D01*
X198281298Y-96008453D01*
X198261593Y-96023067D01*
X198240549Y-96035680D01*
X198218371Y-96046170D01*
X198195271Y-96054435D01*
X198171473Y-96060396D01*
X198147204Y-96063996D01*
X198122700Y-96065200D01*
X196872700Y-96065200D01*
X196848196Y-96063996D01*
X196823927Y-96060396D01*
X196800129Y-96054435D01*
X196777029Y-96046170D01*
X196754851Y-96035680D01*
X196733807Y-96023067D01*
X196714102Y-96008453D01*
X196695923Y-95991977D01*
X196679447Y-95973798D01*
X196664833Y-95954093D01*
X196652220Y-95933049D01*
X196641730Y-95910871D01*
X196633465Y-95887771D01*
X196627504Y-95863973D01*
X196623904Y-95839704D01*
X196622700Y-95815200D01*
X196622700Y-94890200D01*
X196623904Y-94865696D01*
X196627504Y-94841427D01*
X196633465Y-94817629D01*
X196641730Y-94794529D01*
X196652220Y-94772351D01*
X196664833Y-94751307D01*
X196679447Y-94731602D01*
X196695923Y-94713423D01*
X196714102Y-94696947D01*
X196733807Y-94682333D01*
X196754851Y-94669720D01*
X196777029Y-94659230D01*
X196800129Y-94650965D01*
X196823927Y-94645004D01*
X196848196Y-94641404D01*
X196872700Y-94640200D01*
X198122700Y-94640200D01*
X198147204Y-94641404D01*
X198147204Y-94641404D01*
G37*
D12*
X197497700Y-95352700D03*
D10*
G36*
X189371504Y-56883204D02*
G01*
X189395773Y-56886804D01*
X189419571Y-56892765D01*
X189442671Y-56901030D01*
X189464849Y-56911520D01*
X189485893Y-56924133D01*
X189505598Y-56938747D01*
X189523777Y-56955223D01*
X189540253Y-56973402D01*
X189554867Y-56993107D01*
X189567480Y-57014151D01*
X189577970Y-57036329D01*
X189586235Y-57059429D01*
X189592196Y-57083227D01*
X189595796Y-57107496D01*
X189597000Y-57132000D01*
X189597000Y-58057000D01*
X189595796Y-58081504D01*
X189592196Y-58105773D01*
X189586235Y-58129571D01*
X189577970Y-58152671D01*
X189567480Y-58174849D01*
X189554867Y-58195893D01*
X189540253Y-58215598D01*
X189523777Y-58233777D01*
X189505598Y-58250253D01*
X189485893Y-58264867D01*
X189464849Y-58277480D01*
X189442671Y-58287970D01*
X189419571Y-58296235D01*
X189395773Y-58302196D01*
X189371504Y-58305796D01*
X189347000Y-58307000D01*
X188097000Y-58307000D01*
X188072496Y-58305796D01*
X188048227Y-58302196D01*
X188024429Y-58296235D01*
X188001329Y-58287970D01*
X187979151Y-58277480D01*
X187958107Y-58264867D01*
X187938402Y-58250253D01*
X187920223Y-58233777D01*
X187903747Y-58215598D01*
X187889133Y-58195893D01*
X187876520Y-58174849D01*
X187866030Y-58152671D01*
X187857765Y-58129571D01*
X187851804Y-58105773D01*
X187848204Y-58081504D01*
X187847000Y-58057000D01*
X187847000Y-57132000D01*
X187848204Y-57107496D01*
X187851804Y-57083227D01*
X187857765Y-57059429D01*
X187866030Y-57036329D01*
X187876520Y-57014151D01*
X187889133Y-56993107D01*
X187903747Y-56973402D01*
X187920223Y-56955223D01*
X187938402Y-56938747D01*
X187958107Y-56924133D01*
X187979151Y-56911520D01*
X188001329Y-56901030D01*
X188024429Y-56892765D01*
X188048227Y-56886804D01*
X188072496Y-56883204D01*
X188097000Y-56882000D01*
X189347000Y-56882000D01*
X189371504Y-56883204D01*
X189371504Y-56883204D01*
G37*
D12*
X188722000Y-57594500D03*
D10*
G36*
X189371504Y-59858204D02*
G01*
X189395773Y-59861804D01*
X189419571Y-59867765D01*
X189442671Y-59876030D01*
X189464849Y-59886520D01*
X189485893Y-59899133D01*
X189505598Y-59913747D01*
X189523777Y-59930223D01*
X189540253Y-59948402D01*
X189554867Y-59968107D01*
X189567480Y-59989151D01*
X189577970Y-60011329D01*
X189586235Y-60034429D01*
X189592196Y-60058227D01*
X189595796Y-60082496D01*
X189597000Y-60107000D01*
X189597000Y-61032000D01*
X189595796Y-61056504D01*
X189592196Y-61080773D01*
X189586235Y-61104571D01*
X189577970Y-61127671D01*
X189567480Y-61149849D01*
X189554867Y-61170893D01*
X189540253Y-61190598D01*
X189523777Y-61208777D01*
X189505598Y-61225253D01*
X189485893Y-61239867D01*
X189464849Y-61252480D01*
X189442671Y-61262970D01*
X189419571Y-61271235D01*
X189395773Y-61277196D01*
X189371504Y-61280796D01*
X189347000Y-61282000D01*
X188097000Y-61282000D01*
X188072496Y-61280796D01*
X188048227Y-61277196D01*
X188024429Y-61271235D01*
X188001329Y-61262970D01*
X187979151Y-61252480D01*
X187958107Y-61239867D01*
X187938402Y-61225253D01*
X187920223Y-61208777D01*
X187903747Y-61190598D01*
X187889133Y-61170893D01*
X187876520Y-61149849D01*
X187866030Y-61127671D01*
X187857765Y-61104571D01*
X187851804Y-61080773D01*
X187848204Y-61056504D01*
X187847000Y-61032000D01*
X187847000Y-60107000D01*
X187848204Y-60082496D01*
X187851804Y-60058227D01*
X187857765Y-60034429D01*
X187866030Y-60011329D01*
X187876520Y-59989151D01*
X187889133Y-59968107D01*
X187903747Y-59948402D01*
X187920223Y-59930223D01*
X187938402Y-59913747D01*
X187958107Y-59899133D01*
X187979151Y-59886520D01*
X188001329Y-59876030D01*
X188024429Y-59867765D01*
X188048227Y-59861804D01*
X188072496Y-59858204D01*
X188097000Y-59857000D01*
X189347000Y-59857000D01*
X189371504Y-59858204D01*
X189371504Y-59858204D01*
G37*
D12*
X188722000Y-60569500D03*
D10*
G36*
X203239904Y-91666404D02*
G01*
X203264173Y-91670004D01*
X203287971Y-91675965D01*
X203311071Y-91684230D01*
X203333249Y-91694720D01*
X203354293Y-91707333D01*
X203373998Y-91721947D01*
X203392177Y-91738423D01*
X203408653Y-91756602D01*
X203423267Y-91776307D01*
X203435880Y-91797351D01*
X203446370Y-91819529D01*
X203454635Y-91842629D01*
X203460596Y-91866427D01*
X203464196Y-91890696D01*
X203465400Y-91915200D01*
X203465400Y-92840200D01*
X203464196Y-92864704D01*
X203460596Y-92888973D01*
X203454635Y-92912771D01*
X203446370Y-92935871D01*
X203435880Y-92958049D01*
X203423267Y-92979093D01*
X203408653Y-92998798D01*
X203392177Y-93016977D01*
X203373998Y-93033453D01*
X203354293Y-93048067D01*
X203333249Y-93060680D01*
X203311071Y-93071170D01*
X203287971Y-93079435D01*
X203264173Y-93085396D01*
X203239904Y-93088996D01*
X203215400Y-93090200D01*
X201965400Y-93090200D01*
X201940896Y-93088996D01*
X201916627Y-93085396D01*
X201892829Y-93079435D01*
X201869729Y-93071170D01*
X201847551Y-93060680D01*
X201826507Y-93048067D01*
X201806802Y-93033453D01*
X201788623Y-93016977D01*
X201772147Y-92998798D01*
X201757533Y-92979093D01*
X201744920Y-92958049D01*
X201734430Y-92935871D01*
X201726165Y-92912771D01*
X201720204Y-92888973D01*
X201716604Y-92864704D01*
X201715400Y-92840200D01*
X201715400Y-91915200D01*
X201716604Y-91890696D01*
X201720204Y-91866427D01*
X201726165Y-91842629D01*
X201734430Y-91819529D01*
X201744920Y-91797351D01*
X201757533Y-91776307D01*
X201772147Y-91756602D01*
X201788623Y-91738423D01*
X201806802Y-91721947D01*
X201826507Y-91707333D01*
X201847551Y-91694720D01*
X201869729Y-91684230D01*
X201892829Y-91675965D01*
X201916627Y-91670004D01*
X201940896Y-91666404D01*
X201965400Y-91665200D01*
X203215400Y-91665200D01*
X203239904Y-91666404D01*
X203239904Y-91666404D01*
G37*
D12*
X202590400Y-92377700D03*
D10*
G36*
X203239904Y-94641404D02*
G01*
X203264173Y-94645004D01*
X203287971Y-94650965D01*
X203311071Y-94659230D01*
X203333249Y-94669720D01*
X203354293Y-94682333D01*
X203373998Y-94696947D01*
X203392177Y-94713423D01*
X203408653Y-94731602D01*
X203423267Y-94751307D01*
X203435880Y-94772351D01*
X203446370Y-94794529D01*
X203454635Y-94817629D01*
X203460596Y-94841427D01*
X203464196Y-94865696D01*
X203465400Y-94890200D01*
X203465400Y-95815200D01*
X203464196Y-95839704D01*
X203460596Y-95863973D01*
X203454635Y-95887771D01*
X203446370Y-95910871D01*
X203435880Y-95933049D01*
X203423267Y-95954093D01*
X203408653Y-95973798D01*
X203392177Y-95991977D01*
X203373998Y-96008453D01*
X203354293Y-96023067D01*
X203333249Y-96035680D01*
X203311071Y-96046170D01*
X203287971Y-96054435D01*
X203264173Y-96060396D01*
X203239904Y-96063996D01*
X203215400Y-96065200D01*
X201965400Y-96065200D01*
X201940896Y-96063996D01*
X201916627Y-96060396D01*
X201892829Y-96054435D01*
X201869729Y-96046170D01*
X201847551Y-96035680D01*
X201826507Y-96023067D01*
X201806802Y-96008453D01*
X201788623Y-95991977D01*
X201772147Y-95973798D01*
X201757533Y-95954093D01*
X201744920Y-95933049D01*
X201734430Y-95910871D01*
X201726165Y-95887771D01*
X201720204Y-95863973D01*
X201716604Y-95839704D01*
X201715400Y-95815200D01*
X201715400Y-94890200D01*
X201716604Y-94865696D01*
X201720204Y-94841427D01*
X201726165Y-94817629D01*
X201734430Y-94794529D01*
X201744920Y-94772351D01*
X201757533Y-94751307D01*
X201772147Y-94731602D01*
X201788623Y-94713423D01*
X201806802Y-94696947D01*
X201826507Y-94682333D01*
X201847551Y-94669720D01*
X201869729Y-94659230D01*
X201892829Y-94650965D01*
X201916627Y-94645004D01*
X201940896Y-94641404D01*
X201965400Y-94640200D01*
X203215400Y-94640200D01*
X203239904Y-94641404D01*
X203239904Y-94641404D01*
G37*
D12*
X202590400Y-95352700D03*
D10*
G36*
X112761958Y-87480710D02*
G01*
X112776276Y-87482834D01*
X112790317Y-87486351D01*
X112803946Y-87491228D01*
X112817031Y-87497417D01*
X112829447Y-87504858D01*
X112841073Y-87513481D01*
X112851798Y-87523202D01*
X112861519Y-87533927D01*
X112870142Y-87545553D01*
X112877583Y-87557969D01*
X112883772Y-87571054D01*
X112888649Y-87584683D01*
X112892166Y-87598724D01*
X112894290Y-87613042D01*
X112895000Y-87627500D01*
X112895000Y-87972500D01*
X112894290Y-87986958D01*
X112892166Y-88001276D01*
X112888649Y-88015317D01*
X112883772Y-88028946D01*
X112877583Y-88042031D01*
X112870142Y-88054447D01*
X112861519Y-88066073D01*
X112851798Y-88076798D01*
X112841073Y-88086519D01*
X112829447Y-88095142D01*
X112817031Y-88102583D01*
X112803946Y-88108772D01*
X112790317Y-88113649D01*
X112776276Y-88117166D01*
X112761958Y-88119290D01*
X112747500Y-88120000D01*
X112452500Y-88120000D01*
X112438042Y-88119290D01*
X112423724Y-88117166D01*
X112409683Y-88113649D01*
X112396054Y-88108772D01*
X112382969Y-88102583D01*
X112370553Y-88095142D01*
X112358927Y-88086519D01*
X112348202Y-88076798D01*
X112338481Y-88066073D01*
X112329858Y-88054447D01*
X112322417Y-88042031D01*
X112316228Y-88028946D01*
X112311351Y-88015317D01*
X112307834Y-88001276D01*
X112305710Y-87986958D01*
X112305000Y-87972500D01*
X112305000Y-87627500D01*
X112305710Y-87613042D01*
X112307834Y-87598724D01*
X112311351Y-87584683D01*
X112316228Y-87571054D01*
X112322417Y-87557969D01*
X112329858Y-87545553D01*
X112338481Y-87533927D01*
X112348202Y-87523202D01*
X112358927Y-87513481D01*
X112370553Y-87504858D01*
X112382969Y-87497417D01*
X112396054Y-87491228D01*
X112409683Y-87486351D01*
X112423724Y-87482834D01*
X112438042Y-87480710D01*
X112452500Y-87480000D01*
X112747500Y-87480000D01*
X112761958Y-87480710D01*
X112761958Y-87480710D01*
G37*
D22*
X112600000Y-87800000D03*
D10*
G36*
X113731958Y-87480710D02*
G01*
X113746276Y-87482834D01*
X113760317Y-87486351D01*
X113773946Y-87491228D01*
X113787031Y-87497417D01*
X113799447Y-87504858D01*
X113811073Y-87513481D01*
X113821798Y-87523202D01*
X113831519Y-87533927D01*
X113840142Y-87545553D01*
X113847583Y-87557969D01*
X113853772Y-87571054D01*
X113858649Y-87584683D01*
X113862166Y-87598724D01*
X113864290Y-87613042D01*
X113865000Y-87627500D01*
X113865000Y-87972500D01*
X113864290Y-87986958D01*
X113862166Y-88001276D01*
X113858649Y-88015317D01*
X113853772Y-88028946D01*
X113847583Y-88042031D01*
X113840142Y-88054447D01*
X113831519Y-88066073D01*
X113821798Y-88076798D01*
X113811073Y-88086519D01*
X113799447Y-88095142D01*
X113787031Y-88102583D01*
X113773946Y-88108772D01*
X113760317Y-88113649D01*
X113746276Y-88117166D01*
X113731958Y-88119290D01*
X113717500Y-88120000D01*
X113422500Y-88120000D01*
X113408042Y-88119290D01*
X113393724Y-88117166D01*
X113379683Y-88113649D01*
X113366054Y-88108772D01*
X113352969Y-88102583D01*
X113340553Y-88095142D01*
X113328927Y-88086519D01*
X113318202Y-88076798D01*
X113308481Y-88066073D01*
X113299858Y-88054447D01*
X113292417Y-88042031D01*
X113286228Y-88028946D01*
X113281351Y-88015317D01*
X113277834Y-88001276D01*
X113275710Y-87986958D01*
X113275000Y-87972500D01*
X113275000Y-87627500D01*
X113275710Y-87613042D01*
X113277834Y-87598724D01*
X113281351Y-87584683D01*
X113286228Y-87571054D01*
X113292417Y-87557969D01*
X113299858Y-87545553D01*
X113308481Y-87533927D01*
X113318202Y-87523202D01*
X113328927Y-87513481D01*
X113340553Y-87504858D01*
X113352969Y-87497417D01*
X113366054Y-87491228D01*
X113379683Y-87486351D01*
X113393724Y-87482834D01*
X113408042Y-87480710D01*
X113422500Y-87480000D01*
X113717500Y-87480000D01*
X113731958Y-87480710D01*
X113731958Y-87480710D01*
G37*
D22*
X113570000Y-87800000D03*
D10*
G36*
X178123932Y-103987850D02*
G01*
X178137037Y-103989794D01*
X178149888Y-103993013D01*
X178162362Y-103997476D01*
X178174339Y-104003141D01*
X178185702Y-104009952D01*
X178196343Y-104017844D01*
X178206159Y-104026741D01*
X178215056Y-104036557D01*
X178222948Y-104047198D01*
X178229759Y-104058561D01*
X178235424Y-104070538D01*
X178239887Y-104083012D01*
X178243106Y-104095863D01*
X178245050Y-104108968D01*
X178245700Y-104122200D01*
X178245700Y-104392200D01*
X178245050Y-104405432D01*
X178243106Y-104418537D01*
X178239887Y-104431388D01*
X178235424Y-104443862D01*
X178229759Y-104455839D01*
X178222948Y-104467202D01*
X178215056Y-104477843D01*
X178206159Y-104487659D01*
X178196343Y-104496556D01*
X178185702Y-104504448D01*
X178174339Y-104511259D01*
X178162362Y-104516924D01*
X178149888Y-104521387D01*
X178137037Y-104524606D01*
X178123932Y-104526550D01*
X178110700Y-104527200D01*
X177710700Y-104527200D01*
X177697468Y-104526550D01*
X177684363Y-104524606D01*
X177671512Y-104521387D01*
X177659038Y-104516924D01*
X177647061Y-104511259D01*
X177635698Y-104504448D01*
X177625057Y-104496556D01*
X177615241Y-104487659D01*
X177606344Y-104477843D01*
X177598452Y-104467202D01*
X177591641Y-104455839D01*
X177585976Y-104443862D01*
X177581513Y-104431388D01*
X177578294Y-104418537D01*
X177576350Y-104405432D01*
X177575700Y-104392200D01*
X177575700Y-104122200D01*
X177576350Y-104108968D01*
X177578294Y-104095863D01*
X177581513Y-104083012D01*
X177585976Y-104070538D01*
X177591641Y-104058561D01*
X177598452Y-104047198D01*
X177606344Y-104036557D01*
X177615241Y-104026741D01*
X177625057Y-104017844D01*
X177635698Y-104009952D01*
X177647061Y-104003141D01*
X177659038Y-103997476D01*
X177671512Y-103993013D01*
X177684363Y-103989794D01*
X177697468Y-103987850D01*
X177710700Y-103987200D01*
X178110700Y-103987200D01*
X178123932Y-103987850D01*
X178123932Y-103987850D01*
G37*
D23*
X177910700Y-104257200D03*
D10*
G36*
X178123932Y-104667850D02*
G01*
X178137037Y-104669794D01*
X178149888Y-104673013D01*
X178162362Y-104677476D01*
X178174339Y-104683141D01*
X178185702Y-104689952D01*
X178196343Y-104697844D01*
X178206159Y-104706741D01*
X178215056Y-104716557D01*
X178222948Y-104727198D01*
X178229759Y-104738561D01*
X178235424Y-104750538D01*
X178239887Y-104763012D01*
X178243106Y-104775863D01*
X178245050Y-104788968D01*
X178245700Y-104802200D01*
X178245700Y-105072200D01*
X178245050Y-105085432D01*
X178243106Y-105098537D01*
X178239887Y-105111388D01*
X178235424Y-105123862D01*
X178229759Y-105135839D01*
X178222948Y-105147202D01*
X178215056Y-105157843D01*
X178206159Y-105167659D01*
X178196343Y-105176556D01*
X178185702Y-105184448D01*
X178174339Y-105191259D01*
X178162362Y-105196924D01*
X178149888Y-105201387D01*
X178137037Y-105204606D01*
X178123932Y-105206550D01*
X178110700Y-105207200D01*
X177710700Y-105207200D01*
X177697468Y-105206550D01*
X177684363Y-105204606D01*
X177671512Y-105201387D01*
X177659038Y-105196924D01*
X177647061Y-105191259D01*
X177635698Y-105184448D01*
X177625057Y-105176556D01*
X177615241Y-105167659D01*
X177606344Y-105157843D01*
X177598452Y-105147202D01*
X177591641Y-105135839D01*
X177585976Y-105123862D01*
X177581513Y-105111388D01*
X177578294Y-105098537D01*
X177576350Y-105085432D01*
X177575700Y-105072200D01*
X177575700Y-104802200D01*
X177576350Y-104788968D01*
X177578294Y-104775863D01*
X177581513Y-104763012D01*
X177585976Y-104750538D01*
X177591641Y-104738561D01*
X177598452Y-104727198D01*
X177606344Y-104716557D01*
X177615241Y-104706741D01*
X177625057Y-104697844D01*
X177635698Y-104689952D01*
X177647061Y-104683141D01*
X177659038Y-104677476D01*
X177671512Y-104673013D01*
X177684363Y-104669794D01*
X177697468Y-104667850D01*
X177710700Y-104667200D01*
X178110700Y-104667200D01*
X178123932Y-104667850D01*
X178123932Y-104667850D01*
G37*
D23*
X177910700Y-104937200D03*
D10*
G36*
X178943932Y-103987850D02*
G01*
X178957037Y-103989794D01*
X178969888Y-103993013D01*
X178982362Y-103997476D01*
X178994339Y-104003141D01*
X179005702Y-104009952D01*
X179016343Y-104017844D01*
X179026159Y-104026741D01*
X179035056Y-104036557D01*
X179042948Y-104047198D01*
X179049759Y-104058561D01*
X179055424Y-104070538D01*
X179059887Y-104083012D01*
X179063106Y-104095863D01*
X179065050Y-104108968D01*
X179065700Y-104122200D01*
X179065700Y-104392200D01*
X179065050Y-104405432D01*
X179063106Y-104418537D01*
X179059887Y-104431388D01*
X179055424Y-104443862D01*
X179049759Y-104455839D01*
X179042948Y-104467202D01*
X179035056Y-104477843D01*
X179026159Y-104487659D01*
X179016343Y-104496556D01*
X179005702Y-104504448D01*
X178994339Y-104511259D01*
X178982362Y-104516924D01*
X178969888Y-104521387D01*
X178957037Y-104524606D01*
X178943932Y-104526550D01*
X178930700Y-104527200D01*
X178530700Y-104527200D01*
X178517468Y-104526550D01*
X178504363Y-104524606D01*
X178491512Y-104521387D01*
X178479038Y-104516924D01*
X178467061Y-104511259D01*
X178455698Y-104504448D01*
X178445057Y-104496556D01*
X178435241Y-104487659D01*
X178426344Y-104477843D01*
X178418452Y-104467202D01*
X178411641Y-104455839D01*
X178405976Y-104443862D01*
X178401513Y-104431388D01*
X178398294Y-104418537D01*
X178396350Y-104405432D01*
X178395700Y-104392200D01*
X178395700Y-104122200D01*
X178396350Y-104108968D01*
X178398294Y-104095863D01*
X178401513Y-104083012D01*
X178405976Y-104070538D01*
X178411641Y-104058561D01*
X178418452Y-104047198D01*
X178426344Y-104036557D01*
X178435241Y-104026741D01*
X178445057Y-104017844D01*
X178455698Y-104009952D01*
X178467061Y-104003141D01*
X178479038Y-103997476D01*
X178491512Y-103993013D01*
X178504363Y-103989794D01*
X178517468Y-103987850D01*
X178530700Y-103987200D01*
X178930700Y-103987200D01*
X178943932Y-103987850D01*
X178943932Y-103987850D01*
G37*
D23*
X178730700Y-104257200D03*
D10*
G36*
X178943932Y-104667850D02*
G01*
X178957037Y-104669794D01*
X178969888Y-104673013D01*
X178982362Y-104677476D01*
X178994339Y-104683141D01*
X179005702Y-104689952D01*
X179016343Y-104697844D01*
X179026159Y-104706741D01*
X179035056Y-104716557D01*
X179042948Y-104727198D01*
X179049759Y-104738561D01*
X179055424Y-104750538D01*
X179059887Y-104763012D01*
X179063106Y-104775863D01*
X179065050Y-104788968D01*
X179065700Y-104802200D01*
X179065700Y-105072200D01*
X179065050Y-105085432D01*
X179063106Y-105098537D01*
X179059887Y-105111388D01*
X179055424Y-105123862D01*
X179049759Y-105135839D01*
X179042948Y-105147202D01*
X179035056Y-105157843D01*
X179026159Y-105167659D01*
X179016343Y-105176556D01*
X179005702Y-105184448D01*
X178994339Y-105191259D01*
X178982362Y-105196924D01*
X178969888Y-105201387D01*
X178957037Y-105204606D01*
X178943932Y-105206550D01*
X178930700Y-105207200D01*
X178530700Y-105207200D01*
X178517468Y-105206550D01*
X178504363Y-105204606D01*
X178491512Y-105201387D01*
X178479038Y-105196924D01*
X178467061Y-105191259D01*
X178455698Y-105184448D01*
X178445057Y-105176556D01*
X178435241Y-105167659D01*
X178426344Y-105157843D01*
X178418452Y-105147202D01*
X178411641Y-105135839D01*
X178405976Y-105123862D01*
X178401513Y-105111388D01*
X178398294Y-105098537D01*
X178396350Y-105085432D01*
X178395700Y-105072200D01*
X178395700Y-104802200D01*
X178396350Y-104788968D01*
X178398294Y-104775863D01*
X178401513Y-104763012D01*
X178405976Y-104750538D01*
X178411641Y-104738561D01*
X178418452Y-104727198D01*
X178426344Y-104716557D01*
X178435241Y-104706741D01*
X178445057Y-104697844D01*
X178455698Y-104689952D01*
X178467061Y-104683141D01*
X178479038Y-104677476D01*
X178491512Y-104673013D01*
X178504363Y-104669794D01*
X178517468Y-104667850D01*
X178530700Y-104667200D01*
X178930700Y-104667200D01*
X178943932Y-104667850D01*
X178943932Y-104667850D01*
G37*
D23*
X178730700Y-104937200D03*
D10*
G36*
X177239326Y-103972501D02*
G01*
X177245393Y-103973401D01*
X177251343Y-103974891D01*
X177257118Y-103976958D01*
X177262662Y-103979580D01*
X177267923Y-103982733D01*
X177272850Y-103986387D01*
X177277394Y-103990506D01*
X177281513Y-103995050D01*
X177285167Y-103999977D01*
X177288320Y-104005238D01*
X177290942Y-104010782D01*
X177293009Y-104016557D01*
X177294499Y-104022507D01*
X177295399Y-104028574D01*
X177295700Y-104034700D01*
X177295700Y-104159700D01*
X177295399Y-104165826D01*
X177294499Y-104171893D01*
X177293009Y-104177843D01*
X177290942Y-104183618D01*
X177288320Y-104189162D01*
X177285167Y-104194423D01*
X177281513Y-104199350D01*
X177277394Y-104203894D01*
X177272850Y-104208013D01*
X177267923Y-104211667D01*
X177262662Y-104214820D01*
X177257118Y-104217442D01*
X177251343Y-104219509D01*
X177245393Y-104220999D01*
X177239326Y-104221899D01*
X177233200Y-104222200D01*
X176533200Y-104222200D01*
X176527074Y-104221899D01*
X176521007Y-104220999D01*
X176515057Y-104219509D01*
X176509282Y-104217442D01*
X176503738Y-104214820D01*
X176498477Y-104211667D01*
X176493550Y-104208013D01*
X176489006Y-104203894D01*
X176484887Y-104199350D01*
X176481233Y-104194423D01*
X176478080Y-104189162D01*
X176475458Y-104183618D01*
X176473391Y-104177843D01*
X176471901Y-104171893D01*
X176471001Y-104165826D01*
X176470700Y-104159700D01*
X176470700Y-104034700D01*
X176471001Y-104028574D01*
X176471901Y-104022507D01*
X176473391Y-104016557D01*
X176475458Y-104010782D01*
X176478080Y-104005238D01*
X176481233Y-103999977D01*
X176484887Y-103995050D01*
X176489006Y-103990506D01*
X176493550Y-103986387D01*
X176498477Y-103982733D01*
X176503738Y-103979580D01*
X176509282Y-103976958D01*
X176515057Y-103974891D01*
X176521007Y-103973401D01*
X176527074Y-103972501D01*
X176533200Y-103972200D01*
X177233200Y-103972200D01*
X177239326Y-103972501D01*
X177239326Y-103972501D01*
G37*
D24*
X176883200Y-104097200D03*
D10*
G36*
X177239326Y-104472501D02*
G01*
X177245393Y-104473401D01*
X177251343Y-104474891D01*
X177257118Y-104476958D01*
X177262662Y-104479580D01*
X177267923Y-104482733D01*
X177272850Y-104486387D01*
X177277394Y-104490506D01*
X177281513Y-104495050D01*
X177285167Y-104499977D01*
X177288320Y-104505238D01*
X177290942Y-104510782D01*
X177293009Y-104516557D01*
X177294499Y-104522507D01*
X177295399Y-104528574D01*
X177295700Y-104534700D01*
X177295700Y-104659700D01*
X177295399Y-104665826D01*
X177294499Y-104671893D01*
X177293009Y-104677843D01*
X177290942Y-104683618D01*
X177288320Y-104689162D01*
X177285167Y-104694423D01*
X177281513Y-104699350D01*
X177277394Y-104703894D01*
X177272850Y-104708013D01*
X177267923Y-104711667D01*
X177262662Y-104714820D01*
X177257118Y-104717442D01*
X177251343Y-104719509D01*
X177245393Y-104720999D01*
X177239326Y-104721899D01*
X177233200Y-104722200D01*
X176533200Y-104722200D01*
X176527074Y-104721899D01*
X176521007Y-104720999D01*
X176515057Y-104719509D01*
X176509282Y-104717442D01*
X176503738Y-104714820D01*
X176498477Y-104711667D01*
X176493550Y-104708013D01*
X176489006Y-104703894D01*
X176484887Y-104699350D01*
X176481233Y-104694423D01*
X176478080Y-104689162D01*
X176475458Y-104683618D01*
X176473391Y-104677843D01*
X176471901Y-104671893D01*
X176471001Y-104665826D01*
X176470700Y-104659700D01*
X176470700Y-104534700D01*
X176471001Y-104528574D01*
X176471901Y-104522507D01*
X176473391Y-104516557D01*
X176475458Y-104510782D01*
X176478080Y-104505238D01*
X176481233Y-104499977D01*
X176484887Y-104495050D01*
X176489006Y-104490506D01*
X176493550Y-104486387D01*
X176498477Y-104482733D01*
X176503738Y-104479580D01*
X176509282Y-104476958D01*
X176515057Y-104474891D01*
X176521007Y-104473401D01*
X176527074Y-104472501D01*
X176533200Y-104472200D01*
X177233200Y-104472200D01*
X177239326Y-104472501D01*
X177239326Y-104472501D01*
G37*
D24*
X176883200Y-104597200D03*
D10*
G36*
X177239326Y-104972501D02*
G01*
X177245393Y-104973401D01*
X177251343Y-104974891D01*
X177257118Y-104976958D01*
X177262662Y-104979580D01*
X177267923Y-104982733D01*
X177272850Y-104986387D01*
X177277394Y-104990506D01*
X177281513Y-104995050D01*
X177285167Y-104999977D01*
X177288320Y-105005238D01*
X177290942Y-105010782D01*
X177293009Y-105016557D01*
X177294499Y-105022507D01*
X177295399Y-105028574D01*
X177295700Y-105034700D01*
X177295700Y-105159700D01*
X177295399Y-105165826D01*
X177294499Y-105171893D01*
X177293009Y-105177843D01*
X177290942Y-105183618D01*
X177288320Y-105189162D01*
X177285167Y-105194423D01*
X177281513Y-105199350D01*
X177277394Y-105203894D01*
X177272850Y-105208013D01*
X177267923Y-105211667D01*
X177262662Y-105214820D01*
X177257118Y-105217442D01*
X177251343Y-105219509D01*
X177245393Y-105220999D01*
X177239326Y-105221899D01*
X177233200Y-105222200D01*
X176533200Y-105222200D01*
X176527074Y-105221899D01*
X176521007Y-105220999D01*
X176515057Y-105219509D01*
X176509282Y-105217442D01*
X176503738Y-105214820D01*
X176498477Y-105211667D01*
X176493550Y-105208013D01*
X176489006Y-105203894D01*
X176484887Y-105199350D01*
X176481233Y-105194423D01*
X176478080Y-105189162D01*
X176475458Y-105183618D01*
X176473391Y-105177843D01*
X176471901Y-105171893D01*
X176471001Y-105165826D01*
X176470700Y-105159700D01*
X176470700Y-105034700D01*
X176471001Y-105028574D01*
X176471901Y-105022507D01*
X176473391Y-105016557D01*
X176475458Y-105010782D01*
X176478080Y-105005238D01*
X176481233Y-104999977D01*
X176484887Y-104995050D01*
X176489006Y-104990506D01*
X176493550Y-104986387D01*
X176498477Y-104982733D01*
X176503738Y-104979580D01*
X176509282Y-104976958D01*
X176515057Y-104974891D01*
X176521007Y-104973401D01*
X176527074Y-104972501D01*
X176533200Y-104972200D01*
X177233200Y-104972200D01*
X177239326Y-104972501D01*
X177239326Y-104972501D01*
G37*
D24*
X176883200Y-105097200D03*
D10*
G36*
X180114326Y-104972501D02*
G01*
X180120393Y-104973401D01*
X180126343Y-104974891D01*
X180132118Y-104976958D01*
X180137662Y-104979580D01*
X180142923Y-104982733D01*
X180147850Y-104986387D01*
X180152394Y-104990506D01*
X180156513Y-104995050D01*
X180160167Y-104999977D01*
X180163320Y-105005238D01*
X180165942Y-105010782D01*
X180168009Y-105016557D01*
X180169499Y-105022507D01*
X180170399Y-105028574D01*
X180170700Y-105034700D01*
X180170700Y-105159700D01*
X180170399Y-105165826D01*
X180169499Y-105171893D01*
X180168009Y-105177843D01*
X180165942Y-105183618D01*
X180163320Y-105189162D01*
X180160167Y-105194423D01*
X180156513Y-105199350D01*
X180152394Y-105203894D01*
X180147850Y-105208013D01*
X180142923Y-105211667D01*
X180137662Y-105214820D01*
X180132118Y-105217442D01*
X180126343Y-105219509D01*
X180120393Y-105220999D01*
X180114326Y-105221899D01*
X180108200Y-105222200D01*
X179408200Y-105222200D01*
X179402074Y-105221899D01*
X179396007Y-105220999D01*
X179390057Y-105219509D01*
X179384282Y-105217442D01*
X179378738Y-105214820D01*
X179373477Y-105211667D01*
X179368550Y-105208013D01*
X179364006Y-105203894D01*
X179359887Y-105199350D01*
X179356233Y-105194423D01*
X179353080Y-105189162D01*
X179350458Y-105183618D01*
X179348391Y-105177843D01*
X179346901Y-105171893D01*
X179346001Y-105165826D01*
X179345700Y-105159700D01*
X179345700Y-105034700D01*
X179346001Y-105028574D01*
X179346901Y-105022507D01*
X179348391Y-105016557D01*
X179350458Y-105010782D01*
X179353080Y-105005238D01*
X179356233Y-104999977D01*
X179359887Y-104995050D01*
X179364006Y-104990506D01*
X179368550Y-104986387D01*
X179373477Y-104982733D01*
X179378738Y-104979580D01*
X179384282Y-104976958D01*
X179390057Y-104974891D01*
X179396007Y-104973401D01*
X179402074Y-104972501D01*
X179408200Y-104972200D01*
X180108200Y-104972200D01*
X180114326Y-104972501D01*
X180114326Y-104972501D01*
G37*
D24*
X179758200Y-105097200D03*
D10*
G36*
X180114326Y-104472501D02*
G01*
X180120393Y-104473401D01*
X180126343Y-104474891D01*
X180132118Y-104476958D01*
X180137662Y-104479580D01*
X180142923Y-104482733D01*
X180147850Y-104486387D01*
X180152394Y-104490506D01*
X180156513Y-104495050D01*
X180160167Y-104499977D01*
X180163320Y-104505238D01*
X180165942Y-104510782D01*
X180168009Y-104516557D01*
X180169499Y-104522507D01*
X180170399Y-104528574D01*
X180170700Y-104534700D01*
X180170700Y-104659700D01*
X180170399Y-104665826D01*
X180169499Y-104671893D01*
X180168009Y-104677843D01*
X180165942Y-104683618D01*
X180163320Y-104689162D01*
X180160167Y-104694423D01*
X180156513Y-104699350D01*
X180152394Y-104703894D01*
X180147850Y-104708013D01*
X180142923Y-104711667D01*
X180137662Y-104714820D01*
X180132118Y-104717442D01*
X180126343Y-104719509D01*
X180120393Y-104720999D01*
X180114326Y-104721899D01*
X180108200Y-104722200D01*
X179408200Y-104722200D01*
X179402074Y-104721899D01*
X179396007Y-104720999D01*
X179390057Y-104719509D01*
X179384282Y-104717442D01*
X179378738Y-104714820D01*
X179373477Y-104711667D01*
X179368550Y-104708013D01*
X179364006Y-104703894D01*
X179359887Y-104699350D01*
X179356233Y-104694423D01*
X179353080Y-104689162D01*
X179350458Y-104683618D01*
X179348391Y-104677843D01*
X179346901Y-104671893D01*
X179346001Y-104665826D01*
X179345700Y-104659700D01*
X179345700Y-104534700D01*
X179346001Y-104528574D01*
X179346901Y-104522507D01*
X179348391Y-104516557D01*
X179350458Y-104510782D01*
X179353080Y-104505238D01*
X179356233Y-104499977D01*
X179359887Y-104495050D01*
X179364006Y-104490506D01*
X179368550Y-104486387D01*
X179373477Y-104482733D01*
X179378738Y-104479580D01*
X179384282Y-104476958D01*
X179390057Y-104474891D01*
X179396007Y-104473401D01*
X179402074Y-104472501D01*
X179408200Y-104472200D01*
X180108200Y-104472200D01*
X180114326Y-104472501D01*
X180114326Y-104472501D01*
G37*
D24*
X179758200Y-104597200D03*
D10*
G36*
X180114326Y-103972501D02*
G01*
X180120393Y-103973401D01*
X180126343Y-103974891D01*
X180132118Y-103976958D01*
X180137662Y-103979580D01*
X180142923Y-103982733D01*
X180147850Y-103986387D01*
X180152394Y-103990506D01*
X180156513Y-103995050D01*
X180160167Y-103999977D01*
X180163320Y-104005238D01*
X180165942Y-104010782D01*
X180168009Y-104016557D01*
X180169499Y-104022507D01*
X180170399Y-104028574D01*
X180170700Y-104034700D01*
X180170700Y-104159700D01*
X180170399Y-104165826D01*
X180169499Y-104171893D01*
X180168009Y-104177843D01*
X180165942Y-104183618D01*
X180163320Y-104189162D01*
X180160167Y-104194423D01*
X180156513Y-104199350D01*
X180152394Y-104203894D01*
X180147850Y-104208013D01*
X180142923Y-104211667D01*
X180137662Y-104214820D01*
X180132118Y-104217442D01*
X180126343Y-104219509D01*
X180120393Y-104220999D01*
X180114326Y-104221899D01*
X180108200Y-104222200D01*
X179408200Y-104222200D01*
X179402074Y-104221899D01*
X179396007Y-104220999D01*
X179390057Y-104219509D01*
X179384282Y-104217442D01*
X179378738Y-104214820D01*
X179373477Y-104211667D01*
X179368550Y-104208013D01*
X179364006Y-104203894D01*
X179359887Y-104199350D01*
X179356233Y-104194423D01*
X179353080Y-104189162D01*
X179350458Y-104183618D01*
X179348391Y-104177843D01*
X179346901Y-104171893D01*
X179346001Y-104165826D01*
X179345700Y-104159700D01*
X179345700Y-104034700D01*
X179346001Y-104028574D01*
X179346901Y-104022507D01*
X179348391Y-104016557D01*
X179350458Y-104010782D01*
X179353080Y-104005238D01*
X179356233Y-103999977D01*
X179359887Y-103995050D01*
X179364006Y-103990506D01*
X179368550Y-103986387D01*
X179373477Y-103982733D01*
X179378738Y-103979580D01*
X179384282Y-103976958D01*
X179390057Y-103974891D01*
X179396007Y-103973401D01*
X179402074Y-103972501D01*
X179408200Y-103972200D01*
X180108200Y-103972200D01*
X180114326Y-103972501D01*
X180114326Y-103972501D01*
G37*
D24*
X179758200Y-104097200D03*
D10*
G36*
X178714403Y-53180422D02*
G01*
X178728964Y-53182582D01*
X178743243Y-53186159D01*
X178757103Y-53191118D01*
X178770410Y-53197412D01*
X178783036Y-53204980D01*
X178794859Y-53213748D01*
X178805766Y-53223634D01*
X178815652Y-53234541D01*
X178824420Y-53246364D01*
X178831988Y-53258990D01*
X178838282Y-53272297D01*
X178843241Y-53286157D01*
X178846818Y-53300436D01*
X178848978Y-53314997D01*
X178849700Y-53329700D01*
X178849700Y-53629700D01*
X178848978Y-53644403D01*
X178846818Y-53658964D01*
X178843241Y-53673243D01*
X178838282Y-53687103D01*
X178831988Y-53700410D01*
X178824420Y-53713036D01*
X178815652Y-53724859D01*
X178805766Y-53735766D01*
X178794859Y-53745652D01*
X178783036Y-53754420D01*
X178770410Y-53761988D01*
X178757103Y-53768282D01*
X178743243Y-53773241D01*
X178728964Y-53776818D01*
X178714403Y-53778978D01*
X178699700Y-53779700D01*
X177049700Y-53779700D01*
X177034997Y-53778978D01*
X177020436Y-53776818D01*
X177006157Y-53773241D01*
X176992297Y-53768282D01*
X176978990Y-53761988D01*
X176966364Y-53754420D01*
X176954541Y-53745652D01*
X176943634Y-53735766D01*
X176933748Y-53724859D01*
X176924980Y-53713036D01*
X176917412Y-53700410D01*
X176911118Y-53687103D01*
X176906159Y-53673243D01*
X176902582Y-53658964D01*
X176900422Y-53644403D01*
X176899700Y-53629700D01*
X176899700Y-53329700D01*
X176900422Y-53314997D01*
X176902582Y-53300436D01*
X176906159Y-53286157D01*
X176911118Y-53272297D01*
X176917412Y-53258990D01*
X176924980Y-53246364D01*
X176933748Y-53234541D01*
X176943634Y-53223634D01*
X176954541Y-53213748D01*
X176966364Y-53204980D01*
X176978990Y-53197412D01*
X176992297Y-53191118D01*
X177006157Y-53186159D01*
X177020436Y-53182582D01*
X177034997Y-53180422D01*
X177049700Y-53179700D01*
X178699700Y-53179700D01*
X178714403Y-53180422D01*
X178714403Y-53180422D01*
G37*
D25*
X177874700Y-53479700D03*
D10*
G36*
X178714403Y-54450422D02*
G01*
X178728964Y-54452582D01*
X178743243Y-54456159D01*
X178757103Y-54461118D01*
X178770410Y-54467412D01*
X178783036Y-54474980D01*
X178794859Y-54483748D01*
X178805766Y-54493634D01*
X178815652Y-54504541D01*
X178824420Y-54516364D01*
X178831988Y-54528990D01*
X178838282Y-54542297D01*
X178843241Y-54556157D01*
X178846818Y-54570436D01*
X178848978Y-54584997D01*
X178849700Y-54599700D01*
X178849700Y-54899700D01*
X178848978Y-54914403D01*
X178846818Y-54928964D01*
X178843241Y-54943243D01*
X178838282Y-54957103D01*
X178831988Y-54970410D01*
X178824420Y-54983036D01*
X178815652Y-54994859D01*
X178805766Y-55005766D01*
X178794859Y-55015652D01*
X178783036Y-55024420D01*
X178770410Y-55031988D01*
X178757103Y-55038282D01*
X178743243Y-55043241D01*
X178728964Y-55046818D01*
X178714403Y-55048978D01*
X178699700Y-55049700D01*
X177049700Y-55049700D01*
X177034997Y-55048978D01*
X177020436Y-55046818D01*
X177006157Y-55043241D01*
X176992297Y-55038282D01*
X176978990Y-55031988D01*
X176966364Y-55024420D01*
X176954541Y-55015652D01*
X176943634Y-55005766D01*
X176933748Y-54994859D01*
X176924980Y-54983036D01*
X176917412Y-54970410D01*
X176911118Y-54957103D01*
X176906159Y-54943243D01*
X176902582Y-54928964D01*
X176900422Y-54914403D01*
X176899700Y-54899700D01*
X176899700Y-54599700D01*
X176900422Y-54584997D01*
X176902582Y-54570436D01*
X176906159Y-54556157D01*
X176911118Y-54542297D01*
X176917412Y-54528990D01*
X176924980Y-54516364D01*
X176933748Y-54504541D01*
X176943634Y-54493634D01*
X176954541Y-54483748D01*
X176966364Y-54474980D01*
X176978990Y-54467412D01*
X176992297Y-54461118D01*
X177006157Y-54456159D01*
X177020436Y-54452582D01*
X177034997Y-54450422D01*
X177049700Y-54449700D01*
X178699700Y-54449700D01*
X178714403Y-54450422D01*
X178714403Y-54450422D01*
G37*
D25*
X177874700Y-54749700D03*
D10*
G36*
X178714403Y-55720422D02*
G01*
X178728964Y-55722582D01*
X178743243Y-55726159D01*
X178757103Y-55731118D01*
X178770410Y-55737412D01*
X178783036Y-55744980D01*
X178794859Y-55753748D01*
X178805766Y-55763634D01*
X178815652Y-55774541D01*
X178824420Y-55786364D01*
X178831988Y-55798990D01*
X178838282Y-55812297D01*
X178843241Y-55826157D01*
X178846818Y-55840436D01*
X178848978Y-55854997D01*
X178849700Y-55869700D01*
X178849700Y-56169700D01*
X178848978Y-56184403D01*
X178846818Y-56198964D01*
X178843241Y-56213243D01*
X178838282Y-56227103D01*
X178831988Y-56240410D01*
X178824420Y-56253036D01*
X178815652Y-56264859D01*
X178805766Y-56275766D01*
X178794859Y-56285652D01*
X178783036Y-56294420D01*
X178770410Y-56301988D01*
X178757103Y-56308282D01*
X178743243Y-56313241D01*
X178728964Y-56316818D01*
X178714403Y-56318978D01*
X178699700Y-56319700D01*
X177049700Y-56319700D01*
X177034997Y-56318978D01*
X177020436Y-56316818D01*
X177006157Y-56313241D01*
X176992297Y-56308282D01*
X176978990Y-56301988D01*
X176966364Y-56294420D01*
X176954541Y-56285652D01*
X176943634Y-56275766D01*
X176933748Y-56264859D01*
X176924980Y-56253036D01*
X176917412Y-56240410D01*
X176911118Y-56227103D01*
X176906159Y-56213243D01*
X176902582Y-56198964D01*
X176900422Y-56184403D01*
X176899700Y-56169700D01*
X176899700Y-55869700D01*
X176900422Y-55854997D01*
X176902582Y-55840436D01*
X176906159Y-55826157D01*
X176911118Y-55812297D01*
X176917412Y-55798990D01*
X176924980Y-55786364D01*
X176933748Y-55774541D01*
X176943634Y-55763634D01*
X176954541Y-55753748D01*
X176966364Y-55744980D01*
X176978990Y-55737412D01*
X176992297Y-55731118D01*
X177006157Y-55726159D01*
X177020436Y-55722582D01*
X177034997Y-55720422D01*
X177049700Y-55719700D01*
X178699700Y-55719700D01*
X178714403Y-55720422D01*
X178714403Y-55720422D01*
G37*
D25*
X177874700Y-56019700D03*
D10*
G36*
X178714403Y-56990422D02*
G01*
X178728964Y-56992582D01*
X178743243Y-56996159D01*
X178757103Y-57001118D01*
X178770410Y-57007412D01*
X178783036Y-57014980D01*
X178794859Y-57023748D01*
X178805766Y-57033634D01*
X178815652Y-57044541D01*
X178824420Y-57056364D01*
X178831988Y-57068990D01*
X178838282Y-57082297D01*
X178843241Y-57096157D01*
X178846818Y-57110436D01*
X178848978Y-57124997D01*
X178849700Y-57139700D01*
X178849700Y-57439700D01*
X178848978Y-57454403D01*
X178846818Y-57468964D01*
X178843241Y-57483243D01*
X178838282Y-57497103D01*
X178831988Y-57510410D01*
X178824420Y-57523036D01*
X178815652Y-57534859D01*
X178805766Y-57545766D01*
X178794859Y-57555652D01*
X178783036Y-57564420D01*
X178770410Y-57571988D01*
X178757103Y-57578282D01*
X178743243Y-57583241D01*
X178728964Y-57586818D01*
X178714403Y-57588978D01*
X178699700Y-57589700D01*
X177049700Y-57589700D01*
X177034997Y-57588978D01*
X177020436Y-57586818D01*
X177006157Y-57583241D01*
X176992297Y-57578282D01*
X176978990Y-57571988D01*
X176966364Y-57564420D01*
X176954541Y-57555652D01*
X176943634Y-57545766D01*
X176933748Y-57534859D01*
X176924980Y-57523036D01*
X176917412Y-57510410D01*
X176911118Y-57497103D01*
X176906159Y-57483243D01*
X176902582Y-57468964D01*
X176900422Y-57454403D01*
X176899700Y-57439700D01*
X176899700Y-57139700D01*
X176900422Y-57124997D01*
X176902582Y-57110436D01*
X176906159Y-57096157D01*
X176911118Y-57082297D01*
X176917412Y-57068990D01*
X176924980Y-57056364D01*
X176933748Y-57044541D01*
X176943634Y-57033634D01*
X176954541Y-57023748D01*
X176966364Y-57014980D01*
X176978990Y-57007412D01*
X176992297Y-57001118D01*
X177006157Y-56996159D01*
X177020436Y-56992582D01*
X177034997Y-56990422D01*
X177049700Y-56989700D01*
X178699700Y-56989700D01*
X178714403Y-56990422D01*
X178714403Y-56990422D01*
G37*
D25*
X177874700Y-57289700D03*
D10*
G36*
X173764403Y-56990422D02*
G01*
X173778964Y-56992582D01*
X173793243Y-56996159D01*
X173807103Y-57001118D01*
X173820410Y-57007412D01*
X173833036Y-57014980D01*
X173844859Y-57023748D01*
X173855766Y-57033634D01*
X173865652Y-57044541D01*
X173874420Y-57056364D01*
X173881988Y-57068990D01*
X173888282Y-57082297D01*
X173893241Y-57096157D01*
X173896818Y-57110436D01*
X173898978Y-57124997D01*
X173899700Y-57139700D01*
X173899700Y-57439700D01*
X173898978Y-57454403D01*
X173896818Y-57468964D01*
X173893241Y-57483243D01*
X173888282Y-57497103D01*
X173881988Y-57510410D01*
X173874420Y-57523036D01*
X173865652Y-57534859D01*
X173855766Y-57545766D01*
X173844859Y-57555652D01*
X173833036Y-57564420D01*
X173820410Y-57571988D01*
X173807103Y-57578282D01*
X173793243Y-57583241D01*
X173778964Y-57586818D01*
X173764403Y-57588978D01*
X173749700Y-57589700D01*
X172099700Y-57589700D01*
X172084997Y-57588978D01*
X172070436Y-57586818D01*
X172056157Y-57583241D01*
X172042297Y-57578282D01*
X172028990Y-57571988D01*
X172016364Y-57564420D01*
X172004541Y-57555652D01*
X171993634Y-57545766D01*
X171983748Y-57534859D01*
X171974980Y-57523036D01*
X171967412Y-57510410D01*
X171961118Y-57497103D01*
X171956159Y-57483243D01*
X171952582Y-57468964D01*
X171950422Y-57454403D01*
X171949700Y-57439700D01*
X171949700Y-57139700D01*
X171950422Y-57124997D01*
X171952582Y-57110436D01*
X171956159Y-57096157D01*
X171961118Y-57082297D01*
X171967412Y-57068990D01*
X171974980Y-57056364D01*
X171983748Y-57044541D01*
X171993634Y-57033634D01*
X172004541Y-57023748D01*
X172016364Y-57014980D01*
X172028990Y-57007412D01*
X172042297Y-57001118D01*
X172056157Y-56996159D01*
X172070436Y-56992582D01*
X172084997Y-56990422D01*
X172099700Y-56989700D01*
X173749700Y-56989700D01*
X173764403Y-56990422D01*
X173764403Y-56990422D01*
G37*
D25*
X172924700Y-57289700D03*
D10*
G36*
X173764403Y-55720422D02*
G01*
X173778964Y-55722582D01*
X173793243Y-55726159D01*
X173807103Y-55731118D01*
X173820410Y-55737412D01*
X173833036Y-55744980D01*
X173844859Y-55753748D01*
X173855766Y-55763634D01*
X173865652Y-55774541D01*
X173874420Y-55786364D01*
X173881988Y-55798990D01*
X173888282Y-55812297D01*
X173893241Y-55826157D01*
X173896818Y-55840436D01*
X173898978Y-55854997D01*
X173899700Y-55869700D01*
X173899700Y-56169700D01*
X173898978Y-56184403D01*
X173896818Y-56198964D01*
X173893241Y-56213243D01*
X173888282Y-56227103D01*
X173881988Y-56240410D01*
X173874420Y-56253036D01*
X173865652Y-56264859D01*
X173855766Y-56275766D01*
X173844859Y-56285652D01*
X173833036Y-56294420D01*
X173820410Y-56301988D01*
X173807103Y-56308282D01*
X173793243Y-56313241D01*
X173778964Y-56316818D01*
X173764403Y-56318978D01*
X173749700Y-56319700D01*
X172099700Y-56319700D01*
X172084997Y-56318978D01*
X172070436Y-56316818D01*
X172056157Y-56313241D01*
X172042297Y-56308282D01*
X172028990Y-56301988D01*
X172016364Y-56294420D01*
X172004541Y-56285652D01*
X171993634Y-56275766D01*
X171983748Y-56264859D01*
X171974980Y-56253036D01*
X171967412Y-56240410D01*
X171961118Y-56227103D01*
X171956159Y-56213243D01*
X171952582Y-56198964D01*
X171950422Y-56184403D01*
X171949700Y-56169700D01*
X171949700Y-55869700D01*
X171950422Y-55854997D01*
X171952582Y-55840436D01*
X171956159Y-55826157D01*
X171961118Y-55812297D01*
X171967412Y-55798990D01*
X171974980Y-55786364D01*
X171983748Y-55774541D01*
X171993634Y-55763634D01*
X172004541Y-55753748D01*
X172016364Y-55744980D01*
X172028990Y-55737412D01*
X172042297Y-55731118D01*
X172056157Y-55726159D01*
X172070436Y-55722582D01*
X172084997Y-55720422D01*
X172099700Y-55719700D01*
X173749700Y-55719700D01*
X173764403Y-55720422D01*
X173764403Y-55720422D01*
G37*
D25*
X172924700Y-56019700D03*
D10*
G36*
X173764403Y-54450422D02*
G01*
X173778964Y-54452582D01*
X173793243Y-54456159D01*
X173807103Y-54461118D01*
X173820410Y-54467412D01*
X173833036Y-54474980D01*
X173844859Y-54483748D01*
X173855766Y-54493634D01*
X173865652Y-54504541D01*
X173874420Y-54516364D01*
X173881988Y-54528990D01*
X173888282Y-54542297D01*
X173893241Y-54556157D01*
X173896818Y-54570436D01*
X173898978Y-54584997D01*
X173899700Y-54599700D01*
X173899700Y-54899700D01*
X173898978Y-54914403D01*
X173896818Y-54928964D01*
X173893241Y-54943243D01*
X173888282Y-54957103D01*
X173881988Y-54970410D01*
X173874420Y-54983036D01*
X173865652Y-54994859D01*
X173855766Y-55005766D01*
X173844859Y-55015652D01*
X173833036Y-55024420D01*
X173820410Y-55031988D01*
X173807103Y-55038282D01*
X173793243Y-55043241D01*
X173778964Y-55046818D01*
X173764403Y-55048978D01*
X173749700Y-55049700D01*
X172099700Y-55049700D01*
X172084997Y-55048978D01*
X172070436Y-55046818D01*
X172056157Y-55043241D01*
X172042297Y-55038282D01*
X172028990Y-55031988D01*
X172016364Y-55024420D01*
X172004541Y-55015652D01*
X171993634Y-55005766D01*
X171983748Y-54994859D01*
X171974980Y-54983036D01*
X171967412Y-54970410D01*
X171961118Y-54957103D01*
X171956159Y-54943243D01*
X171952582Y-54928964D01*
X171950422Y-54914403D01*
X171949700Y-54899700D01*
X171949700Y-54599700D01*
X171950422Y-54584997D01*
X171952582Y-54570436D01*
X171956159Y-54556157D01*
X171961118Y-54542297D01*
X171967412Y-54528990D01*
X171974980Y-54516364D01*
X171983748Y-54504541D01*
X171993634Y-54493634D01*
X172004541Y-54483748D01*
X172016364Y-54474980D01*
X172028990Y-54467412D01*
X172042297Y-54461118D01*
X172056157Y-54456159D01*
X172070436Y-54452582D01*
X172084997Y-54450422D01*
X172099700Y-54449700D01*
X173749700Y-54449700D01*
X173764403Y-54450422D01*
X173764403Y-54450422D01*
G37*
D25*
X172924700Y-54749700D03*
D10*
G36*
X173764403Y-53180422D02*
G01*
X173778964Y-53182582D01*
X173793243Y-53186159D01*
X173807103Y-53191118D01*
X173820410Y-53197412D01*
X173833036Y-53204980D01*
X173844859Y-53213748D01*
X173855766Y-53223634D01*
X173865652Y-53234541D01*
X173874420Y-53246364D01*
X173881988Y-53258990D01*
X173888282Y-53272297D01*
X173893241Y-53286157D01*
X173896818Y-53300436D01*
X173898978Y-53314997D01*
X173899700Y-53329700D01*
X173899700Y-53629700D01*
X173898978Y-53644403D01*
X173896818Y-53658964D01*
X173893241Y-53673243D01*
X173888282Y-53687103D01*
X173881988Y-53700410D01*
X173874420Y-53713036D01*
X173865652Y-53724859D01*
X173855766Y-53735766D01*
X173844859Y-53745652D01*
X173833036Y-53754420D01*
X173820410Y-53761988D01*
X173807103Y-53768282D01*
X173793243Y-53773241D01*
X173778964Y-53776818D01*
X173764403Y-53778978D01*
X173749700Y-53779700D01*
X172099700Y-53779700D01*
X172084997Y-53778978D01*
X172070436Y-53776818D01*
X172056157Y-53773241D01*
X172042297Y-53768282D01*
X172028990Y-53761988D01*
X172016364Y-53754420D01*
X172004541Y-53745652D01*
X171993634Y-53735766D01*
X171983748Y-53724859D01*
X171974980Y-53713036D01*
X171967412Y-53700410D01*
X171961118Y-53687103D01*
X171956159Y-53673243D01*
X171952582Y-53658964D01*
X171950422Y-53644403D01*
X171949700Y-53629700D01*
X171949700Y-53329700D01*
X171950422Y-53314997D01*
X171952582Y-53300436D01*
X171956159Y-53286157D01*
X171961118Y-53272297D01*
X171967412Y-53258990D01*
X171974980Y-53246364D01*
X171983748Y-53234541D01*
X171993634Y-53223634D01*
X172004541Y-53213748D01*
X172016364Y-53204980D01*
X172028990Y-53197412D01*
X172042297Y-53191118D01*
X172056157Y-53186159D01*
X172070436Y-53182582D01*
X172084997Y-53180422D01*
X172099700Y-53179700D01*
X173749700Y-53179700D01*
X173764403Y-53180422D01*
X173764403Y-53180422D01*
G37*
D25*
X172924700Y-53479700D03*
D10*
G36*
X176222244Y-55530808D02*
G01*
X176244571Y-55534119D01*
X176266465Y-55539604D01*
X176287717Y-55547208D01*
X176308121Y-55556858D01*
X176327481Y-55568462D01*
X176345610Y-55581908D01*
X176362335Y-55597065D01*
X176377492Y-55613790D01*
X176390938Y-55631919D01*
X176402542Y-55651279D01*
X176412192Y-55671683D01*
X176419796Y-55692935D01*
X176425281Y-55714829D01*
X176428592Y-55737156D01*
X176429700Y-55759700D01*
X176429700Y-56509700D01*
X176428592Y-56532244D01*
X176425281Y-56554571D01*
X176419796Y-56576465D01*
X176412192Y-56597717D01*
X176402542Y-56618121D01*
X176390938Y-56637481D01*
X176377492Y-56655610D01*
X176362335Y-56672335D01*
X176345610Y-56687492D01*
X176327481Y-56700938D01*
X176308121Y-56712542D01*
X176287717Y-56722192D01*
X176266465Y-56729796D01*
X176244571Y-56735281D01*
X176222244Y-56738592D01*
X176199700Y-56739700D01*
X175739700Y-56739700D01*
X175717156Y-56738592D01*
X175694829Y-56735281D01*
X175672935Y-56729796D01*
X175651683Y-56722192D01*
X175631279Y-56712542D01*
X175611919Y-56700938D01*
X175593790Y-56687492D01*
X175577065Y-56672335D01*
X175561908Y-56655610D01*
X175548462Y-56637481D01*
X175536858Y-56618121D01*
X175527208Y-56597717D01*
X175519604Y-56576465D01*
X175514119Y-56554571D01*
X175510808Y-56532244D01*
X175509700Y-56509700D01*
X175509700Y-55759700D01*
X175510808Y-55737156D01*
X175514119Y-55714829D01*
X175519604Y-55692935D01*
X175527208Y-55671683D01*
X175536858Y-55651279D01*
X175548462Y-55631919D01*
X175561908Y-55613790D01*
X175577065Y-55597065D01*
X175593790Y-55581908D01*
X175611919Y-55568462D01*
X175631279Y-55556858D01*
X175651683Y-55547208D01*
X175672935Y-55539604D01*
X175694829Y-55534119D01*
X175717156Y-55530808D01*
X175739700Y-55529700D01*
X176199700Y-55529700D01*
X176222244Y-55530808D01*
X176222244Y-55530808D01*
G37*
D26*
X175969700Y-56134700D03*
D10*
G36*
X176222244Y-54030808D02*
G01*
X176244571Y-54034119D01*
X176266465Y-54039604D01*
X176287717Y-54047208D01*
X176308121Y-54056858D01*
X176327481Y-54068462D01*
X176345610Y-54081908D01*
X176362335Y-54097065D01*
X176377492Y-54113790D01*
X176390938Y-54131919D01*
X176402542Y-54151279D01*
X176412192Y-54171683D01*
X176419796Y-54192935D01*
X176425281Y-54214829D01*
X176428592Y-54237156D01*
X176429700Y-54259700D01*
X176429700Y-55009700D01*
X176428592Y-55032244D01*
X176425281Y-55054571D01*
X176419796Y-55076465D01*
X176412192Y-55097717D01*
X176402542Y-55118121D01*
X176390938Y-55137481D01*
X176377492Y-55155610D01*
X176362335Y-55172335D01*
X176345610Y-55187492D01*
X176327481Y-55200938D01*
X176308121Y-55212542D01*
X176287717Y-55222192D01*
X176266465Y-55229796D01*
X176244571Y-55235281D01*
X176222244Y-55238592D01*
X176199700Y-55239700D01*
X175739700Y-55239700D01*
X175717156Y-55238592D01*
X175694829Y-55235281D01*
X175672935Y-55229796D01*
X175651683Y-55222192D01*
X175631279Y-55212542D01*
X175611919Y-55200938D01*
X175593790Y-55187492D01*
X175577065Y-55172335D01*
X175561908Y-55155610D01*
X175548462Y-55137481D01*
X175536858Y-55118121D01*
X175527208Y-55097717D01*
X175519604Y-55076465D01*
X175514119Y-55054571D01*
X175510808Y-55032244D01*
X175509700Y-55009700D01*
X175509700Y-54259700D01*
X175510808Y-54237156D01*
X175514119Y-54214829D01*
X175519604Y-54192935D01*
X175527208Y-54171683D01*
X175536858Y-54151279D01*
X175548462Y-54131919D01*
X175561908Y-54113790D01*
X175577065Y-54097065D01*
X175593790Y-54081908D01*
X175611919Y-54068462D01*
X175631279Y-54056858D01*
X175651683Y-54047208D01*
X175672935Y-54039604D01*
X175694829Y-54034119D01*
X175717156Y-54030808D01*
X175739700Y-54029700D01*
X176199700Y-54029700D01*
X176222244Y-54030808D01*
X176222244Y-54030808D01*
G37*
D26*
X175969700Y-54634700D03*
D10*
G36*
X175082244Y-55530808D02*
G01*
X175104571Y-55534119D01*
X175126465Y-55539604D01*
X175147717Y-55547208D01*
X175168121Y-55556858D01*
X175187481Y-55568462D01*
X175205610Y-55581908D01*
X175222335Y-55597065D01*
X175237492Y-55613790D01*
X175250938Y-55631919D01*
X175262542Y-55651279D01*
X175272192Y-55671683D01*
X175279796Y-55692935D01*
X175285281Y-55714829D01*
X175288592Y-55737156D01*
X175289700Y-55759700D01*
X175289700Y-56509700D01*
X175288592Y-56532244D01*
X175285281Y-56554571D01*
X175279796Y-56576465D01*
X175272192Y-56597717D01*
X175262542Y-56618121D01*
X175250938Y-56637481D01*
X175237492Y-56655610D01*
X175222335Y-56672335D01*
X175205610Y-56687492D01*
X175187481Y-56700938D01*
X175168121Y-56712542D01*
X175147717Y-56722192D01*
X175126465Y-56729796D01*
X175104571Y-56735281D01*
X175082244Y-56738592D01*
X175059700Y-56739700D01*
X174599700Y-56739700D01*
X174577156Y-56738592D01*
X174554829Y-56735281D01*
X174532935Y-56729796D01*
X174511683Y-56722192D01*
X174491279Y-56712542D01*
X174471919Y-56700938D01*
X174453790Y-56687492D01*
X174437065Y-56672335D01*
X174421908Y-56655610D01*
X174408462Y-56637481D01*
X174396858Y-56618121D01*
X174387208Y-56597717D01*
X174379604Y-56576465D01*
X174374119Y-56554571D01*
X174370808Y-56532244D01*
X174369700Y-56509700D01*
X174369700Y-55759700D01*
X174370808Y-55737156D01*
X174374119Y-55714829D01*
X174379604Y-55692935D01*
X174387208Y-55671683D01*
X174396858Y-55651279D01*
X174408462Y-55631919D01*
X174421908Y-55613790D01*
X174437065Y-55597065D01*
X174453790Y-55581908D01*
X174471919Y-55568462D01*
X174491279Y-55556858D01*
X174511683Y-55547208D01*
X174532935Y-55539604D01*
X174554829Y-55534119D01*
X174577156Y-55530808D01*
X174599700Y-55529700D01*
X175059700Y-55529700D01*
X175082244Y-55530808D01*
X175082244Y-55530808D01*
G37*
D26*
X174829700Y-56134700D03*
D10*
G36*
X175082244Y-54030808D02*
G01*
X175104571Y-54034119D01*
X175126465Y-54039604D01*
X175147717Y-54047208D01*
X175168121Y-54056858D01*
X175187481Y-54068462D01*
X175205610Y-54081908D01*
X175222335Y-54097065D01*
X175237492Y-54113790D01*
X175250938Y-54131919D01*
X175262542Y-54151279D01*
X175272192Y-54171683D01*
X175279796Y-54192935D01*
X175285281Y-54214829D01*
X175288592Y-54237156D01*
X175289700Y-54259700D01*
X175289700Y-55009700D01*
X175288592Y-55032244D01*
X175285281Y-55054571D01*
X175279796Y-55076465D01*
X175272192Y-55097717D01*
X175262542Y-55118121D01*
X175250938Y-55137481D01*
X175237492Y-55155610D01*
X175222335Y-55172335D01*
X175205610Y-55187492D01*
X175187481Y-55200938D01*
X175168121Y-55212542D01*
X175147717Y-55222192D01*
X175126465Y-55229796D01*
X175104571Y-55235281D01*
X175082244Y-55238592D01*
X175059700Y-55239700D01*
X174599700Y-55239700D01*
X174577156Y-55238592D01*
X174554829Y-55235281D01*
X174532935Y-55229796D01*
X174511683Y-55222192D01*
X174491279Y-55212542D01*
X174471919Y-55200938D01*
X174453790Y-55187492D01*
X174437065Y-55172335D01*
X174421908Y-55155610D01*
X174408462Y-55137481D01*
X174396858Y-55118121D01*
X174387208Y-55097717D01*
X174379604Y-55076465D01*
X174374119Y-55054571D01*
X174370808Y-55032244D01*
X174369700Y-55009700D01*
X174369700Y-54259700D01*
X174370808Y-54237156D01*
X174374119Y-54214829D01*
X174379604Y-54192935D01*
X174387208Y-54171683D01*
X174396858Y-54151279D01*
X174408462Y-54131919D01*
X174421908Y-54113790D01*
X174437065Y-54097065D01*
X174453790Y-54081908D01*
X174471919Y-54068462D01*
X174491279Y-54056858D01*
X174511683Y-54047208D01*
X174532935Y-54039604D01*
X174554829Y-54034119D01*
X174577156Y-54030808D01*
X174599700Y-54029700D01*
X175059700Y-54029700D01*
X175082244Y-54030808D01*
X175082244Y-54030808D01*
G37*
D26*
X174829700Y-54634700D03*
D27*
X190642700Y-90165200D03*
D28*
X189242700Y-89840200D03*
D27*
X190642700Y-89515200D03*
X190642700Y-90815200D03*
X190642700Y-88865200D03*
X187842700Y-90815200D03*
X187842700Y-90165200D03*
X187842700Y-89515200D03*
X187842700Y-88865200D03*
D10*
G36*
X199221944Y-55556208D02*
G01*
X199244271Y-55559519D01*
X199266165Y-55565004D01*
X199287417Y-55572608D01*
X199307821Y-55582258D01*
X199327181Y-55593862D01*
X199345310Y-55607308D01*
X199362035Y-55622465D01*
X199377192Y-55639190D01*
X199390638Y-55657319D01*
X199402242Y-55676679D01*
X199411892Y-55697083D01*
X199419496Y-55718335D01*
X199424981Y-55740229D01*
X199428292Y-55762556D01*
X199429400Y-55785100D01*
X199429400Y-56535100D01*
X199428292Y-56557644D01*
X199424981Y-56579971D01*
X199419496Y-56601865D01*
X199411892Y-56623117D01*
X199402242Y-56643521D01*
X199390638Y-56662881D01*
X199377192Y-56681010D01*
X199362035Y-56697735D01*
X199345310Y-56712892D01*
X199327181Y-56726338D01*
X199307821Y-56737942D01*
X199287417Y-56747592D01*
X199266165Y-56755196D01*
X199244271Y-56760681D01*
X199221944Y-56763992D01*
X199199400Y-56765100D01*
X198739400Y-56765100D01*
X198716856Y-56763992D01*
X198694529Y-56760681D01*
X198672635Y-56755196D01*
X198651383Y-56747592D01*
X198630979Y-56737942D01*
X198611619Y-56726338D01*
X198593490Y-56712892D01*
X198576765Y-56697735D01*
X198561608Y-56681010D01*
X198548162Y-56662881D01*
X198536558Y-56643521D01*
X198526908Y-56623117D01*
X198519304Y-56601865D01*
X198513819Y-56579971D01*
X198510508Y-56557644D01*
X198509400Y-56535100D01*
X198509400Y-55785100D01*
X198510508Y-55762556D01*
X198513819Y-55740229D01*
X198519304Y-55718335D01*
X198526908Y-55697083D01*
X198536558Y-55676679D01*
X198548162Y-55657319D01*
X198561608Y-55639190D01*
X198576765Y-55622465D01*
X198593490Y-55607308D01*
X198611619Y-55593862D01*
X198630979Y-55582258D01*
X198651383Y-55572608D01*
X198672635Y-55565004D01*
X198694529Y-55559519D01*
X198716856Y-55556208D01*
X198739400Y-55555100D01*
X199199400Y-55555100D01*
X199221944Y-55556208D01*
X199221944Y-55556208D01*
G37*
D26*
X198969400Y-56160100D03*
D10*
G36*
X199221944Y-54056208D02*
G01*
X199244271Y-54059519D01*
X199266165Y-54065004D01*
X199287417Y-54072608D01*
X199307821Y-54082258D01*
X199327181Y-54093862D01*
X199345310Y-54107308D01*
X199362035Y-54122465D01*
X199377192Y-54139190D01*
X199390638Y-54157319D01*
X199402242Y-54176679D01*
X199411892Y-54197083D01*
X199419496Y-54218335D01*
X199424981Y-54240229D01*
X199428292Y-54262556D01*
X199429400Y-54285100D01*
X199429400Y-55035100D01*
X199428292Y-55057644D01*
X199424981Y-55079971D01*
X199419496Y-55101865D01*
X199411892Y-55123117D01*
X199402242Y-55143521D01*
X199390638Y-55162881D01*
X199377192Y-55181010D01*
X199362035Y-55197735D01*
X199345310Y-55212892D01*
X199327181Y-55226338D01*
X199307821Y-55237942D01*
X199287417Y-55247592D01*
X199266165Y-55255196D01*
X199244271Y-55260681D01*
X199221944Y-55263992D01*
X199199400Y-55265100D01*
X198739400Y-55265100D01*
X198716856Y-55263992D01*
X198694529Y-55260681D01*
X198672635Y-55255196D01*
X198651383Y-55247592D01*
X198630979Y-55237942D01*
X198611619Y-55226338D01*
X198593490Y-55212892D01*
X198576765Y-55197735D01*
X198561608Y-55181010D01*
X198548162Y-55162881D01*
X198536558Y-55143521D01*
X198526908Y-55123117D01*
X198519304Y-55101865D01*
X198513819Y-55079971D01*
X198510508Y-55057644D01*
X198509400Y-55035100D01*
X198509400Y-54285100D01*
X198510508Y-54262556D01*
X198513819Y-54240229D01*
X198519304Y-54218335D01*
X198526908Y-54197083D01*
X198536558Y-54176679D01*
X198548162Y-54157319D01*
X198561608Y-54139190D01*
X198576765Y-54122465D01*
X198593490Y-54107308D01*
X198611619Y-54093862D01*
X198630979Y-54082258D01*
X198651383Y-54072608D01*
X198672635Y-54065004D01*
X198694529Y-54059519D01*
X198716856Y-54056208D01*
X198739400Y-54055100D01*
X199199400Y-54055100D01*
X199221944Y-54056208D01*
X199221944Y-54056208D01*
G37*
D26*
X198969400Y-54660100D03*
D10*
G36*
X198081944Y-55556208D02*
G01*
X198104271Y-55559519D01*
X198126165Y-55565004D01*
X198147417Y-55572608D01*
X198167821Y-55582258D01*
X198187181Y-55593862D01*
X198205310Y-55607308D01*
X198222035Y-55622465D01*
X198237192Y-55639190D01*
X198250638Y-55657319D01*
X198262242Y-55676679D01*
X198271892Y-55697083D01*
X198279496Y-55718335D01*
X198284981Y-55740229D01*
X198288292Y-55762556D01*
X198289400Y-55785100D01*
X198289400Y-56535100D01*
X198288292Y-56557644D01*
X198284981Y-56579971D01*
X198279496Y-56601865D01*
X198271892Y-56623117D01*
X198262242Y-56643521D01*
X198250638Y-56662881D01*
X198237192Y-56681010D01*
X198222035Y-56697735D01*
X198205310Y-56712892D01*
X198187181Y-56726338D01*
X198167821Y-56737942D01*
X198147417Y-56747592D01*
X198126165Y-56755196D01*
X198104271Y-56760681D01*
X198081944Y-56763992D01*
X198059400Y-56765100D01*
X197599400Y-56765100D01*
X197576856Y-56763992D01*
X197554529Y-56760681D01*
X197532635Y-56755196D01*
X197511383Y-56747592D01*
X197490979Y-56737942D01*
X197471619Y-56726338D01*
X197453490Y-56712892D01*
X197436765Y-56697735D01*
X197421608Y-56681010D01*
X197408162Y-56662881D01*
X197396558Y-56643521D01*
X197386908Y-56623117D01*
X197379304Y-56601865D01*
X197373819Y-56579971D01*
X197370508Y-56557644D01*
X197369400Y-56535100D01*
X197369400Y-55785100D01*
X197370508Y-55762556D01*
X197373819Y-55740229D01*
X197379304Y-55718335D01*
X197386908Y-55697083D01*
X197396558Y-55676679D01*
X197408162Y-55657319D01*
X197421608Y-55639190D01*
X197436765Y-55622465D01*
X197453490Y-55607308D01*
X197471619Y-55593862D01*
X197490979Y-55582258D01*
X197511383Y-55572608D01*
X197532635Y-55565004D01*
X197554529Y-55559519D01*
X197576856Y-55556208D01*
X197599400Y-55555100D01*
X198059400Y-55555100D01*
X198081944Y-55556208D01*
X198081944Y-55556208D01*
G37*
D26*
X197829400Y-56160100D03*
D10*
G36*
X198081944Y-54056208D02*
G01*
X198104271Y-54059519D01*
X198126165Y-54065004D01*
X198147417Y-54072608D01*
X198167821Y-54082258D01*
X198187181Y-54093862D01*
X198205310Y-54107308D01*
X198222035Y-54122465D01*
X198237192Y-54139190D01*
X198250638Y-54157319D01*
X198262242Y-54176679D01*
X198271892Y-54197083D01*
X198279496Y-54218335D01*
X198284981Y-54240229D01*
X198288292Y-54262556D01*
X198289400Y-54285100D01*
X198289400Y-55035100D01*
X198288292Y-55057644D01*
X198284981Y-55079971D01*
X198279496Y-55101865D01*
X198271892Y-55123117D01*
X198262242Y-55143521D01*
X198250638Y-55162881D01*
X198237192Y-55181010D01*
X198222035Y-55197735D01*
X198205310Y-55212892D01*
X198187181Y-55226338D01*
X198167821Y-55237942D01*
X198147417Y-55247592D01*
X198126165Y-55255196D01*
X198104271Y-55260681D01*
X198081944Y-55263992D01*
X198059400Y-55265100D01*
X197599400Y-55265100D01*
X197576856Y-55263992D01*
X197554529Y-55260681D01*
X197532635Y-55255196D01*
X197511383Y-55247592D01*
X197490979Y-55237942D01*
X197471619Y-55226338D01*
X197453490Y-55212892D01*
X197436765Y-55197735D01*
X197421608Y-55181010D01*
X197408162Y-55162881D01*
X197396558Y-55143521D01*
X197386908Y-55123117D01*
X197379304Y-55101865D01*
X197373819Y-55079971D01*
X197370508Y-55057644D01*
X197369400Y-55035100D01*
X197369400Y-54285100D01*
X197370508Y-54262556D01*
X197373819Y-54240229D01*
X197379304Y-54218335D01*
X197386908Y-54197083D01*
X197396558Y-54176679D01*
X197408162Y-54157319D01*
X197421608Y-54139190D01*
X197436765Y-54122465D01*
X197453490Y-54107308D01*
X197471619Y-54093862D01*
X197490979Y-54082258D01*
X197511383Y-54072608D01*
X197532635Y-54065004D01*
X197554529Y-54059519D01*
X197576856Y-54056208D01*
X197599400Y-54055100D01*
X198059400Y-54055100D01*
X198081944Y-54056208D01*
X198081944Y-54056208D01*
G37*
D26*
X197829400Y-54660100D03*
D10*
G36*
X201714103Y-57015822D02*
G01*
X201728664Y-57017982D01*
X201742943Y-57021559D01*
X201756803Y-57026518D01*
X201770110Y-57032812D01*
X201782736Y-57040380D01*
X201794559Y-57049148D01*
X201805466Y-57059034D01*
X201815352Y-57069941D01*
X201824120Y-57081764D01*
X201831688Y-57094390D01*
X201837982Y-57107697D01*
X201842941Y-57121557D01*
X201846518Y-57135836D01*
X201848678Y-57150397D01*
X201849400Y-57165100D01*
X201849400Y-57465100D01*
X201848678Y-57479803D01*
X201846518Y-57494364D01*
X201842941Y-57508643D01*
X201837982Y-57522503D01*
X201831688Y-57535810D01*
X201824120Y-57548436D01*
X201815352Y-57560259D01*
X201805466Y-57571166D01*
X201794559Y-57581052D01*
X201782736Y-57589820D01*
X201770110Y-57597388D01*
X201756803Y-57603682D01*
X201742943Y-57608641D01*
X201728664Y-57612218D01*
X201714103Y-57614378D01*
X201699400Y-57615100D01*
X200049400Y-57615100D01*
X200034697Y-57614378D01*
X200020136Y-57612218D01*
X200005857Y-57608641D01*
X199991997Y-57603682D01*
X199978690Y-57597388D01*
X199966064Y-57589820D01*
X199954241Y-57581052D01*
X199943334Y-57571166D01*
X199933448Y-57560259D01*
X199924680Y-57548436D01*
X199917112Y-57535810D01*
X199910818Y-57522503D01*
X199905859Y-57508643D01*
X199902282Y-57494364D01*
X199900122Y-57479803D01*
X199899400Y-57465100D01*
X199899400Y-57165100D01*
X199900122Y-57150397D01*
X199902282Y-57135836D01*
X199905859Y-57121557D01*
X199910818Y-57107697D01*
X199917112Y-57094390D01*
X199924680Y-57081764D01*
X199933448Y-57069941D01*
X199943334Y-57059034D01*
X199954241Y-57049148D01*
X199966064Y-57040380D01*
X199978690Y-57032812D01*
X199991997Y-57026518D01*
X200005857Y-57021559D01*
X200020136Y-57017982D01*
X200034697Y-57015822D01*
X200049400Y-57015100D01*
X201699400Y-57015100D01*
X201714103Y-57015822D01*
X201714103Y-57015822D01*
G37*
D25*
X200874400Y-57315100D03*
D10*
G36*
X201714103Y-55745822D02*
G01*
X201728664Y-55747982D01*
X201742943Y-55751559D01*
X201756803Y-55756518D01*
X201770110Y-55762812D01*
X201782736Y-55770380D01*
X201794559Y-55779148D01*
X201805466Y-55789034D01*
X201815352Y-55799941D01*
X201824120Y-55811764D01*
X201831688Y-55824390D01*
X201837982Y-55837697D01*
X201842941Y-55851557D01*
X201846518Y-55865836D01*
X201848678Y-55880397D01*
X201849400Y-55895100D01*
X201849400Y-56195100D01*
X201848678Y-56209803D01*
X201846518Y-56224364D01*
X201842941Y-56238643D01*
X201837982Y-56252503D01*
X201831688Y-56265810D01*
X201824120Y-56278436D01*
X201815352Y-56290259D01*
X201805466Y-56301166D01*
X201794559Y-56311052D01*
X201782736Y-56319820D01*
X201770110Y-56327388D01*
X201756803Y-56333682D01*
X201742943Y-56338641D01*
X201728664Y-56342218D01*
X201714103Y-56344378D01*
X201699400Y-56345100D01*
X200049400Y-56345100D01*
X200034697Y-56344378D01*
X200020136Y-56342218D01*
X200005857Y-56338641D01*
X199991997Y-56333682D01*
X199978690Y-56327388D01*
X199966064Y-56319820D01*
X199954241Y-56311052D01*
X199943334Y-56301166D01*
X199933448Y-56290259D01*
X199924680Y-56278436D01*
X199917112Y-56265810D01*
X199910818Y-56252503D01*
X199905859Y-56238643D01*
X199902282Y-56224364D01*
X199900122Y-56209803D01*
X199899400Y-56195100D01*
X199899400Y-55895100D01*
X199900122Y-55880397D01*
X199902282Y-55865836D01*
X199905859Y-55851557D01*
X199910818Y-55837697D01*
X199917112Y-55824390D01*
X199924680Y-55811764D01*
X199933448Y-55799941D01*
X199943334Y-55789034D01*
X199954241Y-55779148D01*
X199966064Y-55770380D01*
X199978690Y-55762812D01*
X199991997Y-55756518D01*
X200005857Y-55751559D01*
X200020136Y-55747982D01*
X200034697Y-55745822D01*
X200049400Y-55745100D01*
X201699400Y-55745100D01*
X201714103Y-55745822D01*
X201714103Y-55745822D01*
G37*
D25*
X200874400Y-56045100D03*
D10*
G36*
X201714103Y-54475822D02*
G01*
X201728664Y-54477982D01*
X201742943Y-54481559D01*
X201756803Y-54486518D01*
X201770110Y-54492812D01*
X201782736Y-54500380D01*
X201794559Y-54509148D01*
X201805466Y-54519034D01*
X201815352Y-54529941D01*
X201824120Y-54541764D01*
X201831688Y-54554390D01*
X201837982Y-54567697D01*
X201842941Y-54581557D01*
X201846518Y-54595836D01*
X201848678Y-54610397D01*
X201849400Y-54625100D01*
X201849400Y-54925100D01*
X201848678Y-54939803D01*
X201846518Y-54954364D01*
X201842941Y-54968643D01*
X201837982Y-54982503D01*
X201831688Y-54995810D01*
X201824120Y-55008436D01*
X201815352Y-55020259D01*
X201805466Y-55031166D01*
X201794559Y-55041052D01*
X201782736Y-55049820D01*
X201770110Y-55057388D01*
X201756803Y-55063682D01*
X201742943Y-55068641D01*
X201728664Y-55072218D01*
X201714103Y-55074378D01*
X201699400Y-55075100D01*
X200049400Y-55075100D01*
X200034697Y-55074378D01*
X200020136Y-55072218D01*
X200005857Y-55068641D01*
X199991997Y-55063682D01*
X199978690Y-55057388D01*
X199966064Y-55049820D01*
X199954241Y-55041052D01*
X199943334Y-55031166D01*
X199933448Y-55020259D01*
X199924680Y-55008436D01*
X199917112Y-54995810D01*
X199910818Y-54982503D01*
X199905859Y-54968643D01*
X199902282Y-54954364D01*
X199900122Y-54939803D01*
X199899400Y-54925100D01*
X199899400Y-54625100D01*
X199900122Y-54610397D01*
X199902282Y-54595836D01*
X199905859Y-54581557D01*
X199910818Y-54567697D01*
X199917112Y-54554390D01*
X199924680Y-54541764D01*
X199933448Y-54529941D01*
X199943334Y-54519034D01*
X199954241Y-54509148D01*
X199966064Y-54500380D01*
X199978690Y-54492812D01*
X199991997Y-54486518D01*
X200005857Y-54481559D01*
X200020136Y-54477982D01*
X200034697Y-54475822D01*
X200049400Y-54475100D01*
X201699400Y-54475100D01*
X201714103Y-54475822D01*
X201714103Y-54475822D01*
G37*
D25*
X200874400Y-54775100D03*
D10*
G36*
X201714103Y-53205822D02*
G01*
X201728664Y-53207982D01*
X201742943Y-53211559D01*
X201756803Y-53216518D01*
X201770110Y-53222812D01*
X201782736Y-53230380D01*
X201794559Y-53239148D01*
X201805466Y-53249034D01*
X201815352Y-53259941D01*
X201824120Y-53271764D01*
X201831688Y-53284390D01*
X201837982Y-53297697D01*
X201842941Y-53311557D01*
X201846518Y-53325836D01*
X201848678Y-53340397D01*
X201849400Y-53355100D01*
X201849400Y-53655100D01*
X201848678Y-53669803D01*
X201846518Y-53684364D01*
X201842941Y-53698643D01*
X201837982Y-53712503D01*
X201831688Y-53725810D01*
X201824120Y-53738436D01*
X201815352Y-53750259D01*
X201805466Y-53761166D01*
X201794559Y-53771052D01*
X201782736Y-53779820D01*
X201770110Y-53787388D01*
X201756803Y-53793682D01*
X201742943Y-53798641D01*
X201728664Y-53802218D01*
X201714103Y-53804378D01*
X201699400Y-53805100D01*
X200049400Y-53805100D01*
X200034697Y-53804378D01*
X200020136Y-53802218D01*
X200005857Y-53798641D01*
X199991997Y-53793682D01*
X199978690Y-53787388D01*
X199966064Y-53779820D01*
X199954241Y-53771052D01*
X199943334Y-53761166D01*
X199933448Y-53750259D01*
X199924680Y-53738436D01*
X199917112Y-53725810D01*
X199910818Y-53712503D01*
X199905859Y-53698643D01*
X199902282Y-53684364D01*
X199900122Y-53669803D01*
X199899400Y-53655100D01*
X199899400Y-53355100D01*
X199900122Y-53340397D01*
X199902282Y-53325836D01*
X199905859Y-53311557D01*
X199910818Y-53297697D01*
X199917112Y-53284390D01*
X199924680Y-53271764D01*
X199933448Y-53259941D01*
X199943334Y-53249034D01*
X199954241Y-53239148D01*
X199966064Y-53230380D01*
X199978690Y-53222812D01*
X199991997Y-53216518D01*
X200005857Y-53211559D01*
X200020136Y-53207982D01*
X200034697Y-53205822D01*
X200049400Y-53205100D01*
X201699400Y-53205100D01*
X201714103Y-53205822D01*
X201714103Y-53205822D01*
G37*
D25*
X200874400Y-53505100D03*
D10*
G36*
X196764103Y-53205822D02*
G01*
X196778664Y-53207982D01*
X196792943Y-53211559D01*
X196806803Y-53216518D01*
X196820110Y-53222812D01*
X196832736Y-53230380D01*
X196844559Y-53239148D01*
X196855466Y-53249034D01*
X196865352Y-53259941D01*
X196874120Y-53271764D01*
X196881688Y-53284390D01*
X196887982Y-53297697D01*
X196892941Y-53311557D01*
X196896518Y-53325836D01*
X196898678Y-53340397D01*
X196899400Y-53355100D01*
X196899400Y-53655100D01*
X196898678Y-53669803D01*
X196896518Y-53684364D01*
X196892941Y-53698643D01*
X196887982Y-53712503D01*
X196881688Y-53725810D01*
X196874120Y-53738436D01*
X196865352Y-53750259D01*
X196855466Y-53761166D01*
X196844559Y-53771052D01*
X196832736Y-53779820D01*
X196820110Y-53787388D01*
X196806803Y-53793682D01*
X196792943Y-53798641D01*
X196778664Y-53802218D01*
X196764103Y-53804378D01*
X196749400Y-53805100D01*
X195099400Y-53805100D01*
X195084697Y-53804378D01*
X195070136Y-53802218D01*
X195055857Y-53798641D01*
X195041997Y-53793682D01*
X195028690Y-53787388D01*
X195016064Y-53779820D01*
X195004241Y-53771052D01*
X194993334Y-53761166D01*
X194983448Y-53750259D01*
X194974680Y-53738436D01*
X194967112Y-53725810D01*
X194960818Y-53712503D01*
X194955859Y-53698643D01*
X194952282Y-53684364D01*
X194950122Y-53669803D01*
X194949400Y-53655100D01*
X194949400Y-53355100D01*
X194950122Y-53340397D01*
X194952282Y-53325836D01*
X194955859Y-53311557D01*
X194960818Y-53297697D01*
X194967112Y-53284390D01*
X194974680Y-53271764D01*
X194983448Y-53259941D01*
X194993334Y-53249034D01*
X195004241Y-53239148D01*
X195016064Y-53230380D01*
X195028690Y-53222812D01*
X195041997Y-53216518D01*
X195055857Y-53211559D01*
X195070136Y-53207982D01*
X195084697Y-53205822D01*
X195099400Y-53205100D01*
X196749400Y-53205100D01*
X196764103Y-53205822D01*
X196764103Y-53205822D01*
G37*
D25*
X195924400Y-53505100D03*
D10*
G36*
X196764103Y-54475822D02*
G01*
X196778664Y-54477982D01*
X196792943Y-54481559D01*
X196806803Y-54486518D01*
X196820110Y-54492812D01*
X196832736Y-54500380D01*
X196844559Y-54509148D01*
X196855466Y-54519034D01*
X196865352Y-54529941D01*
X196874120Y-54541764D01*
X196881688Y-54554390D01*
X196887982Y-54567697D01*
X196892941Y-54581557D01*
X196896518Y-54595836D01*
X196898678Y-54610397D01*
X196899400Y-54625100D01*
X196899400Y-54925100D01*
X196898678Y-54939803D01*
X196896518Y-54954364D01*
X196892941Y-54968643D01*
X196887982Y-54982503D01*
X196881688Y-54995810D01*
X196874120Y-55008436D01*
X196865352Y-55020259D01*
X196855466Y-55031166D01*
X196844559Y-55041052D01*
X196832736Y-55049820D01*
X196820110Y-55057388D01*
X196806803Y-55063682D01*
X196792943Y-55068641D01*
X196778664Y-55072218D01*
X196764103Y-55074378D01*
X196749400Y-55075100D01*
X195099400Y-55075100D01*
X195084697Y-55074378D01*
X195070136Y-55072218D01*
X195055857Y-55068641D01*
X195041997Y-55063682D01*
X195028690Y-55057388D01*
X195016064Y-55049820D01*
X195004241Y-55041052D01*
X194993334Y-55031166D01*
X194983448Y-55020259D01*
X194974680Y-55008436D01*
X194967112Y-54995810D01*
X194960818Y-54982503D01*
X194955859Y-54968643D01*
X194952282Y-54954364D01*
X194950122Y-54939803D01*
X194949400Y-54925100D01*
X194949400Y-54625100D01*
X194950122Y-54610397D01*
X194952282Y-54595836D01*
X194955859Y-54581557D01*
X194960818Y-54567697D01*
X194967112Y-54554390D01*
X194974680Y-54541764D01*
X194983448Y-54529941D01*
X194993334Y-54519034D01*
X195004241Y-54509148D01*
X195016064Y-54500380D01*
X195028690Y-54492812D01*
X195041997Y-54486518D01*
X195055857Y-54481559D01*
X195070136Y-54477982D01*
X195084697Y-54475822D01*
X195099400Y-54475100D01*
X196749400Y-54475100D01*
X196764103Y-54475822D01*
X196764103Y-54475822D01*
G37*
D25*
X195924400Y-54775100D03*
D10*
G36*
X196764103Y-55745822D02*
G01*
X196778664Y-55747982D01*
X196792943Y-55751559D01*
X196806803Y-55756518D01*
X196820110Y-55762812D01*
X196832736Y-55770380D01*
X196844559Y-55779148D01*
X196855466Y-55789034D01*
X196865352Y-55799941D01*
X196874120Y-55811764D01*
X196881688Y-55824390D01*
X196887982Y-55837697D01*
X196892941Y-55851557D01*
X196896518Y-55865836D01*
X196898678Y-55880397D01*
X196899400Y-55895100D01*
X196899400Y-56195100D01*
X196898678Y-56209803D01*
X196896518Y-56224364D01*
X196892941Y-56238643D01*
X196887982Y-56252503D01*
X196881688Y-56265810D01*
X196874120Y-56278436D01*
X196865352Y-56290259D01*
X196855466Y-56301166D01*
X196844559Y-56311052D01*
X196832736Y-56319820D01*
X196820110Y-56327388D01*
X196806803Y-56333682D01*
X196792943Y-56338641D01*
X196778664Y-56342218D01*
X196764103Y-56344378D01*
X196749400Y-56345100D01*
X195099400Y-56345100D01*
X195084697Y-56344378D01*
X195070136Y-56342218D01*
X195055857Y-56338641D01*
X195041997Y-56333682D01*
X195028690Y-56327388D01*
X195016064Y-56319820D01*
X195004241Y-56311052D01*
X194993334Y-56301166D01*
X194983448Y-56290259D01*
X194974680Y-56278436D01*
X194967112Y-56265810D01*
X194960818Y-56252503D01*
X194955859Y-56238643D01*
X194952282Y-56224364D01*
X194950122Y-56209803D01*
X194949400Y-56195100D01*
X194949400Y-55895100D01*
X194950122Y-55880397D01*
X194952282Y-55865836D01*
X194955859Y-55851557D01*
X194960818Y-55837697D01*
X194967112Y-55824390D01*
X194974680Y-55811764D01*
X194983448Y-55799941D01*
X194993334Y-55789034D01*
X195004241Y-55779148D01*
X195016064Y-55770380D01*
X195028690Y-55762812D01*
X195041997Y-55756518D01*
X195055857Y-55751559D01*
X195070136Y-55747982D01*
X195084697Y-55745822D01*
X195099400Y-55745100D01*
X196749400Y-55745100D01*
X196764103Y-55745822D01*
X196764103Y-55745822D01*
G37*
D25*
X195924400Y-56045100D03*
D10*
G36*
X196764103Y-57015822D02*
G01*
X196778664Y-57017982D01*
X196792943Y-57021559D01*
X196806803Y-57026518D01*
X196820110Y-57032812D01*
X196832736Y-57040380D01*
X196844559Y-57049148D01*
X196855466Y-57059034D01*
X196865352Y-57069941D01*
X196874120Y-57081764D01*
X196881688Y-57094390D01*
X196887982Y-57107697D01*
X196892941Y-57121557D01*
X196896518Y-57135836D01*
X196898678Y-57150397D01*
X196899400Y-57165100D01*
X196899400Y-57465100D01*
X196898678Y-57479803D01*
X196896518Y-57494364D01*
X196892941Y-57508643D01*
X196887982Y-57522503D01*
X196881688Y-57535810D01*
X196874120Y-57548436D01*
X196865352Y-57560259D01*
X196855466Y-57571166D01*
X196844559Y-57581052D01*
X196832736Y-57589820D01*
X196820110Y-57597388D01*
X196806803Y-57603682D01*
X196792943Y-57608641D01*
X196778664Y-57612218D01*
X196764103Y-57614378D01*
X196749400Y-57615100D01*
X195099400Y-57615100D01*
X195084697Y-57614378D01*
X195070136Y-57612218D01*
X195055857Y-57608641D01*
X195041997Y-57603682D01*
X195028690Y-57597388D01*
X195016064Y-57589820D01*
X195004241Y-57581052D01*
X194993334Y-57571166D01*
X194983448Y-57560259D01*
X194974680Y-57548436D01*
X194967112Y-57535810D01*
X194960818Y-57522503D01*
X194955859Y-57508643D01*
X194952282Y-57494364D01*
X194950122Y-57479803D01*
X194949400Y-57465100D01*
X194949400Y-57165100D01*
X194950122Y-57150397D01*
X194952282Y-57135836D01*
X194955859Y-57121557D01*
X194960818Y-57107697D01*
X194967112Y-57094390D01*
X194974680Y-57081764D01*
X194983448Y-57069941D01*
X194993334Y-57059034D01*
X195004241Y-57049148D01*
X195016064Y-57040380D01*
X195028690Y-57032812D01*
X195041997Y-57026518D01*
X195055857Y-57021559D01*
X195070136Y-57017982D01*
X195084697Y-57015822D01*
X195099400Y-57015100D01*
X196749400Y-57015100D01*
X196764103Y-57015822D01*
X196764103Y-57015822D01*
G37*
D25*
X195924400Y-57315100D03*
D27*
X200129200Y-89481300D03*
X200129200Y-88831300D03*
X200129200Y-88181300D03*
X200129200Y-87531300D03*
X197329200Y-89481300D03*
X197329200Y-87531300D03*
X197329200Y-88831300D03*
D28*
X198729200Y-88506300D03*
D27*
X197329200Y-88181300D03*
M02*
