G04 #@! TF.GenerationSoftware,KiCad,Pcbnew,(5.1.0)-1*
G04 #@! TF.CreationDate,2020-01-06T22:35:46-04:00*
G04 #@! TF.ProjectId,Main,4d61696e-2e6b-4696-9361-645f70636258,rev?*
G04 #@! TF.SameCoordinates,Original*
G04 #@! TF.FileFunction,Copper,L2,Bot*
G04 #@! TF.FilePolarity,Positive*
%FSLAX46Y46*%
G04 Gerber Fmt 4.6, Leading zero omitted, Abs format (unit mm)*
G04 Created by KiCad (PCBNEW (5.1.0)-1) date 2020-01-06 22:35:46*
%MOMM*%
%LPD*%
G04 APERTURE LIST*
%ADD10O,1.350000X1.350000*%
%ADD11R,1.350000X1.350000*%
%ADD12O,1.700000X1.700000*%
%ADD13R,1.700000X1.700000*%
%ADD14C,0.800000*%
%ADD15C,0.750000*%
%ADD16C,0.250000*%
%ADD17C,4.000000*%
%ADD18C,0.254000*%
G04 APERTURE END LIST*
D10*
X182753000Y-70801500D03*
X182753000Y-68801500D03*
X182753000Y-66801500D03*
X182753000Y-64801500D03*
D11*
X182753000Y-62801500D03*
D10*
X178212000Y-49593500D03*
X176212000Y-49593500D03*
X174212000Y-49593500D03*
D11*
X172212000Y-49593500D03*
X210426300Y-70116700D03*
D12*
X179768500Y-92329000D03*
D13*
X179768500Y-94869000D03*
D12*
X168795700Y-93484700D03*
D13*
X168795700Y-90944700D03*
D10*
X193460100Y-61861700D03*
X195460100Y-61861700D03*
X197460100Y-61861700D03*
X199460100Y-61861700D03*
D11*
X201460100Y-61861700D03*
X188163200Y-78943200D03*
D10*
X183812700Y-108153200D03*
X181812700Y-108153200D03*
X179812700Y-108153200D03*
X177812700Y-108153200D03*
X175812700Y-108153200D03*
D11*
X173812700Y-108153200D03*
X195211700Y-80594200D03*
X121043700Y-59753500D03*
D13*
X126784100Y-67319500D03*
D12*
X124244100Y-67319500D03*
X121704100Y-67319500D03*
X126827280Y-82669500D03*
X124287280Y-82669500D03*
D13*
X121747280Y-82669500D03*
D11*
X136690100Y-71819500D03*
D10*
X136690100Y-73819500D03*
X136690100Y-75819500D03*
X136690100Y-77819500D03*
X136690100Y-79819500D03*
X136690100Y-81819500D03*
D11*
X209461100Y-92003880D03*
D14*
X107300000Y-83500000D03*
X159500000Y-51500000D03*
X186829700Y-90881200D03*
X191655700Y-88849200D03*
X200418700Y-91135200D03*
X201196300Y-87531300D03*
X197970950Y-90573050D03*
X197866000Y-53149500D03*
X202587400Y-56683100D03*
X194081400Y-54775100D03*
X181610000Y-55943500D03*
X171069000Y-57340500D03*
X202630750Y-54861750D03*
X170200000Y-54800000D03*
X177927000Y-58483500D03*
X111785400Y-86741000D03*
X202311000Y-57975500D03*
X179832000Y-54673500D03*
X172924700Y-52182800D03*
X176657000Y-67500500D03*
X179208000Y-62762000D03*
X178308000Y-70358000D03*
X187096400Y-93814900D03*
X194218690Y-56415810D03*
X202590400Y-93891100D03*
X213448900Y-65341500D03*
X198704200Y-87769700D03*
X189268100Y-89365200D03*
X189268100Y-90449400D03*
X120307100Y-87312500D03*
X175018700Y-104597200D03*
X192544700Y-94089220D03*
X203542900Y-67881500D03*
X176566300Y-64162200D03*
X164338000Y-60960000D03*
X172720000Y-60198000D03*
X188264000Y-49834000D03*
X202627750Y-51751750D03*
X181610000Y-59182000D03*
X114500000Y-87700000D03*
X197497700Y-93865200D03*
X196418200Y-87388700D03*
D15*
X107300000Y-82934315D02*
X107300000Y-83500000D01*
X107300000Y-79614598D02*
X107300000Y-82934315D01*
X135414598Y-51500000D02*
X107300000Y-79614598D01*
X159500000Y-51500000D02*
X135414598Y-51500000D01*
D16*
X127137280Y-79819500D02*
X136690100Y-79819500D01*
X124287280Y-82669500D02*
X127137280Y-79819500D01*
X191255701Y-89249199D02*
X191655700Y-88849200D01*
X191255701Y-89534801D02*
X191255701Y-89249199D01*
X189616101Y-91174401D02*
X191255701Y-89534801D01*
X188056499Y-91174401D02*
X189616101Y-91174401D01*
X187763298Y-90881200D02*
X188056499Y-91174401D01*
X186829700Y-90881200D02*
X187763298Y-90881200D01*
X201012700Y-87531300D02*
X201196300Y-87531300D01*
X197970950Y-90573050D02*
X201012700Y-87531300D01*
X199460100Y-60907106D02*
X199460100Y-61861700D01*
X199460100Y-59753398D02*
X199460100Y-60907106D01*
X202130399Y-57083099D02*
X199460100Y-59753398D01*
X202187401Y-57083099D02*
X202130399Y-57083099D01*
X202587400Y-56683100D02*
X202187401Y-57083099D01*
X202987399Y-56283101D02*
X202587400Y-56683100D01*
X203355751Y-55914749D02*
X202987399Y-56283101D01*
X203355751Y-54513749D02*
X203355751Y-55914749D01*
X201991502Y-53149500D02*
X202627501Y-53785499D01*
X197866000Y-53149500D02*
X201991502Y-53149500D01*
X202627501Y-53785499D02*
X203355751Y-54513749D01*
X195460100Y-56153800D02*
X195460100Y-61861700D01*
X194081400Y-54775100D02*
X195460100Y-56153800D01*
X176886999Y-48918501D02*
X176212000Y-49593500D01*
X177212001Y-48593499D02*
X176886999Y-48918501D01*
X178692001Y-48593499D02*
X177212001Y-48593499D01*
X181610000Y-51511498D02*
X178692001Y-48593499D01*
X181610000Y-55943500D02*
X181610000Y-51511498D01*
X173537001Y-50268499D02*
X174212000Y-49593500D01*
X172199699Y-51605801D02*
X173537001Y-50268499D01*
X172199699Y-56209801D02*
X172199699Y-51605801D01*
X171069000Y-57340500D02*
X172199699Y-56209801D01*
X197460100Y-60032400D02*
X197460100Y-61861700D01*
X202630750Y-54861750D02*
X197460100Y-60032400D01*
X171287000Y-49593500D02*
X172212000Y-49593500D01*
X170180000Y-50700500D02*
X171287000Y-49593500D01*
X170180000Y-54419500D02*
X170180000Y-50700500D01*
X170180000Y-54985185D02*
X170180000Y-54419500D01*
X170180000Y-57524502D02*
X170180000Y-54985185D01*
X171138998Y-58483500D02*
X170180000Y-57524502D01*
X177927000Y-58483500D02*
X171138998Y-58483500D01*
X169800001Y-54400001D02*
X170200000Y-54800000D01*
X135149636Y-50774999D02*
X166174999Y-50774999D01*
X106574999Y-79349636D02*
X135149636Y-50774999D01*
X106574999Y-83848001D02*
X106574999Y-79349636D01*
X106951999Y-84225001D02*
X106574999Y-83848001D01*
X166174999Y-50774999D02*
X169800001Y-54400001D01*
X106951999Y-84225001D02*
X109218601Y-84225001D01*
X109218601Y-84225001D02*
X109269401Y-84225001D01*
X109269401Y-84225001D02*
X111785400Y-86741000D01*
X111785400Y-86741000D02*
X111785400Y-86741000D01*
X202311000Y-61010800D02*
X201460100Y-61861700D01*
X202311000Y-57975500D02*
X202311000Y-61010800D01*
X201460100Y-62786700D02*
X201460100Y-61861700D01*
X201385099Y-62861701D02*
X201460100Y-62786700D01*
X188692799Y-62861701D02*
X201385099Y-62861701D01*
X182753000Y-68801500D02*
X188692799Y-62861701D01*
X177341300Y-52182800D02*
X179832000Y-54673500D01*
X175210700Y-52182800D02*
X177341300Y-52182800D01*
X172924700Y-52182800D02*
X175210700Y-52182800D01*
X177341300Y-50464200D02*
X178212000Y-49593500D01*
X177341300Y-52182800D02*
X177341300Y-50464200D01*
X178975900Y-55529600D02*
X179832000Y-54673500D01*
X180054000Y-67500500D02*
X182753000Y-64801500D01*
X176657000Y-67500500D02*
X180054000Y-67500500D01*
X179208000Y-64949500D02*
X179208000Y-62762000D01*
X176657000Y-67500500D02*
X179208000Y-64949500D01*
X179832000Y-55239185D02*
X179832000Y-54673500D01*
X182335001Y-57742186D02*
X179832000Y-55239185D01*
X182335001Y-59634999D02*
X182335001Y-57742186D01*
X179208000Y-62762000D02*
X182335001Y-59634999D01*
X182753000Y-89471500D02*
X182753000Y-70801500D01*
X187096400Y-93814900D02*
X182753000Y-89471500D01*
X178751500Y-70801500D02*
X178308000Y-70358000D01*
X182753000Y-70801500D02*
X178751500Y-70801500D01*
X193460100Y-57174400D02*
X193460100Y-61861700D01*
X194218690Y-56415810D02*
X193460100Y-57174400D01*
X181752999Y-67801501D02*
X182078001Y-67476499D01*
X182078001Y-67476499D02*
X182753000Y-66801500D01*
X181752999Y-69281501D02*
X181752999Y-67801501D01*
X182272998Y-69801500D02*
X181752999Y-69281501D01*
X194211699Y-80038699D02*
X183974500Y-69801500D01*
X194211699Y-81529201D02*
X194211699Y-80038699D01*
X197143201Y-90818303D02*
X197143201Y-84460703D01*
X183974500Y-69801500D02*
X182272998Y-69801500D01*
X197143201Y-84460703D02*
X194211699Y-81529201D01*
X200215998Y-93891100D02*
X197143201Y-90818303D01*
X202590400Y-93891100D02*
X200215998Y-93891100D01*
X136690100Y-70894500D02*
X136690100Y-71819500D01*
X133115100Y-67319500D02*
X136690100Y-70894500D01*
X126784100Y-67319500D02*
X133115100Y-67319500D01*
X132530100Y-69659500D02*
X136690100Y-73819500D01*
X124244100Y-67319500D02*
X126584100Y-69659500D01*
X126584100Y-69659500D02*
X132530100Y-69659500D01*
X121704100Y-67319500D02*
X125568100Y-71183500D01*
X132054100Y-71183500D02*
X136690100Y-75819500D01*
X125568100Y-71183500D02*
X132054100Y-71183500D01*
X135840100Y-82669500D02*
X136690100Y-81819500D01*
X126827280Y-82669500D02*
X135840100Y-82669500D01*
X181546500Y-59182000D02*
X181610000Y-59182000D01*
X176566300Y-64162200D02*
X181546500Y-59182000D01*
D17*
X164338000Y-60960000D02*
X164338000Y-77089000D01*
D16*
X196418200Y-92785700D02*
X197497700Y-93865200D01*
X196418200Y-87388700D02*
X196418200Y-92785700D01*
X135735506Y-77819500D02*
X136690100Y-77819500D01*
X125497280Y-77819500D02*
X135735506Y-77819500D01*
X121747280Y-81569500D02*
X125497280Y-77819500D01*
X121747280Y-82669500D02*
X121747280Y-81569500D01*
X136690100Y-77819500D02*
X150530699Y-91660099D01*
X175137701Y-108828199D02*
X175812700Y-108153200D01*
X174812699Y-109153201D02*
X175137701Y-108828199D01*
X166166699Y-109153201D02*
X174812699Y-109153201D01*
X150530699Y-93517201D02*
X166166699Y-109153201D01*
X150530699Y-91660099D02*
X150530699Y-93517201D01*
D18*
G36*
X152527000Y-50014999D02*
G01*
X135186958Y-50014999D01*
X135149635Y-50011323D01*
X135112312Y-50014999D01*
X135112303Y-50014999D01*
X135000650Y-50025996D01*
X134857389Y-50069453D01*
X134725360Y-50140025D01*
X134609635Y-50234998D01*
X134585837Y-50263996D01*
X106063997Y-78785837D01*
X106034999Y-78809635D01*
X106011201Y-78838633D01*
X106011200Y-78838634D01*
X105940025Y-78925360D01*
X105869453Y-79057390D01*
X105825997Y-79200651D01*
X105811323Y-79349636D01*
X105815000Y-79386968D01*
X105814999Y-83810678D01*
X105811323Y-83848001D01*
X105814999Y-83885323D01*
X105814999Y-83885333D01*
X105825996Y-83996986D01*
X105859975Y-84109002D01*
X105869453Y-84140247D01*
X105940025Y-84272277D01*
X105966008Y-84303937D01*
X106034998Y-84388002D01*
X106064002Y-84411805D01*
X106388195Y-84735998D01*
X106411998Y-84765002D01*
X106527723Y-84859975D01*
X106574502Y-84884979D01*
X106659752Y-84930547D01*
X106803013Y-84974004D01*
X106951999Y-84988678D01*
X106989332Y-84985001D01*
X108954600Y-84985001D01*
X110750400Y-86780802D01*
X110750400Y-86842939D01*
X110790174Y-87042898D01*
X110868195Y-87231256D01*
X110981463Y-87400774D01*
X111125626Y-87544937D01*
X111295144Y-87658205D01*
X111483502Y-87736226D01*
X111683461Y-87776000D01*
X111887339Y-87776000D01*
X112087298Y-87736226D01*
X112275656Y-87658205D01*
X112445174Y-87544937D01*
X112589337Y-87400774D01*
X112702605Y-87231256D01*
X112780626Y-87042898D01*
X112820400Y-86842939D01*
X112820400Y-86639061D01*
X112780626Y-86439102D01*
X112702605Y-86250744D01*
X112589337Y-86081226D01*
X112445174Y-85937063D01*
X112275656Y-85823795D01*
X112087298Y-85745774D01*
X111887339Y-85706000D01*
X111825202Y-85706000D01*
X109833205Y-83714004D01*
X109809402Y-83685000D01*
X109693677Y-83590027D01*
X109561648Y-83519455D01*
X109418387Y-83475998D01*
X109306734Y-83465001D01*
X109306723Y-83465001D01*
X109269401Y-83461325D01*
X109232079Y-83465001D01*
X108335000Y-83465001D01*
X108335000Y-83398061D01*
X108310000Y-83272377D01*
X108310000Y-80032953D01*
X120369710Y-67973243D01*
X120463394Y-68148514D01*
X120648966Y-68374634D01*
X120875086Y-68560206D01*
X121133066Y-68698099D01*
X121412989Y-68783013D01*
X121631150Y-68804500D01*
X121777050Y-68804500D01*
X121995211Y-68783013D01*
X122070096Y-68760297D01*
X125004300Y-71694502D01*
X125028099Y-71723501D01*
X125143824Y-71818474D01*
X125275853Y-71889046D01*
X125419114Y-71932503D01*
X125530767Y-71943500D01*
X125530776Y-71943500D01*
X125568099Y-71947176D01*
X125605422Y-71943500D01*
X131739299Y-71943500D01*
X135395418Y-75599620D01*
X135373762Y-75819500D01*
X135399055Y-76076305D01*
X135473962Y-76323241D01*
X135595605Y-76550818D01*
X135759308Y-76750292D01*
X135843639Y-76819500D01*
X135759308Y-76888708D01*
X135619144Y-77059500D01*
X125534603Y-77059500D01*
X125497280Y-77055824D01*
X125459957Y-77059500D01*
X125459947Y-77059500D01*
X125348294Y-77070497D01*
X125205033Y-77113954D01*
X125073004Y-77184526D01*
X124957279Y-77279499D01*
X124933481Y-77308497D01*
X121236278Y-81005701D01*
X121207280Y-81029499D01*
X121183482Y-81058497D01*
X121183481Y-81058498D01*
X121112306Y-81145224D01*
X121092954Y-81181428D01*
X120897280Y-81181428D01*
X120772798Y-81193688D01*
X120653100Y-81229998D01*
X120542786Y-81288963D01*
X120446095Y-81368315D01*
X120366743Y-81465006D01*
X120307778Y-81575320D01*
X120271468Y-81695018D01*
X120259208Y-81819500D01*
X120259208Y-83519500D01*
X120271468Y-83643982D01*
X120307778Y-83763680D01*
X120366743Y-83873994D01*
X120446095Y-83970685D01*
X120542786Y-84050037D01*
X120653100Y-84109002D01*
X120772798Y-84145312D01*
X120897280Y-84157572D01*
X122597280Y-84157572D01*
X122721762Y-84145312D01*
X122841460Y-84109002D01*
X122951774Y-84050037D01*
X123048465Y-83970685D01*
X123127817Y-83873994D01*
X123186782Y-83763680D01*
X123207673Y-83694813D01*
X123232146Y-83724634D01*
X123458266Y-83910206D01*
X123716246Y-84048099D01*
X123996169Y-84133013D01*
X124214330Y-84154500D01*
X124360230Y-84154500D01*
X124578391Y-84133013D01*
X124858314Y-84048099D01*
X125116294Y-83910206D01*
X125342414Y-83724634D01*
X125527986Y-83498514D01*
X125557280Y-83443709D01*
X125586574Y-83498514D01*
X125772146Y-83724634D01*
X125998266Y-83910206D01*
X126256246Y-84048099D01*
X126536169Y-84133013D01*
X126754330Y-84154500D01*
X126900230Y-84154500D01*
X127118391Y-84133013D01*
X127398314Y-84048099D01*
X127656294Y-83910206D01*
X127882414Y-83724634D01*
X128067986Y-83498514D01*
X128104875Y-83429500D01*
X135802778Y-83429500D01*
X135840100Y-83433176D01*
X135877422Y-83429500D01*
X135877433Y-83429500D01*
X135989086Y-83418503D01*
X136132347Y-83375046D01*
X136264376Y-83304474D01*
X136380101Y-83209501D01*
X136403903Y-83180498D01*
X136470219Y-83114182D01*
X136625749Y-83129500D01*
X136754451Y-83129500D01*
X136946905Y-83110545D01*
X137193841Y-83035638D01*
X137421418Y-82913995D01*
X137620892Y-82750292D01*
X137784595Y-82550818D01*
X137906238Y-82323241D01*
X137981145Y-82076305D01*
X138006438Y-81819500D01*
X137981145Y-81562695D01*
X137906238Y-81315759D01*
X137784595Y-81088182D01*
X137620892Y-80888708D01*
X137536561Y-80819500D01*
X137620892Y-80750292D01*
X137784595Y-80550818D01*
X137906238Y-80323241D01*
X137955766Y-80159967D01*
X149770699Y-91974901D01*
X149770700Y-93479869D01*
X149767023Y-93517201D01*
X149770700Y-93554534D01*
X149781532Y-93664506D01*
X149781697Y-93666186D01*
X149825153Y-93809447D01*
X149895725Y-93941477D01*
X149959347Y-94019000D01*
X149990699Y-94057202D01*
X150019697Y-94081000D01*
X165602900Y-109664204D01*
X165626698Y-109693202D01*
X165742423Y-109788175D01*
X165874452Y-109858747D01*
X166017713Y-109902204D01*
X166129366Y-109913201D01*
X166129375Y-109913201D01*
X166166698Y-109916877D01*
X166204021Y-109913201D01*
X174775377Y-109913201D01*
X174812699Y-109916877D01*
X174850021Y-109913201D01*
X174850032Y-109913201D01*
X174961685Y-109902204D01*
X175104946Y-109858747D01*
X175236975Y-109788175D01*
X175352700Y-109693202D01*
X175376503Y-109664198D01*
X175592819Y-109447882D01*
X175748349Y-109463200D01*
X175877051Y-109463200D01*
X176069505Y-109444245D01*
X176316441Y-109369338D01*
X176544018Y-109247695D01*
X176743492Y-109083992D01*
X176812700Y-108999661D01*
X176881908Y-109083992D01*
X177081382Y-109247695D01*
X177308959Y-109369338D01*
X177555895Y-109444245D01*
X177748349Y-109463200D01*
X177877051Y-109463200D01*
X178069505Y-109444245D01*
X178316441Y-109369338D01*
X178544018Y-109247695D01*
X178743492Y-109083992D01*
X178812700Y-108999661D01*
X178881908Y-109083992D01*
X179081382Y-109247695D01*
X179308959Y-109369338D01*
X179555895Y-109444245D01*
X179748349Y-109463200D01*
X179877051Y-109463200D01*
X180069505Y-109444245D01*
X180316441Y-109369338D01*
X180544018Y-109247695D01*
X180743492Y-109083992D01*
X180812700Y-108999661D01*
X180881908Y-109083992D01*
X181081382Y-109247695D01*
X181308959Y-109369338D01*
X181555895Y-109444245D01*
X181748349Y-109463200D01*
X181877051Y-109463200D01*
X182069505Y-109444245D01*
X182316441Y-109369338D01*
X182544018Y-109247695D01*
X182743492Y-109083992D01*
X182812700Y-108999661D01*
X182881908Y-109083992D01*
X183081382Y-109247695D01*
X183308959Y-109369338D01*
X183555895Y-109444245D01*
X183748349Y-109463200D01*
X183877051Y-109463200D01*
X184069505Y-109444245D01*
X184316441Y-109369338D01*
X184544018Y-109247695D01*
X184743492Y-109083992D01*
X184907195Y-108884518D01*
X185028838Y-108656941D01*
X185103745Y-108410005D01*
X185129038Y-108153200D01*
X185103745Y-107896395D01*
X185028838Y-107649459D01*
X184907195Y-107421882D01*
X184743492Y-107222408D01*
X184544018Y-107058705D01*
X184316441Y-106937062D01*
X184069505Y-106862155D01*
X183877051Y-106843200D01*
X183748349Y-106843200D01*
X183555895Y-106862155D01*
X183308959Y-106937062D01*
X183081382Y-107058705D01*
X182881908Y-107222408D01*
X182812700Y-107306739D01*
X182743492Y-107222408D01*
X182544018Y-107058705D01*
X182316441Y-106937062D01*
X182069505Y-106862155D01*
X181877051Y-106843200D01*
X181748349Y-106843200D01*
X181555895Y-106862155D01*
X181308959Y-106937062D01*
X181081382Y-107058705D01*
X180881908Y-107222408D01*
X180812700Y-107306739D01*
X180743492Y-107222408D01*
X180544018Y-107058705D01*
X180316441Y-106937062D01*
X180069505Y-106862155D01*
X179877051Y-106843200D01*
X179748349Y-106843200D01*
X179555895Y-106862155D01*
X179308959Y-106937062D01*
X179081382Y-107058705D01*
X178881908Y-107222408D01*
X178812700Y-107306739D01*
X178743492Y-107222408D01*
X178544018Y-107058705D01*
X178316441Y-106937062D01*
X178069505Y-106862155D01*
X177877051Y-106843200D01*
X177748349Y-106843200D01*
X177555895Y-106862155D01*
X177308959Y-106937062D01*
X177081382Y-107058705D01*
X176881908Y-107222408D01*
X176812700Y-107306739D01*
X176743492Y-107222408D01*
X176544018Y-107058705D01*
X176316441Y-106937062D01*
X176069505Y-106862155D01*
X175877051Y-106843200D01*
X175748349Y-106843200D01*
X175555895Y-106862155D01*
X175308959Y-106937062D01*
X175081382Y-107058705D01*
X175011774Y-107115831D01*
X174938885Y-107027015D01*
X174842194Y-106947663D01*
X174731880Y-106888698D01*
X174612182Y-106852388D01*
X174487700Y-106840128D01*
X173137700Y-106840128D01*
X173013218Y-106852388D01*
X172893520Y-106888698D01*
X172783206Y-106947663D01*
X172686515Y-107027015D01*
X172607163Y-107123706D01*
X172548198Y-107234020D01*
X172511888Y-107353718D01*
X172499628Y-107478200D01*
X172499628Y-108393201D01*
X166481501Y-108393201D01*
X152953566Y-94865267D01*
X153269087Y-94802506D01*
X153698579Y-94624605D01*
X154085112Y-94366332D01*
X154413832Y-94037612D01*
X154672105Y-93651079D01*
X154741021Y-93484700D01*
X167303515Y-93484700D01*
X167332187Y-93775811D01*
X167417101Y-94055734D01*
X167554994Y-94313714D01*
X167740566Y-94539834D01*
X167966686Y-94725406D01*
X168224666Y-94863299D01*
X168504589Y-94948213D01*
X168722750Y-94969700D01*
X168868650Y-94969700D01*
X169086811Y-94948213D01*
X169366734Y-94863299D01*
X169624714Y-94725406D01*
X169850834Y-94539834D01*
X170036406Y-94313714D01*
X170174299Y-94055734D01*
X170259213Y-93775811D01*
X170287885Y-93484700D01*
X170259213Y-93193589D01*
X170174299Y-92913666D01*
X170036406Y-92655686D01*
X169850834Y-92429566D01*
X169821013Y-92405093D01*
X169889880Y-92384202D01*
X169993154Y-92329000D01*
X178276315Y-92329000D01*
X178304987Y-92620111D01*
X178389901Y-92900034D01*
X178527794Y-93158014D01*
X178713366Y-93384134D01*
X178743187Y-93408607D01*
X178674320Y-93429498D01*
X178564006Y-93488463D01*
X178467315Y-93567815D01*
X178387963Y-93664506D01*
X178328998Y-93774820D01*
X178292688Y-93894518D01*
X178280428Y-94019000D01*
X178280428Y-95719000D01*
X178292688Y-95843482D01*
X178328998Y-95963180D01*
X178387963Y-96073494D01*
X178467315Y-96170185D01*
X178564006Y-96249537D01*
X178674320Y-96308502D01*
X178794018Y-96344812D01*
X178918500Y-96357072D01*
X180618500Y-96357072D01*
X180742982Y-96344812D01*
X180862680Y-96308502D01*
X180972994Y-96249537D01*
X181069685Y-96170185D01*
X181149037Y-96073494D01*
X181208002Y-95963180D01*
X181244312Y-95843482D01*
X181256572Y-95719000D01*
X181256572Y-94019000D01*
X181244312Y-93894518D01*
X181208002Y-93774820D01*
X181149037Y-93664506D01*
X181069685Y-93567815D01*
X180972994Y-93488463D01*
X180862680Y-93429498D01*
X180793813Y-93408607D01*
X180823634Y-93384134D01*
X181009206Y-93158014D01*
X181147099Y-92900034D01*
X181232013Y-92620111D01*
X181260685Y-92329000D01*
X181232013Y-92037889D01*
X181147099Y-91757966D01*
X181009206Y-91499986D01*
X180823634Y-91273866D01*
X180597514Y-91088294D01*
X180339534Y-90950401D01*
X180059611Y-90865487D01*
X179841450Y-90844000D01*
X179695550Y-90844000D01*
X179477389Y-90865487D01*
X179197466Y-90950401D01*
X178939486Y-91088294D01*
X178713366Y-91273866D01*
X178527794Y-91499986D01*
X178389901Y-91757966D01*
X178304987Y-92037889D01*
X178276315Y-92329000D01*
X169993154Y-92329000D01*
X170000194Y-92325237D01*
X170096885Y-92245885D01*
X170176237Y-92149194D01*
X170235202Y-92038880D01*
X170271512Y-91919182D01*
X170283772Y-91794700D01*
X170280700Y-91230450D01*
X170121950Y-91071700D01*
X168922700Y-91071700D01*
X168922700Y-91091700D01*
X168668700Y-91091700D01*
X168668700Y-91071700D01*
X167469450Y-91071700D01*
X167310700Y-91230450D01*
X167307628Y-91794700D01*
X167319888Y-91919182D01*
X167356198Y-92038880D01*
X167415163Y-92149194D01*
X167494515Y-92245885D01*
X167591206Y-92325237D01*
X167701520Y-92384202D01*
X167770387Y-92405093D01*
X167740566Y-92429566D01*
X167554994Y-92655686D01*
X167417101Y-92913666D01*
X167332187Y-93193589D01*
X167303515Y-93484700D01*
X154741021Y-93484700D01*
X154850006Y-93221587D01*
X154940700Y-92765640D01*
X154940700Y-92300760D01*
X154850006Y-91844813D01*
X154672105Y-91415321D01*
X154413832Y-91028788D01*
X154085112Y-90700068D01*
X153698579Y-90441795D01*
X153269087Y-90263894D01*
X152813140Y-90173200D01*
X152348260Y-90173200D01*
X151892313Y-90263894D01*
X151462821Y-90441795D01*
X151076288Y-90700068D01*
X150860879Y-90915477D01*
X150040102Y-90094700D01*
X167307628Y-90094700D01*
X167310700Y-90658950D01*
X167469450Y-90817700D01*
X168668700Y-90817700D01*
X168668700Y-89618450D01*
X168922700Y-89618450D01*
X168922700Y-90817700D01*
X170121950Y-90817700D01*
X170280700Y-90658950D01*
X170283772Y-90094700D01*
X170271512Y-89970218D01*
X170235202Y-89850520D01*
X170176237Y-89740206D01*
X170096885Y-89643515D01*
X170000194Y-89564163D01*
X169889880Y-89505198D01*
X169770182Y-89468888D01*
X169645700Y-89456628D01*
X169081450Y-89459700D01*
X168922700Y-89618450D01*
X168668700Y-89618450D01*
X168509950Y-89459700D01*
X167945700Y-89456628D01*
X167821218Y-89468888D01*
X167701520Y-89505198D01*
X167591206Y-89564163D01*
X167494515Y-89643515D01*
X167415163Y-89740206D01*
X167356198Y-89850520D01*
X167319888Y-89970218D01*
X167307628Y-90094700D01*
X150040102Y-90094700D01*
X137984782Y-78039381D01*
X138006438Y-77819500D01*
X137981145Y-77562695D01*
X137906238Y-77315759D01*
X137784595Y-77088182D01*
X137620892Y-76888708D01*
X137536561Y-76819500D01*
X137620892Y-76750292D01*
X137784595Y-76550818D01*
X137906238Y-76323241D01*
X137981145Y-76076305D01*
X138006438Y-75819500D01*
X137981145Y-75562695D01*
X137906238Y-75315759D01*
X137784595Y-75088182D01*
X137620892Y-74888708D01*
X137536561Y-74819500D01*
X137620892Y-74750292D01*
X137784595Y-74550818D01*
X137906238Y-74323241D01*
X137981145Y-74076305D01*
X138006438Y-73819500D01*
X137981145Y-73562695D01*
X137906238Y-73315759D01*
X137784595Y-73088182D01*
X137727469Y-73018574D01*
X137816285Y-72945685D01*
X137895637Y-72848994D01*
X137954602Y-72738680D01*
X137990912Y-72618982D01*
X138003172Y-72494500D01*
X138003172Y-71144500D01*
X137990912Y-71020018D01*
X137954602Y-70900320D01*
X137895637Y-70790006D01*
X137816285Y-70693315D01*
X137719594Y-70613963D01*
X137609280Y-70554998D01*
X137489582Y-70518688D01*
X137365100Y-70506428D01*
X137344426Y-70506428D01*
X137325074Y-70470224D01*
X137297376Y-70436474D01*
X137253899Y-70383496D01*
X137253895Y-70383492D01*
X137230101Y-70354499D01*
X137201109Y-70330706D01*
X133678904Y-66808503D01*
X133655101Y-66779499D01*
X133539376Y-66684526D01*
X133407347Y-66613954D01*
X133264086Y-66570497D01*
X133152433Y-66559500D01*
X133152422Y-66559500D01*
X133115100Y-66555824D01*
X133077778Y-66559500D01*
X128272172Y-66559500D01*
X128272172Y-66469500D01*
X128259912Y-66345018D01*
X128223602Y-66225320D01*
X128164637Y-66115006D01*
X128085285Y-66018315D01*
X127988594Y-65938963D01*
X127878280Y-65879998D01*
X127758582Y-65843688D01*
X127634100Y-65831428D01*
X125934100Y-65831428D01*
X125809618Y-65843688D01*
X125689920Y-65879998D01*
X125579606Y-65938963D01*
X125482915Y-66018315D01*
X125403563Y-66115006D01*
X125344598Y-66225320D01*
X125323707Y-66294187D01*
X125299234Y-66264366D01*
X125073114Y-66078794D01*
X124815134Y-65940901D01*
X124535211Y-65855987D01*
X124317050Y-65834500D01*
X124171150Y-65834500D01*
X123952989Y-65855987D01*
X123673066Y-65940901D01*
X123415086Y-66078794D01*
X123188966Y-66264366D01*
X123003394Y-66490486D01*
X122974100Y-66545291D01*
X122944806Y-66490486D01*
X122759234Y-66264366D01*
X122533114Y-66078794D01*
X122357843Y-65985110D01*
X135832954Y-52510000D01*
X152527000Y-52510000D01*
X152527000Y-74676000D01*
X152529440Y-74700776D01*
X152536667Y-74724601D01*
X152548403Y-74746557D01*
X152564197Y-74765803D01*
X152583443Y-74781597D01*
X152605399Y-74793333D01*
X152629224Y-74800560D01*
X152654000Y-74803000D01*
X181993001Y-74803000D01*
X181993000Y-89434178D01*
X181989324Y-89471500D01*
X181993000Y-89508822D01*
X181993000Y-89508832D01*
X182003997Y-89620485D01*
X182047454Y-89763746D01*
X182118026Y-89895776D01*
X182157871Y-89944326D01*
X182212999Y-90011501D01*
X182242003Y-90035304D01*
X186061400Y-93854702D01*
X186061400Y-93916839D01*
X186101174Y-94116798D01*
X186179195Y-94305156D01*
X186292463Y-94474674D01*
X186436626Y-94618837D01*
X186606144Y-94732105D01*
X186794502Y-94810126D01*
X186994461Y-94849900D01*
X187198339Y-94849900D01*
X187398298Y-94810126D01*
X187586656Y-94732105D01*
X187756174Y-94618837D01*
X187900337Y-94474674D01*
X188013605Y-94305156D01*
X188091626Y-94116798D01*
X188131400Y-93916839D01*
X188131400Y-93712961D01*
X188091626Y-93513002D01*
X188013605Y-93324644D01*
X187900337Y-93155126D01*
X187756174Y-93010963D01*
X187586656Y-92897695D01*
X187398298Y-92819674D01*
X187198339Y-92779900D01*
X187136202Y-92779900D01*
X185135563Y-90779261D01*
X185794700Y-90779261D01*
X185794700Y-90983139D01*
X185834474Y-91183098D01*
X185912495Y-91371456D01*
X186025763Y-91540974D01*
X186169926Y-91685137D01*
X186339444Y-91798405D01*
X186527802Y-91876426D01*
X186727761Y-91916200D01*
X186931639Y-91916200D01*
X187131598Y-91876426D01*
X187319956Y-91798405D01*
X187489474Y-91685137D01*
X187490954Y-91683657D01*
X187492695Y-91685398D01*
X187516498Y-91714402D01*
X187632223Y-91809375D01*
X187764252Y-91879947D01*
X187907513Y-91923404D01*
X188019166Y-91934401D01*
X188019176Y-91934401D01*
X188056499Y-91938077D01*
X188093822Y-91934401D01*
X189578779Y-91934401D01*
X189616101Y-91938077D01*
X189653423Y-91934401D01*
X189653434Y-91934401D01*
X189765087Y-91923404D01*
X189908348Y-91879947D01*
X190040377Y-91809375D01*
X190156102Y-91714402D01*
X190179905Y-91685398D01*
X191766705Y-90098599D01*
X191795702Y-90074802D01*
X191890675Y-89959077D01*
X191951287Y-89845681D01*
X191957598Y-89844426D01*
X192145956Y-89766405D01*
X192315474Y-89653137D01*
X192459637Y-89508974D01*
X192572905Y-89339456D01*
X192650926Y-89151098D01*
X192690700Y-88951139D01*
X192690700Y-88747261D01*
X192650926Y-88547302D01*
X192572905Y-88358944D01*
X192459637Y-88189426D01*
X192315474Y-88045263D01*
X192145956Y-87931995D01*
X191957598Y-87853974D01*
X191757639Y-87814200D01*
X191553761Y-87814200D01*
X191353802Y-87853974D01*
X191165444Y-87931995D01*
X190995926Y-88045263D01*
X190851763Y-88189426D01*
X190738495Y-88358944D01*
X190660474Y-88547302D01*
X190620700Y-88747261D01*
X190620700Y-88824974D01*
X190550155Y-88956952D01*
X190506698Y-89100213D01*
X190495701Y-89211866D01*
X190495701Y-89211877D01*
X190494814Y-89220887D01*
X189301300Y-90414401D01*
X188371300Y-90414401D01*
X188327102Y-90370203D01*
X188303299Y-90341199D01*
X188187574Y-90246226D01*
X188055545Y-90175654D01*
X187912284Y-90132197D01*
X187800631Y-90121200D01*
X187800620Y-90121200D01*
X187763298Y-90117524D01*
X187725976Y-90121200D01*
X187533411Y-90121200D01*
X187489474Y-90077263D01*
X187319956Y-89963995D01*
X187131598Y-89885974D01*
X186931639Y-89846200D01*
X186727761Y-89846200D01*
X186527802Y-89885974D01*
X186339444Y-89963995D01*
X186169926Y-90077263D01*
X186025763Y-90221426D01*
X185912495Y-90390944D01*
X185834474Y-90579302D01*
X185794700Y-90779261D01*
X185135563Y-90779261D01*
X183513000Y-89156699D01*
X183513000Y-78268200D01*
X186850128Y-78268200D01*
X186850128Y-79618200D01*
X186862388Y-79742682D01*
X186898698Y-79862380D01*
X186957663Y-79972694D01*
X187037015Y-80069385D01*
X187133706Y-80148737D01*
X187244020Y-80207702D01*
X187363718Y-80244012D01*
X187488200Y-80256272D01*
X188838200Y-80256272D01*
X188962682Y-80244012D01*
X189082380Y-80207702D01*
X189192694Y-80148737D01*
X189289385Y-80069385D01*
X189368737Y-79972694D01*
X189427702Y-79862380D01*
X189464012Y-79742682D01*
X189476272Y-79618200D01*
X189476272Y-78268200D01*
X189464012Y-78143718D01*
X189427702Y-78024020D01*
X189368737Y-77913706D01*
X189289385Y-77817015D01*
X189192694Y-77737663D01*
X189082380Y-77678698D01*
X188962682Y-77642388D01*
X188838200Y-77630128D01*
X187488200Y-77630128D01*
X187363718Y-77642388D01*
X187244020Y-77678698D01*
X187133706Y-77737663D01*
X187037015Y-77817015D01*
X186957663Y-77913706D01*
X186898698Y-78024020D01*
X186862388Y-78143718D01*
X186850128Y-78268200D01*
X183513000Y-78268200D01*
X183513000Y-74803000D01*
X187901199Y-74803000D01*
X193451700Y-80353502D01*
X193451699Y-81491878D01*
X193448023Y-81529201D01*
X193451699Y-81566523D01*
X193451699Y-81566533D01*
X193462696Y-81678186D01*
X193505562Y-81819500D01*
X193506153Y-81821447D01*
X193576725Y-81953477D01*
X193589043Y-81968486D01*
X193671698Y-82069202D01*
X193700702Y-82093005D01*
X196383202Y-84775506D01*
X196383202Y-86353700D01*
X196316261Y-86353700D01*
X196116302Y-86393474D01*
X195927944Y-86471495D01*
X195758426Y-86584763D01*
X195614263Y-86728926D01*
X195500995Y-86898444D01*
X195422974Y-87086802D01*
X195383200Y-87286761D01*
X195383200Y-87490639D01*
X195422974Y-87690598D01*
X195500995Y-87878956D01*
X195614263Y-88048474D01*
X195658200Y-88092411D01*
X195658201Y-92748368D01*
X195654524Y-92785700D01*
X195658201Y-92823033D01*
X195669198Y-92934686D01*
X195681092Y-92973895D01*
X195712654Y-93077946D01*
X195783226Y-93209976D01*
X195854401Y-93296702D01*
X195878200Y-93325701D01*
X195907198Y-93349499D01*
X196462700Y-93905002D01*
X196462700Y-93967139D01*
X196502474Y-94167098D01*
X196580495Y-94355456D01*
X196693763Y-94524974D01*
X196837926Y-94669137D01*
X197007444Y-94782405D01*
X197195802Y-94860426D01*
X197395761Y-94900200D01*
X197599639Y-94900200D01*
X197799598Y-94860426D01*
X197987956Y-94782405D01*
X198157474Y-94669137D01*
X198301637Y-94524974D01*
X198414905Y-94355456D01*
X198492926Y-94167098D01*
X198532700Y-93967139D01*
X198532700Y-93763261D01*
X198492926Y-93563302D01*
X198414905Y-93374944D01*
X198301637Y-93205426D01*
X198157474Y-93061263D01*
X197987956Y-92947995D01*
X197799598Y-92869974D01*
X197599639Y-92830200D01*
X197537502Y-92830200D01*
X197178200Y-92470899D01*
X197178200Y-91928103D01*
X199652199Y-94402103D01*
X199675997Y-94431101D01*
X199791722Y-94526074D01*
X199923751Y-94596646D01*
X200067012Y-94640103D01*
X200178665Y-94651100D01*
X200178674Y-94651100D01*
X200215997Y-94654776D01*
X200253320Y-94651100D01*
X201886689Y-94651100D01*
X201930626Y-94695037D01*
X202100144Y-94808305D01*
X202288502Y-94886326D01*
X202488461Y-94926100D01*
X202692339Y-94926100D01*
X202892298Y-94886326D01*
X203080656Y-94808305D01*
X203250174Y-94695037D01*
X203394337Y-94550874D01*
X203507605Y-94381356D01*
X203585626Y-94192998D01*
X203625400Y-93993039D01*
X203625400Y-93789161D01*
X203585626Y-93589202D01*
X203507605Y-93400844D01*
X203394337Y-93231326D01*
X203250174Y-93087163D01*
X203080656Y-92973895D01*
X202892298Y-92895874D01*
X202692339Y-92856100D01*
X202488461Y-92856100D01*
X202288502Y-92895874D01*
X202100144Y-92973895D01*
X201930626Y-93087163D01*
X201886689Y-93131100D01*
X200530800Y-93131100D01*
X198703705Y-91304006D01*
X198774887Y-91232824D01*
X198888155Y-91063306D01*
X198900600Y-91033261D01*
X199383700Y-91033261D01*
X199383700Y-91237139D01*
X199423474Y-91437098D01*
X199501495Y-91625456D01*
X199614763Y-91794974D01*
X199758926Y-91939137D01*
X199928444Y-92052405D01*
X200116802Y-92130426D01*
X200316761Y-92170200D01*
X200520639Y-92170200D01*
X200720598Y-92130426D01*
X200908956Y-92052405D01*
X201078474Y-91939137D01*
X201222637Y-91794974D01*
X201335905Y-91625456D01*
X201413926Y-91437098D01*
X201435451Y-91328880D01*
X208148028Y-91328880D01*
X208148028Y-92678880D01*
X208160288Y-92803362D01*
X208196598Y-92923060D01*
X208255563Y-93033374D01*
X208334915Y-93130065D01*
X208431606Y-93209417D01*
X208541920Y-93268382D01*
X208661618Y-93304692D01*
X208786100Y-93316952D01*
X210136100Y-93316952D01*
X210260582Y-93304692D01*
X210380280Y-93268382D01*
X210490594Y-93209417D01*
X210587285Y-93130065D01*
X210666637Y-93033374D01*
X210725602Y-92923060D01*
X210761912Y-92803362D01*
X210774172Y-92678880D01*
X210774172Y-91328880D01*
X210761912Y-91204398D01*
X210725602Y-91084700D01*
X210666637Y-90974386D01*
X210587285Y-90877695D01*
X210490594Y-90798343D01*
X210380280Y-90739378D01*
X210260582Y-90703068D01*
X210136100Y-90690808D01*
X208786100Y-90690808D01*
X208661618Y-90703068D01*
X208541920Y-90739378D01*
X208431606Y-90798343D01*
X208334915Y-90877695D01*
X208255563Y-90974386D01*
X208196598Y-91084700D01*
X208160288Y-91204398D01*
X208148028Y-91328880D01*
X201435451Y-91328880D01*
X201453700Y-91237139D01*
X201453700Y-91033261D01*
X201413926Y-90833302D01*
X201335905Y-90644944D01*
X201222637Y-90475426D01*
X201078474Y-90331263D01*
X200908956Y-90217995D01*
X200720598Y-90139974D01*
X200520639Y-90100200D01*
X200316761Y-90100200D01*
X200116802Y-90139974D01*
X199928444Y-90217995D01*
X199758926Y-90331263D01*
X199614763Y-90475426D01*
X199501495Y-90644944D01*
X199423474Y-90833302D01*
X199383700Y-91033261D01*
X198900600Y-91033261D01*
X198966176Y-90874948D01*
X199005950Y-90674989D01*
X199005950Y-90612851D01*
X201059447Y-88559355D01*
X201094361Y-88566300D01*
X201298239Y-88566300D01*
X201498198Y-88526526D01*
X201686556Y-88448505D01*
X201856074Y-88335237D01*
X202000237Y-88191074D01*
X202113505Y-88021556D01*
X202191526Y-87833198D01*
X202231300Y-87633239D01*
X202231300Y-87429361D01*
X202191526Y-87229402D01*
X202113505Y-87041044D01*
X202000237Y-86871526D01*
X201856074Y-86727363D01*
X201686556Y-86614095D01*
X201498198Y-86536074D01*
X201298239Y-86496300D01*
X201094361Y-86496300D01*
X200894402Y-86536074D01*
X200706044Y-86614095D01*
X200536526Y-86727363D01*
X200392363Y-86871526D01*
X200279095Y-87041044D01*
X200201074Y-87229402D01*
X200191459Y-87277739D01*
X197931149Y-89538050D01*
X197903201Y-89538050D01*
X197903201Y-84498026D01*
X197906877Y-84460703D01*
X197903201Y-84423380D01*
X197903201Y-84423370D01*
X197892204Y-84311717D01*
X197848747Y-84168456D01*
X197784414Y-84048099D01*
X197778175Y-84036426D01*
X197707000Y-83949700D01*
X197683202Y-83920702D01*
X197654204Y-83896904D01*
X195664571Y-81907272D01*
X195886700Y-81907272D01*
X196011182Y-81895012D01*
X196130880Y-81858702D01*
X196241194Y-81799737D01*
X196337885Y-81720385D01*
X196417237Y-81623694D01*
X196476202Y-81513380D01*
X196512512Y-81393682D01*
X196524772Y-81269200D01*
X196524772Y-79919200D01*
X196512512Y-79794718D01*
X196476202Y-79675020D01*
X196417237Y-79564706D01*
X196337885Y-79468015D01*
X196241194Y-79388663D01*
X196130880Y-79329698D01*
X196011182Y-79293388D01*
X195886700Y-79281128D01*
X194536700Y-79281128D01*
X194529627Y-79281825D01*
X190050802Y-74803000D01*
X193294000Y-74803000D01*
X193318776Y-74800560D01*
X193342601Y-74793333D01*
X193364557Y-74781597D01*
X193383803Y-74765803D01*
X193399597Y-74746557D01*
X193411333Y-74724601D01*
X193418560Y-74700776D01*
X193421000Y-74676000D01*
X193421000Y-72136000D01*
X193418560Y-72111224D01*
X193411333Y-72087399D01*
X193399597Y-72065443D01*
X193383803Y-72046197D01*
X193364557Y-72030403D01*
X193342601Y-72018667D01*
X193318776Y-72011440D01*
X193294000Y-72009000D01*
X187256801Y-72009000D01*
X184689501Y-69441700D01*
X209113228Y-69441700D01*
X209113228Y-70791700D01*
X209125488Y-70916182D01*
X209161798Y-71035880D01*
X209220763Y-71146194D01*
X209300115Y-71242885D01*
X209396806Y-71322237D01*
X209507120Y-71381202D01*
X209626818Y-71417512D01*
X209751300Y-71429772D01*
X211101300Y-71429772D01*
X211225782Y-71417512D01*
X211345480Y-71381202D01*
X211455794Y-71322237D01*
X211552485Y-71242885D01*
X211631837Y-71146194D01*
X211690802Y-71035880D01*
X211727112Y-70916182D01*
X211739372Y-70791700D01*
X211739372Y-69441700D01*
X211727112Y-69317218D01*
X211690802Y-69197520D01*
X211631837Y-69087206D01*
X211552485Y-68990515D01*
X211455794Y-68911163D01*
X211345480Y-68852198D01*
X211225782Y-68815888D01*
X211101300Y-68803628D01*
X209751300Y-68803628D01*
X209626818Y-68815888D01*
X209507120Y-68852198D01*
X209396806Y-68911163D01*
X209300115Y-68990515D01*
X209220763Y-69087206D01*
X209161798Y-69197520D01*
X209125488Y-69317218D01*
X209113228Y-69441700D01*
X184689501Y-69441700D01*
X184538304Y-69290503D01*
X184514501Y-69261499D01*
X184398776Y-69166526D01*
X184266747Y-69095954D01*
X184123486Y-69052497D01*
X184045375Y-69044804D01*
X184069338Y-68801500D01*
X184047682Y-68581619D01*
X189007601Y-63621701D01*
X201347777Y-63621701D01*
X201385099Y-63625377D01*
X201422421Y-63621701D01*
X201422432Y-63621701D01*
X201534085Y-63610704D01*
X201677346Y-63567247D01*
X201809375Y-63496675D01*
X201925100Y-63401702D01*
X201948901Y-63372701D01*
X201971102Y-63350500D01*
X202000101Y-63326701D01*
X202095074Y-63210976D01*
X202114426Y-63174772D01*
X202135100Y-63174772D01*
X202259582Y-63162512D01*
X202379280Y-63126202D01*
X202489594Y-63067237D01*
X202586285Y-62987885D01*
X202665637Y-62891194D01*
X202724602Y-62780880D01*
X202760912Y-62661182D01*
X202773172Y-62536700D01*
X202773172Y-61623430D01*
X202822003Y-61574599D01*
X202851001Y-61550801D01*
X202945974Y-61435076D01*
X203016546Y-61303047D01*
X203060003Y-61159786D01*
X203071000Y-61048133D01*
X203071000Y-61048124D01*
X203074676Y-61010801D01*
X203071000Y-60973478D01*
X203071000Y-58679211D01*
X203114937Y-58635274D01*
X203228205Y-58465756D01*
X203306226Y-58277398D01*
X203346000Y-58077439D01*
X203346000Y-57873561D01*
X203306226Y-57673602D01*
X203232899Y-57496575D01*
X203247174Y-57487037D01*
X203391337Y-57342874D01*
X203504605Y-57173356D01*
X203582626Y-56984998D01*
X203622400Y-56785039D01*
X203622400Y-56722901D01*
X203866753Y-56478549D01*
X203895752Y-56454750D01*
X203990725Y-56339025D01*
X204061297Y-56206996D01*
X204104754Y-56063735D01*
X204115751Y-55952082D01*
X204115751Y-55952073D01*
X204119427Y-55914750D01*
X204115751Y-55877427D01*
X204115751Y-54551071D01*
X204119427Y-54513748D01*
X204115751Y-54476425D01*
X204115751Y-54476416D01*
X204104754Y-54364763D01*
X204061297Y-54221502D01*
X204041519Y-54184500D01*
X203990725Y-54089472D01*
X203919550Y-54002746D01*
X203895752Y-53973748D01*
X203866755Y-53949951D01*
X203191309Y-53274506D01*
X203191300Y-53274495D01*
X202555305Y-52638502D01*
X202531503Y-52609499D01*
X202415778Y-52514526D01*
X202283749Y-52443954D01*
X202140488Y-52400497D01*
X202028835Y-52389500D01*
X202028824Y-52389500D01*
X201991502Y-52385824D01*
X201954180Y-52389500D01*
X198569711Y-52389500D01*
X198525774Y-52345563D01*
X198356256Y-52232295D01*
X198167898Y-52154274D01*
X197967939Y-52114500D01*
X197764061Y-52114500D01*
X197564102Y-52154274D01*
X197375744Y-52232295D01*
X197206226Y-52345563D01*
X197062063Y-52489726D01*
X196948795Y-52659244D01*
X196870774Y-52847602D01*
X196831000Y-53047561D01*
X196831000Y-53251439D01*
X196870774Y-53451398D01*
X196948795Y-53639756D01*
X197062063Y-53809274D01*
X197206226Y-53953437D01*
X197375744Y-54066705D01*
X197564102Y-54144726D01*
X197764061Y-54184500D01*
X197967939Y-54184500D01*
X198167898Y-54144726D01*
X198356256Y-54066705D01*
X198525774Y-53953437D01*
X198569711Y-53909500D01*
X201676700Y-53909500D01*
X201897994Y-54130795D01*
X201826813Y-54201976D01*
X201713545Y-54371494D01*
X201635524Y-54559852D01*
X201595750Y-54759811D01*
X201595750Y-54821948D01*
X196949103Y-59468596D01*
X196920099Y-59492399D01*
X196864971Y-59559574D01*
X196825126Y-59608124D01*
X196790806Y-59672332D01*
X196754554Y-59740154D01*
X196711097Y-59883415D01*
X196700100Y-59995068D01*
X196700100Y-59995078D01*
X196696424Y-60032400D01*
X196700100Y-60069723D01*
X196700100Y-60790743D01*
X196529308Y-60930908D01*
X196460100Y-61015239D01*
X196390892Y-60930908D01*
X196220100Y-60790744D01*
X196220100Y-56191122D01*
X196223776Y-56153799D01*
X196220100Y-56116476D01*
X196220100Y-56116467D01*
X196209103Y-56004814D01*
X196165646Y-55861553D01*
X196095074Y-55729524D01*
X196000101Y-55613799D01*
X195971104Y-55590002D01*
X195116400Y-54735299D01*
X195116400Y-54673161D01*
X195076626Y-54473202D01*
X194998605Y-54284844D01*
X194885337Y-54115326D01*
X194741174Y-53971163D01*
X194571656Y-53857895D01*
X194383298Y-53779874D01*
X194183339Y-53740100D01*
X193979461Y-53740100D01*
X193779502Y-53779874D01*
X193591144Y-53857895D01*
X193421626Y-53971163D01*
X193277463Y-54115326D01*
X193164195Y-54284844D01*
X193086174Y-54473202D01*
X193046400Y-54673161D01*
X193046400Y-54877039D01*
X193086174Y-55076998D01*
X193164195Y-55265356D01*
X193277463Y-55434874D01*
X193421626Y-55579037D01*
X193523609Y-55647180D01*
X193414753Y-55756036D01*
X193301485Y-55925554D01*
X193223464Y-56113912D01*
X193183690Y-56313871D01*
X193183690Y-56376009D01*
X192949102Y-56610597D01*
X192920099Y-56634399D01*
X192864971Y-56701574D01*
X192825126Y-56750124D01*
X192774534Y-56844775D01*
X192754554Y-56882154D01*
X192711097Y-57025415D01*
X192700100Y-57137068D01*
X192700100Y-57137078D01*
X192696424Y-57174400D01*
X192700100Y-57211723D01*
X192700101Y-60790743D01*
X192529308Y-60930908D01*
X192365605Y-61130382D01*
X192243962Y-61357959D01*
X192169055Y-61604895D01*
X192143762Y-61861700D01*
X192167400Y-62101701D01*
X188730121Y-62101701D01*
X188692798Y-62098025D01*
X188655475Y-62101701D01*
X188655466Y-62101701D01*
X188543813Y-62112698D01*
X188400552Y-62156155D01*
X188268523Y-62226727D01*
X188152798Y-62321700D01*
X188129000Y-62350698D01*
X184018666Y-66461032D01*
X183969138Y-66297759D01*
X183847495Y-66070182D01*
X183683792Y-65870708D01*
X183599461Y-65801500D01*
X183683792Y-65732292D01*
X183847495Y-65532818D01*
X183969138Y-65305241D01*
X184044045Y-65058305D01*
X184069338Y-64801500D01*
X184044045Y-64544695D01*
X183969138Y-64297759D01*
X183847495Y-64070182D01*
X183790369Y-64000574D01*
X183879185Y-63927685D01*
X183958537Y-63830994D01*
X184017502Y-63720680D01*
X184053812Y-63600982D01*
X184066072Y-63476500D01*
X184066072Y-62126500D01*
X184053812Y-62002018D01*
X184017502Y-61882320D01*
X183958537Y-61772006D01*
X183879185Y-61675315D01*
X183782494Y-61595963D01*
X183672180Y-61536998D01*
X183552482Y-61500688D01*
X183428000Y-61488428D01*
X182078000Y-61488428D01*
X181953518Y-61500688D01*
X181833820Y-61536998D01*
X181723506Y-61595963D01*
X181626815Y-61675315D01*
X181547463Y-61772006D01*
X181488498Y-61882320D01*
X181452188Y-62002018D01*
X181439928Y-62126500D01*
X181439928Y-63476500D01*
X181452188Y-63600982D01*
X181488498Y-63720680D01*
X181547463Y-63830994D01*
X181626815Y-63927685D01*
X181715631Y-64000574D01*
X181658505Y-64070182D01*
X181536862Y-64297759D01*
X181461955Y-64544695D01*
X181436662Y-64801500D01*
X181458318Y-65021379D01*
X179739199Y-66740500D01*
X178491802Y-66740500D01*
X179719004Y-65513298D01*
X179748001Y-65489501D01*
X179842974Y-65373776D01*
X179913546Y-65241747D01*
X179957003Y-65098486D01*
X179968000Y-64986833D01*
X179968000Y-64986825D01*
X179971676Y-64949500D01*
X179968000Y-64912175D01*
X179968000Y-63465711D01*
X180011937Y-63421774D01*
X180125205Y-63252256D01*
X180203226Y-63063898D01*
X180243000Y-62863939D01*
X180243000Y-62801801D01*
X182846005Y-60198797D01*
X182875002Y-60175000D01*
X182969975Y-60059275D01*
X183040547Y-59927246D01*
X183084004Y-59783985D01*
X183095001Y-59672332D01*
X183095001Y-59672323D01*
X183098677Y-59635000D01*
X183095001Y-59597677D01*
X183095001Y-57779509D01*
X183098677Y-57742186D01*
X183095001Y-57704863D01*
X183095001Y-57704853D01*
X183084004Y-57593200D01*
X183040547Y-57449939D01*
X182978049Y-57333015D01*
X182969975Y-57317909D01*
X182898800Y-57231183D01*
X182875002Y-57202185D01*
X182846004Y-57178387D01*
X182342414Y-56674797D01*
X182413937Y-56603274D01*
X182527205Y-56433756D01*
X182605226Y-56245398D01*
X182645000Y-56045439D01*
X182645000Y-55841561D01*
X182605226Y-55641602D01*
X182527205Y-55453244D01*
X182413937Y-55283726D01*
X182370000Y-55239789D01*
X182370000Y-51548823D01*
X182373676Y-51511498D01*
X182370000Y-51474173D01*
X182370000Y-51474165D01*
X182359003Y-51362512D01*
X182315546Y-51219251D01*
X182244974Y-51087222D01*
X182150001Y-50971497D01*
X182121003Y-50947699D01*
X179255805Y-48082502D01*
X179232002Y-48053498D01*
X179116277Y-47958525D01*
X178984248Y-47887953D01*
X178840987Y-47844496D01*
X178729334Y-47833499D01*
X178729323Y-47833499D01*
X178692001Y-47829823D01*
X178654679Y-47833499D01*
X177249323Y-47833499D01*
X177212000Y-47829823D01*
X177174677Y-47833499D01*
X177174668Y-47833499D01*
X177063015Y-47844496D01*
X176919754Y-47887953D01*
X176787725Y-47958525D01*
X176672000Y-48053498D01*
X176648197Y-48082502D01*
X176431881Y-48298818D01*
X176276351Y-48283500D01*
X176147649Y-48283500D01*
X175955195Y-48302455D01*
X175708259Y-48377362D01*
X175480682Y-48499005D01*
X175281208Y-48662708D01*
X175212000Y-48747039D01*
X175142792Y-48662708D01*
X174943318Y-48499005D01*
X174715741Y-48377362D01*
X174468805Y-48302455D01*
X174276351Y-48283500D01*
X174147649Y-48283500D01*
X173955195Y-48302455D01*
X173708259Y-48377362D01*
X173480682Y-48499005D01*
X173411074Y-48556131D01*
X173338185Y-48467315D01*
X173241494Y-48387963D01*
X173131180Y-48328998D01*
X173011482Y-48292688D01*
X172887000Y-48280428D01*
X171537000Y-48280428D01*
X171412518Y-48292688D01*
X171292820Y-48328998D01*
X171182506Y-48387963D01*
X171085815Y-48467315D01*
X171006463Y-48564006D01*
X170947498Y-48674320D01*
X170911188Y-48794018D01*
X170898928Y-48918500D01*
X170898928Y-48939174D01*
X170862724Y-48958526D01*
X170862722Y-48958527D01*
X170862723Y-48958527D01*
X170775996Y-49029701D01*
X170775992Y-49029705D01*
X170746999Y-49053499D01*
X170723205Y-49082492D01*
X169668998Y-50136701D01*
X169640000Y-50160499D01*
X169616202Y-50189497D01*
X169616201Y-50189498D01*
X169545026Y-50276224D01*
X169474454Y-50408254D01*
X169430998Y-50551515D01*
X169416324Y-50700500D01*
X169420001Y-50737832D01*
X169420000Y-52945199D01*
X166738803Y-50264002D01*
X166715000Y-50234998D01*
X166599275Y-50140025D01*
X166467246Y-50069453D01*
X166323985Y-50025996D01*
X166212332Y-50014999D01*
X166212321Y-50014999D01*
X166174999Y-50011323D01*
X166137677Y-50014999D01*
X155321000Y-50014999D01*
X155321000Y-39776000D01*
X218009000Y-39776000D01*
X218009000Y-72009000D01*
X203454000Y-72009000D01*
X203429224Y-72011440D01*
X203405399Y-72018667D01*
X203383443Y-72030403D01*
X203364197Y-72046197D01*
X203348403Y-72065443D01*
X203336667Y-72087399D01*
X203329440Y-72111224D01*
X203327000Y-72136000D01*
X203327000Y-74676000D01*
X203329440Y-74700776D01*
X203336667Y-74724601D01*
X203348403Y-74746557D01*
X203364197Y-74765803D01*
X203383443Y-74781597D01*
X203405399Y-74793333D01*
X203429224Y-74800560D01*
X203454000Y-74803000D01*
X218009000Y-74803000D01*
X218009001Y-119711000D01*
X79679000Y-119711000D01*
X79679000Y-108300760D01*
X95020700Y-108300760D01*
X95020700Y-108765640D01*
X95111394Y-109221587D01*
X95289295Y-109651079D01*
X95547568Y-110037612D01*
X95876288Y-110366332D01*
X96262821Y-110624605D01*
X96692313Y-110802506D01*
X97148260Y-110893200D01*
X97613140Y-110893200D01*
X98069087Y-110802506D01*
X98498579Y-110624605D01*
X98885112Y-110366332D01*
X99213832Y-110037612D01*
X99472105Y-109651079D01*
X99650006Y-109221587D01*
X99740700Y-108765640D01*
X99740700Y-108352961D01*
X159080700Y-108352961D01*
X159080700Y-108713439D01*
X159151025Y-109066991D01*
X159288975Y-109400030D01*
X159489246Y-109699757D01*
X159744143Y-109954654D01*
X160043870Y-110154925D01*
X160376909Y-110292875D01*
X160730461Y-110363200D01*
X161090939Y-110363200D01*
X161444491Y-110292875D01*
X161777530Y-110154925D01*
X162077257Y-109954654D01*
X162332154Y-109699757D01*
X162532425Y-109400030D01*
X162670375Y-109066991D01*
X162740700Y-108713439D01*
X162740700Y-108352961D01*
X162670375Y-107999409D01*
X162532425Y-107666370D01*
X162332154Y-107366643D01*
X162077257Y-107111746D01*
X161777530Y-106911475D01*
X161444491Y-106773525D01*
X161090939Y-106703200D01*
X160730461Y-106703200D01*
X160376909Y-106773525D01*
X160043870Y-106911475D01*
X159744143Y-107111746D01*
X159489246Y-107366643D01*
X159288975Y-107666370D01*
X159151025Y-107999409D01*
X159080700Y-108352961D01*
X99740700Y-108352961D01*
X99740700Y-108300760D01*
X99650006Y-107844813D01*
X99472105Y-107415321D01*
X99213832Y-107028788D01*
X98885112Y-106700068D01*
X98498579Y-106441795D01*
X98069087Y-106263894D01*
X97613140Y-106173200D01*
X97148260Y-106173200D01*
X96692313Y-106263894D01*
X96262821Y-106441795D01*
X95876288Y-106700068D01*
X95547568Y-107028788D01*
X95289295Y-107415321D01*
X95111394Y-107844813D01*
X95020700Y-108300760D01*
X79679000Y-108300760D01*
X79679000Y-60428500D01*
X119730628Y-60428500D01*
X119742888Y-60552982D01*
X119779198Y-60672680D01*
X119838163Y-60782994D01*
X119917515Y-60879685D01*
X120014206Y-60959037D01*
X120124520Y-61018002D01*
X120244218Y-61054312D01*
X120368700Y-61066572D01*
X120757950Y-61063500D01*
X120916700Y-60904750D01*
X120916700Y-59880500D01*
X121170700Y-59880500D01*
X121170700Y-60904750D01*
X121329450Y-61063500D01*
X121718700Y-61066572D01*
X121843182Y-61054312D01*
X121962880Y-61018002D01*
X122073194Y-60959037D01*
X122169885Y-60879685D01*
X122249237Y-60782994D01*
X122308202Y-60672680D01*
X122344512Y-60552982D01*
X122356772Y-60428500D01*
X122353700Y-60039250D01*
X122194950Y-59880500D01*
X121170700Y-59880500D01*
X120916700Y-59880500D01*
X119892450Y-59880500D01*
X119733700Y-60039250D01*
X119730628Y-60428500D01*
X79679000Y-60428500D01*
X79679000Y-59078500D01*
X119730628Y-59078500D01*
X119733700Y-59467750D01*
X119892450Y-59626500D01*
X120916700Y-59626500D01*
X120916700Y-58602250D01*
X121170700Y-58602250D01*
X121170700Y-59626500D01*
X122194950Y-59626500D01*
X122353700Y-59467750D01*
X122356772Y-59078500D01*
X122344512Y-58954018D01*
X122308202Y-58834320D01*
X122249237Y-58724006D01*
X122169885Y-58627315D01*
X122073194Y-58547963D01*
X121962880Y-58488998D01*
X121843182Y-58452688D01*
X121718700Y-58440428D01*
X121329450Y-58443500D01*
X121170700Y-58602250D01*
X120916700Y-58602250D01*
X120757950Y-58443500D01*
X120368700Y-58440428D01*
X120244218Y-58452688D01*
X120124520Y-58488998D01*
X120014206Y-58547963D01*
X119917515Y-58627315D01*
X119838163Y-58724006D01*
X119779198Y-58834320D01*
X119742888Y-58954018D01*
X119730628Y-59078500D01*
X79679000Y-59078500D01*
X79679000Y-39776000D01*
X152527000Y-39776000D01*
X152527000Y-50014999D01*
X152527000Y-50014999D01*
G37*
X152527000Y-50014999D02*
X135186958Y-50014999D01*
X135149635Y-50011323D01*
X135112312Y-50014999D01*
X135112303Y-50014999D01*
X135000650Y-50025996D01*
X134857389Y-50069453D01*
X134725360Y-50140025D01*
X134609635Y-50234998D01*
X134585837Y-50263996D01*
X106063997Y-78785837D01*
X106034999Y-78809635D01*
X106011201Y-78838633D01*
X106011200Y-78838634D01*
X105940025Y-78925360D01*
X105869453Y-79057390D01*
X105825997Y-79200651D01*
X105811323Y-79349636D01*
X105815000Y-79386968D01*
X105814999Y-83810678D01*
X105811323Y-83848001D01*
X105814999Y-83885323D01*
X105814999Y-83885333D01*
X105825996Y-83996986D01*
X105859975Y-84109002D01*
X105869453Y-84140247D01*
X105940025Y-84272277D01*
X105966008Y-84303937D01*
X106034998Y-84388002D01*
X106064002Y-84411805D01*
X106388195Y-84735998D01*
X106411998Y-84765002D01*
X106527723Y-84859975D01*
X106574502Y-84884979D01*
X106659752Y-84930547D01*
X106803013Y-84974004D01*
X106951999Y-84988678D01*
X106989332Y-84985001D01*
X108954600Y-84985001D01*
X110750400Y-86780802D01*
X110750400Y-86842939D01*
X110790174Y-87042898D01*
X110868195Y-87231256D01*
X110981463Y-87400774D01*
X111125626Y-87544937D01*
X111295144Y-87658205D01*
X111483502Y-87736226D01*
X111683461Y-87776000D01*
X111887339Y-87776000D01*
X112087298Y-87736226D01*
X112275656Y-87658205D01*
X112445174Y-87544937D01*
X112589337Y-87400774D01*
X112702605Y-87231256D01*
X112780626Y-87042898D01*
X112820400Y-86842939D01*
X112820400Y-86639061D01*
X112780626Y-86439102D01*
X112702605Y-86250744D01*
X112589337Y-86081226D01*
X112445174Y-85937063D01*
X112275656Y-85823795D01*
X112087298Y-85745774D01*
X111887339Y-85706000D01*
X111825202Y-85706000D01*
X109833205Y-83714004D01*
X109809402Y-83685000D01*
X109693677Y-83590027D01*
X109561648Y-83519455D01*
X109418387Y-83475998D01*
X109306734Y-83465001D01*
X109306723Y-83465001D01*
X109269401Y-83461325D01*
X109232079Y-83465001D01*
X108335000Y-83465001D01*
X108335000Y-83398061D01*
X108310000Y-83272377D01*
X108310000Y-80032953D01*
X120369710Y-67973243D01*
X120463394Y-68148514D01*
X120648966Y-68374634D01*
X120875086Y-68560206D01*
X121133066Y-68698099D01*
X121412989Y-68783013D01*
X121631150Y-68804500D01*
X121777050Y-68804500D01*
X121995211Y-68783013D01*
X122070096Y-68760297D01*
X125004300Y-71694502D01*
X125028099Y-71723501D01*
X125143824Y-71818474D01*
X125275853Y-71889046D01*
X125419114Y-71932503D01*
X125530767Y-71943500D01*
X125530776Y-71943500D01*
X125568099Y-71947176D01*
X125605422Y-71943500D01*
X131739299Y-71943500D01*
X135395418Y-75599620D01*
X135373762Y-75819500D01*
X135399055Y-76076305D01*
X135473962Y-76323241D01*
X135595605Y-76550818D01*
X135759308Y-76750292D01*
X135843639Y-76819500D01*
X135759308Y-76888708D01*
X135619144Y-77059500D01*
X125534603Y-77059500D01*
X125497280Y-77055824D01*
X125459957Y-77059500D01*
X125459947Y-77059500D01*
X125348294Y-77070497D01*
X125205033Y-77113954D01*
X125073004Y-77184526D01*
X124957279Y-77279499D01*
X124933481Y-77308497D01*
X121236278Y-81005701D01*
X121207280Y-81029499D01*
X121183482Y-81058497D01*
X121183481Y-81058498D01*
X121112306Y-81145224D01*
X121092954Y-81181428D01*
X120897280Y-81181428D01*
X120772798Y-81193688D01*
X120653100Y-81229998D01*
X120542786Y-81288963D01*
X120446095Y-81368315D01*
X120366743Y-81465006D01*
X120307778Y-81575320D01*
X120271468Y-81695018D01*
X120259208Y-81819500D01*
X120259208Y-83519500D01*
X120271468Y-83643982D01*
X120307778Y-83763680D01*
X120366743Y-83873994D01*
X120446095Y-83970685D01*
X120542786Y-84050037D01*
X120653100Y-84109002D01*
X120772798Y-84145312D01*
X120897280Y-84157572D01*
X122597280Y-84157572D01*
X122721762Y-84145312D01*
X122841460Y-84109002D01*
X122951774Y-84050037D01*
X123048465Y-83970685D01*
X123127817Y-83873994D01*
X123186782Y-83763680D01*
X123207673Y-83694813D01*
X123232146Y-83724634D01*
X123458266Y-83910206D01*
X123716246Y-84048099D01*
X123996169Y-84133013D01*
X124214330Y-84154500D01*
X124360230Y-84154500D01*
X124578391Y-84133013D01*
X124858314Y-84048099D01*
X125116294Y-83910206D01*
X125342414Y-83724634D01*
X125527986Y-83498514D01*
X125557280Y-83443709D01*
X125586574Y-83498514D01*
X125772146Y-83724634D01*
X125998266Y-83910206D01*
X126256246Y-84048099D01*
X126536169Y-84133013D01*
X126754330Y-84154500D01*
X126900230Y-84154500D01*
X127118391Y-84133013D01*
X127398314Y-84048099D01*
X127656294Y-83910206D01*
X127882414Y-83724634D01*
X128067986Y-83498514D01*
X128104875Y-83429500D01*
X135802778Y-83429500D01*
X135840100Y-83433176D01*
X135877422Y-83429500D01*
X135877433Y-83429500D01*
X135989086Y-83418503D01*
X136132347Y-83375046D01*
X136264376Y-83304474D01*
X136380101Y-83209501D01*
X136403903Y-83180498D01*
X136470219Y-83114182D01*
X136625749Y-83129500D01*
X136754451Y-83129500D01*
X136946905Y-83110545D01*
X137193841Y-83035638D01*
X137421418Y-82913995D01*
X137620892Y-82750292D01*
X137784595Y-82550818D01*
X137906238Y-82323241D01*
X137981145Y-82076305D01*
X138006438Y-81819500D01*
X137981145Y-81562695D01*
X137906238Y-81315759D01*
X137784595Y-81088182D01*
X137620892Y-80888708D01*
X137536561Y-80819500D01*
X137620892Y-80750292D01*
X137784595Y-80550818D01*
X137906238Y-80323241D01*
X137955766Y-80159967D01*
X149770699Y-91974901D01*
X149770700Y-93479869D01*
X149767023Y-93517201D01*
X149770700Y-93554534D01*
X149781532Y-93664506D01*
X149781697Y-93666186D01*
X149825153Y-93809447D01*
X149895725Y-93941477D01*
X149959347Y-94019000D01*
X149990699Y-94057202D01*
X150019697Y-94081000D01*
X165602900Y-109664204D01*
X165626698Y-109693202D01*
X165742423Y-109788175D01*
X165874452Y-109858747D01*
X166017713Y-109902204D01*
X166129366Y-109913201D01*
X166129375Y-109913201D01*
X166166698Y-109916877D01*
X166204021Y-109913201D01*
X174775377Y-109913201D01*
X174812699Y-109916877D01*
X174850021Y-109913201D01*
X174850032Y-109913201D01*
X174961685Y-109902204D01*
X175104946Y-109858747D01*
X175236975Y-109788175D01*
X175352700Y-109693202D01*
X175376503Y-109664198D01*
X175592819Y-109447882D01*
X175748349Y-109463200D01*
X175877051Y-109463200D01*
X176069505Y-109444245D01*
X176316441Y-109369338D01*
X176544018Y-109247695D01*
X176743492Y-109083992D01*
X176812700Y-108999661D01*
X176881908Y-109083992D01*
X177081382Y-109247695D01*
X177308959Y-109369338D01*
X177555895Y-109444245D01*
X177748349Y-109463200D01*
X177877051Y-109463200D01*
X178069505Y-109444245D01*
X178316441Y-109369338D01*
X178544018Y-109247695D01*
X178743492Y-109083992D01*
X178812700Y-108999661D01*
X178881908Y-109083992D01*
X179081382Y-109247695D01*
X179308959Y-109369338D01*
X179555895Y-109444245D01*
X179748349Y-109463200D01*
X179877051Y-109463200D01*
X180069505Y-109444245D01*
X180316441Y-109369338D01*
X180544018Y-109247695D01*
X180743492Y-109083992D01*
X180812700Y-108999661D01*
X180881908Y-109083992D01*
X181081382Y-109247695D01*
X181308959Y-109369338D01*
X181555895Y-109444245D01*
X181748349Y-109463200D01*
X181877051Y-109463200D01*
X182069505Y-109444245D01*
X182316441Y-109369338D01*
X182544018Y-109247695D01*
X182743492Y-109083992D01*
X182812700Y-108999661D01*
X182881908Y-109083992D01*
X183081382Y-109247695D01*
X183308959Y-109369338D01*
X183555895Y-109444245D01*
X183748349Y-109463200D01*
X183877051Y-109463200D01*
X184069505Y-109444245D01*
X184316441Y-109369338D01*
X184544018Y-109247695D01*
X184743492Y-109083992D01*
X184907195Y-108884518D01*
X185028838Y-108656941D01*
X185103745Y-108410005D01*
X185129038Y-108153200D01*
X185103745Y-107896395D01*
X185028838Y-107649459D01*
X184907195Y-107421882D01*
X184743492Y-107222408D01*
X184544018Y-107058705D01*
X184316441Y-106937062D01*
X184069505Y-106862155D01*
X183877051Y-106843200D01*
X183748349Y-106843200D01*
X183555895Y-106862155D01*
X183308959Y-106937062D01*
X183081382Y-107058705D01*
X182881908Y-107222408D01*
X182812700Y-107306739D01*
X182743492Y-107222408D01*
X182544018Y-107058705D01*
X182316441Y-106937062D01*
X182069505Y-106862155D01*
X181877051Y-106843200D01*
X181748349Y-106843200D01*
X181555895Y-106862155D01*
X181308959Y-106937062D01*
X181081382Y-107058705D01*
X180881908Y-107222408D01*
X180812700Y-107306739D01*
X180743492Y-107222408D01*
X180544018Y-107058705D01*
X180316441Y-106937062D01*
X180069505Y-106862155D01*
X179877051Y-106843200D01*
X179748349Y-106843200D01*
X179555895Y-106862155D01*
X179308959Y-106937062D01*
X179081382Y-107058705D01*
X178881908Y-107222408D01*
X178812700Y-107306739D01*
X178743492Y-107222408D01*
X178544018Y-107058705D01*
X178316441Y-106937062D01*
X178069505Y-106862155D01*
X177877051Y-106843200D01*
X177748349Y-106843200D01*
X177555895Y-106862155D01*
X177308959Y-106937062D01*
X177081382Y-107058705D01*
X176881908Y-107222408D01*
X176812700Y-107306739D01*
X176743492Y-107222408D01*
X176544018Y-107058705D01*
X176316441Y-106937062D01*
X176069505Y-106862155D01*
X175877051Y-106843200D01*
X175748349Y-106843200D01*
X175555895Y-106862155D01*
X175308959Y-106937062D01*
X175081382Y-107058705D01*
X175011774Y-107115831D01*
X174938885Y-107027015D01*
X174842194Y-106947663D01*
X174731880Y-106888698D01*
X174612182Y-106852388D01*
X174487700Y-106840128D01*
X173137700Y-106840128D01*
X173013218Y-106852388D01*
X172893520Y-106888698D01*
X172783206Y-106947663D01*
X172686515Y-107027015D01*
X172607163Y-107123706D01*
X172548198Y-107234020D01*
X172511888Y-107353718D01*
X172499628Y-107478200D01*
X172499628Y-108393201D01*
X166481501Y-108393201D01*
X152953566Y-94865267D01*
X153269087Y-94802506D01*
X153698579Y-94624605D01*
X154085112Y-94366332D01*
X154413832Y-94037612D01*
X154672105Y-93651079D01*
X154741021Y-93484700D01*
X167303515Y-93484700D01*
X167332187Y-93775811D01*
X167417101Y-94055734D01*
X167554994Y-94313714D01*
X167740566Y-94539834D01*
X167966686Y-94725406D01*
X168224666Y-94863299D01*
X168504589Y-94948213D01*
X168722750Y-94969700D01*
X168868650Y-94969700D01*
X169086811Y-94948213D01*
X169366734Y-94863299D01*
X169624714Y-94725406D01*
X169850834Y-94539834D01*
X170036406Y-94313714D01*
X170174299Y-94055734D01*
X170259213Y-93775811D01*
X170287885Y-93484700D01*
X170259213Y-93193589D01*
X170174299Y-92913666D01*
X170036406Y-92655686D01*
X169850834Y-92429566D01*
X169821013Y-92405093D01*
X169889880Y-92384202D01*
X169993154Y-92329000D01*
X178276315Y-92329000D01*
X178304987Y-92620111D01*
X178389901Y-92900034D01*
X178527794Y-93158014D01*
X178713366Y-93384134D01*
X178743187Y-93408607D01*
X178674320Y-93429498D01*
X178564006Y-93488463D01*
X178467315Y-93567815D01*
X178387963Y-93664506D01*
X178328998Y-93774820D01*
X178292688Y-93894518D01*
X178280428Y-94019000D01*
X178280428Y-95719000D01*
X178292688Y-95843482D01*
X178328998Y-95963180D01*
X178387963Y-96073494D01*
X178467315Y-96170185D01*
X178564006Y-96249537D01*
X178674320Y-96308502D01*
X178794018Y-96344812D01*
X178918500Y-96357072D01*
X180618500Y-96357072D01*
X180742982Y-96344812D01*
X180862680Y-96308502D01*
X180972994Y-96249537D01*
X181069685Y-96170185D01*
X181149037Y-96073494D01*
X181208002Y-95963180D01*
X181244312Y-95843482D01*
X181256572Y-95719000D01*
X181256572Y-94019000D01*
X181244312Y-93894518D01*
X181208002Y-93774820D01*
X181149037Y-93664506D01*
X181069685Y-93567815D01*
X180972994Y-93488463D01*
X180862680Y-93429498D01*
X180793813Y-93408607D01*
X180823634Y-93384134D01*
X181009206Y-93158014D01*
X181147099Y-92900034D01*
X181232013Y-92620111D01*
X181260685Y-92329000D01*
X181232013Y-92037889D01*
X181147099Y-91757966D01*
X181009206Y-91499986D01*
X180823634Y-91273866D01*
X180597514Y-91088294D01*
X180339534Y-90950401D01*
X180059611Y-90865487D01*
X179841450Y-90844000D01*
X179695550Y-90844000D01*
X179477389Y-90865487D01*
X179197466Y-90950401D01*
X178939486Y-91088294D01*
X178713366Y-91273866D01*
X178527794Y-91499986D01*
X178389901Y-91757966D01*
X178304987Y-92037889D01*
X178276315Y-92329000D01*
X169993154Y-92329000D01*
X170000194Y-92325237D01*
X170096885Y-92245885D01*
X170176237Y-92149194D01*
X170235202Y-92038880D01*
X170271512Y-91919182D01*
X170283772Y-91794700D01*
X170280700Y-91230450D01*
X170121950Y-91071700D01*
X168922700Y-91071700D01*
X168922700Y-91091700D01*
X168668700Y-91091700D01*
X168668700Y-91071700D01*
X167469450Y-91071700D01*
X167310700Y-91230450D01*
X167307628Y-91794700D01*
X167319888Y-91919182D01*
X167356198Y-92038880D01*
X167415163Y-92149194D01*
X167494515Y-92245885D01*
X167591206Y-92325237D01*
X167701520Y-92384202D01*
X167770387Y-92405093D01*
X167740566Y-92429566D01*
X167554994Y-92655686D01*
X167417101Y-92913666D01*
X167332187Y-93193589D01*
X167303515Y-93484700D01*
X154741021Y-93484700D01*
X154850006Y-93221587D01*
X154940700Y-92765640D01*
X154940700Y-92300760D01*
X154850006Y-91844813D01*
X154672105Y-91415321D01*
X154413832Y-91028788D01*
X154085112Y-90700068D01*
X153698579Y-90441795D01*
X153269087Y-90263894D01*
X152813140Y-90173200D01*
X152348260Y-90173200D01*
X151892313Y-90263894D01*
X151462821Y-90441795D01*
X151076288Y-90700068D01*
X150860879Y-90915477D01*
X150040102Y-90094700D01*
X167307628Y-90094700D01*
X167310700Y-90658950D01*
X167469450Y-90817700D01*
X168668700Y-90817700D01*
X168668700Y-89618450D01*
X168922700Y-89618450D01*
X168922700Y-90817700D01*
X170121950Y-90817700D01*
X170280700Y-90658950D01*
X170283772Y-90094700D01*
X170271512Y-89970218D01*
X170235202Y-89850520D01*
X170176237Y-89740206D01*
X170096885Y-89643515D01*
X170000194Y-89564163D01*
X169889880Y-89505198D01*
X169770182Y-89468888D01*
X169645700Y-89456628D01*
X169081450Y-89459700D01*
X168922700Y-89618450D01*
X168668700Y-89618450D01*
X168509950Y-89459700D01*
X167945700Y-89456628D01*
X167821218Y-89468888D01*
X167701520Y-89505198D01*
X167591206Y-89564163D01*
X167494515Y-89643515D01*
X167415163Y-89740206D01*
X167356198Y-89850520D01*
X167319888Y-89970218D01*
X167307628Y-90094700D01*
X150040102Y-90094700D01*
X137984782Y-78039381D01*
X138006438Y-77819500D01*
X137981145Y-77562695D01*
X137906238Y-77315759D01*
X137784595Y-77088182D01*
X137620892Y-76888708D01*
X137536561Y-76819500D01*
X137620892Y-76750292D01*
X137784595Y-76550818D01*
X137906238Y-76323241D01*
X137981145Y-76076305D01*
X138006438Y-75819500D01*
X137981145Y-75562695D01*
X137906238Y-75315759D01*
X137784595Y-75088182D01*
X137620892Y-74888708D01*
X137536561Y-74819500D01*
X137620892Y-74750292D01*
X137784595Y-74550818D01*
X137906238Y-74323241D01*
X137981145Y-74076305D01*
X138006438Y-73819500D01*
X137981145Y-73562695D01*
X137906238Y-73315759D01*
X137784595Y-73088182D01*
X137727469Y-73018574D01*
X137816285Y-72945685D01*
X137895637Y-72848994D01*
X137954602Y-72738680D01*
X137990912Y-72618982D01*
X138003172Y-72494500D01*
X138003172Y-71144500D01*
X137990912Y-71020018D01*
X137954602Y-70900320D01*
X137895637Y-70790006D01*
X137816285Y-70693315D01*
X137719594Y-70613963D01*
X137609280Y-70554998D01*
X137489582Y-70518688D01*
X137365100Y-70506428D01*
X137344426Y-70506428D01*
X137325074Y-70470224D01*
X137297376Y-70436474D01*
X137253899Y-70383496D01*
X137253895Y-70383492D01*
X137230101Y-70354499D01*
X137201109Y-70330706D01*
X133678904Y-66808503D01*
X133655101Y-66779499D01*
X133539376Y-66684526D01*
X133407347Y-66613954D01*
X133264086Y-66570497D01*
X133152433Y-66559500D01*
X133152422Y-66559500D01*
X133115100Y-66555824D01*
X133077778Y-66559500D01*
X128272172Y-66559500D01*
X128272172Y-66469500D01*
X128259912Y-66345018D01*
X128223602Y-66225320D01*
X128164637Y-66115006D01*
X128085285Y-66018315D01*
X127988594Y-65938963D01*
X127878280Y-65879998D01*
X127758582Y-65843688D01*
X127634100Y-65831428D01*
X125934100Y-65831428D01*
X125809618Y-65843688D01*
X125689920Y-65879998D01*
X125579606Y-65938963D01*
X125482915Y-66018315D01*
X125403563Y-66115006D01*
X125344598Y-66225320D01*
X125323707Y-66294187D01*
X125299234Y-66264366D01*
X125073114Y-66078794D01*
X124815134Y-65940901D01*
X124535211Y-65855987D01*
X124317050Y-65834500D01*
X124171150Y-65834500D01*
X123952989Y-65855987D01*
X123673066Y-65940901D01*
X123415086Y-66078794D01*
X123188966Y-66264366D01*
X123003394Y-66490486D01*
X122974100Y-66545291D01*
X122944806Y-66490486D01*
X122759234Y-66264366D01*
X122533114Y-66078794D01*
X122357843Y-65985110D01*
X135832954Y-52510000D01*
X152527000Y-52510000D01*
X152527000Y-74676000D01*
X152529440Y-74700776D01*
X152536667Y-74724601D01*
X152548403Y-74746557D01*
X152564197Y-74765803D01*
X152583443Y-74781597D01*
X152605399Y-74793333D01*
X152629224Y-74800560D01*
X152654000Y-74803000D01*
X181993001Y-74803000D01*
X181993000Y-89434178D01*
X181989324Y-89471500D01*
X181993000Y-89508822D01*
X181993000Y-89508832D01*
X182003997Y-89620485D01*
X182047454Y-89763746D01*
X182118026Y-89895776D01*
X182157871Y-89944326D01*
X182212999Y-90011501D01*
X182242003Y-90035304D01*
X186061400Y-93854702D01*
X186061400Y-93916839D01*
X186101174Y-94116798D01*
X186179195Y-94305156D01*
X186292463Y-94474674D01*
X186436626Y-94618837D01*
X186606144Y-94732105D01*
X186794502Y-94810126D01*
X186994461Y-94849900D01*
X187198339Y-94849900D01*
X187398298Y-94810126D01*
X187586656Y-94732105D01*
X187756174Y-94618837D01*
X187900337Y-94474674D01*
X188013605Y-94305156D01*
X188091626Y-94116798D01*
X188131400Y-93916839D01*
X188131400Y-93712961D01*
X188091626Y-93513002D01*
X188013605Y-93324644D01*
X187900337Y-93155126D01*
X187756174Y-93010963D01*
X187586656Y-92897695D01*
X187398298Y-92819674D01*
X187198339Y-92779900D01*
X187136202Y-92779900D01*
X185135563Y-90779261D01*
X185794700Y-90779261D01*
X185794700Y-90983139D01*
X185834474Y-91183098D01*
X185912495Y-91371456D01*
X186025763Y-91540974D01*
X186169926Y-91685137D01*
X186339444Y-91798405D01*
X186527802Y-91876426D01*
X186727761Y-91916200D01*
X186931639Y-91916200D01*
X187131598Y-91876426D01*
X187319956Y-91798405D01*
X187489474Y-91685137D01*
X187490954Y-91683657D01*
X187492695Y-91685398D01*
X187516498Y-91714402D01*
X187632223Y-91809375D01*
X187764252Y-91879947D01*
X187907513Y-91923404D01*
X188019166Y-91934401D01*
X188019176Y-91934401D01*
X188056499Y-91938077D01*
X188093822Y-91934401D01*
X189578779Y-91934401D01*
X189616101Y-91938077D01*
X189653423Y-91934401D01*
X189653434Y-91934401D01*
X189765087Y-91923404D01*
X189908348Y-91879947D01*
X190040377Y-91809375D01*
X190156102Y-91714402D01*
X190179905Y-91685398D01*
X191766705Y-90098599D01*
X191795702Y-90074802D01*
X191890675Y-89959077D01*
X191951287Y-89845681D01*
X191957598Y-89844426D01*
X192145956Y-89766405D01*
X192315474Y-89653137D01*
X192459637Y-89508974D01*
X192572905Y-89339456D01*
X192650926Y-89151098D01*
X192690700Y-88951139D01*
X192690700Y-88747261D01*
X192650926Y-88547302D01*
X192572905Y-88358944D01*
X192459637Y-88189426D01*
X192315474Y-88045263D01*
X192145956Y-87931995D01*
X191957598Y-87853974D01*
X191757639Y-87814200D01*
X191553761Y-87814200D01*
X191353802Y-87853974D01*
X191165444Y-87931995D01*
X190995926Y-88045263D01*
X190851763Y-88189426D01*
X190738495Y-88358944D01*
X190660474Y-88547302D01*
X190620700Y-88747261D01*
X190620700Y-88824974D01*
X190550155Y-88956952D01*
X190506698Y-89100213D01*
X190495701Y-89211866D01*
X190495701Y-89211877D01*
X190494814Y-89220887D01*
X189301300Y-90414401D01*
X188371300Y-90414401D01*
X188327102Y-90370203D01*
X188303299Y-90341199D01*
X188187574Y-90246226D01*
X188055545Y-90175654D01*
X187912284Y-90132197D01*
X187800631Y-90121200D01*
X187800620Y-90121200D01*
X187763298Y-90117524D01*
X187725976Y-90121200D01*
X187533411Y-90121200D01*
X187489474Y-90077263D01*
X187319956Y-89963995D01*
X187131598Y-89885974D01*
X186931639Y-89846200D01*
X186727761Y-89846200D01*
X186527802Y-89885974D01*
X186339444Y-89963995D01*
X186169926Y-90077263D01*
X186025763Y-90221426D01*
X185912495Y-90390944D01*
X185834474Y-90579302D01*
X185794700Y-90779261D01*
X185135563Y-90779261D01*
X183513000Y-89156699D01*
X183513000Y-78268200D01*
X186850128Y-78268200D01*
X186850128Y-79618200D01*
X186862388Y-79742682D01*
X186898698Y-79862380D01*
X186957663Y-79972694D01*
X187037015Y-80069385D01*
X187133706Y-80148737D01*
X187244020Y-80207702D01*
X187363718Y-80244012D01*
X187488200Y-80256272D01*
X188838200Y-80256272D01*
X188962682Y-80244012D01*
X189082380Y-80207702D01*
X189192694Y-80148737D01*
X189289385Y-80069385D01*
X189368737Y-79972694D01*
X189427702Y-79862380D01*
X189464012Y-79742682D01*
X189476272Y-79618200D01*
X189476272Y-78268200D01*
X189464012Y-78143718D01*
X189427702Y-78024020D01*
X189368737Y-77913706D01*
X189289385Y-77817015D01*
X189192694Y-77737663D01*
X189082380Y-77678698D01*
X188962682Y-77642388D01*
X188838200Y-77630128D01*
X187488200Y-77630128D01*
X187363718Y-77642388D01*
X187244020Y-77678698D01*
X187133706Y-77737663D01*
X187037015Y-77817015D01*
X186957663Y-77913706D01*
X186898698Y-78024020D01*
X186862388Y-78143718D01*
X186850128Y-78268200D01*
X183513000Y-78268200D01*
X183513000Y-74803000D01*
X187901199Y-74803000D01*
X193451700Y-80353502D01*
X193451699Y-81491878D01*
X193448023Y-81529201D01*
X193451699Y-81566523D01*
X193451699Y-81566533D01*
X193462696Y-81678186D01*
X193505562Y-81819500D01*
X193506153Y-81821447D01*
X193576725Y-81953477D01*
X193589043Y-81968486D01*
X193671698Y-82069202D01*
X193700702Y-82093005D01*
X196383202Y-84775506D01*
X196383202Y-86353700D01*
X196316261Y-86353700D01*
X196116302Y-86393474D01*
X195927944Y-86471495D01*
X195758426Y-86584763D01*
X195614263Y-86728926D01*
X195500995Y-86898444D01*
X195422974Y-87086802D01*
X195383200Y-87286761D01*
X195383200Y-87490639D01*
X195422974Y-87690598D01*
X195500995Y-87878956D01*
X195614263Y-88048474D01*
X195658200Y-88092411D01*
X195658201Y-92748368D01*
X195654524Y-92785700D01*
X195658201Y-92823033D01*
X195669198Y-92934686D01*
X195681092Y-92973895D01*
X195712654Y-93077946D01*
X195783226Y-93209976D01*
X195854401Y-93296702D01*
X195878200Y-93325701D01*
X195907198Y-93349499D01*
X196462700Y-93905002D01*
X196462700Y-93967139D01*
X196502474Y-94167098D01*
X196580495Y-94355456D01*
X196693763Y-94524974D01*
X196837926Y-94669137D01*
X197007444Y-94782405D01*
X197195802Y-94860426D01*
X197395761Y-94900200D01*
X197599639Y-94900200D01*
X197799598Y-94860426D01*
X197987956Y-94782405D01*
X198157474Y-94669137D01*
X198301637Y-94524974D01*
X198414905Y-94355456D01*
X198492926Y-94167098D01*
X198532700Y-93967139D01*
X198532700Y-93763261D01*
X198492926Y-93563302D01*
X198414905Y-93374944D01*
X198301637Y-93205426D01*
X198157474Y-93061263D01*
X197987956Y-92947995D01*
X197799598Y-92869974D01*
X197599639Y-92830200D01*
X197537502Y-92830200D01*
X197178200Y-92470899D01*
X197178200Y-91928103D01*
X199652199Y-94402103D01*
X199675997Y-94431101D01*
X199791722Y-94526074D01*
X199923751Y-94596646D01*
X200067012Y-94640103D01*
X200178665Y-94651100D01*
X200178674Y-94651100D01*
X200215997Y-94654776D01*
X200253320Y-94651100D01*
X201886689Y-94651100D01*
X201930626Y-94695037D01*
X202100144Y-94808305D01*
X202288502Y-94886326D01*
X202488461Y-94926100D01*
X202692339Y-94926100D01*
X202892298Y-94886326D01*
X203080656Y-94808305D01*
X203250174Y-94695037D01*
X203394337Y-94550874D01*
X203507605Y-94381356D01*
X203585626Y-94192998D01*
X203625400Y-93993039D01*
X203625400Y-93789161D01*
X203585626Y-93589202D01*
X203507605Y-93400844D01*
X203394337Y-93231326D01*
X203250174Y-93087163D01*
X203080656Y-92973895D01*
X202892298Y-92895874D01*
X202692339Y-92856100D01*
X202488461Y-92856100D01*
X202288502Y-92895874D01*
X202100144Y-92973895D01*
X201930626Y-93087163D01*
X201886689Y-93131100D01*
X200530800Y-93131100D01*
X198703705Y-91304006D01*
X198774887Y-91232824D01*
X198888155Y-91063306D01*
X198900600Y-91033261D01*
X199383700Y-91033261D01*
X199383700Y-91237139D01*
X199423474Y-91437098D01*
X199501495Y-91625456D01*
X199614763Y-91794974D01*
X199758926Y-91939137D01*
X199928444Y-92052405D01*
X200116802Y-92130426D01*
X200316761Y-92170200D01*
X200520639Y-92170200D01*
X200720598Y-92130426D01*
X200908956Y-92052405D01*
X201078474Y-91939137D01*
X201222637Y-91794974D01*
X201335905Y-91625456D01*
X201413926Y-91437098D01*
X201435451Y-91328880D01*
X208148028Y-91328880D01*
X208148028Y-92678880D01*
X208160288Y-92803362D01*
X208196598Y-92923060D01*
X208255563Y-93033374D01*
X208334915Y-93130065D01*
X208431606Y-93209417D01*
X208541920Y-93268382D01*
X208661618Y-93304692D01*
X208786100Y-93316952D01*
X210136100Y-93316952D01*
X210260582Y-93304692D01*
X210380280Y-93268382D01*
X210490594Y-93209417D01*
X210587285Y-93130065D01*
X210666637Y-93033374D01*
X210725602Y-92923060D01*
X210761912Y-92803362D01*
X210774172Y-92678880D01*
X210774172Y-91328880D01*
X210761912Y-91204398D01*
X210725602Y-91084700D01*
X210666637Y-90974386D01*
X210587285Y-90877695D01*
X210490594Y-90798343D01*
X210380280Y-90739378D01*
X210260582Y-90703068D01*
X210136100Y-90690808D01*
X208786100Y-90690808D01*
X208661618Y-90703068D01*
X208541920Y-90739378D01*
X208431606Y-90798343D01*
X208334915Y-90877695D01*
X208255563Y-90974386D01*
X208196598Y-91084700D01*
X208160288Y-91204398D01*
X208148028Y-91328880D01*
X201435451Y-91328880D01*
X201453700Y-91237139D01*
X201453700Y-91033261D01*
X201413926Y-90833302D01*
X201335905Y-90644944D01*
X201222637Y-90475426D01*
X201078474Y-90331263D01*
X200908956Y-90217995D01*
X200720598Y-90139974D01*
X200520639Y-90100200D01*
X200316761Y-90100200D01*
X200116802Y-90139974D01*
X199928444Y-90217995D01*
X199758926Y-90331263D01*
X199614763Y-90475426D01*
X199501495Y-90644944D01*
X199423474Y-90833302D01*
X199383700Y-91033261D01*
X198900600Y-91033261D01*
X198966176Y-90874948D01*
X199005950Y-90674989D01*
X199005950Y-90612851D01*
X201059447Y-88559355D01*
X201094361Y-88566300D01*
X201298239Y-88566300D01*
X201498198Y-88526526D01*
X201686556Y-88448505D01*
X201856074Y-88335237D01*
X202000237Y-88191074D01*
X202113505Y-88021556D01*
X202191526Y-87833198D01*
X202231300Y-87633239D01*
X202231300Y-87429361D01*
X202191526Y-87229402D01*
X202113505Y-87041044D01*
X202000237Y-86871526D01*
X201856074Y-86727363D01*
X201686556Y-86614095D01*
X201498198Y-86536074D01*
X201298239Y-86496300D01*
X201094361Y-86496300D01*
X200894402Y-86536074D01*
X200706044Y-86614095D01*
X200536526Y-86727363D01*
X200392363Y-86871526D01*
X200279095Y-87041044D01*
X200201074Y-87229402D01*
X200191459Y-87277739D01*
X197931149Y-89538050D01*
X197903201Y-89538050D01*
X197903201Y-84498026D01*
X197906877Y-84460703D01*
X197903201Y-84423380D01*
X197903201Y-84423370D01*
X197892204Y-84311717D01*
X197848747Y-84168456D01*
X197784414Y-84048099D01*
X197778175Y-84036426D01*
X197707000Y-83949700D01*
X197683202Y-83920702D01*
X197654204Y-83896904D01*
X195664571Y-81907272D01*
X195886700Y-81907272D01*
X196011182Y-81895012D01*
X196130880Y-81858702D01*
X196241194Y-81799737D01*
X196337885Y-81720385D01*
X196417237Y-81623694D01*
X196476202Y-81513380D01*
X196512512Y-81393682D01*
X196524772Y-81269200D01*
X196524772Y-79919200D01*
X196512512Y-79794718D01*
X196476202Y-79675020D01*
X196417237Y-79564706D01*
X196337885Y-79468015D01*
X196241194Y-79388663D01*
X196130880Y-79329698D01*
X196011182Y-79293388D01*
X195886700Y-79281128D01*
X194536700Y-79281128D01*
X194529627Y-79281825D01*
X190050802Y-74803000D01*
X193294000Y-74803000D01*
X193318776Y-74800560D01*
X193342601Y-74793333D01*
X193364557Y-74781597D01*
X193383803Y-74765803D01*
X193399597Y-74746557D01*
X193411333Y-74724601D01*
X193418560Y-74700776D01*
X193421000Y-74676000D01*
X193421000Y-72136000D01*
X193418560Y-72111224D01*
X193411333Y-72087399D01*
X193399597Y-72065443D01*
X193383803Y-72046197D01*
X193364557Y-72030403D01*
X193342601Y-72018667D01*
X193318776Y-72011440D01*
X193294000Y-72009000D01*
X187256801Y-72009000D01*
X184689501Y-69441700D01*
X209113228Y-69441700D01*
X209113228Y-70791700D01*
X209125488Y-70916182D01*
X209161798Y-71035880D01*
X209220763Y-71146194D01*
X209300115Y-71242885D01*
X209396806Y-71322237D01*
X209507120Y-71381202D01*
X209626818Y-71417512D01*
X209751300Y-71429772D01*
X211101300Y-71429772D01*
X211225782Y-71417512D01*
X211345480Y-71381202D01*
X211455794Y-71322237D01*
X211552485Y-71242885D01*
X211631837Y-71146194D01*
X211690802Y-71035880D01*
X211727112Y-70916182D01*
X211739372Y-70791700D01*
X211739372Y-69441700D01*
X211727112Y-69317218D01*
X211690802Y-69197520D01*
X211631837Y-69087206D01*
X211552485Y-68990515D01*
X211455794Y-68911163D01*
X211345480Y-68852198D01*
X211225782Y-68815888D01*
X211101300Y-68803628D01*
X209751300Y-68803628D01*
X209626818Y-68815888D01*
X209507120Y-68852198D01*
X209396806Y-68911163D01*
X209300115Y-68990515D01*
X209220763Y-69087206D01*
X209161798Y-69197520D01*
X209125488Y-69317218D01*
X209113228Y-69441700D01*
X184689501Y-69441700D01*
X184538304Y-69290503D01*
X184514501Y-69261499D01*
X184398776Y-69166526D01*
X184266747Y-69095954D01*
X184123486Y-69052497D01*
X184045375Y-69044804D01*
X184069338Y-68801500D01*
X184047682Y-68581619D01*
X189007601Y-63621701D01*
X201347777Y-63621701D01*
X201385099Y-63625377D01*
X201422421Y-63621701D01*
X201422432Y-63621701D01*
X201534085Y-63610704D01*
X201677346Y-63567247D01*
X201809375Y-63496675D01*
X201925100Y-63401702D01*
X201948901Y-63372701D01*
X201971102Y-63350500D01*
X202000101Y-63326701D01*
X202095074Y-63210976D01*
X202114426Y-63174772D01*
X202135100Y-63174772D01*
X202259582Y-63162512D01*
X202379280Y-63126202D01*
X202489594Y-63067237D01*
X202586285Y-62987885D01*
X202665637Y-62891194D01*
X202724602Y-62780880D01*
X202760912Y-62661182D01*
X202773172Y-62536700D01*
X202773172Y-61623430D01*
X202822003Y-61574599D01*
X202851001Y-61550801D01*
X202945974Y-61435076D01*
X203016546Y-61303047D01*
X203060003Y-61159786D01*
X203071000Y-61048133D01*
X203071000Y-61048124D01*
X203074676Y-61010801D01*
X203071000Y-60973478D01*
X203071000Y-58679211D01*
X203114937Y-58635274D01*
X203228205Y-58465756D01*
X203306226Y-58277398D01*
X203346000Y-58077439D01*
X203346000Y-57873561D01*
X203306226Y-57673602D01*
X203232899Y-57496575D01*
X203247174Y-57487037D01*
X203391337Y-57342874D01*
X203504605Y-57173356D01*
X203582626Y-56984998D01*
X203622400Y-56785039D01*
X203622400Y-56722901D01*
X203866753Y-56478549D01*
X203895752Y-56454750D01*
X203990725Y-56339025D01*
X204061297Y-56206996D01*
X204104754Y-56063735D01*
X204115751Y-55952082D01*
X204115751Y-55952073D01*
X204119427Y-55914750D01*
X204115751Y-55877427D01*
X204115751Y-54551071D01*
X204119427Y-54513748D01*
X204115751Y-54476425D01*
X204115751Y-54476416D01*
X204104754Y-54364763D01*
X204061297Y-54221502D01*
X204041519Y-54184500D01*
X203990725Y-54089472D01*
X203919550Y-54002746D01*
X203895752Y-53973748D01*
X203866755Y-53949951D01*
X203191309Y-53274506D01*
X203191300Y-53274495D01*
X202555305Y-52638502D01*
X202531503Y-52609499D01*
X202415778Y-52514526D01*
X202283749Y-52443954D01*
X202140488Y-52400497D01*
X202028835Y-52389500D01*
X202028824Y-52389500D01*
X201991502Y-52385824D01*
X201954180Y-52389500D01*
X198569711Y-52389500D01*
X198525774Y-52345563D01*
X198356256Y-52232295D01*
X198167898Y-52154274D01*
X197967939Y-52114500D01*
X197764061Y-52114500D01*
X197564102Y-52154274D01*
X197375744Y-52232295D01*
X197206226Y-52345563D01*
X197062063Y-52489726D01*
X196948795Y-52659244D01*
X196870774Y-52847602D01*
X196831000Y-53047561D01*
X196831000Y-53251439D01*
X196870774Y-53451398D01*
X196948795Y-53639756D01*
X197062063Y-53809274D01*
X197206226Y-53953437D01*
X197375744Y-54066705D01*
X197564102Y-54144726D01*
X197764061Y-54184500D01*
X197967939Y-54184500D01*
X198167898Y-54144726D01*
X198356256Y-54066705D01*
X198525774Y-53953437D01*
X198569711Y-53909500D01*
X201676700Y-53909500D01*
X201897994Y-54130795D01*
X201826813Y-54201976D01*
X201713545Y-54371494D01*
X201635524Y-54559852D01*
X201595750Y-54759811D01*
X201595750Y-54821948D01*
X196949103Y-59468596D01*
X196920099Y-59492399D01*
X196864971Y-59559574D01*
X196825126Y-59608124D01*
X196790806Y-59672332D01*
X196754554Y-59740154D01*
X196711097Y-59883415D01*
X196700100Y-59995068D01*
X196700100Y-59995078D01*
X196696424Y-60032400D01*
X196700100Y-60069723D01*
X196700100Y-60790743D01*
X196529308Y-60930908D01*
X196460100Y-61015239D01*
X196390892Y-60930908D01*
X196220100Y-60790744D01*
X196220100Y-56191122D01*
X196223776Y-56153799D01*
X196220100Y-56116476D01*
X196220100Y-56116467D01*
X196209103Y-56004814D01*
X196165646Y-55861553D01*
X196095074Y-55729524D01*
X196000101Y-55613799D01*
X195971104Y-55590002D01*
X195116400Y-54735299D01*
X195116400Y-54673161D01*
X195076626Y-54473202D01*
X194998605Y-54284844D01*
X194885337Y-54115326D01*
X194741174Y-53971163D01*
X194571656Y-53857895D01*
X194383298Y-53779874D01*
X194183339Y-53740100D01*
X193979461Y-53740100D01*
X193779502Y-53779874D01*
X193591144Y-53857895D01*
X193421626Y-53971163D01*
X193277463Y-54115326D01*
X193164195Y-54284844D01*
X193086174Y-54473202D01*
X193046400Y-54673161D01*
X193046400Y-54877039D01*
X193086174Y-55076998D01*
X193164195Y-55265356D01*
X193277463Y-55434874D01*
X193421626Y-55579037D01*
X193523609Y-55647180D01*
X193414753Y-55756036D01*
X193301485Y-55925554D01*
X193223464Y-56113912D01*
X193183690Y-56313871D01*
X193183690Y-56376009D01*
X192949102Y-56610597D01*
X192920099Y-56634399D01*
X192864971Y-56701574D01*
X192825126Y-56750124D01*
X192774534Y-56844775D01*
X192754554Y-56882154D01*
X192711097Y-57025415D01*
X192700100Y-57137068D01*
X192700100Y-57137078D01*
X192696424Y-57174400D01*
X192700100Y-57211723D01*
X192700101Y-60790743D01*
X192529308Y-60930908D01*
X192365605Y-61130382D01*
X192243962Y-61357959D01*
X192169055Y-61604895D01*
X192143762Y-61861700D01*
X192167400Y-62101701D01*
X188730121Y-62101701D01*
X188692798Y-62098025D01*
X188655475Y-62101701D01*
X188655466Y-62101701D01*
X188543813Y-62112698D01*
X188400552Y-62156155D01*
X188268523Y-62226727D01*
X188152798Y-62321700D01*
X188129000Y-62350698D01*
X184018666Y-66461032D01*
X183969138Y-66297759D01*
X183847495Y-66070182D01*
X183683792Y-65870708D01*
X183599461Y-65801500D01*
X183683792Y-65732292D01*
X183847495Y-65532818D01*
X183969138Y-65305241D01*
X184044045Y-65058305D01*
X184069338Y-64801500D01*
X184044045Y-64544695D01*
X183969138Y-64297759D01*
X183847495Y-64070182D01*
X183790369Y-64000574D01*
X183879185Y-63927685D01*
X183958537Y-63830994D01*
X184017502Y-63720680D01*
X184053812Y-63600982D01*
X184066072Y-63476500D01*
X184066072Y-62126500D01*
X184053812Y-62002018D01*
X184017502Y-61882320D01*
X183958537Y-61772006D01*
X183879185Y-61675315D01*
X183782494Y-61595963D01*
X183672180Y-61536998D01*
X183552482Y-61500688D01*
X183428000Y-61488428D01*
X182078000Y-61488428D01*
X181953518Y-61500688D01*
X181833820Y-61536998D01*
X181723506Y-61595963D01*
X181626815Y-61675315D01*
X181547463Y-61772006D01*
X181488498Y-61882320D01*
X181452188Y-62002018D01*
X181439928Y-62126500D01*
X181439928Y-63476500D01*
X181452188Y-63600982D01*
X181488498Y-63720680D01*
X181547463Y-63830994D01*
X181626815Y-63927685D01*
X181715631Y-64000574D01*
X181658505Y-64070182D01*
X181536862Y-64297759D01*
X181461955Y-64544695D01*
X181436662Y-64801500D01*
X181458318Y-65021379D01*
X179739199Y-66740500D01*
X178491802Y-66740500D01*
X179719004Y-65513298D01*
X179748001Y-65489501D01*
X179842974Y-65373776D01*
X179913546Y-65241747D01*
X179957003Y-65098486D01*
X179968000Y-64986833D01*
X179968000Y-64986825D01*
X179971676Y-64949500D01*
X179968000Y-64912175D01*
X179968000Y-63465711D01*
X180011937Y-63421774D01*
X180125205Y-63252256D01*
X180203226Y-63063898D01*
X180243000Y-62863939D01*
X180243000Y-62801801D01*
X182846005Y-60198797D01*
X182875002Y-60175000D01*
X182969975Y-60059275D01*
X183040547Y-59927246D01*
X183084004Y-59783985D01*
X183095001Y-59672332D01*
X183095001Y-59672323D01*
X183098677Y-59635000D01*
X183095001Y-59597677D01*
X183095001Y-57779509D01*
X183098677Y-57742186D01*
X183095001Y-57704863D01*
X183095001Y-57704853D01*
X183084004Y-57593200D01*
X183040547Y-57449939D01*
X182978049Y-57333015D01*
X182969975Y-57317909D01*
X182898800Y-57231183D01*
X182875002Y-57202185D01*
X182846004Y-57178387D01*
X182342414Y-56674797D01*
X182413937Y-56603274D01*
X182527205Y-56433756D01*
X182605226Y-56245398D01*
X182645000Y-56045439D01*
X182645000Y-55841561D01*
X182605226Y-55641602D01*
X182527205Y-55453244D01*
X182413937Y-55283726D01*
X182370000Y-55239789D01*
X182370000Y-51548823D01*
X182373676Y-51511498D01*
X182370000Y-51474173D01*
X182370000Y-51474165D01*
X182359003Y-51362512D01*
X182315546Y-51219251D01*
X182244974Y-51087222D01*
X182150001Y-50971497D01*
X182121003Y-50947699D01*
X179255805Y-48082502D01*
X179232002Y-48053498D01*
X179116277Y-47958525D01*
X178984248Y-47887953D01*
X178840987Y-47844496D01*
X178729334Y-47833499D01*
X178729323Y-47833499D01*
X178692001Y-47829823D01*
X178654679Y-47833499D01*
X177249323Y-47833499D01*
X177212000Y-47829823D01*
X177174677Y-47833499D01*
X177174668Y-47833499D01*
X177063015Y-47844496D01*
X176919754Y-47887953D01*
X176787725Y-47958525D01*
X176672000Y-48053498D01*
X176648197Y-48082502D01*
X176431881Y-48298818D01*
X176276351Y-48283500D01*
X176147649Y-48283500D01*
X175955195Y-48302455D01*
X175708259Y-48377362D01*
X175480682Y-48499005D01*
X175281208Y-48662708D01*
X175212000Y-48747039D01*
X175142792Y-48662708D01*
X174943318Y-48499005D01*
X174715741Y-48377362D01*
X174468805Y-48302455D01*
X174276351Y-48283500D01*
X174147649Y-48283500D01*
X173955195Y-48302455D01*
X173708259Y-48377362D01*
X173480682Y-48499005D01*
X173411074Y-48556131D01*
X173338185Y-48467315D01*
X173241494Y-48387963D01*
X173131180Y-48328998D01*
X173011482Y-48292688D01*
X172887000Y-48280428D01*
X171537000Y-48280428D01*
X171412518Y-48292688D01*
X171292820Y-48328998D01*
X171182506Y-48387963D01*
X171085815Y-48467315D01*
X171006463Y-48564006D01*
X170947498Y-48674320D01*
X170911188Y-48794018D01*
X170898928Y-48918500D01*
X170898928Y-48939174D01*
X170862724Y-48958526D01*
X170862722Y-48958527D01*
X170862723Y-48958527D01*
X170775996Y-49029701D01*
X170775992Y-49029705D01*
X170746999Y-49053499D01*
X170723205Y-49082492D01*
X169668998Y-50136701D01*
X169640000Y-50160499D01*
X169616202Y-50189497D01*
X169616201Y-50189498D01*
X169545026Y-50276224D01*
X169474454Y-50408254D01*
X169430998Y-50551515D01*
X169416324Y-50700500D01*
X169420001Y-50737832D01*
X169420000Y-52945199D01*
X166738803Y-50264002D01*
X166715000Y-50234998D01*
X166599275Y-50140025D01*
X166467246Y-50069453D01*
X166323985Y-50025996D01*
X166212332Y-50014999D01*
X166212321Y-50014999D01*
X166174999Y-50011323D01*
X166137677Y-50014999D01*
X155321000Y-50014999D01*
X155321000Y-39776000D01*
X218009000Y-39776000D01*
X218009000Y-72009000D01*
X203454000Y-72009000D01*
X203429224Y-72011440D01*
X203405399Y-72018667D01*
X203383443Y-72030403D01*
X203364197Y-72046197D01*
X203348403Y-72065443D01*
X203336667Y-72087399D01*
X203329440Y-72111224D01*
X203327000Y-72136000D01*
X203327000Y-74676000D01*
X203329440Y-74700776D01*
X203336667Y-74724601D01*
X203348403Y-74746557D01*
X203364197Y-74765803D01*
X203383443Y-74781597D01*
X203405399Y-74793333D01*
X203429224Y-74800560D01*
X203454000Y-74803000D01*
X218009000Y-74803000D01*
X218009001Y-119711000D01*
X79679000Y-119711000D01*
X79679000Y-108300760D01*
X95020700Y-108300760D01*
X95020700Y-108765640D01*
X95111394Y-109221587D01*
X95289295Y-109651079D01*
X95547568Y-110037612D01*
X95876288Y-110366332D01*
X96262821Y-110624605D01*
X96692313Y-110802506D01*
X97148260Y-110893200D01*
X97613140Y-110893200D01*
X98069087Y-110802506D01*
X98498579Y-110624605D01*
X98885112Y-110366332D01*
X99213832Y-110037612D01*
X99472105Y-109651079D01*
X99650006Y-109221587D01*
X99740700Y-108765640D01*
X99740700Y-108352961D01*
X159080700Y-108352961D01*
X159080700Y-108713439D01*
X159151025Y-109066991D01*
X159288975Y-109400030D01*
X159489246Y-109699757D01*
X159744143Y-109954654D01*
X160043870Y-110154925D01*
X160376909Y-110292875D01*
X160730461Y-110363200D01*
X161090939Y-110363200D01*
X161444491Y-110292875D01*
X161777530Y-110154925D01*
X162077257Y-109954654D01*
X162332154Y-109699757D01*
X162532425Y-109400030D01*
X162670375Y-109066991D01*
X162740700Y-108713439D01*
X162740700Y-108352961D01*
X162670375Y-107999409D01*
X162532425Y-107666370D01*
X162332154Y-107366643D01*
X162077257Y-107111746D01*
X161777530Y-106911475D01*
X161444491Y-106773525D01*
X161090939Y-106703200D01*
X160730461Y-106703200D01*
X160376909Y-106773525D01*
X160043870Y-106911475D01*
X159744143Y-107111746D01*
X159489246Y-107366643D01*
X159288975Y-107666370D01*
X159151025Y-107999409D01*
X159080700Y-108352961D01*
X99740700Y-108352961D01*
X99740700Y-108300760D01*
X99650006Y-107844813D01*
X99472105Y-107415321D01*
X99213832Y-107028788D01*
X98885112Y-106700068D01*
X98498579Y-106441795D01*
X98069087Y-106263894D01*
X97613140Y-106173200D01*
X97148260Y-106173200D01*
X96692313Y-106263894D01*
X96262821Y-106441795D01*
X95876288Y-106700068D01*
X95547568Y-107028788D01*
X95289295Y-107415321D01*
X95111394Y-107844813D01*
X95020700Y-108300760D01*
X79679000Y-108300760D01*
X79679000Y-60428500D01*
X119730628Y-60428500D01*
X119742888Y-60552982D01*
X119779198Y-60672680D01*
X119838163Y-60782994D01*
X119917515Y-60879685D01*
X120014206Y-60959037D01*
X120124520Y-61018002D01*
X120244218Y-61054312D01*
X120368700Y-61066572D01*
X120757950Y-61063500D01*
X120916700Y-60904750D01*
X120916700Y-59880500D01*
X121170700Y-59880500D01*
X121170700Y-60904750D01*
X121329450Y-61063500D01*
X121718700Y-61066572D01*
X121843182Y-61054312D01*
X121962880Y-61018002D01*
X122073194Y-60959037D01*
X122169885Y-60879685D01*
X122249237Y-60782994D01*
X122308202Y-60672680D01*
X122344512Y-60552982D01*
X122356772Y-60428500D01*
X122353700Y-60039250D01*
X122194950Y-59880500D01*
X121170700Y-59880500D01*
X120916700Y-59880500D01*
X119892450Y-59880500D01*
X119733700Y-60039250D01*
X119730628Y-60428500D01*
X79679000Y-60428500D01*
X79679000Y-59078500D01*
X119730628Y-59078500D01*
X119733700Y-59467750D01*
X119892450Y-59626500D01*
X120916700Y-59626500D01*
X120916700Y-58602250D01*
X121170700Y-58602250D01*
X121170700Y-59626500D01*
X122194950Y-59626500D01*
X122353700Y-59467750D01*
X122356772Y-59078500D01*
X122344512Y-58954018D01*
X122308202Y-58834320D01*
X122249237Y-58724006D01*
X122169885Y-58627315D01*
X122073194Y-58547963D01*
X121962880Y-58488998D01*
X121843182Y-58452688D01*
X121718700Y-58440428D01*
X121329450Y-58443500D01*
X121170700Y-58602250D01*
X120916700Y-58602250D01*
X120757950Y-58443500D01*
X120368700Y-58440428D01*
X120244218Y-58452688D01*
X120124520Y-58488998D01*
X120014206Y-58547963D01*
X119917515Y-58627315D01*
X119838163Y-58724006D01*
X119779198Y-58834320D01*
X119742888Y-58954018D01*
X119730628Y-59078500D01*
X79679000Y-59078500D01*
X79679000Y-39776000D01*
X152527000Y-39776000D01*
X152527000Y-50014999D01*
G36*
X169165000Y-54839802D02*
G01*
X169165000Y-54901939D01*
X169204774Y-55101898D01*
X169282795Y-55290256D01*
X169396063Y-55459774D01*
X169420001Y-55483712D01*
X169420000Y-57487179D01*
X169416324Y-57524502D01*
X169420000Y-57561824D01*
X169420000Y-57561834D01*
X169430997Y-57673487D01*
X169458689Y-57764776D01*
X169474454Y-57816748D01*
X169545026Y-57948778D01*
X169564492Y-57972497D01*
X169639999Y-58064503D01*
X169669002Y-58088306D01*
X170575199Y-58994503D01*
X170598997Y-59023501D01*
X170627995Y-59047299D01*
X170714721Y-59118474D01*
X170846751Y-59189046D01*
X170990012Y-59232503D01*
X171101665Y-59243500D01*
X171101675Y-59243500D01*
X171138998Y-59247176D01*
X171176321Y-59243500D01*
X177223289Y-59243500D01*
X177267226Y-59287437D01*
X177436744Y-59400705D01*
X177625102Y-59478726D01*
X177825061Y-59518500D01*
X178028939Y-59518500D01*
X178228898Y-59478726D01*
X178417256Y-59400705D01*
X178586774Y-59287437D01*
X178730937Y-59143274D01*
X178844205Y-58973756D01*
X178922226Y-58785398D01*
X178962000Y-58585439D01*
X178962000Y-58381561D01*
X178922226Y-58181602D01*
X178844205Y-57993244D01*
X178730937Y-57823726D01*
X178586774Y-57679563D01*
X178417256Y-57566295D01*
X178228898Y-57488274D01*
X178028939Y-57448500D01*
X177825061Y-57448500D01*
X177625102Y-57488274D01*
X177436744Y-57566295D01*
X177267226Y-57679563D01*
X177223289Y-57723500D01*
X172030632Y-57723500D01*
X172064226Y-57642398D01*
X172104000Y-57442439D01*
X172104000Y-57380301D01*
X172710703Y-56773599D01*
X172739700Y-56749802D01*
X172834673Y-56634077D01*
X172905245Y-56502048D01*
X172948702Y-56358787D01*
X172959699Y-56247134D01*
X172959699Y-56247124D01*
X172963375Y-56209801D01*
X172959699Y-56172478D01*
X172959699Y-53217800D01*
X173026639Y-53217800D01*
X173226598Y-53178026D01*
X173414956Y-53100005D01*
X173584474Y-52986737D01*
X173628411Y-52942800D01*
X177026499Y-52942800D01*
X178757198Y-54673500D01*
X178412101Y-55018598D01*
X178340926Y-55105324D01*
X178270354Y-55237354D01*
X178226898Y-55380615D01*
X178212224Y-55529600D01*
X178226898Y-55678585D01*
X178270354Y-55821846D01*
X178340926Y-55953876D01*
X178435899Y-56069601D01*
X178551624Y-56164574D01*
X178683654Y-56235146D01*
X178826915Y-56278602D01*
X178975900Y-56293276D01*
X179124885Y-56278602D01*
X179268146Y-56235146D01*
X179400176Y-56164574D01*
X179486902Y-56093399D01*
X179549157Y-56031144D01*
X181575002Y-58056989D01*
X181575001Y-59320197D01*
X179168199Y-61727000D01*
X179106061Y-61727000D01*
X178906102Y-61766774D01*
X178717744Y-61844795D01*
X178548226Y-61958063D01*
X178404063Y-62102226D01*
X178290795Y-62271744D01*
X178212774Y-62460102D01*
X178173000Y-62660061D01*
X178173000Y-62863939D01*
X178212774Y-63063898D01*
X178290795Y-63252256D01*
X178404063Y-63421774D01*
X178448001Y-63465712D01*
X178448000Y-64634698D01*
X176617199Y-66465500D01*
X176555061Y-66465500D01*
X176355102Y-66505274D01*
X176166744Y-66583295D01*
X175997226Y-66696563D01*
X175853063Y-66840726D01*
X175739795Y-67010244D01*
X175661774Y-67198602D01*
X175622000Y-67398561D01*
X175622000Y-67602439D01*
X175661774Y-67802398D01*
X175739795Y-67990756D01*
X175853063Y-68160274D01*
X175997226Y-68304437D01*
X176166744Y-68417705D01*
X176355102Y-68495726D01*
X176555061Y-68535500D01*
X176758939Y-68535500D01*
X176958898Y-68495726D01*
X177147256Y-68417705D01*
X177316774Y-68304437D01*
X177360711Y-68260500D01*
X180016678Y-68260500D01*
X180054000Y-68264176D01*
X180091322Y-68260500D01*
X180091333Y-68260500D01*
X180202986Y-68249503D01*
X180346247Y-68206046D01*
X180478276Y-68135474D01*
X180594001Y-68040501D01*
X180617804Y-68011497D01*
X181015845Y-67613456D01*
X181003997Y-67652515D01*
X180993000Y-67764168D01*
X180989323Y-67801501D01*
X180993000Y-67838833D01*
X180992999Y-69244178D01*
X180989323Y-69281501D01*
X180992999Y-69318823D01*
X180992999Y-69318833D01*
X181003996Y-69430486D01*
X181035038Y-69532818D01*
X181047453Y-69573747D01*
X181118025Y-69705777D01*
X181139786Y-69732292D01*
X181212998Y-69821502D01*
X181242001Y-69845304D01*
X181438197Y-70041500D01*
X179297178Y-70041500D01*
X179225205Y-69867744D01*
X179111937Y-69698226D01*
X178967774Y-69554063D01*
X178798256Y-69440795D01*
X178609898Y-69362774D01*
X178409939Y-69323000D01*
X178206061Y-69323000D01*
X178006102Y-69362774D01*
X177817744Y-69440795D01*
X177648226Y-69554063D01*
X177504063Y-69698226D01*
X177390795Y-69867744D01*
X177312774Y-70056102D01*
X177273000Y-70256061D01*
X177273000Y-70459939D01*
X177312774Y-70659898D01*
X177390795Y-70848256D01*
X177504063Y-71017774D01*
X177648226Y-71161937D01*
X177817744Y-71275205D01*
X178006102Y-71353226D01*
X178206061Y-71393000D01*
X178274251Y-71393000D01*
X178327224Y-71436474D01*
X178459253Y-71507046D01*
X178602514Y-71550503D01*
X178714167Y-71561500D01*
X178714175Y-71561500D01*
X178751500Y-71565176D01*
X178788825Y-71561500D01*
X181682044Y-71561500D01*
X181822208Y-71732292D01*
X181993001Y-71872457D01*
X181993001Y-72009000D01*
X155321000Y-72009000D01*
X155321000Y-52510000D01*
X159272377Y-52510000D01*
X159398061Y-52535000D01*
X159601939Y-52535000D01*
X159801898Y-52495226D01*
X159990256Y-52417205D01*
X160159774Y-52303937D01*
X160303937Y-52159774D01*
X160417205Y-51990256D01*
X160495226Y-51801898D01*
X160535000Y-51601939D01*
X160535000Y-51534999D01*
X165860198Y-51534999D01*
X169165000Y-54839802D01*
X169165000Y-54839802D01*
G37*
X169165000Y-54839802D02*
X169165000Y-54901939D01*
X169204774Y-55101898D01*
X169282795Y-55290256D01*
X169396063Y-55459774D01*
X169420001Y-55483712D01*
X169420000Y-57487179D01*
X169416324Y-57524502D01*
X169420000Y-57561824D01*
X169420000Y-57561834D01*
X169430997Y-57673487D01*
X169458689Y-57764776D01*
X169474454Y-57816748D01*
X169545026Y-57948778D01*
X169564492Y-57972497D01*
X169639999Y-58064503D01*
X169669002Y-58088306D01*
X170575199Y-58994503D01*
X170598997Y-59023501D01*
X170627995Y-59047299D01*
X170714721Y-59118474D01*
X170846751Y-59189046D01*
X170990012Y-59232503D01*
X171101665Y-59243500D01*
X171101675Y-59243500D01*
X171138998Y-59247176D01*
X171176321Y-59243500D01*
X177223289Y-59243500D01*
X177267226Y-59287437D01*
X177436744Y-59400705D01*
X177625102Y-59478726D01*
X177825061Y-59518500D01*
X178028939Y-59518500D01*
X178228898Y-59478726D01*
X178417256Y-59400705D01*
X178586774Y-59287437D01*
X178730937Y-59143274D01*
X178844205Y-58973756D01*
X178922226Y-58785398D01*
X178962000Y-58585439D01*
X178962000Y-58381561D01*
X178922226Y-58181602D01*
X178844205Y-57993244D01*
X178730937Y-57823726D01*
X178586774Y-57679563D01*
X178417256Y-57566295D01*
X178228898Y-57488274D01*
X178028939Y-57448500D01*
X177825061Y-57448500D01*
X177625102Y-57488274D01*
X177436744Y-57566295D01*
X177267226Y-57679563D01*
X177223289Y-57723500D01*
X172030632Y-57723500D01*
X172064226Y-57642398D01*
X172104000Y-57442439D01*
X172104000Y-57380301D01*
X172710703Y-56773599D01*
X172739700Y-56749802D01*
X172834673Y-56634077D01*
X172905245Y-56502048D01*
X172948702Y-56358787D01*
X172959699Y-56247134D01*
X172959699Y-56247124D01*
X172963375Y-56209801D01*
X172959699Y-56172478D01*
X172959699Y-53217800D01*
X173026639Y-53217800D01*
X173226598Y-53178026D01*
X173414956Y-53100005D01*
X173584474Y-52986737D01*
X173628411Y-52942800D01*
X177026499Y-52942800D01*
X178757198Y-54673500D01*
X178412101Y-55018598D01*
X178340926Y-55105324D01*
X178270354Y-55237354D01*
X178226898Y-55380615D01*
X178212224Y-55529600D01*
X178226898Y-55678585D01*
X178270354Y-55821846D01*
X178340926Y-55953876D01*
X178435899Y-56069601D01*
X178551624Y-56164574D01*
X178683654Y-56235146D01*
X178826915Y-56278602D01*
X178975900Y-56293276D01*
X179124885Y-56278602D01*
X179268146Y-56235146D01*
X179400176Y-56164574D01*
X179486902Y-56093399D01*
X179549157Y-56031144D01*
X181575002Y-58056989D01*
X181575001Y-59320197D01*
X179168199Y-61727000D01*
X179106061Y-61727000D01*
X178906102Y-61766774D01*
X178717744Y-61844795D01*
X178548226Y-61958063D01*
X178404063Y-62102226D01*
X178290795Y-62271744D01*
X178212774Y-62460102D01*
X178173000Y-62660061D01*
X178173000Y-62863939D01*
X178212774Y-63063898D01*
X178290795Y-63252256D01*
X178404063Y-63421774D01*
X178448001Y-63465712D01*
X178448000Y-64634698D01*
X176617199Y-66465500D01*
X176555061Y-66465500D01*
X176355102Y-66505274D01*
X176166744Y-66583295D01*
X175997226Y-66696563D01*
X175853063Y-66840726D01*
X175739795Y-67010244D01*
X175661774Y-67198602D01*
X175622000Y-67398561D01*
X175622000Y-67602439D01*
X175661774Y-67802398D01*
X175739795Y-67990756D01*
X175853063Y-68160274D01*
X175997226Y-68304437D01*
X176166744Y-68417705D01*
X176355102Y-68495726D01*
X176555061Y-68535500D01*
X176758939Y-68535500D01*
X176958898Y-68495726D01*
X177147256Y-68417705D01*
X177316774Y-68304437D01*
X177360711Y-68260500D01*
X180016678Y-68260500D01*
X180054000Y-68264176D01*
X180091322Y-68260500D01*
X180091333Y-68260500D01*
X180202986Y-68249503D01*
X180346247Y-68206046D01*
X180478276Y-68135474D01*
X180594001Y-68040501D01*
X180617804Y-68011497D01*
X181015845Y-67613456D01*
X181003997Y-67652515D01*
X180993000Y-67764168D01*
X180989323Y-67801501D01*
X180993000Y-67838833D01*
X180992999Y-69244178D01*
X180989323Y-69281501D01*
X180992999Y-69318823D01*
X180992999Y-69318833D01*
X181003996Y-69430486D01*
X181035038Y-69532818D01*
X181047453Y-69573747D01*
X181118025Y-69705777D01*
X181139786Y-69732292D01*
X181212998Y-69821502D01*
X181242001Y-69845304D01*
X181438197Y-70041500D01*
X179297178Y-70041500D01*
X179225205Y-69867744D01*
X179111937Y-69698226D01*
X178967774Y-69554063D01*
X178798256Y-69440795D01*
X178609898Y-69362774D01*
X178409939Y-69323000D01*
X178206061Y-69323000D01*
X178006102Y-69362774D01*
X177817744Y-69440795D01*
X177648226Y-69554063D01*
X177504063Y-69698226D01*
X177390795Y-69867744D01*
X177312774Y-70056102D01*
X177273000Y-70256061D01*
X177273000Y-70459939D01*
X177312774Y-70659898D01*
X177390795Y-70848256D01*
X177504063Y-71017774D01*
X177648226Y-71161937D01*
X177817744Y-71275205D01*
X178006102Y-71353226D01*
X178206061Y-71393000D01*
X178274251Y-71393000D01*
X178327224Y-71436474D01*
X178459253Y-71507046D01*
X178602514Y-71550503D01*
X178714167Y-71561500D01*
X178714175Y-71561500D01*
X178751500Y-71565176D01*
X178788825Y-71561500D01*
X181682044Y-71561500D01*
X181822208Y-71732292D01*
X181993001Y-71872457D01*
X181993001Y-72009000D01*
X155321000Y-72009000D01*
X155321000Y-52510000D01*
X159272377Y-52510000D01*
X159398061Y-52535000D01*
X159601939Y-52535000D01*
X159801898Y-52495226D01*
X159990256Y-52417205D01*
X160159774Y-52303937D01*
X160303937Y-52159774D01*
X160417205Y-51990256D01*
X160495226Y-51801898D01*
X160535000Y-51601939D01*
X160535000Y-51534999D01*
X165860198Y-51534999D01*
X169165000Y-54839802D01*
M02*
